<svg width="230" height="230" viewBox="0 0 230 230" fill="none" xmlns="http://www.w3.org/2000/svg">
<path d="M218.854 0.379439C218.921 0.462563 217.087 2.02632 214.76 3.87061C212.432 5.71491 210.489 7.1384 210.422 7.05527C210.354 6.97215 212.188 5.40839 214.521 3.5641C216.853 1.7198 218.786 0.296316 218.854 0.379439Z" fill="#E0E0E0"/>
<path d="M218.791 54.103L210.109 47.0635L218.791 54.103Z" fill="white"/>
<path d="M210.11 47.0634C210.177 46.9855 212.188 48.4921 214.573 50.4351C216.957 52.3781 218.859 54.0198 218.791 54.1029C218.724 54.1861 216.713 52.6743 214.334 50.7312C211.954 48.7882 210.048 47.1466 210.11 47.0634Z" fill="#E0E0E0"/>
<path d="M140.998 54.0921C140.935 54.009 142.748 52.466 145.055 50.6425C147.362 48.819 149.279 47.4111 149.346 47.4942C149.414 47.5773 147.596 49.1203 145.294 50.9438C142.993 52.7674 141.065 54.1752 140.998 54.0921Z" fill="#E0E0E0"/>
<path d="M103.577 180.086C103.577 177.733 105.38 176.029 107.806 176.029C108.39 176.008 108.972 176.115 109.511 176.343C110.05 176.571 110.532 176.914 110.923 177.349L109.983 178.227C109.718 177.93 109.393 177.694 109.029 177.535C108.665 177.375 108.271 177.296 107.874 177.302C107.499 177.286 107.125 177.345 106.774 177.478C106.423 177.61 106.102 177.812 105.831 178.071C105.56 178.331 105.345 178.642 105.197 178.987C105.05 179.332 104.974 179.704 104.974 180.079C104.974 180.454 105.05 180.825 105.197 181.17C105.345 181.515 105.56 181.827 105.831 182.086C106.102 182.346 106.423 182.547 106.774 182.68C107.125 182.812 107.499 182.872 107.874 182.856C108.272 182.862 108.668 182.782 109.032 182.619C109.397 182.457 109.721 182.216 109.983 181.915L110.934 182.819C110.542 183.253 110.059 183.596 109.521 183.824C108.983 184.052 108.401 184.159 107.816 184.139C105.364 184.149 103.577 182.445 103.577 180.086Z" fill="#EBEBEB"/>
<path d="M95.5602 186.274H85.7725V176.486H95.5602V186.274ZM86.292 185.755H95.0407V177.006H86.292V185.755Z" fill="#EBEBEB"/>
<path d="M83.9082 188.311C83.6172 188.092 85.9551 184.58 89.5554 180.855C93.1556 177.131 96.5741 174.658 96.8286 174.938C97.0832 175.219 94.0908 178.118 90.5528 181.796C87.0149 185.474 84.2095 188.55 83.9082 188.311Z" fill="#E0E0E0"/>
<path d="M96.9643 188.098C96.6474 188.326 93.977 185.079 90.4495 181.313C86.922 177.546 83.8672 174.658 84.1114 174.356C84.3555 174.055 87.8467 176.538 91.4366 180.388C95.0265 184.238 97.2604 187.911 96.9643 188.098Z" fill="#E0E0E0"/>
<path d="M30.0338 148.162L25.2282 147.819L24.1216 149.98L22.2773 149.85L27.2907 140.535L29.0467 140.66L32.6833 150.588L30.8131 150.458L30.0338 148.162ZM29.5454 146.717L28.0336 142.379L25.9555 146.458L29.5454 146.717Z" fill="#EBEBEB"/>
<path d="M14.3393 150.375L2.52539 149.539L3.36701 137.704L15.1757 138.546L14.3393 150.375ZM3.08128 149.056L13.8561 149.824L14.6198 139.044L3.84497 138.281L3.08128 149.056Z" fill="#EBEBEB"/>
<path d="M0.0159139 151.908C-0.254237 151.674 2.94081 147.647 7.64247 143.429C12.3441 139.21 16.6769 136.441 16.8847 136.732C17.0925 137.023 13.1806 140.255 8.57241 144.432C3.96427 148.609 0.30165 152.167 0.0159139 151.908Z" fill="#E0E0E0"/>
<path d="M15.9389 152.801C15.6064 153.009 12.6867 148.775 8.70194 143.876C4.71722 138.977 1.20007 135.231 1.45983 134.946C1.71959 134.66 5.7095 138.032 9.77215 143.024C13.8348 148.017 16.2454 152.62 15.9389 152.801Z" fill="#E0E0E0"/>
<path d="M229.347 96.7708C229.799 98.3606 228.828 99.6438 226.428 100.319L221.814 101.623L219.217 92.3445L223.565 91.1132C225.789 90.4846 227.249 91.1132 227.664 92.5575C227.797 92.9715 227.81 93.4148 227.702 93.8359C227.593 94.257 227.368 94.6387 227.051 94.9369C227.584 94.9395 228.101 95.122 228.518 95.4548C228.935 95.7876 229.227 96.2513 229.347 96.7708ZM221.295 93.2069L222.022 95.7681L224.459 95.0772C225.654 94.7395 226.21 94.1213 225.971 93.2744C225.732 92.4276 224.932 92.1783 223.737 92.516L221.295 93.2069ZM227.565 97.0877C227.301 96.163 226.48 95.95 225.181 96.3188L222.401 97.1085L223.155 99.784L225.939 98.9944C227.238 98.6255 227.825 98.0177 227.565 97.0877Z" fill="#EBEBEB"/>
<path d="M201.819 108.419L198.593 97.0255L209.986 93.7993L213.212 105.192L201.819 108.419ZM199.221 97.384L202.162 107.774L212.552 104.829L209.607 94.4383L199.221 97.384Z" fill="#EBEBEB"/>
<path d="M200.265 111.505C199.928 111.369 201.564 106.502 204.551 100.932C207.539 95.3631 210.677 91.29 210.968 91.4978C211.258 91.7056 208.682 96.0644 205.772 101.571C202.863 107.078 200.619 111.65 200.265 111.505Z" fill="#E0E0E0"/>
<path d="M215.544 106.928C215.299 107.234 211.117 104.247 205.704 100.995C200.291 97.7426 195.708 95.41 195.864 95.0515C196.02 94.693 200.914 96.5113 206.4 99.8363C211.886 103.161 215.772 106.652 215.544 106.928Z" fill="#E0E0E0"/>
<path d="M228.101 209.398C228.101 209.471 177.11 209.533 114.233 209.533C51.3551 209.533 0.348633 209.445 0.348633 209.398C0.348633 209.351 51.3291 209.263 114.233 209.263C177.136 209.263 228.101 209.294 228.101 209.398Z" fill="black"/>
<path d="M161.161 25.6069H27.7432V160.952H161.161V25.6069Z" fill="white"/>
<path d="M161.161 160.952C161.161 160.952 161.161 160.89 161.161 160.786C161.161 160.682 161.161 160.516 161.161 160.308C161.161 159.887 161.161 159.269 161.161 158.438C161.161 156.786 161.161 154.349 161.135 151.165C161.135 144.806 161.099 135.486 161.073 123.63C161.047 99.9556 161.005 66.1452 160.953 25.6071L161.187 25.8409L27.7848 25.8772L28.0549 25.6071C28.0549 75.2057 28.0549 121.666 28.0186 160.947L27.7848 160.719L124.447 160.833L151.571 160.895L158.73 160.921H160.574H161.042H161.203H160.6H158.782L151.664 160.947L124.597 161.01L27.7848 161.124H27.551V160.89C27.551 121.609 27.551 75.1693 27.5146 25.5499V25.2798H27.8004L161.203 25.3162H161.442V25.5499C161.39 66.1504 161.348 100.008 161.322 123.739C161.291 135.574 161.27 144.873 161.26 151.222C161.26 154.381 161.26 156.807 161.229 158.448C161.229 159.259 161.229 159.877 161.229 160.293V160.755C161.214 160.823 161.191 160.89 161.161 160.952Z" fill="#263238"/>
<path d="M38.2168 47.6816V51.2715H37.5466V48.2427H36.7881V47.6816H38.2168Z" fill="black"/>
<path d="M38.9082 50.8817C38.9082 50.8265 38.9191 50.7718 38.9402 50.7207C38.9614 50.6697 38.9924 50.6233 39.0315 50.5842C39.0705 50.5451 39.1169 50.5141 39.168 50.493C39.219 50.4718 39.2738 50.4609 39.329 50.4609C39.3843 50.4609 39.439 50.4718 39.4901 50.493C39.5411 50.5141 39.5875 50.5451 39.6266 50.5842C39.6656 50.6233 39.6966 50.6697 39.7178 50.7207C39.7389 50.7718 39.7498 50.8265 39.7498 50.8817C39.7498 50.937 39.7389 50.9917 39.7178 51.0428C39.6966 51.0938 39.6656 51.1402 39.6266 51.1793C39.5875 51.2184 39.5411 51.2494 39.4901 51.2705C39.439 51.2917 39.3843 51.3026 39.329 51.3026C39.2738 51.3026 39.219 51.2917 39.168 51.2705C39.1169 51.2494 39.0705 51.2184 39.0315 51.1793C38.9924 51.1402 38.9614 51.0938 38.9402 51.0428C38.9191 50.9917 38.9082 50.937 38.9082 50.8817Z" fill="black"/>
<path d="M82.9532 33.1713C82.9356 32.7858 83.0337 32.4039 83.2351 32.0746C83.4364 31.7454 83.7318 31.484 84.083 31.3241C84.4342 31.1642 84.8253 31.1131 85.2058 31.1774C85.5863 31.2417 85.9388 31.4184 86.218 31.6849C86.4972 31.9513 86.6902 32.2952 86.7723 32.6723C86.8543 33.0494 86.8215 33.4424 86.6782 33.8007C86.5349 34.159 86.2876 34.4662 85.9681 34.6828C85.6487 34.8993 85.2717 35.0152 84.8858 35.0156C84.6361 35.0283 84.3864 34.99 84.152 34.903C83.9176 34.8159 83.7035 34.682 83.5226 34.5094C83.3417 34.3368 83.1979 34.1291 83.1 33.899C83.0021 33.669 82.9522 33.4213 82.9532 33.1713ZM86.1482 33.1713C86.1482 32.9216 86.0742 32.6776 85.9355 32.47C85.7968 32.2623 85.5996 32.1005 85.3689 32.005C85.1382 31.9094 84.8844 31.8844 84.6395 31.9331C84.3946 31.9819 84.1697 32.1021 83.9931 32.2786C83.8166 32.4552 83.6963 32.6801 83.6476 32.925C83.5989 33.1699 83.6239 33.4238 83.7195 33.6544C83.815 33.8851 83.9768 34.0823 84.1844 34.221C84.392 34.3597 84.6361 34.4338 84.8858 34.4338C85.0525 34.4381 85.2184 34.4083 85.3732 34.3463C85.528 34.2844 85.6686 34.1914 85.7863 34.0733C85.904 33.9551 85.9963 33.8142 86.0576 33.6591C86.119 33.504 86.148 33.338 86.143 33.1713H86.1482Z" fill="black"/>
<path d="M90.7143 31.3789V34.9688H90.1688L88.1894 32.5374V34.9688H87.5244V31.3789H88.0751L90.0545 33.7999V31.3789H90.7143Z" fill="black"/>
<path d="M91.6797 31.3789H92.3447V34.4025H94.2253V34.9688H91.6797V31.3789Z" fill="black"/>
<path d="M94.751 31.3789H95.416V34.9688H94.751V31.3789Z" fill="black"/>
<path d="M99.5772 31.3789V34.9688H99.0265L97.0524 32.5374V34.9688H96.3926V31.3789H96.9433L98.9174 33.7999V31.3789H99.5772Z" fill="black"/>
<path d="M103.235 34.4077V34.9688H100.539V31.3789H103.137V31.9348H101.209V32.8699H102.944V33.4154H101.209V34.4077H103.235Z" fill="black"/>
<path d="M106.118 31.94H104.929V31.3789H107.963V31.94H106.773V34.9688H106.103L106.118 31.94Z" fill="black"/>
<path d="M111.173 34.4077V34.9688H108.481V31.3789H111.079V31.9348H109.126V32.8699H110.856V33.4154H109.126V34.4077H111.173Z" fill="black"/>
<path d="M111.6 34.5896L111.833 34.0701C112.176 34.3247 112.591 34.4631 113.018 34.4649C113.579 34.4649 113.813 34.2623 113.813 33.9974C113.813 33.2233 111.678 33.7324 111.678 32.3973C111.678 31.8154 112.14 31.327 113.127 31.327C113.547 31.3193 113.961 31.4291 114.322 31.644L114.109 32.1635C113.811 31.9825 113.47 31.8839 113.122 31.8777C112.566 31.8777 112.343 32.0959 112.343 32.3661C112.343 33.1298 114.467 32.631 114.467 33.9506C114.467 34.5273 114 34.9897 113.018 34.9897C112.514 35.0127 112.017 34.8724 111.6 34.5896Z" fill="black"/>
<path d="M115.818 31.94H114.628V31.3789H117.672V31.94H116.483V34.9688H115.818V31.94Z" fill="black"/>
<path d="M54.8415 63.4545H53.0439L52.6907 64.2857H52.0049L53.6206 60.6958H54.2752L55.8961 64.2857H55.1999L54.8415 63.4545ZM54.6181 62.9349L53.9427 61.3764L53.2725 62.9349H54.6181Z" fill="black"/>
<path d="M36.747 34.9636C37.5532 34.9636 38.2068 34.31 38.2068 33.5038C38.2068 32.6975 37.5532 32.0439 36.747 32.0439C35.9407 32.0439 35.2871 32.6975 35.2871 33.5038C35.2871 34.31 35.9407 34.9636 36.747 34.9636Z" fill="black"/>
<path d="M41.1679 34.9636C41.9741 34.9636 42.6277 34.31 42.6277 33.5038C42.6277 32.6975 41.9741 32.0439 41.1679 32.0439C40.3616 32.0439 39.708 32.6975 39.708 33.5038C39.708 34.31 40.3616 34.9636 41.1679 34.9636Z" fill="black"/>
<path d="M45.5888 34.9636C46.395 34.9636 47.0486 34.31 47.0486 33.5038C47.0486 32.6975 46.395 32.0439 45.5888 32.0439C44.7825 32.0439 44.1289 32.6975 44.1289 33.5038C44.1289 34.31 44.7825 34.9636 45.5888 34.9636Z" fill="black"/>
<path d="M161.162 40.7249C161.162 40.7977 131.445 40.86 94.7928 40.86C58.1407 40.86 28.4189 40.7977 28.4189 40.7249C28.4189 40.6522 58.1303 40.5898 94.7928 40.5898C131.455 40.5898 161.162 40.6522 161.162 40.7249Z" fill="black"/>
<path d="M146.573 50.762C146.573 50.8348 123.439 50.8971 94.9071 50.8971C66.3751 50.8971 43.2305 50.8348 43.2305 50.762C43.2305 50.6893 66.3647 50.627 94.9071 50.627C123.45 50.627 146.573 50.6841 146.573 50.762Z" fill="black"/>
<path d="M83.1085 54.2742C83.1085 54.347 74.2766 54.4093 63.3667 54.4093C52.4568 54.4093 43.5938 54.347 43.5938 54.2742C43.5938 54.2015 52.4256 54.1392 63.3667 54.1392C74.3078 54.1392 83.1085 54.1963 83.1085 54.2742Z" fill="black"/>
<path d="M49.2563 64.852H44.5234V60.1191H49.2563V64.852ZM45.043 64.3324H48.7367V60.6387H45.043V64.3324Z" fill="black"/>
<path d="M55.6781 72.2961C55.6781 72.9092 55.195 73.2676 54.2702 73.2676H52.4883V69.6777H54.1663C55.0287 69.6777 55.4911 70.0414 55.4911 70.6129C55.4965 70.7747 55.4559 70.9348 55.3741 71.0746C55.2923 71.2143 55.1725 71.328 55.0287 71.4025C55.222 71.4563 55.3913 71.5739 55.5092 71.7361C55.6271 71.8984 55.6866 72.0957 55.6781 72.2961ZM53.1533 70.218V71.2051H54.0988C54.556 71.2051 54.8209 71.0441 54.8209 70.7168C54.8209 70.3895 54.556 70.1973 54.0988 70.1973L53.1533 70.218ZM55.0028 72.2442C55.0028 71.8857 54.7326 71.7246 54.2287 71.7246H53.1533V72.7637H54.2287C54.7326 72.7637 55.0028 72.587 55.0028 72.2442Z" fill="black"/>
<path d="M49.2563 73.839H44.5234V69.127H49.2563V73.839ZM45.043 73.3195H48.7367V69.6465H45.043V73.3195Z" fill="black"/>
<path d="M52.2275 80.4581C52.2462 80.0786 52.3756 79.7129 52.6 79.4062C52.8243 79.0995 53.1336 78.8654 53.4897 78.7327C53.8457 78.6 54.2329 78.5746 54.6032 78.6597C54.9735 78.7447 55.3108 78.9365 55.5732 79.2113L55.142 79.6165C55.0212 79.4818 54.8729 79.3746 54.7071 79.302C54.5413 79.2294 54.3619 79.1932 54.1809 79.1957C53.8461 79.1957 53.525 79.3287 53.2883 79.5655C53.0515 79.8022 52.9185 80.1233 52.9185 80.4581C52.9185 80.793 53.0515 81.1141 53.2883 81.3508C53.525 81.5876 53.8461 81.7206 54.1809 81.7206C54.3624 81.7231 54.5423 81.6864 54.7082 81.6129C54.8741 81.5393 55.0221 81.4307 55.142 81.2946L55.5732 81.705C55.3108 81.9798 54.9735 82.1715 54.6032 82.2566C54.2329 82.3417 53.8457 82.3163 53.4897 82.1836C53.1336 82.0509 52.8243 81.8167 52.6 81.5101C52.3756 81.2034 52.2462 80.8377 52.2275 80.4581Z" fill="black"/>
<path d="M49.2563 82.8217H44.5234V78.0889H49.2563V82.8217ZM45.043 82.3022H48.7367V78.6084H45.043V82.3022Z" fill="black"/>
<path d="M52.4883 87.6479H54.0468C55.2106 87.6479 56.0054 88.3649 56.0054 89.4403C56.0054 90.5157 55.2106 91.2378 54.0468 91.2378H52.4883V87.6479ZM54.0468 90.6716C54.2149 90.6825 54.3834 90.6588 54.542 90.602C54.7006 90.5452 54.8458 90.4565 54.9687 90.3413C55.0916 90.2262 55.1895 90.087 55.2565 89.9325C55.3235 89.778 55.358 89.6113 55.358 89.4429C55.358 89.2745 55.3235 89.1078 55.2565 88.9533C55.1895 88.7988 55.0916 88.6596 54.9687 88.5444C54.8458 88.4293 54.7006 88.3406 54.542 88.2838C54.3834 88.227 54.2149 88.2033 54.0468 88.2142H53.1533V90.6716H54.0468Z" fill="black"/>
<path d="M49.2563 91.8095H44.5234V87.0767H49.2563V91.8095ZM45.043 91.29H48.7367V87.5962H45.043V91.29Z" fill="black"/>
<path d="M94.9018 62.4881C94.9018 62.5608 87.109 62.6232 77.4667 62.6232C67.8244 62.6232 60.0264 62.5608 60.0264 62.4881C60.0264 62.4154 67.8192 62.353 77.4667 62.353C87.1141 62.353 94.9018 62.4102 94.9018 62.4881Z" fill="black"/>
<path d="M142.905 71.4705C142.905 71.5484 124.348 71.6056 101.468 71.6056C78.5888 71.6056 60.0264 71.5484 60.0264 71.4705C60.0264 71.3926 78.5784 71.3354 101.468 71.3354C124.359 71.3354 142.905 71.3978 142.905 71.4705Z" fill="black"/>
<path d="M71.4294 89.4407C71.4294 89.5135 68.8786 89.5758 65.7147 89.5758C62.5508 89.5758 60 89.5135 60 89.4407C60 89.368 62.5508 89.3057 65.7147 89.3057C68.8786 89.3057 71.4294 89.3888 71.4294 89.4407Z" fill="black"/>
<path d="M101.463 80.4583C101.463 80.531 92.1899 80.5934 80.7448 80.5934C69.2998 80.5934 60.0264 80.531 60.0264 80.4583C60.0264 80.3856 69.2998 80.3232 80.7448 80.3232C92.1899 80.3232 101.463 80.3804 101.463 80.4583Z" fill="black"/>
<path d="M38.3462 102.231V102.792H35.6966V102.345L37.1253 100.994C37.4734 100.662 37.5357 100.449 37.5357 100.252C37.5357 99.919 37.3071 99.732 36.8655 99.732C36.7065 99.7238 36.5477 99.7535 36.4023 99.8185C36.257 99.8835 36.129 99.9821 36.0291 100.106L35.5615 99.7476C35.7262 99.5489 35.935 99.3914 36.1714 99.2877C36.4077 99.184 36.6649 99.1369 36.9227 99.1501C37.7019 99.1501 38.2059 99.545 38.2059 100.189C38.2003 100.411 38.144 100.628 38.0413 100.824C37.9387 101.021 37.7923 101.191 37.6136 101.322L36.6525 102.236L38.3462 102.231Z" fill="black"/>
<path d="M38.7363 102.402C38.7363 102.291 38.7807 102.184 38.8596 102.105C38.9385 102.026 39.0455 101.981 39.1571 101.981C39.2687 101.981 39.3758 102.026 39.4547 102.105C39.5336 102.184 39.578 102.291 39.578 102.402C39.578 102.514 39.5336 102.621 39.4547 102.7C39.3758 102.779 39.2687 102.823 39.1571 102.823C39.0455 102.823 38.9385 102.779 38.8596 102.7C38.7807 102.621 38.7363 102.514 38.7363 102.402Z" fill="black"/>
<path d="M53.5836 114.975H51.7913L51.438 115.806H50.7471L52.3628 112.216H53.0226L54.6435 115.806H53.9317L53.5836 114.975ZM53.3655 114.455L52.6901 112.897L52.0147 114.455H53.3655Z" fill="black"/>
<path d="M145.316 102.283C145.316 102.356 122.182 102.418 93.6497 102.418C65.1176 102.418 41.9834 102.377 41.9834 102.283C41.9834 102.19 65.1124 102.148 93.6549 102.148C122.197 102.148 145.316 102.21 145.316 102.283Z" fill="black"/>
<path d="M81.8564 105.795C81.8564 105.867 73.0246 105.93 62.0835 105.93C51.1424 105.93 42.3105 105.867 42.3105 105.795C42.3105 105.722 51.1424 105.66 62.0835 105.66C73.0246 105.66 81.8564 105.717 81.8564 105.795Z" fill="black"/>
<path d="M47.9779 116.404H43.2451V111.671H47.9779V116.404ZM43.7646 115.884H47.4584V112.19H43.7646V115.884Z" fill="black"/>
<path d="M54.4203 123.817C54.4203 124.43 53.9372 124.789 53.0176 124.789H51.2305V121.199H52.8929C53.7553 121.199 54.2177 121.562 54.2177 122.134C54.2219 122.295 54.1808 122.455 54.0991 122.595C54.0174 122.734 53.8983 122.848 53.7553 122.924C53.9519 122.973 54.1254 123.09 54.2465 123.252C54.3676 123.415 54.4289 123.614 54.4203 123.817ZM51.9006 121.739V122.731H52.841C53.3033 122.731 53.5631 122.565 53.5631 122.238C53.5631 121.91 53.3033 121.718 52.841 121.718L51.9006 121.739ZM53.7501 123.765C53.7501 123.407 53.48 123.246 52.9761 123.246H51.9006V124.285H52.9761C53.48 124.269 53.7501 124.108 53.7501 123.75V123.765Z" fill="black"/>
<path d="M47.9779 125.36H43.2451V120.627H47.9779V125.36ZM43.7646 124.841H47.4584V121.147H43.7646V124.841Z" fill="black"/>
<path d="M50.9767 131.989C50.9742 131.74 51.0228 131.492 51.1196 131.262C51.2163 131.032 51.3591 130.824 51.5392 130.652C51.7193 130.479 51.9328 130.345 52.1666 130.258C52.4005 130.171 52.6497 130.132 52.8989 130.145C53.1647 130.134 53.4296 130.182 53.6748 130.285C53.9199 130.389 54.1393 130.545 54.3172 130.742L53.8912 131.148C53.7699 131.013 53.6215 130.907 53.4558 130.834C53.2901 130.762 53.1109 130.725 52.9301 130.727C52.5952 130.727 52.2741 130.86 52.0374 131.097C51.8006 131.333 51.6676 131.654 51.6676 131.989C51.6676 132.324 51.8006 132.645 52.0374 132.882C52.2741 133.119 52.5952 133.252 52.9301 133.252C53.1115 133.254 53.2912 133.217 53.4571 133.144C53.6229 133.07 53.771 132.962 53.8912 132.826L54.3172 133.236C54.0554 133.512 53.7185 133.704 53.3482 133.789C52.978 133.875 52.5908 133.85 52.2348 133.717C51.8789 133.584 51.5698 133.349 51.3461 133.042C51.1224 132.735 50.9939 132.369 50.9767 131.989Z" fill="black"/>
<path d="M47.9779 134.343H43.2451V129.61H47.9779V134.343ZM43.7646 133.823H47.4584V130.129H43.7646V133.823Z" fill="black"/>
<path d="M51.2305 139.169H52.789C53.9528 139.169 54.7476 139.886 54.7476 140.966C54.7476 142.047 53.9528 142.759 52.789 142.759H51.2305V139.169ZM52.789 142.198C52.9602 142.213 53.1328 142.193 53.2958 142.139C53.4588 142.084 53.6086 141.996 53.7356 141.88C53.8626 141.764 53.964 141.623 54.0334 141.466C54.1029 141.308 54.1387 141.138 54.1387 140.966C54.1387 140.795 54.1029 140.625 54.0334 140.467C53.964 140.31 53.8626 140.169 53.7356 140.053C53.6086 139.937 53.4588 139.849 53.2958 139.794C53.1328 139.74 52.9602 139.719 52.789 139.735H51.9214V142.198H52.789Z" fill="black"/>
<path d="M47.9779 143.33H43.2451V138.598H47.9779V143.33ZM43.7646 142.811H47.4584V139.117H43.7646V142.811Z" fill="black"/>
<path d="M93.6491 114.009C93.6491 114.081 85.8563 114.144 76.2088 114.144C66.5614 114.144 58.7686 114.081 58.7686 114.009C58.7686 113.936 66.5614 113.874 76.2088 113.874C85.8563 113.874 93.6491 113.936 93.6491 114.009Z" fill="black"/>
<path d="M141.648 122.991C141.648 123.069 123.096 123.126 100.211 123.126C77.3258 123.126 58.7686 123.069 58.7686 122.991C58.7686 122.913 77.3206 122.856 100.211 122.856C123.101 122.856 141.648 122.918 141.648 122.991Z" fill="black"/>
<path d="M70.1775 140.961C70.1775 141.039 67.6214 141.096 64.4628 141.096C61.3041 141.096 58.748 141.039 58.748 140.961C58.748 140.883 61.3041 140.826 64.4628 140.826C67.6214 140.826 70.1775 140.889 70.1775 140.961Z" fill="black"/>
<path d="M100.211 131.989C100.211 132.062 90.932 132.124 79.4922 132.124C68.0524 132.124 58.7686 132.062 58.7686 131.989C58.7686 131.916 68.0472 131.854 79.4922 131.854C90.9372 131.854 100.211 131.901 100.211 131.989Z" fill="black"/>
<path d="M133.762 153.289H112.373C111.511 153.289 110.657 153.12 109.861 152.789C109.064 152.459 108.341 151.976 107.732 151.366C107.122 150.756 106.639 150.032 106.309 149.235C105.98 148.439 105.811 147.585 105.812 146.723C105.812 144.982 106.503 143.313 107.733 142.083C108.964 140.852 110.633 140.161 112.373 140.161H133.762C135.502 140.161 137.171 140.852 138.401 142.083C139.632 143.313 140.323 144.982 140.323 146.723C140.324 147.585 140.155 148.439 139.825 149.235C139.496 150.032 139.013 150.756 138.403 151.366C137.794 151.976 137.07 152.459 136.274 152.789C135.477 153.12 134.624 153.289 133.762 153.289Z" fill="#00BE9B"/>
<path d="M117.714 145.164V148.733H117.033L115.236 146.567V148.733H114.42V145.164H115.1L116.872 147.33V145.164H117.714Z" fill="white"/>
<path d="M121.319 148.095V148.76H118.555V145.19H121.251V145.855H119.391V146.629H121.048V147.269H119.391V148.095H121.319Z" fill="white"/>
<path d="M124.187 148.733L123.325 147.497L122.478 148.733H121.532L122.852 146.92L121.6 145.164H122.535L123.356 146.323L124.161 145.164H125.055L123.808 146.889L125.143 148.733H124.187Z" fill="white"/>
<path d="M126.145 145.839H125.002V145.164H128.119V145.839H126.976V148.733H126.145V145.839Z" fill="white"/>
<path d="M132.634 148.463C132.59 148.463 132.548 148.452 132.51 148.431C132.472 148.41 132.439 148.38 132.416 148.344C132.378 148.287 132.365 148.217 132.378 148.15C132.392 148.083 132.431 148.023 132.488 147.985L134.146 146.879C134.172 146.862 134.194 146.839 134.208 146.812C134.223 146.785 134.23 146.754 134.229 146.723C134.229 146.692 134.221 146.661 134.205 146.633C134.19 146.606 134.167 146.583 134.14 146.567L132.499 145.596C132.441 145.56 132.399 145.503 132.383 145.437C132.367 145.37 132.377 145.301 132.412 145.242C132.446 145.183 132.503 145.141 132.569 145.123C132.635 145.106 132.705 145.115 132.764 145.149L134.405 146.115C134.508 146.177 134.593 146.263 134.654 146.367C134.714 146.47 134.747 146.587 134.75 146.707C134.753 146.826 134.726 146.945 134.671 147.051C134.617 147.157 134.536 147.248 134.437 147.315L132.779 148.417C132.736 148.446 132.686 148.462 132.634 148.463Z" fill="white"/>
<path d="M43.9369 73.7562C43.781 73.6003 44.7837 72.3379 46.1812 70.9352C47.5787 69.5325 48.8411 68.535 49.0022 68.6908C49.1632 68.8467 48.1554 70.1143 46.7579 71.5118C45.3603 72.9093 44.0979 73.9172 43.9369 73.7562Z" fill="#00BE9B"/>
<path d="M49.8639 74.2498C49.7081 74.4108 48.3625 73.3198 46.8611 71.8184C45.3597 70.317 44.2635 68.9766 44.4298 68.8156C44.596 68.6545 45.9364 69.7455 47.4326 71.2469C48.9288 72.7483 50.025 74.0939 49.8639 74.2498Z" fill="#00BE9B"/>
<path d="M42.7991 116.632C42.6381 116.471 43.646 115.209 45.0435 113.811C46.441 112.414 47.7034 111.411 47.8645 111.567C48.0255 111.723 47.0176 112.985 45.6149 114.388C44.2122 115.79 42.955 116.788 42.7991 116.632Z" fill="#00BE9B"/>
<path d="M48.737 117.126C48.5759 117.282 47.2356 116.196 45.7342 114.694C44.2327 113.193 43.1366 111.847 43.3028 111.692C43.4691 111.536 44.8042 112.622 46.3056 114.123C47.807 115.624 48.8825 116.965 48.737 117.126Z" fill="#00BE9B"/>
<path d="M143.559 222.147L107.084 210.437C106.986 210.406 106.884 210.394 106.782 210.4L78.7281 212.478C73.7978 200.529 67.6208 185.593 64.8102 178.772C64.3418 177.654 63.5873 176.678 62.6224 175.944C61.6575 175.21 60.5163 174.743 59.3136 174.59L28.9321 170.621C28.5709 170.577 28.2044 170.629 27.8695 170.771C27.5345 170.913 27.2428 171.141 27.0235 171.431C26.8041 171.721 26.6649 172.064 26.6196 172.425C26.5744 172.786 26.6248 173.153 26.7657 173.488L43.8735 213.382C44.1 213.912 44.4339 214.388 44.8543 214.782C45.2746 215.175 45.7721 215.477 46.3152 215.668L81.0659 229.534C81.8602 229.851 82.7207 229.965 83.57 229.867L85.7936 229.623C93.4929 228.817 131.511 224.947 143.403 223.7C143.592 223.69 143.77 223.613 143.907 223.483C144.044 223.353 144.129 223.178 144.148 222.99C144.167 222.802 144.118 222.614 144.01 222.459C143.902 222.305 143.742 222.194 143.559 222.147Z" fill="#E0E0E0"/>
<path d="M143.559 222.147C143.681 222.186 143.791 222.254 143.882 222.344C143.972 222.434 144.04 222.545 144.079 222.666C144.126 222.82 144.127 222.984 144.082 223.138C144.037 223.293 143.947 223.43 143.824 223.534C143.66 223.661 143.46 223.73 143.253 223.731L142.567 223.804L134.031 224.708L102.632 227.976L92.2411 229.056L86.7082 229.628L83.8664 229.934C82.8823 230.088 81.8749 229.971 80.9519 229.597L57.7086 220.339L51.5003 217.861L48.3365 216.604L46.7415 215.97C46.4766 215.855 46.222 215.762 45.9363 215.642C45.6644 215.522 45.4066 215.372 45.1674 215.196C44.6863 214.84 44.2831 214.389 43.9829 213.871C43.6919 213.351 43.5049 212.806 43.2659 212.271L41.8788 209.045C40.9471 206.883 40.0103 204.7 39.0682 202.493C35.2913 193.662 31.3741 184.56 27.3686 175.219L26.8179 173.935C26.5851 173.509 26.4653 173.029 26.4699 172.543C26.4998 172.048 26.6945 171.577 27.023 171.205C27.3516 170.833 27.7951 170.582 28.283 170.491C28.4025 170.465 28.5271 170.491 28.6518 170.455L29.0103 170.481L29.6961 170.574L31.0624 170.751L33.7847 171.104L44.5284 172.512L55.0227 173.883L57.6203 174.221C58.4775 174.351 59.3347 174.408 60.2179 174.611C61.9244 175.05 63.406 176.11 64.374 177.582C64.807 178.316 65.1705 179.088 65.4598 179.889C65.7785 180.665 66.0971 181.437 66.4157 182.206L68.3016 186.783L71.9798 195.698C74.38 201.527 76.6919 207.128 78.8894 212.458L78.7751 212.385L106.112 210.364L106.871 210.307C107.008 210.306 107.143 210.33 107.271 210.38L107.629 210.499L109.001 210.956L111.765 211.845L116.975 213.554L126.171 216.52L139.029 220.677L142.406 221.783C143.17 222.033 143.559 222.168 143.559 222.168C143.559 222.168 143.164 222.053 142.396 221.814L139.008 220.744L126.145 216.619L116.944 213.679L111.697 211.995L108.933 211.112L107.515 210.66C107.292 210.569 107.058 210.508 106.819 210.478L106.06 210.536L78.7284 212.614H78.6505L78.6141 212.536C76.4113 207.211 74.0994 201.626 71.6889 195.786L68.0055 186.871C67.3821 185.361 66.7517 183.836 66.1144 182.294C65.7975 181.526 65.4754 180.736 65.1585 179.977C64.8734 179.193 64.5169 178.437 64.0935 177.717C63.1657 176.304 61.7455 175.285 60.1088 174.86C59.2983 174.663 58.4255 174.6 57.5735 174.476L54.9759 174.138L44.4764 172.772L33.7327 171.369L31.0053 171.016L29.6389 170.834C29.2015 170.745 28.754 170.717 28.309 170.751C27.8813 170.832 27.4929 171.053 27.205 171.38C26.9172 171.706 26.7462 172.119 26.7192 172.553C26.716 172.999 26.8288 173.438 27.0465 173.826L27.6128 175.109L39.3072 202.389C40.2527 204.592 41.1879 206.776 42.1126 208.941C42.5802 210.021 43.0373 211.097 43.4997 212.167C43.7335 212.686 43.9361 213.258 44.2063 213.725C44.4863 214.212 44.865 214.635 45.318 214.967C45.5428 215.133 45.7849 215.274 46.0402 215.388C46.2895 215.497 46.5597 215.596 46.8298 215.705L48.4248 216.344L51.5835 217.606L57.8177 220.084L81.0506 229.368C81.9382 229.732 82.9086 229.845 83.856 229.695L86.703 229.389L92.2359 228.828L102.626 227.789L134.036 224.604L142.577 223.747L143.263 223.685C143.461 223.684 143.654 223.621 143.814 223.503C143.932 223.405 144.019 223.274 144.064 223.128C144.109 222.981 144.111 222.824 144.068 222.677C144.019 222.493 143.899 222.337 143.736 222.24C143.622 222.173 143.559 222.152 143.559 222.147Z" fill="#263238"/>
<path d="M96.6152 214.926L110.294 220.651L127.34 218.874L113.006 212.957L96.6152 214.926Z" fill="#F5F5F5"/>
<path d="M86.3033 225.747L113.007 223.336L87.5086 213.227L79.3105 213.845L83.6433 224.298L86.3033 225.747Z" fill="#F5F5F5"/>
<path d="M140.915 222.131L140.733 222.162L140.187 222.23L138.109 222.443L130.389 223.196L104.933 225.57L84.9209 227.378H84.8378L84.8066 227.3L80.3751 216.489L79.1594 213.466C79.0244 213.119 78.9205 212.854 78.8477 212.671C78.8097 212.579 78.7768 212.485 78.749 212.39C78.749 212.39 78.7958 212.478 78.8789 212.655L79.2218 213.44L80.4946 216.437C81.5856 219.035 83.1442 222.749 85.0144 227.217L84.9001 227.145L104.907 225.29L130.389 222.994L138.094 222.339L140.172 222.173L140.717 222.136L140.915 222.131Z" fill="black"/>
<path d="M27.6494 172.065H27.878L28.5534 172.143L31.151 172.481L40.679 173.779C44.7001 174.34 49.5108 175.016 54.8047 175.8L58.8778 176.429L59.9168 176.606C60.0882 176.632 60.2701 176.673 60.4363 176.715C60.5246 176.715 60.6182 176.751 60.7065 176.777C61.1446 176.953 61.5424 177.216 61.8754 177.551C62.0103 177.695 62.1178 177.862 62.1923 178.045L62.3949 178.564C63.4807 181.276 64.6029 184.087 65.7562 186.96C70.3488 198.467 74.4997 208.889 77.513 216.442C79.004 220.209 80.2093 223.264 81.0509 225.383C81.4561 226.422 81.773 227.254 81.9964 227.825C82.1003 228.095 82.1782 228.303 82.2354 228.459C82.2649 228.53 82.2892 228.603 82.3081 228.677C82.2715 228.61 82.2385 228.54 82.2094 228.469L81.9445 227.841L80.9522 225.425C80.095 223.305 78.8741 220.266 77.3155 216.51L65.5328 187.058C64.3795 184.185 63.2573 181.375 62.1715 178.663L61.9689 178.143C61.9063 177.99 61.8166 177.849 61.704 177.728C61.4716 177.475 61.1907 177.272 60.8779 177.13C60.8002 177.093 60.7204 177.06 60.6389 177.032L60.3896 176.969C60.2233 176.933 60.0571 176.896 59.87 176.871L58.831 176.689L54.758 176.05L40.6478 173.972L31.1302 172.584L28.5326 172.2L27.8624 172.091L27.6494 172.065Z" fill="black"/>
<path d="M54.503 195.948C55.8018 197.688 56.0615 199.688 55.09 200.415C54.1185 201.143 52.2691 200.327 50.9703 198.587C49.6715 196.846 49.4117 194.851 50.3832 194.119C51.3547 193.386 53.2042 194.212 54.503 195.948Z" fill="white"/>
<path d="M218.868 166.278C217.128 156.407 206.213 150.458 202.607 147.175L208.026 154.422C210.799 165.86 211.85 177.648 211.143 189.396C211.07 190.679 211.211 192.409 212.125 192.591C212.455 192.619 212.783 192.516 213.039 192.306C216.24 190.253 218.318 185.552 218.78 180.71C219.242 175.868 219.658 170.844 218.868 166.278Z" fill="#00BE9B"/>
<path d="M210.879 155.222C210.359 154.23 210.572 151.066 207.762 154.37L207.58 153.134L190.212 139.782L151.503 141.793C147.788 142.027 142.208 148.458 140.816 151.144C139.673 161.135 139.445 170.003 139.445 170.003C139.445 170.003 138.115 181.11 139.445 186.362C140.775 191.615 142.349 193.511 144.406 197.594C145.911 200.384 147.788 202.957 149.986 205.242L151.794 219.269L192.233 222.905L210.744 221.866C210.744 221.866 209.086 194.202 209.086 193.714C209.086 193.485 211.398 188.144 213.881 182.476C218.1 172.777 215.721 164.584 210.879 155.222Z" fill="#455A64"/>
<path d="M109.323 205.538C109.526 205.538 111.547 191.879 112.872 188.778C114.118 185.853 140.817 151.139 140.817 151.139L147.103 171.4L144.406 182.237L129.86 199.74L125.75 212.426L109.323 205.538Z" fill="#455A64"/>
<path d="M216.261 165.603C214.344 153.451 204.878 153.981 204.878 153.981L195.469 170.351V204.203L150.079 208.131L149.237 219.529C149.237 219.529 194.462 229.867 204.909 226.402C211.824 224.111 217.663 218.329 218.302 208.879C218.941 199.429 218.183 177.759 216.261 165.603Z" fill="#455A64"/>
<path d="M129.906 199.719C129.774 198.945 129.601 198.178 129.387 197.423C128.817 195.607 127.789 193.97 126.403 192.667C125.016 191.365 123.317 190.442 121.469 189.988C120.701 189.816 119.924 189.684 119.142 189.593C119.356 189.568 119.572 189.568 119.786 189.593C120.368 189.617 120.947 189.694 121.516 189.822C123.412 190.242 125.158 191.166 126.571 192.498C127.985 193.83 129.011 195.519 129.542 197.386C129.706 197.946 129.817 198.52 129.875 199.101C129.911 199.305 129.921 199.512 129.906 199.719Z" fill="black"/>
<path d="M151.633 207.663C151.698 207.645 151.764 207.633 151.83 207.626L152.407 207.543L154.63 207.247L162.823 206.208L189.838 202.925L195.844 202.208L195.724 202.338C196.073 193.132 196.244 185.017 196.182 179.203C196.182 176.299 196.119 173.967 196.083 172.361C196.083 171.572 196.047 170.953 196.036 170.522V170.044C196.036 169.935 196.036 169.883 196.036 169.878C196.042 169.933 196.042 169.989 196.036 170.044C196.036 170.164 196.036 170.32 196.067 170.517C196.067 170.953 196.119 171.556 196.156 172.361C196.223 173.961 196.296 176.294 196.338 179.203C196.431 185.017 196.306 193.142 195.969 202.343V202.457H195.854L189.849 203.179L162.808 206.385L154.61 207.325L152.376 207.564L151.794 207.621L151.633 207.663Z" fill="black"/>
<path d="M218.922 207.663C218.929 207.732 218.929 207.801 218.922 207.87C218.922 208.016 218.922 208.218 218.89 208.473C218.843 209.248 218.755 210.02 218.625 210.785C218.421 211.999 218.124 213.196 217.737 214.364C217.207 215.908 216.495 217.383 215.617 218.76C214.55 220.435 213.202 221.915 211.633 223.134C209.83 224.534 207.746 225.528 205.523 226.048C204.327 226.336 203.111 226.539 201.887 226.656C200.612 226.771 199.332 226.819 198.052 226.802C195.369 226.748 192.693 226.498 190.047 226.054L174.716 223.534L168.029 222.422L162.206 221.347C158.657 220.682 155.779 220.178 153.784 219.877L151.483 219.539L150.885 219.456C150.816 219.45 150.748 219.436 150.683 219.414H150.885L151.488 219.476C152.007 219.534 152.797 219.622 153.8 219.762C155.8 220.032 158.683 220.51 162.242 221.149L168.055 222.188L174.747 223.274L190.078 225.778C192.716 226.227 195.383 226.483 198.058 226.542C199.356 226.542 200.624 226.506 201.866 226.407C203.077 226.295 204.278 226.097 205.461 225.815C207.655 225.307 209.714 224.332 211.498 222.957C213.052 221.761 214.391 220.308 215.456 218.661C216.335 217.301 217.052 215.844 217.592 214.318C217.988 213.161 218.299 211.977 218.522 210.775C218.693 209.782 218.797 209.003 218.833 208.473L218.896 207.87C218.899 207.801 218.908 207.731 218.922 207.663Z" fill="black"/>
<path d="M150.407 208.499C150.386 208.43 150.372 208.358 150.366 208.286C150.34 208.125 150.303 207.912 150.267 207.652C150.184 207.07 150.064 206.26 149.919 205.231V205.268L146.48 201.46C145.809 200.504 145.203 199.504 144.666 198.467C144.066 197.287 143.535 196.073 143.077 194.831C142.063 192.023 141.366 189.111 140.999 186.149C140.636 182.943 140.561 179.711 140.775 176.491C140.936 173.53 141.243 170.87 141.534 168.647C141.825 166.423 142.1 164.631 142.297 163.389L142.531 161.966C142.557 161.815 142.578 161.696 142.599 161.597C142.603 161.554 142.613 161.512 142.63 161.472C142.635 161.514 142.635 161.555 142.63 161.597C142.63 161.701 142.63 161.82 142.588 161.971C142.542 162.324 142.484 162.802 142.407 163.405C142.24 164.646 141.996 166.444 141.726 168.673C141.456 170.901 141.212 173.551 141.051 176.512C140.852 179.715 140.932 182.929 141.29 186.118C141.652 189.062 142.334 191.957 143.326 194.753C143.775 195.982 144.295 197.184 144.885 198.353C145.41 199.384 146.002 200.38 146.656 201.335L150.049 205.19L150.329 207.616C150.355 207.881 150.376 208.094 150.397 208.255C150.415 208.335 150.418 208.418 150.407 208.499Z" fill="black"/>
<path d="M202.384 209.761C202.042 209.381 201.727 208.977 201.444 208.551C200.877 207.787 200.083 206.748 199.153 205.642C198.223 204.535 197.345 203.564 196.695 202.878C196.322 202.522 195.975 202.14 195.656 201.735C196.079 202.028 196.469 202.366 196.82 202.743C197.713 203.605 198.558 204.515 199.35 205.47C200.148 206.419 200.895 207.409 201.589 208.437C201.898 208.85 202.164 209.294 202.384 209.761Z" fill="black"/>
<path d="M120.43 207.205C120.046 204.987 118.025 203.257 118.025 203.257C118.025 203.257 117.058 200.555 115.614 199.844C114.17 199.132 113.016 200.555 111.759 200.171C110.502 199.786 107.806 199.688 106.938 200.171C106.07 200.654 105.011 203.35 105.011 203.35C104.136 203.386 103.28 203.616 102.507 204.026C101.851 204.365 101.283 204.852 100.849 205.449C100.473 205.303 100.06 205.274 99.6671 205.366C99.2737 205.459 98.9179 205.669 98.6465 205.969C98.1195 206.585 97.7251 207.303 97.488 208.078L96.8022 209.917C96.6702 210.198 96.6095 210.506 96.6256 210.816C96.6785 211.07 96.8163 211.3 97.0163 211.466C97.2164 211.632 97.467 211.725 97.727 211.73C97.9911 211.731 98.2525 211.677 98.4942 211.571C98.7359 211.464 98.9524 211.308 99.1297 211.112C99.4832 210.763 99.7953 210.374 100.06 209.953L100.231 211.159C100.231 211.159 100.517 213.065 102.06 213.18C103.125 213.263 104.278 212.026 104.278 212.026L106.974 211.735L107.359 214.432C107.536 214.951 107.876 215.4 108.328 215.713C108.779 216.025 109.319 216.184 109.868 216.167C110.834 216.167 112.081 214.53 112.081 214.53L114.591 215.492C114.591 215.492 117.479 217.518 118.83 216.842C119.208 216.651 119.509 216.337 119.685 215.952C119.86 215.567 119.9 215.133 119.796 214.723C120.373 214.069 120.829 213.318 121.142 212.504C121.505 211.351 120.835 209.424 120.43 207.205Z" fill="#FFBF9D"/>
<path d="M100.169 210.697C100.059 209.743 100.092 208.778 100.267 207.834C100.357 206.88 100.592 205.944 100.964 205.06C101.036 205.06 100.751 206.322 100.532 207.876C100.314 209.429 100.267 210.697 100.169 210.697Z" fill="#FFE3CA"/>
<path d="M104.382 208.161C104.546 208.817 104.623 209.491 104.611 210.166C104.666 210.654 104.617 211.149 104.466 211.616C104.315 211.98 104.102 212.135 104.086 212.094C104.071 212.052 104.195 211.891 104.284 211.574C104.373 211.121 104.392 210.657 104.341 210.198C104.262 209.52 104.276 208.835 104.382 208.161Z" fill="#FFE3CA"/>
<path d="M106.181 207.013C106.232 207.065 105.879 207.533 105.386 208.01C104.892 208.488 104.456 208.873 104.399 208.821C104.341 208.769 104.7 208.301 105.193 207.823C105.687 207.346 106.129 206.961 106.181 207.013Z" fill="#FFE3CA"/>
<path d="M106.538 201.829C106.597 202.315 106.618 202.804 106.601 203.294C106.601 204.203 106.637 205.45 106.71 206.826C106.783 208.203 106.892 209.45 106.97 210.354C107.043 210.839 107.075 211.329 107.063 211.819C106.92 211.349 106.826 210.865 106.783 210.375C106.653 209.476 106.518 208.229 106.44 206.842C106.362 205.455 106.372 204.203 106.408 203.294C106.401 202.802 106.444 202.311 106.538 201.829Z" fill="#FFE3CA"/>
<path d="M116.648 202.862C116.648 202.862 116.534 203.122 116.352 203.59C116.099 204.252 115.897 204.933 115.749 205.626C115.656 206.073 115.557 206.556 115.448 207.07C115.345 207.634 115.192 208.187 114.991 208.723C114.767 209.328 114.389 209.865 113.895 210.281C113.625 210.515 113.303 210.682 112.957 210.768C112.61 210.854 112.248 210.856 111.9 210.775C111.538 210.693 111.211 210.501 110.965 210.224C110.737 209.949 110.591 209.616 110.544 209.263C110.47 208.632 110.458 207.995 110.507 207.361C110.566 206.298 110.73 205.244 110.996 204.213C111.174 203.518 111.403 202.838 111.682 202.177C111.78 201.943 111.858 201.766 111.921 201.657C111.947 201.594 111.982 201.534 112.024 201.48C111.96 201.733 111.878 201.981 111.78 202.223C111.542 202.892 111.342 203.574 111.183 204.265C110.946 205.289 110.804 206.332 110.757 207.382C110.716 207.995 110.731 208.611 110.804 209.221C110.846 209.527 110.972 209.814 111.167 210.053C111.379 210.285 111.656 210.448 111.962 210.52C112.27 210.591 112.591 210.588 112.898 210.511C113.205 210.435 113.49 210.286 113.728 210.079C114.192 209.689 114.549 209.189 114.767 208.624C115.094 207.624 115.363 206.605 115.573 205.574C115.736 204.877 115.965 204.197 116.259 203.543C116.339 203.364 116.431 203.191 116.534 203.023C116.596 202.914 116.638 202.857 116.648 202.862Z" fill="#FFE3CA"/>
<path d="M117.667 204.031C117.594 204.607 117.339 205.145 116.941 205.567C116.542 205.99 116.019 206.274 115.448 206.379C115.903 206.079 116.336 205.746 116.742 205.382C117.083 204.955 117.392 204.504 117.667 204.031Z" fill="#FFE3CA"/>
<path d="M112.087 210.748C112.257 211.469 112.301 212.215 112.217 212.951C112.189 213.606 112.097 214.257 111.941 214.894V214.93C111.922 214.94 111.9 214.946 111.878 214.946C111.856 214.947 111.835 214.943 111.815 214.934C111.795 214.925 111.777 214.911 111.763 214.894C111.749 214.878 111.739 214.858 111.733 214.837C111.733 214.785 111.733 214.764 111.733 214.764C111.733 214.764 111.733 214.79 111.77 214.811C111.806 214.831 111.843 214.852 111.858 214.811L111.827 214.852C111.827 214.499 111.905 213.761 111.952 212.909C111.946 212.187 111.991 211.464 112.087 210.748Z" fill="#FFE3CA"/>
<path d="M118.202 208.598C118.002 208.928 117.765 209.235 117.495 209.512C116.9 210.205 116.378 210.957 115.937 211.756C115.498 212.555 115.25 213.444 115.21 214.354C115.21 215.055 115.329 215.481 115.282 215.492C115.1 215.141 115.009 214.749 115.017 214.354C115.002 213.401 115.236 212.46 115.698 211.626C116.156 210.806 116.722 210.051 117.381 209.382C117.62 209.087 117.896 208.823 118.202 208.598Z" fill="#FFE3CA"/>
<path d="M117.136 213.388C116.974 212.804 117.001 212.183 117.214 211.615C117.427 211.048 117.814 210.562 118.321 210.229C120.134 208.941 125.563 205.553 125.677 205.553C125.792 205.553 132.052 203.475 134.686 203.205C137.32 202.935 148.848 208.66 148.848 208.66C148.848 208.66 151.523 212.515 151.092 216.214C150.661 219.913 148.25 220.126 148.25 220.126L144.905 219.31L141.455 218.65C141.455 218.65 133.823 220.775 132.623 220.386C131.423 219.996 131.008 218.692 132.306 217.985C133.605 217.279 137.34 216.172 137.34 216.172L140.213 214.957L130.862 216.292C130.862 216.292 122.955 217.85 122.03 217.632C121.105 217.414 120.965 216.723 120.887 216.074C120.887 216.074 117.703 217.632 116.757 216.78C115.812 215.928 115.396 214.073 117.136 213.388Z" fill="#FFBF9D"/>
<path d="M137.319 211.112C137.088 211.149 136.853 211.162 136.618 211.148C136.171 211.148 135.522 211.148 134.722 211.2C133.789 211.243 132.862 211.373 131.953 211.59C131.417 211.727 130.895 211.913 130.394 212.146C129.875 212.385 129.355 212.665 128.836 212.977C128.306 213.28 127.753 213.542 127.184 213.762C126.651 213.958 126.093 214.079 125.526 214.12C124.593 214.12 123.662 214.225 122.752 214.432C122.158 214.621 121.634 214.983 121.246 215.471C121.114 215.661 120.998 215.86 120.897 216.068C120.897 216.068 120.897 216.001 120.929 215.886C120.982 215.719 121.059 215.56 121.157 215.414C121.532 214.874 122.069 214.468 122.69 214.255C123.609 214.015 124.555 213.887 125.506 213.876C126.637 213.744 127.723 213.358 128.685 212.749C129.205 212.452 129.724 212.151 130.275 211.907C130.788 211.673 131.322 211.488 131.87 211.356C132.795 211.14 133.741 211.027 134.691 211.019C135.501 211.019 136.151 211.019 136.603 211.05C136.843 211.048 137.083 211.069 137.319 211.112Z" fill="#FFE3CA"/>
<path d="M134.494 207.169C134.44 207.205 134.383 207.234 134.322 207.257C134.213 207.309 134.042 207.377 133.803 207.455C133.165 207.651 132.514 207.8 131.855 207.901C131.029 208.047 130.031 208.156 128.971 208.421C127.829 208.766 126.732 209.246 125.704 209.85C123.786 210.916 121.785 211.823 119.719 212.562C118.929 212.842 118.28 213.05 117.828 213.185C117.598 213.268 117.362 213.329 117.121 213.367C117.336 213.251 117.563 213.157 117.796 213.086L119.651 212.38C121.687 211.595 123.666 210.67 125.574 209.611C126.622 208.997 127.742 208.515 128.909 208.177C129.872 207.959 130.847 207.796 131.829 207.688C132.483 207.606 133.131 207.486 133.772 207.33C134.009 207.263 134.25 207.209 134.494 207.169Z" fill="#FFE3CA"/>
<path d="M142.084 209.398C142.015 209.195 141.965 208.986 141.933 208.774C141.809 208.288 141.569 207.84 141.235 207.466C140.9 207.093 140.48 206.805 140.011 206.629C139.804 206.573 139.603 206.5 139.408 206.41C139.408 206.379 139.668 206.348 140.073 206.447C140.6 206.589 141.074 206.879 141.44 207.283C141.802 207.69 142.039 208.194 142.12 208.733C142.175 208.953 142.162 209.185 142.084 209.398Z" fill="#FFE3CA"/>
<path d="M146.405 215.232C146.396 214.94 146.37 214.649 146.328 214.359C146.15 213.684 145.752 213.088 145.195 212.666C144.622 212.25 143.99 211.922 143.32 211.694C143.028 211.617 142.748 211.5 142.488 211.346C142.792 211.35 143.092 211.407 143.377 211.512C144.094 211.697 144.769 212.016 145.366 212.453C145.973 212.91 146.383 213.58 146.515 214.328C146.59 214.633 146.551 214.954 146.405 215.232Z" fill="#FFE3CA"/>
<path d="M120.919 216.063C120.787 216.181 120.633 216.273 120.467 216.334C120.033 216.538 119.585 216.712 119.126 216.853C118.811 216.963 118.488 217.052 118.16 217.118C117.765 217.17 117.363 217.129 116.986 216.999C116.773 216.921 116.579 216.799 116.416 216.642C116.253 216.484 116.125 216.294 116.041 216.084C115.826 215.657 115.739 215.177 115.791 214.702C115.845 214.344 116.03 214.018 116.311 213.788C116.55 213.578 116.817 213.403 117.106 213.268L117.038 213.424C116.826 212.78 116.875 212.079 117.173 211.471C117.42 211.015 117.754 210.611 118.155 210.281C118.412 210.067 118.687 209.874 118.976 209.705C119.075 209.633 119.186 209.578 119.303 209.543C119.329 209.58 118.882 209.84 118.264 210.401C117.899 210.734 117.596 211.13 117.37 211.57C117.114 212.131 117.085 212.769 117.287 213.352L117.319 213.45L117.22 213.502C116.731 213.757 116.144 214.131 116.087 214.744C116.044 215.167 116.119 215.593 116.305 215.975C116.374 216.155 116.48 216.318 116.616 216.454C116.752 216.59 116.915 216.696 117.095 216.765C117.427 216.886 117.782 216.933 118.134 216.9C118.453 216.842 118.769 216.768 119.08 216.676C119.656 216.515 120.119 216.354 120.43 216.24C120.587 216.164 120.75 216.105 120.919 216.063Z" fill="#FFE3CA"/>
<path d="M161.171 110.97C160.044 99.7172 157.659 88.5163 158.152 77.2012L148.9 82.9782C149.362 87.4565 145.336 90.9269 143.003 94.7713C141.607 97.1199 140.789 99.7663 140.614 102.493C140.44 105.219 140.915 107.948 142.001 110.456C142.832 112.326 144.011 114.092 144.318 116.118C144.837 119.537 142.723 123.012 143.502 126.384C144.396 130.265 149.144 132.395 152.973 131.304C156.802 130.213 159.545 126.628 160.672 122.831C161.8 119.033 161.566 114.934 161.171 110.97Z" fill="#263238"/>
<path d="M149.398 81.0759C149.91 78.3302 151.143 75.77 152.97 73.6576C154.797 71.5453 157.153 69.9567 159.796 69.0548C162.44 68.1529 165.275 67.9701 168.013 68.525C170.75 69.0799 173.291 70.3527 175.374 72.2129C177.062 73.7247 178.444 75.6105 180.398 76.7587C182.606 78.0523 182.891 77.6159 185.323 78.4004C187.754 79.1848 192.518 85.5334 192.596 88.0894L194.487 99.2071C194.549 101.831 191.276 103.519 188.741 102.844C186.206 102.168 184.419 99.9293 182.964 97.7369C181.509 95.5445 180.128 93.1703 177.888 91.7936C174.174 89.5129 169.405 90.6766 165.197 91.7936C160.988 92.9106 156.1 93.8717 152.598 91.2741C149.606 89.0142 148.712 84.7541 149.398 81.0759Z" fill="#263238"/>
<path d="M148.058 97.1815C148.058 89.8666 152.365 80.6347 159.669 80.9672L182.684 85.3312C183.755 85.3786 184.77 85.8268 185.526 86.587C186.283 87.3472 186.726 88.3639 186.768 89.4354L187.635 144.245H187.791C187.791 144.245 179.796 164.35 164.522 160.578C161.493 159.83 163.732 152.292 162.932 148.988L162.781 149.019C162.75 148.619 162.724 148.25 162.693 147.871C162.246 145.398 162.06 142.886 162.137 140.374C161.82 135.964 161.711 134.14 161.711 134.197C161.711 134.254 152.308 133.21 149.648 121.183C148.328 115.23 148.032 105.312 148.058 97.1815Z" fill="#FFBF9D"/>
<path d="M152.121 106.751C152.141 107.157 152.319 107.539 152.617 107.816C152.915 108.092 153.31 108.242 153.716 108.232C153.915 108.236 154.113 108.2 154.299 108.126C154.484 108.052 154.652 107.942 154.794 107.802C154.936 107.662 155.049 107.495 155.125 107.311C155.201 107.127 155.24 106.929 155.238 106.73C155.218 106.324 155.04 105.942 154.742 105.665C154.444 105.389 154.05 105.24 153.643 105.249C153.444 105.245 153.246 105.281 153.061 105.355C152.876 105.429 152.707 105.539 152.565 105.679C152.423 105.819 152.311 105.986 152.235 106.17C152.158 106.354 152.12 106.552 152.121 106.751Z" fill="#263238"/>
<path d="M150.515 102.205C150.718 102.397 151.845 101.452 153.523 101.358C155.201 101.265 156.479 102.023 156.64 101.81C156.729 101.712 156.505 101.358 155.949 101C155.193 100.54 154.313 100.325 153.43 100.387C152.566 100.448 151.745 100.781 151.082 101.337C150.562 101.743 150.411 102.122 150.515 102.205Z" fill="#263238"/>
<path d="M167.238 105.904C167.259 106.31 167.437 106.692 167.735 106.969C168.033 107.246 168.427 107.395 168.833 107.385C169.033 107.389 169.231 107.353 169.416 107.279C169.601 107.206 169.77 107.096 169.911 106.956C170.053 106.816 170.166 106.649 170.242 106.465C170.318 106.28 170.357 106.083 170.355 105.883C170.335 105.475 170.155 105.09 169.854 104.813C169.552 104.536 169.154 104.389 168.745 104.403C168.547 104.401 168.351 104.438 168.167 104.513C167.984 104.587 167.817 104.698 167.677 104.838C167.537 104.977 167.426 105.144 167.35 105.327C167.275 105.51 167.237 105.706 167.238 105.904Z" fill="#263238"/>
<path d="M167.011 101.53C167.214 101.717 168.341 100.777 170.019 100.678C171.697 100.579 172.975 101.348 173.136 101.13C173.219 101.031 173.006 100.678 172.445 100.319C171.688 99.8614 170.809 99.6474 169.926 99.7064C169.055 99.7589 168.222 100.084 167.546 100.636C167.063 101.062 166.907 101.442 167.011 101.53Z" fill="#263238"/>
<path d="M161.675 114.326C161.675 114.227 160.636 114.113 158.922 113.998C158.491 113.998 158.08 113.915 157.992 113.629C157.929 113.189 158.001 112.74 158.2 112.341C158.542 111.302 158.896 110.175 159.27 109.011C160.75 104.262 161.789 100.371 161.597 100.314C161.405 100.257 160.039 104.055 158.574 108.798L157.561 112.154C157.321 112.685 157.278 113.283 157.441 113.842C157.512 113.991 157.615 114.121 157.744 114.223C157.873 114.324 158.023 114.395 158.184 114.429C158.425 114.48 158.671 114.499 158.917 114.487C160.621 114.476 161.675 114.419 161.675 114.326Z" fill="#263238"/>
<path d="M161.712 134.229C167.435 133.969 172.974 132.128 177.713 128.909C177.713 128.909 174.118 137.611 161.899 137.221L161.712 134.229Z" fill="#FFBF9D"/>
<path d="M166.668 115.188C166.392 115.188 166.496 117.007 165.021 118.388C163.545 119.77 161.592 119.692 161.592 119.947C161.592 120.061 162.044 120.274 162.865 120.248C163.931 120.2 164.947 119.777 165.732 119.053C166.486 118.358 166.939 117.396 166.995 116.373C167.031 115.609 166.797 115.167 166.668 115.188Z" fill="#263238"/>
<path d="M166.205 95.1762C166.397 95.623 168.059 95.3061 170.039 95.4256C172.018 95.5451 173.644 95.9815 173.878 95.5554C173.982 95.3528 173.681 94.9424 173.016 94.5164C172.127 94.0268 171.138 93.7462 170.124 93.6957C169.111 93.6453 168.099 93.8265 167.166 94.2255C166.465 94.5839 166.148 94.9632 166.205 95.1762Z" fill="#263238"/>
<path d="M150.838 97.3167C151.155 97.6804 152.287 97.218 153.674 97.1141C155.062 97.0102 156.272 97.218 156.501 96.8024C156.61 96.5998 156.402 96.2309 155.862 95.9036C155.146 95.511 154.33 95.3408 153.517 95.4149C152.705 95.4889 151.933 95.8038 151.3 96.3192C150.833 96.74 150.698 97.1401 150.838 97.3167Z" fill="#263238"/>
<path d="M160.011 75.3832L161.116 74C169.371 74.3665 177.529 75.6925 185.367 77.9417C188.499 78.8414 191.68 79.949 193.926 82.0239C197.022 84.8735 197.781 88.9921 198.388 92.8506C200.707 107.531 202.843 122.668 198.448 137C197.016 135.274 194.406 134.603 191.953 134.327C189.501 134.052 186.945 134.062 184.669 133.214C183.432 132.729 182.328 132.028 181.427 131.156C180.526 130.284 179.848 129.259 179.436 128.149C178.625 125.909 178.761 123.495 179.819 121.332C180.966 118.924 183.145 116.543 182.386 114.052C181.591 111.415 177.906 110.079 176.874 107.505C175.096 103.053 182.216 98.5916 180.389 94.1558C179.709 92.5178 177.925 91.3945 176.055 90.7185C174.185 90.0425 172.17 89.7149 170.282 89.0857C167.143 87.9717 164.477 86.062 162.641 83.6128C160.805 81.1636 159.887 78.292 160.011 75.3832Z" fill="#263238"/>
<path d="M209.747 154.048C209.747 154.048 205.539 145.413 200.047 140.665C194.556 135.917 191.184 135.963 183.35 136.628C175.516 137.293 164.554 138.53 161.956 137.87L161.712 134.233C160.424 134.104 155.14 131.532 154.111 129.979C152.148 131.989 151.29 134.135 151.737 136.415L150.454 136.899C148.561 137.591 146.989 138.956 146.039 140.734C145.088 142.511 144.825 144.577 145.3 146.536C145.789 148.406 146.968 149.554 149.337 149.964C158.74 151.591 183.88 144.795 191.449 144.769C199.019 144.743 209.747 154.048 209.747 154.048Z" fill="#00BE9B"/>
<path d="M148.483 149.866C148.704 149.86 148.925 149.872 149.143 149.903C149.569 149.944 150.182 150.012 151.008 150.069C153.3 150.247 155.601 150.286 157.897 150.183C161.299 150.008 164.681 149.549 168.007 148.812C169.888 148.401 171.846 147.902 173.857 147.321L180.06 145.404C184.315 144.11 188.58 143.227 192.482 143.611C195.919 143.926 199.246 144.99 202.228 146.728C204.23 147.902 206.04 149.375 207.594 151.097C208.017 151.563 208.412 152.052 208.779 152.563C208.915 152.726 209.038 152.9 209.148 153.082C208.984 152.937 208.837 152.773 208.711 152.594C208.446 152.256 208.026 151.783 207.47 151.191C203.505 147.038 198.164 144.471 192.445 143.97C188.622 143.616 184.424 144.489 180.185 145.778C178.06 146.417 175.997 147.097 173.976 147.684C171.955 148.271 169.986 148.76 168.09 149.16C164.74 149.887 161.333 150.318 157.908 150.448C155.599 150.525 153.289 150.44 150.993 150.194C150.182 150.11 149.554 150.017 149.133 149.949C148.914 149.94 148.697 149.913 148.483 149.866Z" fill="#263238"/>
<path d="M210.198 151.211C200.712 138.878 182.523 134.166 168.237 140.338L153.171 143.533C149.196 144.219 142.822 145.512 142.52 149.196C142.245 153.097 143.094 156.995 144.967 160.428C148.469 166.527 146.567 174.699 150.069 180.798C151.721 183.681 153.41 186.606 155.82 188.897C158.231 191.188 161.504 192.794 164.808 192.435C168.486 192.04 171.499 189.354 173.837 186.487C178.871 180.31 182.014 172.808 186.726 166.386C191.438 159.965 196.997 155.238 206.899 154.63C208.697 154.515 213.825 156.91 213.825 156.91C213.97 156.183 210.65 151.788 210.198 151.211Z" fill="#00BE9B"/>
<g opacity="0.3">
<path d="M189.922 143.876C183.371 143.876 176.934 147.024 170.585 148.427C145.046 154.048 145.046 144.416 145.046 144.416C144.246 148.941 148.495 151.019 152.969 152.058C161.509 154.032 170.632 155.092 176.794 153.123C181.76 151.564 186.945 150.406 191.959 148.967C196.972 147.528 204.193 148.078 207.991 151.642C204.593 146.058 196.473 143.86 189.922 143.876Z" fill="black"/>
</g>
<g opacity="0.3">
<path d="M156.728 143.185C157.033 143.854 157.479 144.449 158.035 144.93C158.59 145.412 159.243 145.768 159.949 145.974C161.364 146.382 162.844 146.509 164.308 146.349C169.648 145.985 174.781 144.203 179.836 142.436C175.794 142.296 171.882 143.704 167.918 144.515C163.955 145.325 159.487 145.377 156.266 142.956" fill="black"/>
</g>
<path d="M211.481 155.165C211.481 155.165 211.435 155.129 211.362 155.051L211.045 154.687C210.77 154.36 210.349 153.902 209.793 153.321C208.228 151.675 206.336 150.374 204.239 149.502C202.776 148.95 201.239 148.617 199.678 148.515C197.888 148.37 196.088 148.427 194.311 148.687C190.539 149.206 186.555 150.531 182.326 151.736C178.097 152.941 174.06 154.199 170.221 154.401C166.836 154.547 163.446 154.305 160.116 153.679C157.28 153.16 155.02 152.557 153.456 152.167L151.659 151.71L151.196 151.585L151.035 151.533C151.09 151.525 151.146 151.525 151.201 151.533L151.674 151.632L153.482 152.043C155.041 152.401 157.316 152.967 160.153 153.466C163.468 154.065 166.84 154.288 170.205 154.131C174.003 153.918 178.045 152.718 182.253 151.456C186.461 150.193 190.472 148.92 194.275 148.416C196.071 148.163 197.891 148.114 199.699 148.271C201.637 148.382 203.534 148.878 205.28 149.729C207.025 150.58 208.584 151.769 209.866 153.227C210.416 153.825 210.827 154.292 211.086 154.63L211.383 155.009L211.481 155.165Z" fill="black"/>
<path d="M201.943 142.457C201.903 142.431 201.867 142.402 201.833 142.369L201.532 142.094C201.278 141.844 200.878 141.496 200.358 141.055C198.862 139.845 197.221 138.826 195.475 138.021C192.882 136.833 190.125 136.041 187.297 135.672C183.831 135.242 180.324 135.251 176.86 135.698C173.393 136.157 169.952 136.798 166.553 137.62C165.051 137.973 163.504 138.096 161.966 137.984C160.612 137.883 159.313 137.412 158.209 136.623C157.324 135.95 156.567 135.123 155.975 134.181C155.529 133.478 155.142 132.74 154.817 131.973C154.552 131.345 154.375 130.841 154.261 130.498L154.142 130.108C154.124 130.065 154.114 130.019 154.11 129.973C154.11 129.973 154.136 130.015 154.168 130.098C154.199 130.181 154.256 130.326 154.313 130.482C154.443 130.815 154.635 131.308 154.916 131.932C155.255 132.684 155.653 133.408 156.105 134.098C156.697 135.014 157.449 135.816 158.324 136.467C159.406 137.223 160.674 137.67 161.991 137.761C163.505 137.859 165.025 137.729 166.501 137.376C169.905 136.537 173.353 135.888 176.829 135.433C180.316 134.983 183.847 134.983 187.334 135.433C190.182 135.82 192.955 136.638 195.558 137.859C197.31 138.681 198.947 139.729 200.426 140.977C200.827 141.317 201.21 141.678 201.574 142.057L201.854 142.348C201.917 142.421 201.948 142.452 201.943 142.457Z" fill="black"/>
<path d="M198.878 142.203H198.748L198.363 142.141L196.883 141.896C195.068 141.617 193.24 141.432 191.407 141.341C188.685 141.207 185.958 141.294 183.25 141.6C179.938 142.045 176.656 142.689 173.421 143.528C169.971 144.359 166.615 145.086 163.503 145.04C162.035 145.049 160.57 144.874 159.145 144.52C157.901 144.169 156.752 143.546 155.778 142.697C154.381 141.476 153.246 139.984 152.443 138.312C152.137 137.706 151.895 137.071 151.721 136.416C151.745 136.452 151.765 136.493 151.778 136.535L151.918 136.899C152.048 137.221 152.245 137.683 152.536 138.26C153.367 139.897 154.511 141.355 155.903 142.551C156.862 143.368 157.988 143.966 159.202 144.302C160.61 144.644 162.055 144.81 163.503 144.795C166.579 144.795 169.909 144.104 173.374 143.268C176.621 142.422 179.918 141.78 183.245 141.346C185.966 141.053 188.706 140.985 191.438 141.143C193.278 141.25 195.109 141.463 196.924 141.782C197.568 141.902 198.062 142 198.4 142.078L198.779 142.167C198.841 142.182 198.878 142.198 198.878 142.203Z" fill="black"/>
<path d="M199.356 118.887C199.309 119.182 199.243 119.474 199.158 119.76C199.077 120.101 198.977 120.438 198.857 120.768C198.722 121.158 198.592 121.604 198.384 122.077C198.176 122.55 197.974 123.08 197.699 123.636C197.423 124.192 197.117 124.747 196.779 125.345C195.262 127.898 193.288 130.151 190.955 131.99C190.41 132.405 189.916 132.805 189.397 133.127C188.877 133.449 188.41 133.756 187.958 134.01C187.506 134.265 187.09 134.473 186.726 134.655C186.415 134.818 186.094 134.962 185.765 135.086C185.495 135.21 185.215 135.315 184.929 135.398C185.182 135.241 185.448 135.106 185.724 134.992C185.983 134.873 186.3 134.722 186.659 134.52C187.017 134.317 187.433 134.125 187.864 133.844C188.295 133.564 188.784 133.293 189.272 132.94C189.76 132.587 190.275 132.208 190.83 131.797C193.119 129.951 195.07 127.722 196.597 125.21C196.935 124.623 197.267 124.072 197.527 123.532C197.787 122.991 198.047 122.493 198.239 122.015C198.431 121.537 198.597 121.111 198.758 120.731C198.919 120.352 199.013 120.015 199.096 119.744C199.158 119.452 199.245 119.165 199.356 118.887Z" fill="black"/>
<path d="M198.571 149.856C198.43 149.856 198.29 149.843 198.151 149.819L197.631 149.752C197.434 149.726 197.2 149.752 196.945 149.715C195.476 149.68 194.012 149.907 192.623 150.386C191.665 150.715 190.732 151.114 189.833 151.58C188.803 152.123 187.803 152.72 186.835 153.368C184.789 154.734 182.648 156.407 180.352 158.095L168.631 166.797L165.052 169.395L164.07 170.07C163.961 170.159 163.842 170.235 163.717 170.299C163.816 170.201 163.922 170.111 164.034 170.029L164.984 169.291L168.512 166.615L180.201 157.877C182.497 156.194 184.638 154.521 186.711 153.16C187.688 152.512 188.699 151.917 189.74 151.378C190.655 150.917 191.603 150.524 192.576 150.204C193.988 149.736 195.475 149.535 196.961 149.611C197.221 149.611 197.454 149.637 197.652 149.669L198.171 149.762C198.307 149.781 198.441 149.813 198.571 149.856Z" fill="black"/>
<path d="M215.336 165.784C215.235 165.548 215.159 165.303 215.108 165.052C214.983 164.579 214.806 163.888 214.557 163.046C214.276 162.059 213.92 161.095 213.492 160.163C212.971 159.028 212.259 157.991 211.388 157.098C210.521 156.201 209.436 155.544 208.24 155.191C207.255 154.927 206.232 154.838 205.216 154.926C204.276 155.032 203.343 155.191 202.421 155.404C202.477 155.367 202.538 155.339 202.603 155.321C202.727 155.274 202.909 155.212 203.122 155.144C203.8 154.943 204.496 154.807 205.2 154.739C206.244 154.617 207.3 154.69 208.317 154.952C209.561 155.304 210.69 155.978 211.59 156.905C212.485 157.822 213.21 158.889 213.731 160.059C214.157 161.007 214.504 161.989 214.77 162.994C214.993 163.846 215.144 164.553 215.237 165.031C215.292 165.279 215.325 165.531 215.336 165.784Z" fill="black"/>
<path d="M206.121 68.8226C216.336 68.3481 224.232 59.6825 223.757 49.4676C223.282 39.2527 214.617 31.3566 204.402 31.8311C194.187 32.3057 186.291 40.9713 186.766 51.1862C187.24 61.4011 195.906 69.2972 206.121 68.8226Z" fill="white"/>
<path d="M194.962 71.7253C195.133 71.6771 195.306 71.6372 195.481 71.6058C195.981 71.5438 196.488 71.6401 196.931 71.8811C197.235 72.0396 197.501 72.263 197.71 72.5357C197.942 72.8527 198.077 73.2296 198.1 73.6215C198.149 74.0722 198.058 74.5269 197.84 74.9246C197.623 75.3222 197.289 75.6437 196.883 75.8457C196.477 76.0478 196.019 76.1207 195.571 76.0546C195.123 75.9885 194.705 75.7867 194.375 75.4762C194.077 75.2219 193.858 74.8887 193.741 74.5151C193.645 74.1773 193.626 73.8223 193.684 73.476C193.76 72.9775 193.989 72.5149 194.338 72.1513C194.588 71.8967 194.77 71.8084 194.759 71.7928C194.713 71.8069 194.669 71.8279 194.629 71.8551C194.577 71.8822 194.526 71.9135 194.479 71.9486C194.413 71.997 194.351 72.049 194.292 72.1045C193.971 72.4109 193.739 72.7974 193.618 73.2241C193.497 73.6507 193.493 74.1019 193.606 74.5307C193.721 74.9346 193.952 75.2959 194.271 75.5697C194.618 75.8781 195.045 76.0833 195.502 76.162C195.995 76.2659 196.508 76.2003 196.959 75.9759C197.41 75.7515 197.772 75.3813 197.986 74.9255C198.197 74.512 198.29 74.0483 198.256 73.5851C198.227 73.1653 198.078 72.7627 197.824 72.4266C197.603 72.1373 197.316 71.9041 196.988 71.746C196.521 71.5049 195.989 71.4228 195.471 71.5123C195.391 71.5239 195.313 71.5431 195.237 71.5694C195.178 71.5845 195.121 71.6054 195.066 71.6317C195.003 71.6889 194.957 71.7253 194.962 71.7253Z" fill="#263238"/>
<path d="M189.844 60.8619L189.693 60.597L189.236 59.8385C189.137 59.667 189.023 59.48 188.898 59.2774C188.774 59.0748 188.68 58.8254 188.555 58.5657C188.431 58.3059 188.301 58.0462 188.161 57.7344C188.084 57.584 188.02 57.4276 187.968 57.2669C187.911 57.1006 187.849 56.9344 187.787 56.7473C187.157 55.0622 186.788 53.2912 186.69 51.495C186.547 49.1161 186.861 46.7317 187.615 44.4711L187.942 43.5256C188.072 43.2087 188.223 42.9021 188.363 42.5852C188.431 42.4294 188.504 42.2735 188.576 42.1125C188.642 41.95 188.722 41.7936 188.815 41.6449L189.335 40.715C189.423 40.5591 189.511 40.4032 189.605 40.2474L189.927 39.8006L190.576 38.8966C190.8 38.6005 191.065 38.3252 191.314 38.0342L191.693 37.603C191.756 37.5355 191.818 37.4576 191.886 37.39L192.099 37.1926C192.656 36.6327 193.251 36.1119 193.881 35.6341C194.203 35.4003 194.514 35.1145 194.857 34.9119L195.896 34.2729C196.073 34.169 196.244 34.0495 196.416 33.956L196.982 33.6859C197.361 33.5092 197.735 33.3118 198.125 33.1663C198.926 32.8476 199.747 32.5804 200.582 32.3663L201.216 32.2052L201.538 32.1273L201.866 32.0805L203.18 31.8831C203.627 31.8364 204.074 31.826 204.526 31.8C204.749 31.8 204.977 31.7636 205.206 31.8L205.887 31.8312C206.808 31.8649 207.726 31.9603 208.635 32.1169L210.001 32.4442L210.344 32.5273C210.458 32.5585 210.568 32.6001 210.682 32.6364L211.352 32.8702L212.027 33.0988L212.682 33.3897L213.337 33.691L213.664 33.8365C213.773 33.8937 213.872 33.956 213.981 34.0183L215.238 34.7405L216.433 35.5925C219.639 37.9954 221.974 41.379 223.083 45.2296C223.207 45.7024 223.327 46.1803 223.446 46.6479L223.665 48.087L223.717 48.4454V48.8039L223.753 49.5208L223.789 50.2378L223.758 50.9495L223.727 51.6612V52.0145L223.68 52.3626C223.613 52.8302 223.55 53.2925 223.488 53.7549C223.304 54.6604 223.059 55.5525 222.755 56.4252L222.537 57.0694C222.465 57.2876 222.355 57.4851 222.267 57.6929C222.075 58.1033 221.909 58.5189 221.701 58.9137C221.493 59.3086 221.259 59.6878 221.041 60.0723L220.875 60.358C220.812 60.4515 220.745 60.5398 220.683 60.6282L220.303 61.1477C219.802 61.8476 219.255 62.514 218.667 63.1426C218.371 63.4492 218.054 63.7245 217.752 64.0154L217.29 64.4414C217.139 64.5817 216.963 64.7012 216.802 64.8259L215.825 65.574C215.493 65.8078 215.134 66.0052 214.786 66.2182C214.12 66.6334 213.425 67.0014 212.708 67.3196L212.448 67.4443L212.178 67.5482L211.659 67.7404C211.295 67.8651 210.947 68.0157 210.588 68.1196L209.508 68.395L208.988 68.5301L208.469 68.6132L207.43 68.7742C207.258 68.8044 207.084 68.8218 206.91 68.8262H206.391C206.048 68.8262 205.705 68.873 205.352 68.8781L204.349 68.8366C201.969 68.7195 199.633 68.1444 197.47 67.1429C197.231 67.0338 196.992 66.9351 196.764 66.826L196.12 66.452L195.496 66.0987C195.392 66.0364 195.288 65.9844 195.195 65.9221L194.92 65.7247L193.881 64.9765C193.553 64.7272 193.273 64.457 192.987 64.2181L192.582 63.8648C192.451 63.7567 192.328 63.6405 192.213 63.5167L191.512 62.8933C191.319 62.6855 191.132 62.4984 190.992 62.3166L190.592 61.7971L190.072 61.0957C189.953 60.9399 189.885 60.8619 189.885 60.8619L190.062 61.1061C190.182 61.2724 190.358 61.5061 190.582 61.8179L190.971 62.3374C191.127 62.5244 191.314 62.7114 191.491 62.9193L192.114 63.5998C192.228 63.7266 192.351 63.8447 192.483 63.9531L192.888 64.3116C193.169 64.5505 193.449 64.8311 193.777 65.0753L194.816 65.8338L195.091 66.0312C195.19 66.0987 195.294 66.1507 195.392 66.213L196.016 66.5715L196.665 66.9507L197.372 67.2728C199.543 68.2894 201.892 68.8751 204.287 68.9976L205.294 69.0444C205.632 69.0444 205.98 69.0132 206.333 68.9976L206.853 68.9665C207.027 68.9658 207.201 68.9501 207.372 68.9197L208.437 68.7587L208.957 68.6755L209.477 68.5405L210.568 68.2651C210.926 68.1612 211.279 68.0157 211.643 67.8911L212.188 67.6936C212.277 67.6573 212.37 67.6313 212.459 67.5897L212.724 67.465C213.453 67.1448 214.159 66.7751 214.838 66.3585C215.181 66.1455 215.539 65.948 215.877 65.7143L216.864 64.961C217.03 64.8311 217.202 64.7168 217.384 64.5765L217.846 64.1453C218.147 63.8544 218.475 63.5738 218.771 63.2673C219.364 62.6335 219.916 61.9619 220.423 61.2568C220.548 61.075 220.677 60.8983 220.807 60.7373C220.87 60.6489 220.937 60.5606 220.999 60.4671L221.166 60.1762L221.836 59.0125C222.044 58.6124 222.215 58.1916 222.407 57.7812C222.496 57.5682 222.61 57.3656 222.683 57.1526L222.901 56.498C223.209 55.6191 223.455 54.7199 223.639 53.8069C223.706 53.3445 223.774 52.8717 223.836 52.4042L223.888 52.0509V51.6924L223.919 50.9807L223.95 50.2585L223.914 49.5364L223.872 48.8143V48.4454L223.815 48.087L223.597 46.6375C223.478 46.1595 223.358 45.6816 223.233 45.2036C222.137 41.3078 219.794 37.8788 216.563 35.4418L215.358 34.5794L214.085 33.8521C213.981 33.7898 213.877 33.7274 213.768 33.6703L213.435 33.5196L212.775 33.2183L212.116 32.9274L211.435 32.6936L210.755 32.4598L210.417 32.3455L210.069 32.2676C209.612 32.1533 209.149 32.0442 208.692 31.9403C207.775 31.7794 206.848 31.6822 205.918 31.6493L205.232 31.6182C205.003 31.6182 204.775 31.6182 204.546 31.6182C204.089 31.6493 203.637 31.6545 203.19 31.7013L201.86 31.9039L201.533 31.9558C201.424 31.9558 201.315 32.0078 201.211 32.0338L200.567 32.2C199.725 32.4127 198.899 32.6818 198.094 33.0053C197.699 33.1715 197.32 33.3741 196.935 33.5508L196.369 33.8261C196.182 33.9196 196.011 34.0391 195.85 34.1482L194.81 34.7924C194.468 35.021 194.151 35.286 193.829 35.525C193.195 36.0028 192.594 36.5236 192.031 37.0835L191.818 37.2861C191.751 37.3537 191.688 37.4316 191.626 37.5043C191.563 37.5771 191.371 37.7953 191.241 37.9355C190.992 38.2317 190.722 38.507 190.504 38.8031L189.849 39.7175L189.527 40.1695C189.433 40.3253 189.345 40.4864 189.257 40.6422L188.737 41.5774C188.647 41.7285 188.569 41.8866 188.504 42.0501L188.285 42.5281C188.145 42.845 187.994 43.1567 187.87 43.4736C187.745 43.7905 187.651 44.1126 187.542 44.4295C186.789 46.7045 186.482 49.1036 186.638 51.495C186.742 53.3 187.122 55.0785 187.766 56.7681L187.953 57.2877C188.004 57.4484 188.069 57.6048 188.145 57.7552L188.55 58.5865C188.68 58.841 188.784 59.08 188.904 59.293L189.246 59.8489L189.719 60.6022C189.782 60.7736 189.844 60.8619 189.844 60.8619Z" fill="#263238"/>
<path d="M195.912 50.7935L198.655 48.0504L203.944 52.7521L214.324 42.7617L216.87 45.5048L203.554 58.0408L195.912 50.7935Z" fill="#00BE9B"/>
</svg>
