<svg width="236" height="211" viewBox="0 0 236 211" fill="none" xmlns="http://www.w3.org/2000/svg">
<path d="M235.086 210.853C235.086 210.938 182.455 211 117.546 211C52.6362 211 0 210.938 0 210.853C0 210.768 52.6192 210.706 117.546 210.706C182.472 210.706 235.086 210.774 235.086 210.853Z" fill="#263238"/>
<path d="M124.406 132.219C124.321 132.219 121.327 108.551 117.711 79.3449C114.094 50.1385 111.237 26.4366 111.316 26.4253C111.395 26.414 114.389 50.0875 118.005 79.3053C121.622 108.523 124.485 132.208 124.406 132.219Z" fill="#263238"/>
<path d="M206.793 186.522H23.6406V210.7H206.793V186.522Z" fill="#00BE9B"/>
<path d="M206.793 189.504H23.6406V206.664H206.793V189.504Z" fill="#FAFAFA"/>
<path d="M211.095 169.827H13.833V186.715H211.095V169.827Z" fill="#455A64"/>
<path d="M199.65 169.827H196.294V186.715H199.65V169.827Z" fill="white"/>
<path d="M192.575 169.827H189.219V186.715H192.575V169.827Z" fill="white"/>
<path d="M35.4654 169.827H32.1094V186.715H35.4654V169.827Z" fill="white"/>
<path d="M28.3912 169.827H25.0352V186.715H28.3912V169.827Z" fill="white"/>
<path d="M171.038 182.899C171.038 182.899 171.259 182.899 171.685 182.814C172.229 182.695 172.733 182.434 173.146 182.059C173.559 181.684 173.866 181.208 174.037 180.677C174.198 180.125 174.236 179.545 174.151 178.976C174.045 178.279 173.709 177.637 173.195 177.154C172.681 176.67 172.019 176.374 171.316 176.312L144.009 176.346L53.9179 176.391C53.3923 176.391 52.8757 176.527 52.4179 176.785C51.9601 177.044 51.5766 177.416 51.3045 177.865C51.0323 178.312 50.8818 178.822 50.868 179.345C50.8295 179.869 50.913 180.395 51.1118 180.881C51.317 181.357 51.6403 181.773 52.0509 182.089C52.4616 182.406 52.9461 182.612 53.4587 182.689C53.9886 182.731 54.5204 182.745 55.0517 182.729H69.3148H93.2377H133.742L161.044 182.78H168.47L161.044 182.809L133.742 182.854L93.2377 182.888H55.029C54.4621 182.888 53.9633 182.888 53.3907 182.848C52.829 182.762 52.2983 182.535 51.8482 182.188C51.3981 181.841 51.0433 181.385 50.817 180.864C50.6033 180.338 50.5121 179.77 50.5506 179.203C50.5654 178.629 50.7295 178.068 51.0268 177.576C51.3258 177.083 51.7468 176.675 52.2493 176.392C52.7517 176.109 53.3186 175.961 53.8952 175.96L143.986 176.006L171.299 176.062C172.03 176.123 172.718 176.43 173.251 176.932C173.785 177.435 174.132 178.103 174.236 178.829C174.316 179.399 174.272 179.979 174.105 180.53C173.953 180.987 173.702 181.406 173.368 181.754C172.911 182.23 172.316 182.551 171.668 182.672C171.507 182.705 171.344 182.724 171.18 182.729L171.038 182.899Z" fill="white"/>
<path d="M205.199 189.98C205.199 190.065 164.836 190.127 115.063 190.127C65.2897 190.127 24.9268 190.065 24.9268 189.98C24.9268 189.895 65.2783 189.833 115.063 189.833C164.848 189.833 205.199 189.901 205.199 189.98Z" fill="#263238"/>
<path d="M205.199 195.105C205.199 195.184 164.836 195.252 115.063 195.252C65.2897 195.252 24.9268 195.184 24.9268 195.105C24.9268 195.026 65.2783 194.958 115.063 194.958C164.848 194.958 205.199 195.02 205.199 195.105Z" fill="#263238"/>
<path d="M205.199 200.224C205.199 200.309 164.836 200.371 115.063 200.371C65.2897 200.371 24.9268 200.309 24.9268 200.224C24.9268 200.139 65.2783 200.076 115.063 200.076C164.848 200.076 205.199 200.144 205.199 200.224Z" fill="#263238"/>
<path d="M205.199 205.349C205.199 205.428 164.836 205.496 115.063 205.496C65.2897 205.496 24.9268 205.428 24.9268 205.349C24.9268 205.269 65.2783 205.201 115.063 205.201C164.848 205.201 205.199 205.269 205.199 205.349Z" fill="#263238"/>
<path d="M121.633 177.724L131.072 174.589L125.794 159.532L115.687 163.648L121.633 177.724Z" fill="#FFBF9D"/>
<path d="M116.963 163.665L102.348 170.093L96.679 170.314C94.5248 170.399 94.9783 172.128 95.0804 174.282L96.1121 200.569C96.1121 200.569 98.7992 201.703 99.5475 199.736C100.296 197.769 107.83 182.729 107.83 182.729L121.662 177.684L116.963 163.665Z" fill="#E0E0E0"/>
<path d="M116.962 163.665C116.962 163.665 116.996 163.744 117.047 163.897C117.098 164.05 117.189 164.305 117.296 164.606C117.518 165.246 117.835 166.176 118.249 167.366L121.758 177.667V177.758L121.673 177.786L107.88 182.848L107.943 182.792C106.429 185.853 104.802 189.129 103.101 192.559C102.257 194.26 101.401 196.046 100.545 197.848C100.329 198.302 100.12 198.755 99.9154 199.215C99.8134 199.447 99.734 199.662 99.615 199.906C99.565 200.033 99.4962 200.151 99.4109 200.258L99.2862 200.422L99.1331 200.558C98.7003 200.897 98.1561 201.061 97.6082 201.017C97.0772 200.993 96.554 200.88 96.0605 200.683L95.9868 200.654V200.564C95.9868 200.479 95.9868 200.388 95.9868 200.292C95.7091 193.149 95.4483 186.335 95.2102 180.127C95.1497 178.574 95.093 177.062 95.0401 175.592C95.0061 174.855 94.9891 174.129 94.9381 173.421C94.8502 172.707 94.8731 171.984 95.0061 171.278C95.0539 171.098 95.1378 170.93 95.2528 170.784C95.3679 170.638 95.5115 170.516 95.6751 170.428C95.9997 170.28 96.3505 170.2 96.7068 170.19L98.6683 170.121L102.376 169.985H102.347L113.084 165.32L115.953 164.084L116.707 163.767L116.956 163.665L116.696 163.795C116.514 163.874 116.259 163.988 115.936 164.141L113.028 165.445L102.393 170.178H102.347L98.6456 170.331L96.6785 170.411C96.3574 170.416 96.0408 170.487 95.7488 170.62C95.6088 170.695 95.486 170.798 95.3883 170.923C95.2907 171.048 95.2203 171.192 95.1819 171.346C95.0591 172.025 95.0419 172.719 95.1308 173.404C95.1875 174.118 95.2045 174.849 95.2386 175.581C95.2952 177.055 95.3557 178.566 95.42 180.116C95.6637 186.352 95.9358 193.154 96.2193 200.286C96.2193 200.377 96.2193 200.467 96.2193 200.552L96.1399 200.439C96.6035 200.621 97.0937 200.726 97.5912 200.751C98.071 200.79 98.5483 200.649 98.929 200.354C99.259 199.996 99.5032 199.567 99.6433 199.101C99.8474 198.642 100.057 198.188 100.273 197.735C101.129 195.927 101.973 194.169 102.835 192.446C104.536 189.016 106.18 185.739 107.699 182.684V182.639H107.744L121.622 177.61L121.565 177.729L118.164 167.451C117.767 166.244 117.461 165.303 117.251 164.657C117.149 164.339 117.07 164.09 117.019 163.925C116.968 163.761 116.962 163.665 116.962 163.665Z" fill="#263238"/>
<path d="M117.767 162.066L114.229 163.88C113.968 164.013 113.765 164.239 113.66 164.514C113.555 164.788 113.556 165.092 113.663 165.366L118.668 178.228C118.775 178.502 118.98 178.726 119.243 178.858C119.505 178.99 119.808 179.02 120.091 178.943L123.816 177.917C123.975 177.872 124.124 177.795 124.252 177.69C124.38 177.585 124.484 177.454 124.559 177.307C124.634 177.159 124.677 176.997 124.685 176.832C124.694 176.666 124.668 176.501 124.609 176.346L119.417 162.701C119.357 162.546 119.265 162.404 119.147 162.286C119.03 162.169 118.888 162.077 118.733 162.017C118.577 161.957 118.411 161.931 118.245 161.939C118.078 161.948 117.915 161.991 117.767 162.066Z" fill="#E0E0E0"/>
<path d="M118.833 178.733C118.444 178.133 118.107 177.501 117.824 176.845C117.257 175.66 116.492 174.01 115.755 172.117C115.018 170.224 114.451 168.5 114.088 167.23C113.912 166.595 113.776 166.097 113.697 165.717C113.636 165.534 113.603 165.343 113.601 165.15C113.879 165.807 114.116 166.481 114.309 167.168C114.723 168.415 115.324 170.133 116.055 172.004C116.787 173.874 117.512 175.547 118.034 176.76C118.347 177.398 118.614 178.057 118.833 178.733Z" fill="#263238"/>
<path d="M114.564 166.976C115.271 166.18 116.176 165.588 117.187 165.259C118.199 164.93 119.28 164.877 120.318 165.105C120.318 165.207 118.901 165.031 117.286 165.57C116.33 165.938 115.417 166.409 114.564 166.976Z" fill="#263238"/>
<path d="M115.806 171.919C116.734 171.301 117.736 170.802 118.788 170.434C119.8 169.966 120.866 169.623 121.962 169.413C121.996 169.504 120.607 170.042 118.912 170.734C117.906 171.201 116.867 171.597 115.806 171.919Z" fill="#263238"/>
<path d="M118.334 176.856C119.37 176.642 120.367 176.273 121.293 175.762C122.795 174.855 123.515 173.557 123.6 173.619C123.523 173.934 123.371 174.225 123.158 174.47C122.233 175.741 120.844 176.597 119.292 176.851C118.978 176.929 118.649 176.931 118.334 176.856Z" fill="#263238"/>
<path d="M95.3184 176.182C95.3184 176.125 95.8116 176.052 96.5655 175.768C97.547 175.409 98.4367 174.837 99.1708 174.093C99.9049 173.349 100.465 172.452 100.812 171.465C101.089 170.706 101.152 170.201 101.208 170.213C101.247 170.66 101.187 171.111 101.033 171.533C100.733 172.585 100.173 173.544 99.4055 174.323C98.6377 175.102 97.6865 175.675 96.6392 175.989C96.2175 176.146 95.7673 176.212 95.3184 176.182Z" fill="#263238"/>
<path d="M95.8115 192.809C96.1021 192.641 96.4285 192.543 96.7639 192.525C97.5749 192.426 98.3976 192.562 99.1335 192.917C99.8565 193.277 100.496 193.785 101.01 194.408C101.252 194.643 101.445 194.924 101.577 195.235C101.537 195.235 101.288 194.986 100.863 194.566C100.322 194.02 99.6981 193.563 99.0145 193.211C98.324 192.881 97.5628 192.725 96.7979 192.758C96.4715 192.807 96.1412 192.824 95.8115 192.809Z" fill="#263238"/>
<path d="M92.9996 142.559C92.9996 142.559 73.368 139.231 68.9576 139.685C64.5471 140.138 55.8623 143.783 55.8623 151.618C55.8623 159.452 60.4485 165.518 66.6333 167.123C72.8181 168.727 107.54 175.768 121.152 176.936C132.671 177.922 139.207 175.626 138.073 173.71C138.073 173.71 149.576 169.248 150.806 168.608C151.77 168.126 165.511 161.918 171.996 156.833C174.95 154.515 183.85 145.496 176.639 139.26C169.428 133.024 161.169 133.823 153.187 137.23C151.849 137.797 143.878 140.393 139.428 143.007L132.784 134.503C132.558 134.639 119.02 134.798 106.979 134.651C103.09 134.605 96.3159 134.503 96.3159 134.503L92.9996 142.559Z" fill="#263238"/>
<path d="M122.904 164.351C122.699 162.815 122.597 162.248 123.079 161.312C123.62 160.407 124.316 159.605 125.137 158.943C125.664 158.472 126.271 157.962 126.979 158.024C127.87 158.104 128.408 159.016 128.805 159.816C130.256 162.756 131.828 165.632 133.521 168.444C134.491 170.059 135.54 171.692 137.07 172.792C137.637 173.194 138.329 173.688 138.204 174.373C138.125 174.912 137.569 175.23 137.07 175.451C136.129 175.861 135.159 176.202 134.168 176.471C133.219 176.801 132.197 176.864 131.214 176.652C130.34 176.333 129.56 175.799 128.947 175.099C125.842 172.097 123.706 168.236 122.813 164.011" fill="#263238"/>
<path d="M158.135 139.322C158.135 139.322 158.011 139.294 157.767 139.322C157.415 139.35 157.065 139.397 156.718 139.464C155.811 139.634 154.507 139.935 152.897 140.331C152.104 140.53 151.197 140.751 150.273 140.944C149.371 141.238 148.572 141.958 147.722 142.644C146.021 143.999 144.122 145.479 142.16 147.089C138.243 150.275 134.791 153.262 132.342 155.496C131.112 156.63 130.142 157.531 129.468 158.166L128.697 158.897C128.608 158.985 128.514 159.067 128.413 159.141C128.487 159.04 128.569 158.946 128.657 158.857L129.394 158.092C130.046 157.429 130.998 156.488 132.228 155.354C134.638 153.087 138.084 150.065 142.007 146.879C143.969 145.286 145.856 143.789 147.585 142.452C148.365 141.744 149.255 141.169 150.222 140.751C151.202 140.552 152.058 140.36 152.875 140.184C154.485 139.81 155.8 139.538 156.718 139.402C157.07 139.343 157.427 139.313 157.784 139.311C157.879 139.303 157.975 139.312 158.067 139.339L158.135 139.322Z" fill="#455A64"/>
<path d="M108.539 160.003C108.418 159.954 108.304 159.891 108.198 159.816L107.257 159.249L103.856 157.049L98.7879 153.767C96.7582 152.355 94.6329 151.086 92.4273 149.969C91.2714 149.441 90.0654 149.031 88.8276 148.744C88.2266 148.594 87.6527 148.351 87.1269 148.024C86.6462 147.669 86.2383 147.224 85.9251 146.715C85.3201 145.842 84.458 145.18 83.4591 144.821C82.5884 144.501 81.6754 144.31 80.7493 144.254C79.0486 144.141 77.6427 144.198 76.679 144.101C76.2028 144.062 75.8287 144.011 75.5792 143.965C75.4522 143.945 75.3271 143.915 75.2051 143.875C75.3324 143.874 75.4596 143.886 75.5849 143.909C75.84 143.937 76.2085 143.977 76.6903 143.999C77.6484 144.062 79.0316 143.971 80.7607 144.062C81.7095 144.112 82.6457 144.303 83.5384 144.628C84.038 144.812 84.5108 145.062 84.9443 145.371C85.4008 145.709 85.7991 146.118 86.1235 146.584C86.4192 147.066 86.804 147.488 87.2573 147.826C87.7614 148.139 88.3127 148.369 88.8899 148.506C90.1433 148.795 91.3645 149.209 92.5351 149.742C94.742 150.855 96.8658 152.127 98.8899 153.546L103.924 156.879L107.325 159.147L108.238 159.776C108.344 159.844 108.444 159.92 108.539 160.003Z" fill="#455A64"/>
<path d="M113.408 177.916L104.31 175.099L109.071 160.569L118.833 164.322L113.408 177.916Z" fill="#FFBF9D"/>
<path d="M117.609 164.362L131.725 170.229L136.26 170.309C136.941 170.323 137.588 170.607 138.061 171.098C138.534 171.589 138.793 172.246 138.782 172.928L138.306 199.288C138.306 199.288 135.16 199.691 134.406 197.814C133.652 195.938 126.725 182.457 126.725 182.457L113.38 177.894L117.609 164.362Z" fill="#E0E0E0"/>
<path d="M117.608 164.362C117.608 164.362 117.608 164.447 117.54 164.611L117.33 165.314C117.143 165.944 116.866 166.845 116.514 168.013L113.464 177.922L113.408 177.803L126.764 182.338H126.809V182.384C128.283 185.269 129.853 188.353 131.497 191.584C132.308 193.206 133.141 194.861 133.963 196.567C134.167 196.987 134.36 197.44 134.558 197.86C134.758 198.263 135.09 198.585 135.499 198.772C136.373 199.139 137.327 199.268 138.266 199.147L138.147 199.283V199.124C138.277 192.35 138.402 185.893 138.515 180.008C138.544 178.54 138.572 177.1 138.6 175.705C138.6 175.008 138.629 174.322 138.64 173.642C138.64 173.308 138.64 172.956 138.64 172.644C138.598 172.177 138.422 171.731 138.135 171.359C137.848 170.988 137.461 170.706 137.019 170.547C136.433 170.404 135.83 170.346 135.227 170.377L131.718 170.303L121.44 165.978L118.606 164.781L117.869 164.464L117.614 164.351L117.858 164.441L118.583 164.73L121.418 165.864L131.792 170.122H131.758L135.273 170.178H136.197C136.523 170.177 136.846 170.231 137.155 170.337C137.796 170.564 138.327 171.026 138.64 171.63C138.801 171.938 138.899 172.275 138.929 172.622C138.929 172.979 138.929 173.296 138.929 173.642C138.929 174.317 138.929 175.008 138.895 175.705C138.869 177.1 138.844 178.534 138.821 180.008C138.714 185.893 138.595 192.35 138.476 199.124C138.476 199.175 138.476 199.232 138.476 199.277V199.402H138.362C137.371 199.527 136.363 199.388 135.443 198.999C134.98 198.782 134.604 198.414 134.377 197.956C134.173 197.514 133.986 197.094 133.782 196.664C132.965 194.963 132.138 193.308 131.321 191.686L126.656 182.48L126.724 182.537L113.385 177.95L113.3 177.916L113.328 177.831L116.491 167.894L117.347 165.235C117.444 164.94 117.518 164.713 117.569 164.549C117.62 164.385 117.608 164.362 117.608 164.362Z" fill="#263238"/>
<path d="M116.696 162.157L120.664 164.096C120.93 164.225 121.139 164.449 121.25 164.723C121.361 164.997 121.366 165.303 121.265 165.581L116.52 178.659C116.417 178.938 116.215 179.169 115.953 179.308C115.69 179.447 115.385 179.485 115.097 179.413L111.316 178.45C111.154 178.409 111.003 178.336 110.871 178.233C110.74 178.131 110.631 178.002 110.553 177.855C110.474 177.708 110.427 177.547 110.415 177.38C110.403 177.214 110.426 177.047 110.483 176.891L115.585 162.622C115.623 162.515 115.683 162.418 115.761 162.336C115.839 162.254 115.933 162.189 116.038 162.145C116.142 162.101 116.255 162.08 116.368 162.082C116.481 162.084 116.593 162.109 116.696 162.157Z" fill="#E0E0E0"/>
<path d="M116.696 162.157C116.555 162.111 116.407 162.094 116.26 162.106C116.086 162.126 115.924 162.204 115.8 162.327C115.648 162.515 115.541 162.736 115.489 162.973C115.114 164.056 114.582 165.581 113.93 167.457L111.588 174.101L110.908 176.046C110.795 176.369 110.681 176.697 110.562 177.026C110.52 177.181 110.512 177.343 110.54 177.5C110.567 177.658 110.629 177.808 110.721 177.939C110.815 178.069 110.937 178.175 111.078 178.251C111.233 178.325 111.397 178.378 111.566 178.41L112.643 178.682L114.837 179.249C115.007 179.307 115.184 179.341 115.364 179.351C115.533 179.354 115.701 179.315 115.851 179.237C116.002 179.162 116.133 179.051 116.231 178.914C116.324 178.768 116.397 178.609 116.447 178.444C116.702 177.741 116.957 177.055 117.206 176.374C117.705 175.025 118.181 173.721 118.641 172.474C119.559 169.997 120.387 167.758 121.09 165.87C121.189 165.66 121.247 165.433 121.26 165.201C121.259 164.984 121.196 164.771 121.078 164.589C120.851 164.226 120.409 164.112 120.063 163.92L118.221 162.967L117.087 162.4C116.951 162.337 116.821 162.263 116.696 162.179C116.841 162.223 116.981 162.28 117.116 162.349L118.283 162.916L120.131 163.789L120.698 164.056C120.913 164.152 121.097 164.305 121.231 164.498C121.371 164.706 121.448 164.95 121.452 165.201C121.444 165.458 121.384 165.71 121.277 165.943C120.596 167.837 119.786 170.076 118.884 172.565C118.431 173.812 117.96 175.122 117.467 176.476C117.218 177.151 116.968 177.843 116.713 178.54C116.655 178.731 116.569 178.913 116.458 179.078C116.336 179.249 116.175 179.387 115.987 179.481C115.798 179.577 115.588 179.627 115.375 179.628C115.27 179.627 115.166 179.613 115.063 179.589L114.78 179.515L112.586 178.948L111.515 178.676C111.318 178.641 111.128 178.58 110.948 178.495C110.772 178.395 110.62 178.26 110.5 178.098C110.384 177.936 110.306 177.75 110.272 177.553C110.239 177.357 110.251 177.155 110.307 176.964C110.426 176.612 110.545 176.295 110.659 175.966C110.897 175.314 111.124 174.674 111.35 174.05L113.748 167.429L115.387 162.973C115.446 162.724 115.567 162.494 115.738 162.304C115.879 162.176 116.059 162.099 116.248 162.083C116.364 162.076 116.48 162.094 116.588 162.134C116.668 162.128 116.696 162.151 116.696 162.157Z" fill="#263238"/>
<path d="M120.403 167.213C119.674 166.426 118.748 165.847 117.721 165.535C116.694 165.223 115.603 165.19 114.559 165.439C114.559 165.541 115.987 165.337 117.625 165.847C118.599 166.198 119.531 166.656 120.403 167.213Z" fill="#263238"/>
<path d="M118.873 172.151C117.041 171.084 115.056 170.304 112.988 169.838C113.932 170.312 114.907 170.72 115.908 171.057C116.87 171.49 117.86 171.855 118.873 172.151Z" fill="#263238"/>
<path d="M116.804 177.276C116.804 177.174 115.318 177.14 113.799 176.227C112.28 175.314 111.532 174.05 111.424 174.113C111.507 174.428 111.665 174.72 111.883 174.963C112.362 175.587 112.957 176.112 113.635 176.511C114.31 176.909 115.058 177.171 115.834 177.282C116.154 177.354 116.485 177.352 116.804 177.276Z" fill="#263238"/>
<path d="M138.589 175.921C138.589 175.87 138.113 175.808 137.387 175.552C136.438 175.229 135.573 174.699 134.854 174C134.135 173.301 133.581 172.45 133.232 171.511C132.954 170.791 132.88 170.309 132.829 170.32C132.799 170.75 132.865 171.182 133.022 171.584C133.33 172.585 133.885 173.493 134.636 174.223C135.387 174.953 136.31 175.483 137.319 175.762C137.726 175.907 138.159 175.961 138.589 175.921Z" fill="#263238"/>
<path d="M138.442 191.862C138.161 191.703 137.846 191.616 137.524 191.607C136.743 191.526 135.956 191.671 135.256 192.026C134.571 192.388 133.968 192.888 133.487 193.495C133.119 193.954 132.949 194.271 132.983 194.294C133.017 194.317 133.255 194.05 133.652 193.642C134.157 193.107 134.745 192.655 135.392 192.304C136.048 191.977 136.774 191.814 137.507 191.828C137.817 191.866 138.13 191.877 138.442 191.862Z" fill="#263238"/>
<path d="M107.92 157.695C107.852 157.724 107.495 156.873 106.758 155.592C104.83 152.239 102.076 149.435 98.7589 147.446C97.4891 146.681 96.6501 146.312 96.6784 146.244C96.8934 146.275 97.102 146.34 97.2963 146.437C97.8475 146.654 98.3835 146.908 98.9007 147.197C100.623 148.135 102.198 149.323 103.572 150.723C104.942 152.123 106.099 153.715 107.007 155.451C107.286 155.974 107.529 156.515 107.733 157.072C107.828 157.268 107.891 157.479 107.92 157.695Z" fill="#455A64"/>
<path d="M133.941 148.478C133.474 148.992 132.972 149.473 132.438 149.917C131.503 150.79 130.244 152.032 128.952 153.5C127.659 154.968 126.599 156.374 125.851 157.417C125.483 158.006 125.069 158.565 124.615 159.09C124.871 158.441 125.207 157.826 125.613 157.259C127.431 154.419 129.669 151.871 132.251 149.702C132.76 149.224 133.328 148.812 133.941 148.478Z" fill="#455A64"/>
<path d="M144.06 122.593L145.029 104.543L131.305 107.327L134.02 131.754L142.195 143.682L150.834 140.224L144.06 122.593Z" fill="#FFBF9D"/>
<path d="M142.597 121.624C141.644 121.681 140.696 121.811 139.763 122.015C138.858 122.316 137.977 122.684 137.127 123.115C137.835 122.426 138.72 121.947 139.684 121.732C140.625 121.422 141.635 121.385 142.597 121.624Z" fill="#FFE3CA"/>
<path d="M160.522 130.524L151.333 127.378C151.188 127.327 151.033 127.311 150.88 127.33C150.727 127.35 150.582 127.405 150.454 127.491L131.747 139.963C131.587 140.068 131.462 140.217 131.385 140.392C131.308 140.566 131.282 140.759 131.312 140.948C131.341 141.136 131.424 141.312 131.55 141.455C131.676 141.598 131.841 141.702 132.024 141.754L141.696 144.589C141.835 144.63 141.982 144.64 142.126 144.618C142.27 144.597 142.407 144.544 142.529 144.464L160.738 132.304C160.892 132.201 161.016 132.057 161.094 131.889C161.172 131.72 161.201 131.532 161.179 131.348C161.156 131.163 161.083 130.988 160.967 130.843C160.851 130.697 160.697 130.587 160.522 130.524Z" fill="#455A64"/>
<path d="M150.778 133.835C150.778 133.835 151.163 133.767 152.325 134.759C153.487 135.751 154.026 136.46 154.264 137.525C154.392 138.501 154.212 139.492 153.748 140.36C153.297 140.946 152.809 141.503 152.286 142.026C152.286 142.026 152.314 143.659 151.152 144.249L149.956 144.816C149.78 145.181 149.498 145.484 149.147 145.686C148.796 145.889 148.393 145.98 147.989 145.949L146.622 146.153C146.622 146.153 145.449 146.885 144.922 146.392C144.394 145.898 139.321 142.225 138.794 141.023C138.266 139.821 138.606 139.657 138.606 139.657C138.606 139.657 136.826 139.118 137.756 137.894C138.686 136.669 140.222 137.741 141.6 138.517C142.977 139.294 147.087 140.983 147.087 140.983C147.087 140.983 143.901 135.842 144.111 135.144C144.321 134.447 145.647 133.54 146.804 134.901C147.96 136.261 150.205 139.912 150.585 139.68L151.821 138.268C151.821 138.268 149.808 135.331 149.797 134.487C149.786 133.642 150.778 133.835 150.778 133.835Z" fill="#FFBF9D"/>
<path d="M145.375 144.3C144.977 144.19 144.596 144.028 144.241 143.818C143.365 143.364 142.515 142.861 141.696 142.31C140.876 141.763 140.088 141.169 139.338 140.53C139.01 140.28 138.715 139.991 138.459 139.668C138.521 139.6 139.956 140.802 141.86 142.066C143.765 143.33 145.432 144.237 145.375 144.3Z" fill="#00BE9B"/>
<path d="M92.4893 84.3219L108.13 78.8854L124.91 78.1201L139.972 83.4773L134.853 105.274L134.916 104.554L134.349 122.746L135.148 132.037L133.3 135.048L95.2954 134.509L94.9439 109.861L92.4893 84.3219Z" fill="#00BE9B"/>
<path d="M79.5244 111.04C79.5244 111.04 85.131 94.0615 87.2342 90.1783C88.503 87.8416 90.3031 85.8357 92.4893 84.3223L94.944 110.071L95.1594 115.32L79.5244 111.04Z" fill="#00BE9B"/>
<path d="M139.972 83.4775C139.972 83.4775 145.59 85.7451 147.064 91.981C147.971 95.8188 151.248 112.253 151.248 112.253H133.011L134.02 95.7621L139.972 83.4775Z" fill="#00BE9B"/>
<path d="M138.629 88.0239C138.47 88.5665 138.263 89.0938 138.011 89.5999C137.597 90.5579 137.007 91.8675 136.31 93.3131C134.955 96.1929 133.748 98.4945 133.595 98.4151C133.595 98.4151 133.878 97.8482 134.315 96.8958C134.797 95.8641 135.386 94.5999 136.044 93.2053C136.701 91.8108 137.342 90.4616 137.807 89.5319C138.035 89.0058 138.31 88.5011 138.629 88.0239Z" fill="#263238"/>
<path d="M94.0318 93.9312C94.0998 94.208 94.1397 94.491 94.1508 94.7758C94.2075 95.3427 94.2812 96.108 94.3549 97.0831C94.5136 99.0389 94.6837 101.737 94.8084 104.725C94.9331 107.712 94.9955 110.394 95.0068 112.378C95.0068 113.359 95.0068 114.152 95.0068 114.697C95.0145 114.981 94.9993 115.265 94.9615 115.547C94.9104 115.266 94.8876 114.982 94.8934 114.697C94.8934 114.096 94.8424 113.319 94.8084 112.384C94.7347 110.371 94.6327 107.695 94.5249 104.736C94.4172 101.777 94.2585 99.1069 94.1621 97.1001C94.1168 96.159 94.0771 95.3994 94.0488 94.7815C94.0194 94.499 94.0137 94.2146 94.0318 93.9312Z" fill="#263238"/>
<path d="M133.301 96.6465C133.391 96.8986 133.457 97.1586 133.499 97.4231C133.613 97.9277 133.76 98.6646 133.924 99.5717C134.377 101.944 134.672 104.343 134.809 106.754C134.918 109.165 134.901 111.579 134.758 113.988C134.707 114.912 134.656 115.688 134.61 116.176C134.604 116.445 134.57 116.713 134.508 116.975C134.485 116.707 134.485 116.438 134.508 116.17C134.508 115.603 134.537 114.861 134.565 113.982C134.61 112.134 134.667 109.583 134.525 106.771C134.383 104.371 134.118 101.979 133.732 99.6057C133.596 98.7383 133.488 98.0127 133.397 97.4458C133.338 97.1833 133.306 96.9155 133.301 96.6465Z" fill="#263238"/>
<path d="M93.5157 43.8514C92.866 43.833 92.2198 43.9517 91.619 44.1998C91.0183 44.4479 90.4766 44.8198 90.0293 45.2913C88.4987 46.9069 89.349 49.628 89.349 49.628C89.349 49.628 85.9476 50.7902 85.3807 53.2562C84.298 55.0929 84.6948 60.2573 86.7073 60.9943C86.7224 61.8974 86.9259 62.7873 87.3046 63.6073C87.6834 64.4273 88.2291 65.1592 88.9068 65.7562C88.9125 66.8464 89.2564 67.9079 89.891 68.7944C90.5257 69.6808 91.4197 70.3484 92.4499 70.7052C92.8026 71.6586 93.3039 72.5502 93.9352 73.3469C95.8343 75.5805 99.0372 74.339 99.0372 74.339C99.0372 74.339 101.702 77.4286 102.92 77.4966C111.424 77.9558 119.689 74.5941 118.822 73.9648C122.79 77.2868 130.421 74.4467 129.893 72.9898C129.893 72.9898 133.374 73.0805 135.131 71.6859C138.765 68.7948 137.796 65.1893 137.796 65.1893C138.401 65.5811 139.125 65.746 139.84 65.6547C140.555 65.5633 141.215 65.2217 141.702 64.6904C142.688 63.6644 142.195 61.7539 142.195 61.7539C142.44 61.3888 142.574 60.9602 142.58 60.5203C142.586 60.0804 142.464 59.6483 142.229 59.2766C143.538 58.2562 143.737 56.9353 142.58 55.2516C144.916 53.0124 141.407 49.8094 141.407 49.8094C141.632 49.6605 141.823 49.4664 141.97 49.2396C142.116 49.0128 142.213 48.7581 142.256 48.4917C142.298 48.2253 142.285 47.953 142.217 47.6919C142.149 47.4308 142.028 47.1867 141.86 46.975C143.295 45.7505 141.645 42.9443 139.842 42.3661C138.873 37.2641 133.04 37.4341 133.04 37.4341C132.635 36.5674 131.913 35.8888 131.023 35.5377C130.133 35.1866 129.143 35.1897 128.255 35.5464C127.178 34.0611 122.512 33.1881 119.564 35.5464C114.032 28.7039 107.331 29.5656 102.405 33.052C98.51 35.8071 98.3966 39.0611 97.8014 40.8525C96.8671 40.8584 95.9567 41.1484 95.1912 41.684C94.4257 42.2197 93.8413 42.9756 93.5157 43.8514Z" fill="#263238"/>
<path d="M103.831 66.441C107.306 64.9888 108.946 60.9943 107.494 57.5191C106.041 54.0439 102.047 52.404 98.5717 53.8563C95.0965 55.3085 93.4566 59.303 94.9089 62.7782C96.3612 66.2534 100.356 67.8933 103.831 66.441Z" fill="#455A64"/>
<path d="M105.318 60.1609C105.284 60.1609 105.318 59.7924 105.131 59.1688C104.89 58.2886 104.361 57.5144 103.629 56.9692C103.171 56.6654 102.655 56.4601 102.113 56.3663C101.571 56.2724 101.016 56.2921 100.483 56.4241C99.9492 56.5561 99.4488 56.7975 99.0135 57.133C98.5781 57.4685 98.2171 57.8908 97.9535 58.3731C97.6899 58.8554 97.5294 59.3872 97.4821 59.9348C97.4348 60.4824 97.5018 61.0339 97.6788 61.5543C97.8558 62.0747 98.139 62.5526 98.5104 62.9578C98.8818 63.3629 99.3333 63.6865 99.8364 63.908C100.364 64.1001 100.925 64.1804 101.486 64.1438C102.046 64.1072 102.592 63.9545 103.09 63.6955C103.588 63.4364 104.027 63.0765 104.378 62.6388C104.729 62.2011 104.986 61.6951 105.131 61.1529C105.301 60.5294 105.284 60.1609 105.318 60.1609C105.333 60.2491 105.333 60.3391 105.318 60.4273C105.319 60.6814 105.289 60.9347 105.228 61.1813C105.017 62.111 104.49 62.9386 103.737 63.5226C103.217 63.9283 102.609 64.206 101.962 64.3332C101.216 64.4755 100.445 64.4168 99.7287 64.1631C98.9329 63.882 98.241 63.3661 97.7445 62.6836C97.2033 61.9538 96.9111 61.0694 96.9111 60.1609C96.9111 59.2523 97.2033 58.3679 97.7445 57.6382C98.0782 57.1834 98.4996 56.8001 98.984 56.511C99.4684 56.2219 100.006 56.0329 100.564 55.9552C101.123 55.8775 101.692 55.9127 102.237 56.0586C102.782 56.2046 103.292 56.4583 103.737 56.8049C104.489 57.3877 105.015 58.213 105.228 59.1405C105.289 59.389 105.319 59.6441 105.318 59.9001C105.333 59.9864 105.333 60.0746 105.318 60.1609Z" fill="#263238"/>
<path d="M111.827 39.3898L112.734 38.5225L122.563 42.4907C123.25 42.5288 123.897 42.8231 124.377 43.3155C124.856 43.8078 125.134 44.4623 125.154 45.1495L125.069 77.1677C125.175 79.2375 124.562 81.2803 123.334 82.95L121.957 84.7754C118.805 88.9308 112.32 88.5849 109.842 84.0101C109.691 83.7507 109.575 83.4724 109.497 83.1824C109.433 82.9457 109.384 82.7052 109.349 82.4625C109.054 79.8888 109.037 77.6552 109.037 77.6552C108.862 74.8207 108.805 73.687 108.805 73.687C108.805 73.687 102.785 72.9953 101.158 65.2686C100.347 61.425 100.5 56.1359 100.732 50.9375C101.044 43.7322 106.039 39.3841 111.827 39.3898Z" fill="#FFBF9D"/>
<path d="M113.839 56.2041C113.851 56.4648 113.963 56.7108 114.152 56.8905C114.341 57.0702 114.593 57.1696 114.854 57.1678C114.981 57.1708 115.108 57.1485 115.227 57.1021C115.346 57.0558 115.454 56.9863 115.546 56.8977C115.637 56.8091 115.711 56.7032 115.761 56.5861C115.812 56.469 115.839 56.343 115.84 56.2155C115.83 55.9543 115.718 55.7075 115.528 55.5275C115.339 55.3475 115.087 55.2486 114.825 55.2517C114.698 55.2487 114.571 55.2711 114.452 55.3174C114.333 55.3638 114.225 55.4333 114.133 55.5219C114.041 55.6105 113.968 55.7164 113.918 55.8335C113.867 55.9506 113.84 56.0766 113.839 56.2041Z" fill="#263238"/>
<path d="M103.68 56.2041C103.691 56.4648 103.804 56.7108 103.993 56.8905C104.182 57.0702 104.433 57.1696 104.694 57.1678C104.822 57.1708 104.949 57.1485 105.068 57.1021C105.186 57.0558 105.295 56.9863 105.387 56.8977C105.478 56.8091 105.552 56.7032 105.602 56.5861C105.653 56.469 105.679 56.343 105.681 56.2155C105.669 55.9548 105.557 55.7088 105.368 55.5291C105.178 55.3494 104.927 55.25 104.666 55.2517C104.539 55.2487 104.412 55.2711 104.293 55.3174C104.174 55.3638 104.066 55.4333 103.974 55.5219C103.882 55.6105 103.809 55.7164 103.758 55.8335C103.708 55.9506 103.681 56.0766 103.68 56.2041Z" fill="#263238"/>
<path d="M101.781 52.9956C101.911 53.1146 102.637 52.5194 103.714 52.4683C104.791 52.4173 105.601 52.9162 105.715 52.7801C105.828 52.6441 105.63 52.4854 105.273 52.2529C104.79 51.9552 104.228 51.8127 103.663 51.8448C103.105 51.8666 102.569 52.0652 102.132 52.4117C101.781 52.6951 101.695 52.9389 101.781 52.9956Z" fill="#263238"/>
<path d="M112.665 53.1031C112.807 53.2164 113.47 52.5362 114.536 52.3831C115.602 52.23 116.463 52.6325 116.554 52.4851C116.645 52.3377 116.446 52.2074 116.067 52.0089C115.556 51.762 114.982 51.6788 114.423 51.7708C113.87 51.8534 113.358 52.1095 112.96 52.5021C112.671 52.8026 112.597 53.0577 112.665 53.1031Z" fill="#263238"/>
<path d="M108.912 60.9264C108.335 60.7817 107.744 60.7056 107.149 60.6996C106.871 60.6996 106.61 60.6429 106.554 60.4615C106.518 60.1795 106.567 59.8932 106.696 59.6395C106.922 58.9593 107.155 58.2506 107.404 57.508C108.379 54.4751 109.105 51.9865 108.952 51.9468C108.799 51.9071 107.937 54.3391 106.962 57.372C106.724 58.1146 106.503 58.8289 106.287 59.5091C106.13 59.8501 106.098 60.2354 106.197 60.5976C106.242 60.6925 106.308 60.7757 106.391 60.8406C106.473 60.9055 106.57 60.9504 106.673 60.9717C106.826 61.0046 106.982 61.0199 107.138 61.0171C107.731 61.0614 108.327 61.0309 108.912 60.9264Z" fill="#263238"/>
<path d="M108.805 73.6873C112.476 73.5582 116.039 72.4142 119.1 70.3823C119.1 70.3823 116.747 75.9039 108.895 75.5637L108.805 73.6873Z" fill="#FFE3CA"/>
<path d="M109.497 63.4943C109.688 63.2264 109.945 63.0118 110.242 62.8709C110.54 62.73 110.869 62.6675 111.197 62.6893C111.435 62.6996 111.669 62.7576 111.884 62.8599C112.099 62.9621 112.292 63.1065 112.45 63.2845C112.601 63.4573 112.695 63.6717 112.722 63.8994C112.748 64.1271 112.705 64.3575 112.597 64.56C112.436 64.7632 112.217 64.9126 111.969 64.9885C111.721 65.0644 111.456 65.0633 111.209 64.9852C110.691 64.8335 110.209 64.579 109.791 64.2369C109.667 64.1566 109.557 64.0549 109.468 63.9365C109.428 63.8769 109.407 63.8068 109.407 63.7352C109.407 63.6636 109.428 63.5936 109.468 63.534" fill="#FFE3CA"/>
<path d="M112.109 61.5327C111.934 61.5327 111.99 62.6949 111.032 63.5735C110.074 64.4522 108.827 64.3842 108.827 64.5486C108.827 64.6223 109.116 64.764 109.643 64.7527C110.326 64.7246 110.977 64.4601 111.486 64.0044C111.97 63.5652 112.267 62.956 112.314 62.3037C112.336 61.7878 112.189 61.5327 112.109 61.5327Z" fill="#263238"/>
<path d="M111.634 48.9138C111.787 49.1859 112.824 48.8854 114.1 48.8458C115.375 48.8061 116.429 48.9931 116.554 48.704C116.611 48.568 116.395 48.3242 115.942 48.1088C115.346 47.8503 114.699 47.7303 114.05 47.7578C113.401 47.7852 112.767 47.9595 112.195 48.2675C111.764 48.5226 111.571 48.7834 111.634 48.9138Z" fill="#263238"/>
<path d="M101.911 48.3754C102.116 48.6079 102.841 48.3187 103.731 48.2621C104.621 48.2054 105.386 48.3414 105.545 48.0807C105.613 47.9503 105.483 47.7122 105.143 47.5138C104.687 47.2539 104.163 47.141 103.64 47.1906C103.119 47.2268 102.621 47.425 102.218 47.7575C101.911 48.0013 101.821 48.2621 101.911 48.3754Z" fill="#263238"/>
<path d="M123.601 58.3018C123.572 57.7349 124.167 56.3177 124.734 56.2043C126.248 55.8869 129.014 55.8698 129.236 59.7531C129.536 65.0649 124.133 64.2882 124.133 64.1182C124.133 63.9481 123.697 60.303 123.601 58.3018Z" fill="#FFBF9D"/>
<path d="M125.647 62.015C125.647 62.015 125.738 62.0773 125.902 62.1397C126.124 62.2264 126.371 62.2264 126.594 62.1397C127.16 61.9016 127.563 61.0059 127.535 60.0308C127.524 59.5746 127.41 59.1267 127.2 58.7213C127.142 58.5572 127.044 58.4099 126.916 58.2923C126.787 58.1747 126.632 58.0904 126.463 58.0467C126.356 58.0254 126.245 58.0421 126.149 58.0938C126.053 58.1455 125.977 58.2291 125.936 58.3302C125.874 58.4832 125.936 58.5909 125.885 58.6023C125.834 58.6136 125.766 58.5172 125.794 58.2961C125.817 58.1623 125.885 58.0402 125.987 57.9503C126.125 57.8321 126.304 57.773 126.486 57.7859C126.707 57.8163 126.917 57.9033 127.094 58.0383C127.272 58.1734 127.412 58.352 127.501 58.5569C127.753 59.0039 127.891 59.5063 127.903 60.0195C127.931 61.0909 127.444 62.1227 126.684 62.3891C126.544 62.4375 126.395 62.454 126.248 62.4373C126.101 62.4207 125.959 62.3713 125.834 62.2927C125.658 62.1454 125.624 62.0263 125.647 62.015Z" fill="#FFE3CA"/>
<path d="M103.351 60.1835C103.197 60.1835 103.043 60.1835 102.892 60.1835C102.303 60.1603 101.726 60.01 101.201 59.7429C100.675 59.4757 100.214 59.0981 99.8481 58.6359C98.3458 56.6744 98.8843 53.6132 98.9127 53.4828V53.3468L99.0374 53.2844C99.1054 53.2504 100.642 52.5021 103.612 52.9159C106.583 53.3298 107.58 54.7186 107.58 54.7753L107.626 54.849V54.9341C107.626 55.0531 107.575 57.7685 105.925 59.2481C105.215 59.8715 104.296 60.2053 103.351 60.1835ZM99.4456 53.7209C99.3605 54.3388 99.1281 56.7425 100.302 58.2561C100.619 58.6548 101.019 58.9798 101.474 59.2089C101.929 59.4379 102.428 59.5654 102.938 59.5826C103.41 59.6471 103.892 59.6102 104.349 59.4743C104.806 59.3384 105.23 59.1067 105.591 58.7946C106.895 57.6098 107.082 55.4669 107.11 54.9908C106.889 54.7357 105.925 53.7663 103.561 53.4431C102.187 53.1965 100.774 53.2919 99.4456 53.7209Z" fill="#455A64"/>
<path d="M114.496 60.4332C113.515 60.4629 112.56 60.116 111.826 59.4638C110.125 57.9162 110.052 55.1044 110.052 54.9853V54.9003L110.097 54.8266C110.137 54.7643 111.112 53.33 114.23 52.8992C117.348 52.4683 118.895 53.2506 118.958 53.2847L119.094 53.3527V53.5057C119.094 53.6418 119.462 56.9411 117.83 58.9479C117.482 59.3728 117.052 59.7218 116.564 59.9733C116.077 60.2249 115.542 60.3737 114.995 60.4105C114.819 60.4275 114.661 60.4332 114.496 60.4332ZM110.624 55.076C110.624 55.5636 110.84 57.8141 112.206 59.0443C112.968 59.6448 113.931 59.9322 114.898 59.8479C115.865 59.7636 116.763 59.3141 117.41 58.5908C118.703 57.0092 118.612 54.4071 118.544 53.7325C117.166 53.2973 115.703 53.2039 114.281 53.4604C111.843 53.8062 110.851 54.8096 110.624 55.076Z" fill="#455A64"/>
<path d="M110.284 55.1328C109.896 54.7737 109.407 54.5422 108.884 54.4695C108.653 54.44 108.419 54.4778 108.21 54.5784C108.001 54.679 107.825 54.8381 107.705 55.0364L107.194 54.7926C107.363 54.4876 107.618 54.2395 107.928 54.0801C108.238 53.9206 108.588 53.8568 108.935 53.8969C109.569 53.9813 110.163 54.2583 110.635 54.6906L110.284 55.1328Z" fill="#455A64"/>
<path d="M125.897 41.204C124.978 39.7358 123.306 38.9364 121.719 38.2448C118.283 36.7085 114.616 35.1382 110.88 35.6484C107.779 36.0679 105.063 37.8763 102.473 39.6167L102.654 42.7913C103.149 43.7857 104.012 44.5486 105.059 44.9188C106.106 45.2891 107.256 45.2377 108.266 44.7755C108.545 45.1958 108.937 45.5289 109.396 45.7362C109.856 45.9436 110.365 46.0169 110.864 45.9475C111.364 45.8782 111.834 45.6691 112.22 45.3444C112.605 45.0197 112.892 44.5925 113.045 44.1122C113.669 45.0165 114.547 45.7149 115.569 46.1186C116.59 46.5224 117.709 46.6133 118.782 46.3798C118.421 46.8551 118.16 47.3981 118.012 47.9766C117.865 48.555 117.836 49.1571 117.926 49.7471C118.181 50.9093 119.27 51.9297 120.455 51.8106C120.279 53.0635 120.109 54.3673 120.511 55.5691C120.914 56.771 122.065 57.8367 123.346 57.6553C123.757 57.5777 124.145 57.4071 124.48 57.1565C124.815 56.906 125.088 56.5821 125.279 56.2097C125.656 55.4629 125.896 54.6546 125.987 53.8231C126.384 51.3911 126.554 48.9365 126.696 46.4818C126.781 44.7074 126.866 42.746 125.897 41.204Z" fill="#263238"/>
<path d="M136.452 57.4455C136.531 56.8289 136.563 56.2074 136.548 55.5861C136.462 53.935 135.837 52.3578 134.768 51.0962L134.717 51.0396V50.9659C134.977 50.3482 135.091 49.6786 135.048 49.0098C135.006 48.3409 134.809 47.691 134.474 47.111C134.08 46.4682 133.522 45.9422 132.858 45.5874C132.193 45.2326 131.445 45.0618 130.692 45.0928C130.374 45.1096 130.059 45.159 129.751 45.2402L129.536 45.3026L129.559 45.0928C129.633 44.4811 129.543 43.8606 129.298 43.2951C129.053 42.7295 128.662 42.2394 128.165 41.8752C127.668 41.5109 127.083 41.2856 126.47 41.2224C125.857 41.1592 125.238 41.2605 124.678 41.5157L124.468 41.6064L124.502 41.3797C124.571 40.9175 124.525 40.4453 124.368 40.0051C124.211 39.565 123.947 39.1706 123.6 38.857C123.329 38.6178 123.013 38.4353 122.67 38.3204C122.328 38.2055 121.965 38.1605 121.605 38.1881C121.135 38.2168 120.678 38.3567 120.273 38.5962C119.995 38.7663 119.865 38.891 119.853 38.874C119.842 38.857 119.853 38.8343 119.938 38.7776C120.028 38.6869 120.127 38.6053 120.233 38.5339C120.638 38.2583 121.106 38.0906 121.594 38.0463C121.976 38.0061 122.363 38.0441 122.73 38.1581C123.098 38.2722 123.438 38.4598 123.731 38.7096C124.112 39.0413 124.404 39.4628 124.581 39.9359C124.759 40.4091 124.815 40.9189 124.746 41.4194L124.576 41.289C125.179 41.0087 125.847 40.8951 126.51 40.9601C127.172 41.025 127.805 41.2661 128.343 41.6582C128.881 42.0504 129.305 42.5794 129.569 43.1904C129.834 43.8013 129.93 44.4719 129.848 45.1325L129.661 44.9681C129.992 44.8781 130.332 44.8249 130.675 44.8094C131.489 44.7737 132.298 44.9581 133.016 45.3432C133.735 45.7283 134.336 46.2998 134.757 46.9976C135.111 47.6161 135.316 48.3086 135.355 49.0201C135.395 49.7316 135.267 50.4425 134.984 51.0962V50.9659C136.072 52.2723 136.685 53.9089 136.724 55.6087C136.733 56.0743 136.695 56.5396 136.611 56.9976C136.57 57.1508 136.516 57.3005 136.452 57.4455Z" fill="#455A64"/>
<path d="M118.939 53.2792L118.74 53.8101L125.546 56.3588L125.745 55.8279L118.939 53.2792Z" fill="#455A64"/>
<path d="M125.397 55.5015L124.49 48.4266L125.051 48.3529L125.885 54.8609L127.183 54.6795L126.146 47.2021L126.707 47.1284L127.824 55.1613L125.397 55.5015Z" fill="#E0E0E0"/>
<path d="M124.457 49.0275C124.457 49.0275 123.164 38.3982 119.655 35.5524L118.221 33.9991C119.596 33.8036 120.998 34.0518 122.223 34.7077C124.315 35.8075 125.709 40.5184 126.758 47.1794L124.457 49.0275Z" fill="#455A64"/>
<path d="M127.506 65.7396C131.273 65.7396 134.326 62.6863 134.326 58.9198C134.326 55.1534 131.273 52.1001 127.506 52.1001C123.74 52.1001 120.687 55.1534 120.687 58.9198C120.687 62.6863 123.74 65.7396 127.506 65.7396Z" fill="#455A64"/>
<path d="M131.628 58.9196C131.594 58.9196 131.628 58.5511 131.446 57.9275C131.202 57.0458 130.671 56.2701 129.938 55.7223C129.41 55.3379 128.795 55.0899 128.148 55.0002C127.501 54.9105 126.842 54.982 126.229 55.2083C125.616 55.4346 125.069 55.8087 124.635 56.2974C124.202 56.7861 123.895 57.3743 123.744 58.0097C123.592 58.6451 123.6 59.3082 123.766 59.94C123.932 60.5718 124.251 61.1529 124.696 61.6315C125.141 62.1102 125.697 62.4717 126.314 62.6839C126.932 62.8962 127.593 62.9526 128.238 62.8482C128.854 62.7372 129.436 62.4849 129.938 62.1112C130.67 61.5642 131.2 60.791 131.446 59.9116C131.611 59.2824 131.594 58.9139 131.628 58.9196C131.642 59.0059 131.642 59.094 131.628 59.1804C131.629 59.4363 131.598 59.6915 131.537 59.94C131.327 60.8684 130.8 61.6944 130.046 62.2756C129.528 62.6835 128.919 62.9615 128.272 63.0863C127.526 63.2314 126.754 63.1726 126.038 62.9162C125.243 62.6372 124.551 62.1232 124.054 61.4423C123.513 60.7125 123.221 59.8281 123.221 58.9196C123.221 58.0111 123.513 57.1266 124.054 56.3969C124.551 55.7144 125.242 55.1985 126.038 54.9173C126.755 54.6636 127.525 54.6049 128.272 54.7472C129.062 54.9015 129.791 55.2811 130.37 55.8404C130.95 56.3997 131.355 57.1147 131.537 57.8992C131.598 58.1458 131.629 58.399 131.628 58.6531C131.643 58.7413 131.643 58.8314 131.628 58.9196Z" fill="#263238"/>
<path d="M81.7813 111.658C81.7813 111.658 79.5137 123.273 79.5137 128.528C79.5137 133.784 83.8901 137.468 88.2722 135.898C92.6543 134.328 98.1362 127.236 100.891 121.527L96.3561 116.794L92.3255 119.163L93.5897 114.872L81.7813 111.658Z" fill="#FFBF9D"/>
<path d="M96.3445 116.788C96.1708 116.938 95.9806 117.067 95.7777 117.174L94.2187 118.132C92.8922 118.925 91.0668 120.025 88.9636 121.108C88.4307 121.374 87.9148 121.624 87.3819 121.828C86.8491 122.032 86.3388 122.168 85.8513 122.315C84.987 122.545 84.159 122.894 83.391 123.353C82.8789 123.668 82.4386 124.087 82.0985 124.583C81.866 124.934 81.7867 125.15 81.764 125.15C81.7413 125.15 81.764 125.087 81.798 124.974C81.8505 124.815 81.9189 124.661 82.0021 124.515C82.3198 123.978 82.7537 123.519 83.272 123.171C84.0432 122.673 84.8837 122.291 85.7663 122.038C86.2538 121.879 86.7697 121.731 87.2799 121.539C87.8074 121.327 88.3239 121.088 88.8275 120.824C90.9194 119.753 92.7618 118.682 94.1166 117.933C94.7856 117.559 95.3355 117.259 95.721 117.055C95.9186 116.943 96.1276 116.854 96.3445 116.788Z" fill="#FFE3CA"/>
<path d="M110.965 106.318C110.965 106.318 112.008 104.793 113.051 104.747C114.094 104.702 114.259 106.397 113.255 107.763C112.581 108.666 111.822 109.501 110.988 110.258L110.965 106.318Z" fill="#FFBF9D"/>
<path d="M100.902 121.522L103.612 118.597C103.612 118.597 107.109 116.425 107.529 113.495C107.948 110.564 108.663 105.898 108.663 105.898L99.1559 104.929L97.6423 112.621L97.4156 115.921L96.3271 116.794L100.902 121.522Z" fill="#FFBF9D"/>
<path d="M100.148 98.1655L100.874 115.892L110.659 116.085L112.932 98.8004L100.148 98.1655Z" fill="#455A64"/>
<path d="M99.5129 114.713C99.5129 114.713 103.923 114.577 104.201 111.919C104.201 111.919 106.072 112.055 106.072 110.87C106.072 109.815 104.887 109.441 104.887 109.441C104.887 109.441 106.021 108.92 105.8 107.996C105.465 106.646 100.482 105.632 100.482 105.632L100.369 104.078C100.369 104.078 102.636 103.954 102.54 102.752C102.461 101.686 101.146 101.703 100.635 101.618C100.363 101.584 97.5344 101.238 97.234 103.103C97.2061 103.294 97.2276 103.49 97.2963 103.67L97.8632 105.371C97.8632 105.371 96.1625 106.17 97.0185 108.37L97.3247 108.903C97.3247 108.903 95.9811 111.136 96.4687 113.166C96.7697 114.341 96.7283 115.579 96.3496 116.731" fill="#FFBF9D"/>
<path d="M96.3447 116.788C96.3447 116.788 96.3957 116.601 96.4694 116.221C96.5679 115.698 96.6078 115.166 96.5884 114.634C96.5704 114.253 96.523 113.874 96.4467 113.5C96.3237 113.052 96.2645 112.588 96.271 112.123C96.3309 110.987 96.6551 109.88 97.2177 108.891V109.005C97.1213 108.846 97.0193 108.659 96.9116 108.478C96.68 107.942 96.6091 107.352 96.7075 106.777C96.7735 106.466 96.9066 106.172 97.0975 105.918C97.2885 105.663 97.5326 105.453 97.8129 105.303L97.7449 105.462L97.3821 104.424L97.2007 103.897C97.1211 103.706 97.0751 103.503 97.0646 103.296C97.081 102.87 97.257 102.465 97.5578 102.162C97.879 101.876 98.2702 101.681 98.6916 101.595C99.5272 101.44 100.384 101.44 101.22 101.595C101.689 101.62 102.131 101.823 102.456 102.162C102.604 102.362 102.686 102.605 102.688 102.854C102.691 102.981 102.668 103.108 102.621 103.227C102.574 103.346 102.505 103.454 102.416 103.546C102.146 103.819 101.807 104.015 101.435 104.112C101.09 104.216 100.735 104.281 100.375 104.305L100.517 104.146C100.551 104.668 100.591 105.19 100.63 105.7L100.511 105.569C101.863 105.842 103.183 106.252 104.451 106.794C104.754 106.929 105.043 107.094 105.313 107.287C105.61 107.472 105.831 107.758 105.937 108.092C105.971 108.261 105.966 108.436 105.923 108.603C105.88 108.77 105.799 108.925 105.687 109.056C105.48 109.295 105.225 109.488 104.939 109.623V109.385C105.343 109.523 105.695 109.782 105.948 110.127C106.07 110.297 106.151 110.494 106.182 110.701C106.214 110.908 106.196 111.119 106.129 111.318C106.043 111.493 105.918 111.646 105.762 111.764C105.607 111.882 105.426 111.962 105.234 111.998C104.898 112.081 104.552 112.111 104.208 112.089L104.315 111.998C104.249 112.451 104.065 112.879 103.782 113.239C103.522 113.542 103.209 113.796 102.858 113.988C102.306 114.287 101.712 114.499 101.095 114.617C100.713 114.701 100.324 114.756 99.9331 114.781C99.7977 114.8 99.6604 114.8 99.525 114.781L99.9275 114.725C100.309 114.673 100.687 114.601 101.061 114.509C101.657 114.373 102.23 114.152 102.762 113.852C103.089 113.662 103.381 113.417 103.624 113.126C103.879 112.797 104.042 112.406 104.094 111.992V111.902H104.185C104.507 111.917 104.83 111.884 105.143 111.805C105.302 111.776 105.452 111.71 105.58 111.611C105.708 111.513 105.811 111.385 105.88 111.238C105.931 111.076 105.943 110.905 105.915 110.738C105.888 110.57 105.821 110.412 105.721 110.275C105.495 109.977 105.185 109.754 104.831 109.634L104.548 109.532L104.814 109.396C105.285 109.163 105.783 108.687 105.653 108.137C105.556 107.871 105.372 107.646 105.132 107.497C104.873 107.32 104.6 107.167 104.315 107.038C103.064 106.511 101.763 106.112 100.432 105.847H100.324V105.739C100.29 105.229 100.251 104.708 100.211 104.186V104.039H100.358C100.694 104.014 101.026 103.955 101.35 103.863C101.667 103.787 101.959 103.628 102.195 103.404C102.313 103.264 102.378 103.088 102.378 102.905C102.378 102.722 102.313 102.545 102.195 102.406C101.917 102.129 101.544 101.967 101.152 101.953C100.352 101.802 99.5312 101.802 98.7313 101.953C98.3629 102.028 98.0219 102.203 97.7449 102.457C97.4963 102.709 97.3491 103.044 97.3311 103.398C97.3872 103.758 97.4862 104.11 97.6259 104.447C97.7506 104.798 97.8696 105.144 97.983 105.484L98.0227 105.592L97.915 105.649C97.6697 105.78 97.4559 105.963 97.2885 106.185C97.1211 106.408 97.0041 106.664 96.9456 106.936C96.8543 107.459 96.9153 107.999 97.1213 108.489C97.2234 108.676 97.3311 108.857 97.4218 109.022L97.4558 109.078L97.4218 109.141C96.8625 110.091 96.5326 111.159 96.4581 112.259C96.4447 112.711 96.4943 113.163 96.6055 113.602C96.6782 113.986 96.718 114.374 96.7245 114.764C96.7318 115.307 96.6689 115.848 96.5374 116.374C96.5037 116.511 96.4621 116.645 96.4127 116.777C96.373 116.749 96.3504 116.794 96.3447 116.788Z" fill="#FFE3CA"/>
<path d="M112.904 97.4289L112.53 95.7056H100.687L100.268 97.3609L99.0488 97.48L99.0772 98.8915L113.828 99.0389L113.93 97.4289H112.904Z" fill="#263238"/>
<path d="M104.173 111.918C103.837 112.001 103.491 112.027 103.147 111.998L100.686 111.947C100.241 111.915 99.7939 111.915 99.3485 111.947C98.9984 111.978 98.6596 112.086 98.3564 112.264C97.8632 112.599 97.7385 113.013 97.6875 112.979C97.7112 112.799 97.7743 112.626 97.8723 112.473C97.9703 112.32 98.1007 112.191 98.2544 112.094C98.5726 111.867 98.9432 111.725 99.3315 111.68C99.7886 111.627 100.25 111.613 100.709 111.641C101.673 111.641 102.546 111.726 103.175 111.777C103.512 111.786 103.847 111.833 104.173 111.918Z" fill="#FFE3CA"/>
<path d="M97.3193 108.959C97.2853 108.959 97.5517 108.523 98.2773 108.262C98.7095 108.157 99.1619 108.171 99.5868 108.302C100.029 108.392 100.573 108.443 101.112 108.551C102.2 108.75 103.164 108.982 103.867 109.146C104.257 109.204 104.638 109.311 105.001 109.464C104.608 109.476 104.216 109.437 103.833 109.35C103.119 109.243 102.132 109.033 101.061 108.84C100.522 108.733 100.018 108.676 99.5302 108.562C99.1471 108.434 98.7384 108.401 98.3397 108.466C97.9788 108.584 97.6356 108.75 97.3193 108.959Z" fill="#FFE3CA"/>
<path d="M100.903 105.779C100.393 105.764 99.8852 105.71 99.3833 105.62C98.8689 105.622 98.3564 105.557 97.8584 105.428C98.3598 105.266 98.8935 105.231 99.4117 105.326C99.9431 105.322 100.463 105.48 100.903 105.779Z" fill="#FFE3CA"/>
<path d="M100.732 103.925C100.766 103.999 100.245 104.277 99.5417 104.401C99.1193 104.524 98.6689 104.51 98.2549 104.362C98.653 104.221 99.0691 104.137 99.4907 104.112C99.8935 103.991 100.312 103.928 100.732 103.925Z" fill="#FFE3CA"/>
<path d="M101.821 118.863C101.775 118.082 101.56 117.32 101.192 116.63C100.733 115.995 100.141 115.468 99.457 115.088C99.457 115.054 99.7462 115.088 100.154 115.286C100.682 115.559 101.127 115.969 101.442 116.472C101.757 116.976 101.931 117.555 101.946 118.149C101.946 118.602 101.855 118.869 101.821 118.863Z" fill="#FFE3CA"/>
<path d="M113.227 97.3661C113.227 97.4455 110.279 97.5135 106.645 97.5135C103.011 97.5135 100.058 97.4455 100.058 97.3661C100.058 97.2868 103.005 97.2188 106.645 97.2188C110.284 97.2188 113.227 97.2811 113.227 97.3661Z" fill="#455A64"/>
<path d="M211.095 173.977H221.599C222.297 173.978 222.966 174.256 223.46 174.751C223.953 175.245 224.23 175.914 224.23 176.613V176.817C224.23 177.516 223.952 178.186 223.458 178.681C222.963 179.175 222.293 179.453 221.594 179.453H211.095V173.982V173.977Z" fill="#263238"/>
<path d="M157.63 78.0007L162.647 76.3C166.168 78.2512 170.292 78.8148 174.207 77.8798C178.122 76.9448 181.546 74.5789 183.806 71.2473C186.065 67.9157 186.997 63.8595 186.417 59.876C185.837 55.8925 183.788 52.2701 180.673 49.7208C177.557 47.1715 173.601 45.8799 169.581 46.0998C165.562 46.3197 161.77 48.0353 158.952 50.9093C156.133 53.7832 154.492 57.6077 154.35 61.6306C154.208 65.6536 155.576 69.584 158.186 72.6492L157.63 78.0007Z" fill="white"/>
<path d="M157.63 78.0005C157.63 78.0005 157.63 77.8928 157.63 77.6661C157.63 77.4393 157.681 77.0992 157.721 76.6513C157.806 75.7216 157.93 74.3837 158.089 72.6264C158.091 72.6093 158.098 72.5934 158.111 72.5819C158.124 72.5703 158.14 72.5639 158.157 72.564H158.191L158.106 72.6604C156.342 70.6153 155.121 68.1587 154.557 65.5175C153.804 61.8654 154.32 58.0655 156.02 54.7465C157.63 51.6187 160.219 49.1031 163.392 47.5833C166.564 46.0634 170.147 45.6226 173.594 46.3281C176.155 46.8336 178.552 47.9629 180.572 49.6161C180.827 49.8315 181.088 50.0356 181.337 50.2567L182.035 50.9596L182.386 51.3054L182.698 51.6853L183.322 52.4449C185.601 55.5049 186.746 59.2628 186.559 63.0742C186.428 65.4239 185.786 67.7167 184.676 69.7919C183.65 71.7103 182.251 73.4044 180.561 74.7749C177.653 77.1289 174.018 78.4011 170.277 78.3747C167.578 78.3555 164.928 77.6534 162.573 76.3339H162.624L158.854 77.581L157.902 77.8928L157.585 77.9892L157.919 77.8645L158.883 77.5187L162.585 76.2148C162.592 76.2108 162.601 76.2088 162.61 76.2088C162.619 76.2088 162.628 76.2108 162.636 76.2148C165.838 77.9623 169.541 78.5615 173.131 77.9131C176.721 77.2646 179.981 75.4075 182.37 72.6501C184.758 69.8928 186.131 66.4013 186.261 62.7556C186.391 59.1099 185.27 55.5296 183.083 52.6093L182.471 51.8667L182.165 51.4925L181.825 51.1524L181.133 50.4608C180.895 50.2454 180.634 50.0469 180.385 49.8372C178.417 48.2163 176.081 47.1046 173.582 46.6002C171.42 46.1591 169.189 46.1721 167.032 46.6386C164.874 47.1051 162.838 48.0147 161.05 49.3099C159.263 50.6051 157.765 52.2576 156.65 54.1625C155.535 56.0675 154.828 58.1833 154.574 60.3758C154.364 62.0762 154.433 63.7996 154.778 65.4778C155.322 68.0935 156.509 70.5327 158.231 72.5754C158.237 72.5812 158.242 72.5882 158.245 72.596C158.249 72.6038 158.25 72.6122 158.25 72.6207C158.25 72.6292 158.249 72.6376 158.245 72.6454C158.242 72.6532 158.237 72.6602 158.231 72.6661C158.22 72.6753 158.206 72.6803 158.191 72.6803C158.177 72.6803 158.163 72.6753 158.151 72.6661L158.248 72.6207L157.806 76.589L157.687 77.6264C157.647 77.8758 157.63 78.0005 157.63 78.0005Z" fill="#263238"/>
<path d="M165.067 59.8148V65.1719C165.068 65.2607 165.092 65.3477 165.138 65.4236C165.184 65.4995 165.25 65.5615 165.328 65.6028L168.35 67.1844C168.424 67.2234 168.507 67.2426 168.591 67.2401C168.675 67.2377 168.756 67.2136 168.828 67.1703C168.9 67.127 168.96 67.0658 169.001 66.9928C169.042 66.9198 169.064 66.8374 169.064 66.7535V57.6322C169.064 57.5426 169.039 57.4547 168.993 57.3782C168.946 57.3017 168.879 57.2396 168.8 57.1986C168.72 57.1576 168.63 57.1393 168.541 57.1458C168.452 57.1523 168.366 57.1833 168.293 57.2354L165.271 59.4236C165.208 59.4675 165.157 59.526 165.121 59.5941C165.086 59.6622 165.067 59.7379 165.067 59.8148Z" fill="#263238"/>
<path d="M171.915 67.6606C171.791 67.6605 171.67 67.6197 171.572 67.5444C171.473 67.469 171.402 67.3634 171.369 67.2436C171.336 67.1238 171.343 66.9966 171.39 66.8814C171.436 66.7662 171.519 66.6695 171.626 66.6062C172.325 66.1934 172.915 65.6202 173.347 64.9339C173.779 64.2476 174.042 63.468 174.113 62.6599C174.184 61.8519 174.061 61.0385 173.755 60.2873C173.449 59.5362 172.968 58.8689 172.352 58.3408C172.293 58.2929 172.244 58.2336 172.209 58.1665C172.173 58.0994 172.152 58.0258 172.145 57.9502C172.139 57.8745 172.147 57.7984 172.171 57.7262C172.194 57.654 172.232 57.5872 172.282 57.5299C172.332 57.4725 172.392 57.4258 172.46 57.3923C172.529 57.3589 172.603 57.3395 172.679 57.3353C172.754 57.3311 172.83 57.3422 172.902 57.3679C172.973 57.3936 173.039 57.4333 173.095 57.4848C173.845 58.1306 174.43 58.9458 174.803 59.8628C175.176 60.7798 175.325 61.7724 175.238 62.7585C175.151 63.7445 174.83 64.6957 174.303 65.5333C173.775 66.371 173.056 67.071 172.204 67.5755C172.118 67.6311 172.018 67.6606 171.915 67.6606Z" fill="#263238"/>
<path d="M170.226 66.0054C170.103 66.0045 169.984 65.9637 169.886 65.8891C169.788 65.8146 169.718 65.7102 169.684 65.5919C169.651 65.4735 169.657 65.3475 169.702 65.2329C169.746 65.1183 169.827 65.0214 169.931 64.9566C170.326 64.7208 170.659 64.3947 170.904 64.005C171.148 63.6154 171.297 63.1734 171.337 62.7153C171.377 62.2572 171.309 61.7961 171.136 61.3697C170.964 60.9434 170.693 60.564 170.345 60.2627C170.286 60.2148 170.238 60.1555 170.202 60.0884C170.167 60.0213 170.145 59.9477 170.139 59.8721C170.132 59.7964 170.141 59.7202 170.164 59.648C170.188 59.5758 170.225 59.5091 170.275 59.4518C170.325 59.3944 170.386 59.3476 170.454 59.3142C170.522 59.2808 170.596 59.2614 170.672 59.2572C170.748 59.253 170.824 59.2641 170.895 59.2898C170.967 59.3154 171.032 59.3552 171.088 59.4067C171.57 59.8249 171.947 60.3514 172.186 60.9431C172.426 61.5348 172.522 62.1749 172.467 62.8109C172.412 63.4469 172.206 64.0608 171.868 64.6023C171.53 65.1437 171.068 65.5973 170.521 65.926C170.432 65.9789 170.33 66.0064 170.226 66.0054Z" fill="#263238"/>
<path d="M173.764 69.1909C173.665 69.1909 173.569 69.1653 173.483 69.1166C173.398 69.0679 173.326 68.9977 173.276 68.9131C173.199 68.7845 173.176 68.6305 173.212 68.485C173.248 68.3394 173.34 68.2141 173.469 68.1365C174.424 67.5688 175.23 66.7823 175.822 65.8418C176.413 64.9013 176.773 63.8338 176.871 62.7271C176.969 61.6205 176.802 60.5064 176.385 59.4766C175.968 58.4469 175.313 57.5309 174.472 56.8042C174.364 56.7043 174.299 56.5662 174.291 56.4191C174.283 56.272 174.332 56.1275 174.429 56.0162C174.525 55.9049 174.661 55.8356 174.808 55.8229C174.955 55.8102 175.101 55.8552 175.215 55.9482C176.19 56.7908 176.952 57.8527 177.437 59.0466C177.922 60.2405 178.118 61.5325 178.007 62.8165C177.896 64.1005 177.483 65.3401 176.8 66.4333C176.118 67.5266 175.186 68.4425 174.081 69.1059C173.985 69.1632 173.875 69.1926 173.764 69.1909Z" fill="#263238"/>
<path d="M163.815 59.5654H162.38C162.052 59.5654 161.785 59.8319 161.785 60.1607V64.8432C161.785 65.172 162.052 65.4385 162.38 65.4385H163.815C164.143 65.4385 164.41 65.172 164.41 64.8432V60.1607C164.41 59.8319 164.143 59.5654 163.815 59.5654Z" fill="#263238"/>
<path d="M30.1288 4.12547C29.3996 4.75107 28.7192 5.43143 28.0936 6.16062C26.199 8.36646 25.1772 11.1894 25.2211 14.0969C25.2649 17.0044 26.3714 19.7953 28.3317 21.943C29.6028 23.3716 31.0639 24.619 32.6741 25.6505C37.8669 28.9158 41.7444 32.4532 43.2921 34.4487L49.4372 32.9351C49.4372 32.9351 48.8703 28.4566 49.647 25.5994C50.4236 22.7423 53.7173 13.9894 53.2071 8.52458C52.8783 5.00416 49.2841 0.412313 42.1299 0.0211551C37.7518 -0.196533 33.4567 1.27234 30.1288 4.12547Z" fill="#00BE9B"/>
<path d="M45.6562 40.9794L51.2175 39.6245L51.5746 44.9136L48.0599 46.0304L45.6562 40.9794Z" fill="#455A64"/>
<path d="M45.9504 40.9396C45.4264 39.8893 44.9571 38.8127 44.5445 37.7139C43.8075 35.9169 43.2463 34.4429 43.2916 34.4259C43.337 34.4089 43.9662 35.8545 44.7032 37.6516C45.4402 39.4486 45.9957 40.9226 45.9504 40.9396Z" fill="#263238"/>
<path d="M50.8431 39.6867C50.7978 39.6867 50.435 38.1221 50.0381 36.1663C49.6413 34.2105 49.3579 32.6232 49.4032 32.6119C49.4486 32.6005 49.8114 34.1765 50.2082 36.1323C50.605 38.0881 50.8885 39.6754 50.8431 39.6867Z" fill="#263238"/>
<g opacity="0.4">
<path d="M31.4836 3.11619C31.3248 3.27493 31.4382 7.53798 31.9994 9.99263C33.8872 18.2353 38.5698 23.6945 43.3373 30.6786C44.0176 31.6764 45.3101 33.9893 45.2761 33.9383C46.2685 33.7662 47.2478 33.5257 48.207 33.2183C48.207 33.2183 48.0823 30.1911 47.8612 28.8022C46.9995 23.2523 47.0222 18.2976 45.6503 12.8441C44.2784 7.39058 43.2126 2.43591 38.0142 0.310059C38.0085 0.310059 33.2466 1.33615 31.4836 3.11619Z" fill="black"/>
</g>
<path d="M53.7284 9.06287L53.564 8.98917C53.462 8.94382 53.3146 8.85879 53.1105 8.77375C51.6207 8.11759 49.9732 7.90502 48.3656 8.16151C47.1134 8.34907 45.9229 8.82875 44.8905 9.56174H44.8565C43.7372 9.32428 42.5989 9.18768 41.4551 9.15358C40.2045 9.10741 38.9549 9.27223 37.759 9.64112C36.5704 10.0226 35.4886 10.6791 34.6014 11.5572C33.787 12.353 33.215 13.3633 32.9517 14.4711V14.5334H32.8553C31.7302 14.5445 30.6296 14.8637 29.6731 15.4564C28.7167 16.049 27.9409 16.8925 27.4302 17.8951C27.138 18.4614 26.9353 19.0695 26.8293 19.6978C26.7896 19.9132 26.7669 20.0833 26.7556 20.1967C26.7442 20.3101 26.7556 20.3724 26.7556 20.3724C26.7481 20.3141 26.7481 20.255 26.7556 20.1967C26.7611 20.0259 26.7762 19.8556 26.8009 19.6865C26.8907 19.0497 27.0821 18.4315 27.3678 17.8554C27.807 16.9563 28.4589 16.178 29.2669 15.5878C30.3164 14.8299 31.5724 14.4106 32.8667 14.386L32.793 14.4484C33.0623 13.3054 33.6523 12.263 34.4937 11.4438C35.397 10.5449 36.5004 9.87266 37.7136 9.48237C38.9283 9.10989 40.1968 8.9432 41.4665 8.98917C42.6199 9.03153 43.7674 9.17379 44.8962 9.41435H44.8338C45.8906 8.67894 47.1069 8.20487 48.3826 8.03112C49.366 7.88436 50.3676 7.91123 51.3418 8.11049C51.9711 8.23942 52.5823 8.44503 53.1615 8.72273C53.3656 8.81344 53.513 8.90982 53.6094 8.96084C53.6525 8.99065 53.6924 9.02484 53.7284 9.06287Z" fill="#263238"/>
<path d="M50.9676 21.4668C50.6193 21.2063 50.225 21.014 49.8054 20.8999C49.3203 20.7713 48.8122 20.7557 48.3201 20.8546C47.6824 20.9713 47.0996 21.2915 46.6591 21.7673L46.6138 21.8183L46.5571 21.7729C45.9397 21.2789 45.2125 20.9406 44.4369 20.7865C43.5642 20.6105 42.6597 20.6792 41.8235 20.9849C41.1625 21.233 40.5624 21.62 40.0637 22.1197C39.5649 22.6194 39.1792 23.2203 38.9324 23.8818V23.9328H38.87C38.1205 23.8685 37.3705 24.0496 36.7328 24.4487C36.2297 24.7495 35.8014 25.1604 35.48 25.6505C35.199 26.0869 35.0064 26.5742 34.9131 27.0847C34.9131 27.0847 34.9131 27.0451 34.9131 26.977C34.9131 26.909 34.9131 26.807 34.9584 26.6766C35.0417 26.2971 35.1893 25.9347 35.3949 25.6051C35.7123 25.0912 36.1451 24.6583 36.6591 24.341C37.3197 23.9182 38.0989 23.7194 38.8813 23.7741L38.802 23.8251C39.0511 23.1388 39.4462 22.5147 39.9601 21.9959C40.4739 21.4772 41.0942 21.0762 41.7782 20.8205C42.6439 20.5053 43.5806 20.4385 44.4823 20.6278C45.283 20.7887 46.0322 21.1429 46.6648 21.6596H46.5628C47.0279 21.1677 47.641 20.8412 48.3088 20.7299C48.8184 20.6395 49.3419 20.6667 49.8394 20.8092C50.1557 20.9038 50.4544 21.0494 50.7238 21.2401C50.8145 21.3081 50.8768 21.3704 50.9222 21.4045C50.9675 21.4385 50.9676 21.4668 50.9676 21.4668Z" fill="#263238"/>
<path d="M51.376 41.2511C51.376 41.2511 51.2853 41.2511 51.1549 41.2851C50.9709 41.3689 50.821 41.5128 50.7297 41.6932C50.6539 41.8244 50.5604 41.9446 50.4519 42.0504C50.3822 42.1126 50.3005 42.1599 50.2117 42.1891C50.1229 42.2184 50.0291 42.229 49.936 42.2204C49.5506 42.1921 49.2048 41.9653 48.8023 41.9257C48.7165 41.9154 48.6295 41.9249 48.548 41.9534C48.4664 41.9819 48.3925 42.0286 48.3317 42.0901C48.2115 42.2239 48.1034 42.368 48.0086 42.5209C47.9143 42.6708 47.7886 42.7984 47.6401 42.895C47.5033 42.9719 47.3492 43.0129 47.1923 43.0141C46.9684 43.0239 46.748 42.9558 46.5687 42.8214C46.444 42.725 46.41 42.6456 46.4156 42.64C46.4213 42.6343 46.4837 42.6966 46.6084 42.7703C46.7817 42.8647 46.9783 42.9079 47.1753 42.895C47.309 42.8834 47.4386 42.8428 47.5551 42.776C47.6825 42.6866 47.7889 42.5705 47.8669 42.4359C47.9626 42.2701 48.0746 42.1144 48.2013 41.971C48.2803 41.8926 48.3756 41.8326 48.4805 41.7953C48.5854 41.7581 48.6972 41.7445 48.8079 41.7556C49.2501 41.8066 49.5789 42.039 49.9077 42.0617C50.0559 42.078 50.2046 42.0352 50.3215 41.9427C50.4226 41.8477 50.512 41.7412 50.588 41.6252C50.7017 41.4319 50.8837 41.2883 51.0982 41.2227C51.2966 41.1887 51.3816 41.2454 51.376 41.2511Z" fill="#263238"/>
<path d="M51.2628 40.2646C50.4 40.567 49.5197 40.8169 48.6267 41.013C47.7452 41.2558 46.8497 41.4451 45.9453 41.5798C46.8078 41.2766 47.6882 41.0267 48.5814 40.8315C49.4629 40.5887 50.3584 40.3994 51.2628 40.2646Z" fill="#263238"/>
<path d="M51.3703 41.875C51.3703 41.875 51.3419 41.943 51.2852 42.0677C51.2579 42.1471 51.2257 42.2247 51.1889 42.3002C51.1367 42.4065 51.0588 42.4981 50.9621 42.5666C50.7277 42.7589 50.4374 42.8703 50.1345 42.8841C49.9526 42.891 49.7718 42.8541 49.6072 42.7764C49.4564 42.6938 49.294 42.6345 49.1254 42.6006C48.9612 42.6064 48.8001 42.6468 48.6526 42.7191C48.5051 42.7913 48.3745 42.8939 48.2694 43.0201C48.0743 43.2415 47.8348 43.4192 47.5664 43.5417C47.3739 43.6204 47.1581 43.6204 46.9655 43.5417C46.8295 43.4793 46.7898 43.4056 46.7954 43.3999C46.8011 43.3943 46.8635 43.4453 46.9882 43.4793C47.1657 43.5268 47.3542 43.5107 47.5211 43.434C47.7666 43.3037 47.9843 43.1265 48.1617 42.9124C48.2784 42.7653 48.4265 42.6462 48.5952 42.5638C48.7639 42.4814 48.949 42.4378 49.1367 42.4362C49.3356 42.4664 49.5275 42.5317 49.7036 42.629C49.8451 42.697 50.0002 42.7319 50.1571 42.731C50.4319 42.7239 50.6983 42.6351 50.9224 42.4759C51.07 42.3643 51.1854 42.2157 51.2569 42.0451C51.3023 41.926 51.3589 41.875 51.3703 41.875Z" fill="#263238"/>
</svg>
