<svg width="346" height="262" viewBox="0 0 346 262" fill="none" xmlns="http://www.w3.org/2000/svg">
<path d="M345.339 131.649C345.006 203.102 284.229 261.012 209.858 260.74L-176 259.329L-175.992 257.625L209.866 259.036C283.259 259.305 343.237 202.157 343.566 131.642C343.895 61.1289 284.453 3.54257 211.058 3.27417L-174.8 1.86311L-174.792 0.159859L211.066 1.57092C285.437 1.84289 345.672 60.1957 345.339 131.649Z" fill="#00BE9B" fill-opacity="0.25"/>
<path d="M325.804 131.566C325.519 192.675 273.545 242.201 209.946 241.968L-175.919 240.557L-175.911 238.854L209.954 240.265C272.575 240.494 323.751 191.729 324.031 131.56C324.312 71.3908 273.592 22.2552 210.971 22.0262L-174.894 20.6149L-174.887 18.9116L210.979 20.3228C274.578 20.5554 326.089 70.4575 325.804 131.566Z" fill="#00BE9B" fill-opacity="0.25"/>
<path d="M306.272 131.503C306.036 182.265 262.866 223.406 210.036 223.213L-175.838 221.802L-175.83 220.098L210.044 221.51C261.894 221.699 304.267 181.319 304.499 131.496C304.731 81.6733 262.738 40.9863 210.886 40.7967L-174.988 39.3852L-174.98 37.6816L210.894 39.093C263.722 39.2862 306.509 80.7399 306.272 131.503Z" fill="#00BE9B" fill-opacity="0.25"/>
<path d="M286.737 131.422C286.549 171.839 252.181 204.595 210.125 204.441L-175.758 203.03L-175.75 201.326L210.133 202.738C251.21 202.888 284.781 170.892 284.964 131.416C285.148 91.9415 251.878 59.7012 210.8 59.5509L-175.083 58.1392L-175.075 56.4352L210.808 57.847C252.864 58.0008 286.926 91.008 286.737 131.422Z" fill="#00BE9B" fill-opacity="0.25"/>
</svg>
