<svg width="278" height="263" viewBox="0 0 278 263" fill="none" xmlns="http://www.w3.org/2000/svg">
<path d="M1.51764 132.488C1.85065 203.941 62.6273 261.851 136.999 261.579L522.856 260.168L522.849 258.464L136.991 259.875C63.5974 260.144 3.61916 202.996 3.29051 132.481C2.96188 61.9679 62.4033 4.38156 135.799 4.11316L521.656 2.7021L521.649 0.998849L135.791 2.40991C61.4194 2.68188 1.18462 61.0347 1.51764 132.488Z" fill="#00BE9B" fill-opacity="0.25"/>
<path d="M21.0518 132.405C21.3365 193.514 73.3108 243.04 136.91 242.807L522.775 241.396L522.767 239.693L136.902 241.104C74.281 241.333 23.1051 192.568 22.8247 132.399C22.5443 72.2298 73.2639 23.0942 135.885 22.8652L521.75 21.4539L521.742 19.7506L135.877 21.1618C72.2779 21.3944 20.767 71.2965 21.0518 132.405Z" fill="#00BE9B" fill-opacity="0.25"/>
<path d="M40.5848 132.342C40.8213 183.104 83.9907 224.245 136.821 224.052L522.695 222.641L522.687 220.937L136.813 222.348C84.963 222.538 42.5899 182.158 42.3577 132.335C42.1256 82.5123 84.1188 41.8253 135.971 41.6357L521.845 40.2242L521.837 38.5205L135.963 39.932C83.1349 40.1252 40.3483 81.5789 40.5848 132.342Z" fill="#00BE9B" fill-opacity="0.25"/>
<path d="M60.119 132.261C60.3073 172.678 94.6758 205.434 136.731 205.28L522.614 203.869L522.606 202.165L136.723 203.577C95.646 203.727 62.0759 171.731 61.892 132.255C61.7081 92.7805 94.9789 60.5402 136.056 60.3899L521.939 58.9782L521.931 57.2742L136.048 58.686C93.9928 58.8398 59.9307 91.847 60.119 132.261Z" fill="#00BE9B" fill-opacity="0.25"/>
</svg>
