<svg width="51" height="46" viewBox="0 0 51 46" fill="none" xmlns="http://www.w3.org/2000/svg">
<path d="M42.8333 34.6667H44C46.5773 34.6667 48.6667 32.5773 48.6667 30V6.66667C48.6667 4.08934 46.5773 2 44 2L6.66667 2C4.08934 2 2 4.08934 2 6.66667L2 30C2 32.5773 4.08934 34.6667 6.66667 34.6667H19.5M11.3333 11.3333H39.3333M11.3333 20.6667H20.6667M27.6667 35.8333V44L32.3333 41.6667L37 44V35.8333M39.3333 30C39.3333 33.866 36.1993 37 32.3333 37C28.4673 37 25.3333 33.866 25.3333 30C25.3333 26.134 28.4673 23 32.3333 23C36.1993 23 39.3333 26.134 39.3333 30Z" stroke="#00BE9B" stroke-width="3" stroke-linecap="round" stroke-linejoin="round"/>
</svg>
