<svg width="534" height="400" viewBox="0 0 534 400" fill="none" xmlns="http://www.w3.org/2000/svg">
<path d="M490.865 335.868C482.681 342.76 419.635 386.556 329.669 379.493C324.828 338.047 306.368 167.778 327.363 141.075C327.363 141.075 378.301 116.488 425.223 126.811C472.145 137.134 490.407 147.024 493.751 155.586C496.286 162.061 492.667 282.63 490.865 335.868Z" fill="#00A184"/>
<path d="M423.666 144.999C396.639 168.69 361.826 163.683 362.589 145.494C362.711 142.65 365.719 139.127 365.719 139.127L364.666 137.489L360.085 130.488C356.741 125.25 352.557 118.666 349.641 113.876C347.198 109.796 408.107 71.8727 408.107 93.6778C408.107 124.4 423.009 130.179 423.009 130.179C428.628 132.466 433.866 136.083 423.666 144.999Z" fill="#FFE3CA" stroke="#323232" stroke-linecap="round" stroke-linejoin="round"/>
<path d="M440.752 191.917C440.752 191.917 435.301 210.832 437.882 216.257" stroke="white" stroke-linecap="round" stroke-linejoin="round"/>
<path d="M434.384 136.994C434.384 155.245 380.591 173.125 364.833 154.812" stroke="white" stroke-linecap="round" stroke-linejoin="round"/>
<path d="M390.134 115.931C390.134 115.931 386.53 129.685 369.734 140.425C368.933 139.033 367.64 138.001 366.115 137.535C365.61 137.452 365.094 137.452 364.589 137.535L360.008 130.535C368.696 124.199 390.134 115.931 390.134 115.931Z" fill="#323232"/>
<path d="M397.677 99.0252C397.677 99.0252 397.494 112.593 394.624 115.36C373.323 136.037 352.496 137.675 349.06 132.22C325.928 95.5017 331.394 85.8587 329.043 79.569C324.874 68.5351 319.759 50.5162 322.019 39.6059C327.058 15.2355 372.407 -3.66434 396.288 20.8452C407.74 32.5745 411.359 58.0267 408.946 79.2291" fill="#FFE3CA"/>
<path d="M397.677 99.0252C397.677 99.0252 397.494 112.593 394.624 115.36C373.323 136.037 352.496 137.675 349.06 132.22C325.928 95.5017 331.394 85.8587 329.043 79.569C324.874 68.5351 319.759 50.5162 322.019 39.6059C327.058 15.2355 372.407 -3.66434 396.288 20.8452C407.74 32.5745 411.359 58.0267 408.946 79.2291" stroke="#323232" stroke-linecap="round" stroke-linejoin="round"/>
<path d="M331.959 68.2256C331.959 68.2256 325.592 65.3357 324.217 68.7819" stroke="#323232" stroke-linecap="round" stroke-linejoin="round"/>
<path d="M347.396 68.4422C347.396 68.4422 360.635 62.8326 366.59 69.6476" stroke="#323232" stroke-linecap="round" stroke-linejoin="round"/>
<path d="M362.1 77.9458C362.314 79.9547 361.352 81.701 359.932 81.871C358.512 82.041 357.199 80.5111 356.985 78.5021C356.772 76.4932 357.733 74.7314 359.154 74.5769C360.574 74.4224 361.826 75.9368 362.1 77.9458Z" fill="#323232"/>
<path d="M336.142 78.5488C336.371 80.5578 335.394 82.3195 333.974 82.474C332.554 82.6285 331.241 81.1296 331.027 79.1206C330.814 77.1116 331.775 75.3499 333.196 75.1953C334.616 75.0408 335.898 76.5398 336.142 78.5488Z" fill="#323232"/>
<path d="M336.783 73.2637C338.631 76.2772 337.623 81.4233 335.18 88.4856C332.737 95.5479 334.89 98.0977 344.265 98.8086" fill="#FFE3CA"/>
<path d="M336.783 73.2637C338.631 76.2772 337.623 81.4233 335.18 88.4856C332.737 95.5479 334.89 98.0977 344.265 98.8086" stroke="#323232" stroke-linecap="round" stroke-linejoin="round"/>
<path d="M344.266 111.032C344.266 111.032 356.481 109.904 362.069 106.798" stroke="#323232" stroke-linecap="round" stroke-linejoin="round"/>
<path d="M421.65 40.9654C421.65 31.7859 412.702 12.9479 397.005 10.8308C387.981 1.28041 375.124 -2.22757 359.519 1.40403C323.454 9.77991 312.475 45.8178 310.902 51.7829C310.75 52.3393 310.673 52.6483 310.673 52.6483L320.323 50.1758L316.17 58.3817L321.224 61.766L320.064 63.0641L325.927 68.782L324.095 58.3353C325.225 51.5975 332.89 42.1708 332.89 42.1708C330.092 45.8405 328.349 50.2198 327.851 54.8273C330.905 46.8069 349.228 39.3737 349.228 39.3737C343.288 44.257 340.066 53.8074 340.066 53.8074C345.716 46.7605 358.954 42.2017 367.429 39.7754C370.284 46.745 374.819 54.0237 381.293 58.0571C387.401 61.8587 387.187 69.7092 387.187 69.7092C393.759 74.3322 398.6 81.0609 400.929 88.8099L408.32 99.0402C408.32 99.0402 421.65 82.4893 421.65 40.9654Z" fill="#323232"/>
<path d="M390.546 72.3366C388.073 66.9741 397.051 52.4477 403.418 54.2403C406.991 55.2603 411.664 61.859 412.58 68.7822C413.496 75.7055 408.656 88.872 403.495 91.7309C400.212 93.5854 397.509 88.532 397.509 88.532" fill="#FFE3CA"/>
<path d="M390.546 72.3366C388.073 66.9741 397.051 52.4477 403.418 54.2403C406.991 55.2603 411.664 61.859 412.58 68.7822C413.496 75.7055 408.656 88.872 403.495 91.7309C400.212 93.5854 397.509 88.532 397.509 88.532" stroke="#323232" stroke-linecap="round" stroke-linejoin="round"/>
<path d="M1 334.631L173.526 293.802L533.39 335.867L440.736 400L1 334.631Z" fill="white"/>
<path d="M1 334.631L173.526 293.802L533.39 335.867" fill="white"/>
<path d="M1 334.631L173.526 293.802L533.39 335.867" stroke="#323232" stroke-linecap="round" stroke-linejoin="round"/>
<path d="M150.302 342.821L220.143 311.574L308.445 316.195L269.173 350.177L150.302 342.821Z" fill="white" stroke="#323232" stroke-linecap="round" stroke-linejoin="round"/>
<path d="M330.768 139.529C308.368 148.801 303.543 169.648 265.477 252.031C265.477 252.031 248.574 255.539 239.519 276.325C230.465 297.11 245.627 313.522 263.08 312.965C263.08 312.965 270.088 319.147 284.456 318.513C298.825 317.879 362.329 219.532 362.329 219.532L330.768 139.529Z" fill="#00A284"/>
<path d="M272.15 256.868C282.166 265.893 287.923 279.137 284.869 293.818" stroke="white" stroke-linecap="round" stroke-linejoin="round"/>
<path d="M281.815 261.211C281.815 261.211 294.122 263.931 296.031 279.879" stroke="white" stroke-linecap="round" stroke-linejoin="round"/>
<path d="M317.819 214.541C312.005 200.021 309.995 184.227 311.987 168.69" stroke="white" stroke-linecap="round" stroke-linejoin="round"/>
<path d="M316.079 193.524C315.148 200.014 321.775 234.569 321.729 270.9" stroke="white" stroke-linecap="round" stroke-linejoin="round"/>
<path d="M483.521 146.359C511.54 160.608 514.868 204.449 488.437 256.868C469.763 293.864 443.989 348.493 427.681 352.155C411.374 355.818 395.463 345.541 395.463 345.541C395.463 345.541 381.721 344.892 377.568 335.002C366.208 307.973 395.082 273.821 406.381 281.996C406.381 281.996 442.66 202.147 449.272 197.109" fill="#00A184"/>
<path d="M374.972 318.575C371.262 299.922 400.273 277.916 406.381 281.996C406.381 281.996 427.926 283.217 431.148 298.3" stroke="white" stroke-linecap="round" stroke-linejoin="round"/>
<path d="M453.898 322.546C466.51 300.03 488.437 256.868 488.437 256.868" stroke="white" stroke-linecap="round" stroke-linejoin="round"/>
<path d="M406.38 281.996C406.38 281.996 421.482 272.847 432.765 281.501" stroke="white" stroke-linecap="round" stroke-linejoin="round"/>
<path d="M411.542 270.885C411.542 270.885 419.879 252.341 428.338 235.342C436.797 218.343 456.158 193.169 464.205 191.948" stroke="white" stroke-linecap="round" stroke-linejoin="round"/>
<path d="M252.406 304.218C250.593 304.129 248.821 303.638 247.215 302.781C221.257 289.074 201.071 266.419 188.917 250.162C184.192 243.948 179.842 237.451 175.893 230.705L182.122 203.692C182.122 203.692 187.986 219.146 211.546 234.337C235.106 249.528 263.095 254.535 272.149 269.88C280.166 283.248 266.042 304.883 252.406 304.218Z" fill="#FFE3CA"/>
<path d="M252.406 304.218C250.593 304.129 248.821 303.638 247.215 302.781C221.257 289.074 201.071 266.419 188.917 250.162C184.192 243.948 179.842 237.451 175.893 230.705L182.122 203.692C182.122 203.692 187.986 219.146 211.546 234.337C235.106 249.528 263.095 254.535 272.149 269.88C280.166 283.248 266.042 304.883 252.406 304.218Z" stroke="#323232" stroke-linecap="round" stroke-linejoin="round"/>
<path d="M193.621 229.067C193.621 229.067 190.399 243.47 181.91 240.24C177.329 238.494 168.503 224.648 166.839 217.663L193.621 229.067Z" fill="#FFE3CA" stroke="#323232" stroke-linecap="round" stroke-linejoin="round"/>
<path d="M156.195 140.379L163.128 136.763C163.128 136.763 182.718 136.933 194.872 146.931C205.912 156.018 211.515 170.251 211.515 170.251C211.515 170.251 254.407 146.282 298.214 160.036L316.079 260.809L233.946 266.249L182.687 216.967L156.195 140.379Z" fill="white" stroke="#323232" stroke-linecap="round" stroke-linejoin="round"/>
<path d="M321.729 264.843C321.729 264.843 312.094 264.549 299.207 264.982C279.723 265.6 252.804 267.825 240.497 275.073L239.916 274.872L228.648 270.885L228.419 270.545C226.342 267.454 209.592 243.115 185.665 233.209L151.829 137.52C151.829 137.52 186.948 139.065 206.141 171.178L215.776 174.701C215.776 174.701 273.112 157.517 305.207 163.698L321.729 264.843Z" fill="#00BE9B"/>
<path d="M321.729 264.843C321.729 264.843 312.094 264.549 299.207 264.982C279.723 265.6 252.804 267.825 240.497 275.073L239.916 274.872L228.648 270.885L228.419 270.545C226.342 267.454 209.592 243.115 185.665 233.209L151.829 137.52C151.829 137.52 186.948 139.065 206.141 171.178L215.776 174.701C215.776 174.701 273.112 157.517 305.207 163.698L321.729 264.843Z" stroke="#323232" stroke-linecap="round" stroke-linejoin="round"/>
<path d="M215.806 174.717L237.901 267.485" stroke="#323232" stroke-linecap="round" stroke-linejoin="round"/>
<path d="M228.648 270.9L207.179 178.194" stroke="#323232" stroke-linecap="round" stroke-linejoin="round"/>
<path d="M174.107 230.783C169.206 229.407 159.326 199.597 163.846 186.755C163.846 186.755 169.221 177.313 171.481 176.664C174.901 175.66 188.704 175.953 188.032 178.302C186.505 183.742 175.909 183.649 175.909 183.649L172.473 190.016L172.611 193.524C172.611 193.524 177.604 189.846 179.436 189.954C180.383 189.954 185.269 192.427 189.147 194.498C192.46 196.275 194.491 197.248 193.728 198.855C191.269 204.202 180.81 200.401 180.81 200.401L176.871 206.412C176.871 206.412 180.673 207.077 182.337 207.262C184.001 207.448 197.82 216.766 197.408 217.925C195.774 222.469 182.673 217.554 182.673 217.554L180.352 219.517C180.352 219.517 190.002 222.036 191.04 222.407C192.567 222.979 198.446 227.553 198.354 228.078C197.652 232.096 189.544 229.145 189.544 229.145L182.444 228.851C181.362 229.817 180.061 230.496 178.657 230.829" fill="#FFE3CA"/>
<path d="M174.107 230.783C169.206 229.407 159.326 199.597 163.846 186.755C163.846 186.755 169.221 177.313 171.481 176.664C174.901 175.66 188.704 175.953 188.032 178.302C186.505 183.742 175.909 183.649 175.909 183.649L172.473 190.016L172.611 193.524C172.611 193.524 177.604 189.846 179.436 189.954C180.383 189.954 185.269 192.427 189.147 194.498C192.46 196.275 194.491 197.248 193.728 198.855C191.269 204.202 180.81 200.401 180.81 200.401L176.871 206.412C176.871 206.412 180.673 207.077 182.337 207.262C184.001 207.448 197.82 216.766 197.408 217.925C195.774 222.469 182.673 217.554 182.673 217.554L180.352 219.517C180.352 219.517 190.002 222.036 191.04 222.407C192.567 222.979 198.446 227.553 198.354 228.078C197.652 232.096 189.544 229.145 189.544 229.145L182.444 228.851C181.362 229.817 180.061 230.496 178.657 230.829" stroke="#323232" stroke-linecap="round" stroke-linejoin="round"/>
<path d="M172.549 193.524C172.549 193.524 167.969 197.418 166.793 198.546C165.617 199.674 165.907 203.26 165.907 203.26" stroke="#323232" stroke-linecap="round" stroke-linejoin="round"/>
<path d="M169.236 211.172C169.236 215.097 171.832 217.477 173.023 218.744C174.214 220.012 171.114 223.458 174.55 225.93" stroke="#323232" stroke-linecap="round" stroke-linejoin="round"/>
<path d="M395.402 335.589C385.706 338.263 375.171 321.017 362.314 302.194C353.824 289.831 344.327 276.649 333.41 268.196C332.539 267.532 331.654 266.882 330.768 266.264L337.151 233.812C350.404 240.843 358.619 252.109 372.377 263.684C394.517 282.336 414.138 293.787 419.573 302.039C425.009 310.292 412.015 331 395.402 335.589Z" fill="#FFE3CA"/>
<path d="M395.402 335.589C385.706 338.263 375.171 321.017 362.314 302.194C353.824 289.831 344.327 276.649 333.41 268.196C332.539 267.532 331.654 266.882 330.768 266.264L337.151 233.812C350.404 240.843 358.619 252.109 372.377 263.684C394.517 282.336 414.138 293.787 419.573 302.039C425.009 310.292 412.015 331 395.402 335.589Z" stroke="#323232" stroke-linecap="round" stroke-linejoin="round"/>
<path d="M340.723 264.981C340.06 266.181 338.967 267.077 337.67 267.485C337.325 267.622 336.973 267.74 336.616 267.84H336.326C326.08 270.545 303.024 264.92 303.024 264.92C303.024 264.92 287.923 257.656 287.007 255.941C286.368 254.582 285.802 253.189 285.312 251.768L284.899 250.548C284.899 250.548 279.464 247.457 278.792 245.046C278.12 242.635 276.975 241.955 280.319 241.523C283.663 241.09 301.696 241.523 301.696 241.523L282.075 233.425C282.075 233.425 269.081 226.795 267.874 224.462C266.668 222.128 265.156 220.583 271.798 221.51C278.441 222.437 292.946 226.703 292.946 226.703L304.383 229.16L293.023 224.261C293.023 224.261 270.669 221.526 274.898 214.494H287.587C294.775 214.815 301.925 215.736 308.964 217.245C312.659 218.389 337.089 233.75 337.089 233.75" fill="#FFE3CA"/>
<path d="M340.723 264.981C340.06 266.181 338.967 267.077 337.67 267.485C337.325 267.622 336.973 267.74 336.616 267.84H336.326C326.08 270.545 303.024 264.92 303.024 264.92C303.024 264.92 287.923 257.656 287.007 255.941C286.368 254.582 285.802 253.189 285.312 251.768L284.899 250.548C284.899 250.548 279.464 247.457 278.792 245.046C278.12 242.635 276.975 241.955 280.319 241.523C283.663 241.09 301.696 241.523 301.696 241.523L282.075 233.425C282.075 233.425 269.081 226.795 267.874 224.462C266.668 222.128 265.156 220.583 271.798 221.51C278.441 222.437 292.946 226.703 292.946 226.703L304.383 229.16L293.023 224.261C293.023 224.261 270.669 221.526 274.898 214.494H287.587C294.775 214.815 301.925 215.736 308.964 217.245C312.659 218.389 337.089 233.75 337.089 233.75" stroke="#323232" stroke-linecap="round" stroke-linejoin="round"/>
<path d="M284.869 250.61L307.177 253.932" stroke="#323232" stroke-linecap="round" stroke-linejoin="round"/>
<path d="M62.4893 319.749L118.405 336.748L220.708 313.119C220.708 313.119 158.227 295.162 157.647 295.61C157.066 296.059 62.4893 319.749 62.4893 319.749Z" fill="#00BE9B"/>
<mask id="mask0_10_1507" style="mask-type:luminance" maskUnits="userSpaceOnUse" x="62" y="295" width="159" height="42">
<path d="M62.4893 319.749L118.405 336.748L220.708 313.119C220.708 313.119 158.227 295.162 157.647 295.61C157.066 296.059 62.4893 319.749 62.4893 319.749Z" fill="white"/>
</mask>
<g mask="url(#mask0_10_1507)">
<path opacity="0.3" d="M62.4893 319.749L118.405 336.748L220.708 313.119C220.708 313.119 158.227 295.162 157.647 295.61C157.066 296.059 62.4893 319.749 62.4893 319.749Z" fill="#323232"/>
</g>
<path d="M62.4893 319.749L118.405 336.748L220.708 313.119C220.708 313.119 158.227 295.162 157.647 295.61C157.066 296.059 62.4893 319.749 62.4893 319.749Z" stroke="#323232" stroke-linecap="round" stroke-linejoin="round"/>
<path d="M63.2983 299.814C59.3741 300.092 58.3969 314.402 62.489 319.749L152.821 300.772L160.059 283.433L63.2983 299.814Z" fill="#00BE9B"/>
<mask id="mask1_10_1507" style="mask-type:luminance" maskUnits="userSpaceOnUse" x="59" y="283" width="102" height="37">
<path d="M63.2983 299.814C59.3741 300.092 58.3969 314.402 62.489 319.749L152.821 300.772L160.059 283.433L63.2983 299.814Z" fill="white"/>
</mask>
<g mask="url(#mask1_10_1507)">
<path opacity="0.3" d="M63.2983 299.814C59.3741 300.092 58.3969 314.402 62.489 319.749L152.821 300.772L160.059 283.433L63.2983 299.814Z" fill="#323232"/>
</g>
<path d="M63.2983 299.814C59.3741 300.092 58.3969 314.402 62.489 319.749L152.821 300.772L160.059 283.433L63.2983 299.814Z" stroke="#323232" stroke-linecap="round" stroke-linejoin="round"/>
<path d="M216.326 299.613C216.326 299.613 214.982 307.139 215.853 311.775L118.298 334.121L66.8715 318.791C66.8715 318.791 61.5273 309.226 66.1844 301.792L160.151 285.643L216.326 299.613Z" fill="white" stroke="#323232" stroke-linecap="round" stroke-linejoin="round"/>
<path d="M63.2979 299.814L160.058 283.433L220.143 298.84L119.091 319.224L63.2979 299.814Z" fill="#00BE9B" stroke="#323232" stroke-linecap="round" stroke-linejoin="round"/>
<path d="M66.7334 308.963L117.9 324.386L201.652 307.325" stroke="#323232" stroke-linecap="round" stroke-linejoin="round"/>
<path d="M215.578 308.901L125.52 328.341" stroke="#323232" stroke-linecap="round" stroke-linejoin="round"/>
<path d="M67.9404 315.036C68.7192 315.113 106.51 326.889 106.51 326.889" stroke="#323232" stroke-linecap="round" stroke-linejoin="round"/>
<path d="M208.218 305.331L215.379 304.157" stroke="#323232" stroke-linecap="round" stroke-linejoin="round"/>
<path d="M116.236 329.748L112.434 328.883" stroke="#323232" stroke-linecap="round" stroke-linejoin="round"/>
<path d="M66.184 301.792C68.1864 304.127 69.345 307.081 69.4699 310.17C69.5947 313.259 68.6784 316.299 66.8711 318.791C65.1982 316.306 64.247 313.396 64.1256 310.391C64.0041 307.387 64.7173 304.407 66.184 301.792Z" fill="#323232"/>
<mask id="mask2_10_1507" style="mask-type:luminance" maskUnits="userSpaceOnUse" x="64" y="301" width="6" height="18">
<path d="M66.184 301.792C68.1864 304.127 69.345 307.081 69.4699 310.17C69.5947 313.259 68.6784 316.299 66.8711 318.791C65.1982 316.306 64.247 313.396 64.1256 310.391C64.0041 307.387 64.7173 304.407 66.184 301.792Z" fill="white"/>
</mask>
<g mask="url(#mask2_10_1507)">
<path opacity="0.3" d="M66.184 301.792C68.1864 304.127 69.345 307.081 69.4699 310.17C69.5947 313.259 68.6784 316.299 66.8711 318.791C65.1982 316.306 64.247 313.396 64.1256 310.391C64.0041 307.387 64.7173 304.407 66.184 301.792Z" fill="white" fill-opacity="0.7"/>
</g>
<path d="M66.184 301.792C68.1864 304.127 69.345 307.081 69.4699 310.17C69.5947 313.259 68.6784 316.299 66.8711 318.791C65.1982 316.306 64.247 313.396 64.1256 310.391C64.0041 307.387 64.7173 304.407 66.184 301.792Z" stroke="#323232" stroke-linecap="round" stroke-linejoin="round"/>
<path d="M275.173 324.385L372.819 328.434L363.306 362.448L243.184 357.812L275.173 324.385Z" fill="white"/>
<mask id="mask3_10_1507" style="mask-type:luminance" maskUnits="userSpaceOnUse" x="243" y="324" width="130" height="39">
<path d="M275.173 324.385L372.819 328.434L363.306 362.448L243.184 357.812L275.173 324.385Z" fill="white"/>
</mask>
<g mask="url(#mask3_10_1507)">
<path opacity="0.4" d="M275.173 324.385L372.819 328.434L363.306 362.448L243.184 357.812L275.173 324.385Z" fill="#00BE9B"/>
</g>
<path d="M275.173 324.385L372.819 328.434L363.306 362.448L243.184 357.812L275.173 324.385Z" stroke="#323232" stroke-linecap="round" stroke-linejoin="round"/>
</svg>
