<svg width="265" height="256" viewBox="0 0 265 256" fill="none" xmlns="http://www.w3.org/2000/svg">
<path d="M163.779 101.084C160.482 103.032 150.027 104.321 145.584 104.559H165.621C165.093 103.361 164.478 102.198 163.779 101.084Z" fill="#668EFF"/>
<path d="M167.065 108.942H101.372L77.2168 157.035C78.3629 158.006 79.5808 158.897 80.8608 159.7L77.243 167.004C82.4407 168.373 87.9162 168.451 93.1539 167.231L94.486 164.25C95.8144 164.375 97.1492 164.429 98.4838 164.411L107.944 147.807L105.1 161.589C106.378 162.194 107.693 162.725 109.037 163.18L107.988 167.228C112.725 168.525 117.745 168.525 122.481 167.228L122.926 165.321C124.196 165.313 125.474 165.266 126.761 165.163L137.184 124.727L140.335 125.18L162.258 123.493C166.766 119.959 168.73 115.566 167.065 108.942Z" fill="#668EFF"/>
<path d="M83.8058 68.8325C83.7266 69.7562 83.3686 70.6377 82.7756 71.3693C82.1825 72.1009 81.38 72.6512 80.4663 72.9526C79.5525 73.2543 78.567 73.294 77.6301 73.0671C76.693 72.8403 75.8452 72.3567 75.1902 71.6753C74.5352 70.994 74.1013 70.1444 73.9416 69.2305C73.7817 68.3165 73.903 67.3777 74.2905 66.5288C74.678 65.6798 75.3149 64.9574 76.1234 64.45C76.9319 63.9424 77.8771 63.6717 78.8435 63.6709C80.2151 63.7247 81.5084 64.2986 82.439 65.2665C83.3695 66.2345 83.8612 67.5171 83.8058 68.8325Z" fill="#668EFF"/>
<path d="M81.8369 61.5055C81.0412 62.0689 80.0681 62.3533 79.0801 62.3112C79.1768 61.3681 79.6132 60.4867 80.3141 59.8186C81.1098 59.2552 82.0829 58.9708 83.0709 59.0129C82.9742 59.956 82.5378 60.8374 81.8369 61.5055Z" fill="#668EFF"/>
<path d="M139.575 56.425C139.531 57.0865 139.391 57.739 139.16 58.3637L141.681 56.0977C140.995 56.2906 140.288 56.4006 139.575 56.425Z" fill="#668EFF"/>
<path d="M149.604 77.7715V89.5047C150.286 89.404 150.969 89.3033 151.651 89.1774C151.287 85.3292 150.601 81.5151 149.604 77.7715Z" fill="#668EFF"/>
<path d="M134.297 95.1697L131.094 94.0367C130.726 93.7345 130.359 93.4072 130.018 93.0799C130.861 89.5801 133.116 90.8893 134.297 95.1697Z" fill="#668EFF"/>
<path d="M109.825 51.8615V83.6873C109.824 84.8489 109.342 85.9629 108.486 86.7844C107.629 87.6058 106.468 88.0675 105.256 88.0683H103.523C104.735 88.0675 105.896 87.6058 106.753 86.7844C107.61 85.9629 108.091 84.8489 108.092 83.6873V51.8615C108.091 50.6997 107.61 49.5858 106.753 48.7644C105.896 47.943 104.735 47.4811 103.523 47.4805H105.256C106.468 47.4811 107.629 47.943 108.486 48.7644C109.342 49.5858 109.824 50.6997 109.825 51.8615Z" fill="#668EFF"/>
<path d="M93.2605 103.453H89.8472C89.2997 103.458 88.7698 103.267 88.3609 102.919C87.952 102.569 87.6937 102.087 87.6362 101.565L86.1977 88.0967H84.4648L86.3815 104.866H94.7045C94.7082 104.681 94.6736 104.499 94.6027 104.328C94.5318 104.157 94.4259 104 94.2916 103.869C94.1572 103.738 93.9967 103.633 93.8197 103.562C93.6427 103.49 93.4525 103.453 93.2605 103.453Z" fill="#668EFF"/>
<path d="M151.571 47.3301C151.881 46.9728 152.048 46.5212 152.041 46.0564C152.034 45.5918 151.856 45.1447 151.535 44.7955C151.216 44.4465 150.776 44.2183 150.297 44.152C149.817 44.0859 149.328 44.1861 148.919 44.4345C149.142 44.0514 149.222 43.6077 149.149 43.1751C149.077 42.7424 148.854 42.3459 148.517 42.0495C148.18 41.7529 147.75 41.5736 147.294 41.5403C146.838 41.5071 146.385 41.6219 146.005 41.8663C147.229 39.7526 143.719 37.9464 142.412 39.9779C141.604 42.2717 140.593 44.4954 139.393 46.6251C142.753 42.1194 145.011 46.902 144.801 49.722C144.827 50.276 145.116 50.427 146.061 49.7724C148.004 48.4127 149.396 51.5852 145.773 53.1463C144.656 55.2059 144.33 57.5771 144.854 59.8438C144.827 59.4913 144.407 52.4665 152.678 51.0061C153.106 50.9191 153.49 50.6943 153.767 50.3691C154.043 50.044 154.195 49.638 154.198 49.2184C154.201 48.9121 154.129 48.6093 153.987 48.3347C153.846 48.06 153.638 47.8212 153.383 47.6374C153.127 47.4536 152.83 47.3299 152.515 47.2767C152.2 47.2233 151.876 47.2415 151.571 47.3301Z" fill="#668EFF"/>
<path d="M143.277 68.0265C143.277 68.2669 143.178 68.4975 143.001 68.6674C142.822 68.8374 142.582 68.933 142.332 68.933C142.082 68.933 141.841 68.8374 141.663 68.6674C141.486 68.4975 141.387 68.2669 141.387 68.0265C141.387 67.7862 141.486 67.5556 141.663 67.3856C141.841 67.2155 142.082 67.1201 142.332 67.1201C142.582 67.1201 142.822 67.2155 143.001 67.3856C143.178 67.5556 143.277 67.7862 143.277 68.0265Z" fill="#668EFF"/>
<path d="M134.191 76.4113C134.191 76.6517 134.092 76.8823 133.915 77.0522C133.736 77.2222 133.496 77.3177 133.246 77.3177C132.996 77.3177 132.755 77.2222 132.577 77.0522C132.4 76.8823 132.301 76.6517 132.301 76.4113C132.301 76.1709 132.4 75.9403 132.577 75.7703C132.755 75.6003 132.996 75.5049 133.246 75.5049C133.496 75.5049 133.736 75.6003 133.915 75.7703C134.092 75.9403 134.191 76.1709 134.191 76.4113Z" fill="#668EFF"/>
<path d="M141.254 85.9035C141.254 86.1439 141.154 86.3745 140.977 86.5444C140.799 86.7144 140.559 86.8099 140.308 86.8099C140.058 86.8099 139.818 86.7144 139.64 86.5444C139.463 86.3745 139.363 86.1439 139.363 85.9035C139.363 85.6631 139.463 85.4325 139.64 85.2625C139.818 85.0925 140.058 84.9971 140.308 84.9971C140.559 84.9971 140.799 85.0925 140.977 85.2625C141.154 85.4325 141.254 85.6631 141.254 85.9035Z" fill="#668EFF"/>
<path d="M193.181 88.749H183.729C183.395 88.749 183.074 88.8764 182.838 89.103C182.601 89.3296 182.469 89.6369 182.469 89.9576V103.353C182.469 103.673 182.601 103.981 182.838 104.207C183.074 104.434 183.395 104.561 183.729 104.561H193.181C193.514 104.557 193.832 104.427 194.067 104.202C194.303 103.977 194.437 103.672 194.441 103.353V89.9523C194.44 89.6329 194.306 89.3265 194.071 89.1011C193.835 88.8756 193.514 88.749 193.181 88.749Z" fill="#668EFF"/>
<path d="M191.799 25.0176L179.013 28.3663C178.785 28.4254 178.576 28.5411 178.409 28.7017C178.242 28.8625 178.121 29.0626 178.059 29.282C177.998 29.5014 177.998 29.7323 178.059 29.9517C178.121 30.171 178.242 30.3711 178.409 30.5317L189.909 41.4592C190.076 41.6197 190.285 41.7351 190.514 41.7939C190.742 41.8528 190.984 41.8528 191.212 41.7941C191.441 41.7355 191.65 41.6201 191.817 41.4597C191.984 41.2992 192.105 41.0994 192.167 40.8801L195.58 28.3915L191.799 25.0176Z" fill="#668EFF"/>
<path d="M200.659 19.8955C200.429 19.6785 200.157 19.5072 199.859 19.3911C199.562 19.275 199.242 19.2166 198.92 19.2188C198.599 19.2212 198.279 19.2844 197.984 19.4047C197.686 19.5252 197.418 19.7005 197.193 19.9206L191.863 25.0822L195.456 28.2799L200.681 23.219C201.131 22.7728 201.383 22.1745 201.379 21.5529C201.375 20.9312 201.115 20.3359 200.659 19.8955Z" fill="#668EFF"/>
<path d="M87.9017 3.01971C87.9009 3.33828 87.8015 3.64957 87.6163 3.91421C87.431 4.17871 87.1682 4.38465 86.8609 4.5059C86.5537 4.62716 86.2158 4.6583 85.89 4.59549C85.5643 4.53267 85.2652 4.37855 85.0307 4.15287C84.7962 3.92706 84.6369 3.63963 84.5726 3.32702C84.5085 3.0144 84.5424 2.69053 84.6701 2.39634C84.7979 2.10214 85.0136 1.85089 85.2902 1.67424C85.5669 1.49773 85.8919 1.40377 86.2241 1.4043C86.4451 1.4039 86.664 1.44551 86.8682 1.52662C87.0723 1.60785 87.2577 1.72685 87.4136 1.877C87.5696 2.02727 87.693 2.20551 87.7768 2.40164C87.8605 2.59777 87.9029 2.80781 87.9017 3.01971Z" fill="#668EFF"/>
<path d="M122.481 167.23C117.745 168.528 112.724 168.528 107.988 167.23C103.551 168.464 94.834 174.406 94.834 174.406H124.161C123.884 171.961 123.32 169.555 122.481 167.23Z" fill="#668EFF"/>
<path d="M93.1539 167.231C87.9162 168.451 82.4407 168.373 77.2431 167.004C72.4846 168.5 68.1526 171.034 64.5879 174.406H94.808C94.4396 171.979 93.8869 169.58 93.1539 167.231Z" fill="#668EFF"/>
<path d="M145.533 124.779L140.334 125.182L137.184 124.729L137.84 122.186L145.533 124.779Z" fill="#668EFF"/>
<path d="M236.457 104.561H32.3467C31.7409 104.561 31.16 104.791 30.7316 105.202C30.3032 105.613 30.0625 106.171 30.0625 106.751C30.0625 107.332 30.3032 107.889 30.7316 108.3C31.16 108.711 31.7409 108.942 32.3467 108.942H60.3199L47.4437 177.301C47.422 177.426 47.4131 177.553 47.4174 177.679H52.0384L64.9782 108.942H203.874L216.818 177.704H221.439C221.413 177.578 221.413 177.453 221.387 177.307L208.512 108.947H236.457C237.063 108.947 237.644 108.716 238.073 108.306C238.501 107.895 238.742 107.337 238.742 106.756C238.742 106.176 238.501 105.618 238.073 105.207C237.644 104.796 237.063 104.566 236.457 104.566V104.561Z" fill="#668EFF"/>
<path d="M87.9017 3.01971C87.9009 3.33828 87.8015 3.64957 87.6163 3.91421C87.431 4.17871 87.1682 4.38465 86.8609 4.5059C86.5537 4.62716 86.2158 4.6583 85.89 4.59549C85.5643 4.53267 85.2652 4.37855 85.0307 4.15287C84.7962 3.92706 84.6369 3.63963 84.5726 3.32702C84.5085 3.0144 84.5424 2.69053 84.6701 2.39634C84.7979 2.10214 85.0136 1.85089 85.2902 1.67424C85.5669 1.49773 85.8919 1.40377 86.2241 1.4043C86.4451 1.4039 86.664 1.44551 86.8682 1.52662C87.0723 1.60785 87.2577 1.72685 87.4136 1.877C87.5696 2.02727 87.693 2.20551 87.7768 2.40164C87.8605 2.59777 87.9029 2.80781 87.9017 3.01971Z" stroke="#323232"/>
<path d="M200.659 19.8955C200.429 19.6785 200.157 19.5072 199.859 19.3911C199.562 19.275 199.242 19.2166 198.92 19.2188C198.599 19.2212 198.279 19.2844 197.984 19.4047C197.686 19.5252 197.418 19.7005 197.193 19.9206L191.863 25.0822L195.456 28.2799L200.681 23.219C201.131 22.7728 201.383 22.1745 201.379 21.5529C201.375 20.9312 201.115 20.3359 200.659 19.8955Z" stroke="#323232" stroke-linejoin="round"/>
<path d="M236.455 104.561H32.3448C31.739 104.561 31.158 104.791 30.7296 105.202C30.3013 105.613 30.0605 106.171 30.0605 106.751C30.0605 107.332 30.3013 107.889 30.7296 108.3C31.158 108.711 31.739 108.942 32.3448 108.942H60.318L47.4417 177.301C47.42 177.426 47.4112 177.553 47.4155 177.679H52.0364L64.9763 108.942H203.872L216.816 177.704H221.437C221.411 177.578 221.411 177.453 221.385 177.307L208.51 108.947H236.455C237.061 108.947 237.642 108.716 238.071 108.306C238.499 107.895 238.74 107.337 238.74 106.756C238.74 106.176 238.499 105.618 238.071 105.207C237.642 104.796 237.061 104.566 236.455 104.566V104.561Z" stroke="#323232" stroke-linejoin="round"/>
<path d="M128.335 101.137C127.245 102.552 125.747 103.631 124.025 104.239C122.303 104.847 120.434 104.96 118.646 104.561" stroke="#323232" stroke-linecap="round" stroke-linejoin="round"/>
<path d="M68.952 96.9069C68.952 96.9069 56.1849 95.7752 54.4258 104.561" stroke="#323232" stroke-linecap="round" stroke-linejoin="round"/>
<path d="M73.487 98.871C73.0931 98.6696 72.7753 98.4735 72.463 98.2919C70.9789 97.4319 70.4413 96.8568 69.1286 96.0259C67.8661 95.2228 66.6955 94.2952 65.6366 93.2562C62.7208 90.3872 63.6937 89.8823 66.9756 91.7707C66.9955 91.7733 67.014 91.7826 67.0281 91.7959C69.2073 93.0614 71.4801 94.1732 73.8283 95.1207" stroke="#323232" stroke-linecap="round" stroke-linejoin="round"/>
<path d="M72.4657 98.2917C69.5971 97.0752 66.6416 96.0561 63.6218 95.2438C61.0764 94.5574 61.5213 94.0074 61.9414 93.9345C63.4924 93.8219 65.0519 93.8802 66.5886 94.1108" stroke="#323232" stroke-linecap="round" stroke-linejoin="round"/>
<path d="M73.0151 103.452C72.4375 103.377 71.8861 103.342 71.4135 103.327C66.8741 103.168 68.4743 102.199 70.0482 101.765C70.8635 101.542 72.2012 101.287 73.2776 100.935" stroke="#323232" stroke-linecap="round" stroke-linejoin="round"/>
<path d="M171.213 127.348L178.696 177.705" stroke="#323232" stroke-linecap="round" stroke-linejoin="round"/>
<path d="M179.323 90.7877L167.035 89.9316" stroke="#323232" stroke-linecap="round" stroke-linejoin="round"/>
<path d="M122.925 165.323L122.48 167.23" stroke="#323232" stroke-linecap="round" stroke-linejoin="round"/>
<path d="M107.961 167.23L109.036 163.182" stroke="#323232" stroke-linecap="round" stroke-linejoin="round"/>
<path d="M94.4953 164.234L93.1562 167.231" stroke="#323232" stroke-linecap="round" stroke-linejoin="round"/>
<path d="M77.2148 167.029L80.8588 159.699" stroke="#323232" stroke-linecap="round" stroke-linejoin="round"/>
<path d="M107.96 147.743L98.4818 164.411C90.6672 164.668 83.0499 162.027 77.2148 157.035L101.37 108.942" stroke="#323232" stroke-linecap="round" stroke-linejoin="round"/>
<path d="M119.225 165.222L128.913 121.178C129.054 120.534 129.326 119.925 129.715 119.383C130.104 118.842 130.601 118.38 131.177 118.023C131.754 117.667 132.398 117.424 133.072 117.309C133.748 117.194 134.44 117.208 135.109 117.351C143.261 119.099 158.586 120.705 160.128 109" stroke="#323232" stroke-linecap="round" stroke-linejoin="round"/>
<path d="M85.082 93.3394L114.842 88.7013C119.752 81.5453 125.583 64.9698 134.035 62.6666C135.421 62.3276 136.682 61.631 137.684 60.6523" stroke="#323232" stroke-linecap="round" stroke-linejoin="round"/>
<path d="M139.575 56.4244C140.272 56.4005 140.963 56.3027 141.636 56.1328L139.148 58.3631" stroke="#323232" stroke-linecap="round" stroke-linejoin="round"/>
<path d="M145.271 60.8506C145.678 61.5667 146.353 62.107 147.162 62.3613C151.361 63.8646 155.254 66.0623 158.662 68.8547C162.55 72.2764 165.986 84.814 167.484 93.0765C167.846 95.0192 167.43 97.0203 166.32 98.6821C165.21 100.344 163.489 101.543 161.497 102.04C156.303 103.424 150.969 104.268 145.587 104.558" stroke="#323232" stroke-linecap="round" stroke-linejoin="round"/>
<path d="M154.644 88.5977C147.023 90.0077 139.297 90.8319 131.539 91.0652" stroke="#323232" stroke-linecap="round" stroke-linejoin="round"/>
<path d="M151.626 89.1569C151.285 85.3059 150.599 81.4899 149.578 77.751V89.5094" stroke="#323232" stroke-linecap="round" stroke-linejoin="round"/>
<path d="M89.6094 92.626C92.0014 96.143 92.8506 100.422 91.9724 104.535" stroke="#323232" stroke-linecap="round" stroke-linejoin="round"/>
<path d="M122.059 94.4893C120.037 95.3453 114.865 96.7567 112.082 97.6114C110.769 98.009 113.106 99.4494 121.035 97.2589" stroke="#323232" stroke-linecap="round" stroke-linejoin="round"/>
<path d="M122.456 96.4531C120.539 97.6113 117.757 98.9445 115.235 100.23C114.054 100.833 115.13 102.143 122.114 99.3738" stroke="#323232" stroke-linecap="round" stroke-linejoin="round"/>
<path d="M123.006 98.291C121.9 99.6003 120.942 100.87 119.094 102.773C118.233 103.659 119.813 104.197 125.657 100.255C126.735 99.5274 127.316 100.325 128.729 101.464C130.599 102.968 131.854 104.712 133.219 104.535" stroke="#323232" stroke-linecap="round" stroke-linejoin="round"/>
<path d="M126.42 92.4252C124.32 87.7871 125.685 87.522 126.42 88.6988C127.666 90.6283 129.175 92.3881 130.907 93.9346" stroke="#323232" stroke-linecap="round" stroke-linejoin="round"/>
<path d="M130.016 93.0798C130.671 90.3499 132.189 90.546 133.386 92.7962C134.768 95.3988 136.028 104.561 133.14 104.561" stroke="#323232" stroke-linecap="round" stroke-linejoin="round"/>
<path d="M134.199 95.135C131.111 94.0298 126.155 92.0977 124.818 92.0977C124.319 92.0977 118.621 93.6879 115.864 94.4141C114.053 94.8938 113.188 95.6955 116.127 95.5975C117.361 95.5564 118.726 95.396 119.96 95.245" stroke="#323232" stroke-linecap="round" stroke-linejoin="round"/>
<path d="M128.441 75.5068C127.302 80.8387 127.374 86.3433 128.651 91.6463" stroke="#323232" stroke-linecap="round" stroke-linejoin="round"/>
<path d="M86.3801 104.535H72.8848L74.5651 88.0938H84.4897L86.3801 104.535Z" stroke="#323232" stroke-linecap="round" stroke-linejoin="round"/>
<path d="M83.8077 68.8325C83.7285 69.7562 83.3705 70.6377 82.7775 71.3693C82.1844 72.1009 81.382 72.6512 80.4683 72.9526C79.5545 73.2543 78.5689 73.294 77.632 73.0671C76.695 72.8403 75.8472 72.3567 75.1922 71.6753C74.5372 70.994 74.1033 70.1444 73.9435 69.2305C73.7836 68.3165 73.905 67.3777 74.2924 66.5288C74.6799 65.6798 75.3168 64.9574 76.1254 64.45C76.9339 63.9424 77.8791 63.6717 78.8454 63.6709C80.2171 63.7247 81.5104 64.2986 82.4409 65.2665C83.3715 66.2345 83.8631 67.5171 83.8077 68.8325Z" stroke="#323232" stroke-linecap="round" stroke-linejoin="round"/>
<path d="M81.8369 61.5055C81.0412 62.0689 80.0681 62.3533 79.0801 62.3112C79.1768 61.3681 79.6132 60.4867 80.3141 59.8186C81.1098 59.2552 82.0829 58.9708 83.0709 59.0129C82.9742 59.956 82.5378 60.8374 81.8369 61.5055Z" stroke="#323232" stroke-linecap="round" stroke-linejoin="round"/>
<path d="M139.391 46.6508C140.589 44.5201 141.599 42.2965 142.41 40.0037C142.66 39.6515 143.021 39.385 143.44 39.243C143.858 39.1011 144.313 39.0913 144.738 39.2151C145.164 39.3387 145.536 39.5894 145.803 39.9307C146.068 40.2718 146.213 40.6856 146.217 41.1115C146.214 41.3843 146.142 41.6521 146.007 41.8921C146.387 41.6477 146.84 41.5329 147.296 41.5661C147.752 41.5993 148.182 41.7786 148.519 42.0752C148.855 42.3718 149.079 42.7683 149.151 43.201C149.224 43.6335 149.144 44.0772 148.921 44.4603C149.33 44.2118 149.82 44.1116 150.299 44.1778C150.779 44.244 151.218 44.4722 151.537 44.8214C151.858 45.1705 152.036 45.6177 152.043 46.0823C152.05 46.5469 151.883 46.9986 151.573 47.3558C151.826 47.2779 152.091 47.2493 152.357 47.2717C152.621 47.2942 152.878 47.3672 153.111 47.4866C153.346 47.6059 153.552 47.7692 153.719 47.9665C153.886 48.1638 154.011 48.3915 154.085 48.6357C154.159 48.8799 154.181 49.136 154.15 49.3885C154.119 49.6411 154.036 49.8852 153.904 50.1063C153.773 50.3273 153.598 50.5209 153.386 50.6757C153.176 50.8303 152.936 50.9428 152.679 51.0067C150.443 51.2381 148.384 52.2838 146.927 53.9284C145.472 55.5728 144.73 57.6904 144.855 59.8444" stroke="#323232" stroke-linecap="round" stroke-linejoin="round"/>
<path d="M145.269 60.8508L144.77 64.6276L140.753 61.581L136.211 63.7716L137.681 60.6494" stroke="#323232" stroke-linecap="round" stroke-linejoin="round"/>
<path d="M140.753 61.5811C137.445 69.5878 136.263 79.6341 136.211 90.8134" stroke="#323232" stroke-linecap="round" stroke-linejoin="round"/>
<path d="M194.445 93.0537C195.442 93.0537 196.397 93.4327 197.1 94.1086C197.805 94.7831 198.2 95.6988 198.2 96.6543C198.2 97.6097 197.805 98.5254 197.1 99.1999C196.397 99.8758 195.442 100.255 194.445 100.255" stroke="#323232" stroke-linecap="round" stroke-linejoin="round"/>
<path d="M229.869 184.643C229.869 185.081 229.733 185.509 229.479 185.873C229.226 186.238 228.864 186.522 228.443 186.69C228.02 186.857 227.556 186.901 227.108 186.816C226.659 186.73 226.248 186.519 225.925 186.209C225.602 185.899 225.382 185.505 225.292 185.075C225.204 184.645 225.249 184.2 225.423 183.795C225.599 183.39 225.895 183.044 226.275 182.8C226.655 182.557 227.101 182.427 227.558 182.427C227.862 182.425 228.164 182.481 228.444 182.592C228.726 182.703 228.982 182.866 229.196 183.072C229.411 183.278 229.581 183.523 229.696 183.793C229.812 184.062 229.87 184.351 229.869 184.643Z" stroke="#323232" stroke-linecap="round" stroke-linejoin="round"/>
<path d="M211.307 223.166L227.559 186.858" stroke="#323232" stroke-linecap="round" stroke-linejoin="round"/>
<path d="M226.557 57.427L202.875 31.9463" stroke="#323232" stroke-linecap="round" stroke-linejoin="round"/>
<path d="M200.041 30.2087L196.023 27.7412" stroke="#323232" stroke-linecap="round" stroke-linejoin="round"/>
<path d="M186.572 38.2913C186.146 38.61 185.642 38.8193 185.107 38.8993C184.573 38.9793 184.028 38.9274 183.52 38.7484C183.012 38.5695 182.561 38.2694 182.209 37.8767C181.855 37.4839 181.614 37.0113 181.504 36.5036C181.412 36.0749 181.419 35.6322 181.522 35.206C181.627 34.7798 181.826 34.3807 182.108 34.0361" stroke="#323232" stroke-linecap="round" stroke-linejoin="round"/>
<path d="M203.268 30.914C203.268 31.2377 203.169 31.554 202.981 31.8232C202.793 32.0923 202.526 32.3021 202.215 32.426C201.903 32.5499 201.56 32.5822 201.229 32.5192C200.899 32.4559 200.593 32.3001 200.356 32.0712C200.116 31.8424 199.953 31.5507 199.888 31.2332C199.822 30.9158 199.857 30.5868 199.985 30.2877C200.115 29.9886 200.333 29.7329 200.614 29.5531C200.894 29.3733 201.225 29.2773 201.562 29.2773C202.012 29.2829 202.444 29.457 202.763 29.7628C203.081 30.0685 203.263 30.4817 203.268 30.914Z" stroke="#323232" stroke-linecap="round" stroke-linejoin="round"/>
<path d="M211.987 99.8016C211.987 100.125 211.888 100.442 211.7 100.711C211.512 100.98 211.245 101.19 210.934 101.314C210.622 101.437 210.279 101.47 209.948 101.406C209.617 101.344 209.312 101.188 209.074 100.959C208.835 100.731 208.672 100.438 208.607 100.121C208.541 99.803 208.575 99.4743 208.704 99.1748C208.832 98.8767 209.052 98.6209 209.333 98.4407C209.613 98.2605 209.943 98.165 210.281 98.165C210.504 98.165 210.727 98.2061 210.934 98.2883C211.142 98.3704 211.329 98.491 211.488 98.6434C211.647 98.7958 211.773 98.9761 211.859 99.1748C211.944 99.3736 211.987 99.587 211.987 99.8016Z" stroke="#323232" stroke-linecap="round" stroke-linejoin="round"/>
<path d="M140.334 130.797L137.184 177.705" stroke="#323232" stroke-linecap="round" stroke-linejoin="round"/>
<path d="M88.9003 25.273H73.252V10.2666H88.9003V25.273Z" stroke="#323232" stroke-linecap="round" stroke-linejoin="round"/>
<path d="M81.0762 13.6917L85.6446 4.45117" stroke="#323232" stroke-linecap="round" stroke-linejoin="round"/>
<path d="M36.0478 133.402H24.1016" stroke="#323232" stroke-linecap="round" stroke-linejoin="round"/>
<path d="M30.0605 139.131V127.675" stroke="#323232" stroke-linecap="round" stroke-linejoin="round"/>
<path d="M230.342 251.139C230.404 251.797 230.262 252.456 229.933 253.036C229.604 253.616 229.102 254.089 228.493 254.395C227.883 254.703 227.194 254.829 226.51 254.76C225.824 254.689 225.178 254.427 224.648 254.004C224.121 253.582 223.734 253.018 223.539 252.386C223.344 251.753 223.349 251.078 223.554 250.449C223.758 249.818 224.154 249.26 224.688 248.845C225.225 248.431 225.875 248.177 226.561 248.118C227.017 248.073 227.477 248.116 227.917 248.245C228.355 248.374 228.761 248.584 229.113 248.867C229.466 249.147 229.756 249.493 229.967 249.884C230.177 250.274 230.304 250.701 230.342 251.139Z" stroke="#323232" stroke-linecap="round" stroke-linejoin="round"/>
<path d="M1.10156 177.704H263.657" stroke="#323232" stroke-linecap="round" stroke-linejoin="round"/>
<path d="M94.832 174.406H124.159" stroke="#323232" stroke-linecap="round" stroke-linejoin="round"/>
<path d="M64.5625 174.406H94.7826" stroke="#323232" stroke-linecap="round" stroke-linejoin="round"/>
<path d="M94.8312 174.367C94.553 171.935 93.9898 169.541 93.1522 167.23C87.9145 168.45 82.439 168.372 77.2414 167.003C71.0122 169.032 65.5246 172.738 61.4355 177.68C73.5656 177.68 81.6261 177.705 90.763 177.68" stroke="#323232" stroke-linecap="round" stroke-linejoin="round"/>
<path d="M122.482 167.23C117.746 168.528 112.726 168.528 107.989 167.23C101.45 169.049 93.083 175.457 90.7656 177.68C104.629 177.68 113.345 177.554 124.241 177.554C124.337 174.037 123.741 170.534 122.482 167.23Z" stroke="#323232" stroke-linecap="round" stroke-linejoin="round"/>
<path d="M137.184 124.729L137.84 122.186L145.533 124.779" stroke="#323232" stroke-linecap="round" stroke-linejoin="round"/>
<path d="M137.184 124.729L140.334 125.182L168.686 122.961" stroke="#323232" stroke-linecap="round" stroke-linejoin="round"/>
<path d="M172.341 123.218L163.414 122.589" stroke="#323232" stroke-linecap="round" stroke-linejoin="round"/>
<path d="M89.873 163.478L112.085 127.75" stroke="#323232" stroke-linecap="round" stroke-linejoin="round"/>
<path d="M138.338 90.6621C140.701 94.0109 141.305 98.6437 140.097 104.561" stroke="#323232" stroke-linecap="round" stroke-linejoin="round"/>
<path d="M135.742 130.294L140.337 130.797L169.08 128.506C169.684 128.461 170.257 128.234 170.719 127.859C171.18 127.484 171.508 126.979 171.653 126.416L184.072 68.6818C184.207 68.0621 184.2 67.4217 184.051 66.8048C183.903 66.1878 183.617 65.6092 183.212 65.1088C182.807 64.6084 182.295 64.1983 181.709 63.9066C181.123 63.6149 180.477 63.4488 179.818 63.4195L146.166 61.8584" stroke="#323232" stroke-linecap="round" stroke-linejoin="round"/>
<path d="M124.844 108.187C122.155 108.683 119.681 109.938 117.74 111.791C115.799 113.644 114.479 116.009 113.947 118.585L105.104 161.59C111.85 164.651 119.339 165.889 126.764 165.168C126.764 165.044 134.805 133.946 137.188 124.731" stroke="#323232" stroke-linecap="round" stroke-linejoin="round"/>
<path d="M103.524 47.4805C104.735 47.4811 105.897 47.943 106.753 48.7644C107.61 49.5859 108.091 50.6999 108.092 51.8615V83.7124C108.092 84.8746 107.611 85.9892 106.754 86.8112C105.898 87.6333 104.736 88.0955 103.524 88.0962H58.1278C56.9152 88.0958 55.7521 87.6345 54.8934 86.8134C54.0348 85.9921 53.5506 84.8781 53.5469 83.7151V51.8615C53.5458 51.2865 53.663 50.7171 53.8917 50.1856C54.1204 49.654 54.456 49.171 54.8796 48.7642C55.3031 48.3572 55.8062 48.0344 56.3601 47.8142C56.9138 47.5939 57.5075 47.4805 58.1071 47.4805H103.524Z" stroke="#323232" stroke-linecap="round" stroke-linejoin="round"/>
<path d="M109.825 51.8615V83.6873C109.824 84.8489 109.342 85.9629 108.486 86.7844C107.629 87.6058 106.468 88.0677 105.256 88.0683H103.523C104.735 88.0677 105.896 87.6058 106.753 86.7844C107.61 85.9629 108.091 84.8489 108.092 83.6873V51.8615C108.091 50.6999 107.61 49.5859 106.753 48.7644C105.896 47.943 104.735 47.4811 103.523 47.4805H105.256C106.468 47.4811 107.629 47.943 108.486 48.7644C109.342 49.5859 109.824 50.6999 109.825 51.8615Z" stroke="#323232" stroke-linecap="round" stroke-linejoin="round"/>
<path d="M146.06 49.7984C147.995 48.4308 149.376 51.5914 145.771 53.1723C145.27 53.3923 143.723 58.2332 145.272 60.8584C142.799 61.6389 139.811 62.1041 137.684 60.657C138.808 59.4996 139.475 58.0029 139.573 56.4243C132.747 56.525 139.258 46.6299 139.39 46.6299C142.727 42.1547 144.977 46.8631 144.802 49.6672C144.751 50.4954 145.357 50.2927 146.06 49.7984Z" stroke="#323232" stroke-linecap="round" stroke-linejoin="round"/>
<path d="M162.398 123.413C164.142 122.159 165.535 120.511 166.451 118.615C167.369 116.718 167.779 114.632 167.65 112.546C167.554 111.351 167.372 110.166 167.106 109.003" stroke="#323232" stroke-linecap="round" stroke-linejoin="round"/>
<path d="M163.781 101.084C164.494 102.198 165.115 103.361 165.64 104.56" stroke="#323232" stroke-linecap="round" stroke-linejoin="round"/>
<path d="M194.449 103.352C194.449 103.673 194.316 103.98 194.08 104.207C193.844 104.433 193.523 104.561 193.189 104.561H183.737C183.402 104.561 183.082 104.433 182.846 104.207C182.609 103.98 182.477 103.673 182.477 103.352V89.9517C182.477 89.631 182.609 89.3239 182.846 89.0971C183.082 88.8705 183.402 88.7432 183.737 88.7432H193.183C193.349 88.7432 193.512 88.7744 193.666 88.8351C193.819 88.896 193.957 88.9849 194.075 89.0971C194.192 89.2094 194.285 89.3425 194.348 89.4892C194.41 89.6363 194.444 89.7927 194.444 89.9517L194.449 103.352Z" stroke="#323232" stroke-linecap="round" stroke-linejoin="round"/>
<path d="M222.175 101.414C222.278 101.417 222.376 101.454 222.451 101.517C222.524 101.581 222.566 101.667 222.568 101.759V104.214C222.566 104.306 222.524 104.392 222.451 104.455C222.376 104.519 222.278 104.556 222.175 104.559H198.413C198.31 104.556 198.212 104.519 198.137 104.455C198.064 104.392 198.022 104.306 198.02 104.214V101.759C198.022 101.667 198.064 101.581 198.137 101.517C198.212 101.454 198.31 101.417 198.413 101.414H222.175Z" stroke="#323232" stroke-linecap="round" stroke-linejoin="round"/>
<path d="M140.334 130.796V125.182" stroke="#323232" stroke-linecap="round" stroke-linejoin="round"/>
<path d="M191.799 25.0176L179.013 28.3663C178.785 28.4254 178.576 28.5411 178.409 28.7017C178.242 28.8625 178.121 29.0626 178.059 29.282C177.998 29.5014 177.998 29.7323 178.059 29.9517C178.121 30.171 178.242 30.3711 178.409 30.5317L189.909 41.4592C190.076 41.6197 190.285 41.7351 190.514 41.7939C190.742 41.8528 190.984 41.8528 191.212 41.7941C191.441 41.7355 191.65 41.6201 191.817 41.4597C191.984 41.2992 192.105 41.0994 192.167 40.8801L195.58 28.3915L191.799 25.0176Z" stroke="#323232" stroke-linejoin="round"/>
</svg>
