<svg width="24" height="24" viewBox="0 0 36 44" fill="none" xmlns="http://www.w3.org/2000/svg">
<path d="M9.66658 10.5832C9.1143 10.5832 8.66658 11.0309 8.66658 11.5832C8.66658 12.1355 9.1143 12.5832 9.66658 12.5832V10.5832ZM26.3333 12.5832C26.8855 12.5832 27.3333 12.1355 27.3333 11.5832C27.3333 11.0309 26.8855 10.5832 26.3333 10.5832V12.5832ZM9.66658 18.9165C9.1143 18.9165 8.66658 19.3642 8.66658 19.9165C8.66658 20.4688 9.1143 20.9165 9.66658 20.9165V18.9165ZM17.9999 20.9165C18.5522 20.9165 18.9999 20.4688 18.9999 19.9165C18.9999 19.3642 18.5522 18.9165 17.9999 18.9165V20.9165ZM7.58325 31.3332H34.6666V29.3332H7.58325V31.3332ZM28.4166 41.8332H7.58325V43.8332H28.4166V41.8332ZM7.58325 41.8332C4.68376 41.8332 2.33325 39.4827 2.33325 36.5832H0.333252C0.333252 40.5872 3.57919 43.8332 7.58325 43.8332V41.8332ZM28.4166 43.8332C32.4207 43.8332 35.6666 40.5872 35.6666 36.5832H33.6666C33.6666 39.4827 31.3161 41.8332 28.4166 41.8332V43.8332ZM7.58325 29.3332C3.57919 29.3332 0.333252 32.5791 0.333252 36.5832H2.33325C2.33325 33.6837 4.68376 31.3332 7.58325 31.3332V29.3332ZM7.58325 2.1665H28.4166V0.166504H7.58325V2.1665ZM33.6666 7.4165V36.5832H35.6666V7.4165H33.6666ZM2.33325 36.5832V7.4165H0.333252V36.5832H2.33325ZM28.4166 2.1665C31.3161 2.1665 33.6666 4.51701 33.6666 7.4165H35.6666C35.6666 3.41244 32.4207 0.166504 28.4166 0.166504V2.1665ZM7.58325 0.166504C3.57919 0.166504 0.333252 3.41244 0.333252 7.4165H2.33325C2.33325 4.51701 4.68376 2.1665 7.58325 2.1665V0.166504ZM9.66658 12.5832H26.3333V10.5832H9.66658V12.5832ZM9.66658 20.9165H17.9999V18.9165H9.66658V20.9165Z" fill="#273E47"/>
</svg>
