<svg width="537" height="400" viewBox="0 0 537 400" fill="none" xmlns="http://www.w3.org/2000/svg">
<path d="M536.826 351.514H0V351.782H536.826V351.514Z" fill="#E6E6E6"/>
<path d="M478.688 360.801H441.754V361.069H478.688V360.801Z" fill="#E6E6E6"/>
<path d="M278.773 360.801H267.736V361.069H278.773V360.801Z" fill="#E6E6E6"/>
<path d="M430.534 366.083H409.748V366.351H430.534V366.083Z" fill="#E6E6E6"/>
<path d="M124.146 361.435H77.7754V361.703H124.146V361.435Z" fill="#E6E6E6"/>
<path d="M138.146 357.612H119.314V357.881H138.146V357.612Z" fill="#E6E6E6"/>
<path d="M342.861 368.982H242.281V369.251H342.861V368.982Z" fill="#E6E6E6"/>
<path d="M254.455 303.629H47.1433C45.5192 303.626 43.9626 302.979 42.8152 301.83C41.6679 300.68 41.0234 299.122 41.0234 297.498V6.07687C41.0376 4.46213 41.6882 2.91816 42.8341 1.78035C43.9799 0.642536 45.5285 0.00276615 47.1433 0H254.455C256.081 0 257.64 0.645896 258.79 1.7956C259.94 2.9453 260.585 4.50463 260.585 6.13056V297.498C260.585 299.124 259.94 300.684 258.79 301.833C257.64 302.983 256.081 303.629 254.455 303.629ZM47.1433 0.214731C45.5904 0.217575 44.1021 0.836445 43.005 1.9355C41.908 3.03456 41.2918 4.52399 41.2919 6.07687V297.498C41.2918 299.051 41.908 300.541 43.005 301.64C44.1021 302.739 45.5904 303.358 47.1433 303.361H254.455C256.009 303.358 257.498 302.739 258.597 301.64C259.696 300.542 260.314 299.052 260.317 297.498V6.07687C260.314 4.52301 259.696 3.0336 258.597 1.93485C257.498 0.836097 256.009 0.217569 254.455 0.214731H47.1433Z" fill="#E6E6E6"/>
<path d="M486.697 303.629H279.375C277.75 303.626 276.192 302.979 275.043 301.83C273.894 300.681 273.247 299.123 273.244 297.498V6.07687C273.261 4.46115 273.914 2.9172 275.062 1.77968C276.209 0.642161 277.759 0.00273598 279.375 0H486.697C488.31 0.00558782 489.856 0.646606 490.999 1.78412C492.143 2.92163 492.792 4.46398 492.806 6.07687V297.498C492.806 299.121 492.163 300.677 491.018 301.826C489.873 302.975 488.319 303.623 486.697 303.629ZM279.375 0.214731C277.821 0.217569 276.331 0.836097 275.233 1.93485C274.134 3.0336 273.515 4.52301 273.513 6.07687V297.498C273.515 299.052 274.134 300.542 275.233 301.64C276.331 302.739 277.821 303.358 279.375 303.361H486.697C488.251 303.358 489.74 302.739 490.839 301.64C491.938 300.542 492.556 299.052 492.559 297.498V6.07687C492.556 4.52301 491.938 3.0336 490.839 1.93485C489.74 0.836097 488.251 0.217569 486.697 0.214731H279.375Z" fill="#E6E6E6"/>
<path d="M219.325 351.514H310.392C301.47 317.865 306.817 281.63 326.411 247.981H235.344C215.739 281.63 210.435 317.865 219.325 351.514Z" fill="#FAFAFA"/>
<path d="M216.223 296.328H308.278C311.439 279.287 317.569 262.933 326.39 248.014H234.346C225.525 262.934 219.391 279.287 216.223 296.328Z" fill="#E6E6E6"/>
<path d="M80.4167 283.595L448.508 283.595C454.556 283.595 459.459 278.692 459.459 272.643L459.459 45.9525C459.459 39.9043 454.556 35.0012 448.508 35.0012L80.4167 35.0012C74.3685 35.0012 69.4654 39.9043 69.4654 45.9525L69.4654 272.643C69.4654 278.692 74.3685 283.595 80.4167 283.595Z" fill="#E6E6E6"/>
<path d="M85.5807 283.595L453.672 283.595C459.72 283.595 464.623 278.692 464.623 272.643L464.623 45.9525C464.623 39.9043 459.72 35.0012 453.672 35.0012L85.5807 35.0012C79.5325 35.0012 74.6295 39.9043 74.6295 45.9525L74.6295 272.643C74.6295 278.692 79.5325 283.595 85.5807 283.595Z" fill="#F5F5F5"/>
<path d="M74.6295 247.992L464.623 247.992V47.5949L74.6295 47.5949V247.992Z" fill="white"/>
<path d="M269.638 273.706C273.759 273.706 277.1 270.365 277.1 266.244C277.1 262.123 273.759 258.782 269.638 258.782C265.517 258.782 262.176 262.123 262.176 266.244C262.176 270.365 265.517 273.706 269.638 273.706Z" fill="#E6E6E6"/>
<path d="M236.204 344.31H340.166C342.077 344.31 343.909 345.069 345.26 346.42C346.611 347.771 347.37 349.603 347.37 351.514H229.021C229.021 349.607 229.778 347.778 231.124 346.427C232.47 345.077 234.297 344.315 236.204 344.31Z" fill="#F5F5F5"/>
<path d="M211.51 344.31H230.127C232.036 344.313 233.865 345.073 235.214 346.424C236.563 347.774 237.32 349.605 237.32 351.514H204.252C204.253 350.564 204.442 349.623 204.808 348.746C205.174 347.869 205.71 347.073 206.384 346.404C207.059 345.734 207.858 345.205 208.738 344.846C209.618 344.486 210.56 344.304 211.51 344.31Z" fill="#E6E6E6"/>
<path d="M305.455 18.9499C305.452 17.342 304.812 15.8007 303.675 14.6637C302.538 13.5266 300.996 12.8866 299.388 12.8838H110.426C108.818 12.8894 107.279 13.5304 106.142 14.6668C105.006 15.8032 104.365 17.3428 104.359 18.9499V38.4689H305.455V18.9499Z" fill="#E6E6E6"/>
<path d="M256.42 30.2667C258.952 30.2667 261.005 28.2141 261.005 25.6821C261.005 23.1502 258.952 21.0977 256.42 21.0977C253.888 21.0977 251.836 23.1502 251.836 25.6821C251.836 28.2141 253.888 30.2667 256.42 30.2667Z" fill="white"/>
<path d="M272.665 30.2667C275.197 30.2667 277.249 28.2141 277.249 25.6821C277.249 23.1502 275.197 21.0977 272.665 21.0977C270.133 21.0977 268.08 23.1502 268.08 25.6821C268.08 28.2141 270.133 30.2667 272.665 30.2667Z" fill="white"/>
<path d="M288.92 30.2667C291.452 30.2667 293.505 28.2141 293.505 25.6821C293.505 23.1502 291.452 21.0977 288.92 21.0977C286.389 21.0977 284.336 23.1502 284.336 25.6821C284.336 28.2141 286.389 30.2667 288.92 30.2667Z" fill="white"/>
<path d="M110.478 169.938H299.441C301.047 169.935 302.587 169.296 303.724 168.161C304.86 167.027 305.502 165.488 305.507 163.882V38.4688H104.412V163.882C104.421 165.487 105.063 167.024 106.199 168.158C107.335 169.292 108.873 169.932 110.478 169.938Z" fill="#FAFAFA"/>
<path d="M318.982 39.2419C318.976 37.6377 318.336 36.1007 317.202 34.9664C316.068 33.832 314.531 33.1922 312.926 33.1865H124.017C122.411 33.1894 120.872 33.8279 119.735 34.9626C118.598 36.0973 117.957 37.6358 117.951 39.2419V58.7717H318.982V39.2419Z" fill="#F5F5F5"/>
<path d="M269.948 50.5586C272.48 50.5586 274.532 48.5061 274.532 45.9741C274.532 43.4422 272.48 41.3896 269.948 41.3896C267.416 41.3896 265.363 43.4422 265.363 45.9741C265.363 48.5061 267.416 50.5586 269.948 50.5586Z" fill="#E6E6E6"/>
<path d="M286.204 50.5586C288.736 50.5586 290.788 48.5061 290.788 45.9741C290.788 43.4422 288.736 41.3896 286.204 41.3896C283.672 41.3896 281.619 43.4422 281.619 45.9741C281.619 48.5061 283.672 50.5586 286.204 50.5586Z" fill="#E6E6E6"/>
<path d="M307.065 45.9741C307.065 46.8809 306.797 47.7672 306.293 48.5212C305.789 49.2751 305.073 49.8627 304.235 50.2097C303.398 50.5567 302.476 50.6474 301.587 50.4705C300.697 50.2937 299.88 49.857 299.239 49.2159C298.598 48.5747 298.161 47.7578 297.985 46.8685C297.808 45.9792 297.898 45.0574 298.245 44.2197C298.592 43.382 299.18 42.666 299.934 42.1623C300.688 41.6585 301.574 41.3896 302.481 41.3896C303.697 41.3896 304.863 41.8727 305.723 42.7324C306.582 43.5922 307.065 44.7583 307.065 45.9741Z" fill="#E6E6E6"/>
<path d="M124.017 190.24H312.98C314.586 190.235 316.125 189.593 317.26 188.457C318.394 187.32 319.033 185.78 319.036 184.174V58.7715H117.951V184.174C117.954 185.782 118.594 187.323 119.731 188.46C120.868 189.597 122.409 190.237 124.017 190.24Z" fill="white"/>
<path d="M332.522 59.5447C332.519 57.9367 331.879 56.3954 330.742 55.2584C329.605 54.1214 328.064 53.4814 326.456 53.4785H137.547C135.939 53.4814 134.397 54.1214 133.26 55.2584C132.123 56.3954 131.483 57.9367 131.48 59.5447V79.0637H332.522V59.5447Z" fill="#FAFAFA"/>
<path d="M283.487 70.8614C286.019 70.8614 288.071 68.8088 288.071 66.2769C288.071 63.7449 286.019 61.6924 283.487 61.6924C280.955 61.6924 278.902 63.7449 278.902 66.2769C278.902 68.8088 280.955 70.8614 283.487 70.8614Z" fill="#F0F0F0"/>
<path d="M299.731 70.8614C302.263 70.8614 304.315 68.8088 304.315 66.2769C304.315 63.7449 302.263 61.6924 299.731 61.6924C297.199 61.6924 295.146 63.7449 295.146 66.2769C295.146 68.8088 297.199 70.8614 299.731 70.8614Z" fill="#F0F0F0"/>
<path d="M320.571 66.2769C320.573 67.1862 320.306 68.0757 319.802 68.8328C319.298 69.5899 318.582 70.1805 317.742 70.53C316.903 70.8794 315.978 70.972 315.086 70.7959C314.194 70.6198 313.374 70.183 312.731 69.5407C312.087 68.8985 311.648 68.0797 311.47 67.1881C311.292 66.2964 311.382 65.3719 311.73 64.5316C312.077 63.6913 312.666 62.973 313.422 62.4676C314.178 61.9622 315.067 61.6924 315.976 61.6924C317.193 61.6924 318.36 62.175 319.222 63.0345C320.083 63.894 320.568 65.06 320.571 66.2769Z" fill="#F0F0F0"/>
<path d="M137.547 210.543H326.509C328.117 210.537 329.656 209.896 330.793 208.76C331.929 207.624 332.57 206.084 332.576 204.477V79.0635H131.48V204.477C131.486 206.084 132.127 207.624 133.263 208.76C134.4 209.896 135.94 210.537 137.547 210.543Z" fill="#E6E6E6"/>
<path opacity="0.5" d="M383.295 132.489H314.055V235.882H417.458V132.489H383.295ZM349.099 133.294H382.479V166.685H349.066L349.099 133.294ZM382.479 200.881H349.066V167.49H382.446L382.479 200.881ZM314.903 133.294H348.283V166.685H314.871L314.903 133.294ZM314.903 167.49H348.283V200.881H314.871L314.903 167.49ZM348.25 235.13H314.871V201.74H348.25V235.13ZM382.446 235.13H349.066V201.74H382.446V235.13ZM416.642 235.13H383.295V201.74H416.674L416.642 235.13ZM416.642 200.935H383.295V167.49H416.674L416.642 200.935ZM383.295 166.685V133.294H416.674V166.685H383.295Z" fill="#E6E6E6"/>
<path d="M355.358 116.566L476.047 116.566V61.6813L355.358 61.6813V116.566Z" fill="#F5F5F5"/>
<path d="M476.047 83.0787V116.577H355.379V74.9727C375.403 74.9727 386.085 93.3321 410.855 93.3321C435.624 93.3321 443.086 83.0787 476.047 83.0787Z" fill="white"/>
<path d="M476.047 99.0874C448.926 99.0874 439.972 87.0947 424.737 87.0947C409.502 87.0947 402.018 99.6887 383.036 99.6887C363.26 99.6887 355.357 89.7896 355.357 89.7896V116.631H476.047V99.0874Z" fill="#E6E6E6"/>
<path d="M268.413 400C383.382 400 476.583 394.558 476.583 387.846C476.583 381.134 383.382 375.692 268.413 375.692C153.443 375.692 60.2422 381.134 60.2422 387.846C60.2422 394.558 153.443 400 268.413 400Z" fill="#F5F5F5"/>
<path d="M216.879 168.049C212.382 151.96 214.171 134.764 221.882 119.945C229.594 105.126 242.651 93.7937 258.407 88.2441L262.455 101.064C250.114 105.555 239.908 114.513 233.855 126.167C227.801 137.821 226.341 151.322 229.762 164.001L216.879 168.049Z" fill="#407BFF"/>
<path d="M249.721 208.547C244.66 205.934 239.967 202.663 235.763 198.82C227.788 191.509 221.737 182.345 218.145 172.139L230.964 168.092C233.96 176.395 239.007 183.805 245.636 189.634C252.265 195.463 260.26 199.522 268.878 201.432C277.496 203.342 286.457 203.042 294.928 200.56C303.399 198.078 311.104 193.494 317.329 187.235L327.238 196.318C317.327 206.383 304.447 213.002 290.494 215.203C276.541 217.404 262.249 215.071 249.721 208.547Z" fill="#407BFF"/>
<path opacity="0.7" d="M249.721 208.547C244.66 205.934 239.967 202.663 235.763 198.82C227.788 191.509 221.737 182.345 218.145 172.139L230.964 168.092C233.96 176.395 239.007 183.805 245.636 189.634C252.265 195.463 260.26 199.522 268.878 201.432C277.496 203.342 286.457 203.042 294.928 200.56C303.399 198.078 311.104 193.494 317.329 187.235L327.238 196.318C317.327 206.383 304.447 213.002 290.494 215.203C276.541 217.404 262.249 215.071 249.721 208.547Z" fill="white"/>
<path d="M320.281 184.068C327.475 175.541 331.756 164.939 332.501 153.808C333.247 142.677 330.417 131.598 324.424 122.189C318.431 112.779 309.589 105.53 299.187 101.498C288.785 97.4659 277.367 96.8623 266.598 99.7751L262.551 86.8913C279.003 82.2836 296.602 84.2531 311.628 92.3834C326.654 100.514 337.931 114.168 343.075 130.46C346.419 141.132 346.997 152.478 344.755 163.434C342.512 174.39 337.523 184.597 330.255 193.097L320.281 184.068Z" fill="#407BFF"/>
<path opacity="0.3" d="M320.281 184.068C327.475 175.541 331.756 164.939 332.501 153.808C333.247 142.677 330.417 131.598 324.424 122.189C318.431 112.779 309.589 105.53 299.187 101.498C288.785 97.4659 277.367 96.8623 266.598 99.7751L262.551 86.8913C279.003 82.2836 296.602 84.2531 311.628 92.3834C326.654 100.514 337.931 114.168 343.075 130.46C346.419 141.132 346.997 152.478 344.755 163.434C342.512 174.39 337.523 184.597 330.255 193.097L320.281 184.068Z" fill="black"/>
<path d="M292.517 134.422C290.999 132.904 289.198 131.7 287.216 130.878C285.233 130.056 283.108 129.633 280.962 129.633C278.816 129.632 276.691 130.054 274.709 130.875C272.726 131.696 270.924 132.899 269.406 134.416C267.888 135.934 266.684 137.735 265.863 139.717C265.041 141.7 264.618 143.825 264.617 145.971C264.617 148.117 265.039 150.242 265.86 152.224C266.68 154.207 267.884 156.009 269.401 157.527L280.953 169.079L292.517 157.527C295.58 154.462 297.3 150.307 297.3 145.974C297.3 141.642 295.58 137.486 292.517 134.422Z" fill="#407BFF"/>
<path opacity="0.3" d="M292.517 134.422C290.999 132.904 289.198 131.7 287.216 130.878C285.233 130.056 283.108 129.633 280.962 129.633C278.816 129.632 276.691 130.054 274.709 130.875C272.726 131.696 270.924 132.899 269.406 134.416C267.888 135.934 266.684 137.735 265.863 139.717C265.041 141.7 264.618 143.825 264.617 145.971C264.617 148.117 265.039 150.242 265.86 152.224C266.68 154.207 267.884 156.009 269.401 157.527L280.953 169.079L292.517 157.527C295.58 154.462 297.3 150.307 297.3 145.974C297.3 141.642 295.58 137.486 292.517 134.422Z" fill="black"/>
<path d="M281.609 172.504H280.32V177.657H281.609V172.504Z" fill="#407BFF"/>
<path opacity="0.3" d="M281.609 172.504H280.32V177.657H281.609V172.504Z" fill="black"/>
<path d="M281.609 181.642H280.32V186.795H281.609V181.642Z" fill="#407BFF"/>
<path opacity="0.3" d="M281.609 181.642H280.32V186.795H281.609V181.642Z" fill="black"/>
<path d="M236.365 223.342H192.635V381.684H236.365V223.342Z" fill="#407BFF"/>
<path opacity="0.7" d="M236.365 223.342H192.635V381.684H236.365V223.342Z" fill="white"/>
<path d="M257.355 223.342H236.365V381.684H257.355V223.342Z" fill="#407BFF"/>
<path opacity="0.5" d="M257.355 223.342H236.365V381.684H257.355V223.342Z" fill="white"/>
<path d="M317.222 281.62H316.105V306.271H317.222V281.62Z" fill="#263238"/>
<path d="M317.222 267.125H316.105V277.035H317.222V267.125Z" fill="#263238"/>
<path d="M348.283 321.56H304.553V381.684H348.283V321.56Z" fill="#407BFF"/>
<path opacity="0.5" d="M348.283 321.56H304.553V381.684H348.283V321.56Z" fill="black"/>
<path d="M369.271 321.56H348.281V381.684H369.271V321.56Z" fill="#407BFF"/>
<path opacity="0.6" d="M369.271 321.56H348.281V381.684H369.271V321.56Z" fill="black"/>
<path d="M292.324 189.865H248.594V381.684H292.324V189.865Z" fill="#407BFF"/>
<path opacity="0.7" d="M292.324 189.865H248.594V381.684H292.324V189.865Z" fill="black"/>
<path d="M313.314 189.865H292.324V381.684H313.314V189.865Z" fill="#407BFF"/>
<path opacity="0.8" d="M313.314 189.865H292.324V381.684H313.314V189.865Z" fill="black"/>
<path d="M378.173 145.619C376.67 157.494 374.78 169.401 373.095 181.179C372.885 182.899 372.574 184.606 372.161 186.289C371.678 188.013 371.06 189.697 370.314 191.325C368.89 194.386 367.11 197.269 365.01 199.914C363.01 202.455 360.805 204.829 358.418 207.011C357.258 208.084 356.024 209.158 354.778 210.092C353.533 211.026 352.298 211.992 350.87 212.926L347.059 208.17C347.95 207.182 348.959 206.023 349.872 204.949C350.784 203.876 351.686 202.716 352.566 201.578C354.288 199.353 355.862 197.018 357.28 194.588C358.646 192.31 359.772 189.895 360.64 187.384C361.04 186.223 361.345 185.031 361.553 183.82C361.741 182.549 361.863 181.27 361.918 179.987C362.315 173.888 362.916 167.855 363.582 161.831C364.248 155.808 365.042 149.86 365.987 143.869L378.173 145.619Z" fill="#E58A7B"/>
<path d="M380.846 141.539C383.584 148.808 369.723 170.206 369.723 170.206L353.479 161.391C355.923 154.732 359.08 148.357 362.894 142.377C368.606 133.809 377.85 133.562 380.846 141.539Z" fill="#407BFF"/>
<path opacity="0.2" d="M380.846 141.539C383.584 148.808 369.723 170.206 369.723 170.206L353.479 161.391C355.923 154.732 359.08 148.357 362.894 142.377C368.606 133.809 377.85 133.562 380.846 141.539Z" fill="black"/>
<path d="M371.205 135.978C371.205 135.978 361.617 160.511 370.722 206.184H414.173C414.473 199.517 410.275 166.985 416.706 135.57C411.906 134.639 407.05 134.022 402.169 133.723C396.019 133.368 389.853 133.368 383.702 133.723C379.484 134.148 375.306 134.902 371.205 135.978Z" fill="#407BFF"/>
<path opacity="0.2" d="M371.205 135.978C371.205 135.978 361.617 160.511 370.722 206.184H414.173C414.473 199.517 410.275 166.985 416.706 135.57C411.906 134.639 407.05 134.022 402.169 133.723C396.019 133.368 389.853 133.368 383.702 133.723C379.484 134.148 375.306 134.902 371.205 135.978Z" fill="black"/>
<path d="M376.971 377.84H368.854L366.686 359.029H374.813L376.971 377.84Z" fill="#E58A7B"/>
<path d="M434.131 377.84H426.014L419.68 359.029H427.807L434.131 377.84Z" fill="#E58A7B"/>
<path d="M424.929 376.852H434.828C434.99 376.851 435.146 376.906 435.272 377.008C435.397 377.11 435.483 377.252 435.515 377.41L437.126 384.636C437.161 384.811 437.156 384.992 437.113 385.166C437.069 385.339 436.987 385.501 436.873 385.639C436.759 385.777 436.615 385.887 436.453 385.963C436.29 386.038 436.113 386.076 435.934 386.074C432.713 386.021 430.426 385.838 426.411 385.838C423.941 385.838 418.895 386.096 415.449 386.096C412.002 386.096 411.594 382.724 412.99 382.413C419.249 381.05 421.579 379.192 423.608 377.356C423.971 377.03 424.442 376.85 424.929 376.852Z" fill="#263238"/>
<path d="M368.907 376.852H377.775C377.938 376.852 378.095 376.908 378.222 377.009C378.348 377.111 378.437 377.252 378.473 377.41L380.073 384.636C380.112 384.81 380.111 384.99 380.07 385.164C380.029 385.338 379.949 385.5 379.837 385.639C379.724 385.777 379.581 385.888 379.42 385.964C379.258 386.039 379.081 386.077 378.903 386.074C375.682 386.021 371.076 385.838 367.093 385.838C362.39 385.838 358.332 386.096 352.813 386.096C349.474 386.096 348.518 382.724 349.946 382.413C356.302 381.028 361.488 380.878 366.985 377.485C367.556 377.103 368.221 376.884 368.907 376.852Z" fill="#263238"/>
<path d="M350.01 205.067L343.203 210.758L352.147 216.008C353.465 214.99 354.423 213.577 354.881 211.976C355.339 210.374 355.272 208.668 354.691 207.107L350.01 205.067Z" fill="#E58A7B"/>
<path d="M366.695 359.04L367.801 368.735H375.929L374.812 359.04H366.695Z" fill="#CF6F64"/>
<path d="M427.807 359.04H419.68L422.944 368.735H431.071L427.807 359.04Z" fill="#CF6F64"/>
<path opacity="0.2" d="M407.86 150.579C409.277 143.407 412.036 144.653 414.656 148.185C413.536 157.691 413.02 167.259 413.11 176.83C411.327 173.792 405.487 162.594 407.86 150.579Z" fill="black"/>
<path d="M400.333 112.938C399.173 118.875 398.014 129.762 402.169 133.723C402.169 133.723 400.548 139.757 389.5 139.757C377.357 139.757 383.702 133.734 383.702 133.734C390.326 132.145 390.144 127.228 388.995 122.611L400.333 112.938Z" fill="#E58A7B"/>
<path d="M395.716 116.889L389.006 122.611C389.292 123.684 389.483 124.78 389.575 125.886C392.109 125.521 395.587 122.74 395.856 120.088C396.001 119.022 395.954 117.938 395.716 116.889Z" fill="#CF6F64"/>
<path d="M381.446 94.6532C377.452 96.3495 375.284 107.537 380.373 110.124C385.462 112.712 389.016 91.4537 381.446 94.6532Z" fill="#263238"/>
<path d="M401.042 103.994C400.548 112.035 400.666 116.77 396.608 120.904C390.499 127.109 380.557 123.427 378.645 115.396C376.917 108.17 378.012 96.2204 385.893 93.0209C387.626 92.3075 389.513 92.0491 391.374 92.2701C393.235 92.4911 395.009 93.1842 396.526 94.2836C398.044 95.383 399.256 96.8523 400.046 98.5517C400.837 100.251 401.179 102.124 401.042 103.994Z" fill="#E58A7B"/>
<path d="M376.23 89.607C381.094 82.231 381.856 85.7848 381.781 89.2956C386.075 85.2372 394.01 80.0622 397.885 84.7863C398.344 85.2737 398.643 85.8901 398.741 86.5524C398.839 87.2146 398.731 87.891 398.433 88.4904C403.426 87.1591 408.461 86.7833 407.548 92.173C406.743 96.94 403.34 98.6901 398.573 98.7223C390.026 99.9033 369.337 100.021 376.23 89.607Z" fill="#263238"/>
<path d="M400.472 111.875C396.177 113.625 387.534 97.8529 400.536 95.9955C413.538 94.1381 407.354 109.051 400.472 111.875Z" fill="#263238"/>
<path d="M404.681 112.862C403.594 114.573 401.878 115.788 399.903 116.244C397.283 116.824 396.113 114.44 396.972 112.035C397.745 109.888 400.032 106.979 402.608 107.472C403.169 107.592 403.691 107.85 404.127 108.223C404.563 108.595 404.899 109.071 405.105 109.606C405.31 110.141 405.38 110.719 405.305 111.288C405.231 111.856 405.017 112.398 404.681 112.862Z" fill="#E58A7B"/>
<path d="M408.922 98.4322C408.325 97.7672 407.572 97.2618 406.73 96.9619C405.888 96.6619 404.985 96.5768 404.102 96.7144C404.102 96.7144 408.3 93.4075 408.922 98.4322Z" fill="#263238"/>
<path d="M370.721 206.142C370.721 206.142 347.863 264.226 348.7 289.006C349.613 314.774 364.805 366.857 364.805 366.857H378.569C378.569 366.857 372.933 316.266 373.545 290.971C374.21 263.378 399.312 206.152 399.312 206.152L370.721 206.142Z" fill="#407BFF"/>
<path opacity="0.2" d="M388.973 225.37L390.294 228.366C385.476 240.779 381.29 253.428 377.753 266.266C377.378 251.621 380.405 235.473 388.973 225.37Z" fill="black"/>
<path d="M386.14 206.142C386.14 206.142 381.513 265.536 386.57 288.813C392.11 314.28 419.123 366.835 419.123 366.835H434.004C434.004 366.835 414.098 316.373 410.931 291.121C407.506 263.754 414.152 206.163 414.152 206.163L386.14 206.142Z" fill="#407BFF"/>
<path d="M388.844 106.291C388.844 106.946 388.49 107.483 388.06 107.483C387.631 107.483 387.287 106.946 387.287 106.291C387.287 105.636 387.631 105.11 388.06 105.11C388.49 105.11 388.844 105.583 388.844 106.291Z" fill="#263238"/>
<path d="M381.436 106.291C381.436 106.946 381.081 107.483 380.663 107.483C380.244 107.483 379.879 106.946 379.879 106.291C379.879 105.636 380.233 105.11 380.663 105.11C381.092 105.11 381.436 105.583 381.436 106.291Z" fill="#263238"/>
<path d="M383.788 106.57C383.007 108.569 381.956 110.451 380.664 112.164C381.11 112.485 381.621 112.704 382.161 112.806C382.701 112.908 383.256 112.89 383.788 112.755V106.57Z" fill="#DF5753"/>
<path d="M385.699 114.569C385.648 114.569 385.599 114.549 385.562 114.513C385.526 114.477 385.506 114.427 385.506 114.376C385.506 114.325 385.526 114.276 385.562 114.24C385.599 114.203 385.648 114.183 385.699 114.183C386.514 114.201 387.322 114.027 388.057 113.674C388.792 113.321 389.433 112.801 389.929 112.154C389.943 112.133 389.961 112.114 389.983 112.1C390.004 112.086 390.027 112.076 390.052 112.071C390.077 112.066 390.103 112.066 390.128 112.071C390.153 112.076 390.177 112.086 390.198 112.1C390.238 112.128 390.265 112.17 390.275 112.218C390.285 112.266 390.277 112.316 390.251 112.358C389.728 113.067 389.04 113.638 388.247 114.024C387.455 114.409 386.58 114.596 385.699 114.569Z" fill="#263238"/>
<path d="M391.067 103.854C391.009 103.853 390.952 103.839 390.9 103.813C390.848 103.787 390.803 103.75 390.767 103.704C390.486 103.309 390.116 102.987 389.687 102.763C389.258 102.539 388.782 102.42 388.297 102.416C388.246 102.42 388.195 102.414 388.146 102.398C388.097 102.382 388.053 102.356 388.014 102.321C387.976 102.287 387.945 102.245 387.924 102.199C387.902 102.152 387.891 102.102 387.889 102.051C387.883 101.95 387.917 101.851 387.983 101.774C388.05 101.698 388.143 101.651 388.244 101.643C388.855 101.639 389.458 101.781 390.003 102.058C390.549 102.334 391.02 102.737 391.379 103.232C391.44 103.315 391.466 103.418 391.452 103.521C391.438 103.623 391.385 103.716 391.304 103.779C391.233 103.825 391.151 103.851 391.067 103.854Z" fill="#263238"/>
<path d="M378.194 103.693C378.137 103.703 378.079 103.703 378.022 103.693C377.976 103.671 377.935 103.641 377.901 103.603C377.868 103.565 377.842 103.52 377.826 103.472C377.81 103.424 377.804 103.373 377.808 103.322C377.812 103.272 377.826 103.223 377.85 103.178C378.104 102.624 378.487 102.141 378.967 101.767C379.448 101.393 380.011 101.14 380.609 101.03C380.705 101.029 380.797 101.062 380.869 101.125C380.941 101.187 380.987 101.274 380.999 101.368C381.011 101.463 380.988 101.558 380.934 101.636C380.88 101.715 380.799 101.77 380.706 101.793C380.237 101.895 379.799 102.105 379.426 102.407C379.053 102.709 378.756 103.094 378.559 103.532C378.519 103.59 378.464 103.636 378.399 103.665C378.335 103.693 378.264 103.703 378.194 103.693Z" fill="#263238"/>
<path d="M419.798 141.883C420.496 143.386 421.086 144.728 421.645 146.177C422.203 147.627 422.718 149.001 423.287 150.472C424.361 153.328 425.252 156.227 426.068 159.179C426.884 162.132 427.56 165.149 428.119 168.22L428.505 170.528L428.784 172.89C428.892 173.674 428.935 174.479 428.999 175.284L429.074 176.487V176.787V177.292C429.074 177.668 429.074 178.011 429.074 178.366C428.862 180.48 428.25 182.535 427.271 184.421C426.508 185.938 425.643 187.401 424.683 188.801C422.904 191.362 420.957 193.801 418.853 196.102C414.806 200.559 410.416 204.691 405.722 208.46L401.428 204.165C404.939 199.678 408.439 195.039 411.627 190.433C413.18 188.191 414.613 185.869 415.922 183.476C416.521 182.402 417.041 181.286 417.479 180.137C417.797 179.403 417.979 178.617 418.016 177.818V177.571L417.865 176.605C417.769 175.95 417.683 175.306 417.533 174.651L417.146 172.686L416.684 170.71C416.029 168.069 415.289 165.417 414.43 162.776C413.571 160.135 412.658 157.504 411.681 154.874C410.704 152.244 409.63 149.592 408.632 147.165L419.798 141.883Z" fill="#E58A7B"/>
<path d="M422.235 378.323C421.683 378.365 421.134 378.217 420.678 377.904C420.525 377.775 420.407 377.608 420.338 377.42C420.268 377.232 420.248 377.029 420.281 376.831C420.28 376.72 420.31 376.612 420.366 376.517C420.423 376.422 420.505 376.345 420.603 376.294C421.515 375.832 424.124 377.443 424.425 377.625C424.457 377.645 424.482 377.675 424.497 377.709C424.512 377.743 424.517 377.781 424.511 377.818C424.504 377.857 424.486 377.892 424.459 377.921C424.433 377.949 424.398 377.97 424.361 377.979C423.667 378.17 422.954 378.285 422.235 378.323ZM421.032 376.637C420.947 376.631 420.861 376.649 420.785 376.691C420.732 376.691 420.667 376.766 420.657 376.916C420.643 377.046 420.661 377.176 420.707 377.298C420.754 377.419 420.829 377.527 420.925 377.614C421.832 378.022 422.86 378.072 423.802 377.754C422.96 377.207 422.019 376.827 421.032 376.637Z" fill="#407BFF"/>
<path d="M424.318 378.033H424.232C423.384 377.572 421.763 375.8 421.935 374.888C421.964 374.746 422.04 374.619 422.152 374.528C422.263 374.436 422.402 374.385 422.547 374.383C422.692 374.366 422.84 374.38 422.98 374.422C423.12 374.464 423.251 374.535 423.362 374.63C424.307 375.403 424.501 377.744 424.511 377.851C424.512 377.884 424.505 377.918 424.49 377.947C424.475 377.977 424.453 378.003 424.425 378.023C424.392 378.037 424.354 378.041 424.318 378.033ZM422.686 374.705H422.589C422.343 374.705 422.321 374.845 422.31 374.898C422.214 375.435 423.244 376.777 424.082 377.411C424.023 376.486 423.691 375.6 423.126 374.866C423.003 374.762 422.847 374.705 422.686 374.705Z" fill="#407BFF"/>
<path d="M365.524 378.323C364.831 378.385 364.137 378.207 363.559 377.819C363.427 377.704 363.325 377.56 363.261 377.397C363.198 377.234 363.175 377.058 363.194 376.884C363.2 376.78 363.232 376.678 363.286 376.588C363.34 376.498 363.416 376.423 363.506 376.369C364.504 375.822 367.8 377.443 368.133 377.668C368.17 377.686 368.201 377.715 368.22 377.752C368.239 377.788 368.247 377.83 368.241 377.871C368.235 377.911 368.216 377.949 368.187 377.978C368.158 378.008 368.12 378.027 368.08 378.033C367.238 378.206 366.383 378.303 365.524 378.323ZM364.053 376.638C363.931 376.629 363.808 376.655 363.699 376.713C363.661 376.73 363.629 376.759 363.608 376.796C363.586 376.832 363.577 376.875 363.581 376.917C363.565 377.029 363.577 377.144 363.616 377.251C363.656 377.358 363.721 377.453 363.806 377.529C364.311 377.98 365.653 378.055 367.435 377.754C366.38 377.192 365.236 376.814 364.053 376.638Z" fill="#407BFF"/>
<path d="M368.048 378.033C368.02 378.043 367.99 378.043 367.962 378.033C366.985 377.593 365.042 375.885 365.192 374.919C365.192 374.704 365.374 374.436 365.911 374.382C366.103 374.363 366.297 374.382 366.482 374.44C366.666 374.497 366.837 374.59 366.985 374.715C368.058 375.563 368.241 377.754 368.241 377.839C368.246 377.874 368.242 377.909 368.228 377.941C368.215 377.973 368.194 378.001 368.166 378.022C368.128 378.037 368.087 378.041 368.048 378.033ZM366.115 374.704H365.997C365.654 374.704 365.632 374.876 365.621 374.919C365.535 375.467 366.856 376.852 367.854 377.453C367.764 376.528 367.388 375.654 366.781 374.951C366.597 374.79 366.36 374.702 366.115 374.704Z" fill="#407BFF"/>
<path d="M403.306 202.974L395.34 205.121L401.943 213.13C401.943 213.13 408.331 209.813 406.957 206.238L403.306 202.974Z" fill="#E58A7B"/>
<path d="M391.217 210.479L396.982 216.835L401.943 213.098L395.34 205.089L391.217 210.479Z" fill="#E58A7B"/>
<path d="M416.492 367.179H435.947V361.939L414.205 361.606L416.492 367.179Z" fill="#407BFF"/>
<path opacity="0.4" d="M416.492 367.179H435.947V361.939L414.205 361.606L416.492 367.179Z" fill="black"/>
<path d="M361.681 367.179H381.136V361.886L359.395 361.606L361.681 367.179Z" fill="#407BFF"/>
<path opacity="0.4" d="M361.681 367.179H381.136V361.886L359.395 361.606L361.681 367.179Z" fill="black"/>
<path d="M418.403 136.097C425.65 138.888 432.898 164.591 432.898 164.591L413.572 172.193C413.572 172.193 407.806 158.901 405.842 149.023C403.823 138.663 410.19 132.94 418.403 136.097Z" fill="#407BFF"/>
<path opacity="0.2" d="M418.403 136.097C425.65 138.888 432.898 164.591 432.898 164.591L413.572 172.193C413.572 172.193 407.806 158.901 405.842 149.023C403.823 138.663 410.19 132.94 418.403 136.097Z" fill="black"/>
<path d="M340.058 176.884C338 184.061 338.206 191.698 340.649 198.754C342.883 205.321 346.961 211.106 352.394 215.417C359.633 221.148 368.777 223.916 377.978 223.161C387.179 222.406 395.75 218.185 401.957 211.351C408.165 204.518 411.545 195.582 411.415 186.351C411.285 177.12 407.654 168.283 401.256 161.627C396.862 157.051 391.335 153.717 385.238 151.964C379.599 150.333 373.65 150.084 367.894 151.237C362.138 152.39 356.745 154.912 352.169 158.589C351.336 159.261 350.54 159.977 349.786 160.736C345.178 165.168 341.822 170.739 340.058 176.884Z" fill="#407BFF"/>
<path opacity="0.6" d="M340.058 176.884C338 184.061 338.206 191.698 340.649 198.754C342.883 205.321 346.961 211.106 352.394 215.417C359.633 221.148 368.777 223.916 377.978 223.161C387.179 222.406 395.75 218.185 401.957 211.351C408.165 204.518 411.545 195.582 411.415 186.351C411.285 177.12 407.654 168.283 401.256 161.627C396.862 157.051 391.335 153.717 385.238 151.964C379.599 150.333 373.65 150.084 367.894 151.237C362.138 152.39 356.745 154.912 352.169 158.589C351.336 159.261 350.54 159.977 349.786 160.736C345.178 165.168 341.822 170.739 340.058 176.884Z" fill="black"/>
<path d="M396.683 160.2L370.486 185.485L360.447 220.486C368.152 222.698 376.371 222.306 383.83 219.37C391.288 216.434 397.57 211.118 401.699 204.248C405.829 197.378 407.575 189.337 406.668 181.373C405.761 173.408 402.251 165.966 396.683 160.2Z" fill="#407BFF"/>
<path opacity="0.9" d="M396.683 160.2L370.486 185.485L360.447 220.486C368.152 222.698 376.371 222.306 383.83 219.37C391.288 216.434 397.57 211.118 401.699 204.248C405.829 197.378 407.575 189.337 406.668 181.373C405.761 173.408 402.251 165.966 396.683 160.2Z" fill="white"/>
<g opacity="0.7">
<path d="M370.485 185.484L396.683 160.189C392.243 155.589 386.67 152.239 380.524 150.476C374.379 148.714 367.877 148.601 361.674 150.148C355.471 151.696 349.785 154.849 345.187 159.292C340.59 163.735 337.243 169.31 335.484 175.456L370.485 185.484Z" fill="#407BFF"/>
<path opacity="0.44" d="M370.485 185.484L396.683 160.189C392.243 155.589 386.67 152.239 380.524 150.476C374.379 148.714 367.877 148.601 361.674 150.148C355.471 151.696 349.785 154.849 345.187 159.292C340.59 163.735 337.243 169.31 335.484 175.456L370.485 185.484Z" fill="white"/>
</g>
<path d="M342.645 215.589L350.536 218.08L352.114 216.04L343.171 210.79L342.645 215.589Z" fill="#E58A7B"/>
<path d="M370.485 185.484L335.495 175.456C332.837 184.737 333.974 194.694 338.655 203.138C343.336 211.582 351.178 217.821 360.457 220.485L370.485 185.484Z" fill="#407BFF"/>
<path opacity="0.6" d="M370.485 185.484L335.495 175.456C332.837 184.737 333.974 194.694 338.655 203.138C343.336 211.582 351.178 217.821 360.457 220.485L370.485 185.484Z" fill="black"/>
<path d="M169.894 136.204C168.015 138.125 165.997 140.251 164.139 142.377C162.282 144.503 160.414 146.672 158.663 148.894C156.913 151.117 155.26 153.404 153.671 155.712L152.511 157.462L151.438 159.233C151.073 159.824 150.729 160.425 150.364 161.026L149.473 162.669C149.111 163.606 148.904 164.596 148.861 165.6C148.775 166.894 148.775 168.193 148.861 169.487C149.062 172.271 149.42 175.042 149.935 177.786C150.418 180.599 151.008 183.423 151.706 186.225C152.404 189.027 153.091 191.883 153.854 194.653L149.72 196.199C147.216 190.73 145.124 185.081 143.461 179.3C142.604 176.331 141.947 173.307 141.496 170.249C141.27 168.616 141.155 166.97 141.152 165.321C141.123 163.378 141.45 161.445 142.119 159.62C142.376 158.997 142.516 158.74 142.688 158.375L143.192 157.301C143.525 156.592 143.879 155.894 144.266 155.218L145.339 153.167L146.52 151.17C148.099 148.544 149.816 146.003 151.663 143.558C153.488 141.121 155.378 138.737 157.375 136.451C159.372 134.164 161.401 131.973 163.71 129.772L169.894 136.204Z" fill="#E58A7B"/>
<path d="M152.714 192.903L160.058 195.051L155.173 200.011C155.173 200.011 149.879 198.379 149.139 194.771L152.714 192.903Z" fill="#E58A7B"/>
<path d="M164.515 200.741L163.269 205.476L155.174 200.043L160.059 195.094L164.515 200.741Z" fill="#E58A7B"/>
<path d="M98.7754 333.852L104.788 340.305L121.107 328.624L115.084 322.171L98.7754 333.852Z" fill="#E58A7B"/>
<path d="M178.558 357.494L177.119 368.595L168.52 367.157L169.851 356.85L178.558 357.494Z" fill="#CF6F64"/>
<path d="M115.083 322.171L121.096 328.634L114.342 333.466L108.115 327.153L115.083 322.171Z" fill="#CF6F64"/>
<path d="M193.62 180.771C193.62 180.771 176.614 237.728 168.304 270.56C159.543 305.164 117.702 333.38 117.702 333.38L108.77 324.501C108.77 324.501 136.738 300.88 145.274 268.596C162.517 203.028 154.228 189.145 167.971 175.811L193.62 180.771Z" fill="#407BFF"/>
<path opacity="0.6" d="M193.62 180.771C193.62 180.771 176.614 237.728 168.304 270.56C159.543 305.164 117.702 333.38 117.702 333.38L108.77 324.501C108.77 324.501 136.738 300.88 145.274 268.596C162.517 203.028 154.228 189.145 167.971 175.811L193.62 180.771Z" fill="black"/>
<path d="M107.418 339.274L102.404 330.685C102.321 330.536 102.188 330.422 102.028 330.365C101.868 330.308 101.692 330.311 101.534 330.374L94.3834 333.251C94.2059 333.336 94.048 333.456 93.92 333.605C93.7919 333.754 93.6964 333.928 93.6398 334.116C93.5831 334.305 93.5666 334.502 93.5911 334.697C93.6156 334.892 93.6807 335.08 93.7822 335.248C95.5859 338.201 96.5951 339.543 98.8069 343.311C100.17 345.63 101.92 349.152 103.789 352.352C105.657 355.551 108.846 353.919 108.341 352.427C106.086 345.716 107.267 343.773 107.707 340.788C107.787 340.265 107.685 339.731 107.418 339.274Z" fill="#263238"/>
<path d="M118.465 334.647L107.32 323.556L110.348 320.195L123.919 331.748L118.465 334.647Z" fill="#F5F5F5"/>
<path opacity="0.3" d="M185.633 192.904C174.477 201.493 173.726 234.304 173.984 249.12C179.663 228.409 186.373 205.358 190.292 192.034C189.219 191.111 187.683 191.315 185.633 192.904Z" fill="black"/>
<path d="M109.222 343.955C109.116 343.953 109.011 343.935 108.911 343.902C107.837 343.579 107.096 341.636 106.763 340.509C106.751 340.469 106.751 340.427 106.762 340.387C106.774 340.346 106.796 340.311 106.828 340.283C106.861 340.26 106.9 340.247 106.941 340.247C106.981 340.247 107.02 340.26 107.053 340.283C107.375 340.444 110.199 341.915 110.274 343.032C110.286 343.153 110.266 343.274 110.217 343.385C110.168 343.496 110.092 343.592 109.995 343.665C109.777 343.846 109.505 343.948 109.222 343.955ZM107.3 340.874C107.826 342.366 108.46 343.333 109.029 343.515C109.155 343.547 109.288 343.546 109.414 343.512C109.54 343.478 109.655 343.413 109.748 343.322C109.794 343.295 109.83 343.255 109.853 343.207C109.876 343.159 109.884 343.106 109.877 343.053C109.813 342.495 108.438 341.497 107.3 340.874Z" fill="#407BFF"/>
<path d="M109.512 341.24C108.583 341.237 107.666 341.028 106.827 340.628C106.799 340.607 106.775 340.579 106.759 340.548C106.743 340.516 106.734 340.481 106.734 340.445C106.734 340.41 106.743 340.374 106.759 340.343C106.775 340.311 106.799 340.284 106.827 340.263C106.924 340.263 109.039 338.985 110.242 339.382C110.397 339.427 110.541 339.506 110.662 339.614C110.783 339.721 110.878 339.855 110.94 340.005C111.022 340.149 111.053 340.316 111.028 340.48C111.003 340.644 110.922 340.795 110.8 340.907C110.421 341.161 109.966 341.278 109.512 341.24ZM107.364 340.434C108.352 340.832 110.059 340.993 110.51 340.595C110.585 340.531 110.65 340.424 110.51 340.177C110.47 340.08 110.409 339.992 110.331 339.922C110.253 339.851 110.16 339.799 110.059 339.769C109.114 339.715 108.175 339.947 107.364 340.434Z" fill="#407BFF"/>
<path d="M167.273 376.83L175.981 377.474L178.558 357.483L169.861 356.839L167.273 376.83Z" fill="#E58A7B"/>
<path d="M202.318 182.521C202.318 182.521 204.465 251.439 199.623 277.399C194.556 304.402 179.127 365.815 179.127 365.815L166.576 364.194C166.576 364.194 174.521 302.147 177.882 275.327C181.564 246.081 176.744 177.571 176.744 177.571L202.318 182.521Z" fill="#407BFF"/>
<path opacity="0.6" d="M202.318 182.521C202.318 182.521 204.465 251.439 199.623 277.399C194.556 304.402 179.127 365.815 179.127 365.815L166.576 364.194C166.576 364.194 174.521 302.147 177.882 275.327C181.564 246.081 176.744 177.571 176.744 177.571L202.318 182.521Z" fill="black"/>
<path d="M211.98 100.537C211.862 101.235 212.141 101.858 212.592 101.954C213.043 102.051 213.505 101.546 213.666 100.881C213.827 100.215 213.505 99.56 213.054 99.4741C212.603 99.3882 212.098 99.8499 211.98 100.537Z" fill="#263238"/>
<path d="M212.797 99.453L214.547 99.292C214.547 99.292 213.473 100.43 212.797 99.453Z" fill="#263238"/>
<path d="M212.454 101.32C212.813 103.02 213.402 104.664 214.204 106.205C213.803 106.389 213.367 106.484 212.926 106.484C212.485 106.484 212.049 106.389 211.648 106.205L212.454 101.32Z" fill="#DF5753"/>
<path d="M213.656 97.7029C213.576 97.7031 213.498 97.6798 213.431 97.6359C213.364 97.592 213.312 97.5294 213.28 97.4559C213.077 96.969 212.766 96.5349 212.369 96.1869C211.973 95.8389 211.502 95.5862 210.993 95.4482C210.94 95.4391 210.89 95.4197 210.844 95.391C210.799 95.3623 210.76 95.325 210.729 95.2811C210.698 95.2372 210.676 95.1877 210.664 95.1353C210.652 95.0829 210.651 95.0287 210.66 94.9758C210.681 94.8681 210.744 94.7729 210.834 94.7106C210.924 94.6484 211.035 94.6241 211.144 94.643C211.786 94.8011 212.382 95.108 212.883 95.5388C213.385 95.9696 213.778 96.5123 214.032 97.1231C214.076 97.223 214.079 97.3361 214.041 97.4384C214.003 97.5406 213.926 97.624 213.828 97.6707L213.656 97.7029Z" fill="#263238"/>
<path d="M189.95 106.292C190.111 111.553 189.574 121.044 185.451 123.739C185.451 123.739 185.988 129.107 195.468 130.986C205.894 133.004 201.309 126.809 201.309 126.809C195.833 124.351 196.682 120.185 198.324 116.438L189.95 106.292Z" fill="#E58A7B"/>
<path d="M216.791 134.443C218.938 136.075 221.3 137.804 223.63 139.382C225.96 140.96 228.343 142.603 230.77 144.031C233.196 145.459 235.655 146.866 238.124 148.186C240.585 149.458 243.112 150.598 245.694 151.6C245.919 151.686 245.844 151.6 245.898 151.675H246.037C246.176 151.695 246.317 151.695 246.456 151.675C246.885 151.678 247.314 151.635 247.734 151.547C248.873 151.268 249.979 150.865 251.03 150.344C253.462 149.11 255.785 147.673 257.976 146.05C260.274 144.428 262.518 142.657 264.719 140.81C266.92 138.963 269.11 137.042 271.214 135.13L274.435 138.083C270.754 142.881 266.643 147.334 262.153 151.386C259.798 153.49 257.249 155.367 254.541 156.99C253.016 157.885 251.395 158.606 249.709 159.137C248.714 159.435 247.687 159.608 246.649 159.653C246.054 159.685 245.457 159.66 244.867 159.578C244.549 159.54 244.233 159.483 243.922 159.406C243.643 159.331 243.203 159.213 243.085 159.159C237.237 157.229 231.608 154.689 226.293 151.579C223.673 150.054 221.086 148.476 218.573 146.78C216.061 145.083 213.656 143.355 211.197 141.347L216.791 134.443Z" fill="#E58A7B"/>
<path d="M270.559 135.946L273.114 129.364L278.482 134.733C278.482 134.733 275.938 139.628 272.287 139.639L270.559 135.946Z" fill="#E58A7B"/>
<path d="M278.406 127.464L283.506 129.064L278.525 134.722L273.135 129.364L278.406 127.464Z" fill="#E58A7B"/>
<path d="M176.518 376.23H166.737C166.566 376.228 166.4 376.288 166.27 376.398C166.14 376.508 166.054 376.662 166.028 376.831L164.708 384.572C164.681 384.766 164.697 384.963 164.754 385.15C164.811 385.337 164.907 385.51 165.036 385.657C165.166 385.803 165.325 385.92 165.503 386C165.682 386.08 165.876 386.12 166.071 386.118C169.485 386.064 171.128 385.86 175.433 385.86C178.075 385.86 183.55 386.14 187.244 386.14C190.937 386.14 191.184 382.521 189.67 382.189C182.885 380.728 180.254 378.699 177.999 376.767C177.588 376.412 177.061 376.221 176.518 376.23Z" fill="#263238"/>
<path d="M189.091 94.1593C188.221 102.749 187.663 106.324 191.238 111.51C196.607 119.294 207.343 118.81 210.811 110.747C213.892 103.5 214.816 90.7022 207.032 85.7204C205.376 84.5963 203.457 83.9227 201.462 83.7659C199.468 83.6091 197.466 83.9745 195.656 84.8261C193.845 85.6778 192.288 86.9863 191.137 88.6228C189.986 90.2594 189.281 92.1675 189.091 94.1593Z" fill="#E58A7B"/>
<path d="M190.034 112.841C185.955 111.177 182.143 104.606 182.293 94.3313C182.444 84.0565 190.099 78.0977 203.766 82.4245C217.434 86.7513 203.369 118.295 190.034 112.841Z" fill="#263238"/>
<path d="M201.609 83.3695C205.636 81.7912 214.547 83.7453 214.547 92.1305L205.883 99.1629L201.609 83.3695Z" fill="#263238"/>
<path d="M200.482 83.2941C205.851 82.9827 207.934 83.0042 212.797 84.3677C209.598 80.524 203.607 81.791 200.482 83.2941Z" fill="#263238"/>
<path d="M205.13 98.6265C204.964 100.221 205.29 101.829 206.064 103.232C207.138 105.208 208.759 104.94 209.36 103.34C209.908 101.901 210.005 99.1418 208.502 97.6602C206.998 96.1786 205.388 96.855 205.13 98.6265Z" fill="#E58A7B"/>
<path d="M183.142 86.7402C186.256 88.6513 196.842 87.073 199.129 83.0039C201.416 78.9347 193.514 72.1278 186.352 72.3747C179.191 72.6216 176.206 82.467 183.142 86.7402Z" fill="#407BFF"/>
<path d="M181.8 366.567L163.902 364.258L164.128 360.007L183.593 360.855L181.8 366.567Z" fill="#F5F5F5"/>
<path d="M179.76 377.754C178.84 377.738 177.923 377.633 177.022 377.443C176.98 377.436 176.942 377.415 176.913 377.384C176.883 377.353 176.865 377.313 176.861 377.271C176.856 377.228 176.863 377.185 176.882 377.147C176.901 377.109 176.931 377.077 176.969 377.056C177.366 376.852 180.887 375.07 181.94 375.671C182.039 375.725 182.122 375.804 182.18 375.9C182.239 375.996 182.271 376.106 182.272 376.219C182.294 376.405 182.268 376.594 182.199 376.768C182.13 376.942 182.018 377.096 181.875 377.217C181.254 377.637 180.506 377.827 179.76 377.754ZM177.709 377.153C179.631 377.475 181.059 377.389 181.607 376.917C181.699 376.834 181.771 376.731 181.816 376.615C181.861 376.499 181.877 376.374 181.864 376.251C181.865 376.205 181.853 376.16 181.83 376.121C181.808 376.081 181.775 376.048 181.736 376.025C181.167 375.703 179.159 376.466 177.709 377.153Z" fill="#407BFF"/>
<path d="M177.065 377.443C177.023 377.453 176.979 377.453 176.936 377.443C176.909 377.42 176.887 377.39 176.874 377.356C176.861 377.323 176.856 377.286 176.861 377.25C176.861 377.1 177.28 373.535 179.223 373.535H179.395C179.953 373.589 180.114 373.879 180.157 374.104C180.318 375.092 178.203 376.982 177.151 377.454L177.065 377.443ZM179.213 373.922C177.956 373.922 177.463 375.983 177.301 376.874C178.375 376.219 179.825 374.727 179.728 374.147C179.728 374.147 179.728 373.965 179.331 373.922H179.213Z" fill="#407BFF"/>
<path d="M170.377 122.762C164.332 123.041 158.566 133.058 158.566 133.058L166.544 149.356C166.544 149.356 177.355 140.348 177.495 131.49C177.613 125.736 176.314 122.493 170.377 122.762Z" fill="#407BFF"/>
<path opacity="0.8" d="M170.377 122.762C164.332 123.041 158.566 133.058 158.566 133.058L166.544 149.356C166.544 149.356 177.355 140.348 177.495 131.49C177.613 125.736 176.314 122.493 170.377 122.762Z" fill="white"/>
<path d="M167.93 175.789L202.845 182.553C219.336 133.981 215.396 132.413 215.396 132.413C212.831 131.028 210.185 129.799 207.472 128.731L206.989 128.548C204.767 127.743 204.294 127.614 201.299 126.745C196.156 125.531 191.368 124.544 185.441 123.685L184.314 123.524C183.24 123.395 182.166 123.277 181.146 123.18C180.459 123.105 179.761 123.062 179.106 123.008L176.852 122.89C173.03 122.697 170.302 122.761 170.302 122.761C172.299 153.07 170.839 161.778 167.93 175.789Z" fill="#407BFF"/>
<path opacity="0.6" d="M167.93 175.789L202.845 182.553C219.336 133.981 215.396 132.413 215.396 132.413C212.831 131.028 210.185 129.799 207.472 128.731L206.989 128.548C204.767 127.743 204.294 127.614 201.299 126.745C196.156 125.531 191.368 124.544 185.441 123.685L184.314 123.524C183.24 123.395 182.166 123.277 181.146 123.18C180.459 123.105 179.761 123.062 179.106 123.008L176.852 122.89C173.03 122.697 170.302 122.761 170.302 122.761C172.299 153.07 170.839 161.778 167.93 175.789Z" fill="white"/>
<path opacity="0.2" d="M206.881 144.095C208.266 146.822 209.909 150.44 212.11 152.942C212.743 150.644 213.269 148.647 213.72 146.79L206.881 144.095Z" fill="#407BFF"/>
<path d="M178.89 151.385C187.598 144.503 189.434 138.104 188.22 132.51C187.007 126.917 185.611 117.157 186.61 113.893C187.608 110.629 191.087 103.855 190.378 98.0676C189.67 92.2806 188.016 84.239 189.605 80.7603C191.194 77.2817 196.241 75.2203 192.15 70.2815C190.164 67.8872 181.746 67.5222 179.545 74.2003C177.344 80.8784 168.304 83.7666 164.75 84.4322C161.197 85.0979 154.937 89.0919 153.853 95.5982C152.768 102.105 148.399 104.671 142.397 108.01C136.395 111.349 127.763 124.437 131.199 136.053C135.837 151.954 165.921 161.671 178.89 151.385Z" fill="#263238"/>
<path d="M205.067 129.472C207.773 127.325 219.422 134.389 222.986 137.342L220.903 152.652C220.903 152.652 204.262 145.759 203.124 141.046C201.9 136.139 202.92 131.115 205.067 129.472Z" fill="#407BFF"/>
<path opacity="0.6" d="M205.067 129.472C207.773 127.325 219.422 134.389 222.986 137.342L220.903 152.652C220.903 152.652 204.262 145.759 203.124 141.046C201.9 136.139 202.92 131.115 205.067 129.472Z" fill="white"/>
<path d="M167.736 173.653L165.653 176.455C165.492 176.67 165.739 176.97 166.137 177.056L202.759 184.142C203.07 184.207 203.36 184.142 203.414 183.906L204.24 180.857C204.294 180.653 204.058 180.417 203.714 180.352L168.348 173.503C168.242 173.471 168.129 173.468 168.022 173.495C167.914 173.521 167.816 173.576 167.736 173.653Z" fill="#407BFF"/>
<path d="M171.836 178.506L170.892 178.323C170.709 178.323 170.58 178.162 170.612 178.044L171.686 174.093C171.686 173.975 171.901 173.911 172.094 173.943L173.039 174.125C173.221 174.125 173.35 174.286 173.318 174.405L172.244 178.356C172.212 178.474 172.03 178.538 171.836 178.506Z" fill="#407BFF"/>
<path d="M195.757 183.187L194.802 183.004C194.619 183.004 194.49 182.843 194.523 182.725L195.596 178.774C195.596 178.666 195.811 178.602 196.004 178.634L196.949 178.817C197.142 178.817 197.271 178.978 197.239 179.096L196.165 183.047C196.122 183.165 195.94 183.23 195.757 183.187Z" fill="#407BFF"/>
<path opacity="0.6" d="M171.836 178.506L170.892 178.323C170.709 178.323 170.58 178.162 170.612 178.044L171.686 174.093C171.686 173.975 171.901 173.911 172.094 173.943L173.039 174.125C173.221 174.125 173.35 174.286 173.318 174.405L172.244 178.356C172.212 178.474 172.03 178.538 171.836 178.506Z" fill="black"/>
<path opacity="0.6" d="M195.757 183.187L194.802 183.004C194.619 183.004 194.49 182.843 194.523 182.725L195.596 178.774C195.596 178.666 195.811 178.602 196.004 178.634L196.949 178.817C197.142 178.817 197.271 178.978 197.239 179.096L196.165 183.047C196.122 183.165 195.94 183.23 195.757 183.187Z" fill="black"/>
</svg>
