<svg width="24" height="29" viewBox="0 0 24 29" fill="none" xmlns="http://www.w3.org/2000/svg">
<path d="M22.8867 9.32869C22.8867 11.5538 18.0438 13.3577 12.0698 13.3577C6.09582 13.3577 1.25293 11.5538 1.25293 9.32869M22.8867 9.32869C22.8867 14.4013 20.0903 18.744 16.1262 20.5371V23.7847C16.1262 24.8021 15.5475 25.7321 14.6313 26.1871L11.9271 27.5301C10.129 28.4231 8.01349 27.1244 8.01349 25.1277V20.5371C4.04933 18.744 1.25293 14.4013 1.25293 9.32869M22.8867 9.32869C22.8867 8.05633 21.3033 6.92173 18.8304 6.18335M1.25293 9.32869C1.25293 8.05633 2.83635 6.92173 5.30927 6.18335M14.7741 4.83124V7.53547M9.36561 7.53547V8.88758M9.36561 0.774902V3.47913" stroke="white" stroke-width="1.5" stroke-linecap="round" stroke-linejoin="round"/>
</svg>
