<svg width="348" height="351" viewBox="0 0 348 351" fill="none" xmlns="http://www.w3.org/2000/svg">
<path d="M0.199951 308.003L43.6685 307.806L87.137 307.732L174.066 307.592L260.995 307.732L304.463 307.806L347.932 308.003L304.463 308.208L260.995 308.282L174.066 308.413L87.137 308.282L43.6685 308.208L0.199951 308.003Z" fill="#221429"/>
<path d="M174.068 350.459C255.916 350.459 322.268 344 322.268 336.033C322.268 328.065 255.916 321.606 174.068 321.606C92.2188 321.606 25.8672 328.065 25.8672 336.033C25.8672 344 92.2188 350.459 174.068 350.459Z" fill="#EBEBEB"/>
<path d="M144.494 237.848C144.494 224.703 146.641 212.892 150.935 202.414C155.229 191.937 164.086 182.809 177.504 175.032C181.536 172.616 186.503 169.878 192.407 166.816C198.483 163.626 204.274 159.92 209.718 155.742C215.282 151.534 220.112 146.434 224.013 140.65C227.945 134.753 229.983 127.797 229.854 120.711C229.971 115.55 228.874 110.433 226.65 105.775C224.598 101.616 221.722 97.9177 218.196 94.9055C214.575 91.8875 210.384 89.6273 205.873 88.2591C201.248 86.7993 196.427 86.0541 191.578 86.0492C186.081 85.974 180.625 86.9904 175.524 89.0396C170.833 90.973 166.431 93.5471 162.445 96.6883C158.561 99.7635 155.046 103.279 151.97 107.163C149.139 110.694 146.52 114.389 144.125 118.229H138.062L109.085 94.0757C112.437 85.9537 117.133 78.4546 122.978 71.8938C128.692 65.4967 135.34 59.9989 142.695 55.5859C150.178 51.1374 158.251 47.7686 166.676 45.5794C175.349 43.2886 184.283 42.137 193.254 42.1535C203.482 42.1592 213.655 43.6509 223.454 46.5817C233.226 49.4576 242.328 54.25 250.229 60.6796C258.39 67.4354 264.986 75.8842 269.56 85.4412C274.522 95.508 277.003 107.522 277.003 121.483C277.127 129.173 276.111 136.839 273.988 144.232C272.06 150.626 269.135 156.676 265.32 162.158C261.543 167.547 257.077 172.419 252.036 176.65C246.562 181.21 240.775 185.38 234.718 189.13C229.345 192.361 223.977 195.45 218.615 198.397C213.426 201.228 208.506 204.528 203.917 208.255C199.597 211.757 195.916 215.983 193.04 220.743C190.225 225.442 188.817 231.147 188.817 237.856L144.494 237.848ZM145.316 331.661V276.099H190.008V331.661H145.316Z" fill="#00BE9B"/>
<path d="M138.461 237.848C138.461 224.703 140.608 212.892 144.902 202.414C149.196 191.937 158.055 182.809 171.479 175.032C175.505 172.616 180.47 169.878 186.374 166.816C192.453 163.628 198.247 159.922 203.692 155.742C209.255 151.532 214.085 146.433 217.987 140.65C221.913 134.751 223.948 127.795 223.82 120.711C223.926 115.562 222.823 110.461 220.6 105.816C218.548 101.657 215.672 97.9588 212.146 94.9467C208.525 91.9286 204.334 89.6685 199.823 88.3003C195.198 86.8405 190.377 86.0952 185.528 86.0903C180.031 85.9992 174.572 87.0018 169.466 89.0397C164.772 90.9735 160.368 93.5474 156.379 96.6884C152.497 99.7638 148.985 103.279 145.912 107.163C143.079 110.694 140.456 114.389 138.058 118.23L103.027 94.0758C106.376 85.9525 111.073 78.4531 116.92 71.8938C122.632 65.4944 129.28 59.9963 136.637 55.586C144.117 51.1388 152.188 47.77 160.61 45.5794C169.291 43.2858 178.233 42.1341 187.212 42.1536C197.44 42.1587 207.613 43.6504 217.412 46.5817C227.185 49.4559 236.287 54.2485 244.187 60.6796C252.35 67.4336 258.947 75.8829 263.518 85.4413C268.48 95.508 270.964 107.522 270.97 121.483C271.091 129.174 270.072 136.84 267.946 144.232C266.014 150.629 263.08 156.679 259.254 162.158C255.477 167.547 251.011 172.419 245.97 176.65C240.499 181.214 234.712 185.384 228.651 189.13C223.289 192.361 217.922 195.45 212.549 198.397C207.359 201.228 202.439 204.528 197.851 208.255C193.533 211.758 189.855 215.983 186.982 220.743C184.167 225.442 182.756 231.147 182.751 237.856L138.461 237.848ZM139.282 331.661V276.099H183.926V331.661H139.282Z" fill="#221429"/>
<path d="M120.038 336.107C118.288 336.666 68.3952 336.025 66.5138 334.793C65.7908 334.333 65.4622 327.062 65.3143 318.255V317.984C65.3143 316.168 65.2568 314.295 65.2486 312.405C65.2486 312.142 65.2486 311.88 65.2486 311.625C65.1829 298.924 65.3801 285.738 65.3801 285.738L98.7599 286.074L97.7494 311.682L97.7083 312.701L97.5029 318.008V318.551C97.5029 318.551 116.473 327.374 118.403 328.935C120.334 330.496 121.788 335.549 120.038 336.107Z" fill="#FFE3CA"/>
<path d="M120.043 336.107C118.293 336.666 68.3999 336.025 66.5185 334.793C65.7955 334.333 65.4669 327.062 65.319 318.255V317.984C65.319 316.168 65.2615 314.295 65.2533 312.406C65.2533 312.143 65.2533 311.88 65.2533 311.625L97.7623 311.716L97.7212 312.734L97.5158 318.041V318.584C97.5158 318.584 116.477 327.374 118.408 328.935C120.339 330.496 121.793 335.549 120.043 336.107Z" fill="#EBEBEB"/>
<path d="M120.041 336.107C118.965 336.452 99.6339 336.337 84.5009 335.91C75.053 335.655 67.2482 335.261 66.517 334.793C65.7858 334.324 65.4736 327.267 65.3258 318.624C65.3258 318.501 65.3258 318.378 65.3258 318.255C65.3258 318.131 65.3258 318.066 65.3258 317.975L97.5225 318.041V318.583C97.5225 318.583 116.517 327.374 118.439 328.943C120.362 330.512 121.791 335.548 120.041 336.107Z" fill="#221429"/>
<path d="M119.506 334.159C111.093 333.847 77.1549 333.338 68.8161 333.691C68.7504 333.691 68.7504 333.74 68.8161 333.749C77.1467 334.242 111.085 334.447 119.498 334.299C119.679 334.299 119.679 334.168 119.506 334.159Z" fill="#221429"/>
<path d="M101.09 318.173C97.8038 317.516 93.7371 317.968 91.1738 320.293C91.0753 320.383 91.1738 320.523 91.3135 320.49C94.4905 319.514 97.7622 318.877 101.074 318.592C101.123 318.585 101.167 318.56 101.2 318.523C101.233 318.486 101.252 318.439 101.254 318.389C101.256 318.34 101.241 318.291 101.211 318.252C101.181 318.212 101.138 318.185 101.09 318.173Z" fill="#221429"/>
<path d="M103.463 319.645C100.176 318.987 96.1096 319.439 93.5464 321.764C93.4478 321.855 93.5464 321.994 93.686 321.961C96.8522 320.987 100.113 320.35 103.413 320.064C103.464 320.062 103.512 320.041 103.55 320.007C103.587 319.972 103.611 319.926 103.617 319.875C103.623 319.825 103.61 319.774 103.582 319.731C103.554 319.689 103.511 319.658 103.463 319.645Z" fill="#221429"/>
<path d="M105.826 321.114C102.54 320.457 98.4731 320.908 95.9099 323.233C95.8113 323.324 95.9099 323.464 96.0495 323.431C99.2268 322.457 102.499 321.824 105.81 321.541C105.866 321.543 105.921 321.523 105.963 321.484C106.005 321.446 106.029 321.392 106.031 321.336C106.034 321.279 106.013 321.224 105.975 321.182C105.936 321.141 105.883 321.116 105.826 321.114Z" fill="#221429"/>
<path d="M105.491 311.009C104.209 309.202 101.778 309.982 100.381 311.124C98.0194 313.13 96.2285 315.723 95.1887 318.642C95.1832 318.654 95.181 318.668 95.1821 318.681C95.1831 318.695 95.1875 318.708 95.1948 318.719C95.2022 318.73 95.2122 318.74 95.224 318.746C95.2358 318.753 95.2491 318.756 95.2626 318.757C95.2626 319.011 95.4926 319.282 95.7802 319.176C98.5242 318.198 101.58 317.533 103.946 315.709C105.327 314.665 106.699 312.726 105.491 311.009ZM99.6333 316.842C98.2941 317.36 96.9386 317.804 95.6241 318.362C96.6428 316.9 97.5876 315.405 98.7542 314.041C99.3072 313.381 99.8999 312.756 100.529 312.168C101.531 311.289 105.458 309.432 104.817 313.055C104.472 315.051 101.235 316.234 99.6333 316.842Z" fill="#221429"/>
<path d="M86.7824 317.663C89.4935 318.862 92.6319 318.846 95.5319 319.166C95.8277 319.166 95.9838 318.879 95.9345 318.632C95.9473 318.628 95.9589 318.621 95.9686 318.612C95.9783 318.602 95.9857 318.591 95.9905 318.578C95.9952 318.566 95.997 318.552 95.9959 318.539C95.9947 318.525 95.9906 318.512 95.9838 318.501C94.2943 315.904 91.9549 313.794 89.1977 312.38C87.5546 311.559 85.0242 311.394 84.2027 313.448C83.3811 315.502 85.1968 316.965 86.7824 317.663ZM85.32 315.28C83.8741 311.904 88.1215 312.816 89.2881 313.44C90.0417 313.858 90.7638 314.33 91.4488 314.853C92.856 315.943 94.2052 317.106 95.4909 318.337C94.0778 318.09 92.6565 317.975 91.2352 317.778C89.5428 317.556 86.158 317.145 85.3364 315.28H85.32Z" fill="#221429"/>
<path d="M84.519 335.911C75.0711 335.656 67.2663 335.262 66.5351 334.793C65.8039 334.325 65.4918 327.268 65.3439 318.625C69.2052 322.084 78.8338 330.669 84.519 335.911Z" fill="#221429"/>
<path d="M55.1383 142.015C55.1383 142.015 62.6309 226.323 63.8468 232.756C64.1344 234.227 64.3069 242.196 64.4219 252.432C64.6766 274.787 64.5287 315.092 64.5287 315.092H99.6995C99.6995 315.092 98.6561 245.26 97.0952 232.403C95.5342 219.545 85.5934 142.032 85.5934 142.032L55.1383 142.015Z" fill="#323232"/>
<path d="M98.1002 308.963C92.6122 308.848 94.1896 308.807 88.7016 308.75C86.0151 308.75 68.3681 308.577 65.8542 308.988C65.8389 308.988 65.8243 308.994 65.8135 309.005C65.8027 309.016 65.7967 309.03 65.7967 309.046C65.7967 309.061 65.8027 309.075 65.8135 309.086C65.8243 309.097 65.8389 309.103 65.8542 309.103C68.3681 309.514 86.0151 309.366 88.7016 309.333C94.1896 309.284 92.6122 309.243 98.1002 309.128C98.122 309.128 98.1429 309.119 98.1583 309.104C98.1737 309.088 98.1824 309.067 98.1824 309.046C98.1824 309.024 98.1737 309.003 98.1583 308.987C98.1429 308.972 98.122 308.963 98.1002 308.963Z" fill="#221429"/>
<path d="M71.21 269.043C71.1661 263.939 71.1278 258.837 71.0949 253.738C71.0949 248.809 71.0949 243.879 70.832 238.95C70.3555 228.952 68.3674 219.126 66.8886 209.242C65.4098 199.359 64.2432 189.435 63.1505 179.502C61.9264 168.362 60.8501 157.197 59.7082 146.048C59.7082 145.975 59.5767 145.975 59.5849 146.048C61.2281 165.963 63.093 185.869 65.8452 205.661C66.5353 210.59 67.2857 215.503 68.0963 220.399C68.9178 225.329 69.7394 230.324 70.1255 235.343C70.5116 240.363 70.5691 245.202 70.6184 250.131C70.6787 255.236 70.7307 260.335 70.7745 265.429C70.8813 276.75 70.9881 294.183 71.1031 305.504C71.1117 305.542 71.133 305.577 71.1636 305.601C71.1942 305.626 71.2323 305.639 71.2716 305.639C71.3108 305.639 71.3489 305.626 71.3795 305.601C71.4101 305.577 71.4315 305.542 71.44 305.504C71.3743 295.35 71.2839 279.14 71.21 269.043Z" fill="#221429"/>
<path d="M47.7218 142.015C47.7218 142.015 62.6331 226.323 63.849 232.756C64.1365 234.227 64.3091 242.196 64.4241 252.432L81.2331 142.015H47.7218Z" fill="#221429"/>
<path d="M79.1973 339.082C77.4145 339.517 27.6858 335.336 25.8948 333.98C25.2047 333.471 25.3936 326.192 25.8948 317.401C25.8948 317.311 25.8948 317.212 25.8948 317.122C25.9934 315.314 26.1002 313.449 26.2316 311.56L26.2809 310.738C27.1025 298.062 28.2444 284.925 28.2444 284.925L61.5092 287.669L58.6913 313.137L58.5845 314.148L58.0094 319.43L57.9519 319.972C57.9519 319.972 76.2644 330.086 78.08 331.786C79.8956 333.487 80.9801 338.646 79.1973 339.082Z" fill="#FFE3CA"/>
<path d="M79.1973 339.081C77.4145 339.517 27.6858 335.335 25.8948 333.98C25.2047 333.47 25.3936 326.191 25.8948 317.401C25.8948 317.31 25.8948 317.212 25.8948 317.121C25.9934 315.314 26.1002 313.449 26.2316 311.559L26.2809 310.738L58.6913 313.128L58.5845 314.139L58.0094 319.422L57.9519 319.964C57.9519 319.964 76.2644 330.077 78.08 331.778C79.8956 333.478 80.9801 338.646 79.1973 339.081Z" fill="#EBEBEB"/>
<path d="M79.1973 339.082C77.4145 339.517 27.6858 335.336 25.8948 333.98C25.2047 333.471 25.3936 326.192 25.8948 317.401C25.8948 317.311 25.8948 317.212 25.8948 317.122L58.0094 319.463L57.9519 320.005C57.9519 320.005 76.2644 330.119 78.08 331.819C79.8956 333.52 80.9801 338.647 79.1973 339.082Z" fill="#221429"/>
<path d="M78.7672 337.102C70.4038 336.19 36.5803 333.315 28.2415 333.044C28.1758 333.044 28.1676 333.093 28.2415 333.101C36.5064 334.186 70.3545 336.79 78.759 337.209C78.9644 337.25 78.9808 337.151 78.7672 337.102Z" fill="#221429"/>
<path d="M61.5631 319.849C58.2769 318.962 54.2431 319.126 51.5237 321.262C51.4169 321.344 51.5237 321.501 51.647 321.476C54.8805 320.722 58.1856 320.317 61.5056 320.268C61.557 320.268 61.6066 320.249 61.6453 320.215C61.684 320.181 61.7091 320.135 61.7161 320.084C61.7231 320.033 61.7115 319.981 61.6834 319.938C61.6553 319.895 61.6126 319.863 61.5631 319.849Z" fill="#221429"/>
<path d="M63.8316 321.484C60.5454 320.596 56.5034 320.761 53.784 322.897C53.6854 322.979 53.784 323.135 53.9072 323.11C57.1409 322.357 60.446 321.952 63.7659 321.903C63.8181 321.905 63.8691 321.887 63.9094 321.854C63.9497 321.821 63.9764 321.774 63.9845 321.722C63.9925 321.671 63.9815 321.618 63.9533 321.574C63.9251 321.53 63.8819 321.498 63.8316 321.484Z" fill="#221429"/>
<path d="M66.0863 323.118C62.8 322.231 58.758 322.395 56.0386 324.531C55.9401 324.614 56.0386 324.77 56.1701 324.745C59.4035 323.99 62.7087 323.585 66.0288 323.537C66.0802 323.537 66.1298 323.518 66.1684 323.484C66.2071 323.45 66.2322 323.404 66.2392 323.353C66.2462 323.302 66.2346 323.25 66.2065 323.207C66.1784 323.164 66.1357 323.132 66.0863 323.118Z" fill="#221429"/>
<path d="M66.4438 313.022C65.3019 311.124 62.8208 311.724 61.342 312.767C58.8293 314.595 56.8452 317.056 55.5911 319.899C55.5911 319.964 55.5911 320.005 55.6568 320.022C55.6492 320.086 55.6568 320.151 55.6791 320.211C55.7013 320.272 55.7374 320.327 55.7846 320.371C55.8319 320.415 55.8888 320.447 55.9508 320.465C56.0128 320.483 56.0781 320.486 56.1415 320.474C58.943 319.693 62.0485 319.208 64.5296 317.59C66.0413 316.612 67.5447 314.813 66.4438 313.022ZM60.1918 318.42C58.8198 318.839 57.4396 319.184 56.084 319.652C57.1553 318.225 58.2987 316.854 59.5099 315.544C60.1052 314.921 60.742 314.34 61.4159 313.803C62.4757 312.981 66.5178 311.412 65.6305 314.986C65.1622 316.974 61.8431 317.927 60.2082 318.42H60.1918Z" fill="#221429"/>
<path d="M47.3364 318.329C49.9572 319.718 53.0873 319.923 55.9545 320.441C56.2503 320.498 56.431 320.194 56.3982 319.948C56.4109 319.943 56.4226 319.936 56.4322 319.927C56.4419 319.918 56.4494 319.906 56.4541 319.894C56.4588 319.881 56.4607 319.868 56.4595 319.854C56.4584 319.841 56.4543 319.828 56.4474 319.816C54.9515 317.106 52.7665 314.839 50.1133 313.244C48.5523 312.332 46.0055 311.962 45.0607 313.95C44.1159 315.938 45.8083 317.516 47.3364 318.329ZM46.0466 315.865C44.8389 312.389 49.0124 313.597 50.1543 314.304C50.8736 314.78 51.5598 315.304 52.2082 315.873C53.5353 317.06 54.7995 318.316 55.9956 319.635C54.5989 319.29 53.1941 319.069 51.7892 318.814C50.0968 318.411 46.7284 317.771 46.0466 315.848V315.865Z" fill="#221429"/>
<path d="M59.4332 316.989L24.2952 315.502C24.2952 315.502 33.891 238.391 34.0635 233.634C34.5236 221.31 42.6981 141.957 42.6981 141.957H85.6161C85.6161 141.957 82.905 160.285 78.2797 171.902C75.1663 172.992 72.1603 174.367 69.3001 176.01C69.3001 176.01 65.2744 228.499 65.1266 235.047C64.7979 248.011 59.4332 316.989 59.4332 316.989Z" fill="#323232"/>
<path d="M58.4985 310.548C53.0269 310.203 54.6043 310.227 49.1163 309.94C46.4381 309.8 28.8075 308.905 26.2853 309.209C26.2278 309.209 26.2278 309.307 26.2853 309.324C28.75 309.841 46.4216 310.441 49.0999 310.523C54.5879 310.704 53.0187 310.597 58.5067 310.712C58.5285 310.711 58.549 310.701 58.5636 310.685C58.5782 310.669 58.5859 310.648 58.5848 310.626C58.5837 310.604 58.574 310.584 58.5578 310.569C58.5416 310.554 58.5203 310.547 58.4985 310.548Z" fill="#221429"/>
<path d="M45.8484 146.689C44.2546 166.677 42.6197 186.674 40.7876 206.662C38.9556 226.651 36.8113 246.721 34.2152 266.677C32.761 277.809 31.1179 293.509 29.3844 304.616C29.3844 304.69 29.483 304.723 29.4995 304.616C33.0404 284.899 35.6447 260.384 37.8547 240.461C40.0647 220.538 41.8803 200.558 43.4988 180.578C44.4107 169.273 45.2322 157.96 46.1031 146.656C46.1113 146.549 45.9059 146.549 45.8484 146.689Z" fill="#221429"/>
<path d="M79.8138 171.132C76.1739 172.465 72.6579 174.114 69.3061 176.061C69.2777 176.074 69.2558 176.098 69.245 176.127C69.2342 176.157 69.2355 176.189 69.2486 176.217C69.2616 176.246 69.2854 176.268 69.3147 176.279C69.344 176.289 69.3763 176.288 69.4047 176.275C72.9456 174.755 76.5522 173.301 80.0027 171.584C80.0626 171.559 80.1101 171.511 80.1348 171.451C80.1594 171.391 80.1592 171.323 80.1342 171.263C80.1091 171.204 80.0613 171.156 80.0012 171.131C79.9411 171.107 79.8737 171.107 79.8138 171.132Z" fill="#221429"/>
<path d="M80.934 146.837C80.934 146.714 80.7121 146.69 80.7121 146.837C80.7121 151.036 80.4739 154.733 80.1206 158.668C79.9563 160.492 78.4775 170.564 75.3227 169.833C74.7969 169.71 74.5012 169.184 74.4437 168.387C74.4497 167.343 74.5905 166.305 74.8627 165.298C75.2077 163.186 75.4953 161.075 75.6842 158.939C76.0513 154.971 76.0073 150.977 75.5528 147.018C75.5464 146.996 75.5329 146.976 75.5144 146.962C75.4959 146.948 75.4733 146.941 75.4501 146.941C75.4269 146.941 75.4043 146.948 75.3858 146.962C75.3672 146.976 75.3538 146.996 75.3474 147.018C75.4409 152.512 75.1196 158.004 74.3862 163.449C73.9918 166.07 72.6691 170.022 75.4131 170.416C78.1571 170.81 80.0138 164.222 80.3424 162.414C81.2144 157.27 81.4132 152.033 80.934 146.837Z" fill="#221429"/>
<path d="M75.4027 170.087C75.1183 170.765 74.8822 171.463 74.6961 172.174C74.4887 172.722 74.3883 173.305 74.4004 173.891C74.4004 174.006 74.5564 174.014 74.614 173.94C74.9407 173.433 75.1899 172.879 75.3534 172.297C75.5916 171.648 75.8463 171.008 76.0681 170.35C76.103 170.262 76.1013 170.164 76.0636 170.077C76.0259 169.989 75.9551 169.921 75.8668 169.886C75.7786 169.851 75.6801 169.853 75.5931 169.891C75.506 169.928 75.4375 169.999 75.4027 170.087Z" fill="#221429"/>
<path d="M61.093 150.133C61.103 149.694 61.0589 149.255 60.9616 148.827C60.9554 148.815 60.9459 148.804 60.9343 148.797C60.9227 148.79 60.9094 148.787 60.8958 148.787C60.8823 148.787 60.869 148.79 60.8574 148.797C60.8458 148.804 60.8363 148.815 60.8301 148.827C60.7433 149.199 60.6938 149.579 60.6822 149.96C60.6822 150.396 60.5837 150.782 60.5344 151.258C60.4431 152.147 60.2893 153.028 60.0743 153.896C59.6744 155.533 58.8399 157.031 57.6589 158.233C56.4811 159.392 55.0848 160.305 53.5511 160.92C51.8537 161.521 50.1228 162.023 48.3671 162.423C48.3497 162.423 48.333 162.43 48.3206 162.443C48.3083 162.455 48.3014 162.472 48.3014 162.489C48.3014 162.507 48.3083 162.523 48.3206 162.536C48.333 162.548 48.3497 162.555 48.3671 162.555C50.311 162.551 52.2359 162.172 54.0359 161.438C55.6315 160.839 57.084 159.913 58.2997 158.718C59.5134 157.484 60.3658 155.941 60.7644 154.257C60.9655 153.389 61.0811 152.503 61.1095 151.612C61.1327 151.119 61.1272 150.625 61.093 150.133Z" fill="#221429"/>
<path d="M103.1 69.8001C105.745 72.9959 108.621 81.6304 108.514 83.9883C108.407 86.3462 93.8736 91.7027 91.8197 90.4211C89.7658 89.1394 81.6817 77.7198 81.6078 73.4888C81.5339 69.2578 100.356 66.4974 103.1 69.8001Z" fill="#FFE3CA"/>
<path d="M81.2298 63.9351C79.8989 62.5467 75.5939 58.3978 73.6797 60.271C72.4802 61.4376 75.3721 64.6334 76.588 65.8986C79.0938 68.4947 81.0326 73.0872 81.9364 75.3301C82.8401 77.5729 87.0711 73.1447 87.0711 73.1447C87.0711 73.1447 84.705 67.5417 81.2298 63.9351Z" fill="#FFE3CA"/>
<path d="M84.7598 77.8356C84.7598 77.8356 86.2468 81.8284 88.6704 81.738C91.094 81.6476 90.4778 78.2136 90.445 77.9671C90.5189 78.1807 91.9813 81.812 94.4131 81.4751C96.8449 81.1383 95.8097 77.7617 95.7358 77.5481C95.8673 77.7206 97.7404 80.0127 99.5232 79.3309C102.596 78.1643 97.9869 72.1916 98.4305 69.5708C98.4305 69.5708 102.965 69.8255 103.097 69.8008C103.097 69.8008 98.8249 64.0499 95.2511 63.6227C94.731 63.5507 94.202 63.66 93.753 63.9324C93.3041 64.2047 92.9628 64.6234 92.7864 65.118C92.7864 65.118 91.6116 63.1052 89.6892 63.3106C88.7033 63.4174 87.9968 65.0933 87.9968 65.0933C87.7085 64.6509 87.3034 64.297 86.8263 64.0708C86.3492 63.8446 85.8188 63.7549 85.2938 63.8117C83.9383 64.0335 83.2646 65.7259 83.1906 66.3832C82.6156 71.4111 84.7598 77.8356 84.7598 77.8356Z" fill="#FFE3CA"/>
<path d="M83.3511 65.9219C83.3511 65.9219 83.2936 65.9219 83.2854 65.9219C82.5446 70.0052 83.0633 74.2172 84.7724 77.9988C84.8299 78.1138 85.0435 78.0727 85.0025 77.9331C83.8751 74.0301 83.3189 69.9844 83.3511 65.9219Z" fill="#221429"/>
<path d="M87.991 65.0353C87.991 64.986 87.9171 64.986 87.9089 65.0353C87.1429 69.5441 88.0172 74.1782 90.3735 78.098C90.4639 78.2376 90.6775 78.2705 90.5871 78.098C89.0837 75.3704 87.9089 68.8391 87.991 65.0353Z" fill="#221429"/>
<path d="M96.0207 77.7623C93.7696 73.901 92.9727 69.711 92.7837 65.2828C92.7837 65.2253 92.7016 65.2336 92.6852 65.2828C92.1922 67.4764 92.6112 70.2779 93.1206 72.4386C93.5568 74.4485 94.5113 76.3093 95.8892 77.8362C95.9303 77.9019 96.0207 77.8444 96.0207 77.7623Z" fill="#221429"/>
<path d="M84.7589 77.8353C85.1163 78.5731 85.5398 79.277 86.0241 79.9385C86.4688 80.601 87.0811 81.1339 87.7986 81.483C88.1398 81.6139 88.5173 81.6139 88.8584 81.483C89.2074 81.3582 89.5185 81.1461 89.7622 80.8668C89.9776 80.5676 90.1283 80.2268 90.2047 79.8661C90.2811 79.5054 90.2814 79.1327 90.2058 78.7719L89.9018 76.9973L90.8055 78.5583C91.2006 79.2562 91.7054 79.8859 92.3008 80.4232C92.5607 80.6871 92.874 80.8925 93.2197 81.0257C93.5654 81.1588 93.9355 81.2167 94.3054 81.1955C94.6499 81.1746 94.9768 81.0359 95.2311 80.8025C95.4854 80.5691 95.6517 80.2553 95.702 79.9138C95.7973 79.1459 95.6985 78.3662 95.4145 77.6464L94.6833 75.6418L96.0224 77.2849C96.395 77.7436 96.8227 78.1548 97.2958 78.509C97.7349 78.8565 98.2661 79.0678 98.8239 79.1169C99.0755 79.1284 99.3253 79.07 99.5457 78.9482C99.7662 78.8264 99.9485 78.6459 100.073 78.4268C100.266 77.9014 100.309 77.3322 100.196 76.7837C99.9604 75.5714 99.6308 74.3793 99.21 73.2182C99.0129 72.6267 98.8157 72.0269 98.6514 71.419C98.4499 70.8221 98.3771 70.1893 98.4378 69.5623C98.4488 70.1832 98.577 70.7964 98.8157 71.3697C99.0293 71.953 99.2675 72.5281 99.5058 73.1114C100.015 74.2734 100.414 75.481 100.697 76.718C100.866 77.3826 100.838 78.0821 100.615 78.7308C100.454 79.071 100.198 79.3566 99.8763 79.5523C99.555 79.748 99.1834 79.8451 98.8075 79.8317C98.1132 79.7925 97.4465 79.5464 96.8933 79.1251C96.3586 78.7423 95.8753 78.2922 95.4555 77.786L96.0635 77.4245C96.4177 78.267 96.5452 79.1876 96.4332 80.0946C96.358 80.5994 96.108 81.0617 95.7266 81.4009C95.3464 81.7172 94.8798 81.9119 94.3875 81.9595C93.9177 81.9884 93.4472 81.9161 93.0079 81.7474C92.5685 81.5788 92.1704 81.3177 91.8407 80.9819C91.18 80.3895 90.6244 79.6895 90.1976 78.9115L90.7973 78.6979C90.8742 79.1484 90.8523 79.6102 90.7331 80.0513C90.614 80.4925 90.4004 80.9025 90.1072 81.253C89.7907 81.5831 89.3946 81.8264 88.957 81.9595C88.5115 82.097 88.0305 82.0618 87.6097 81.8609C86.8542 81.4478 86.2305 80.8299 85.8105 80.0781C85.3762 79.3727 85.0234 78.6203 84.7589 77.8353Z" fill="#221429"/>
<path d="M90.0999 88.7216C90.0999 88.7216 74.4328 80.7115 80.5698 76.1272C82.3855 74.7634 91.4965 71.3376 92.2195 73.1532C93.1561 75.4946 89.6152 77.6389 87.1834 78.6247C87.1834 78.6247 92.8932 80.6047 92.7042 84.9836C92.6567 85.7861 92.3884 86.5599 91.9288 87.2196C91.4692 87.8792 90.8363 88.399 90.0999 88.7216Z" fill="#FFE3CA"/>
<path d="M80.0862 76.5373C80.7328 75.9154 81.4696 75.3947 82.2716 74.9928C83.0685 74.5681 83.8917 74.1949 84.7362 73.8755C86.4138 73.2166 88.1456 72.7053 89.9121 72.3474C90.3818 72.2489 90.8636 72.2212 91.3416 72.2652C91.6307 72.283 91.9119 72.3674 92.1631 72.5117C92.2936 72.5873 92.4103 72.6845 92.5082 72.7992C92.6049 72.9134 92.6801 73.0443 92.73 73.1854C92.9189 73.6914 92.9189 74.2485 92.73 74.7545C92.5568 75.2161 92.3006 75.6421 91.9742 76.0115C91.3551 76.7119 90.6183 77.2986 89.797 77.745C89.007 78.1972 88.1829 78.5872 87.3324 78.9116V78.3283C87.976 78.5796 88.5949 78.8904 89.1809 79.2567C89.7702 79.6119 90.3209 80.0277 90.824 80.4972C91.3197 80.9797 91.7406 81.5335 92.0727 82.1403C92.409 82.7313 92.6293 83.381 92.7218 84.0545C92.5478 83.414 92.2703 82.8063 91.9002 82.2553C91.5223 81.7216 91.0747 81.2409 90.5693 80.8258C90.062 80.4019 89.5112 80.0329 88.9262 79.7249C88.3577 79.4117 87.7607 79.1531 87.1434 78.9527L86.3794 78.7144L87.1188 78.3694C87.9199 78.0223 88.6966 77.6216 89.4438 77.1699C90.1819 76.744 90.8475 76.2032 91.4155 75.5679C91.6876 75.3047 91.8878 74.9763 91.9971 74.614C92.1063 74.2516 92.1211 73.8673 92.0399 73.4976C91.8591 72.9225 90.8815 72.9471 90.0517 73.0703C89.2219 73.1936 88.3429 73.4154 87.4802 73.629C86.6176 73.8426 85.7714 74.0809 84.9252 74.352C83.2087 74.8252 81.5762 75.5625 80.0862 76.5373Z" fill="#221429"/>
<path d="M72.0676 100.057C85.9191 117.153 106.055 128.228 111.026 124.621C115.996 121.015 99.2447 102.135 98.9571 101.856C97.9795 100.919 90.5691 97.0663 77.112 91.3975C63.9096 85.8356 65.8813 92.4245 72.0676 100.057Z" fill="#FFE3CA"/>
<path d="M92.7326 98.0772L82.2989 111.797C82.2989 111.797 73.5411 102.76 68.9075 96.7792C64.2739 90.7983 64.734 86.1483 75.102 90.0096C81.1714 92.2565 87.0646 94.9532 92.7326 98.0772Z" fill="#221429"/>
<path d="M81.3058 108.653C82.5792 106.78 83.9101 104.94 85.2739 103.141C85.9558 102.253 86.6131 101.35 87.3114 100.471C88.0097 99.5915 88.8066 98.7124 89.5214 97.8087C89.5707 97.743 89.6692 97.8087 89.62 97.8744C88.9627 98.7782 88.3712 99.7229 87.7139 100.627C87.0567 101.53 86.3337 102.467 85.6354 103.387C84.2607 105.195 82.8449 106.969 81.388 108.711C81.3469 108.76 81.2319 108.711 81.3058 108.653Z" fill="#221429"/>
<path d="M87.2975 105.21L82.3024 111.782C82.3024 111.782 73.5447 102.745 68.9111 96.764L68.4674 96.1807L68.2785 95.9096L67.9909 95.4906C67.7445 95.1292 67.5227 94.7759 67.3255 94.4308C67.2515 94.3076 67.1858 94.1844 67.1201 94.0611C66.7774 93.4376 66.502 92.7794 66.2985 92.0976C66.238 91.8873 66.1914 91.6732 66.1589 91.4568C66.1589 91.35 66.1589 91.2514 66.1589 91.1528C70.7103 94.3076 81.3905 101.217 87.2975 105.21Z" fill="#221429"/>
<path d="M87.7155 150.437C87.7155 150.437 40.172 151.258 39.8927 150.962C39.1533 150.141 48.7573 101.184 58.6899 91.0957C62.198 87.5302 69.4359 88.9844 70.6435 89.5677C73.4286 90.915 76.0494 93.8233 78.2429 99.2127C82.63 109.992 88.3152 149.664 87.7155 150.437Z" fill="#221429"/>
<path opacity="0.1" d="M73.0182 91.1774H58.6163L58.6903 91.0953C59.0254 90.7563 59.3974 90.4559 59.7994 90.1998H71.753C72.2005 90.4909 72.6236 90.8178 73.0182 91.1774ZM74.6038 92.8205H57.2607C57.0307 93.1245 56.8089 93.4531 56.5871 93.7982H75.3596C75.1214 93.4531 74.8749 93.1492 74.6613 92.8205H74.6038ZM76.3948 95.4413H55.593C55.4122 95.7617 55.2315 96.0903 55.059 96.4272H76.9534C76.7809 96.0903 76.6002 95.7535 76.4112 95.4413H76.3948ZM77.7339 98.0703H54.2292L53.7609 99.0479H78.1693C78.0379 98.7111 77.8982 98.3824 77.7503 98.0785L77.7339 98.0703ZM78.7773 100.691H53.0379L52.619 101.669H79.1141C79.0073 101.365 78.9005 101.003 78.7691 100.691H78.7773ZM79.5988 103.312H51.9535C51.8303 103.64 51.6988 103.961 51.5674 104.298H79.8864L79.5988 103.312ZM80.3054 105.933H50.9594C50.8444 106.261 50.7212 106.582 50.6061 106.918H80.5683C80.4642 106.584 80.3821 106.256 80.3218 105.933H80.3054ZM80.9462 108.562H50.0146C49.8996 108.882 49.7928 109.211 49.686 109.539H81.168L80.9462 108.562ZM81.5377 111.182H49.1931C49.0863 111.503 48.9877 111.831 48.8809 112.16H81.8088C81.6938 111.831 81.6281 111.503 81.5541 111.223L81.5377 111.182ZM82.0964 113.803H48.3715C48.2647 114.123 48.1661 114.452 48.0675 114.789H82.3593C82.2525 114.46 82.1867 114.132 82.1128 113.803H82.0964ZM82.6304 116.424H47.55C47.4514 116.752 47.3528 117.081 47.2624 117.41H82.8768L82.6304 116.424ZM83.1398 119.053H46.7777C46.6791 119.381 46.5887 119.702 46.4984 120.03H83.3369C83.2794 119.702 83.2219 119.373 83.1562 119.053H83.1398ZM83.6245 121.674H46.0465C45.9561 122.002 45.8658 122.331 45.7836 122.651H83.8216C83.7641 122.323 83.6984 122.002 83.6409 121.674H83.6245ZM84.0927 124.294H45.3482C45.2578 124.623 45.1757 124.952 45.0935 125.28H84.2817C84.2324 124.952 84.1749 124.623 84.1092 124.294H84.0927ZM84.561 126.923H44.6663C44.5924 127.252 44.5102 127.572 44.428 127.901H84.7336C84.6843 127.58 84.6268 127.252 84.5775 126.923H84.561ZM84.9883 129.544H44.0173C43.9433 129.873 43.8612 130.201 43.7872 130.522H85.169C85.1197 130.201 85.0622 129.873 85.0047 129.544H84.9883ZM85.4155 132.165H43.3929C43.3189 132.502 43.245 132.83 43.1629 133.151H85.588C85.5387 132.822 85.4894 132.502 85.4319 132.165H85.4155ZM85.8344 134.786H42.7932C42.7192 135.114 42.6453 135.451 42.5713 135.771H85.9905C85.9412 135.451 85.892 135.122 85.8509 134.786H85.8344ZM86.2206 137.415H42.2098C42.1441 137.743 42.0702 138.072 42.0045 138.392H86.3685L86.2206 137.415ZM86.5985 140.035H41.6512C41.5855 140.372 41.5197 140.692 41.454 141.013H86.7546C86.7053 140.692 86.6642 140.364 86.6149 140.035H86.5985ZM86.96 142.656H41.1336C41.0569 142.996 40.9912 143.324 40.9364 143.642H87.1079C87.0668 143.321 86.9846 142.993 86.9846 142.656H86.96ZM87.2886 145.277H40.6325C40.5667 145.622 40.5092 145.95 40.4517 146.263H87.4283C87.3954 145.95 87.3543 145.622 87.305 145.277H87.2886ZM87.5926 147.906H40.156C40.0984 148.259 40.0574 148.588 40.0081 148.883H87.6583C87.6747 148.596 87.6419 148.267 87.609 147.906H87.5926ZM39.8438 150.527C39.8073 150.669 39.8073 150.819 39.8438 150.962C40.0656 151.184 69.5512 150.732 82.1128 150.527H39.8438Z" fill="#030402"/>
<path d="M61.398 97.0282C58.194 101.423 41.7628 119.588 41.1549 121.272C40.5469 122.956 44.3507 126.678 44.285 127.376C44.0386 130.219 37.9015 149.131 35.4451 147.209C32.2082 144.678 18.5046 126.555 20.4435 118.709C22.3824 110.863 54.3819 92.0249 59.4592 90.39C64.5364 88.7551 64.561 92.6904 61.398 97.0282Z" fill="#FFE3CA"/>
<path d="M48.4882 113.565L39.1553 100.461C39.1553 100.461 49.5973 93.6093 56.5805 90.6846C63.5638 87.7598 67.0061 89.3865 60.6226 98.4154C56.8911 103.708 52.8387 108.768 48.4882 113.565Z" fill="#221429"/>
<path d="M41.925 99.6055C43.4038 101.32 44.8415 103.072 46.2382 104.863C46.9283 105.743 47.6266 106.613 48.292 107.509C48.9575 108.404 49.6147 109.407 50.3131 110.327C50.3624 110.393 50.2638 110.475 50.2145 110.409C49.5079 109.587 48.7521 108.766 48.0456 107.862C47.339 106.958 46.6161 106.055 45.9095 105.151C44.5129 103.36 43.1573 101.528 41.851 99.6713C41.8018 99.622 41.8839 99.5562 41.925 99.6055Z" fill="#221429"/>
<path d="M48.4787 113.631C49.9082 111.733 51.5924 110.04 53.1369 108.241C54.6814 106.442 56.2177 104.585 57.6883 102.712C57.6883 102.712 57.7951 102.712 57.7622 102.762C57.0804 103.739 56.4149 104.725 55.7001 105.678C55.3469 106.146 54.9772 106.606 54.5993 107.066L55.1497 106.615C55.7129 106.191 56.2969 105.796 56.8996 105.432C56.8996 105.432 56.9653 105.432 56.8996 105.481C56.3768 105.965 55.8283 106.42 55.2565 106.845C54.8457 107.157 54.4349 107.444 53.9995 107.732L53.3423 108.553C51.9083 110.405 50.3108 112.123 48.569 113.688C48.5197 113.762 48.4294 113.688 48.4787 113.631Z" fill="#221429"/>
<path d="M43.482 154.387C45.6756 152.9 42.6604 151.158 42.6604 151.158C42.6604 151.158 47.5898 152.62 49.2329 150.213C50.876 147.806 47.1297 145.916 46.8668 145.768C47.1297 145.851 51.6976 147.067 53.1271 144.479C54.5566 141.891 50.5474 140.445 50.2845 140.371C50.5556 140.371 54.1129 140.215 54.7537 137.997C55.8464 134.193 45.6263 133.749 43.4245 131.424C43.4245 131.424 44.4104 126.396 44.4925 126.257C43.8315 127.385 42.8057 128.254 41.5842 128.721C39.3742 129.346 37.3861 129.707 36.4906 130.767C36.0728 131.231 35.8152 131.816 35.7561 132.438C35.6969 133.059 35.8392 133.683 36.1619 134.217C36.1619 134.217 33.3687 133.897 32.1774 135.902C31.5694 136.929 32.6785 138.826 32.6785 138.826C32.0464 138.781 31.4141 138.91 30.8505 139.2C30.2869 139.49 29.8138 139.929 29.4827 140.469C28.7187 141.948 29.951 143.616 29.951 143.616C29.951 143.616 27.7164 144.438 27.4288 146.212C26.8784 149.769 38.7827 157.558 43.482 154.387Z" fill="#FFE3CA"/>
<path d="M30.1464 143.922C30.1464 143.922 30.056 143.922 30.0889 143.979C33.4943 147.648 37.936 150.192 42.823 151.274C42.9791 151.274 43.0941 151.061 42.9298 150.995C38.3485 149.269 34.0423 146.886 30.1464 143.922Z" fill="#221429"/>
<path d="M32.6484 138.794C32.643 138.79 32.6368 138.787 32.6302 138.785C32.6235 138.783 32.6166 138.782 32.6097 138.783C32.6028 138.784 32.5962 138.786 32.5902 138.789C32.5841 138.792 32.5788 138.797 32.5744 138.802C32.5701 138.808 32.5669 138.814 32.565 138.821C32.5631 138.827 32.5625 138.834 32.5632 138.841C32.564 138.848 32.5661 138.855 32.5694 138.861C32.5728 138.867 32.5773 138.872 32.5827 138.876C36.3791 142.879 41.481 145.394 46.9681 145.966C47.1571 145.966 47.346 145.802 47.1242 145.769C43.4436 145.21 36.2632 141.62 32.6484 138.794Z" fill="#221429"/>
<path d="M50.7267 140.25C45.3701 139.642 40.7448 137.375 36.333 134.368C36.2755 134.368 36.2262 134.409 36.2591 134.458C38.0172 136.521 41.0323 138.147 43.4888 139.215C45.7445 140.248 48.2319 140.67 50.702 140.439C50.8335 140.431 50.8335 140.267 50.7267 140.25Z" fill="#221429"/>
<path d="M29.8455 143.617C29.3993 143.168 29.0863 142.604 28.9412 141.988C28.7962 141.371 28.8248 140.727 29.0239 140.126C29.2813 139.56 29.7331 139.105 30.2974 138.844C30.9699 138.611 31.689 138.547 32.3923 138.655C32.0002 138.102 31.7848 137.444 31.7745 136.766C31.7642 136.089 31.9596 135.424 32.3348 134.859C32.7556 134.377 33.3417 134.069 33.9779 133.997C34.704 133.926 35.4363 133.954 36.155 134.079C35.8556 133.726 35.6426 133.309 35.5328 132.86C35.423 132.411 35.4194 131.942 35.5224 131.491C35.6584 131.001 35.9078 130.551 36.2503 130.175C36.5929 129.8 37.019 129.51 37.4942 129.33C38.6121 128.926 39.7725 128.65 40.9529 128.509C41.5589 128.418 42.1518 128.255 42.7193 128.024C43.3308 127.744 43.8434 127.286 44.1899 126.71C44.2556 126.611 44.2556 126.71 44.1899 126.8C43.9598 127.192 43.6654 127.541 43.319 127.835C42.9593 128.148 42.5586 128.411 42.1278 128.616C41.0583 129.019 39.9598 129.34 38.8415 129.577C37.8613 129.838 36.9948 130.416 36.3769 131.22C36.0945 131.646 35.9357 132.141 35.9183 132.652C35.9009 133.163 36.0255 133.668 36.2783 134.112C36.2783 134.112 36.2783 134.219 36.2043 134.21C35.5484 134.208 34.8945 134.285 34.2573 134.44C33.7287 134.567 33.2522 134.854 32.8935 135.262C32.5611 135.783 32.371 136.381 32.3422 136.998C32.3133 137.615 32.4468 138.229 32.7292 138.778C32.0207 138.826 31.3271 139.004 30.6835 139.304C30.2657 139.561 29.9295 139.931 29.7141 140.372C29.468 140.88 29.3676 141.446 29.4242 142.007C29.4808 142.568 29.692 143.103 30.0345 143.551C30.0376 143.565 30.0376 143.579 30.0345 143.593C30.0345 143.593 29.3197 143.888 29.2868 143.888C29.4673 143.787 29.6539 143.696 29.8455 143.617Z" fill="#221429"/>
<path d="M70.6227 96.8538C68.0101 97.815 62.9001 94.2577 60.6736 91.1522C60.5258 90.9386 60.3779 81.6961 60.1643 79.8723C60.115 79.4943 71.97 81.2853 71.97 81.2853C71.5911 83.6482 71.5028 86.0486 71.7071 88.4329C71.74 88.6958 73.1449 95.9337 70.6227 96.8538Z" fill="#FFE3CA"/>
<path d="M71.97 81.2857C71.97 81.2857 71.8386 82.0497 71.7318 83.1835C68.4456 87.2173 63.1712 87.6445 60.4929 87.5541C60.4025 84.6869 60.2957 80.9817 60.1643 79.8726C60.115 79.5029 71.97 81.2857 71.97 81.2857Z" fill="#221429"/>
<path d="M60.2126 60.1807C60.2126 60.1807 56.4334 61.6431 55.6612 65.4222C54.8889 69.2014 55.6612 73.2106 55.9734 73.416C56.2856 73.6214 60.2126 60.1807 60.2126 60.1807Z" fill="#221429"/>
<path d="M75.4805 65.0596C76.45 69.2249 73.5088 80.8828 70.4197 83.3146C65.9505 86.8473 59.0165 86.7487 56.1082 81.4661C53.2985 76.3478 57.4063 61.2312 60.8158 59.0541C65.8272 55.8582 74.0264 58.898 75.4805 65.0596Z" fill="#FFE3CA"/>
<path d="M63.7575 71.6088C63.7575 71.6088 63.815 71.6581 63.8068 71.6909C63.6425 72.5125 63.585 73.4408 64.2751 73.8352C64.2751 73.8352 64.2751 73.8845 64.2751 73.8763C63.3878 73.5969 63.47 72.3399 63.7575 71.6088Z" fill="#221429"/>
<path d="M64.621 70.8852C65.9437 71.0085 65.5905 73.6375 64.3746 73.5224C63.1587 73.4074 63.5201 70.7784 64.621 70.8852Z" fill="#221429"/>
<path d="M59.169 70.7938C59.169 70.7938 59.1032 70.7938 59.095 70.8595C59.0211 71.681 58.7993 72.593 58.027 72.7737V72.823C58.9472 72.8066 59.2265 71.5742 59.169 70.7938Z" fill="#221429"/>
<path d="M58.5572 69.8502C57.2591 69.5873 56.8237 72.1999 58.0314 72.4463C59.239 72.6928 59.6416 70.072 58.5572 69.8502Z" fill="#221429"/>
<path d="M63.5781 78.4032C63.3645 78.5757 63.1427 78.8222 62.8469 78.8222C62.5429 78.7906 62.249 78.6955 61.9843 78.5429C62.085 78.7145 62.231 78.8551 62.4064 78.9493C62.5817 79.0435 62.7796 79.0876 62.9783 79.0769C63.1515 79.0554 63.3134 78.9793 63.4404 78.8596C63.5674 78.74 63.6531 78.583 63.6849 78.4114C63.6849 78.4114 63.611 78.3621 63.5781 78.4032Z" fill="#221429"/>
<path d="M59.776 74.6555C59.776 74.6555 59.4309 75.8385 59.3488 76.4136C60.4657 76.5769 61.5531 76.9007 62.5775 77.3749C62.8157 77.4899 62.8486 77.2845 62.5775 77.0709C61.8131 76.45 60.8802 76.0723 59.8992 75.9864C59.8992 75.8221 60.4661 74.1708 60.3757 74.1462C59.932 74.1206 59.4869 74.1566 59.053 74.253C59.6938 71.7883 60.6961 69.3893 61.3369 66.859C61.3369 66.7686 61.2301 66.7193 61.189 66.7932C60.0036 69.3023 59.068 71.922 58.3957 74.6144C58.2889 74.9759 59.5295 74.7212 59.776 74.6555Z" fill="#221429"/>
<path d="M65.6234 69.9893C65.3112 69.7921 65.0648 69.5539 64.8019 69.3321C64.539 69.1102 64.1939 68.9048 64.0707 68.5105C64.0443 68.3918 64.0593 68.2677 64.1131 68.1586C64.1668 68.0495 64.2562 67.9621 64.3664 67.9108C64.5975 67.8351 64.8448 67.8235 65.082 67.877C65.3192 67.9305 65.5375 68.0472 65.7138 68.2147C66.1287 68.4933 66.4224 68.9191 66.5353 69.406C66.557 69.5204 66.5439 69.6387 66.4978 69.7456C66.4517 69.8525 66.3746 69.9431 66.2765 70.0058C66.1784 70.0686 66.0638 70.1005 65.9474 70.0976C65.831 70.0946 65.7182 70.0569 65.6234 69.9893Z" fill="#221429"/>
<path d="M57.9822 66.9563C58.3437 66.8988 58.6724 66.8002 59.0256 66.7098C59.4062 66.6773 59.7648 66.5182 60.0444 66.2579C60.1177 66.161 60.1573 66.0427 60.1573 65.9211C60.1573 65.7995 60.1177 65.6813 60.0444 65.5843C59.8643 65.4204 59.6438 65.3073 59.4055 65.2568C59.1673 65.2063 58.9199 65.22 58.6888 65.2967C58.1951 65.3793 57.7499 65.643 57.44 66.0361C57.3775 66.1288 57.3425 66.2372 57.3391 66.3489C57.3357 66.4607 57.364 66.5711 57.4207 66.6673C57.4775 66.7636 57.5603 66.8419 57.6597 66.893C57.7591 66.9442 57.8709 66.9661 57.9822 66.9563Z" fill="#221429"/>
<path d="M73.5406 75.0172C71.1252 74.779 72.4397 64.1234 72.4397 64.1234C70.9488 64.6312 69.389 64.9083 67.8144 64.945C66.2235 64.889 64.6441 64.6519 63.1069 64.2384C62.7782 64.1152 67.1407 62.8829 67.1407 62.8829C67.1407 62.8829 56.4112 63.8194 56.0497 61.7984C55.9183 61.1001 57.9146 54.7412 66.8203 55.1438C73.3927 55.4396 76.4571 62.3078 76.4571 62.3078C76.4571 62.3078 79.653 65.8651 79.1026 67.4753C78.166 70.3015 76.1039 75.2719 73.5406 75.0172Z" fill="#221429"/>
<path d="M72.0825 75.075C72.0825 75.075 75.0812 71.493 76.7325 72.6103C78.3838 73.7276 75.911 79.0595 73.7913 79.6428C73.5273 79.7346 73.2474 79.7721 72.9685 79.7532C72.6896 79.7344 72.4173 79.6594 72.168 79.5328C71.9188 79.4063 71.6976 79.2307 71.5177 79.0167C71.3379 78.8027 71.203 78.5546 71.1213 78.2872L72.0825 75.075Z" fill="#FFE3CA"/>
<path d="M112.096 124.006C118.767 118.855 112.392 92.7047 108.514 83.0761C107.372 80.2417 89.257 85.5407 90.1032 88.7201C94.9422 106.704 104.793 129.65 112.096 124.006Z" fill="#FFE3CA"/>
<path d="M93.099 98.5874L95.0954 103.517C95.7773 105.16 96.4427 106.803 97.1821 108.446C97.9215 110.089 98.6363 111.675 99.3921 113.277C100.148 114.879 100.986 116.448 101.808 118.025C100.768 116.578 99.8214 115.066 98.9731 113.499C98.1516 111.929 97.33 110.319 96.6153 108.693C95.9005 107.066 95.2433 105.406 94.6518 103.714C94.0602 102.022 93.5509 100.321 93.099 98.5874Z" fill="#221429"/>
<path d="M91.9166 46.6086C91.9958 47.5326 91.7994 48.4593 91.3522 49.2717C90.905 50.0841 90.2271 50.7458 89.404 51.173C88.581 51.6003 87.6497 51.7741 86.728 51.6723C85.8062 51.5706 84.9353 51.1979 84.2252 50.6014C83.5152 50.0049 82.9978 49.2114 82.7386 48.321C82.4794 47.4306 82.4898 46.4834 82.7687 45.5989C83.0475 44.7145 83.5823 43.9326 84.3053 43.3519C85.0284 42.7712 85.9074 42.4179 86.8311 42.3366C87.4457 42.2824 88.0649 42.3501 88.6533 42.5356C89.2417 42.7211 89.7877 43.0209 90.2601 43.4177C90.7324 43.8145 91.1219 44.3006 91.4061 44.8482C91.6904 45.3957 91.8638 45.994 91.9166 46.6086Z" fill="white"/>
<path d="M91.9186 46.6086C92.0203 47.8666 91.6357 49.1156 90.844 50.0984C90.0522 51.0812 88.9137 51.7229 87.6629 51.8912C86.9818 52.0279 86.2795 52.0191 85.6021 51.8654C84.9246 51.7116 84.2873 51.4164 83.732 50.9991C83.1766 50.5818 82.7157 50.0518 82.3795 49.444C82.0433 48.8361 81.8394 48.164 81.7811 47.4717C81.7228 46.7795 81.8115 46.0828 82.0414 45.4272C82.2713 44.7717 82.6371 44.1721 83.1149 43.6679C83.5927 43.1636 84.1717 42.766 84.8139 42.5012C85.4561 42.2364 86.147 42.1103 86.8414 42.1312C88.0993 42.0882 89.3261 42.528 90.2701 43.3606C91.2142 44.1931 91.8039 45.3552 91.9186 46.6086ZM91.9186 46.6086C91.8661 46.0043 91.6917 45.4168 91.4061 44.8817C91.1204 44.3465 90.7294 43.8747 90.2565 43.4947C89.7836 43.1148 89.2387 42.8344 88.6546 42.6707C88.0705 42.5069 87.4593 42.4632 86.8578 42.542C85.7078 42.6897 84.6595 43.2762 83.9318 44.1789C83.2042 45.0816 82.8536 46.2305 82.9533 47.3857C83.053 48.5408 83.5953 49.6127 84.4669 50.3773C85.3384 51.142 86.4718 51.5402 87.6301 51.4887C88.2367 51.4632 88.8319 51.3151 89.3797 51.0533C89.9275 50.7914 90.4165 50.4213 90.8173 49.9652C91.2181 49.5091 91.5223 48.9766 91.7116 48.3997C91.9009 47.8228 91.9713 47.2135 91.9186 46.6086Z" fill="#221429"/>
<path d="M81.7092 55.2586C81.7528 55.7733 81.6428 56.2895 81.3931 56.7417C81.1434 57.194 80.7653 57.5621 80.3064 57.7995C79.8476 58.0369 79.3287 58.1329 78.8153 58.0754C78.3019 58.0179 77.817 57.8095 77.4221 57.4765C77.0271 57.1436 76.7397 56.7009 76.5962 56.2047C76.4527 55.7084 76.4596 55.1807 76.616 54.6883C76.7723 54.1959 77.0712 53.761 77.4747 53.4384C77.8782 53.1158 78.3683 52.9201 78.883 52.8761C79.2253 52.8457 79.5702 52.8833 79.8978 52.9868C80.2255 53.0902 80.5294 53.2575 80.7921 53.479C81.0548 53.7005 81.2711 53.9717 81.4285 54.2771C81.5859 54.5826 81.6813 54.9161 81.7092 55.2586Z" fill="white"/>
<path d="M81.7124 55.2593C81.7585 55.8231 81.6339 56.3877 81.3548 56.8797C81.0756 57.3718 80.6548 57.7684 80.1472 58.0179C79.6395 58.2675 79.0685 58.3586 78.5084 58.2792C77.9483 58.1998 77.4251 57.9537 77.0068 57.5729C76.5885 57.192 76.2945 56.6942 76.1631 56.1439C76.0316 55.5937 76.0688 55.0167 76.2698 54.4879C76.4708 53.9592 76.8262 53.5031 77.29 53.1791C77.7537 52.8552 78.3042 52.6782 78.8698 52.6714C79.5816 52.6685 80.2686 52.9328 80.7949 53.412C81.3212 53.8912 81.6486 54.5504 81.7124 55.2593ZM81.7124 55.2593C81.6853 54.926 81.5891 54.6019 81.4299 54.3079C81.2706 54.0138 81.0519 53.7561 80.7875 53.5513C80.5232 53.3465 80.219 53.199 79.8945 53.1182C79.57 53.0374 79.2322 53.0252 78.9027 53.0822C78.4401 53.1605 78.0103 53.3718 77.6658 53.6903C77.3213 54.0089 77.0771 54.4209 76.9629 54.876C76.8488 55.3311 76.8696 55.8096 77.0229 56.253C77.1762 56.6964 77.4554 57.0856 77.8263 57.373C78.1972 57.6604 78.6437 57.8335 79.1114 57.8712C79.5791 57.909 80.0476 57.8097 80.4598 57.5855C80.8719 57.3613 81.2099 57.022 81.4323 56.6089C81.6548 56.1958 81.7521 55.7268 81.7124 55.2593Z" fill="#221429"/>
<path d="M126.962 24.7867C127.398 28.3934 126.385 32.0257 124.145 34.8862C121.905 37.7466 118.622 39.6013 115.016 40.043C112.643 40.3385 110.234 40.0012 108.033 39.0654C106.959 40.4706 105.576 41.6093 103.991 42.3931C102.406 43.1769 100.662 43.5847 98.8932 43.5847C97.1248 43.5847 95.3803 43.1769 93.7951 42.3931C92.21 41.6093 90.8269 40.4706 89.7534 39.0654C89.2482 39.2146 88.7316 39.3218 88.2088 39.3858C86.4199 39.6042 84.6061 39.299 82.9871 38.5073C81.3681 37.7156 80.0135 36.4714 79.0874 34.9253C78.1613 33.3793 77.7036 31.5978 77.7696 29.7968C77.8356 27.9958 78.4225 26.2526 79.4593 24.7785C77.4404 22.2099 76.4056 19.0046 76.5415 15.7404C76.6774 12.4762 77.975 9.36798 80.2004 6.97608C82.4257 4.58419 85.4324 3.06604 88.6784 2.69535C91.9243 2.32466 95.1958 3.12584 97.9032 4.95441C99.173 3.37547 100.837 2.16 102.728 1.43103C104.619 0.702059 106.668 0.485455 108.669 0.80314C110.67 1.12083 112.552 1.96152 114.124 3.24015C115.696 4.51878 116.902 6.18995 117.621 8.08453C118.1 7.9231 118.596 7.81294 119.099 7.75591C120.618 7.57384 122.157 7.85912 123.51 8.57373C124.863 9.28833 125.966 10.3983 126.671 11.7557C127.377 13.1131 127.653 14.6534 127.461 16.1713C127.269 17.6893 126.619 19.1126 125.598 20.2518C126.316 21.6712 126.778 23.2065 126.962 24.7867Z" fill="white"/>
<path d="M126.966 24.7874C127.393 28.3928 126.394 32.0223 124.181 34.9007C123.439 35.8383 122.584 36.6801 121.634 37.4065C119.711 38.8619 117.442 39.791 115.051 40.1022C112.659 40.4134 110.228 40.0959 107.997 39.181H108.128C107.048 40.6131 105.653 41.7764 104.049 42.5802C102.446 43.3839 100.679 43.8064 98.8855 43.8146C97.0836 43.821 95.3044 43.4134 93.685 42.6234C92.0664 41.8195 90.6486 40.6628 89.5362 39.2385L89.8319 39.3371C87.9204 39.9144 85.877 39.8857 83.9824 39.255C82.0792 38.6268 80.4211 37.417 79.2421 35.7962C78.665 34.9815 78.2084 34.0877 77.8865 33.1426C77.5786 32.192 77.4152 31.2006 77.4018 30.2014C77.3839 28.1877 77.9926 26.2182 79.1435 24.5656V25.0257C77.0421 22.3948 75.9704 19.089 76.1284 15.7257C76.2175 13.2203 76.9793 10.7852 78.3339 8.6757C79.6885 6.56624 81.5858 4.86027 83.8269 3.73679C86.068 2.61331 88.5701 2.11374 91.0708 2.29052C93.5715 2.46729 95.9785 3.31389 98.0393 4.74147L97.6778 4.79076C98.9825 3.18475 100.689 1.95266 102.624 1.21964C104.559 0.486624 106.654 0.278793 108.695 0.617262C110.724 0.953907 112.628 1.82022 114.215 3.12862C115.802 4.43703 117.015 6.14116 117.732 8.06876L117.625 8.01125C119.231 7.48915 120.964 7.51226 122.554 8.07698C123.724 8.49529 124.772 9.19572 125.607 10.1162C126.441 11.0367 127.035 12.1487 127.336 13.3538C127.638 14.5588 127.637 15.8197 127.335 17.0245C127.032 18.2293 126.437 19.3409 125.602 20.2606C126.321 21.6769 126.783 23.2096 126.966 24.7874ZM126.966 24.7874C126.772 23.2077 126.299 21.675 125.57 20.2606C126.686 19.035 127.362 17.4723 127.492 15.8194C127.621 14.1666 127.196 12.5177 126.284 11.1332C125.382 9.75247 124.047 8.71042 122.489 8.17065C120.931 7.63087 119.237 7.62393 117.674 8.15092H117.592V8.06876C116.863 6.20353 115.66 4.56102 114.101 3.30375C112.541 2.04866 110.675 1.23194 108.695 0.937668C106.724 0.643291 104.71 0.869881 102.854 1.59491C101.009 2.32743 99.3902 3.53486 98.1625 5.09474L98.0064 5.29191L97.7928 5.14403C95.1483 3.38155 91.9629 2.61765 88.8067 2.98903C85.6505 3.36041 82.7294 4.84284 80.5662 7.17102C78.4031 9.4992 77.139 12.5212 77.0003 15.6961C76.8615 18.8711 77.8571 21.9918 79.8089 24.4999L79.9897 24.7299L79.8172 24.9681C78.7438 26.4833 78.1695 28.2953 78.1741 30.1522C78.1871 31.0749 78.3338 31.9908 78.6095 32.8715C78.8976 33.7504 79.3157 34.5812 79.85 35.3362C80.9372 36.8566 82.4692 38.0026 84.2348 38.6162C86.0004 39.2297 87.9129 39.2807 89.7087 38.762L89.8976 38.7127L90.0044 38.8606C91.0499 40.2372 92.3922 41.3604 93.9315 42.1468C96.2752 43.3341 98.959 43.6686 101.522 43.093C104.086 42.5173 106.369 41.0674 107.98 38.9921L108.038 38.9181H108.12C110.309 39.8651 112.71 40.2166 115.078 39.9369C117.461 39.644 119.726 38.7351 121.651 37.2997C122.599 36.5871 123.454 35.7591 124.198 34.835C124.927 33.8896 125.537 32.8576 126.013 31.7624C126.925 29.558 127.253 27.1557 126.966 24.7874Z" fill="#221429"/>
<path d="M103.546 25.2148C103.529 24.2149 103.708 23.2213 104.072 22.2901C104.53 21.3127 105.302 20.5172 106.266 20.0308C106.602 19.8254 107.005 19.6036 107.498 19.3489C107.997 19.0861 108.472 18.781 108.919 18.437C109.379 18.0876 109.778 17.6658 110.102 17.1882C110.427 16.7023 110.596 16.1293 110.587 15.5451C110.595 15.1187 110.502 14.6963 110.316 14.3128C110.147 13.9694 109.91 13.6645 109.618 13.4173C109.321 13.17 108.977 12.9855 108.607 12.8751C108.228 12.7517 107.831 12.688 107.432 12.6861C106.976 12.6776 106.522 12.7643 106.101 12.9408C105.716 13.0994 105.354 13.3094 105.025 13.5652C104.718 13.8221 104.442 14.1144 104.203 14.436C103.968 14.7257 103.751 15.0304 103.554 15.3479L100.663 13.3516C100.943 12.6844 101.332 12.0682 101.813 11.5277C102.276 10.9948 102.819 10.5374 103.423 10.1721C104.039 9.80884 104.703 9.53238 105.395 9.35058C106.111 9.16183 106.848 9.06792 107.588 9.07125C108.423 9.07558 109.252 9.19726 110.053 9.43274C110.859 9.6732 111.61 10.0696 112.263 10.5993C112.936 11.1548 113.48 11.8501 113.857 12.6368C114.282 13.5693 114.49 14.5862 114.465 15.6108C114.475 16.2439 114.392 16.875 114.218 17.484C114.061 18.012 113.819 18.5113 113.503 18.9628C113.192 19.408 112.825 19.8112 112.411 20.1622C111.96 20.5395 111.483 20.8828 110.981 21.1892L109.65 21.9532C109.224 22.1904 108.82 22.4654 108.443 22.7748C108.079 23.0587 107.77 23.4067 107.531 23.8017C107.284 24.2306 107.161 24.72 107.178 25.2148H103.546ZM103.612 32.9538V28.3696H107.293V32.9538H103.612Z" fill="#221429"/>
<path d="M95.3165 16.6385C95.544 17.6114 95.5719 18.6203 95.3986 19.6043C95.1643 20.6505 94.5857 21.5878 93.7555 22.2662C93.468 22.5291 93.1147 22.833 92.6875 23.1863C92.2529 23.5466 91.849 23.9423 91.4798 24.3693C91.1034 24.8046 90.8009 25.2986 90.5843 25.8317C90.3673 26.3746 90.3214 26.9708 90.4529 27.5405C90.5274 27.9569 90.7022 28.3489 90.9622 28.6825C91.198 28.9868 91.4945 29.2386 91.8331 29.4219C92.1741 29.6046 92.5486 29.7164 92.934 29.7505C93.3321 29.7867 93.7335 29.7646 94.1252 29.6848C94.5724 29.5991 94.9973 29.423 95.374 29.1672C95.7177 28.9347 96.0298 28.6586 96.3023 28.3457C96.5653 28.0319 96.7888 27.687 96.9678 27.3187C97.1358 26.9854 97.2839 26.6425 97.4114 26.2918L100.648 27.6555C100.516 28.3668 100.263 29.0503 99.9008 29.6766C99.5494 30.2884 99.106 30.8426 98.5863 31.3197C98.0589 31.8039 97.4673 32.213 96.8281 32.5356C96.1675 32.8677 95.4658 33.1108 94.7414 33.2586C93.9157 33.4341 93.0685 33.4867 92.2274 33.4146C91.3899 33.3519 90.5738 33.1199 89.8285 32.7328C89.0595 32.3315 88.3846 31.7715 87.8485 31.0896C86.8785 29.7308 86.4004 28.082 86.493 26.415C86.5385 25.8687 86.6717 25.3334 86.8873 24.8294C87.0983 24.3296 87.3746 23.86 87.7089 23.4328C88.0711 22.9693 88.4665 22.5327 88.8919 22.1265C89.2698 21.7814 89.656 21.4364 90.0339 21.1078C90.3991 20.7818 90.732 20.4214 91.028 20.0315C91.3168 19.6757 91.5419 19.2727 91.6934 18.8403C91.8433 18.3693 91.8603 17.8661 91.7427 17.3861L95.3165 16.6385ZM93.6734 9.0802L94.6182 13.5659L91.0115 14.3217L90.0667 9.83603L93.6734 9.0802Z" fill="#221429"/>
</svg>
