<svg width="650" height="702" viewBox="0 0 650 702" fill="none" xmlns="http://www.w3.org/2000/svg">
<path d="M292.446 40.5436C294.607 49.1071 293.55 33.3407 297.792 14.0369C302.034 -5.26685 309.285 2.57632 309.285 2.57632" stroke="#263238" stroke-linecap="round" stroke-linejoin="round"/>
<path d="M291.117 20.824L304.419 15.3818" stroke="#263238" stroke-linecap="round" stroke-linejoin="round"/>
<path d="M315.415 8.85107C315.415 8.85107 307.412 25.2737 319.432 32.2685" stroke="#263238" stroke-linecap="round" stroke-linejoin="round"/>
<path d="M326.684 4.17725C326.684 4.17725 339.793 11.4602 331.582 27.2426" stroke="#263238" stroke-linecap="round" stroke-linejoin="round"/>
<path d="M317.688 14.4053L327.084 21.272" stroke="#263238" stroke-linecap="round" stroke-linejoin="round"/>
<path d="M325.067 11.396L317.704 23.0967" stroke="#263238" stroke-linecap="round" stroke-linejoin="round"/>
<path d="M38.7752 427.42C38.7752 427.42 16.4783 427.1 16.3662 446.34" stroke="#263238" stroke-linecap="round" stroke-linejoin="round"/>
<path d="M36.9181 439.553C36.4539 436.72 26.754 433.15 25.0733 440.545C23.3926 447.94 35.4455 443.506 39.175 440.049C39.175 440.049 32.2602 446.772 34.373 448.661" stroke="#263238" stroke-linecap="round" stroke-linejoin="round"/>
<path d="M38.2784 450.757C38.2784 450.757 35.3492 454.422 32.1799 452.678" stroke="#263238" stroke-linecap="round" stroke-linejoin="round"/>
<path d="M57.7912 437.952L41.0645 454.935C41.0645 454.935 49.4839 446.404 54.3658 449.157C60.4483 452.486 52.5571 461.61 46.0585 455.079" stroke="#263238" stroke-linecap="round" stroke-linejoin="round"/>
<path d="M66.2418 442.53C66.2418 442.53 70.6756 462.842 47.7864 463.562" stroke="#263238" stroke-linecap="round" stroke-linejoin="round"/>
<path d="M154.454 622.042L174.094 563.586L197.911 590.173L154.454 622.042Z" stroke="#263238" stroke-linecap="round" stroke-linejoin="round"/>
<path d="M192.069 594.447L187.043 588.701L192.405 584.059" stroke="#263238" stroke-linecap="round" stroke-linejoin="round"/>
<path d="M38.3658 293.617C48.5666 289.392 53.4107 277.697 49.1854 267.496C44.9601 257.295 33.2653 252.451 23.0645 256.677C12.8637 260.902 8.01954 272.597 12.2449 282.797C16.4702 292.998 28.1649 297.842 38.3658 293.617Z" stroke="#263238" stroke-linecap="round" stroke-linejoin="round"/>
<path d="M52.893 279.825C65.1454 279.825 75.0779 269.892 75.0779 257.64C75.0779 245.387 65.1454 235.455 52.893 235.455C40.6406 235.455 30.708 245.387 30.708 257.64C30.708 269.892 40.6406 279.825 52.893 279.825Z" stroke="#263238" stroke-linecap="round" stroke-linejoin="round"/>
<path d="M34.6455 255.542L31.9404 264.938" stroke="#263238" stroke-linecap="round" stroke-linejoin="round"/>
<path d="M38.4711 256.711L34.6455 270.252" stroke="#263238" stroke-linecap="round" stroke-linejoin="round"/>
<path d="M42.4888 258.984L38.4712 274.302" stroke="#263238" stroke-linecap="round" stroke-linejoin="round"/>
<path d="M46.9545 263.482L44.0894 278.016" stroke="#263238" stroke-linecap="round" stroke-linejoin="round"/>
<path d="M49.4676 268.22L46.9546 279.024" stroke="#263238" stroke-linecap="round" stroke-linejoin="round"/>
<path d="M11.5959 249.524C9.85121 248.996 5.06528 253.542 8.77878 256.599C12.4923 259.656 13.4367 251.509 12.5243 248.388C12.5243 248.388 14.397 254.262 16.0937 253.558" stroke="#263238" stroke-linecap="round" stroke-linejoin="round"/>
<path d="M37.3984 223.865L43.801 235.518C43.801 235.518 40.5997 229.692 42.8566 227.515C45.6098 224.826 49.2592 230.508 44.6494 232.893" stroke="#263238" stroke-linecap="round" stroke-linejoin="round"/>
<path d="M103.169 105.818C103.779 98.0622 106.334 90.5853 110.597 84.0781C114.861 77.5708 120.696 72.243 127.563 68.5869" stroke="#263238" stroke-linecap="round" stroke-linejoin="round"/>
<path d="M138.56 154.637C126.886 151.838 116.756 144.612 110.308 134.485" stroke="#263238" stroke-linecap="round" stroke-linejoin="round"/>
<path d="M195.623 113.197C194.635 125.456 188.823 136.821 179.462 144.798C170.102 152.775 157.959 156.711 145.699 155.742" stroke="#263238" stroke-linecap="round" stroke-linejoin="round"/>
<path d="M153.078 63.2881C163.617 64.133 173.552 68.5504 181.239 75.8096C188.926 83.0688 193.905 92.7347 195.351 103.208" stroke="#263238" stroke-linecap="round" stroke-linejoin="round"/>
<path d="M169.404 145.21C162.934 148.84 155.599 150.643 148.183 150.427C140.767 150.21 133.549 147.982 127.302 143.98C121.055 139.979 116.012 134.354 112.715 127.708C109.417 121.063 107.988 113.645 108.579 106.25" stroke="#263238" stroke-linecap="round" stroke-linejoin="round"/>
<path d="M111.205 94.7898C113.358 89.1906 116.717 84.1333 121.042 79.976C125.367 75.8188 130.553 72.6631 136.233 70.7325C141.913 68.8019 147.948 68.1435 153.911 68.804C159.873 69.4645 165.618 71.4278 170.738 74.5547C175.858 77.6817 180.227 81.8959 183.538 86.899C186.848 91.9021 189.018 97.5718 189.894 103.507C190.77 109.441 190.331 115.496 188.607 121.243C186.884 126.989 183.918 132.286 179.92 136.759" stroke="#263238" stroke-linecap="round" stroke-linejoin="round"/>
<path d="M145.378 80.0635L149.396 109.515L172.029 102.473" stroke="#263238" stroke-linecap="round" stroke-linejoin="round"/>
<path d="M502.306 166.755C495.8 166.817 489.428 164.902 484.035 161.262C478.641 157.622 474.481 152.43 472.105 146.373C469.729 140.315 469.249 133.679 470.729 127.343C472.21 121.007 475.58 115.27 480.394 110.892" stroke="#263238" stroke-linecap="round" stroke-linejoin="round"/>
<path d="M532.383 145.034C530.823 149.634 528.237 153.819 524.82 157.272C521.404 160.724 517.246 163.354 512.663 164.962" stroke="#263238" stroke-linecap="round" stroke-linejoin="round"/>
<path d="M491.342 104.362C499.374 101.535 508.2 102.015 515.878 105.695C523.556 109.375 529.459 115.954 532.287 123.986" stroke="#263238" stroke-linecap="round" stroke-linejoin="round"/>
<path d="M517.848 111.164C521.166 113.406 523.971 116.326 526.078 119.732C528.185 123.137 529.546 126.951 530.071 130.92C530.596 134.89 530.274 138.926 529.126 142.763C527.977 146.599 526.029 150.148 523.409 153.176C520.788 156.204 517.556 158.643 513.924 160.33C510.293 162.018 506.345 162.916 502.341 162.967C498.337 163.017 494.367 162.218 490.695 160.622C487.022 159.027 483.729 156.671 481.033 153.709" stroke="#263238" stroke-linecap="round" stroke-linejoin="round"/>
<path d="M475.256 144.042C473.552 139.194 473.199 133.975 474.233 128.942C475.268 123.909 477.652 119.253 481.13 115.471C484.608 111.689 489.049 108.924 493.977 107.471C498.906 106.019 504.136 105.935 509.109 107.227" stroke="#263238" stroke-linecap="round" stroke-linejoin="round"/>
<path d="M491.182 117.15L502.002 134.645L492.142 147.435" stroke="#263238" stroke-linecap="round" stroke-linejoin="round"/>
<path d="M1 690.774H648.589" stroke="#263238" stroke-linecap="round" stroke-linejoin="round"/>
<path d="M329.58 353.246L319.032 554.079L185.394 547.068L186.515 525.78L195.943 346.219L280.089 350.637L329.58 353.246Z" fill="white"/>
<mask id="mask0_4103_2060" style="mask-type:luminance" maskUnits="userSpaceOnUse" x="185" y="346" width="145" height="209">
<path d="M329.581 353.247L319.033 554.08L185.395 547.069L186.515 525.781L195.943 346.22L280.089 350.638L329.581 353.247Z" fill="white"/>
</mask>
<g mask="url(#mask0_4103_2060)">
<path opacity="0.2" d="M287.868 470.911L257.76 473.392L266.547 511.311L186.515 525.781L195.943 346.22L280.089 350.638L287.868 470.911Z" fill="black" fill-opacity="0.7"/>
</g>
<path d="M329.58 353.246L319.032 554.079L185.394 547.068L186.515 525.78L195.943 346.219L280.089 350.637L329.58 353.246Z" stroke="#263238" stroke-linecap="round" stroke-linejoin="round"/>
<path d="M205.371 359.953L240.153 361.777" stroke="#263238" stroke-width="2" stroke-linecap="round" stroke-linejoin="round"/>
<path d="M205.019 366.627L228.676 367.875" stroke="#263238" stroke-width="2" stroke-linecap="round" stroke-linejoin="round"/>
<path d="M212.67 382.842L312.71 388.092" stroke="#263238" stroke-width="2" stroke-linecap="round" stroke-linejoin="round"/>
<path d="M212.317 389.516L312.358 394.766" stroke="#263238" stroke-width="2" stroke-linecap="round" stroke-linejoin="round"/>
<path d="M211.917 397.312L297.232 401.777" stroke="#263238" stroke-width="2" stroke-linecap="round" stroke-linejoin="round"/>
<path d="M211.952 404.423L211.524 412.559L219.66 412.986L220.088 404.85L211.952 404.423Z" stroke="#263238" stroke-linecap="round" stroke-linejoin="round"/>
<path d="M226.699 405.203L226.271 413.339L234.408 413.767L234.835 405.631L226.699 405.203Z" stroke="#263238" stroke-linecap="round" stroke-linejoin="round"/>
<path d="M241.429 405.985L241.001 414.121L249.138 414.549L249.565 406.413L241.429 405.985Z" stroke="#263238" stroke-linecap="round" stroke-linejoin="round"/>
<path d="M256.176 406.766L255.748 414.902L263.884 415.33L264.312 407.194L256.176 406.766Z" stroke="#263238" stroke-linecap="round" stroke-linejoin="round"/>
<path d="M207.339 382.553C207.329 382.818 207.267 383.079 207.156 383.319C207.045 383.56 206.887 383.777 206.692 383.957C206.498 384.136 206.269 384.276 206.021 384.368C205.772 384.459 205.507 384.501 205.242 384.49C204.703 384.463 204.197 384.222 203.836 383.821C203.474 383.42 203.286 382.892 203.314 382.353C203.341 381.814 203.582 381.308 203.983 380.946C204.383 380.585 204.911 380.397 205.451 380.425C205.716 380.437 205.975 380.501 206.215 380.614C206.455 380.727 206.671 380.886 206.849 381.083C207.028 381.279 207.166 381.508 207.255 381.758C207.345 382.008 207.384 382.272 207.371 382.537L207.339 382.553Z" fill="#263238"/>
<path d="M210.621 421.785L310.661 427.035" stroke="#263238" stroke-width="2" stroke-linecap="round" stroke-linejoin="round"/>
<path d="M210.269 428.46L310.309 433.71" stroke="#263238" stroke-width="2" stroke-linecap="round" stroke-linejoin="round"/>
<path d="M209.868 436.255L295.183 440.721" stroke="#263238" stroke-width="2" stroke-linecap="round" stroke-linejoin="round"/>
<path d="M209.886 443.391L209.458 451.527L217.594 451.955L218.022 443.819L209.886 443.391Z" stroke="#263238" stroke-linecap="round" stroke-linejoin="round"/>
<path d="M224.649 444.156L224.221 452.292L232.357 452.72L232.785 444.584L224.649 444.156Z" stroke="#263238" stroke-linecap="round" stroke-linejoin="round"/>
<path d="M239.379 444.922L238.951 453.058L247.087 453.486L247.515 445.35L239.379 444.922Z" stroke="#263238" stroke-linecap="round" stroke-linejoin="round"/>
<path d="M254.11 445.703L253.682 453.839L261.818 454.267L262.246 446.131L254.11 445.703Z" stroke="#263238" stroke-linecap="round" stroke-linejoin="round"/>
<path d="M205.306 421.497C205.294 421.764 205.229 422.026 205.115 422.268C205.002 422.51 204.841 422.727 204.644 422.907C204.446 423.087 204.215 423.226 203.963 423.317C203.711 423.407 203.444 423.447 203.177 423.434C202.773 423.415 202.383 423.276 202.058 423.035C201.732 422.794 201.485 422.462 201.348 422.081C201.211 421.7 201.19 421.287 201.287 420.894C201.385 420.501 201.597 420.145 201.896 419.873C202.196 419.6 202.569 419.422 202.97 419.362C203.37 419.301 203.78 419.361 204.146 419.533C204.513 419.705 204.82 419.982 205.03 420.329C205.239 420.676 205.341 421.077 205.322 421.481L205.306 421.497Z" fill="#263238"/>
<path d="M208.587 460.729L308.612 465.979" stroke="#263238" stroke-width="2" stroke-linecap="round" stroke-linejoin="round"/>
<path d="M208.235 467.404L308.259 472.654" stroke="#263238" stroke-width="2" stroke-linecap="round" stroke-linejoin="round"/>
<path d="M207.82 475.183L293.134 479.665" stroke="#263238" stroke-width="2" stroke-linecap="round" stroke-linejoin="round"/>
<path d="M207.853 482.312L207.425 490.448L215.561 490.876L215.989 482.74L207.853 482.312Z" stroke="#263238" stroke-linecap="round" stroke-linejoin="round"/>
<path d="M224.326 483.044L223.918 491.197L232.072 491.604L232.479 483.451L224.326 483.044Z" stroke="#263238" stroke-width="1.00125" stroke-linecap="round" stroke-linejoin="round"/>
<path d="M237.329 483.875L236.901 492.011L245.037 492.439L245.465 484.303L237.329 483.875Z" stroke="#263238" stroke-linecap="round" stroke-linejoin="round"/>
<path d="M252.093 484.639L251.665 492.775L259.801 493.203L260.229 485.067L252.093 484.639Z" stroke="#263238" stroke-linecap="round" stroke-linejoin="round"/>
<path d="M203.258 460.441C203.245 460.708 203.18 460.97 203.067 461.212C202.953 461.454 202.793 461.671 202.595 461.851C202.397 462.031 202.166 462.17 201.914 462.26C201.663 462.35 201.396 462.39 201.129 462.377C200.585 462.377 200.064 462.162 199.68 461.777C199.296 461.393 199.08 460.872 199.08 460.329C199.08 459.785 199.296 459.264 199.68 458.88C200.064 458.496 200.585 458.28 201.129 458.28H201.417C201.684 458.292 201.946 458.357 202.188 458.471C202.43 458.584 202.647 458.745 202.827 458.942C203.007 459.14 203.146 459.371 203.236 459.623C203.327 459.875 203.366 460.142 203.354 460.409L203.258 460.441Z" fill="#263238"/>
<path d="M206.475 500.777L306.499 506.043" stroke="#263238" stroke-width="2" stroke-linecap="round" stroke-linejoin="round"/>
<path d="M206.123 507.452L306.163 512.718" stroke="#263238" stroke-width="2" stroke-linecap="round" stroke-linejoin="round"/>
<path d="M205.723 515.247L291.037 519.729" stroke="#263238" stroke-width="2" stroke-linecap="round" stroke-linejoin="round"/>
<path d="M205.732 522.379L205.304 530.515L213.44 530.943L213.868 522.807L205.732 522.379Z" stroke="#263238" stroke-linecap="round" stroke-linejoin="round"/>
<path d="M220.497 523.145L220.069 531.281L228.205 531.709L228.633 523.573L220.497 523.145Z" stroke="#263238" stroke-linecap="round" stroke-linejoin="round"/>
<path d="M235.26 523.91L234.832 532.046L242.968 532.474L243.396 524.338L235.26 523.91Z" stroke="#263238" stroke-linecap="round" stroke-linejoin="round"/>
<path d="M249.991 524.708L249.563 532.844L257.699 533.272L258.127 525.136L249.991 524.708Z" stroke="#263238" stroke-linecap="round" stroke-linejoin="round"/>
<path d="M201.145 500.505C201.122 500.906 200.981 501.292 200.739 501.613C200.498 501.934 200.166 502.176 199.787 502.309C199.408 502.442 198.998 502.459 198.609 502.359C198.22 502.259 197.869 502.046 197.601 501.746C197.333 501.447 197.16 501.075 197.103 500.677C197.046 500.28 197.109 499.874 197.282 499.512C197.456 499.149 197.733 498.846 198.079 498.642C198.424 498.437 198.823 498.339 199.224 498.36C199.491 498.375 199.753 498.442 199.994 498.557C200.235 498.673 200.451 498.835 200.63 499.034C200.808 499.233 200.945 499.466 201.034 499.718C201.122 499.971 201.16 500.238 201.145 500.505Z" fill="#263238"/>
<path d="M214.718 407.812L215.774 409.637L220.112 404.851" stroke="#263238" stroke-width="2" stroke-linecap="round" stroke-linejoin="round"/>
<path d="M242.186 447.812L243.242 449.637L247.58 444.851" stroke="#263238" stroke-width="2" stroke-linecap="round" stroke-linejoin="round"/>
<path d="M255.967 488.917L257.023 490.741L261.361 485.939" stroke="#263238" stroke-width="2" stroke-linecap="round" stroke-linejoin="round"/>
<path d="M223.314 525.604L224.37 527.412L228.708 522.626" stroke="#263238" stroke-width="2" stroke-linecap="round" stroke-linejoin="round"/>
<path d="M240.777 497.241L111.845 533.079L57.999 339.289L111.381 324.451L186.931 303.466L235.783 479.281L240.777 497.241Z" fill="white"/>
<mask id="mask1_4103_2060" style="mask-type:luminance" maskUnits="userSpaceOnUse" x="57" y="303" width="184" height="231">
<path d="M240.777 497.24L111.845 533.078L57.999 339.288L111.381 324.45L186.931 303.466L235.783 479.281L240.777 497.24Z" fill="white"/>
</mask>
<g mask="url(#mask1_4103_2060)">
<path opacity="0.2" d="M235.783 479.281L136.094 485.731L111.38 324.45L186.931 303.466L235.783 479.281Z" fill="black" fill-opacity="0.7"/>
</g>
<path d="M240.777 497.241L111.845 533.079L57.999 339.289L111.381 324.451L186.931 303.466L235.783 479.281L240.777 497.241Z" stroke="#263238" stroke-linecap="round" stroke-linejoin="round"/>
<path d="M71.3164 349.308L104.866 339.993" stroke="#263238" stroke-width="2" stroke-linecap="round" stroke-linejoin="round"/>
<path d="M73.0928 355.759L95.918 349.421" stroke="#263238" stroke-width="2" stroke-linecap="round" stroke-linejoin="round"/>
<path d="M85.4978 368.692L182.017 341.881" stroke="#263238" stroke-width="2" stroke-linecap="round" stroke-linejoin="round"/>
<path d="M87.2905 375.127L183.809 348.316" stroke="#263238" stroke-width="2" stroke-linecap="round" stroke-linejoin="round"/>
<path d="M89.3716 382.65L171.693 359.776" stroke="#263238" stroke-width="2" stroke-linecap="round" stroke-linejoin="round"/>
<path d="M99.5442 387.203L91.6943 389.385L93.8757 397.235L101.726 395.053L99.5442 387.203Z" stroke="#263238" stroke-linecap="round" stroke-linejoin="round"/>
<path d="M113.776 383.234L105.926 385.416L108.107 393.265L115.957 391.084L113.776 383.234Z" stroke="#263238" stroke-linecap="round" stroke-linejoin="round"/>
<path d="M128.011 379.276L120.162 381.458L122.343 389.307L130.193 387.126L128.011 379.276Z" stroke="#263238" stroke-linecap="round" stroke-linejoin="round"/>
<path d="M142.221 375.33L134.371 377.512L136.553 385.362L144.403 383.18L142.221 375.33Z" stroke="#263238" stroke-linecap="round" stroke-linejoin="round"/>
<path d="M80.3605 370.117C80.5048 370.637 80.4366 371.193 80.171 371.663C79.9053 372.133 79.4639 372.478 78.9439 372.622C78.4239 372.767 77.8678 372.698 77.398 372.433C76.9282 372.167 76.5832 371.726 76.4389 371.206C76.2945 370.686 76.3627 370.129 76.6284 369.66C76.894 369.19 77.3354 368.845 77.8554 368.701C78.3755 368.556 78.9316 368.624 79.4013 368.89C79.8711 369.156 80.2161 369.597 80.3605 370.117Z" fill="#263238"/>
<path d="M95.9343 406.26L192.453 379.449" stroke="#263238" stroke-width="2" stroke-linecap="round" stroke-linejoin="round"/>
<path d="M97.7271 412.71L194.246 385.883" stroke="#263238" stroke-width="2" stroke-linecap="round" stroke-linejoin="round"/>
<path d="M99.824 420.217L182.129 397.344" stroke="#263238" stroke-width="2" stroke-linecap="round" stroke-linejoin="round"/>
<path d="M109.989 424.762L102.14 426.943L104.321 434.793L112.171 432.612L109.989 424.762Z" stroke="#263238" stroke-linecap="round" stroke-linejoin="round"/>
<path d="M124.21 420.813L116.36 422.994L118.541 430.844L126.391 428.663L124.21 420.813Z" stroke="#263238" stroke-linecap="round" stroke-linejoin="round"/>
<path d="M138.446 416.859L130.596 419.04L132.778 426.89L140.627 424.708L138.446 416.859Z" stroke="#263238" stroke-linecap="round" stroke-linejoin="round"/>
<path d="M152.694 412.885L144.844 415.066L147.025 422.916L154.875 420.735L152.694 412.885Z" stroke="#263238" stroke-linecap="round" stroke-linejoin="round"/>
<path d="M90.8126 407.7C90.9209 408.09 90.9111 408.504 90.7845 408.888C90.6579 409.273 90.4202 409.611 90.1014 409.861C89.7825 410.111 89.3969 410.26 88.9932 410.291C88.5894 410.321 88.1856 410.232 87.8329 410.033C87.4801 409.834 87.1941 409.535 87.011 409.174C86.8279 408.813 86.7559 408.406 86.8041 408.004C86.8524 407.602 87.0187 407.223 87.282 406.915C87.5453 406.608 87.8938 406.385 88.2836 406.276C88.5411 406.202 88.8105 406.181 89.0763 406.212C89.3422 406.243 89.5992 406.327 89.8327 406.458C90.0662 406.589 90.2716 406.764 90.437 406.975C90.6024 407.185 90.7246 407.426 90.7966 407.684L90.8126 407.7Z" fill="#263238"/>
<path d="M106.386 443.842L202.889 417.016" stroke="#263238" stroke-width="2" stroke-linecap="round" stroke-linejoin="round"/>
<path d="M108.179 450.277L204.682 423.466" stroke="#263238" stroke-width="2" stroke-linecap="round" stroke-linejoin="round"/>
<path d="M110.26 457.8L192.581 434.927" stroke="#263238" stroke-width="2" stroke-linecap="round" stroke-linejoin="round"/>
<path d="M120.419 462.329L112.57 464.511L114.751 472.361L122.601 470.179L120.419 462.329Z" stroke="#263238" stroke-linecap="round" stroke-linejoin="round"/>
<path d="M134.671 458.371L126.821 460.553L129.002 468.403L136.852 466.221L134.671 458.371Z" stroke="#263238" stroke-linecap="round" stroke-linejoin="round"/>
<path d="M148.876 454.422L141.026 456.603L143.207 464.453L151.057 462.271L148.876 454.422Z" stroke="#263238" stroke-linecap="round" stroke-linejoin="round"/>
<path d="M163.112 450.468L155.262 452.649L157.443 460.499L165.293 458.318L163.112 450.468Z" stroke="#263238" stroke-linecap="round" stroke-linejoin="round"/>
<path d="M101.249 445.267C101.357 445.657 101.347 446.071 101.221 446.455C101.094 446.84 100.856 447.178 100.538 447.428C100.219 447.678 99.8332 447.827 99.4294 447.858C99.0257 447.888 98.6219 447.799 98.2691 447.6C97.9163 447.401 97.6303 447.102 97.4473 446.741C97.2642 446.38 97.1922 445.973 97.2404 445.571C97.2886 445.169 97.4549 444.79 97.7182 444.482C97.9816 444.175 98.3301 443.952 98.7199 443.842C98.9774 443.769 99.2468 443.748 99.5126 443.779C99.7785 443.81 100.035 443.894 100.269 444.025C100.502 444.156 100.708 444.331 100.873 444.542C101.039 444.752 101.161 444.993 101.233 445.251L101.249 445.267Z" fill="#263238"/>
<path d="M117.126 482.482L213.629 455.671" stroke="#263238" stroke-width="2" stroke-linecap="round" stroke-linejoin="round"/>
<path d="M118.903 488.933L215.422 462.106" stroke="#263238" stroke-width="2" stroke-linecap="round" stroke-linejoin="round"/>
<path d="M121 496.44L203.321 473.566" stroke="#263238" stroke-width="2" stroke-linecap="round" stroke-linejoin="round"/>
<path d="M131.162 500.988L123.312 503.169L125.493 511.019L133.343 508.837L131.162 500.988Z" stroke="#263238" stroke-linecap="round" stroke-linejoin="round"/>
<path d="M145.396 497.03L137.547 499.211L139.728 507.061L147.578 504.879L145.396 497.03Z" stroke="#263238" stroke-linecap="round" stroke-linejoin="round"/>
<path d="M159.633 493.076L151.783 495.257L153.965 503.107L161.815 500.926L159.633 493.076Z" stroke="#263238" stroke-linecap="round" stroke-linejoin="round"/>
<path d="M173.854 489.126L166.004 491.308L168.186 499.157L176.036 496.976L173.854 489.126Z" stroke="#263238" stroke-linecap="round" stroke-linejoin="round"/>
<path d="M111.988 483.907C112.139 484.429 112.076 484.989 111.813 485.465C111.551 485.941 111.11 486.293 110.588 486.444C110.065 486.594 109.505 486.532 109.029 486.269C108.553 486.006 108.201 485.565 108.051 485.043C107.902 484.519 107.967 483.957 108.231 483.48C108.495 483.004 108.936 482.651 109.459 482.498C109.977 482.354 110.531 482.42 111.001 482.68C111.471 482.941 111.82 483.375 111.972 483.891L111.988 483.907Z" fill="#263238"/>
<path d="M108.772 387.98L110.356 389.373L112.949 383.45" stroke="#263238" stroke-width="2" stroke-linecap="round" stroke-linejoin="round"/>
<path d="M104.914 429.901L106.499 431.293L109.076 425.371" stroke="#263238" stroke-width="2" stroke-linecap="round" stroke-linejoin="round"/>
<path d="M115.35 467.084L116.935 468.477L119.512 462.554" stroke="#263238" stroke-width="2" stroke-linecap="round" stroke-linejoin="round"/>
<path d="M154.518 497.544L156.103 498.937L158.696 493.014" stroke="#263238" stroke-width="2" stroke-linecap="round" stroke-linejoin="round"/>
<path d="M253.368 258.701L120.168 271.503L139.409 471.702L272.61 458.899L253.368 258.701Z" fill="white" stroke="#263238" stroke-linecap="round" stroke-linejoin="round"/>
<path d="M131.517 283.714L166.187 280.385" stroke="#263238" stroke-width="2" stroke-linecap="round" stroke-linejoin="round"/>
<path d="M132.157 290.373L155.735 288.1" stroke="#263238" stroke-width="2" stroke-linecap="round" stroke-linejoin="round"/>
<path d="M142.113 305.275L241.817 295.687" stroke="#263238" stroke-width="2" stroke-linecap="round" stroke-linejoin="round"/>
<path d="M142.753 311.917L242.458 302.345" stroke="#263238" stroke-width="2" stroke-linecap="round" stroke-linejoin="round"/>
<path d="M143.505 319.68L228.548 311.517" stroke="#263238" stroke-width="2" stroke-linecap="round" stroke-linejoin="round"/>
<path d="M152.736 325.924L144.626 326.703L145.406 334.813L153.516 334.034L152.736 325.924Z" stroke="#263238" stroke-linecap="round" stroke-linejoin="round"/>
<path d="M167.436 324.506L159.326 325.286L160.106 333.396L168.216 332.616L167.436 324.506Z" stroke="#263238" stroke-linecap="round" stroke-linejoin="round"/>
<path d="M182.136 323.107L174.026 323.887L174.806 331.997L182.916 331.217L182.136 323.107Z" stroke="#263238" stroke-linecap="round" stroke-linejoin="round"/>
<path d="M196.835 321.676L188.725 322.456L189.504 330.565L197.614 329.786L196.835 321.676Z" stroke="#263238" stroke-linecap="round" stroke-linejoin="round"/>
<path d="M136.815 305.787C136.854 306.19 136.773 306.596 136.582 306.953C136.39 307.31 136.098 307.602 135.74 307.793C135.383 307.983 134.977 308.064 134.574 308.024C134.171 307.984 133.788 307.825 133.475 307.568C133.162 307.311 132.933 306.967 132.815 306.579C132.698 306.192 132.698 305.778 132.815 305.39C132.933 305.003 133.163 304.658 133.476 304.401C133.789 304.144 134.171 303.986 134.574 303.946C134.84 303.92 135.109 303.946 135.365 304.023C135.62 304.1 135.858 304.228 136.065 304.397C136.272 304.567 136.443 304.775 136.569 305.011C136.695 305.247 136.773 305.505 136.799 305.771L136.815 305.787Z" fill="#263238"/>
<path d="M145.843 344.09L245.547 334.519" stroke="#263238" stroke-width="2" stroke-linecap="round" stroke-linejoin="round"/>
<path d="M146.483 350.749L246.187 341.161" stroke="#263238" stroke-width="2" stroke-linecap="round" stroke-linejoin="round"/>
<path d="M147.235 358.512L232.277 350.333" stroke="#263238" stroke-width="2" stroke-linecap="round" stroke-linejoin="round"/>
<path d="M156.465 364.732L148.355 365.512L149.134 373.622L157.244 372.842L156.465 364.732Z" stroke="#263238" stroke-linecap="round" stroke-linejoin="round"/>
<path d="M171.164 363.332L163.054 364.111L163.834 372.221L171.944 371.442L171.164 363.332Z" stroke="#263238" stroke-linecap="round" stroke-linejoin="round"/>
<path d="M185.865 361.916L177.755 362.695L178.534 370.805L186.644 370.026L185.865 361.916Z" stroke="#263238" stroke-linecap="round" stroke-linejoin="round"/>
<path d="M200.566 360.533L192.456 361.312L193.235 369.422L201.345 368.642L200.566 360.533Z" stroke="#263238" stroke-linecap="round" stroke-linejoin="round"/>
<path d="M140.544 344.602C140.584 345.005 140.502 345.411 140.311 345.768C140.12 346.125 139.827 346.417 139.469 346.608C139.112 346.799 138.706 346.879 138.303 346.839C137.9 346.799 137.518 346.641 137.205 346.383C136.892 346.126 136.662 345.782 136.544 345.395C136.427 345.007 136.427 344.593 136.545 344.206C136.662 343.818 136.892 343.474 137.205 343.217C137.518 342.96 137.9 342.801 138.303 342.761C138.572 342.735 138.842 342.762 139.1 342.84C139.358 342.918 139.597 343.046 139.806 343.217C140.014 343.388 140.186 343.598 140.313 343.836C140.44 344.074 140.518 344.334 140.544 344.602Z" fill="#263238"/>
<path d="M149.572 382.906L249.277 373.334" stroke="#263238" stroke-width="2" stroke-linecap="round" stroke-linejoin="round"/>
<path d="M150.211 389.564L249.916 379.977" stroke="#263238" stroke-width="2" stroke-linecap="round" stroke-linejoin="round"/>
<path d="M150.965 397.327L236.007 389.148" stroke="#263238" stroke-width="2" stroke-linecap="round" stroke-linejoin="round"/>
<path d="M160.193 403.558L152.083 404.337L152.863 412.447L160.973 411.668L160.193 403.558Z" stroke="#263238" stroke-linecap="round" stroke-linejoin="round"/>
<path d="M174.894 402.142L166.784 402.921L167.563 411.031L175.673 410.252L174.894 402.142Z" stroke="#263238" stroke-linecap="round" stroke-linejoin="round"/>
<path d="M189.593 400.742L181.483 401.521L182.262 409.631L190.372 408.851L189.593 400.742Z" stroke="#263238" stroke-linecap="round" stroke-linejoin="round"/>
<path d="M204.293 399.326L196.183 400.105L196.963 408.215L205.072 407.435L204.293 399.326Z" stroke="#263238" stroke-linecap="round" stroke-linejoin="round"/>
<path d="M144.258 383.418C144.294 383.818 144.211 384.221 144.018 384.574C143.826 384.927 143.534 385.215 143.178 385.402C142.822 385.588 142.418 385.666 142.018 385.623C141.619 385.581 141.24 385.421 140.932 385.163C140.623 384.906 140.397 384.563 140.283 384.177C140.17 383.792 140.173 383.381 140.292 382.997C140.412 382.613 140.642 382.274 140.955 382.021C141.268 381.768 141.648 381.614 142.049 381.577C142.315 381.553 142.583 381.581 142.838 381.661C143.092 381.74 143.329 381.869 143.534 382.04C143.74 382.211 143.909 382.421 144.033 382.657C144.157 382.893 144.233 383.152 144.258 383.418Z" fill="#263238"/>
<path d="M153.413 422.842L253.118 413.254" stroke="#263238" stroke-width="2" stroke-linecap="round" stroke-linejoin="round"/>
<path d="M154.053 429.485L253.757 419.913" stroke="#263238" stroke-width="2" stroke-linecap="round" stroke-linejoin="round"/>
<path d="M154.79 437.248L239.832 429.084" stroke="#263238" stroke-width="2" stroke-linecap="round" stroke-linejoin="round"/>
<path d="M164.029 443.486L155.919 444.266L156.699 452.376L164.809 451.596L164.029 443.486Z" stroke="#263238" stroke-linecap="round" stroke-linejoin="round"/>
<path d="M178.744 442.086L170.634 442.866L171.414 450.976L179.524 450.196L178.744 442.086Z" stroke="#263238" stroke-linecap="round" stroke-linejoin="round"/>
<path d="M193.427 440.656L185.317 441.436L186.096 449.545L194.206 448.766L193.427 440.656Z" stroke="#263238" stroke-linecap="round" stroke-linejoin="round"/>
<path d="M208.126 439.24L200.016 440.019L200.796 448.129L208.906 447.349L208.126 439.24Z" stroke="#263238" stroke-linecap="round" stroke-linejoin="round"/>
<path d="M148.099 423.338C148.142 423.742 148.064 424.15 147.874 424.51C147.685 424.869 147.392 425.164 147.035 425.357C146.677 425.55 146.27 425.632 145.865 425.593C145.461 425.554 145.077 425.396 144.763 425.138C144.448 424.88 144.218 424.535 144.101 424.146C143.983 423.757 143.984 423.341 144.103 422.953C144.222 422.564 144.455 422.22 144.77 421.964C145.085 421.707 145.47 421.551 145.875 421.513C146.141 421.487 146.409 421.513 146.665 421.59C146.921 421.668 147.159 421.795 147.365 421.964C147.572 422.134 147.743 422.342 147.869 422.578C147.995 422.814 148.073 423.072 148.099 423.338Z" fill="#263238"/>
<path d="M147.828 329.669L149.14 331.318L152.726 325.939" stroke="#263238" stroke-width="2" stroke-linecap="round" stroke-linejoin="round"/>
<path d="M180.913 365.17L182.226 366.819L185.795 361.441" stroke="#263238" stroke-width="2" stroke-linecap="round" stroke-linejoin="round"/>
<path d="M170.012 406.211L171.325 407.86L174.91 402.481" stroke="#263238" stroke-width="2" stroke-linecap="round" stroke-linejoin="round"/>
<path d="M203.033 443.01L204.346 444.659L207.931 439.281" stroke="#263238" stroke-width="2" stroke-linecap="round" stroke-linejoin="round"/>
<path d="M416.272 179.784H333.566C330.646 179.784 327.845 180.944 325.779 183.009C323.714 185.074 322.554 187.875 322.554 190.796V261.881C322.554 264.801 323.714 267.603 325.779 269.668C327.845 271.733 330.646 272.893 333.566 272.893H370.221L391.222 298.199L385.956 272.893H416.272C419.184 272.881 421.973 271.715 424.028 269.651C426.083 267.587 427.236 264.793 427.236 261.881V190.796C427.236 187.884 426.083 185.09 424.028 183.026C421.973 180.962 419.184 179.796 416.272 179.784Z" fill="white" stroke="#263238" stroke-linecap="round" stroke-linejoin="round"/>
<path d="M381.538 218.776V211.253L375.903 210.773C375.567 209.598 375.1 208.466 374.511 207.395L378.144 203.074L372.814 197.76L368.492 201.393C367.427 200.795 366.293 200.327 365.115 200L364.635 194.366H357.112L356.632 200C355.454 200.327 354.32 200.795 353.254 201.393L348.932 197.76L343.602 203.074L347.204 207.459C346.607 208.528 346.134 209.661 345.795 210.837L340.161 211.317V218.84L345.795 219.336C346.134 220.512 346.607 221.645 347.204 222.714L343.554 227.035L348.884 232.35L353.206 228.716C354.272 229.315 355.406 229.782 356.583 230.109L357.064 235.743H364.587L365.067 230.109C366.245 229.782 367.379 229.315 368.444 228.716L372.766 232.35L378.096 227.035L374.463 222.714C375.052 221.643 375.519 220.511 375.855 219.336L381.538 218.776ZM360.873 223.77C359.142 223.773 357.448 223.263 356.006 222.303C354.565 221.344 353.44 219.979 352.774 218.38C352.109 216.781 351.932 215.021 352.267 213.322C352.602 211.623 353.433 210.061 354.655 208.835C355.877 207.608 357.436 206.771 359.133 206.43C360.831 206.089 362.592 206.26 364.193 206.919C365.794 207.579 367.164 208.699 368.128 210.137C369.093 211.575 369.61 213.267 369.613 214.999C369.617 216.147 369.394 217.285 368.958 218.347C368.521 219.409 367.88 220.374 367.069 221.188C366.259 222.001 365.295 222.647 364.235 223.087C363.175 223.527 362.038 223.754 360.889 223.754L360.873 223.77Z" fill="#00BE9B"/>
<path d="M406.428 235.567V230.221L402.41 229.868C402.176 229.031 401.843 228.225 401.418 227.467L404.011 224.394L400.233 220.617L397.144 223.194C396.383 222.775 395.578 222.442 394.743 222.201L394.407 218.2H389.045L388.708 222.201C387.869 222.442 387.058 222.775 386.291 223.194L383.218 220.617L379.441 224.394L382.018 227.467C381.597 228.226 381.269 229.032 381.041 229.868L377.024 230.221V235.567L381.041 235.919C381.269 236.755 381.597 237.562 382.018 238.32L379.441 241.393L383.218 245.187L386.291 242.594C387.051 243.026 387.864 243.36 388.708 243.586L389.045 247.604H394.407L394.743 243.586C395.582 243.36 396.389 243.026 397.144 242.594L400.233 245.187L404.011 241.393L401.418 238.32C401.85 237.565 402.184 236.758 402.41 235.919L406.428 235.567ZM391.718 239.12C390.486 239.12 389.282 238.755 388.258 238.071C387.234 237.387 386.436 236.414 385.965 235.276C385.494 234.139 385.37 232.887 385.611 231.679C385.851 230.471 386.444 229.362 387.315 228.491C388.186 227.62 389.295 227.027 390.503 226.787C391.711 226.547 392.963 226.67 394.1 227.141C395.238 227.612 396.211 228.41 396.895 229.434C397.579 230.458 397.944 231.662 397.944 232.894C397.944 234.545 397.288 236.129 396.12 237.296C394.953 238.464 393.369 239.12 391.718 239.12Z" fill="#00BE9B"/>
<path d="M380.241 248.035V244.274L377.376 244.018C377.212 243.42 376.975 242.845 376.671 242.305L378.512 240.128L375.823 237.423L373.63 239.264C373.089 238.973 372.521 238.737 371.933 238.56L371.677 235.71H367.868L367.628 238.56C367.033 238.73 366.458 238.967 365.915 239.264L363.722 237.423L361.033 240.128L362.874 242.305C362.576 242.848 362.34 243.423 362.169 244.018L359.32 244.274V248.067L362.169 248.324C362.34 248.919 362.576 249.493 362.874 250.036L361.033 252.277L363.722 254.982L365.915 253.141C366.461 253.432 367.035 253.668 367.628 253.846L367.868 256.695H371.677L371.933 253.846C372.521 253.668 373.089 253.432 373.63 253.141L375.823 254.982L378.512 252.277L376.671 250.1C376.975 249.56 377.212 248.985 377.376 248.388L380.241 248.035ZM369.773 250.564C368.896 250.564 368.038 250.304 367.309 249.817C366.58 249.33 366.012 248.638 365.676 247.827C365.341 247.017 365.253 246.126 365.424 245.266C365.595 244.406 366.017 243.616 366.637 242.995C367.257 242.375 368.047 241.953 368.908 241.782C369.768 241.611 370.659 241.699 371.469 242.034C372.279 242.37 372.972 242.938 373.459 243.667C373.946 244.397 374.206 245.254 374.206 246.131C374.202 247.304 373.733 248.427 372.902 249.255C372.071 250.084 370.946 250.548 369.773 250.548V250.564Z" fill="#00BE9B"/>
<path d="M372.701 452.95L437.175 690.774H446.811L382.353 452.95H372.701Z" fill="#757575" stroke="#263238" stroke-linecap="round" stroke-linejoin="round"/>
<path d="M517.912 623.355H395.703V633.311H517.912V623.355Z" fill="#999999" stroke="#263238" stroke-linecap="round" stroke-linejoin="round"/>
<path d="M583.106 399.536L504.146 690.854H494.543L573.486 399.536C576.4 388.796 569.725 380.056 558.6 380.056H490.573C479.465 380.056 468.036 388.796 465.123 399.536L386.147 690.854H376.543L455.503 399.536C459.809 383.642 476.647 370.725 493.102 370.725H561.146C577.552 370.725 587.412 383.626 583.106 399.536Z" fill="#757575" stroke="#263238" stroke-linecap="round" stroke-linejoin="round"/>
<path d="M584.355 399.616L564.763 471.934C563.819 474.978 561.954 477.654 559.426 479.595C556.898 481.536 553.83 482.645 550.645 482.77H438.856C437.508 482.876 436.155 482.642 434.921 482.091C433.686 481.54 432.609 480.689 431.788 479.614C430.967 478.54 430.427 477.277 430.219 475.941C430.011 474.605 430.141 473.239 430.597 471.966L450.205 399.648C451.157 396.611 453.024 393.943 455.551 392.009C458.079 390.074 461.142 388.969 464.323 388.844H576.096C577.162 388.768 578.232 388.902 579.246 389.24C580.26 389.578 581.197 390.112 582.004 390.812C582.811 391.512 583.473 392.365 583.95 393.321C584.428 394.276 584.712 395.317 584.787 396.383C584.86 397.479 584.713 398.578 584.355 399.616Z" fill="#00BE9B"/>
<mask id="mask2_4103_2060" style="mask-type:luminance" maskUnits="userSpaceOnUse" x="430" y="388" width="155" height="95">
<path d="M584.356 399.616L564.764 471.934C563.82 474.978 561.955 477.654 559.427 479.595C556.898 481.536 553.831 482.645 550.646 482.77H438.857C437.509 482.876 436.156 482.642 434.921 482.091C433.686 481.54 432.609 480.689 431.788 479.614C430.967 478.54 430.428 477.277 430.22 475.941C430.012 474.605 430.142 473.239 430.597 471.966L450.205 399.648C451.157 396.611 453.025 393.943 455.552 392.009C458.079 390.074 461.143 388.969 464.323 388.844H576.096C577.162 388.768 578.232 388.902 579.246 389.24C580.26 389.578 581.197 390.112 582.005 390.812C582.812 391.512 583.473 392.365 583.951 393.321C584.428 394.276 584.713 395.317 584.788 396.383C584.86 397.479 584.714 398.578 584.356 399.616Z" fill="white"/>
</mask>
<g mask="url(#mask2_4103_2060)">
<path opacity="0.2" d="M584.355 399.617L564.763 471.934C563.819 474.978 561.955 477.655 559.426 479.596C556.898 481.536 553.83 482.645 550.646 482.77H438.857C437.509 482.876 436.156 482.643 434.921 482.092C433.686 481.541 432.609 480.689 431.788 479.615C430.967 478.541 430.428 477.278 430.22 475.942C430.012 474.606 430.141 473.239 430.597 471.966L450.205 399.649C451.157 396.612 453.024 393.943 455.552 392.009C458.079 390.075 461.143 388.97 464.323 388.844H522.122C547.108 414.455 543.923 461.658 542.29 475.904C544.898 475.275 547.299 473.984 549.262 472.156C551.225 470.328 552.683 468.024 553.495 465.467L573.055 393.134C573.454 391.735 573.536 390.264 573.295 388.828H576.096C577.44 388.732 578.786 388.971 580.015 389.524C581.243 390.077 582.315 390.926 583.134 391.996C583.953 393.066 584.493 394.322 584.706 395.652C584.92 396.982 584.799 398.345 584.355 399.617Z" fill="black" fill-opacity="0.7"/>
</g>
<path d="M584.355 399.616L564.763 471.934C563.819 474.978 561.954 477.654 559.426 479.595C556.898 481.536 553.83 482.645 550.645 482.77H438.856C437.508 482.876 436.155 482.642 434.921 482.091C433.686 481.54 432.609 480.689 431.788 479.614C430.967 478.54 430.427 477.277 430.219 475.941C430.011 474.605 430.141 473.239 430.597 471.966L450.205 399.648C451.157 396.611 453.024 393.943 455.551 392.009C458.079 390.074 461.142 388.969 464.323 388.844H576.096C577.162 388.768 578.232 388.902 579.246 389.24C580.26 389.578 581.197 390.112 582.004 390.812C582.811 391.512 583.473 392.365 583.95 393.321C584.428 394.276 584.712 395.317 584.787 396.383C584.86 397.479 584.713 398.578 584.355 399.616Z" stroke="#263238" stroke-linecap="round" stroke-linejoin="round"/>
<path d="M518.633 555.936L555.191 690.774H564.827L528.284 555.936H518.633Z" fill="#757575" stroke="#263238" stroke-linecap="round" stroke-linejoin="round"/>
<path d="M528.316 540.393V553.583H384.386V540.393C384.386 537.821 385.408 535.354 387.227 533.534C389.046 531.715 391.513 530.693 394.086 530.693H518.6C519.876 530.689 521.14 530.937 522.32 531.423C523.499 531.909 524.571 532.623 525.474 533.524C526.377 534.425 527.093 535.496 527.58 536.675C528.068 537.854 528.318 539.118 528.316 540.393Z" fill="#00BE9B"/>
<mask id="mask3_4103_2060" style="mask-type:luminance" maskUnits="userSpaceOnUse" x="384" y="530" width="145" height="24">
<path d="M528.317 540.393V553.583H384.386V540.393C384.386 537.821 385.408 535.354 387.228 533.534C389.047 531.715 391.514 530.693 394.086 530.693H518.601C519.876 530.689 521.14 530.937 522.32 531.423C523.5 531.909 524.572 532.623 525.475 533.524C526.377 534.425 527.093 535.496 527.581 536.675C528.069 537.854 528.319 539.118 528.317 540.393Z" fill="white"/>
</mask>
<g mask="url(#mask3_4103_2060)">
<path opacity="0.2" d="M527.98 537.912C523.323 543.386 514.967 548.957 500.593 553.647H384.386V540.393C384.386 537.821 385.408 535.353 387.228 533.534C389.047 531.715 391.514 530.693 394.086 530.693H518.601C520.741 530.696 522.821 531.404 524.517 532.71C526.213 534.015 527.43 535.844 527.98 537.912Z" fill="black" fill-opacity="0.7"/>
</g>
<path d="M528.316 540.393V553.583H384.386V540.393C384.386 537.821 385.408 535.354 387.227 533.534C389.046 531.715 391.513 530.693 394.086 530.693H518.6C519.876 530.689 521.14 530.937 522.32 531.423C523.499 531.909 524.571 532.623 525.474 533.524C526.377 534.425 527.093 535.496 527.58 536.675C528.068 537.854 528.318 539.118 528.316 540.393Z" stroke="#263238" stroke-linecap="round" stroke-linejoin="round"/>
<path d="M533.199 549.597H380.753C379.241 549.597 378.016 550.822 378.016 552.334V559.233C378.016 560.744 379.241 561.97 380.753 561.97H533.199C534.71 561.97 535.936 560.744 535.936 559.233V552.334C535.936 550.822 534.71 549.597 533.199 549.597Z" fill="#999999" stroke="#263238" stroke-linecap="round" stroke-linejoin="round"/>
<path d="M379.713 549.997C372.814 557.024 406.252 667.436 406.252 667.436C402.602 670.637 397.224 672.11 392.134 672.782C387.455 673.364 382.726 673.433 378.032 672.99C378.032 672.99 330.109 556.752 343.298 527.908C356.487 499.064 438.328 485.971 438.328 485.971L441.818 477.327L484.155 471.373L491.15 523.218C491.15 523.218 484.203 523.89 473.751 525.235C445.723 528.788 392.39 537.192 379.713 549.997Z" fill="#263238"/>
<mask id="mask4_4103_2060" style="mask-type:luminance" maskUnits="userSpaceOnUse" x="341" y="471" width="151" height="203">
<path d="M379.713 549.998C372.814 557.025 406.252 667.438 406.252 667.438C402.602 670.639 397.224 672.111 392.134 672.784C387.455 673.365 382.726 673.435 378.032 672.992C378.032 672.992 330.109 556.753 343.298 527.909C356.487 499.066 438.328 485.972 438.328 485.972L441.818 477.329L484.155 471.375L491.15 523.219C491.15 523.219 484.203 523.892 473.751 525.236C445.723 528.79 392.39 537.193 379.713 549.998Z" fill="white"/>
</mask>
<g mask="url(#mask4_4103_2060)">
<path opacity="0.3" d="M406.251 667.501C402.602 670.702 397.224 672.175 392.134 672.847C382.834 638.273 359.16 546.012 368.124 534.728C379.184 520.802 433.926 508.141 433.926 508.141C434.151 501.034 453.342 494.631 453.342 494.631L473.734 525.188C445.707 528.789 392.374 537.193 379.697 549.998C372.814 557.089 406.251 667.501 406.251 667.501Z" fill="black"/>
</g>
<path d="M379.713 549.997C372.814 557.024 406.252 667.436 406.252 667.436C402.602 670.637 397.224 672.11 392.134 672.782C387.455 673.364 382.726 673.433 378.032 672.99C378.032 672.99 330.109 556.752 343.298 527.908C356.487 499.064 438.328 485.971 438.328 485.971L441.818 477.327L484.155 471.373L491.15 523.218C491.15 523.218 484.203 523.89 473.751 525.235C445.723 528.788 392.39 537.192 379.713 549.997Z" stroke="#263238" stroke-linecap="round" stroke-linejoin="round"/>
<path d="M356.023 445.491C348.996 444.29 399.016 400.433 399.016 400.433L423.138 416.663C423.138 416.663 382.098 445.571 375.647 446.355C369.196 447.139 356.023 445.491 356.023 445.491Z" fill="white"/>
<mask id="mask5_4103_2060" style="mask-type:luminance" maskUnits="userSpaceOnUse" x="355" y="400" width="69" height="47">
<path d="M356.023 445.491C348.996 444.291 399.016 400.433 399.016 400.433L423.138 416.664C423.138 416.664 382.098 445.571 375.647 446.356C369.196 447.14 356.023 445.491 356.023 445.491Z" fill="white"/>
</mask>
<g mask="url(#mask5_4103_2060)">
<path d="M356.023 445.491C348.996 444.291 399.016 400.433 399.016 400.433L423.138 416.664C423.138 416.664 382.098 445.571 375.647 446.356C369.196 447.14 356.023 445.491 356.023 445.491Z" fill="#FFE3CA"/>
</g>
<path d="M356.023 445.491C348.996 444.29 399.016 400.433 399.016 400.433L423.138 416.663C423.138 416.663 382.098 445.571 375.647 446.355C369.196 447.139 356.023 445.491 356.023 445.491Z" stroke="#263238" stroke-linecap="round" stroke-linejoin="round"/>
<path d="M364.81 427.052C364.81 427.052 375.295 429.661 378.512 431.854C381.729 434.047 380.801 441.97 380.801 441.97C380.801 441.97 366.827 438.032 364.81 427.052Z" fill="#FFE3CA" stroke="#263238" stroke-linecap="round" stroke-linejoin="round"/>
<path d="M358.119 406.963L377.615 444.354H379.92L361.401 405.123L358.119 406.963Z" fill="#263238"/>
<path d="M375.212 433.628C375.212 433.628 362.919 424.889 359.91 424.889C356.901 424.889 347.889 435.533 347.889 440.895C347.889 446.257 367.545 449.186 371.386 444.657C373.307 442.4 369.498 436.958 369.498 436.958C371.786 439.393 374.241 441.666 376.845 443.76C378.445 444.657 381.502 443.488 381.502 443.488C381.502 443.488 377.405 436.926 375.212 433.628Z" fill="#FFE3CA" stroke="#263238" stroke-linecap="round" stroke-linejoin="round"/>
<path d="M369.981 446.259C367.146 442.66 363.667 439.621 359.72 437.295" stroke="#263238" stroke-linecap="round" stroke-linejoin="round"/>
<path d="M369.98 437.296C369.98 437.296 365.723 433.582 362.857 432.766" stroke="#263238" stroke-linecap="round" stroke-linejoin="round"/>
<path d="M356.583 442.018C359.559 443.543 362.431 445.265 365.178 447.172" stroke="#263238" stroke-linecap="round" stroke-linejoin="round"/>
<path d="M414.686 381.257C408.396 385.643 380.144 414.695 380.144 414.695C380.144 414.695 393.382 429.757 404.986 431.934L436.439 416.664L414.686 381.257Z" fill="#00BE9B" stroke="#263238" stroke-linecap="round" stroke-linejoin="round"/>
<path opacity="0.4" d="M414.686 381.257C408.396 385.643 380.144 414.695 380.144 414.695C380.144 414.695 393.382 429.757 404.986 431.934L436.439 416.664L414.686 381.257Z" fill="white" stroke="#263238" stroke-linecap="round" stroke-linejoin="round"/>
<path d="M399.496 655.784L412.83 690.854C412.83 690.854 415.039 699.866 374.83 697.017L352.677 695.128L399.496 655.784Z" fill="#00BE9B"/>
<mask id="mask6_4103_2060" style="mask-type:luminance" maskUnits="userSpaceOnUse" x="352" y="655" width="61" height="43">
<path d="M399.496 655.784L412.83 690.854C412.83 690.854 415.038 699.866 374.83 697.017L352.677 695.128L399.496 655.784Z" fill="white"/>
</mask>
<g mask="url(#mask6_4103_2060)">
<path opacity="0.3" d="M399.496 655.784L412.83 690.854C412.83 690.854 415.038 699.866 374.83 697.017L352.677 695.128L399.496 655.784Z" fill="black"/>
</g>
<path d="M399.496 655.784L412.83 690.854C412.83 690.854 415.039 699.866 374.83 697.017L352.677 695.128L399.496 655.784Z" stroke="#263238" stroke-linecap="round" stroke-linejoin="round"/>
<path d="M394.438 672.559C394.438 672.559 397.287 686.18 394.438 696.312C394.438 696.312 352.005 702.955 342.513 700.426C333.021 697.897 327.259 693.159 326.97 690.822C326.97 690.822 327.307 684.323 336.814 682.419C346.322 680.514 365.226 679.217 372.701 668.493C380.176 657.769 394.438 672.559 394.438 672.559Z" fill="#00BE9B" stroke="#263238" stroke-linecap="round" stroke-linejoin="round"/>
<path d="M450.429 475.919C463.986 456.583 526.316 479.856 526.316 479.856C526.316 479.856 532.254 526.403 507.428 538.824C482.602 551.245 446.812 550.573 437.144 560.641L397.8 676.816C397.8 676.816 383.666 682.722 363.114 673.422C363.114 673.422 388.1 585.691 395.431 554.542C402.682 523.714 449.629 502.794 449.629 502.794C447.209 499.935 445.376 496.628 444.235 493.062" fill="#263238"/>
<path d="M450.429 475.919C463.986 456.583 526.316 479.856 526.316 479.856C526.316 479.856 532.254 526.403 507.428 538.824C482.602 551.245 446.812 550.573 437.144 560.641L397.8 676.816C397.8 676.816 383.666 682.722 363.114 673.422C363.114 673.422 388.1 585.691 395.431 554.542C402.682 523.714 449.629 502.794 449.629 502.794C447.209 499.935 445.376 496.628 444.235 493.062" stroke="#263238" stroke-linecap="round" stroke-linejoin="round"/>
<path d="M513.526 520.417C511.537 522.179 509.447 523.825 507.268 525.347" stroke="white" stroke-linecap="round" stroke-linejoin="round"/>
<path d="M518.633 480.994C523.723 492.038 524.123 506.06 517.032 516.288" stroke="white" stroke-linecap="round" stroke-linejoin="round"/>
<path d="M504.434 482.771C504.434 482.771 503.138 491.286 506.931 494.663C510.725 498.041 522.362 499.753 522.362 499.753" stroke="white" stroke-linecap="round" stroke-linejoin="round"/>
<path d="M453.342 483.154C453.342 483.154 453.87 491.638 450.429 491.238C446.987 490.837 446.811 494.631 446.811 494.631" stroke="white" stroke-linecap="round" stroke-linejoin="round"/>
<path d="M415.519 387.787C414.994 385.649 414.715 383.458 414.687 381.257C414.687 381.257 433.894 365.058 458.624 365.154C488.076 365.25 506.083 374.518 513.286 387.387C524.715 407.747 526.316 479.856 526.316 479.856C526.316 479.856 452.414 491.253 441.817 477.279C439.977 474.846 441.385 457.672 441.385 457.672C441.385 457.672 433.11 435.967 431.365 419.128C428.934 415.777 426.674 412.304 424.595 408.724C421.963 404.316 419.683 399.708 417.776 394.942" fill="#00BE9B"/>
<path d="M415.519 387.787C414.994 385.649 414.715 383.458 414.687 381.257C414.687 381.257 433.894 365.058 458.624 365.154C488.076 365.25 506.083 374.518 513.286 387.387C524.715 407.747 526.316 479.856 526.316 479.856C526.316 479.856 452.414 491.253 441.817 477.279C439.977 474.846 441.385 457.672 441.385 457.672C441.385 457.672 433.11 435.967 431.365 419.128C428.934 415.777 426.674 412.304 424.595 408.724C421.963 404.316 419.683 399.708 417.776 394.942" stroke="#263238" stroke-linecap="round" stroke-linejoin="round"/>
<path d="M443.819 405.123C443.819 405.123 455.103 448.9 453.422 458.536C453.021 461.861 453.576 465.232 455.023 468.252C453.549 469.803 452.6 471.779 452.313 473.9C452.026 476.02 452.414 478.177 453.422 480.065" stroke="#263238" stroke-linecap="round" stroke-linejoin="round"/>
<path d="M473.75 441.345C471.735 441.269 469.777 440.649 468.084 439.553L464.739 424.891C471.376 425.494 478.067 425.024 484.555 423.498L488.14 439.505C486.124 440.067 484.077 440.51 482.01 440.833" stroke="#263238" stroke-linecap="round" stroke-linejoin="round"/>
<path d="M435.799 410.821C435.799 410.821 426.195 369.909 450.429 365.155C474.663 360.401 479.641 371.717 478.216 379.384C476.312 389.612 456.223 414.695 456.223 414.695L443.818 405.091L435.799 410.821Z" fill="#00BE9B" stroke="#263238" stroke-linecap="round" stroke-linejoin="round"/>
<path opacity="0.4" d="M435.799 410.821C435.799 410.821 426.195 369.909 450.429 365.155C474.663 360.401 479.641 371.717 478.216 379.384C476.312 389.612 456.223 414.695 456.223 414.695L443.818 405.091L435.799 410.821Z" fill="white" stroke="#263238" stroke-linecap="round" stroke-linejoin="round"/>
<path d="M404.01 537.191C404.01 537.191 419.664 519.12 455.006 505.467C455.006 505.467 445.851 502.665 443.802 498.856" stroke="white" stroke-linecap="round" stroke-linejoin="round"/>
<path d="M385.603 592.495L371.293 644.452" stroke="white" stroke-linecap="round" stroke-linejoin="round"/>
<path d="M496.175 442.754C496.175 442.754 502.578 453.558 528.941 452.566C524.034 447.312 517.828 443.447 510.949 441.361C500.177 438.48 496.175 442.754 496.175 442.754Z" fill="#00BE9B" stroke="#263238" stroke-linecap="round" stroke-linejoin="round"/>
<path d="M393.894 447.092C393.894 447.092 400.008 437.616 405.61 435.711C411.213 433.806 427.667 433.646 430.212 433.582C432.757 433.518 477.976 445.011 499.2 452.086L497.344 416.664L525.867 418.92C525.867 418.92 524.715 462.138 520.281 473.583C515.847 485.027 509.492 482.242 498.656 477.568C456.031 459.209 431.061 446.42 428.74 447.156C426.419 447.892 393.894 447.092 393.894 447.092Z" fill="#FFE3CA" stroke="#263238" stroke-linecap="round" stroke-linejoin="round"/>
<path d="M490.221 396.079C489.476 399.015 489.237 402.058 489.517 405.075C490.781 416.151 496.175 442.754 496.175 442.754C496.175 442.754 522.762 446.547 528.94 452.566C528.94 452.566 533.326 417.351 524.395 399.472C515.463 381.593 506.227 379.624 506.227 379.624C500.385 378.184 495.023 383.626 492.062 390.621" fill="#00BE9B"/>
<path d="M490.221 396.079C489.476 399.015 489.237 402.058 489.517 405.075C490.781 416.151 496.175 442.754 496.175 442.754C496.175 442.754 522.762 446.547 528.94 452.566C528.94 452.566 533.326 417.351 524.395 399.472C515.463 381.593 506.227 379.624 506.227 379.624C500.385 378.184 495.023 383.626 492.062 390.621" stroke="#263238" stroke-linecap="round" stroke-linejoin="round"/>
<g opacity="0.4">
<path d="M490.221 396.079C489.476 399.015 489.237 402.058 489.517 405.075C490.781 416.151 496.175 442.754 496.175 442.754C496.175 442.754 522.762 446.547 528.94 452.566C528.94 452.566 533.326 417.351 524.395 399.472C515.463 381.593 506.227 379.624 506.227 379.624C500.385 378.184 495.023 383.626 492.062 390.621" fill="white"/>
<path d="M490.221 396.079C489.476 399.015 489.237 402.058 489.517 405.075C490.781 416.151 496.175 442.754 496.175 442.754C496.175 442.754 522.762 446.547 528.94 452.566C528.94 452.566 533.326 417.351 524.395 399.472C515.463 381.593 506.227 379.624 506.227 379.624C500.385 378.184 495.023 383.626 492.062 390.621" stroke="#263238" stroke-linecap="round" stroke-linejoin="round"/>
</g>
<path d="M412.109 409.781C416.09 413.038 420.733 415.387 425.715 416.664" stroke="#263238" stroke-linecap="round" stroke-linejoin="round"/>
<path d="M496.175 409.781C496.175 409.781 505.779 427.932 517.912 431.934" stroke="#263238" stroke-linecap="round" stroke-linejoin="round"/>
<path d="M433.942 549.597C433.942 549.597 435.719 550.941 436.439 555.791" stroke="white" stroke-linecap="round" stroke-linejoin="round"/>
<path d="M427.364 555.792C428.91 555.959 430.405 556.447 431.753 557.224C433.1 558.002 434.271 559.051 435.191 560.305" stroke="white" stroke-linecap="round" stroke-linejoin="round"/>
<path d="M374.414 537.192C374.414 537.192 379.536 539.785 378.432 547.132" stroke="white" stroke-linecap="round" stroke-linejoin="round"/>
<path d="M369.02 543.435C369.02 543.435 376.015 547.581 376.511 551.294" stroke="white" stroke-linecap="round" stroke-linejoin="round"/>
<path d="M450.093 498.648C450.093 498.648 465.667 500.825 469.156 498.648" stroke="white" stroke-linecap="round" stroke-linejoin="round"/>
<path d="M443.818 403.362C442.474 399.55 441.929 395.502 442.218 391.469C442.282 390.102 442.426 388.739 442.65 387.388L439.945 383.098L436.471 377.576L440.489 361.569C440.489 361.569 466.099 366.499 468.02 373.638C469.941 380.777 443.818 403.362 443.818 403.362Z" fill="#FFE3CA"/>
<path opacity="0.2" d="M442.186 391.533C442.25 390.165 442.394 388.802 442.618 387.451L439.913 383.161C444.789 382.407 449.228 379.917 452.414 376.15C452.548 379.465 451.632 382.738 449.795 385.5C447.958 388.263 445.295 390.374 442.186 391.533Z" fill="black" fill-opacity="0.7"/>
<path d="M443.818 403.362C442.474 399.55 441.929 395.502 442.218 391.469C442.282 390.102 442.426 388.739 442.65 387.388L439.945 383.098L436.471 377.576L440.489 361.569C440.489 361.569 466.099 366.499 468.02 373.638C469.941 380.777 443.818 403.362 443.818 403.362Z" stroke="#263238" stroke-linecap="round" stroke-linejoin="round"/>
<path d="M459.889 362.914C467.892 342.105 462.578 306.683 424.162 313.47C401.625 317.471 398.904 344.714 406.427 356.815C413.95 368.916 405.963 369.3 417.279 378.264C421.873 381.897 425.571 388.06 431.045 388.46C437.56 388.908 445.899 382.746 452.125 376.087" fill="#FFE3CA"/>
<path d="M459.889 362.914C467.892 342.105 462.578 306.683 424.162 313.47C401.625 317.471 398.904 344.714 406.427 356.815C413.95 368.916 405.963 369.3 417.279 378.264C421.873 381.897 425.571 388.06 431.045 388.46C437.56 388.908 445.899 382.746 452.125 376.087" stroke="#263238" stroke-linecap="round" stroke-linejoin="round"/>
<path d="M422.033 356.815C422.033 356.815 427.699 351.661 434.438 353.79" stroke="#263238" stroke-linecap="round" stroke-linejoin="round"/>
<path d="M411.421 356.815C410.661 355.478 409.603 354.335 408.329 353.474C407.054 352.614 405.598 352.059 404.074 351.853" stroke="#263238" stroke-linecap="round" stroke-linejoin="round"/>
<path d="M415.166 364.322C415.166 364.322 414.35 368.468 413.277 372.662C412.205 376.855 420 374.566 419.68 373.926" fill="#FFE3CA"/>
<path d="M415.166 364.322C415.166 364.322 414.35 368.468 413.277 372.662C412.205 376.855 420 374.566 419.68 373.926" stroke="#263238" stroke-linecap="round" stroke-linejoin="round"/>
<path d="M423.698 379.16C427.003 378.214 429.944 376.289 432.133 373.638" stroke="#263238" stroke-linecap="round" stroke-linejoin="round"/>
<path d="M429.924 362.082C430.038 362.283 430.111 362.506 430.139 362.736C430.167 362.965 430.149 363.199 430.087 363.422C430.024 363.645 429.918 363.853 429.775 364.035C429.632 364.217 429.454 364.369 429.252 364.483C428.842 364.707 428.36 364.76 427.91 364.632C427.461 364.503 427.08 364.202 426.851 363.794C426.705 363.547 426.627 363.265 426.627 362.978C426.513 362.776 426.44 362.554 426.413 362.324C426.385 362.094 426.403 361.861 426.465 361.638C426.528 361.415 426.633 361.207 426.777 361.024C426.92 360.842 427.097 360.69 427.299 360.577C427.71 360.353 428.192 360.299 428.641 360.428C429.091 360.557 429.471 360.858 429.7 361.265C429.847 361.512 429.924 361.794 429.924 362.082Z" fill="#263238"/>
<path d="M412.83 361.729C413.15 362.881 412.926 363.969 412.317 364.129C411.709 364.29 410.957 363.489 410.717 362.321C410.477 361.152 410.637 360.08 411.245 359.92C411.853 359.76 412.477 360.56 412.83 361.729Z" fill="#263238"/>
<path d="M436.199 335.383C436.199 335.383 430.245 350.957 415.519 350.605C415.519 350.605 420.625 346.715 422.033 343.002C422.033 343.002 410.701 354.206 399.384 348.508C388.068 342.81 393.622 316.303 410.989 305.835C428.356 295.366 446.123 298.168 452.141 308.172C452.141 308.172 464.306 307.051 469.669 324.93C474.47 340.937 466.787 365.203 459.28 365.475C447.644 365.907 445.307 353.278 445.307 353.278C440.502 348.392 437.322 342.142 436.199 335.383Z" fill="#263238" stroke="#263238" stroke-linecap="round" stroke-linejoin="round"/>
<path d="M448.956 362.994C448.956 362.994 448.588 348.3 456.959 350.077C465.331 351.854 459.264 368.836 452.974 368.66" fill="#FFE3CA"/>
<path d="M448.956 362.994C448.956 362.994 448.588 348.3 456.959 350.077C465.331 351.854 459.264 368.836 452.974 368.66" stroke="#263238" stroke-linecap="round" stroke-linejoin="round"/>
<path d="M423.106 445.491H294.046C292.605 445.491 291.437 446.659 291.437 448.1V452.598C291.437 454.039 292.605 455.207 294.046 455.207H423.106C424.547 455.207 425.715 454.039 425.715 452.598V448.1C425.715 446.659 424.547 445.491 423.106 445.491Z" fill="#00BE9B" stroke="#263238" stroke-linecap="round" stroke-linejoin="round"/>
<path d="M103.57 641.01H49.1316L54.8299 690.774H97.8713L103.57 641.01Z" fill="#263238" stroke="#263238" stroke-linecap="round" stroke-linejoin="round"/>
<path d="M110.021 606.372C110.021 606.372 86.2512 608.245 85.2588 625.788C85.2588 625.788 109.333 636.864 110.021 606.372Z" fill="#00BE9B" stroke="#263238" stroke-linecap="round" stroke-linejoin="round"/>
<path d="M62.9937 610.726C62.9937 610.726 49.7083 592.767 28.2437 601.971C28.2437 601.971 41.3529 623.627 62.9937 610.726Z" fill="#00BE9B" stroke="#263238" stroke-linecap="round" stroke-linejoin="round"/>
<path d="M30.0683 554.03C30.0683 554.03 26.2428 588.572 57.6955 579.064C57.6955 579.064 47.7075 553.662 30.0683 554.03Z" fill="#00BE9B" stroke="#263238" stroke-linecap="round" stroke-linejoin="round"/>
<path d="M68.6922 534.792C68.6922 534.792 43.8181 548.205 62.1135 568.565C62.0975 568.565 79.5285 554.015 68.6922 534.792Z" fill="#00BE9B" stroke="#263238" stroke-linecap="round" stroke-linejoin="round"/>
<path d="M99.2804 565.667C99.2804 565.667 72.2295 562.93 72.2295 587.964C72.2295 587.964 99.2804 589.037 99.2804 565.667Z" fill="#00BE9B" stroke="#263238" stroke-linecap="round" stroke-linejoin="round"/>
<path d="M73.7822 661.514C73.7822 661.514 86.1072 635.648 74.2784 609.301C62.4496 582.954 58.432 560.754 64.6745 545.115" stroke="#263238" stroke-linecap="round" stroke-linejoin="round"/>
<path d="M90.3967 572.406C90.3967 572.406 74.1821 578.809 68.6919 595.536" stroke="#263238" stroke-linecap="round" stroke-linejoin="round"/>
<path d="M38.616 567.844C38.616 567.844 47.9798 580.649 63.8422 579.225" stroke="#263238" stroke-linecap="round" stroke-linejoin="round"/>
<path d="M38.616 605.651C38.616 605.651 64.5464 613.11 74.8546 610.677" stroke="#263238" stroke-linecap="round" stroke-linejoin="round"/>
<path d="M102.306 614.263C102.306 614.263 90.701 627.068 79.0483 626.796" stroke="#263238" stroke-linecap="round" stroke-linejoin="round"/>
<path d="M105.907 639.906H46.7949V646.933H105.907V639.906Z" fill="#263238" stroke="#263238" stroke-linecap="round" stroke-linejoin="round"/>
<path d="M534.864 594.815C521.045 603.843 509.449 615.882 500.946 630.03C486.844 653.559 475.672 686.661 493.023 690.854L509.526 690.23L541.282 679.33L537.953 672.927C537.953 672.927 510.15 687.653 505.396 687.653C500.642 687.653 494.447 688.837 491.838 686.933C489.229 685.028 500.978 642.243 526.124 627.981C551.27 613.719 534.864 594.815 534.864 594.815Z" fill="#00BE9B"/>
<mask id="mask7_4103_2060" style="mask-type:luminance" maskUnits="userSpaceOnUse" x="484" y="594" width="58" height="97">
<path d="M534.864 594.815C521.045 603.843 509.449 615.882 500.946 630.03C486.844 653.559 475.672 686.661 493.023 690.854L509.525 690.23L541.282 679.33L537.953 672.927C537.953 672.927 510.15 687.653 505.396 687.653C500.642 687.653 494.447 688.837 491.838 686.933C489.229 685.028 500.978 642.243 526.124 627.981C551.27 613.719 534.864 594.815 534.864 594.815Z" fill="white"/>
</mask>
<g mask="url(#mask7_4103_2060)">
<path opacity="0.5" d="M534.864 594.815C521.045 603.843 509.449 615.882 500.946 630.03C486.844 653.559 475.672 686.661 493.023 690.854L509.525 690.23L541.282 679.33L537.953 672.927C537.953 672.927 510.15 687.653 505.396 687.653C500.642 687.653 494.447 688.837 491.838 686.933C489.229 685.028 500.978 642.243 526.124 627.981C551.27 613.719 534.864 594.815 534.864 594.815Z" fill="black" fill-opacity="0.7"/>
</g>
<path d="M534.864 594.815C521.045 603.843 509.449 615.882 500.946 630.03C486.844 653.559 475.672 686.661 493.023 690.854L509.526 690.23L541.282 679.33L537.953 672.927C537.953 672.927 510.15 687.653 505.396 687.653C500.642 687.653 494.447 688.837 491.838 686.933C489.229 685.028 500.978 642.243 526.124 627.981C551.27 613.719 534.864 594.815 534.864 594.815Z" stroke="#263238" stroke-linecap="round" stroke-linejoin="round"/>
<path d="M552.935 579.385C552.935 579.385 552.935 572.486 563.387 571.542C573.839 570.598 575.328 580.666 575.328 580.666H571.727C571.727 580.666 571.807 574.631 564.124 574.167C556.44 573.703 556.729 580.666 556.729 580.666L552.935 579.385Z" fill="#00BE9B" stroke="#263238" stroke-linecap="round" stroke-linejoin="round"/>
<path d="M537.473 690.854C515.368 690.854 519.562 591.726 522.107 586.812C524.652 581.898 588.79 579.449 595.112 581.53C601.435 583.611 626.789 682.37 612.799 690.262L537.473 690.854Z" fill="#00BE9B"/>
<mask id="mask8_4103_2060" style="mask-type:luminance" maskUnits="userSpaceOnUse" x="520" y="580" width="97" height="111">
<path d="M537.473 690.854C515.368 690.854 519.561 591.726 522.106 586.812C524.651 581.898 588.789 579.449 595.112 581.53C601.434 583.611 626.789 682.37 612.799 690.262L537.473 690.854Z" fill="white"/>
</mask>
<g mask="url(#mask8_4103_2060)">
<path opacity="0.2" d="M537.473 690.854C515.368 690.854 519.561 591.726 522.106 586.812C524.651 581.898 588.789 579.449 595.112 581.53C601.434 583.611 626.789 682.37 612.799 690.262L537.473 690.854Z" fill="black" fill-opacity="0.7"/>
</g>
<path d="M537.473 690.854C515.368 690.854 519.562 591.726 522.107 586.812C524.652 581.898 588.79 579.449 595.112 581.53C601.435 583.611 626.789 682.37 612.799 690.262L537.473 690.854Z" stroke="#263238" stroke-linecap="round" stroke-linejoin="round"/>
<path d="M522.107 586.7C530.11 588.413 534.72 620.858 545.492 629.117C556.265 637.377 607.053 635.6 612.799 629.117C618.546 622.635 607.309 586.236 599.146 580.666C590.982 575.096 585.172 580.506 562.203 577.961C528.157 574.167 522.107 586.7 522.107 586.7Z" fill="#00BE9B" stroke="#263238" stroke-linecap="round" stroke-linejoin="round"/>
<path d="M580.402 605.348L589.814 613.031C589.942 613.14 590.048 613.274 590.125 613.424C590.202 613.574 590.248 613.737 590.262 613.905C590.275 614.074 590.255 614.243 590.203 614.403C590.151 614.563 590.068 614.712 589.958 614.84L582.627 622.747C582.393 622.98 582.077 623.11 581.747 623.11C581.417 623.11 581.1 622.98 580.866 622.747L571.503 614.023C571.274 613.788 571.146 613.472 571.146 613.143C571.146 612.814 571.274 612.499 571.503 612.263L578.753 605.524C578.959 605.298 579.241 605.155 579.544 605.123C579.848 605.09 580.153 605.17 580.402 605.348Z" fill="#00BE9B"/>
<mask id="mask9_4103_2060" style="mask-type:luminance" maskUnits="userSpaceOnUse" x="571" y="605" width="20" height="19">
<path d="M580.402 605.347L589.814 613.03C589.942 613.139 590.048 613.273 590.125 613.423C590.202 613.573 590.248 613.736 590.261 613.905C590.275 614.073 590.255 614.242 590.203 614.402C590.151 614.562 590.067 614.711 589.958 614.839L582.627 622.746C582.393 622.979 582.076 623.109 581.746 623.109C581.417 623.109 581.1 622.979 580.866 622.746L571.502 614.022C571.273 613.787 571.146 613.471 571.146 613.142C571.146 612.813 571.273 612.498 571.502 612.262L578.753 605.523C578.959 605.297 579.24 605.154 579.544 605.122C579.848 605.089 580.153 605.169 580.402 605.347Z" fill="white"/>
</mask>
<g mask="url(#mask9_4103_2060)">
<path opacity="0.2" d="M580.402 605.347L589.814 613.03C589.942 613.139 590.048 613.273 590.125 613.423C590.202 613.573 590.248 613.736 590.261 613.905C590.275 614.073 590.255 614.242 590.203 614.402C590.151 614.562 590.067 614.711 589.958 614.839L582.627 622.746C582.393 622.979 582.076 623.109 581.746 623.109C581.417 623.109 581.1 622.979 580.866 622.746L571.502 614.022C571.273 613.787 571.146 613.471 571.146 613.142C571.146 612.813 571.273 612.498 571.502 612.262L578.753 605.523C578.959 605.297 579.24 605.154 579.544 605.122C579.848 605.089 580.153 605.169 580.402 605.347Z" fill="black" fill-opacity="0.7"/>
</g>
<path d="M580.402 605.348L589.814 613.031C589.942 613.14 590.048 613.274 590.125 613.424C590.202 613.574 590.248 613.737 590.262 613.905C590.275 614.074 590.255 614.243 590.203 614.403C590.151 614.563 590.068 614.712 589.958 614.84L582.627 622.747C582.393 622.98 582.077 623.11 581.747 623.11C581.417 623.11 581.1 622.98 580.866 622.747L571.503 614.023C571.274 613.788 571.146 613.472 571.146 613.143C571.146 612.814 571.274 612.499 571.503 612.263L578.753 605.524C578.959 605.298 579.241 605.155 579.544 605.123C579.848 605.09 580.153 605.17 580.402 605.348Z" stroke="#263238" stroke-linecap="round" stroke-linejoin="round"/>
<path d="M549.366 645.7C549.366 645.7 591.911 649.205 612.799 643.795C615.594 645.995 617.672 648.975 618.77 652.358C620.674 658.057 624.644 677.553 612.799 682.547C600.954 687.541 558.377 686.58 552.695 680.946C547.013 675.312 549.366 645.7 549.366 645.7Z" fill="#00BE9B"/>
<mask id="mask10_4103_2060" style="mask-type:luminance" maskUnits="userSpaceOnUse" x="548" y="643" width="73" height="43">
<path d="M549.366 645.7C549.366 645.7 591.911 649.205 612.799 643.795C615.594 645.995 617.672 648.975 618.77 652.358C620.674 658.057 624.644 677.553 612.799 682.547C600.954 687.541 558.377 686.58 552.695 680.946C547.013 675.312 549.366 645.7 549.366 645.7Z" fill="white"/>
</mask>
<g mask="url(#mask10_4103_2060)">
<path opacity="0.4" d="M549.366 645.7C549.366 645.7 591.911 649.205 612.799 643.795C615.594 645.995 617.672 648.975 618.77 652.358C620.674 658.057 624.644 677.553 612.799 682.547C600.954 687.541 558.377 686.58 552.695 680.946C547.013 675.312 549.366 645.7 549.366 645.7Z" fill="black" fill-opacity="0.7"/>
</g>
<path d="M549.366 645.7C549.366 645.7 591.911 649.205 612.799 643.795C615.594 645.995 617.672 648.975 618.77 652.358C620.674 658.057 624.644 677.553 612.799 682.547C600.954 687.541 558.377 686.58 552.695 680.946C547.013 675.312 549.366 645.7 549.366 645.7Z" stroke="#263238" stroke-linecap="round" stroke-linejoin="round"/>
<path d="M549.366 645.7C549.366 645.7 554.36 659.161 556.969 661.226C559.578 663.291 614.848 663.291 620.995 658.297C627.141 653.303 618.722 644.275 612.815 643.795C612.799 643.795 574.08 648.309 549.366 645.7Z" fill="#00BE9B" stroke="#263238" stroke-linecap="round" stroke-linejoin="round"/>
<path d="M531.534 642.835C531.534 642.835 532.959 671.118 535.808 677.537C533.693 678.641 531.343 679.217 528.957 679.217C526.572 679.217 524.221 678.641 522.106 677.537C514.904 673.727 516.088 649.366 517.513 649.43C518.937 649.494 531.534 642.835 531.534 642.835Z" fill="#00BE9B"/>
<mask id="mask11_4103_2060" style="mask-type:luminance" maskUnits="userSpaceOnUse" x="516" y="642" width="20" height="38">
<path d="M531.534 642.834C531.534 642.834 532.959 671.118 535.808 677.536C533.693 678.64 531.343 679.217 528.957 679.217C526.572 679.217 524.221 678.64 522.106 677.536C514.904 673.727 516.088 649.365 517.513 649.429C518.937 649.493 531.534 642.834 531.534 642.834Z" fill="white"/>
</mask>
<g mask="url(#mask11_4103_2060)">
<path opacity="0.4" d="M531.534 642.834C531.534 642.834 532.959 671.118 535.808 677.536C533.693 678.64 531.343 679.217 528.957 679.217C526.572 679.217 524.221 678.64 522.106 677.536C514.904 673.727 516.088 649.365 517.513 649.429C518.937 649.493 531.534 642.834 531.534 642.834Z" fill="black" fill-opacity="0.7"/>
</g>
<path d="M531.534 642.835C531.534 642.835 532.959 671.118 535.808 677.537C533.693 678.641 531.343 679.217 528.957 679.217C526.572 679.217 524.221 678.641 522.106 677.537C514.904 673.727 516.088 649.366 517.513 649.43C518.937 649.494 531.534 642.835 531.534 642.835Z" stroke="#263238" stroke-linecap="round" stroke-linejoin="round"/>
<path d="M531.534 642.835L520.826 644.98C520.826 644.98 510.614 652.823 515.128 655.432C519.641 658.041 531.278 651.639 531.534 642.835Z" fill="#00BE9B" stroke="#263238" stroke-linecap="round" stroke-linejoin="round"/>
</svg>
