<svg width="885" height="751" viewBox="0 0 885 751" fill="none" xmlns="http://www.w3.org/2000/svg">
<path d="M825.763 540.219C818.727 538.925 809.564 548.066 806.561 553.7C806.341 554.095 804.215 559.465 803.47 561.504C803.47 561.504 803.47 561.372 803.47 561.307C803.685 554.711 803.319 548.109 802.374 541.578C801.552 535.78 800.395 530.035 798.91 524.37C797.595 519.087 796.061 514.352 794.658 510.165C793.89 507.973 793.145 505.781 792.466 503.94H792.597C792.729 503.94 793.233 495.303 793.189 494.755C792.838 488.376 788.388 476.254 781.461 474.435C780.301 474.168 779.098 474.148 777.93 474.377C776.762 474.605 775.655 475.077 774.682 475.761C773.708 476.446 772.889 477.327 772.278 478.349C771.668 479.37 771.279 480.509 771.137 481.69C770.347 486.688 773.636 491.971 776.946 495.413C780.256 498.854 789.747 502.8 792.071 503.743C792.772 505.716 793.518 507.886 794.263 510.319C795.556 514.528 796.981 519.285 798.187 524.567C798.538 526.058 798.866 527.592 799.195 529.171C798.165 526.781 796.609 523.384 796.433 523.077C793.167 517.575 783.631 508.85 776.704 510.45C775.553 510.747 774.478 511.282 773.547 512.022C772.617 512.761 771.853 513.689 771.305 514.744C770.756 515.798 770.437 516.957 770.366 518.143C770.296 519.33 770.476 520.518 770.895 521.63C772.496 526.431 777.844 529.609 782.382 531.122C786.92 532.634 797.441 531.779 799.743 531.538C800.357 534.804 800.927 538.114 801.321 541.753C802.109 548.188 802.329 554.68 801.979 561.153C801.979 561.548 801.979 561.942 801.979 562.337C801.672 561.109 799.458 554.226 799.239 553.766C796.609 547.935 788.081 538.224 780.957 539.035C779.778 539.204 778.648 539.62 777.64 540.255C776.632 540.889 775.769 541.73 775.107 542.72C774.445 543.711 774 544.829 773.799 546.004C773.598 547.178 773.647 548.381 773.942 549.535C775.017 554.467 779.993 558.303 784.333 560.211C789.309 562.512 801.387 562.534 801.869 562.534C801.32 568.975 800.361 575.374 798.998 581.693C798.011 586.384 796.806 591.097 795.6 595.81C795.162 594.21 793.101 587.831 792.904 587.392C790.273 581.561 781.746 571.85 774.622 572.662C773.443 572.831 772.313 573.246 771.305 573.881C770.297 574.516 769.434 575.356 768.772 576.346C768.11 577.337 767.665 578.456 767.464 579.63C767.263 580.804 767.312 582.008 767.607 583.162C768.681 588.094 773.658 591.93 777.998 593.859C782.755 596.051 794.022 596.161 795.534 596.182C794.986 598.374 794.416 600.435 793.825 602.583C791.939 609.554 790.01 616.547 788.322 623.496C787.731 625.885 787.204 628.253 786.722 630.62C785.977 628.165 784.53 623.868 784.53 623.518C781.878 617.687 773.351 607.976 766.226 608.809C765.09 608.971 763.999 609.364 763.02 609.963C762.041 610.562 761.195 611.355 760.534 612.294C759.873 613.232 759.411 614.295 759.176 615.419C758.941 616.542 758.938 617.702 759.168 618.827C753.162 620.734 748.756 630.795 748.076 636.363C748.076 636.56 748.076 637.898 748.076 639.432C747.638 637.24 747.243 634.916 746.892 632.615C745.928 626.236 745.139 619.725 744.328 613.215L743.801 609.116C746.125 608.37 754.652 605.455 757.896 602.539C761.141 599.624 764.473 595.043 764.012 590.461C763.952 589.383 763.666 588.329 763.173 587.368C762.68 586.407 761.991 585.56 761.15 584.883C760.309 584.205 759.335 583.711 758.291 583.434C757.248 583.156 756.157 583.101 755.091 583.271C748.69 584.499 743.933 595.218 743.21 600.983C743.21 601.18 743.21 602.627 743.21 604.271C742.727 600.742 742.179 597.235 741.544 593.771C740.479 587.79 739.014 581.888 737.159 576.103C738.519 575.687 748.12 572.552 751.693 569.373C755.266 566.195 758.269 561.855 757.809 557.273C757.752 556.194 757.469 555.139 756.977 554.178C756.484 553.216 755.795 552.369 754.952 551.692C754.11 551.015 753.134 550.524 752.089 550.251C751.044 549.977 749.953 549.928 748.887 550.105C742.486 551.311 737.729 562.03 737.006 567.795C737.006 568.212 736.896 573.451 737.006 575.423C737.006 575.423 737.006 575.292 737.006 575.248C734.863 569.6 732.23 564.15 729.136 558.961C726.542 554.312 723.681 549.818 720.565 545.502C717.716 541.468 714.866 537.939 712.323 534.848C710.942 533.204 709.627 531.692 708.399 530.311H708.531C708.641 530.311 706.229 522.792 706.032 522.332C703.643 517.027 695.905 508.215 689.438 508.938C688.368 509.089 687.342 509.464 686.427 510.039C685.511 510.613 684.727 511.374 684.126 512.271C683.524 513.169 683.118 514.183 682.934 515.248C682.75 516.313 682.793 517.404 683.059 518.452C684.024 522.945 688.539 526.365 692.485 528.184C696.431 530.004 705.637 530.267 708.005 530.376C709.254 531.823 710.592 533.423 711.994 535.177C714.471 538.334 717.234 541.885 719.974 545.984C720.763 547.124 721.552 548.329 722.341 549.535C720.675 547.847 718.264 545.48 717.957 545.282C713.397 541.687 702.459 537.413 697.066 541.052C696.184 541.676 695.443 542.479 694.892 543.41C694.341 544.34 693.994 545.376 693.872 546.451C693.749 547.525 693.856 548.613 694.183 549.643C694.511 550.673 695.053 551.622 695.773 552.429C698.71 555.958 704.3 556.922 708.619 556.813C712.937 556.703 721.596 552.429 723.459 551.486C725.081 554.051 726.659 556.747 728.15 559.619C730.926 564.811 733.237 570.24 735.055 575.84C735.165 576.191 735.252 576.541 735.362 576.892C734.704 575.95 730.561 570.82 730.233 570.513C726.089 566.436 715.699 561 709.934 563.937C708.992 564.466 708.172 565.188 707.527 566.054C706.881 566.92 706.425 567.912 706.187 568.966C705.95 570.02 705.936 571.112 706.147 572.172C706.358 573.231 706.79 574.234 707.413 575.117C709.934 578.953 715.37 580.509 719.711 580.794C724.687 581.123 734.924 577.177 735.406 577.002C737.056 582.632 738.331 588.366 739.22 594.166C739.921 598.55 740.47 602.934 740.952 607.318C740.075 606.091 736.239 601.356 735.932 601.049C731.789 596.972 721.398 591.535 715.633 594.473C714.689 594.999 713.866 595.719 713.219 596.586C712.572 597.452 712.114 598.445 711.876 599.499C711.638 600.554 711.625 601.647 711.838 602.708C712.051 603.768 712.486 604.771 713.112 605.652C715.633 609.466 721.07 611.045 725.41 611.308C730.145 611.615 739.746 608.042 740.996 607.559C741.215 609.554 741.434 611.549 741.631 613.544C742.311 620.12 742.968 626.696 743.823 633.075C744.108 635.267 744.437 637.459 744.788 639.651C743.363 637.832 740.776 634.653 740.513 634.39C736.37 630.313 725.98 624.877 720.215 627.814C719.273 628.343 718.453 629.065 717.808 629.931C717.162 630.797 716.706 631.789 716.468 632.843C716.231 633.897 716.217 634.989 716.428 636.049C716.639 637.108 717.07 638.111 717.694 638.994C720.215 642.83 725.651 644.386 729.991 644.649C734.332 644.912 742.64 641.997 745.051 641.098C745.665 644.759 746.388 648.354 747.243 651.861C747.66 653.374 747.966 654.952 748.427 656.377L749.742 660.761C750.75 663.655 751.671 666.351 752.657 669.047C753.14 670.318 753.6 671.59 754.082 672.839C752.899 670.779 751.101 667.688 750.904 667.425C747.418 662.756 737.971 655.807 731.811 657.911C730.799 658.291 729.878 658.88 729.108 659.639C728.338 660.398 727.736 661.311 727.341 662.317C726.947 663.324 726.768 664.402 726.816 665.482C726.865 666.562 727.14 667.62 727.624 668.587C729.553 672.752 734.682 675.163 738.913 676.062C743.144 676.96 753.205 675.075 754.806 674.724C756.055 677.947 757.283 681.038 758.488 683.931C759.694 686.825 761.097 690.069 762.325 692.809H751.759V699.758H754.28L758.401 748.488H791.282L795.381 699.758H797.288V692.809H787.95C787.687 689.324 787.446 685.553 787.248 681.52C787.095 678.385 786.985 675.097 786.898 671.699C788.651 671.546 799.568 670.45 804.04 667.885C808.183 665.518 812.808 661.309 813.466 656.333C813.658 655.159 813.601 653.958 813.299 652.807C812.997 651.656 812.457 650.582 811.713 649.654C810.968 648.725 810.037 647.964 808.98 647.419C807.922 646.874 806.762 646.558 805.574 646.491C798.406 646.293 790.756 656.706 788.629 662.734C788.476 663.128 787.358 667.973 786.876 670.384C786.876 668.324 786.876 666.219 786.876 664.093C786.876 661.002 786.876 657.758 786.876 654.623C786.876 652.979 787.029 651.335 787.117 649.669C787.205 648.003 787.424 646.403 787.555 644.737C787.818 642.304 788.169 639.805 788.564 637.306C791.742 637.459 800.949 637.744 805.245 636.1C809.542 634.456 814.912 630.949 816.206 626.104C816.583 624.971 816.717 623.77 816.597 622.581C816.477 621.392 816.107 620.242 815.51 619.206C814.914 618.171 814.105 617.274 813.136 616.573C812.168 615.873 811.063 615.386 809.892 615.144C802.856 613.851 793.715 622.97 790.69 628.625C790.58 628.801 790.032 630.16 789.418 631.738C789.879 629.261 790.361 626.762 790.909 624.285C792.444 617.358 794.219 610.343 795.951 603.329C796.324 601.86 796.674 600.391 797.047 598.944C799.721 599.098 809.629 599.471 814.123 597.739C818.617 596.007 823.79 592.609 825.084 587.743C825.458 586.609 825.588 585.409 825.467 584.222C825.345 583.034 824.974 581.885 824.378 580.851C823.783 579.816 822.975 578.919 822.009 578.218C821.042 577.517 819.939 577.028 818.77 576.783C811.712 575.511 802.571 584.63 799.568 590.286C799.458 590.483 798.844 591.952 798.187 593.64C799.086 589.825 799.918 585.989 800.62 582.175C801.901 575.619 802.744 568.984 803.141 562.315C804.697 562.425 815.855 563.016 820.677 561.153C825.062 559.443 830.323 556.024 831.638 551.157C832.017 550.055 832.163 548.886 832.069 547.724C831.975 546.562 831.641 545.432 831.09 544.405C830.538 543.378 829.78 542.476 828.864 541.755C827.947 541.035 826.891 540.512 825.763 540.219ZM766.906 692.721C765.445 689.565 763.852 686.101 762.127 682.331C760.965 679.722 759.804 676.982 758.62 674.133C762.468 672.231 766.136 669.986 769.58 667.425C773.915 668.884 778.366 669.969 782.886 670.669C782.886 674.461 782.886 678.122 783.04 681.629C783.149 685.619 783.303 689.324 783.478 692.765L766.906 692.721ZM784.223 644.277C784.048 645.986 783.741 647.718 783.675 649.384C783.61 651.05 783.434 652.672 783.303 654.316C783.303 657.692 783.061 660.893 783.04 663.983C783.04 665.474 783.04 666.965 783.04 668.367C782.667 665.781 782.031 661.791 781.922 661.55C780.19 655.39 773.153 644.496 766.073 644.233C764.884 644.221 763.705 644.46 762.614 644.933C761.523 645.407 760.543 646.104 759.739 646.981C758.935 647.857 758.324 648.893 757.946 650.021C757.568 651.148 757.432 652.343 757.546 653.527C757.651 654.842 757.993 656.126 758.554 657.319C757.678 660.092 757.227 662.982 757.217 665.89C757.217 666.285 757.853 670.735 758.225 672.949C757.524 671.217 756.8 669.463 756.033 667.644C755.003 665.057 753.995 662.273 752.986 659.599C752.526 658.196 752.066 656.771 751.583 655.215C751.101 653.659 750.772 652.343 750.356 650.831C749.786 648.639 749.26 646.447 748.777 644.255C751.518 643.334 759.409 640.572 762.5 637.678C765.128 635.401 767.102 632.466 768.221 629.173L769.361 629.765C773.745 631.76 783.412 631.957 786.24 632.067C785.436 636.276 784.764 640.331 784.223 644.233V644.277Z" fill="#263238"/>
<path d="M817.236 524.655C821.072 521.827 825.193 517.136 825.259 512.094C825.316 510.906 825.123 509.718 824.691 508.609C824.26 507.5 823.6 506.495 822.755 505.657C821.909 504.82 820.897 504.17 819.784 503.75C818.67 503.329 817.481 503.147 816.293 503.216C809.147 503.852 802.746 515.076 801.321 521.301C801.19 521.849 800.247 530.486 800.379 530.464C800.51 530.442 812.72 528.053 817.236 524.655Z" fill="#263238"/>
<path d="M723.832 550.127C723.832 550.127 733.455 543.989 736.217 539.693C738.541 536.032 740.601 530.727 738.913 526.431C738.574 525.405 738.022 524.462 737.293 523.663C736.565 522.865 735.676 522.229 734.686 521.796C733.695 521.364 732.625 521.145 731.544 521.155C730.463 521.164 729.396 521.4 728.413 521.849C722.56 524.699 720.807 536.317 721.64 542.06C721.705 542.542 723.722 550.193 723.832 550.127Z" fill="#263238"/>
<path d="M805.264 132.954H383.888C373.947 132.954 365.888 141.012 365.888 150.954V390.651C365.888 400.592 373.947 408.651 383.888 408.651H805.264C815.205 408.651 823.264 400.592 823.264 390.651V150.954C823.264 141.012 815.205 132.954 805.264 132.954Z" fill="white" stroke="#263238" stroke-linecap="round" stroke-linejoin="round"/>
<path d="M823.264 400.189H365.888V408.651H823.264V400.189Z" fill="white" stroke="#263238" stroke-linecap="round" stroke-linejoin="round"/>
<path d="M765.043 366.475C766.155 366.259 767.204 365.794 768.112 365.116C768.88 364.512 769.528 363.769 770.019 362.924C770.843 361.613 771.263 360.088 771.224 358.54C771.267 357.143 770.901 355.764 770.172 354.572C769.425 353.447 768.321 352.605 767.038 352.183C767.826 351.823 768.528 351.3 769.098 350.648C769.994 349.518 770.446 348.099 770.369 346.659C770.409 345.186 769.971 343.74 769.12 342.537C768.262 341.537 767.179 340.754 765.959 340.255C764.74 339.756 763.419 339.554 762.105 339.666H748.953V366.694H761.141C762.446 366.756 763.753 366.682 765.043 366.475ZM754.433 344.554H760.308C761.39 344.519 762.471 344.66 763.508 344.971C763.987 345.177 764.387 345.531 764.651 345.98C764.915 346.43 765.029 346.951 764.977 347.47C765.025 347.929 764.947 348.392 764.749 348.81C764.552 349.227 764.244 349.583 763.859 349.837C762.992 350.328 762.004 350.563 761.009 350.517H754.433V344.554ZM754.433 362.2V354.879H761.009C761.929 354.857 762.845 355.013 763.706 355.339C764.258 355.583 764.722 355.992 765.032 356.51C765.342 357.029 765.484 357.63 765.437 358.233C765.514 358.911 765.384 359.597 765.063 360.2C764.742 360.802 764.246 361.294 763.64 361.609C762.783 361.975 761.853 362.14 760.922 362.091L754.433 362.2Z" fill="#00BE9B"/>
<path d="M775.806 365.05C777.793 366.665 780.282 367.533 782.842 367.505C784.232 367.589 785.623 367.372 786.92 366.869C788.218 366.365 789.392 365.588 790.361 364.589C791.381 363.623 792.065 362.356 792.312 360.972H786.963C786.708 361.504 786.342 361.975 785.889 362.353C785.065 362.995 784.039 363.322 782.996 363.274C781.98 363.304 780.977 363.046 780.102 362.529C779.422 362.061 778.873 361.426 778.509 360.685C778.144 359.945 777.976 359.123 778.02 358.298H792.575C792.63 356.974 792.578 355.647 792.422 354.33C792.192 352.851 791.646 351.438 790.821 350.187C789.97 348.899 788.769 347.879 787.358 347.25C785.881 346.6 784.28 346.278 782.667 346.307C781.347 346.255 780.03 346.473 778.797 346.948C777.565 347.423 776.442 348.145 775.499 349.07C774.535 350.155 773.796 351.422 773.326 352.795C772.856 354.169 772.663 355.622 772.759 357.071C772.622 358.545 772.825 360.031 773.353 361.415C773.882 362.798 774.721 364.042 775.806 365.05ZM779.532 351.766C779.947 351.369 780.44 351.063 780.98 350.866C781.519 350.67 782.094 350.588 782.667 350.626C783.795 350.587 784.897 350.97 785.758 351.7C786.193 352.104 786.542 352.592 786.783 353.134C787.024 353.677 787.153 354.263 787.161 354.857H778.151C778.269 353.701 778.762 352.615 779.554 351.766H779.532Z" fill="#00BE9B"/>
<path d="M788.191 341.354H776.442V344.094H788.191V341.354Z" fill="#00BE9B"/>
<path d="M756.033 208.558H765.437V185.015H772.013L772.715 177.124H765.437V172.74C765.437 170.898 765.81 170.153 767.629 170.153H772.737V161.977H766.161C759.146 161.977 755.989 165.045 755.989 170.964V177.233H751.057V185.213H755.946L756.033 208.558Z" fill="#00BE9B"/>
<path d="M634.154 262.812C637.858 265.197 642.147 266.515 646.551 266.623C650.955 266.73 655.303 265.622 659.119 263.421C662.935 261.22 666.071 258.01 668.183 254.144C670.295 250.278 671.3 245.905 671.09 241.505C672.745 240.307 674.17 238.822 675.299 237.121C673.763 237.813 672.129 238.264 670.455 238.458C672.222 237.41 673.541 235.748 674.159 233.789C672.506 234.769 670.697 235.458 668.811 235.827C667.535 234.473 665.849 233.577 664.014 233.277C662.178 232.977 660.294 233.291 658.655 234.17C657.015 235.048 655.71 236.442 654.943 238.137C654.175 239.831 653.988 241.731 654.409 243.543C651.055 243.382 647.774 242.517 644.775 241.007C641.777 239.497 639.129 237.373 637.004 234.775C635.924 236.635 635.595 238.836 636.084 240.93C636.573 243.024 637.843 244.853 639.634 246.042C638.289 246.006 636.973 245.645 635.798 244.99C635.774 246.959 636.437 248.875 637.673 250.407C638.91 251.94 640.642 252.993 642.572 253.386C641.328 253.727 640.022 253.772 638.757 253.517C639.29 255.2 640.339 256.673 641.756 257.728C643.172 258.782 644.884 259.364 646.649 259.392C644.894 260.757 642.887 261.761 640.743 262.348C638.598 262.935 636.359 263.093 634.154 262.812Z" fill="#00BE9B"/>
<path d="M540.925 175.129H532.924V200.952H540.925V175.129Z" fill="#00BE9B"/>
<path d="M536.892 171.753C537.839 171.761 538.767 171.488 539.558 170.969C540.35 170.449 540.969 169.706 541.338 168.833C541.706 167.961 541.807 166.999 541.628 166.069C541.448 165.139 540.997 164.283 540.33 163.611C539.664 162.938 538.812 162.478 537.884 162.29C536.956 162.102 535.993 162.194 535.117 162.555C534.241 162.915 533.492 163.528 532.965 164.314C532.438 165.101 532.157 166.027 532.157 166.974C532.154 167.599 532.274 168.218 532.511 168.796C532.747 169.374 533.095 169.9 533.534 170.344C533.974 170.788 534.497 171.14 535.073 171.382C535.649 171.624 536.267 171.75 536.892 171.753Z" fill="#00BE9B"/>
<path d="M553.771 187.405C553.771 183.766 555.437 181.618 558.637 181.618C561.837 181.618 563.021 183.678 563.021 187.405V200.952H570.978V184.599C570.978 177.694 567.055 174.34 561.596 174.34C560.03 174.329 558.487 174.728 557.122 175.497C555.757 176.266 554.617 177.379 553.814 178.724V175.129H546.142V200.952H553.771V187.405Z" fill="#00BE9B"/>
<path d="M574.201 334.12C579.856 334.12 580.514 334.12 582.75 334.251C584.097 334.266 585.431 334.511 586.696 334.975C587.607 335.333 588.434 335.877 589.124 336.571C589.815 337.265 590.354 338.095 590.707 339.008C591.171 340.265 591.416 341.592 591.43 342.932C591.54 345.124 591.562 345.848 591.562 351.503C591.562 357.159 591.562 357.816 591.43 360.052C591.416 361.392 591.171 362.719 590.707 363.976C590.351 364.897 589.807 365.734 589.108 366.433C588.41 367.131 587.573 367.676 586.652 368.031C585.387 368.495 584.053 368.74 582.706 368.755C580.514 368.864 579.812 368.886 574.157 368.886C568.501 368.886 567.822 368.886 565.586 368.755C564.246 368.74 562.919 368.496 561.662 368.031C560.744 367.682 559.913 367.136 559.229 366.431C558.519 365.755 557.979 364.922 557.651 363.998C557.176 362.743 556.924 361.415 556.905 360.074C556.905 357.882 556.796 357.159 556.796 351.525C556.796 345.891 556.796 345.19 556.905 342.954C556.924 341.613 557.176 340.285 557.651 339.03C557.979 338.107 558.519 337.273 559.229 336.597C559.913 335.892 560.744 335.346 561.662 334.997C562.919 334.532 564.246 334.288 565.586 334.273C567.778 334.164 568.501 334.142 574.157 334.142M574.157 330.328C568.392 330.328 567.69 330.328 565.389 330.459C563.636 330.497 561.901 330.831 560.259 331.446C558.846 331.982 557.567 332.819 556.511 333.901C555.424 334.953 554.586 336.233 554.056 337.649C553.45 339.294 553.116 341.026 553.069 342.779C553.069 344.971 553.069 345.76 553.069 351.547C553.069 357.334 553.069 358.014 553.069 360.315C553.116 362.067 553.45 363.8 554.056 365.445C554.586 366.861 555.424 368.141 556.511 369.193C557.567 370.274 558.846 371.112 560.259 371.648C561.901 372.263 563.636 372.596 565.389 372.635C567.581 372.744 568.37 372.766 574.157 372.766C579.944 372.766 580.624 372.766 582.925 372.635C584.685 372.596 586.427 372.262 588.077 371.648C589.487 371.107 590.765 370.27 591.825 369.193C592.905 368.14 593.736 366.86 594.258 365.445C594.875 363.803 595.208 362.069 595.245 360.315C595.354 358.123 595.376 357.334 595.376 351.547C595.376 345.76 595.376 344.971 595.245 342.779C595.208 341.025 594.875 339.291 594.258 337.649C593.736 336.234 592.905 334.953 591.825 333.901C590.765 332.824 589.487 331.987 588.077 331.446C586.427 330.831 584.685 330.498 582.925 330.459C580.733 330.459 579.944 330.328 574.157 330.328Z" fill="#00BE9B"/>
<path d="M574.201 340.608C572.033 340.608 569.914 341.251 568.112 342.456C566.309 343.66 564.904 345.372 564.075 347.374C563.245 349.377 563.028 351.581 563.451 353.707C563.874 355.833 564.918 357.786 566.451 359.319C567.983 360.852 569.936 361.896 572.063 362.319C574.189 362.741 576.392 362.524 578.395 361.695C580.398 360.865 582.11 359.46 583.314 357.658C584.518 355.856 585.161 353.737 585.161 351.569C585.161 348.662 584.006 345.874 581.951 343.819C579.895 341.763 577.108 340.608 574.201 340.608ZM574.201 358.561C572.799 358.566 571.427 358.154 570.259 357.377C569.091 356.601 568.18 355.495 567.642 354.201C567.103 352.906 566.961 351.481 567.234 350.105C567.506 348.73 568.181 347.466 569.172 346.475C570.164 345.483 571.427 344.808 572.803 344.536C574.178 344.263 575.604 344.405 576.899 344.944C578.193 345.482 579.299 346.393 580.075 347.561C580.852 348.729 581.264 350.101 581.259 351.503C581.259 353.375 580.516 355.17 579.192 356.494C577.868 357.818 576.073 358.561 574.201 358.561Z" fill="#00BE9B"/>
<path d="M588.033 340.192C588.033 340.696 587.883 341.188 587.603 341.607C587.322 342.025 586.924 342.351 586.458 342.543C585.992 342.735 585.48 342.784 584.986 342.684C584.492 342.584 584.039 342.34 583.684 341.982C583.329 341.624 583.089 341.169 582.993 340.674C582.898 340.18 582.951 339.668 583.147 339.203C583.343 338.739 583.672 338.344 584.093 338.067C584.514 337.79 585.008 337.645 585.512 337.649C585.845 337.649 586.174 337.715 586.482 337.843C586.789 337.971 587.068 338.159 587.302 338.395C587.537 338.632 587.722 338.912 587.847 339.22C587.973 339.529 588.036 339.859 588.033 340.192Z" fill="#00BE9B"/>
<path d="M704.41 250.646H735.45" stroke="#263238" stroke-linecap="round" stroke-linejoin="round"/>
<path d="M704.41 257.046H735.45" stroke="#263238" stroke-linecap="round" stroke-linejoin="round"/>
<path d="M704.41 263.425H735.45" stroke="#263238" stroke-linecap="round" stroke-linejoin="round"/>
<path d="M704.41 269.804H735.45" stroke="#263238" stroke-linecap="round" stroke-linejoin="round"/>
<path d="M604.956 175.83H698.952" stroke="#263238" stroke-linecap="round" stroke-linejoin="round"/>
<path d="M594.916 309.043L621.834 282.124" stroke="#263238" stroke-linecap="round" stroke-linejoin="round"/>
<path d="M765.547 232.408V300.844" stroke="#263238" stroke-linecap="round" stroke-linejoin="round"/>
<path d="M627.775 342.8H658.793" stroke="#263238" stroke-linecap="round" stroke-linejoin="round"/>
<path d="M627.775 349.201H658.793" stroke="#263238" stroke-linecap="round" stroke-linejoin="round"/>
<path d="M627.775 355.581H658.793" stroke="#263238" stroke-linecap="round" stroke-linejoin="round"/>
<path d="M627.775 361.981H658.793" stroke="#263238" stroke-linecap="round" stroke-linejoin="round"/>
<path d="M537.44 234.228H568.458" stroke="#263238" stroke-linecap="round" stroke-linejoin="round"/>
<path d="M537.44 240.606H568.458" stroke="#263238" stroke-linecap="round" stroke-linejoin="round"/>
<path d="M537.44 247.007H568.458" stroke="#263238" stroke-linecap="round" stroke-linejoin="round"/>
<path d="M537.44 253.386H568.458" stroke="#263238" stroke-linecap="round" stroke-linejoin="round"/>
<path d="M683.432 187.689H714.45" stroke="#263238" stroke-linecap="round" stroke-linejoin="round"/>
<path d="M683.432 194.09H714.45" stroke="#263238" stroke-linecap="round" stroke-linejoin="round"/>
<path d="M683.432 200.469H714.45" stroke="#263238" stroke-linecap="round" stroke-linejoin="round"/>
<path d="M683.432 206.848H714.45" stroke="#263238" stroke-linecap="round" stroke-linejoin="round"/>
<path d="M690.731 354.682H721.749" stroke="#263238" stroke-linecap="round" stroke-linejoin="round"/>
<path d="M690.731 361.06H721.749" stroke="#263238" stroke-linecap="round" stroke-linejoin="round"/>
<path d="M690.731 367.439H721.749" stroke="#263238" stroke-linecap="round" stroke-linejoin="round"/>
<path d="M690.731 373.84H721.749" stroke="#263238" stroke-linecap="round" stroke-linejoin="round"/>
<path d="M701.67 299.003L675.211 300.844V329.122L704.41 327.303L701.67 299.003Z" fill="#00BE9B"/>
<path d="M680.538 308.933L697.571 307.705" stroke="#263238" stroke-linecap="round" stroke-linejoin="round"/>
<path d="M679.924 316.233L698.184 315.619" stroke="#263238" stroke-linecap="round" stroke-linejoin="round"/>
<path d="M598.182 204.656L571.724 206.475V234.753L600.922 232.933L598.182 204.656Z" fill="#00BE9B"/>
<path d="M577.029 214.565L594.083 213.337" stroke="#263238" stroke-linecap="round" stroke-linejoin="round"/>
<path d="M576.415 221.864L594.675 221.25" stroke="#263238" stroke-linecap="round" stroke-linejoin="round"/>
<path d="M552.521 286.223L526.063 288.043V316.342L555.261 314.523L552.521 286.223Z" fill="#00BE9B"/>
<path d="M531.368 296.131L548.422 294.926" stroke="#263238" stroke-linecap="round" stroke-linejoin="round"/>
<path d="M530.754 303.453L549.014 302.839" stroke="#263238" stroke-linecap="round" stroke-linejoin="round"/>
<path d="M515.65 348.829C515.65 348.829 520.627 357.948 520.627 361.982C520.627 366.015 497.434 416.257 497.018 417.967C496.601 419.677 499.495 428.752 497.851 435.372C496.207 441.992 489.981 449.138 489.981 449.138L482.112 415.183C484.648 412.454 486.408 409.096 487.21 405.458C488.012 401.819 487.826 398.032 486.671 394.49C482.528 382.477 482.528 356.808 482.528 356.808L515.65 348.829Z" fill="#FFE3CA" stroke="#263238" stroke-linecap="round" stroke-linejoin="round"/>
<path d="M475.492 726.37C475.492 726.37 473.431 747.392 475.075 748.641C476.719 749.891 485.181 749.693 491.012 748.641C498.969 747.194 503.309 748.992 509.118 748.992C514.927 748.992 527.334 750.57 528.649 747.918C531.192 742.832 516.067 737.966 507.781 733.012C499.495 728.058 491.647 723.893 491.647 723.893L475.492 726.37Z" fill="white" stroke="#263238" stroke-linecap="round" stroke-linejoin="round"/>
<path d="M412.557 410.93C412.557 410.93 405.104 450.694 404.688 458.125C404.271 465.556 383.578 717.689 383.578 717.689L402.627 719.333L450.239 480.397L453.549 479.586L475.47 726.282L493.269 722.972L494.102 451.001L488.71 410.031L412.557 410.93Z" fill="#263238" stroke="#263238" stroke-linecap="round" stroke-linejoin="round"/>
<path d="M431.606 284.25C431.606 284.25 398.484 277.214 390.615 275.153C382.745 273.092 380.597 291.703 378.207 297.885C375.818 304.066 352.122 347.163 353.766 350.495C355.41 353.827 361.635 362.507 374.064 353.805C386.493 345.102 393.925 330.612 393.925 330.612C393.925 330.612 410.497 377.413 411.33 382.784C412.163 388.154 409.138 410.535 411.33 415.073C413.522 419.611 434.083 422.526 451.072 422.11C468.061 421.693 486.671 421.299 489.148 415.073C491.625 408.848 488.732 362.924 488.732 362.924C488.732 362.924 514.401 358.364 518.544 352.161C522.687 345.957 513.59 337.254 505.392 321.099C497.193 304.943 495.045 285.5 488.819 281.773C482.594 278.047 442.041 285.083 438.402 285.083C436.11 285.1 433.826 284.82 431.606 284.25Z" fill="#00BE9B" stroke="#263238" stroke-linecap="round" stroke-linejoin="round"/>
<path d="M437.81 295.43L443.619 310.336L435.749 401L454.799 433.29L465.978 396.024L449.406 309.087L458.525 291.287L446.096 285.917L436.582 293.37L437.81 295.43Z" fill="#263238" stroke="#263238" stroke-linecap="round" stroke-linejoin="round"/>
<path d="M422.487 281.773L421.26 308.276L448.989 294.597L473.431 309.087L460.169 281.357C453.941 277.957 446.986 276.107 439.892 275.964C433.587 275.786 427.421 277.843 422.487 281.773Z" fill="#00BE9B" stroke="#263238" stroke-linecap="round" stroke-linejoin="round"/>
<path d="M428.296 252.794C429.359 259.778 429.777 266.844 429.546 273.904C429.129 285.5 430.773 283.023 436.122 291.704C441.471 300.384 445.219 303.716 449.779 298.74C454.338 293.764 454.338 283.396 455.171 281.357C456.004 279.319 456.815 255.271 456.815 255.271C456.815 255.271 451.072 259.414 428.296 252.794Z" fill="#FFE3CA" stroke="#263238" stroke-linecap="round" stroke-linejoin="round"/>
<path d="M458.043 203.955C461.501 214.643 463.298 225.799 463.37 237.033C463.37 255.184 463.37 261.146 457.319 264.434C451.269 267.722 441.975 267.985 436.341 264.434C430.62 260.961 425.361 256.777 420.69 251.983C416.766 247.709 406.091 234.556 404.666 225.678C403.241 216.8 420.339 205.402 434.566 199.702C438.462 198.017 442.77 197.522 446.947 198.278C451.125 199.035 454.985 201.01 458.043 203.955Z" fill="#FFE3CA" stroke="#263238" stroke-linecap="round" stroke-linejoin="round"/>
<path d="M439.783 227.52C440.177 229.58 439.607 231.422 438.511 231.641C437.415 231.86 436.319 230.348 435.815 228.265C435.311 226.183 435.991 224.363 437.087 224.144C438.183 223.925 439.322 225.547 439.783 227.52Z" fill="#263238"/>
<path d="M452.738 222.302C453.317 221.461 454.155 220.831 455.123 220.507C456.092 220.183 457.139 220.182 458.109 220.505" stroke="#263238" stroke-linecap="round" stroke-linejoin="round"/>
<path d="M452.738 246.942L458.569 242.908" stroke="#263238" stroke-linecap="round" stroke-linejoin="round"/>
<path d="M430.335 222.303C430.335 222.303 432.132 216.033 440.199 218.269" stroke="#263238" stroke-linecap="round" stroke-linejoin="round"/>
<path d="M447.806 217.37C447.806 217.37 448.266 212.876 454.535 212.876" stroke="#263238" stroke-linecap="round" stroke-linejoin="round"/>
<path d="M449.384 221.732C449.384 221.732 456.508 233.131 456.158 234.885C455.807 236.639 448.683 241.636 448.683 241.636" stroke="#263238" stroke-linecap="round" stroke-linejoin="round"/>
<path d="M415.341 242.733C416.372 242.408 417.256 241.732 417.841 240.823C418.426 239.914 418.674 238.829 418.542 237.757C418.542 233.482 416.35 231.005 416.35 224.955C416.35 218.905 435.201 209.282 444.846 210.356C454.492 211.43 463.348 211.43 468.696 206.081C474.045 200.732 475.097 194.704 472.971 195.121C470.406 195.866 467.906 196.819 465.496 197.97C466.34 194.255 466.396 190.404 465.66 186.666C464.923 182.928 463.411 179.386 461.221 176.269C453.746 165.594 451.971 172.718 453.045 174.493C454.119 176.269 457.297 184.445 457.297 184.445C457.297 184.445 445.57 175.567 438.095 176.269C430.62 176.97 406.792 187.646 401.093 195.844C395.393 204.042 395.043 216.822 396.467 223.947C397.892 231.071 402.167 231.772 402.167 231.772L411.768 243.872L415.341 242.733Z" fill="#263238" stroke="#263238" stroke-linecap="round" stroke-linejoin="round"/>
<path d="M402.518 223.749C402.518 223.749 403.855 212.548 414.157 208.953C424.46 205.358 433.886 205.38 446.863 205.38C459.84 205.38 453.133 192.841 448.2 191.942" stroke="#787878" stroke-linecap="round" stroke-linejoin="round"/>
<path d="M401.597 208.514C401.597 208.514 403.789 199.11 423.101 198.211" stroke="#787878" stroke-linecap="round" stroke-linejoin="round"/>
<path d="M420.69 246.284C420.69 246.284 416.065 235.324 408.59 238.458C401.115 241.593 409.291 256.609 417.117 256.258C424.942 255.907 426.017 251.282 426.017 251.282" fill="#FFE3CA"/>
<path d="M420.69 246.284C420.69 246.284 416.065 235.324 408.59 238.458C401.115 241.593 409.291 256.609 417.117 256.258C424.942 255.907 426.017 251.282 426.017 251.282" stroke="#263238" stroke-linecap="round" stroke-linejoin="round"/>
<path d="M421.83 298.893C421.83 298.893 421.83 276.863 424.153 272.588C426.477 268.314 433.82 264.85 438.073 262.527C442.326 260.203 444.255 262.527 442.326 266.012C440.342 268.99 438.001 271.714 435.355 274.123C435.355 274.123 455.851 264.456 457.78 267.174C459.709 269.892 460.103 273.355 457.78 275.285C455.716 276.658 453.78 278.213 451.993 279.932C450.831 281.466 453.154 293.084 450.831 296.942C448.507 300.8 438.073 305.053 432.659 308.538C427.244 312.024 388.576 354.572 378.142 359.57C367.707 364.568 361.504 367.702 356.089 360.732C350.675 353.761 351.837 346.812 358.808 338.307C365.778 329.801 421.83 298.893 421.83 298.893Z" fill="#FFE3CA" stroke="#263238" stroke-linecap="round" stroke-linejoin="round"/>
<path d="M383.578 717.689C383.578 717.689 377.374 729.701 373.231 733.823C369.088 737.944 360.583 746.208 361.416 748.268C362.249 750.329 401.224 748.268 401.224 748.268C401.224 748.268 404.49 749.715 403.416 740.048C402.934 735.51 402.583 719.333 402.583 719.333L383.578 717.689Z" fill="white" stroke="#263238" stroke-linecap="round" stroke-linejoin="round"/>
<path d="M488.732 362.924C488.732 362.924 489.148 316.123 486.671 310.314L488.732 362.924Z" fill="white"/>
<path d="M488.732 362.924C488.732 362.924 489.148 316.123 486.671 310.314" stroke="#263238" stroke-linecap="round" stroke-linejoin="round"/>
<path d="M157.137 737.286C157.137 735.279 156.542 733.316 155.426 731.647C154.311 729.978 152.726 728.677 150.871 727.909C149.017 727.141 146.976 726.94 145.007 727.332C143.039 727.723 141.23 728.69 139.811 730.109C138.391 731.529 137.425 733.337 137.033 735.306C136.642 737.275 136.843 739.315 137.611 741.17C138.379 743.025 139.68 744.61 141.349 745.725C143.018 746.84 144.98 747.435 146.987 747.435C149.679 747.435 152.261 746.366 154.164 744.463C156.067 742.559 157.137 739.978 157.137 737.286Z" fill="#263238" stroke="#263238" stroke-linecap="round" stroke-linejoin="round"/>
<path d="M146.988 742.371C149.796 742.371 152.073 740.095 152.073 737.286C152.073 734.477 149.796 732.2 146.988 732.2C144.179 732.2 141.902 734.477 141.902 737.286C141.902 740.095 144.179 742.371 146.988 742.371Z" fill="white" stroke="#263238" stroke-linecap="round" stroke-linejoin="round"/>
<path d="M265.886 737.286C265.886 735.279 265.29 733.316 264.175 731.647C263.06 729.978 261.475 728.677 259.62 727.909C257.766 727.141 255.725 726.94 253.756 727.332C251.788 727.723 249.979 728.69 248.56 730.109C247.14 731.529 246.174 733.337 245.782 735.306C245.39 737.275 245.591 739.315 246.36 741.17C247.128 743.025 248.429 744.61 250.098 745.725C251.767 746.84 253.729 747.435 255.736 747.435C258.428 747.435 261.01 746.366 262.913 744.463C264.816 742.559 265.886 739.978 265.886 737.286Z" fill="#263238" stroke="#263238" stroke-linecap="round" stroke-linejoin="round"/>
<path d="M260.822 737.286C260.826 736.279 260.532 735.294 259.975 734.454C259.419 733.615 258.627 732.96 257.698 732.572C256.769 732.183 255.746 732.08 254.758 732.273C253.77 732.467 252.861 732.95 252.148 733.66C251.435 734.37 250.948 735.277 250.75 736.264C250.552 737.251 250.651 738.274 251.036 739.205C251.42 740.135 252.072 740.931 252.909 741.491C253.745 742.051 254.729 742.349 255.736 742.349C257.081 742.349 258.371 741.817 259.325 740.868C260.278 739.919 260.816 738.631 260.822 737.286Z" fill="white" stroke="#263238" stroke-linecap="round" stroke-linejoin="round"/>
<path d="M291.27 747.435C296.875 747.435 301.419 742.891 301.419 737.286C301.419 731.681 296.875 727.137 291.27 727.137C285.665 727.137 281.12 731.681 281.12 737.286C281.12 742.891 285.665 747.435 291.27 747.435Z" fill="#263238" stroke="#263238" stroke-linecap="round" stroke-linejoin="round"/>
<path d="M291.27 742.371C294.078 742.371 296.355 740.095 296.355 737.286C296.355 734.477 294.078 732.2 291.27 732.2C288.461 732.2 286.184 734.477 286.184 737.286C286.184 740.095 288.461 742.371 291.27 742.371Z" fill="white" stroke="#263238" stroke-linecap="round" stroke-linejoin="round"/>
<path d="M218.603 577.725H239.91V725.58H218.427V577.813L218.603 577.725Z" fill="#263238" stroke="#263238" stroke-linecap="round" stroke-linejoin="round"/>
<path d="M245.697 648.025H212.794V725.668H245.697V648.025Z" fill="#263238" stroke="#263238" stroke-linecap="round" stroke-linejoin="round"/>
<path d="M179.715 500.169H207.423V559.245H179.803V500.169H179.715Z" fill="#263238" stroke="#263238" stroke-linecap="round" stroke-linejoin="round"/>
<path d="M247.889 500.191H140.477C137.963 500.189 135.475 499.685 133.158 498.708C130.842 497.73 128.744 496.3 126.988 494.501C125.232 492.702 123.853 490.571 122.932 488.232C122.011 485.892 121.567 483.393 121.625 480.879L124.124 375.923C124.239 371.005 126.273 366.328 129.792 362.89C133.311 359.453 138.035 357.53 142.954 357.531H231.733C236.237 357.527 240.593 359.136 244.011 362.068C247.43 365 249.684 369.06 250.366 373.511L266.609 478.49C267.025 481.183 266.851 483.934 266.099 486.553C265.348 489.173 264.037 491.598 262.257 493.661C260.477 495.724 258.271 497.377 255.79 498.504C253.309 499.632 250.614 500.207 247.889 500.191Z" fill="#00BE9B" stroke="#263238" stroke-linecap="round" stroke-linejoin="round"/>
<path d="M212.772 581.562L165.598 612.623" stroke="#263238" stroke-linecap="round" stroke-linejoin="round"/>
<path d="M163.823 607.932L155.778 613.346C155.131 613.785 154.59 614.361 154.193 615.034C153.796 615.706 153.553 616.459 153.482 617.236C153.411 618.014 153.513 618.798 153.781 619.532C154.049 620.265 154.476 620.93 155.032 621.479L155.602 622.005C156.526 622.915 157.755 623.451 159.051 623.507C160.346 623.564 161.617 623.138 162.617 622.312L170.004 616.218C170.559 615.765 171.013 615.201 171.338 614.563C171.664 613.925 171.853 613.226 171.894 612.511C171.935 611.796 171.827 611.08 171.578 610.409C171.328 609.738 170.941 609.126 170.443 608.611C169.593 607.741 168.465 607.197 167.256 607.073C166.046 606.948 164.831 607.253 163.823 607.932Z" fill="#263238" stroke="#263238" stroke-linecap="round" stroke-linejoin="round"/>
<path d="M317.421 553.196H141.113C132.19 553.196 124.957 560.429 124.957 569.351V570.798C124.957 579.721 132.19 586.954 141.113 586.954H317.421C326.344 586.954 333.577 579.721 333.577 570.798V569.351C333.577 560.429 326.344 553.196 317.421 553.196Z" fill="#00BE9B" stroke="#263238" stroke-linecap="round" stroke-linejoin="round"/>
<path d="M333.445 568.014C332.836 563.829 330.716 560.011 327.486 557.281C324.255 554.551 320.137 553.098 315.909 553.196H225.376C221.149 553.103 217.033 554.558 213.804 557.287C210.574 560.016 208.453 563.831 207.839 568.014C207.551 570.384 207.769 572.789 208.479 575.069C209.188 577.349 210.374 579.453 211.957 581.241C213.54 583.029 215.484 584.461 217.661 585.442C219.838 586.423 222.199 586.93 224.587 586.932H316.654C319.046 586.937 321.411 586.433 323.594 585.455C325.776 584.477 327.726 583.046 329.313 581.257C330.901 579.469 332.091 577.363 332.803 575.08C333.515 572.797 333.734 570.388 333.445 568.014Z" fill="#00BE9B" stroke="#263238" stroke-linecap="round" stroke-linejoin="round"/>
<path d="M145.541 722.599H295.939C298.264 722.599 300.495 723.522 302.139 725.167C303.783 726.811 304.707 729.041 304.707 731.367V731.805H136.794V731.367C136.794 729.045 137.715 726.818 139.355 725.175C140.994 723.531 143.219 722.604 145.541 722.599Z" fill="#263238" stroke="#263238" stroke-linecap="round" stroke-linejoin="round"/>
<path d="M220.137 722.599H266.017C268.343 722.599 270.573 723.522 272.217 725.167C273.862 726.811 274.785 729.041 274.785 731.367V731.805H220.137V722.621V722.599Z" fill="#263238" stroke="#263238" stroke-linecap="round" stroke-linejoin="round"/>
<path d="M355.848 479.521H216.695V485.132H355.848V479.521Z" fill="white" stroke="#263238" stroke-linecap="round" stroke-linejoin="round"/>
<path d="M395.086 479.521H255.934V485.132H395.086V479.521Z" fill="white" stroke="#263238" stroke-linecap="round" stroke-linejoin="round"/>
<path d="M379.588 380.942H263.54V469.524H379.588V380.942Z" fill="white" stroke="#263238" stroke-linecap="round" stroke-linejoin="round"/>
<path d="M384.389 380.942H268.341V469.524H384.389V380.942Z" fill="#263238" stroke="#263238" stroke-linecap="round" stroke-linejoin="round"/>
<path d="M348.834 428.357H318.89V485.132H348.834V428.357Z" fill="white" stroke="#263238" stroke-linecap="round" stroke-linejoin="round"/>
<path d="M162.091 480.572C162.894 480.573 163.664 480.258 164.238 479.697C164.812 479.136 165.143 478.372 165.16 477.569L165.861 445.302L181.206 405.472L217.791 419.72C218.529 419.916 219.314 419.832 219.993 419.484C220.673 419.136 221.199 418.548 221.471 417.835C221.744 417.122 221.742 416.333 221.468 415.621C221.193 414.908 220.664 414.323 219.984 413.977L180.526 398.633C179.767 398.326 178.918 398.326 178.159 398.633C177.788 398.795 177.453 399.029 177.174 399.323C176.896 399.617 176.679 399.963 176.537 400.343L159.965 443.548C159.834 443.876 159.767 444.226 159.767 444.579L159.066 477.46C159.057 477.863 159.128 478.264 159.274 478.639C159.42 479.015 159.639 479.358 159.918 479.649C160.197 479.94 160.53 480.174 160.899 480.336C161.269 480.498 161.666 480.586 162.069 480.594L162.091 480.572Z" fill="#263238"/>
<path d="M141.968 483.334H182.236V471.695H141.968V483.334Z" fill="#263238" stroke="#263238" stroke-linecap="round" stroke-linejoin="round"/>
<path d="M172.196 401.482C172.196 400.064 172.617 398.678 173.404 397.5C174.192 396.321 175.312 395.402 176.621 394.86C177.931 394.317 179.372 394.175 180.763 394.452C182.153 394.728 183.431 395.411 184.433 396.413C185.435 397.416 186.118 398.693 186.395 400.084C186.671 401.474 186.529 402.915 185.987 404.225C185.444 405.535 184.526 406.654 183.347 407.442C182.168 408.23 180.782 408.65 179.364 408.65C177.463 408.65 175.64 407.895 174.296 406.551C172.952 405.206 172.196 403.383 172.196 401.482Z" fill="#263238"/>
<path d="M155.909 446.376C155.909 444.958 156.33 443.572 157.117 442.394C157.905 441.215 159.024 440.296 160.334 439.754C161.644 439.211 163.085 439.069 164.476 439.346C165.866 439.622 167.143 440.305 168.146 441.308C169.148 442.31 169.831 443.587 170.108 444.978C170.384 446.368 170.242 447.809 169.7 449.119C169.157 450.429 168.238 451.548 167.06 452.336C165.881 453.124 164.495 453.544 163.077 453.544C162.135 453.547 161.202 453.364 160.331 453.004C159.46 452.645 158.668 452.117 158.002 451.451C157.336 450.785 156.808 449.994 156.449 449.123C156.09 448.252 155.906 447.318 155.909 446.376Z" fill="#263238"/>
<path d="M221.167 410.185L248.174 408.497L231.295 445.586L214.81 424.104L221.167 410.185Z" fill="#263238"/>
<path d="M120.661 517.421L126.667 744.608C126.707 746.052 127.309 747.424 128.345 748.431C129.38 749.438 130.768 750.001 132.213 750C133.675 750.001 135.078 749.426 136.119 748.401C137.161 747.376 137.758 745.982 137.781 744.52L140.74 517.421H120.661Z" fill="white" stroke="#263238" stroke-linecap="round" stroke-linejoin="round"/>
<path d="M194.051 517.421L200.058 744.608C200.098 746.052 200.699 747.424 201.735 748.431C202.771 749.438 204.159 750.001 205.604 750C207.065 750.001 208.468 749.426 209.51 748.401C210.552 747.376 211.148 745.982 211.171 744.52L214.131 517.421H194.051Z" fill="white" stroke="#263238" stroke-linecap="round" stroke-linejoin="round"/>
<path d="M496.777 517.421L502.805 744.608C502.845 746.052 503.447 747.424 504.483 748.431C505.518 749.438 506.906 750.001 508.351 750C509.81 750.001 511.211 749.425 512.249 748.399C513.288 747.374 513.879 745.98 513.897 744.52L516.878 517.421H496.777Z" fill="white" stroke="#263238" stroke-linecap="round" stroke-linejoin="round"/>
<path d="M570.189 517.421L576.217 744.608C576.257 746.052 576.859 747.424 577.895 748.431C578.931 749.438 580.319 750.001 581.763 750C583.223 750.001 584.624 749.425 585.662 748.399C586.7 747.374 587.292 745.98 587.309 744.52L590.291 517.421H570.189Z" fill="white" stroke="#263238" stroke-linecap="round" stroke-linejoin="round"/>
<path d="M596.998 492.607H113.515V519.789H596.998V492.607Z" fill="white" stroke="#263238" stroke-linecap="round" stroke-linejoin="round"/>
<path d="M214.679 492.607H113.515V519.789H214.679V492.607Z" fill="white" stroke="#263238" stroke-linecap="round" stroke-linejoin="round"/>
<path d="M596.998 492.607H113.515V506.198H596.998V492.607Z" fill="#263238" stroke="#263238" stroke-linecap="round" stroke-linejoin="round"/>
<path d="M602.61 483.247H107.903V498.218H602.61V483.247Z" fill="white" stroke="#263238" stroke-linecap="round" stroke-linejoin="round"/>
<path d="M602.588 483.247H221.386V498.218H602.588V483.247Z" fill="white" stroke="#263238" stroke-linecap="round" stroke-linejoin="round"/>
<path d="M2.9025 749.627H884.116" stroke="#263238" stroke-linecap="round" stroke-linejoin="round"/>
</svg>
