<svg width="50" height="50" viewBox="0 0 50 50" fill="none" xmlns="http://www.w3.org/2000/svg">
<path d="M16.6665 37.4998H33.3332M16.6665 37.4998C16.6665 42.1022 20.3975 45.8332 24.9998 45.8332C29.6022 45.8332 33.3332 42.1022 33.3332 37.4998M16.6665 37.4998V32.893C16.6665 31.531 15.9719 30.2838 14.9822 29.348C12.1707 26.6896 10.4165 22.9246 10.4165 18.7498C10.4165 10.6957 16.9457 4.1665 24.9998 4.1665C33.054 4.1665 39.5832 10.6957 39.5832 18.7498C39.5832 22.9246 37.829 26.6896 35.0175 29.348C34.0278 30.2838 33.3332 31.531 33.3332 32.893V37.4998M20.8332 18.7498L24.9998 22.9165M24.9998 22.9165L29.1665 18.7498M24.9998 22.9165V37.4998" stroke="#33535F" stroke-width="2" stroke-linecap="round" stroke-linejoin="round"/>
</svg>
