<svg width="46" height="46" viewBox="0 0 46 46" fill="none" xmlns="http://www.w3.org/2000/svg">
<path d="M33.5 18.8V6.2C33.5 3.8804 31.6196 2 29.3 2H16.7C14.3804 2 12.5 3.8804 12.5 6.2V18.8M41.9 20.9L44 18.8M41.9 37.7L44 39.8M4.1 20.9L2 18.8M4.1 37.7L2 39.8M23 35.6V23L20.9 24.05M20.9 35.6H25.1M37.7 29.3C37.7 37.4186 31.1186 44 23 44C14.8814 44 8.3 37.4186 8.3 29.3C8.3 21.1814 14.8814 14.6 23 14.6C31.1186 14.6 37.7 21.1814 37.7 29.3Z" stroke="#00BE9B" stroke-width="3" stroke-linecap="round"/>
</svg>
