<svg width="36" height="44" viewBox="0 0 36 44" fill="none" xmlns="http://www.w3.org/2000/svg">
<path d="M27.3335 11.5832V10.5832H25.3335V11.5832H27.3335ZM10.6668 11.5832V10.5832H8.66683V11.5832H10.6668ZM18.0002 1.1665L18.3513 0.230175C18.1249 0.14528 17.8754 0.14528 17.649 0.230175L18.0002 1.1665ZM1.3335 7.4165L0.982373 6.48018C0.592069 6.62654 0.333496 6.99966 0.333496 7.4165C0.333496 7.83335 0.592069 8.20647 0.982373 8.35283L1.3335 7.4165ZM18.0002 13.6665L17.649 14.6028C17.8754 14.6877 18.1249 14.6877 18.3513 14.6028L18.0002 13.6665ZM34.6668 7.4165L35.018 8.35283C35.4083 8.20647 35.6668 7.83335 35.6668 7.4165C35.6668 6.99966 35.4083 6.62654 35.018 6.48018L34.6668 7.4165ZM19.4815 32.4287L18.7704 31.7256H18.7704L19.4815 32.4287ZM22.7909 29.0823L23.5019 29.7855H23.5019L22.7909 29.0823ZM24.746 28.5501L25.0281 27.5907L24.746 28.5501ZM13.2094 29.0823L13.9205 28.3791L13.2094 29.0823ZM16.5189 32.4287L17.2299 31.7256L16.5189 32.4287ZM11.2543 28.5501L10.9722 27.5907H10.9722L11.2543 28.5501ZM33.6668 42.8332C33.6668 43.3855 34.1145 43.8332 34.6668 43.8332C35.2191 43.8332 35.6668 43.3855 35.6668 42.8332H33.6668ZM0.333496 42.8332C0.333496 43.3855 0.781211 43.8332 1.3335 43.8332C1.88578 43.8332 2.3335 43.3855 2.3335 42.8332H0.333496ZM25.3335 11.5832V15.7498H27.3335V11.5832H25.3335ZM10.6668 15.7498V11.5832H8.66683V15.7498H10.6668ZM18.0002 23.0832C13.9501 23.0832 10.6668 19.7999 10.6668 15.7498H8.66683C8.66683 20.9045 12.8455 25.0832 18.0002 25.0832V23.0832ZM25.3335 15.7498C25.3335 19.7999 22.0502 23.0832 18.0002 23.0832V25.0832C23.1548 25.0832 27.3335 20.9045 27.3335 15.7498H25.3335ZM17.649 0.230175L0.982373 6.48018L1.68462 8.35283L18.3513 2.10283L17.649 0.230175ZM18.3513 14.6028L35.018 8.35283L34.3157 6.48018L17.649 12.7302L18.3513 14.6028ZM17.649 2.10283L34.3157 8.35283L35.018 6.48018L18.3513 0.230175L17.649 2.10283ZM18.3513 12.7302L1.68462 6.48018L0.982373 8.35283L17.649 14.6028L18.3513 12.7302ZM20.1925 33.1319L23.5019 29.7855L22.0799 28.3791L18.7704 31.7256L20.1925 33.1319ZM24.4639 29.5095C30.1317 31.1762 33.6668 34.8098 33.6668 38.6665H35.6668C35.6668 33.4935 31.0484 29.3611 25.0281 27.5907L24.4639 29.5095ZM12.4984 29.7855L15.8078 33.1319L17.2299 31.7256L13.9205 28.3791L12.4984 29.7855ZM2.3335 38.6665C2.3335 34.8098 5.86865 31.1762 11.5364 29.5095L10.9722 27.5907C4.95193 29.3611 0.333496 33.4935 0.333496 38.6665H2.3335ZM33.6668 38.6665V42.8332H35.6668V38.6665H33.6668ZM0.333496 38.6665V42.8332H2.3335V38.6665H0.333496ZM13.9205 28.3791C13.1718 27.6221 12.0509 27.2735 10.9722 27.5907L11.5364 29.5095C11.8528 29.4165 12.2246 29.5086 12.4984 29.7855L13.9205 28.3791ZM23.5019 29.7855C23.7758 29.5086 24.1475 29.4165 24.4639 29.5095L25.0281 27.5907C23.9495 27.2735 22.8285 27.6221 22.0799 28.3791L23.5019 29.7855ZM18.7704 31.7256C18.3464 32.1543 17.6539 32.1543 17.2299 31.7256L15.8078 33.1319C17.0147 34.3522 18.9857 34.3522 20.1925 33.1319L18.7704 31.7256Z" fill="#273E47"/>
</svg>
