<svg width="46" height="46" viewBox="0 0 46 46" fill="none" xmlns="http://www.w3.org/2000/svg">
<path d="M4.16915 18.8L41.8308 18.8C43.9731 18.8 44.8143 15.962 43.0319 14.7482L25.402 2.74288C23.9475 1.75237 22.0525 1.75237 20.598 2.74288L2.96813 14.7482C1.1857 15.962 2.02693 18.8 4.16915 18.8Z" stroke="#00BE9B" stroke-width="3"/>
<path d="M6.2 18.8H16.7V35.6H6.2V18.8Z" stroke="#00BE9B" stroke-width="3"/>
<path d="M29.3 18.8H39.8V35.6H29.3V18.8Z" stroke="#00BE9B" stroke-width="3"/>
<path d="M38.5021 35.6C39.2975 35.6 40.0247 36.0494 40.3804 36.7608L42.4804 40.9609C43.1786 42.3571 42.1632 44 40.6021 44H5.39787C3.83677 44 2.82143 42.3571 3.51957 40.9608L5.61957 36.7608C5.9753 36.0494 6.70245 35.6 7.49787 35.6L38.5021 35.6Z" stroke="#00BE9B" stroke-width="3"/>
</svg>
