<svg width="1332" height="666" viewBox="0 0 1332 666" fill="none" xmlns="http://www.w3.org/2000/svg">
<path d="M230.956 648.326C106.626 648.326 5.24189 558.09 0.196836 445.032C0.0660035 447.963 0 450.91 0 453.871C0 571.028 103.402 666.003 230.956 666.003C358.509 666.003 461.911 571.028 461.911 453.871C461.911 450.91 461.845 447.963 461.715 445.032C456.669 558.09 355.285 648.326 230.956 648.326Z" fill="#FF8E21" fill-opacity="0.1"/>
<path d="M230.956 612.97C106.626 612.97 5.24189 522.735 0.196836 409.676C0.0660035 412.608 0 415.555 0 418.515C0 535.673 103.402 630.648 230.956 630.648C358.509 630.648 461.911 535.673 461.911 418.515C461.911 415.554 461.845 412.608 461.715 409.676C456.669 522.735 355.285 612.97 230.956 612.97Z" fill="#FF8E21" fill-opacity="0.1"/>
<path d="M0.196836 374.321C5.24189 487.38 106.626 577.615 230.956 577.615C355.285 577.615 456.669 487.379 461.715 374.321C461.845 377.252 461.911 380.199 461.911 383.16C461.911 500.318 358.509 595.293 230.956 595.293C103.402 595.293 0 500.318 0 383.16C0 380.199 0.0660035 377.252 0.196836 374.321Z" fill="#FF8E21" fill-opacity="0.1"/>
<path d="M230.956 542.259C106.626 542.259 5.24189 452.024 0.196836 338.966C0.0660035 341.897 0 344.844 0 347.804C0 464.962 103.402 559.937 230.956 559.937C358.509 559.937 461.911 464.962 461.911 347.804C461.911 344.844 461.845 341.897 461.715 338.965C456.669 452.024 355.285 542.259 230.956 542.259Z" fill="#FF8E21" fill-opacity="0.1"/>
<path d="M0.196836 303.61C5.24189 416.669 106.626 506.904 230.956 506.904C355.285 506.904 456.669 416.668 461.715 303.61C461.845 306.541 461.911 309.488 461.911 312.449C461.911 429.607 358.509 524.582 230.956 524.582C103.402 524.582 0 429.607 0 312.449C0 309.488 0.0660035 306.542 0.196836 303.61Z" fill="#FF8E21" fill-opacity="0.1"/>
<path d="M230.956 471.549C106.626 471.549 5.24189 381.313 0.196836 268.255C0.0660035 271.186 0 274.133 0 277.094C0 394.251 103.402 489.226 230.956 489.226C358.509 489.226 461.911 394.251 461.911 277.094C461.911 274.133 461.845 271.186 461.715 268.254C456.669 381.313 355.285 471.549 230.956 471.549Z" fill="#FF8E21" fill-opacity="0.1"/>
<path d="M0.196836 232.899C5.24189 345.958 106.626 436.193 230.956 436.193C355.285 436.193 456.669 345.957 461.715 232.899C461.845 235.83 461.911 238.777 461.911 241.738C461.911 358.896 358.509 453.871 230.956 453.871C103.402 453.871 0 358.896 0 241.738C0 238.777 0.0660035 235.831 0.196836 232.899Z" fill="#FF8E21" fill-opacity="0.1"/>
<path d="M230.956 400.838C106.626 400.838 5.24189 310.602 0.196836 197.544C0.0660035 200.475 0 203.422 0 206.383C0 323.54 103.402 418.515 230.956 418.515C358.509 418.515 461.911 323.54 461.911 206.383C461.911 203.422 461.845 200.475 461.715 197.544C456.669 310.602 355.285 400.838 230.956 400.838Z" fill="#FF8E21" fill-opacity="0.1"/>
<path d="M0.196836 162.188C5.24189 275.247 106.626 365.482 230.956 365.482C355.285 365.482 456.669 275.246 461.715 162.188C461.845 165.12 461.911 168.066 461.911 171.027C461.911 288.185 358.509 383.16 230.956 383.16C103.402 383.16 0 288.185 0 171.027C0 168.066 0.0660035 165.12 0.196836 162.188Z" fill="#FF8E21" fill-opacity="0.1"/>
<path d="M230.956 330.127C106.626 330.127 5.24189 239.892 0.196836 126.833C0.0660035 129.764 0 132.711 0 135.672C0 252.829 103.402 347.804 230.956 347.804C358.509 347.804 461.911 252.829 461.911 135.672C461.911 132.711 461.845 129.764 461.715 126.833C456.669 239.891 355.285 330.127 230.956 330.127Z" fill="#FF8E21" fill-opacity="0.1"/>
<path d="M0.196836 91.4775C5.24189 204.536 106.626 294.771 230.956 294.771C355.285 294.771 456.669 204.536 461.715 91.4772C461.845 94.4087 461.911 97.3555 461.911 100.316C461.911 217.474 358.509 312.449 230.956 312.449C103.402 312.449 0 217.474 0 100.316C0 97.3556 0.0660035 94.4089 0.196836 91.4775Z" fill="#FF8E21" fill-opacity="0.1"/>
<path d="M230.956 259.416C106.626 259.416 5.24189 169.181 0.196836 56.1221C0.0660035 59.0535 0 62.0002 0 64.9609C0 182.119 103.402 277.094 230.956 277.094C358.509 277.094 461.911 182.119 461.911 64.9609C461.911 62 461.845 59.0532 461.715 56.1218C456.669 169.18 355.285 259.416 230.956 259.416Z" fill="#FF8E21" fill-opacity="0.1"/>
<path d="M1100.99 648.326C976.665 648.326 875.281 558.091 870.236 445.032C870.105 447.963 870.039 450.91 870.039 453.871C870.039 571.028 973.441 666.003 1100.99 666.003C1228.55 666.003 1331.95 571.028 1331.95 453.871C1331.95 450.91 1331.88 447.963 1331.75 445.032C1326.71 558.09 1225.32 648.326 1100.99 648.326Z" fill="#FF8E21" fill-opacity="0.1"/>
<path d="M1100.99 612.97C976.665 612.97 875.281 522.735 870.236 409.677C870.105 412.608 870.039 415.555 870.039 418.515C870.039 535.673 973.441 630.648 1100.99 630.648C1228.55 630.648 1331.95 535.673 1331.95 418.515C1331.95 415.554 1331.88 412.608 1331.75 409.676C1326.71 522.735 1225.32 612.97 1100.99 612.97Z" fill="#FF8E21" fill-opacity="0.1"/>
<path d="M870.236 374.321C875.281 487.38 976.665 577.615 1100.99 577.615C1225.32 577.615 1326.71 487.379 1331.75 374.321C1331.88 377.252 1331.95 380.199 1331.95 383.16C1331.95 500.318 1228.55 595.293 1100.99 595.293C973.441 595.293 870.039 500.318 870.039 383.16C870.039 380.199 870.105 377.252 870.236 374.321Z" fill="#FF8E21" fill-opacity="0.1"/>
<path d="M1100.99 542.259C976.665 542.259 875.281 452.024 870.236 338.966C870.105 341.897 870.039 344.844 870.039 347.805C870.039 464.962 973.441 559.937 1100.99 559.937C1228.55 559.937 1331.95 464.962 1331.95 347.805C1331.95 344.844 1331.88 341.897 1331.75 338.965C1326.71 452.024 1225.32 542.259 1100.99 542.259Z" fill="#FF8E21" fill-opacity="0.1"/>
<path d="M870.236 303.61C875.281 416.669 976.665 506.904 1100.99 506.904C1225.32 506.904 1326.71 416.668 1331.75 303.61C1331.88 306.541 1331.95 309.488 1331.95 312.449C1331.95 429.607 1228.55 524.582 1100.99 524.582C973.441 524.582 870.039 429.607 870.039 312.449C870.039 309.488 870.105 306.542 870.236 303.61Z" fill="#FF8E21" fill-opacity="0.1"/>
<path d="M1100.99 471.549C976.665 471.549 875.281 381.313 870.236 268.255C870.105 271.186 870.039 274.133 870.039 277.094C870.039 394.251 973.441 489.226 1100.99 489.226C1228.55 489.226 1331.95 394.251 1331.95 277.094C1331.95 274.133 1331.88 271.186 1331.75 268.254C1326.71 381.313 1225.32 471.549 1100.99 471.549Z" fill="#FF8E21" fill-opacity="0.1"/>
<path d="M870.236 232.899C875.281 345.958 976.665 436.193 1100.99 436.193C1225.32 436.193 1326.71 345.957 1331.75 232.899C1331.88 235.83 1331.95 238.777 1331.95 241.738C1331.95 358.896 1228.55 453.871 1100.99 453.871C973.441 453.871 870.039 358.896 870.039 241.738C870.039 238.777 870.105 235.831 870.236 232.899Z" fill="#FF8E21" fill-opacity="0.1"/>
<path d="M1100.99 400.838C976.665 400.838 875.281 310.602 870.236 197.544C870.105 200.475 870.039 203.422 870.039 206.383C870.039 323.54 973.441 418.515 1100.99 418.515C1228.55 418.515 1331.95 323.54 1331.95 206.383C1331.95 203.422 1331.88 200.475 1331.75 197.544C1326.71 310.602 1225.32 400.838 1100.99 400.838Z" fill="#FF8E21" fill-opacity="0.1"/>
<path d="M870.236 162.188C875.281 275.247 976.665 365.482 1100.99 365.482C1225.32 365.482 1326.71 275.247 1331.75 162.188C1331.88 165.12 1331.95 168.066 1331.95 171.027C1331.95 288.185 1228.55 383.16 1100.99 383.16C973.441 383.16 870.039 288.185 870.039 171.027C870.039 168.067 870.105 165.12 870.236 162.188Z" fill="#FF8E21" fill-opacity="0.1"/>
<path d="M1100.99 330.127C976.665 330.127 875.281 239.892 870.236 126.833C870.105 129.764 870.039 132.711 870.039 135.672C870.039 252.83 973.441 347.805 1100.99 347.805C1228.55 347.805 1331.95 252.83 1331.95 135.672C1331.95 132.711 1331.88 129.764 1331.75 126.833C1326.71 239.891 1225.32 330.127 1100.99 330.127Z" fill="#FF8E21" fill-opacity="0.1"/>
<path d="M870.236 91.4776C875.281 204.536 976.665 294.771 1100.99 294.771C1225.32 294.771 1326.71 204.536 1331.75 91.4773C1331.88 94.4088 1331.95 97.3555 1331.95 100.316C1331.95 217.474 1228.55 312.449 1100.99 312.449C973.441 312.449 870.039 217.474 870.039 100.316C870.039 97.3557 870.105 94.4089 870.236 91.4776Z" fill="#FF8E21" fill-opacity="0.1"/>
<path d="M1100.99 259.416C976.665 259.416 875.281 169.181 870.236 56.1222C870.105 59.0535 870.039 62.0002 870.039 64.961C870.039 182.119 973.441 277.094 1100.99 277.094C1228.55 277.094 1331.95 182.119 1331.95 64.961C1331.95 62.0001 1331.88 59.0533 1331.75 56.1218C1326.71 169.18 1225.32 259.416 1100.99 259.416Z" fill="#FF8E21" fill-opacity="0.1"/>
<path d="M673.604 17.9377C549.274 17.9377 447.89 109.5 442.845 224.221C442.714 221.247 442.648 218.257 442.648 215.252C442.648 96.3718 546.051 0 673.604 0C801.158 0 904.56 96.3718 904.56 215.252C904.56 218.257 904.494 221.247 904.363 224.222C899.318 109.5 797.934 17.9377 673.604 17.9377Z" fill="url(#paint0_linear_4147_2341)" fill-opacity="0.5"/>
<path d="M673.604 53.8131C549.274 53.8131 447.89 145.375 442.845 260.097C442.714 257.122 442.648 254.132 442.648 251.128C442.648 132.247 546.051 35.8754 673.604 35.8754C801.158 35.8754 904.56 132.247 904.56 251.128C904.56 254.132 904.494 257.122 904.363 260.097C899.318 145.376 797.934 53.8131 673.604 53.8131Z" fill="url(#paint1_linear_4147_2341)" fill-opacity="0.5"/>
<path d="M442.845 295.972C447.89 181.251 549.274 89.6885 673.604 89.6885C797.934 89.6885 899.318 181.251 904.363 295.972C904.494 292.998 904.56 290.008 904.56 287.003C904.56 168.123 801.158 71.7508 673.604 71.7508C546.051 71.7508 442.648 168.123 442.648 287.003C442.648 290.008 442.714 292.997 442.845 295.972Z" fill="url(#paint2_linear_4147_2341)" fill-opacity="0.5"/>
<path d="M673.604 125.564C549.274 125.564 447.89 217.126 442.845 331.847C442.714 328.873 442.648 325.883 442.648 322.879C442.648 203.998 546.051 107.626 673.604 107.626C801.158 107.626 904.56 203.998 904.56 322.879C904.56 325.883 904.494 328.873 904.363 331.848C899.318 217.127 797.934 125.564 673.604 125.564Z" fill="url(#paint3_linear_4147_2341)" fill-opacity="0.5"/>
<path d="M442.845 367.723C447.89 253.001 549.274 161.439 673.604 161.439C797.934 161.439 899.318 253.002 904.363 367.723C904.494 364.749 904.56 361.758 904.56 358.754C904.56 239.873 801.158 143.502 673.604 143.502C546.051 143.502 442.648 239.873 442.648 358.754C442.648 361.758 442.714 364.748 442.845 367.723Z" fill="url(#paint4_linear_4147_2341)" fill-opacity="0.5"/>
<path d="M673.604 197.315C549.274 197.315 447.89 288.877 442.845 403.598C442.714 400.624 442.648 397.634 442.648 394.629C442.648 275.749 546.051 179.377 673.604 179.377C801.158 179.377 904.56 275.749 904.56 394.629C904.56 397.634 904.494 400.624 904.363 403.598C899.318 288.877 797.934 197.315 673.604 197.315Z" fill="url(#paint5_linear_4147_2341)" fill-opacity="0.5"/>
<path d="M442.845 439.474C447.89 324.752 549.274 233.19 673.604 233.19C797.934 233.19 899.318 324.753 904.363 439.474C904.494 436.499 904.56 433.509 904.56 430.505C904.56 311.624 801.158 215.252 673.604 215.252C546.051 215.252 442.648 311.624 442.648 430.505C442.648 433.509 442.714 436.499 442.845 439.474Z" fill="url(#paint6_linear_4147_2341)" fill-opacity="0.5"/>
<path d="M673.604 269.065C549.274 269.065 447.89 360.628 442.845 475.349C442.714 472.374 442.648 469.384 442.648 466.38C442.648 347.499 546.051 251.128 673.604 251.128C801.158 251.128 904.56 347.499 904.56 466.38C904.56 469.385 904.494 472.375 904.363 475.349C899.318 360.628 797.934 269.065 673.604 269.065Z" fill="url(#paint7_linear_4147_2341)" fill-opacity="0.5"/>
<path d="M442.845 511.224C447.89 396.503 549.274 304.941 673.604 304.941C797.934 304.941 899.318 396.504 904.363 511.225C904.494 508.25 904.56 505.26 904.56 502.255C904.56 383.375 801.158 287.003 673.604 287.003C546.051 287.003 442.648 383.375 442.648 502.255C442.648 505.26 442.714 508.25 442.845 511.224Z" fill="url(#paint8_linear_4147_2341)" fill-opacity="0.5"/>
<path d="M673.604 340.816C549.274 340.816 447.89 432.378 442.845 547.1C442.714 544.125 442.648 541.135 442.648 538.131C442.648 419.25 546.051 322.879 673.604 322.879C801.158 322.879 904.56 419.25 904.56 538.131C904.56 541.135 904.494 544.125 904.363 547.1C899.318 432.379 797.934 340.816 673.604 340.816Z" fill="url(#paint9_linear_4147_2341)" fill-opacity="0.5"/>
<path d="M442.845 582.975C447.89 468.254 549.274 376.692 673.604 376.692C797.934 376.692 899.318 468.254 904.363 582.975C904.494 580.001 904.56 577.011 904.56 574.006C904.56 455.126 801.158 358.754 673.604 358.754C546.051 358.754 442.648 455.126 442.648 574.006C442.648 577.011 442.714 580.001 442.845 582.975Z" fill="url(#paint10_linear_4147_2341)" fill-opacity="0.5"/>
<path d="M673.604 412.567C549.274 412.567 447.89 504.129 442.845 618.85C442.714 615.876 442.648 612.886 442.648 609.882C442.648 491.001 546.051 394.629 673.604 394.629C801.158 394.629 904.56 491.001 904.56 609.882C904.56 612.886 904.494 615.876 904.363 618.851C899.318 504.13 797.934 412.567 673.604 412.567Z" fill="url(#paint11_linear_4147_2341)" fill-opacity="0.5"/>
<defs>
<linearGradient id="paint0_linear_4147_2341" x1="442.648" y1="309.425" x2="904.56" y2="309.425" gradientUnits="userSpaceOnUse">
<stop stop-color="#FCF0E1"/>
<stop offset="0.512772" stop-color="white"/>
<stop offset="1" stop-color="#2F2F2F"/>
</linearGradient>
<linearGradient id="paint1_linear_4147_2341" x1="442.648" y1="309.425" x2="904.56" y2="309.425" gradientUnits="userSpaceOnUse">
<stop stop-color="#FCF0E1"/>
<stop offset="0.512772" stop-color="white"/>
<stop offset="1" stop-color="#2F2F2F"/>
</linearGradient>
<linearGradient id="paint2_linear_4147_2341" x1="442.648" y1="309.425" x2="904.56" y2="309.425" gradientUnits="userSpaceOnUse">
<stop stop-color="#FCF0E1"/>
<stop offset="0.512772" stop-color="white"/>
<stop offset="1" stop-color="#2F2F2F"/>
</linearGradient>
<linearGradient id="paint3_linear_4147_2341" x1="442.648" y1="309.425" x2="904.56" y2="309.425" gradientUnits="userSpaceOnUse">
<stop stop-color="#FCF0E1"/>
<stop offset="0.512772" stop-color="white"/>
<stop offset="1" stop-color="#2F2F2F"/>
</linearGradient>
<linearGradient id="paint4_linear_4147_2341" x1="442.648" y1="309.425" x2="904.56" y2="309.425" gradientUnits="userSpaceOnUse">
<stop stop-color="#FCF0E1"/>
<stop offset="0.512772" stop-color="white"/>
<stop offset="1" stop-color="#2F2F2F"/>
</linearGradient>
<linearGradient id="paint5_linear_4147_2341" x1="442.648" y1="309.425" x2="904.56" y2="309.425" gradientUnits="userSpaceOnUse">
<stop stop-color="#FCF0E1"/>
<stop offset="0.512772" stop-color="white"/>
<stop offset="1" stop-color="#2F2F2F"/>
</linearGradient>
<linearGradient id="paint6_linear_4147_2341" x1="442.648" y1="309.425" x2="904.56" y2="309.425" gradientUnits="userSpaceOnUse">
<stop stop-color="#FCF0E1"/>
<stop offset="0.512772" stop-color="white"/>
<stop offset="1" stop-color="#2F2F2F"/>
</linearGradient>
<linearGradient id="paint7_linear_4147_2341" x1="442.648" y1="309.425" x2="904.56" y2="309.425" gradientUnits="userSpaceOnUse">
<stop stop-color="#FCF0E1"/>
<stop offset="0.512772" stop-color="white"/>
<stop offset="1" stop-color="#2F2F2F"/>
</linearGradient>
<linearGradient id="paint8_linear_4147_2341" x1="442.648" y1="309.425" x2="904.56" y2="309.425" gradientUnits="userSpaceOnUse">
<stop stop-color="#FCF0E1"/>
<stop offset="0.512772" stop-color="white"/>
<stop offset="1" stop-color="#2F2F2F"/>
</linearGradient>
<linearGradient id="paint9_linear_4147_2341" x1="442.648" y1="309.425" x2="904.56" y2="309.425" gradientUnits="userSpaceOnUse">
<stop stop-color="#FCF0E1"/>
<stop offset="0.512772" stop-color="white"/>
<stop offset="1" stop-color="#2F2F2F"/>
</linearGradient>
<linearGradient id="paint10_linear_4147_2341" x1="442.648" y1="309.425" x2="904.56" y2="309.425" gradientUnits="userSpaceOnUse">
<stop stop-color="#FCF0E1"/>
<stop offset="0.512772" stop-color="white"/>
<stop offset="1" stop-color="#2F2F2F"/>
</linearGradient>
<linearGradient id="paint11_linear_4147_2341" x1="442.648" y1="309.425" x2="904.56" y2="309.425" gradientUnits="userSpaceOnUse">
<stop stop-color="#FCF0E1"/>
<stop offset="0.512772" stop-color="white"/>
<stop offset="1" stop-color="#2F2F2F"/>
</linearGradient>
</defs>
</svg>
