<svg width="103" height="102" viewBox="0 0 103 102" fill="none" xmlns="http://www.w3.org/2000/svg">
<path d="M7.45703 28.3555H10.5118" stroke="#668EFF" stroke-width="2" stroke-linecap="round" stroke-linejoin="round"/>
<path d="M5.72461 29.8721V32.6939" stroke="#668EFF" stroke-width="2" stroke-linecap="round" stroke-linejoin="round"/>
<path d="M4.07395 28.3047H1" stroke="#668EFF" stroke-width="2" stroke-linecap="round" stroke-linejoin="round"/>
<path d="M5.78906 26.77V23.9658" stroke="#668EFF" stroke-width="2" stroke-linecap="round" stroke-linejoin="round"/>
<path d="M98.4023 60.7529H101.457" stroke="#668EFF" stroke-width="2" stroke-linecap="round" stroke-linejoin="round"/>
<path d="M96.6816 62.2725V65.0766" stroke="#668EFF" stroke-width="2" stroke-linecap="round" stroke-linejoin="round"/>
<path d="M95.0251 60.6855H91.9512" stroke="#668EFF" stroke-width="2" stroke-linecap="round" stroke-linejoin="round"/>
<path d="M96.7363 59.1655V56.3438" stroke="#668EFF" stroke-width="2" stroke-linecap="round" stroke-linejoin="round"/>
<path d="M97.1016 12.959H100.156" stroke="#668EFF" stroke-width="2" stroke-linecap="round" stroke-linejoin="round"/>
<path d="M95.3691 14.4756V17.2974" stroke="#668EFF" stroke-width="2" stroke-linecap="round" stroke-linejoin="round"/>
<path d="M93.7185 12.9092H90.6445" stroke="#668EFF" stroke-width="2" stroke-linecap="round" stroke-linejoin="round"/>
<path d="M95.4277 11.3715V8.56738" stroke="#668EFF" stroke-width="2" stroke-linecap="round" stroke-linejoin="round"/>
<path d="M19.998 71.2832H23.072" stroke="#668EFF" stroke-width="2" stroke-linecap="round" stroke-linejoin="round"/>
<path d="M18.291 72.7998V75.6216" stroke="#668EFF" stroke-width="2" stroke-linecap="round" stroke-linejoin="round"/>
<path d="M16.6211 71.2305H13.5664" stroke="#668EFF" stroke-width="2" stroke-linecap="round" stroke-linejoin="round"/>
<path d="M18.3496 69.6958V66.8916" stroke="#668EFF" stroke-width="2" stroke-linecap="round" stroke-linejoin="round"/>
<path d="M10.4199 11.3916H14.6274" stroke="#668EFF" stroke-width="2" stroke-linecap="round" stroke-linejoin="round"/>
<path d="M8.05078 13.4893V17.3516" stroke="#668EFF" stroke-width="2" stroke-linecap="round" stroke-linejoin="round"/>
<path d="M5.76801 11.3037H1.56055" stroke="#668EFF" stroke-width="2" stroke-linecap="round" stroke-linejoin="round"/>
<path d="M8.12891 9.20412V5.3418" stroke="#668EFF" stroke-width="2" stroke-linecap="round" stroke-linejoin="round"/>
<path d="M92.4883 73.2744H96.715" stroke="#668EFF" stroke-width="2" stroke-linecap="round" stroke-linejoin="round"/>
<path d="M90.125 75.374V79.2363" stroke="#668EFF" stroke-width="2" stroke-linecap="round" stroke-linejoin="round"/>
<path d="M87.8344 73.207H83.627" stroke="#668EFF" stroke-width="2" stroke-linecap="round" stroke-linejoin="round"/>
<path d="M90.2031 71.1045V67.2422" stroke="#668EFF" stroke-width="2" stroke-linecap="round" stroke-linejoin="round"/>
<path d="M51.9132 76.9081H41.8845C41.1074 76.9058 40.3384 76.763 39.6214 76.4879C38.9045 76.2127 38.2536 75.8107 37.7059 75.3046C37.1582 74.7986 36.7244 74.1985 36.4294 73.5386C36.1344 72.8786 35.9838 72.1718 35.9863 71.4585V69.2187C35.9735 68.1057 35.6508 67.0143 35.0489 66.0481C34.447 65.0819 33.5858 64.2731 32.5473 63.6986C25.8143 59.8961 20.591 54.2076 17.648 47.4724C14.7051 40.7372 14.1984 33.3121 16.2027 26.2924C18.2071 19.2728 22.6162 13.0304 28.7797 8.48624C34.9432 3.94212 42.5346 1.3369 50.4339 1.05498C50.9266 1.02855 51.4205 1.02855 51.9132 1.05498V76.8904V76.9081Z" fill="white"/>
<path d="M50.438 1.05593C49.9001 1.05593 49.3622 1.05593 48.8242 1.17938V76.909H51.9174V1.07357C51.4251 1.04126 50.9311 1.03537 50.438 1.05593Z" fill="white"/>
<path d="M44.017 71.4763V69.2188C44.0042 68.1059 43.6815 67.0144 43.0796 66.0482C42.4777 65.082 41.6165 64.2732 40.578 63.6987C34.3317 60.1658 29.3757 55.0024 26.3441 48.8692C23.3126 42.736 22.3434 35.912 23.5607 29.2704C24.7779 22.6287 28.1261 16.4715 33.1769 11.5865C38.2277 6.70154 44.7514 3.31099 51.9132 1.84872V1.01982C51.4205 0.993393 50.9266 0.993393 50.4339 1.01982C42.5346 1.30175 34.9432 3.90696 28.7797 8.45109C22.6162 12.9952 18.2071 19.2376 16.2027 26.2573C14.1984 33.2769 14.7051 40.7021 17.648 47.4372C20.591 54.1724 25.8143 59.8609 32.5473 63.6634C33.5858 64.2379 34.447 65.0467 35.0489 66.0129C35.6508 66.9791 35.9735 68.0706 35.9863 69.1836V71.4763C35.9838 72.1896 36.1344 72.8964 36.4294 73.5563C36.7244 74.2162 37.1582 74.8164 37.7059 75.3224C38.2536 75.8284 38.9045 76.2305 39.6214 76.5056C40.3384 76.7807 41.1074 76.9235 41.8845 76.9258H49.7615C48.2189 76.8845 46.755 76.2915 45.6819 75.2735C44.6088 74.2555 44.0113 72.8929 44.017 71.4763Z" fill="white"/>
<path d="M66.3198 79.0606V80.4891C66.3173 80.7671 66.2552 81.0418 66.137 81.2977C66.0188 81.5536 65.8468 81.7856 65.631 81.9805C65.4151 82.1754 65.1595 82.3293 64.8789 82.4335C64.5982 82.5377 64.2979 82.5902 63.9951 82.5878H41.9972C41.3924 82.5832 40.8138 82.3606 40.3861 81.9681C39.9584 81.5755 39.716 81.0443 39.7109 80.4891V79.0606C39.7148 78.5231 39.9413 78.0071 40.3445 77.6174C40.7477 77.2276 41.2974 76.9933 41.8819 76.9619H64.1104C64.7017 76.9845 65.2609 77.2151 65.6722 77.6057C66.0835 77.9964 66.3154 78.5173 66.3198 79.0606Z" fill="white"/>
<path d="M64.1155 76.9268H41.8871C41.2959 76.9584 40.7407 77.1977 40.3365 77.595C39.9323 77.9923 39.7101 78.5172 39.7161 79.0607V80.4893C39.7092 80.5656 39.7092 80.6422 39.7161 80.7185C39.875 80.3616 40.1387 80.0523 40.478 79.8249C40.8172 79.5976 41.2186 79.4613 41.6373 79.4311H63.9618C64.509 79.4575 65.0279 79.662 65.4257 80.0078C65.8236 80.3536 66.0742 80.8181 66.1328 81.3182C66.2533 81.0555 66.3185 80.7742 66.3249 80.4893V79.0607C66.3304 78.5114 66.103 77.9815 65.6907 77.5833C65.2784 77.1851 64.7135 76.9496 64.1155 76.9268ZM66.3249 84.6514V86.1152C66.3199 86.6781 66.0727 87.2164 65.6373 87.6128C65.2019 88.0091 64.6135 88.2316 64.0003 88.2315H42.0023C41.3942 88.2269 40.8127 88.0019 40.3845 87.6055C39.9563 87.2091 39.7161 86.6734 39.7161 86.1152V84.6867C39.7211 84.1315 39.9636 83.6003 40.3913 83.2077C40.8189 82.8152 41.3975 82.5926 42.0023 82.588H64.0003C64.6052 82.5832 65.1879 82.7968 65.6228 83.1828C66.0577 83.5688 66.3098 84.0963 66.3249 84.6514Z" fill="white"/>
<path d="M63.9951 82.588H41.9972C41.3924 82.5926 40.8138 82.8152 40.3861 83.2078C39.9584 83.6003 39.716 84.1315 39.7109 84.6867V86.1152C39.7114 86.3516 39.7637 86.5855 39.8646 86.803C40.0188 86.395 40.3063 86.0406 40.6879 85.7881C41.0696 85.5356 41.5268 85.3973 41.9972 85.3921H63.9951C64.4714 85.3926 64.9359 85.5285 65.3246 85.7812C65.7134 86.0338 66.0073 86.3908 66.1661 86.803C66.2577 86.5829 66.3096 86.3506 66.3198 86.1152V84.6867C66.3173 84.4087 66.2552 84.134 66.137 83.8781C66.0188 83.6222 65.8468 83.3902 65.631 83.1953C65.4151 83.0004 65.1595 82.8465 64.8789 82.7423C64.5982 82.6381 64.2979 82.5856 63.9951 82.588Z" fill="white"/>
<path d="M53.2916 37.6714C52.2129 37.7565 51.1452 37.9336 50.1023 38.2004V37.7243C50.2176 35.4316 49.9871 31.7985 47.5279 30.3347C45.8556 29.6511 43.9723 29.5379 42.2171 30.0156C40.462 30.4933 38.9503 31.5305 37.9541 32.9404C36.958 34.3504 36.5429 36.0404 36.7835 37.7063C37.0241 39.3722 37.9047 40.9046 39.2667 42.0275C40.0723 42.4881 41.0076 42.7211 41.9564 42.6977C44.1519 42.5593 46.2826 41.9557 48.1811 40.934V76.9118C48.1811 77.1457 48.2823 77.37 48.4625 77.5353C48.6426 77.7007 48.887 77.7936 49.1417 77.7936C49.3965 77.7936 49.6408 77.7007 49.821 77.5353C50.0011 77.37 50.1023 77.1457 50.1023 76.9118V40.0522C51.1912 39.7207 52.3204 39.5134 53.4645 39.435C53.59 39.4262 53.7124 39.3943 53.8243 39.3414C53.9362 39.2884 54.0354 39.2153 54.116 39.1265C54.1966 39.0377 54.257 38.935 54.2936 38.8244C54.3302 38.7138 54.3422 38.5976 54.329 38.4826C54.3247 38.3649 54.2937 38.2494 54.2379 38.1434C54.1822 38.0373 54.103 37.9431 54.0054 37.8668C53.9077 37.7904 53.7938 37.7336 53.6709 37.7C53.548 37.6663 53.4188 37.6566 53.2916 37.6714ZM40.3041 40.546C39.3196 39.696 38.6918 38.5554 38.5305 37.3236C38.3691 36.0917 38.6845 34.847 39.4215 33.807C40.1585 32.767 41.2703 31.9978 42.5624 31.6339C43.8545 31.27 45.2449 31.3345 46.4904 31.8161C47.1055 32.4014 47.5764 33.101 47.8714 33.8678C48.1664 34.6345 48.2786 35.4505 48.2003 36.2605V37.495C48.2003 38.0417 48.2003 38.5532 48.0851 38.9588C46.3175 39.9288 42.2253 41.71 40.3041 40.546Z" fill="white"/>
<path d="M66.3257 90.2953V91.7238C66.3231 92.0017 66.261 92.2765 66.1428 92.5324C66.0246 92.7883 65.8527 93.0203 65.6368 93.2152C65.421 93.41 65.1654 93.564 64.8847 93.6682C64.604 93.7724 64.3037 93.8248 64.001 93.8225H42.003C41.3982 93.8179 40.8196 93.5953 40.392 93.2027C39.9643 92.8101 39.7218 92.279 39.7168 91.7238V90.2953C39.7168 89.7387 39.9577 89.2049 40.3864 88.8113C40.8152 88.4177 41.3967 88.1966 42.003 88.1966H64.001C64.3044 88.1919 64.6059 88.2427 64.8877 88.3461C65.1695 88.4495 65.4261 88.6033 65.6425 88.7987C65.8589 88.994 66.0307 89.227 66.148 89.4839C66.2653 89.7409 66.3257 90.0167 66.3257 90.2953Z" fill="white"/>
<path d="M64.001 88.1966H42.003C41.3967 88.1966 40.8152 88.4177 40.3864 88.8113C39.9577 89.2049 39.7168 89.7387 39.7168 90.2953V91.7238C39.7275 91.8929 39.7664 92.0594 39.8321 92.2176C39.9413 91.7634 40.2158 91.3569 40.6105 91.0652C41.0052 90.7734 41.4963 90.6138 42.003 90.6127H64.001C64.5134 90.609 65.0118 90.7661 65.4136 91.058C65.8154 91.3499 66.0965 91.759 66.2104 92.2176C66.2671 92.0571 66.3057 91.8916 66.3257 91.7238V90.2953C66.3257 90.0167 66.2653 89.7409 66.148 89.4839C66.0307 89.227 65.8589 88.994 65.6425 88.7987C65.4261 88.6033 65.1695 88.4495 64.8877 88.3461C64.6059 88.2427 64.3044 88.1919 64.001 88.1966Z" fill="white"/>
<path d="M63.2462 93.8223V96.697C63.2462 97.8382 62.7523 98.9328 61.8731 99.7398C60.994 100.547 59.8017 101 58.5584 101H47.4345C46.8215 100.998 46.2149 100.885 45.6494 100.667C45.084 100.45 44.5707 100.132 44.139 99.7325C43.7073 99.3329 43.3655 98.8592 43.1332 98.3383C42.9009 97.8175 42.7827 97.2598 42.7852 96.697V93.8223H63.2462Z" fill="white"/>
<path d="M42.7852 93.8223V96.5206H63.0924V97.7728C63.1932 97.4457 63.2449 97.1075 63.2461 96.7675V93.8223H42.7852Z" fill="white"/>
<path d="M88.1769 44.2987C87.7804 45.3827 87.1239 46.3711 86.2557 47.191C84.3622 48.7864 82.5724 50.4824 80.8955 52.2703C79.3969 54.3161 78.7629 57.1202 77.3988 59.3247C76.9133 60.1374 76.2609 60.8561 75.4776 61.4411C74.7545 61.9567 73.9338 62.3454 73.0569 62.5874C72.4421 62.9754 71.8081 63.3634 71.1357 63.7161C70.0972 64.2906 69.236 65.0994 68.6341 66.0656C68.0322 67.0318 67.7095 68.1233 67.6967 69.2362V71.476C67.6992 72.1894 67.5487 72.8962 67.2536 73.5561C66.9586 74.216 66.5248 74.8161 65.9771 75.3222C65.4294 75.8282 64.7785 76.2303 64.0616 76.5054C63.3446 76.7805 62.5756 76.9233 61.7986 76.9256H51.9043V1.09013C52.397 1.06371 52.8909 1.06371 53.3836 1.09013H54.5172C57.8985 1.63685 60.7419 4.45864 63.8543 5.39336C66.3903 6.15171 69.4258 5.92244 72.0194 6.45152C73.0082 6.60473 73.9508 6.94724 74.786 7.45679C75.9173 8.22621 76.8273 9.23712 77.4373 10.402C78.358 12.3829 79.4368 14.2987 80.6649 16.1338C81.9812 17.5192 83.4419 18.7833 85.0261 19.9079C86.4085 20.9093 87.476 22.2301 88.1192 23.735C88.5221 25.1515 88.5221 26.6393 88.1192 28.0558C87.5559 29.9779 87.1893 31.944 87.0241 33.9287C87.2617 36.2087 87.6986 38.4675 88.3306 40.6833C88.5752 41.8838 88.5226 43.1194 88.1769 44.2987Z" fill="white"/>
<path d="M80.3767 16.2199C79.2549 15.839 78.061 15.6692 76.8661 15.7207C75.6713 15.7722 74.5 16.044 73.4219 16.5197C73.2943 16.5862 73.1778 16.6694 73.0761 16.7666C71.6575 15.5912 69.8524 14.8837 67.9465 14.7561C66.7238 14.7531 65.5135 14.98 64.3901 15.4229C63.2666 15.8657 62.2539 16.5151 61.4143 17.331C61.3243 17.4129 61.2528 17.5105 61.2041 17.6179C61.1553 17.7254 61.1302 17.8406 61.1302 17.957C61.1302 18.0735 61.1553 18.1887 61.2041 18.2962C61.2528 18.4036 61.3243 18.5012 61.4143 18.5831C61.5956 18.7568 61.844 18.8582 62.106 18.8653C62.2272 18.8656 62.3473 18.8439 62.4593 18.8015C62.5714 18.7592 62.6733 18.6969 62.7592 18.6184C63.4248 17.9847 64.2211 17.479 65.1018 17.1308C65.9825 16.7826 66.9299 16.5988 67.8888 16.5902C69.3016 16.6831 70.6463 17.183 71.7313 18.0188C70.496 19.3302 69.6608 20.9183 69.3105 22.6218C69.2656 22.8509 69.3212 23.087 69.4652 23.2786C69.6091 23.4702 69.8298 23.6018 70.079 23.6447H70.2903C70.5155 23.6475 70.7344 23.576 70.9071 23.4434C71.0798 23.3107 71.195 23.1256 71.2317 22.9216C71.3245 21.933 71.6553 20.9756 72.2001 20.1185C72.745 19.2615 73.4904 18.5263 74.3825 17.9659C76.0685 17.2695 77.9829 17.2 79.7235 17.7719C79.8392 17.8171 79.9636 17.8401 80.0893 17.8395C80.215 17.8389 80.3393 17.8148 80.4544 17.7686C80.5696 17.7223 80.6732 17.6549 80.7589 17.5706C80.8447 17.4862 80.9108 17.3867 80.9531 17.2781C81.017 17.0675 80.9934 16.8426 80.8869 16.6471C80.7804 16.4516 80.5986 16.2993 80.3767 16.2199ZM76.5343 45.1079C76.4289 44.8952 76.2389 44.7274 76.0032 44.6389C75.7675 44.5504 75.504 44.5478 75.2663 44.6317C73.7022 45.1273 72.31 45.9962 71.2329 47.1493C70.1558 48.3023 69.4326 49.6978 69.1376 51.1924C68.7388 50.7926 68.3015 50.4267 67.8312 50.0989C67.6257 49.9631 67.3708 49.9056 67.1201 49.9384C66.8693 49.9713 66.6422 50.0921 66.4863 50.2753C66.4106 50.3679 66.3556 50.4734 66.3243 50.5855C66.293 50.6977 66.286 50.8145 66.3039 50.9291C66.3217 51.0437 66.364 51.154 66.4282 51.2537C66.4925 51.3533 66.5775 51.4404 66.6785 51.5098C72.1731 55.3016 68.5997 63.2732 68.4652 63.3437C68.3676 63.5593 68.3652 63.8013 68.4584 64.0185C68.5516 64.2357 68.7332 64.4111 68.9647 64.5077C69.0914 64.5325 69.2223 64.5325 69.3489 64.5077C69.5359 64.5061 69.7184 64.4554 69.875 64.3617C70.0316 64.2679 70.1557 64.135 70.2327 63.9786C71.711 60.7952 71.9751 57.2468 70.982 53.9084C70.672 52.2871 71.0159 50.6176 71.9494 49.2122C72.8829 47.8068 74.342 46.7615 76.054 46.2719C76.2789 46.1689 76.4532 45.9919 76.5422 45.7762C76.6312 45.5604 76.6284 45.3218 76.5343 45.1079ZM57.5335 12.2341C57.4071 12.2231 57.2843 12.1892 57.1723 12.1344C57.0603 12.0795 56.9612 12.0048 56.8808 11.9146C56.8004 11.8245 56.7403 11.7205 56.7039 11.6089C56.6675 11.4972 56.6557 11.38 56.6689 11.2641C56.8821 9.47459 57.8325 7.82757 59.3255 6.66033C60.8185 5.4931 62.7411 4.89398 64.6996 4.98566C64.951 4.99484 65.1885 5.09421 65.3609 5.2624C65.5333 5.4306 65.627 5.65418 65.6218 5.8851C65.6194 6.00169 65.5914 6.11663 65.5394 6.22301C65.4874 6.32938 65.4124 6.425 65.3191 6.50409C65.2257 6.58318 65.1159 6.64411 64.9963 6.68322C64.8766 6.72232 64.7495 6.73879 64.6228 6.73163C63.1272 6.6379 61.6507 7.08272 60.5066 7.97171C59.3624 8.86071 58.6405 10.1239 58.4941 11.4934C58.4536 11.7005 58.3354 11.8881 58.1598 12.0234C57.9843 12.1587 57.7627 12.2333 57.5335 12.2341ZM55.3433 76.9059V1.31733L54.5172 1.12334H53.3836C52.8909 1.09691 52.397 1.09691 51.9043 1.12334V76.9588H55.3433V76.9059Z" fill="white"/>
<path d="M88.2837 40.7165C87.6517 38.5007 87.2148 36.2419 86.9773 33.9619C87.1424 31.9772 87.509 30.0111 88.0724 28.089C88.4752 26.6725 88.4752 25.1847 88.0724 23.7682C87.4291 22.2633 86.3616 20.9425 84.9792 19.9411C83.395 18.8165 81.9344 17.5524 80.618 16.167C79.3899 14.3319 78.3111 12.4162 77.3904 10.4352C76.7804 9.27032 75.8704 8.25941 74.7391 7.48999C73.904 6.98045 72.9614 6.63794 71.9726 6.48473C69.3789 5.95564 66.3434 6.18491 63.8074 5.42656C60.695 4.49184 57.8516 1.67006 54.4703 1.12334H53.3368C52.8441 1.09691 52.3501 1.09691 51.8574 1.12334V2.67532C53.5942 3.80344 55.4551 4.76104 57.4097 5.53238C59.9457 6.29073 62.9813 6.06146 65.5749 6.59054C66.5682 6.70667 67.5239 7.01311 68.3799 7.48999C69.5112 8.25941 70.4212 9.27032 71.0312 10.4352C71.9519 12.4162 73.0307 14.3319 74.2588 16.167C75.5751 17.5524 77.0358 18.8165 78.62 19.9411C80.0447 20.9289 81.1531 22.251 81.8284 23.7682C82.2312 25.1847 82.2312 26.6725 81.8284 28.089C81.265 30.0111 80.8984 31.9772 80.7333 33.9619C80.9015 36.2366 81.2677 38.4954 81.8284 40.7165C82.0774 41.8846 82.0446 43.0885 81.7323 44.2437C81.3359 45.3277 80.6794 46.3162 79.8111 47.1361C77.9177 48.7314 76.1278 50.4274 74.4509 52.2153C72.9524 54.2611 72.3184 57.0652 70.9543 59.2697C70.4688 60.0824 69.8164 60.8011 69.0331 61.3861C68.31 61.9018 67.4893 62.2904 66.6124 62.5324C65.9976 62.9204 65.3636 63.3084 64.6912 63.6611C63.6527 64.2357 62.7915 65.0444 62.1896 66.0106C61.5877 66.9768 61.265 68.0683 61.2522 69.1813V71.474C61.2576 72.8918 60.6569 74.2551 59.5792 75.2708C58.5015 76.2865 57.0327 76.8736 55.4885 76.9059H61.7709C62.548 76.9036 63.317 76.7608 64.0339 76.4857C64.7509 76.2106 65.4018 75.8085 65.9495 75.3025C66.4972 74.7964 66.9309 74.1963 67.226 73.5364C67.521 72.8765 67.6716 72.1697 67.669 71.4563V69.2165C67.6818 68.1036 68.0045 67.0121 68.6065 66.0459C69.2084 65.0797 70.0695 64.2709 71.108 63.6964C71.742 63.3437 72.376 62.9557 73.0292 62.5677C73.9534 62.3401 74.821 61.9508 75.5845 61.4214C76.3677 60.8364 77.0201 60.1177 77.5057 59.305C78.8697 57.1181 79.4269 54.314 81.0023 52.2506C82.6792 50.4627 84.469 48.7667 86.3625 47.1713C87.2307 46.3514 87.8873 45.363 88.2837 44.279C88.57 43.106 88.57 41.8895 88.2837 40.7165Z" fill="white"/>
<path d="M51.9132 76.9081H41.8845C41.1074 76.9058 40.3384 76.763 39.6214 76.4878C38.9045 76.2127 38.2536 75.8107 37.7059 75.3046C37.1582 74.7986 36.7244 74.1985 36.4294 73.5386C36.1344 72.8786 35.9838 72.1718 35.9863 71.4585V69.2187C35.9735 68.1057 35.6508 67.0143 35.0489 66.0481C34.447 65.0819 33.5858 64.2731 32.5473 63.6986C25.8143 59.8961 20.591 54.2076 17.648 47.4724C14.7051 40.7372 14.1984 33.3121 16.2027 26.2924C18.2071 19.2728 22.6162 13.0304 28.7797 8.48624C34.9432 3.94211 42.5346 1.3369 50.4339 1.05498C50.9266 1.02855 51.4205 1.02855 51.9132 1.05498V76.8904V76.9081ZM66.3223 79.0597V80.4882C66.3198 80.7661 66.2577 81.0409 66.1395 81.2968C66.0213 81.5527 65.8494 81.7847 65.6335 81.9795C65.4177 82.1744 65.1621 82.3284 64.8814 82.4326C64.6007 82.5368 64.3004 82.5892 63.9977 82.5869H41.9997C41.3949 82.5823 40.8163 82.3597 40.3887 81.9671C39.961 81.5745 39.7185 81.0434 39.7135 80.4882V79.0597C39.7174 78.5222 39.9439 78.0062 40.3471 77.6164C40.7503 77.2267 41.2999 76.9923 41.8845 76.961H64.1129C64.7043 76.9836 65.2635 77.2141 65.6748 77.6048C66.0861 77.9955 66.3179 78.5164 66.3223 79.0597Z" stroke="#668EFF" stroke-width="2" stroke-linecap="round" stroke-linejoin="round"/>
<path d="M66.3198 84.6514V86.1152C66.3147 86.6781 66.0676 87.2164 65.6322 87.6128C65.1967 88.0091 64.6084 88.2316 63.9951 88.2315H41.9972C41.3891 88.2269 40.8076 88.0019 40.3794 87.6055C39.9512 87.2091 39.7109 86.6734 39.7109 86.1152V84.6867C39.716 84.1315 39.9584 83.6003 40.3861 83.2078C40.8138 82.8152 41.3924 82.5926 41.9972 82.588H63.9951C64.6 82.5832 65.1828 82.7968 65.6176 83.1828C66.0525 83.5688 66.3047 84.0963 66.3198 84.6514Z" stroke="#668EFF" stroke-width="2" stroke-linecap="round" stroke-linejoin="round"/>
<path d="M66.3257 90.2953V91.7238C66.3231 92.0017 66.261 92.2765 66.1428 92.5324C66.0246 92.7883 65.8527 93.0203 65.6368 93.2152C65.421 93.41 65.1654 93.564 64.8847 93.6682C64.604 93.7724 64.3037 93.8248 64.001 93.8225H42.003C41.3982 93.8179 40.8196 93.5953 40.392 93.2027C39.9643 92.8101 39.7218 92.279 39.7168 91.7238V90.2953C39.7168 89.7387 39.9577 89.2049 40.3864 88.8113C40.8152 88.4177 41.3967 88.1966 42.003 88.1966H64.001C64.3044 88.1919 64.6059 88.2427 64.8877 88.3461C65.1695 88.4495 65.4261 88.6033 65.6425 88.7987C65.8589 88.994 66.0307 89.227 66.148 89.4839C66.2653 89.7409 66.3257 90.0167 66.3257 90.2953Z" stroke="#668EFF" stroke-width="2" stroke-linecap="round" stroke-linejoin="round"/>
<path d="M58.8871 50.5954C59.6315 48.6815 60.7156 46.8937 62.0955 45.3046C62.2727 45.1368 62.3718 44.9122 62.3718 44.6785C62.3718 44.4448 62.2727 44.2202 62.0955 44.0524C62.0016 43.9758 61.8919 43.9171 61.773 43.88C61.654 43.8429 61.5282 43.828 61.4028 43.8362C61.2775 43.8444 61.1552 43.8756 61.0432 43.9279C60.9312 43.9801 60.8317 44.0525 60.7507 44.1406C60.4433 44.458 53.3155 52.165 57.1772 61.1948C57.2497 61.3605 57.3742 61.5027 57.535 61.6032C57.6959 61.7037 57.8856 61.758 58.0802 61.7591C58.1947 61.7759 58.3114 61.7759 58.426 61.7591C58.5434 61.7164 58.6504 61.6528 58.741 61.572C58.8316 61.4912 58.9039 61.3948 58.9539 61.2883C59.0039 61.1819 59.0305 61.0674 59.0322 60.9515C59.0339 60.8355 59.0107 60.7204 58.9639 60.6128C57.8492 58.0715 57.6013 55.2794 58.2531 52.606C60.4723 55.0023 61.7151 58.0323 61.7689 61.1771C61.5993 62.792 61.0471 64.3532 60.1511 65.7516C59.255 67.1499 58.0368 68.3515 56.5816 69.2721C56.3824 69.4207 56.2547 69.6352 56.226 69.8694C56.1972 70.1035 56.2697 70.3387 56.4279 70.5243C56.5193 70.625 56.6339 70.7057 56.7635 70.7606C56.8931 70.8155 57.0344 70.8433 57.1772 70.8417C57.3953 70.8484 57.608 70.7791 57.7728 70.6477C59.4491 69.5745 60.848 68.1763 61.8705 66.5519C62.893 64.9276 63.5142 63.1168 63.6901 61.2477C63.6001 57.2698 61.8859 53.4681 58.8871 50.5954Z" fill="white"/>
<path d="M63.2462 93.8223V96.697C63.2462 97.8382 62.7523 98.9328 61.8731 99.7398C60.994 100.547 59.8017 101 58.5584 101H47.4345C46.8215 100.998 46.2149 100.885 45.6494 100.667C45.084 100.45 44.5707 100.132 44.139 99.7325C43.7073 99.3329 43.3655 98.8592 43.1332 98.3383C42.9009 97.8175 42.7827 97.2598 42.7852 96.697V93.8223H63.2462Z" stroke="#668EFF" stroke-width="2" stroke-linecap="round" stroke-linejoin="round"/>
<path d="M51.8398 37.6667C50.7607 37.7486 49.6927 37.9258 48.6506 38.1958V37.7196C48.7659 35.4269 48.5161 31.7939 46.0762 30.3301C44.4026 29.6358 42.5135 29.5147 40.7511 29.9886C38.9886 30.4625 37.4693 31.5002 36.4683 32.9137C35.4674 34.3271 35.0509 36.0229 35.2944 37.6939C35.5379 39.3649 36.4253 40.9006 37.7957 42.0228C38.6023 42.4815 39.537 42.7144 40.4854 42.693C42.6869 42.5542 44.8237 41.9507 46.7294 40.9294V76.9071C46.7294 77.141 46.8306 77.3653 47.0108 77.5307C47.1909 77.696 47.4352 77.789 47.69 77.789C47.9448 77.789 48.1891 77.696 48.3693 77.5307C48.5494 77.3653 48.6506 77.141 48.6506 76.9071V40.0476C49.7323 39.7137 50.8554 39.5064 51.9935 39.4303C52.2467 39.4079 52.4804 39.296 52.6453 39.1183C52.8102 38.9406 52.8934 38.711 52.8773 38.478C52.8702 38.3612 52.8373 38.2469 52.7807 38.1422C52.7241 38.0374 52.6448 37.9442 52.5478 37.8684C52.4508 37.7925 52.3381 37.7355 52.2164 37.7009C52.0947 37.6662 51.9666 37.6546 51.8398 37.6667ZM38.8524 40.5414C37.6075 39.7842 36.7384 38.6064 36.4342 37.2643C36.13 35.9221 36.4151 34.5239 37.2277 33.3737C38.0403 32.2234 39.3146 31.4141 40.7736 31.1216C42.2327 30.8291 43.7585 31.077 45.0195 31.8115C45.6345 32.3967 46.1055 33.0964 46.4005 33.8631C46.6955 34.6299 46.8076 35.4458 46.7294 36.2558V37.4903C46.7294 38.0371 46.7294 38.5485 46.6141 38.9541C44.8658 39.9241 40.7736 41.7054 38.8524 40.5414Z" fill="#668EFF"/>
<path d="M88.1769 44.2987C87.7804 45.3827 87.1239 46.3711 86.2557 47.191C84.3622 48.7864 82.5724 50.4824 80.8955 52.2703C79.3969 54.3161 78.7629 57.1202 77.3988 59.3247C76.9133 60.1374 76.2609 60.8561 75.4776 61.441C74.7545 61.9567 73.9338 62.3454 73.0569 62.5874C72.4421 62.9754 71.8081 63.3634 71.1357 63.7161C70.0972 64.2906 69.236 65.0994 68.6341 66.0656C68.0322 67.0318 67.7095 68.1233 67.6967 69.2362V71.476C67.6992 72.1894 67.5487 72.8962 67.2536 73.5561C66.9586 74.216 66.5248 74.8161 65.9771 75.3222C65.4294 75.8282 64.7785 76.2303 64.0616 76.5054C63.3446 76.7805 62.5756 76.9233 61.7986 76.9256H51.9043V1.09013C52.397 1.06371 52.8909 1.06371 53.3836 1.09013H54.5172C57.8985 1.63685 60.7419 4.45864 63.8543 5.39336C66.3903 6.15171 69.4258 5.92244 72.0194 6.45152C73.0082 6.60473 73.9508 6.94724 74.786 7.45679C75.9173 8.22621 76.8273 9.23712 77.4373 10.402C78.358 12.3829 79.4368 14.2987 80.6649 16.1338C81.9812 17.5192 83.4419 18.7833 85.0261 19.9079C86.4085 20.9093 87.476 22.2301 88.1192 23.735C88.5221 25.1515 88.5221 26.6393 88.1192 28.0558C87.5559 29.9779 87.1893 31.944 87.0241 33.9287C87.2617 36.2087 87.6986 38.4675 88.3306 40.6833C88.5752 41.8838 88.5226 43.1194 88.1769 44.2987Z" stroke="#668EFF" stroke-width="2" stroke-linecap="round" stroke-linejoin="round"/>
<path d="M85.669 33.2057C85.5729 33.2057 78.2146 27.9149 70.011 29.6785C69.7229 29.6785 62.8641 30.6132 61.8074 25.5693C61.7563 25.3391 61.609 25.1364 61.3972 25.0046C61.1854 24.8727 60.9258 24.8222 60.6739 24.8638C60.5486 24.8849 60.429 24.9288 60.3223 24.9927C60.2155 25.0567 60.1237 25.1395 60.0522 25.2363C59.9807 25.3332 59.9309 25.4421 59.9057 25.5568C59.8805 25.6715 59.8804 25.7896 59.9054 25.9044C60.1918 27.2386 60.9158 28.4606 61.9804 29.4063C63.0449 30.352 64.3991 30.9762 65.8612 31.1952C64.1188 32.1389 62.5497 33.3293 61.2119 34.7224C61.1284 34.8086 61.0645 34.9093 61.024 35.0185C60.9836 35.1277 60.9674 35.2432 60.9763 35.3583C60.9853 35.4733 61.0192 35.5856 61.0762 35.6884C61.1331 35.7912 61.2119 35.8825 61.3079 35.957C61.3918 36.0318 61.491 36.0906 61.5999 36.1299C61.7087 36.1693 61.825 36.1884 61.9419 36.1862C62.0767 36.1848 62.2096 36.1574 62.3321 36.1058C62.4546 36.0541 62.5638 35.9794 62.6528 35.8864C72.2589 25.8867 84.0359 34.1228 84.5354 34.4226C84.633 34.4963 84.7456 34.5512 84.8668 34.584C84.9879 34.6169 85.115 34.627 85.2405 34.6139C85.3659 34.6007 85.4873 34.5645 85.5972 34.5074C85.7071 34.4503 85.8034 34.3735 85.8803 34.2815C85.982 34.1065 86.0165 33.9051 85.9781 33.7099C85.9398 33.5147 85.8309 33.3371 85.669 33.2057Z" fill="white"/>
<path d="M86.9809 33.9638C86.9809 33.9638 74.1856 24.7577 63.7918 35.5334M71.2845 63.6984C71.2845 63.6984 75.3767 55.0743 69.1904 50.8416M72.0146 30.7011C72.0146 30.7011 63.9455 31.7945 62.7159 25.8688M72.0146 54.3688C71.6228 52.5289 71.9717 50.621 72.9963 48.9993C74.021 47.3776 75.6518 46.1522 77.5861 45.5507M65.6362 5.79885C65.6362 5.79885 59.2001 5.58721 58.5084 11.3366M80.6793 16.1689C80.6793 16.1689 72.6486 13.2413 70.9003 21.9712M62.7159 44.6513C62.7159 44.6513 55.6074 52.1643 59.3153 60.806M59.104 50.8416C59.104 50.8416 70.6313 61.1235 58.5084 70.0474M73.6284 17.0154C72.9435 16.3082 72.1031 15.7421 71.1627 15.3545C70.2223 14.9668 69.2031 14.7664 68.1722 14.7664C67.1413 14.7664 66.1221 14.9668 65.1816 15.3545C64.2412 15.7421 63.4008 16.3082 62.7159 17.0154" stroke="#668EFF" stroke-width="2" stroke-linecap="round" stroke-linejoin="round"/>
</svg>
