<svg width="103" height="38" viewBox="0 0 103 38" fill="none" xmlns="http://www.w3.org/2000/svg">
<path d="M14.7702 24.748C14.9782 24.924 15.1142 25.276 15.1782 25.804C15.2582 26.316 15.2342 26.852 15.1062 27.412C15.0102 27.876 14.8342 28.324 14.5782 28.756C14.3222 29.172 13.9862 29.42 13.5702 29.5C13.4102 29.532 13.0422 29.548 12.4662 29.548C11.8902 29.564 11.2102 29.564 10.4262 29.548C9.65822 29.548 8.87422 29.54 8.07422 29.524C7.29022 29.524 6.58622 29.524 5.96222 29.524C5.35422 29.54 4.92222 29.564 4.66622 29.596C4.01022 29.708 3.33822 29.748 2.65022 29.716C1.97822 29.684 1.50622 29.588 1.23422 29.428C1.34622 29.204 1.44222 28.868 1.52222 28.42C1.60222 27.956 1.66622 27.452 1.71422 26.908C1.76222 26.364 1.77822 25.844 1.76222 25.348L1.66622 10.564C1.84222 10.532 2.14622 10.524 2.57822 10.54C3.02622 10.556 3.49822 10.628 3.99422 10.756C4.53822 10.884 5.02622 11.124 5.45822 11.476C5.89022 11.828 6.15422 12.276 6.25022 12.82C6.28222 12.996 6.30622 13.348 6.32222 13.876C6.33822 14.388 6.34622 14.996 6.34622 15.7C6.36222 16.404 6.36222 17.124 6.34622 17.86C6.34622 18.596 6.34622 19.284 6.34622 19.924C6.34622 20.564 6.33822 21.084 6.32222 21.484C6.32222 21.884 6.32222 22.084 6.32222 22.084C6.30622 22.692 6.37022 23.244 6.51422 23.74C6.65822 24.22 6.86622 24.596 7.13822 24.868C7.34622 25.076 7.60222 25.22 7.90622 25.3C8.21022 25.38 8.58622 25.436 9.03422 25.468C9.22622 25.484 9.52222 25.484 9.92222 25.468C10.3382 25.452 10.7942 25.428 11.2902 25.396C11.7862 25.348 12.2742 25.292 12.7542 25.228C13.2502 25.164 13.6822 25.092 14.0502 25.012C14.4182 24.932 14.6582 24.844 14.7702 24.748ZM28.3323 25.132C28.5563 25.1 28.8363 25.06 29.1723 25.012C29.5243 24.964 29.8523 24.908 30.1563 24.844C30.4763 24.764 30.6923 24.676 30.8043 24.58C31.0123 24.756 31.1483 25.116 31.2123 25.66C31.2923 26.188 31.2683 26.74 31.1403 27.316C31.0443 27.812 30.8763 28.276 30.6363 28.708C30.3963 29.14 30.0523 29.404 29.6043 29.5C29.2203 29.58 28.7803 29.628 28.2843 29.644C27.7883 29.66 27.2843 29.66 26.7723 29.644C26.2603 29.628 25.7883 29.612 25.3563 29.596C24.9403 29.58 24.6203 29.572 24.3963 29.572C24.1723 29.572 23.8203 29.572 23.3403 29.572C22.8763 29.588 22.4683 29.604 22.1163 29.62C21.7003 29.668 21.2443 29.7 20.7483 29.716C20.2523 29.732 19.7963 29.716 19.3803 29.668C18.9643 29.62 18.6603 29.54 18.4683 29.428C18.5803 29.204 18.6763 28.868 18.7563 28.42C18.8363 27.956 18.9003 27.452 18.9483 26.908C18.9963 26.364 19.0123 25.844 18.9963 25.348L18.9483 20.956V18.916C18.9483 18.34 18.9403 17.86 18.9243 17.476C18.9243 17.092 18.9243 16.884 18.9243 16.852C18.9243 16.324 18.9003 15.756 18.8523 15.148C18.8043 14.54 18.7483 13.964 18.6843 13.42C18.6203 12.86 18.5643 12.404 18.5163 12.052C18.4523 11.78 18.4043 11.516 18.3723 11.26C18.3403 10.988 18.3323 10.748 18.3483 10.54C18.4603 10.588 18.7643 10.636 19.2603 10.684C19.7723 10.716 20.3643 10.748 21.0363 10.78C21.0843 10.78 21.3163 10.788 21.7323 10.804C22.1483 10.804 22.6603 10.812 23.2683 10.828C23.8923 10.844 24.5323 10.86 25.1883 10.876C25.8603 10.876 26.4683 10.876 27.0123 10.876C27.5563 10.876 27.9563 10.868 28.2123 10.852C28.8683 10.82 29.4203 10.772 29.8683 10.708C30.3323 10.628 30.6443 10.524 30.8043 10.396C30.9963 10.556 31.1723 10.86 31.3323 11.308C31.5083 11.74 31.6043 12.196 31.6203 12.676C31.6203 13.14 31.5083 13.58 31.2843 13.996C31.0763 14.396 30.6923 14.668 30.1323 14.812C29.9243 14.86 29.5963 14.9 29.1483 14.932C28.7163 14.964 28.2923 14.988 27.8763 15.004C27.4763 15.004 27.1883 14.996 27.0123 14.98C26.5163 14.932 26.0043 14.988 25.4763 15.148C24.9483 15.292 24.5003 15.492 24.1323 15.748C23.7643 15.988 23.5723 16.252 23.5563 16.54C23.5403 16.812 23.6523 17.036 23.8923 17.212C24.1323 17.388 24.4443 17.532 24.8283 17.644C25.2283 17.74 25.6523 17.804 26.1003 17.836C26.5483 17.868 26.9723 17.876 27.3723 17.86C27.6923 17.828 28.0603 17.772 28.4763 17.692C28.8923 17.612 29.1483 17.532 29.2443 17.452C29.4523 17.628 29.5963 17.956 29.6763 18.436C29.7723 18.916 29.7723 19.412 29.6763 19.924C29.5963 20.34 29.4363 20.724 29.1963 21.076C28.9563 21.428 28.6203 21.668 28.1883 21.796C27.8523 21.892 27.5643 21.956 27.3243 21.988C27.0843 22.004 26.9643 22.012 26.9643 22.012C26.0203 22.012 25.2203 22.18 24.5643 22.516C23.9243 22.836 23.5723 23.22 23.5083 23.668C23.4443 24.052 23.5243 24.404 23.7483 24.724C23.9883 25.044 24.3323 25.22 24.7803 25.252C25.0843 25.268 25.4683 25.276 25.9323 25.276C26.4123 25.26 26.8763 25.244 27.3243 25.228C27.7883 25.196 28.1243 25.164 28.3323 25.132ZM47.9598 21.892C47.8958 21.908 47.7998 21.996 47.6718 22.156C47.5598 22.316 47.4798 22.484 47.4318 22.66C47.3518 22.916 47.3758 23.124 47.5038 23.284C47.8398 23.684 48.2718 24.156 48.7998 24.7C49.3278 25.228 49.8558 25.732 50.3838 26.212C50.9278 26.692 51.3918 27.06 51.7758 27.316C51.4878 28.084 51.0318 28.7 50.4078 29.164C49.7998 29.612 49.1198 29.828 48.3678 29.812C47.6158 29.796 46.8798 29.46 46.1598 28.804C46.0638 28.708 45.8798 28.5 45.6078 28.18C45.3358 27.844 45.0238 27.452 44.6718 27.004C44.3198 26.556 43.9678 26.108 43.6158 25.66C43.2638 25.212 42.9598 24.82 42.7038 24.484C42.4478 24.148 42.2878 23.94 42.2238 23.86C41.9198 23.46 41.6318 23.372 41.3598 23.596C41.0878 23.82 40.9198 24.284 40.8558 24.988C40.8238 25.404 40.8238 25.884 40.8558 26.428C40.9038 26.956 40.9678 27.428 41.0478 27.844C41.1438 28.26 41.2398 28.508 41.3358 28.588C40.9998 28.844 40.5838 29.084 40.0878 29.308C39.5918 29.532 39.0238 29.668 38.3838 29.716C38.1438 29.732 37.8638 29.668 37.5438 29.524C37.2238 29.38 36.9438 29.148 36.7038 28.828C36.4798 28.492 36.3598 28.076 36.3438 27.58C36.3438 27.452 36.3358 27.116 36.3198 26.572C36.3198 26.028 36.3118 25.364 36.2958 24.58C36.2958 23.78 36.2958 22.956 36.2958 22.108C36.2958 21.26 36.2878 20.46 36.2718 19.708C36.2718 18.956 36.2718 18.348 36.2718 17.884C36.2718 17.42 36.2718 17.188 36.2718 17.188C36.2718 16.244 36.2478 15.46 36.1998 14.836C36.1518 14.196 35.9598 13.708 35.6238 13.372C35.3198 13.068 35.0878 12.628 34.9278 12.052C34.7838 11.476 34.7198 10.932 34.7358 10.42C34.7998 10.436 34.9918 10.46 35.3118 10.492C35.6318 10.508 35.9438 10.532 36.2478 10.564C36.4558 10.564 36.7518 10.564 37.1358 10.564C37.5358 10.548 37.9598 10.532 38.4078 10.516C38.8558 10.5 39.2718 10.492 39.6558 10.492C40.0398 10.476 40.3278 10.46 40.5198 10.444C40.6638 10.444 40.9278 10.444 41.3118 10.444C41.7118 10.428 42.1758 10.42 42.7038 10.42C43.2318 10.42 43.7678 10.428 44.3118 10.444C44.8558 10.444 45.3598 10.46 45.8238 10.492C46.2878 10.524 46.6478 10.564 46.9038 10.612C47.9598 10.804 48.7758 11.156 49.3518 11.668C49.9278 12.18 50.3358 12.796 50.5758 13.516C50.8318 14.236 50.9838 15.02 51.0318 15.868C51.0638 16.588 50.9838 17.34 50.7918 18.124C50.5998 18.908 50.2718 19.636 49.8078 20.308C49.3438 20.98 48.7278 21.508 47.9598 21.892ZM40.9038 16.732C40.9038 17.244 41.0238 17.628 41.2638 17.884C41.5038 18.124 41.7278 18.268 41.9358 18.316C42.2238 18.38 42.5918 18.388 43.0398 18.34C43.4878 18.276 43.9358 18.164 44.3838 18.004C44.8318 17.828 45.2078 17.604 45.5118 17.332C45.8318 17.06 45.9918 16.748 45.9918 16.396C45.9918 15.932 45.7998 15.58 45.4158 15.34C45.0318 15.084 44.5438 14.924 43.9518 14.86C43.3758 14.796 42.7998 14.812 42.2238 14.908C41.7758 14.972 41.4398 15.172 41.2158 15.508C40.9918 15.844 40.8878 16.252 40.9038 16.732ZM70.6887 12.724C70.7207 12.996 70.7367 13.46 70.7367 14.116C70.7527 14.756 70.7607 15.524 70.7607 16.42C70.7607 17.316 70.7607 18.26 70.7607 19.252C70.7607 20.244 70.7527 21.228 70.7367 22.204C70.7367 23.18 70.7287 24.068 70.7127 24.868C70.7127 25.668 70.7127 26.324 70.7127 26.836C70.7127 27.332 70.7207 27.612 70.7367 27.676C70.7687 27.804 70.7447 28.012 70.6647 28.3C70.5847 28.572 70.4567 28.836 70.2807 29.092C70.1047 29.332 69.8807 29.476 69.6087 29.524C69.3527 29.588 68.9927 29.588 68.5287 29.524C68.0807 29.476 67.6247 29.356 67.1607 29.164C66.7127 28.956 66.3527 28.66 66.0807 28.276C65.9207 28.052 65.6727 27.732 65.3367 27.316C65.0167 26.884 64.6567 26.42 64.2567 25.924C63.8727 25.412 63.4887 24.924 63.1047 24.46C62.7367 23.98 62.4247 23.572 62.1687 23.236C61.9127 22.884 61.7527 22.668 61.6887 22.588C61.5447 22.364 61.3047 22.14 60.9687 21.916C60.6487 21.676 60.3927 21.588 60.2007 21.652C60.0087 21.716 59.8647 21.916 59.7687 22.252C59.6727 22.572 59.6087 22.916 59.5767 23.284C59.5447 23.524 59.5287 23.892 59.5287 24.388C59.5287 24.868 59.5287 25.364 59.5287 25.876C59.5447 26.388 59.5447 26.804 59.5287 27.124C59.5127 27.684 59.6887 28.22 60.0567 28.732C59.9287 28.812 59.6727 28.94 59.2887 29.116C58.9047 29.276 58.4967 29.42 58.0647 29.548C57.6327 29.676 57.2647 29.732 56.9607 29.716C56.4487 29.684 55.9927 29.42 55.5927 28.924C55.2087 28.428 55.0087 27.812 54.9927 27.076C54.9927 26.932 54.9847 26.532 54.9687 25.876C54.9687 25.204 54.9607 24.372 54.9447 23.38C54.9447 22.388 54.9447 21.316 54.9447 20.164C54.9447 19.012 54.9367 17.876 54.9207 16.756C54.9207 15.62 54.9127 14.588 54.8967 13.66C54.8967 12.716 54.8967 11.964 54.8967 11.404C54.8967 10.844 54.8967 10.564 54.8967 10.564C55.8727 10.532 56.6967 10.604 57.3687 10.78C58.0407 10.956 58.6007 11.276 59.0487 11.74C59.2407 11.916 59.5207 12.228 59.8887 12.676C60.2567 13.124 60.6567 13.636 61.0887 14.212C61.5367 14.772 61.9687 15.332 62.3847 15.892C62.8167 16.452 63.1927 16.948 63.5127 17.38C63.8327 17.796 64.0407 18.068 64.1367 18.196C64.3927 18.516 64.6487 18.772 64.9047 18.964C65.1767 19.14 65.4007 19.196 65.5767 19.132C65.9607 19.004 66.1527 18.468 66.1527 17.524L66.1047 10.564C66.2807 10.532 66.5847 10.524 67.0167 10.54C67.4647 10.556 67.9367 10.628 68.4327 10.756C68.9767 10.884 69.4727 11.1 69.9207 11.404C70.3687 11.708 70.6247 12.148 70.6887 12.724Z" fill="white"/>
<path d="M101.476 30.452C101.604 30.644 101.561 30.8893 101.348 31.188C101.134 31.4867 100.836 31.7853 100.452 32.084C100.068 32.3613 99.6728 32.564 99.2675 32.692C98.8835 32.82 98.3715 32.788 97.7315 32.596C97.0915 32.404 96.4302 32.0947 95.7475 31.668C95.0862 31.22 94.5315 30.708 94.0835 30.132C93.9982 30.0253 93.8595 29.844 93.6675 29.588C93.4968 29.3107 93.3048 29.0333 93.0915 28.756C92.9635 28.564 92.7822 28.3293 92.5475 28.052C92.3128 27.7747 92.0035 27.54 91.6195 27.348C91.2355 27.1347 90.7555 27.0387 90.1795 27.06C89.3262 27.1027 88.5795 27.4013 87.9395 27.956C87.2995 28.4893 86.7022 29.0547 86.1475 29.652C85.5928 30.2493 85.2408 30.7507 85.0915 31.156C84.9422 31.54 84.9208 31.892 85.0275 32.212C84.6008 32.4467 84.1102 32.596 83.5555 32.66C83.0222 32.7453 82.4995 32.756 81.9875 32.692C81.4755 32.628 81.0488 32.5107 80.7075 32.34C80.5795 32.276 80.3662 32.148 80.0675 31.956C79.7688 31.764 79.4702 31.5507 79.1715 31.316C78.8942 31.06 78.6808 30.7933 78.5315 30.516C78.4035 30.2387 78.4248 29.972 78.5955 29.716C78.8088 29.4173 79.1502 28.98 79.6195 28.404C80.1102 27.828 80.6328 27.2093 81.1875 26.548C81.7635 25.8653 82.3075 25.2253 82.8195 24.628C83.3315 24.0307 83.7262 23.572 84.0035 23.252C84.5582 22.5907 84.9315 21.9613 85.1235 21.364C85.3155 20.7453 85.4222 20.0733 85.4435 19.348C85.4648 18.1747 85.1662 17.0547 84.5475 15.988C84.3982 15.7533 84.1208 15.3267 83.7155 14.708C83.3315 14.0893 82.8728 13.396 82.3395 12.628C81.8275 11.8387 81.3262 11.0813 80.8355 10.356C80.3662 9.60933 79.9715 9.00133 79.6515 8.532C79.3315 8.04133 79.1715 7.796 79.1715 7.796C79.4702 7.668 79.9288 7.54 80.5475 7.412C81.1875 7.284 81.9022 7.20933 82.6915 7.188C83.4808 7.16667 84.2382 7.252 84.9635 7.444C85.7102 7.61467 86.3395 7.956 86.8515 8.468C86.9368 8.55333 87.0968 8.756 87.3315 9.076C87.5662 9.37466 87.8222 9.716 88.0995 10.1C88.3982 10.4627 88.6435 10.804 88.8355 11.124C89.1342 11.5933 89.5182 11.988 89.9875 12.308C90.4782 12.628 90.9688 12.8093 91.4595 12.852C91.8862 12.8947 92.3022 12.8627 92.7075 12.756C93.1128 12.628 93.5288 12.3613 93.9555 11.956C94.4675 11.5293 94.9155 10.9747 95.2995 10.292C95.6835 9.588 95.9928 8.916 96.2275 8.276C96.4835 7.61467 96.6222 7.14533 96.6435 6.868C97.7102 7.29467 98.5422 7.84933 99.1395 8.532C99.7368 9.21467 100.121 9.96133 100.292 10.772C100.462 11.5613 100.462 12.34 100.292 13.108C100.142 13.8547 99.8542 14.5267 99.4275 15.124C99.3208 15.2733 99.0542 15.5827 98.6275 16.052C98.2222 16.5213 97.7635 17.044 97.2515 17.62C96.7608 18.1747 96.3128 18.676 95.9075 19.124C95.6302 19.4227 95.4915 19.8173 95.4915 20.308C95.4915 20.9053 95.6835 21.5133 96.0675 22.132C96.4942 22.772 96.9635 23.508 97.4755 24.34C98.0088 25.1507 98.5422 25.972 99.0755 26.804C99.6088 27.6147 100.089 28.3507 100.516 29.012C100.942 29.652 101.262 30.132 101.476 30.452Z" fill="white"/>
</svg>
