<svg width="1433" height="917" viewBox="0 0 1433 917" fill="none" xmlns="http://www.w3.org/2000/svg">
<path fill-rule="evenodd" clip-rule="evenodd" d="M1.64065 435.125C6.46459 434.663 14.0979 431.787 10.8789 431.644C9.59947 431.588 9.60027 431.479 10.886 430.661C12.8324 429.424 14.0378 429.481 13.2258 430.774C12.7596 431.516 13.1629 431.51 14.5999 430.755C15.7188 430.167 16.5341 429.211 16.4116 428.633C16.289 428.054 16.7904 427.367 17.5258 427.106C18.4229 426.788 18.6093 427.035 18.0925 427.858C17.2077 429.265 16.9002 429.436 25.8188 423.559C33.1187 418.746 34.7437 417.475 31.4345 419.165C28.7112 420.555 27.9617 420.518 28.8288 419.036C29.2352 418.342 29.1596 418.174 28.6484 418.634C28.1652 419.071 27.7655 419.896 27.7614 420.467C27.7572 421.039 27.1524 421.703 26.4171 421.941C25.5356 422.229 25.3388 421.965 25.8381 421.169C26.2557 420.506 23.822 421.819 20.4299 424.087C12.7986 429.191 4.8108 432.483 0.0718652 432.479C-2.61539 432.476 -3.53132 432.875 -3.53984 434.049C-3.54949 435.379 -2.74902 435.546 1.64065 435.125ZM7.51483 432.159C9.8373 431.625 10.072 431.701 8.71789 432.548C7.79296 433.128 4.76408 433.762 1.98705 433.96C-2.60548 434.286 -2.71467 434.251 0.784004 433.571C2.89917 433.159 5.92804 432.525 7.51483 432.159ZM23.9032 422.923C24.9632 422.394 24.5263 423.055 22.9325 424.391C21.3387 425.727 19.6026 426.818 19.0746 426.817C17.9792 426.813 21.0231 424.359 23.9032 422.923ZM33.5366 416.724C35.3852 415.859 36.7271 414.98 36.5203 414.77C36.0847 414.329 30.1853 417.198 30.1805 417.856C30.1788 418.097 31.6889 417.587 33.5366 416.724ZM37.8691 416.767C39.1917 416.426 41.7881 415.851 43.6389 415.489C46.9174 414.847 46.93 414.828 44.1243 414.742C42.5405 414.694 39.9442 415.269 38.3546 416.02C36.0232 417.122 35.929 417.266 37.8691 416.767ZM43.654 413.403C45.5021 413.416 46.2591 413.224 45.3372 412.977C44.4155 412.728 42.9024 412.717 41.9771 412.952C41.0518 413.186 41.8059 413.39 43.654 413.403ZM51.0124 415.744C56.1275 416.564 63.8455 420.164 71.3827 425.247C74.6378 427.442 77.7663 428.956 78.3343 428.61C78.9167 428.256 79.0883 428.428 78.726 429.003C77.8965 430.324 84.3943 434.428 85.8823 433.523C86.5708 433.104 86.7542 433.248 86.3511 433.89C85.5692 435.134 89.165 437.346 90.5739 436.49C91.1071 436.166 91.4201 436.426 91.2705 437.067C91.1209 437.709 93.3669 439.248 96.2622 440.488C102.513 443.167 110.987 443.585 116.156 441.47C120.577 439.661 126.251 435.46 125.637 434.449C125.381 434.03 126.355 432.662 127.801 431.408L130.428 429.129L128.081 431.751C123.839 436.491 127.071 434.502 134.354 427.894C149.111 414.498 158.142 413.555 173.861 423.767C176.648 425.577 178.928 426.904 178.929 426.717C178.931 426.529 180.389 427.768 182.168 429.471C185.397 432.56 189.634 434.027 187.385 431.278C186.795 430.558 186.149 430.129 185.95 430.325C185.75 430.522 184.041 429.205 182.152 427.398C180.262 425.591 178.525 424.301 178.291 424.532C178.057 424.763 176.876 423.949 175.669 422.724C172.715 419.728 165.758 416.197 164.417 417.013C163.779 417.401 163.607 417.239 163.997 416.618C164.79 415.357 158.943 413.511 154.063 413.481C152.215 413.471 148.536 414.457 145.886 415.674C140.46 418.166 130.632 426.439 131.467 427.81C131.768 428.305 131.608 428.587 131.111 428.438C129.791 428.043 122.1 434.32 122.698 435.305C122.978 435.764 122.7 436.449 122.078 436.827C121.374 437.255 121.21 437.1 121.643 436.411C122.628 434.843 121.872 435.016 117.196 437.429C114.145 439.004 111.445 439.547 106.83 439.512C99.1211 439.456 91.3049 435.899 75.8105 425.397C63.8423 417.286 56.5568 413.634 51.5108 413.215C48.2763 412.947 48.2203 412.981 50.853 413.624L53.7282 414.325L50.3651 414.714L47.002 415.102L51.0124 415.744ZM55.3441 414.974C56.107 415.286 55.8779 415.512 54.7591 415.55C53.7469 415.584 53.1821 415.353 53.5032 415.037C53.8242 414.72 54.653 414.692 55.3441 414.974ZM60.585 416.994C62.0777 417.816 62.9953 418.504 62.6236 418.523C61.4817 418.58 57.0405 416.315 57.4679 415.894C57.6893 415.676 59.0913 416.171 60.585 416.994ZM108.966 441.249C110.159 441.487 109.407 441.679 107.295 441.674C105.182 441.669 104.206 441.474 105.126 441.241C106.045 441.008 107.774 441.011 108.966 441.249ZM132.177 898.309C133.678 899.251 151.849 902.016 153.608 901.57C154.555 901.33 155.109 901.485 154.839 901.914C154.082 903.118 169.98 904.26 180.218 903.737C189.775 903.248 201.238 901.209 198.251 900.528C197.304 900.313 195.142 900.636 193.446 901.247C191.749 901.857 184.095 902.447 176.438 902.557L162.515 902.758L174.521 902.092C189.033 901.288 192.477 900.537 208.614 894.664C223.469 889.257 230.366 888.013 243.826 888.312L253.826 888.534L241.341 889.107C230.16 889.621 227.524 890.109 216.105 893.785C209.091 896.042 203.351 898.255 203.348 898.702C203.341 899.634 206.015 898.939 211.524 896.573C229.871 888.693 250.788 888.219 289.124 894.81C294.299 895.701 299.373 896.215 300.398 895.955C301.531 895.668 302.02 895.869 301.643 896.469C301.246 897.101 302.253 897.319 304.45 897.079C306.335 896.873 307.714 896.965 307.514 897.282C307.091 897.955 341.081 903.535 347.065 903.774C349.298 903.864 351.419 904.235 351.779 904.599C352.824 905.659 356.913 905.398 356.921 904.272C356.925 903.676 356.104 903.502 354.958 903.857C353.874 904.192 352.363 903.94 351.6 903.298C350.791 902.617 349.008 902.361 347.33 902.683C345.543 903.027 344.45 902.842 344.455 902.196C344.46 901.519 343.25 901.372 341.004 901.776C338.405 902.244 337.727 902.109 338.276 901.234C338.823 900.363 338.12 900.206 335.495 900.612C333.298 900.952 331.984 900.774 331.989 900.137C331.993 899.516 330.869 899.335 329.112 899.672C327.299 900.021 326.231 899.834 326.236 899.166C326.24 898.488 325.022 898.294 322.858 898.629C320.995 898.917 319.698 898.793 319.974 898.354C320.25 897.914 318.86 897.345 316.884 897.089C314.909 896.832 304.016 895.02 292.677 893.06C262.463 887.842 253.361 886.911 237.744 887.441C225.277 887.864 223.217 888.2 214.443 891.254C209.149 893.095 204.075 895.022 203.168 895.533C199.583 897.552 186.161 900.366 178.398 900.725C173.894 900.933 167.183 901.249 163.485 901.428C159.312 901.629 157.493 901.451 158.688 900.96C160.253 900.317 159.983 900.15 157.254 900.071C155.406 900.016 148.933 899.078 142.868 897.986C136.804 896.893 131.733 895.995 131.602 895.991C130.979 895.97 131.445 897.849 132.177 898.309ZM138.401 421.867C139.932 420.685 139.965 420.719 138.761 422.232C138.03 423.151 137.268 423.901 137.069 423.899C136.279 423.893 136.792 423.109 138.401 421.867ZM150.713 900.266C151.476 900.578 151.246 900.803 150.128 900.841C149.116 900.875 148.551 900.645 148.872 900.328C149.193 900.012 150.022 899.984 150.713 900.266ZM156.214 414.766C156.872 415.037 156.33 415.251 155.01 415.241C153.69 415.232 153.152 415.01 153.814 414.749C154.476 414.487 155.556 414.495 156.214 414.766ZM181.21 427.098C181.408 427.1 182.159 427.86 182.877 428.79C184.06 430.32 184.026 430.354 182.512 429.15C180.922 427.884 180.419 427.092 181.21 427.098ZM191.271 436.719C192.833 437.849 194.321 438.341 194.638 437.835C194.952 437.336 194.771 436.654 194.236 436.319C193.702 435.984 193.256 436.058 193.245 436.485C193.233 436.912 192.838 436.641 192.366 435.883C191.619 434.685 188.481 433.462 188.475 434.367C188.473 434.549 189.731 435.607 191.271 436.719ZM200.605 443.238C211.9 450.576 220.588 452.187 228.351 448.382C230.661 447.249 232.554 445.952 232.558 445.5C232.561 445.047 231.588 445.169 230.396 445.771C229.203 446.374 228.662 446.491 229.194 446.034C229.725 445.575 231.889 443.703 234.004 441.872C236.118 440.042 237.027 439.511 236.024 440.69C235.021 441.87 234.59 442.813 235.069 442.784C235.547 442.756 239.556 438.272 243.978 432.821C256.774 417.045 263.584 414.964 277.71 422.515C281.22 424.39 286.775 428.127 290.052 430.817C293.43 433.59 296.491 435.419 297.117 435.039C297.762 434.646 297.957 434.788 297.585 435.38C296.9 436.47 305.791 443.489 316.343 450.187C321.59 453.517 323.069 454.077 324.002 453.083C324.904 452.122 324.894 451.998 323.955 452.519C323.292 452.887 322.753 452.744 322.757 452.201C322.761 451.659 322.043 451.486 321.162 451.816C319.999 452.253 319.778 452.071 320.355 451.152C320.884 450.311 320.778 450.114 320.037 450.565C319.425 450.936 318.927 450.758 318.931 450.168C318.936 449.578 318.505 449.359 317.975 449.681C317.444 450.004 317.013 449.867 317.017 449.379C317.02 448.89 315.304 447.335 313.202 445.922C311.1 444.51 309.378 443.659 309.375 444.031C309.372 444.403 308.836 443.995 308.181 443.123C305.868 440.039 282.154 422.059 280.98 422.5C280.325 422.746 279.895 422.423 280.025 421.783C280.156 421.143 279.51 420.674 278.592 420.739C277.673 420.804 277.129 420.528 277.383 420.123C278.196 418.829 268.576 415.257 264.193 415.225C257.19 415.174 252.637 418.34 242.35 430.414C231.627 442.998 226.966 446.621 220.644 447.287C215.411 447.839 206.516 444.893 200.25 440.535C197.944 438.932 195.999 438.153 195.657 438.696C195.332 439.215 197.558 441.259 200.605 443.238ZM208.228 445.893C209.721 446.716 210.639 447.404 210.267 447.422C209.125 447.479 204.684 445.214 205.111 444.793C205.333 444.576 206.735 445.071 208.228 445.893ZM226.889 447.101C227.956 446.504 227.991 446.606 227.056 447.6C226.409 448.287 223.38 448.951 220.324 449.075L214.769 449.299L220.158 448.576C223.122 448.179 226.151 447.515 226.889 447.101ZM233.523 444.751C234.051 444.754 234.487 444.3 234.491 443.741C234.495 443.183 234.064 442.989 233.534 443.311C233.003 443.634 232.568 444.087 232.566 444.32C232.565 444.554 232.995 444.747 233.523 444.751ZM239.35 435.677C240.412 434.729 241.281 434.17 241.279 434.433C241.277 434.697 240.406 435.689 239.343 436.636C238.28 437.583 237.411 438.143 237.413 437.879C237.415 437.615 238.287 436.624 239.35 435.677ZM249.033 424.232C251.692 421.651 253.866 419.756 253.864 420.02C253.862 420.284 251.685 422.611 249.026 425.191C246.367 427.771 244.194 429.666 244.195 429.402C244.197 429.138 246.374 426.812 249.033 424.232ZM266.6 416.483C267.792 416.721 267.04 416.913 264.928 416.908C262.816 416.903 261.84 416.708 262.759 416.475C263.679 416.242 265.407 416.246 266.6 416.483ZM264.279 241.616C264.807 241.697 267.646 241.839 270.587 241.933C277.248 242.143 282.461 245.373 287.398 252.348C289.629 255.5 291.164 256.877 291.776 256.274C292.846 255.221 291.845 252.963 290.636 253.698C290.202 253.962 289.912 253.427 289.991 252.509C290.069 251.592 289.636 250.932 289.025 251.043C288.415 251.153 287.339 250.498 286.635 249.586C285.481 248.09 285.518 248.058 287.026 249.257C287.944 249.988 288.699 250.154 288.703 249.627C288.713 248.206 286.261 246.4 285.432 247.217C285.038 247.605 284.864 247.277 285.046 246.486C285.227 245.696 284.851 245.148 284.209 245.269C283.567 245.39 283.273 244.9 283.555 244.179C284.317 242.239 276.546 238.748 271.381 238.71C267.687 238.684 261.542 241.197 264.279 241.616ZM263.12 889.566C263.883 889.878 263.654 890.103 262.535 890.141C261.523 890.175 260.958 889.945 261.279 889.628C261.6 889.312 262.429 889.284 263.12 889.566ZM273.172 239.981C274.094 240.229 273.337 240.421 271.489 240.408C269.64 240.394 268.886 240.191 269.812 239.957C270.737 239.722 272.25 239.733 273.172 239.981ZM278.457 241.521C279.391 242.476 279.28 242.585 277.916 242.055C276.972 241.687 276.443 241.147 276.741 240.854C277.038 240.56 277.81 240.86 278.457 241.521ZM292.557 260.235C293.093 261.174 293.909 261.712 294.37 261.433C294.832 261.152 295.518 261.43 295.895 262.051C296.324 262.756 296.168 262.92 295.479 262.487C294.872 262.106 294.382 262.144 294.391 262.571C294.414 263.663 298.121 268.357 298.154 267.336C298.169 266.875 298.826 267.04 299.613 267.703C300.412 268.375 301.047 268.484 301.051 267.949C301.055 267.421 300.386 266.423 299.564 265.731C298.742 265.039 297.441 263.236 296.671 261.723C295.903 260.211 294.908 259.195 294.46 259.468C294.012 259.74 293.709 259.428 293.786 258.774C293.943 257.437 292.19 256.513 291.819 257.739C291.689 258.173 292.02 259.297 292.557 260.235ZM290.933 893.606C291.696 893.918 291.467 894.144 290.348 894.182C289.336 894.215 288.771 893.985 289.092 893.669C289.413 893.352 290.242 893.324 290.933 893.606ZM303.167 274.064C305.921 276.741 309.377 279.451 310.849 280.085C313.873 281.388 318.731 281.524 321.603 280.385C323.255 279.73 323.052 279.526 320.173 278.946C318.328 278.574 315.236 278.176 313.304 278.062C311.371 277.947 309.861 277.637 309.947 277.374C310.035 277.111 308.068 274.99 305.578 272.663C303.086 270.334 301.046 268.753 301.043 269.148C301.04 269.543 300.393 269.326 299.606 268.663C298.819 268 298.172 267.849 298.168 268.328C298.165 268.806 300.414 271.388 303.167 274.064ZM302.298 271.561C302.47 271.562 303.649 272.758 304.919 274.219L307.227 276.875L304.604 274.53C302.152 272.337 301.545 271.556 302.298 271.561ZM316.33 279.342C319.92 279.965 320.134 280.107 317.603 280.189C314.828 280.278 311.048 279.403 311.732 278.83C311.888 278.7 313.957 278.93 316.33 279.342ZM325.387 277.805C326.466 278.227 326.773 278.067 326.318 277.319C325.873 276.587 326.156 276.404 327.139 276.79C327.964 277.113 329.399 276.831 330.326 276.163C333.053 274.2 330.582 273.718 327.033 275.519C324.425 276.844 324.098 277.299 325.387 277.805ZM325.902 454.475C326.851 454.121 327.388 453.589 327.094 453.291C326.802 452.994 326.025 453.283 325.368 453.934C324.421 454.875 324.53 454.986 325.902 454.475ZM327.05 455.955C327.578 455.959 328.661 455.548 329.457 455.042C330.253 454.537 330.472 454.12 329.944 454.116C329.416 454.112 328.333 454.523 327.537 455.028C326.741 455.534 326.522 455.951 327.05 455.955ZM331.032 775.496C335.474 776.515 337.109 776.566 337.975 775.713C338.841 774.859 338.434 774.63 336.243 774.738C334.667 774.816 332.165 774.381 330.683 773.77C327.54 772.476 325.235 772.32 325.228 773.403C325.225 773.821 327.837 774.764 331.032 775.496ZM332.608 274.13C333.107 274.443 334.129 273.835 334.879 272.779C335.631 271.723 336.451 271.069 336.703 271.324C336.954 271.579 338.87 270.208 340.96 268.279C343.048 266.35 345.073 264.856 345.459 264.96C345.844 265.065 346.871 264.082 347.739 262.776C348.609 261.471 349.674 260.626 350.106 260.896C350.538 261.168 351.507 260.527 352.257 259.471C353.009 258.415 353.858 257.789 354.145 258.079C354.43 258.369 355.529 257.526 356.584 256.205C357.64 254.883 358.766 254.066 359.085 254.39C359.404 254.714 359.942 254.274 360.28 253.412C360.618 252.55 361.283 252.089 361.757 252.387C362.231 252.685 362.882 252.258 363.204 251.438C363.526 250.617 364.144 250.17 364.578 250.443C365.012 250.716 365.618 250.54 365.925 250.052C366.648 248.901 363.642 249.308 362.787 250.476C362.43 250.965 361.488 251.483 360.695 251.629C359.902 251.774 358.272 252.975 357.075 254.295C355.878 255.615 354.886 256.348 354.872 255.923C354.856 255.498 354.042 256.096 353.061 257.254C352.079 258.413 351.058 259.138 350.79 258.867C350.523 258.595 349.44 259.455 348.385 260.776C347.329 262.099 346.242 262.955 345.971 262.678C345.698 262.403 344.612 263.258 343.557 264.58C342.501 265.902 341.395 266.739 341.1 266.439C340.804 266.139 339.99 266.796 339.291 267.898C338.591 268.999 337.461 269.897 336.779 269.892C336.098 269.887 335.288 270.526 334.979 271.313C334.67 272.099 334.063 272.52 333.628 272.247C333.195 271.974 332.584 272.159 332.271 272.657C331.958 273.154 332.11 273.817 332.608 274.13ZM335.965 457.833C341.688 458.062 348.337 454.576 350.799 450.055C351.539 448.697 351.489 448.432 350.594 448.977C349.826 449.442 349.569 449.227 349.863 448.367C350.112 447.635 350.785 447.04 351.357 447.045C351.929 447.049 352.759 446.661 353.204 446.185C353.682 445.67 353.452 445.635 352.641 446.098C351.591 446.697 351.425 446.453 351.931 445.047C352.403 443.732 352.067 443.888 350.737 445.601C345.372 452.514 342.849 454.184 336.176 455.238C332.296 455.851 332.43 455.886 337.474 455.59C344.278 455.19 343.798 456.302 336.824 457.099L331.838 457.668L335.965 457.833ZM340.982 777.553C341.743 777.558 342.636 777.133 342.966 776.608C343.296 776.082 342.676 775.646 341.589 775.638C340.503 775.63 339.61 776.056 339.606 776.583C339.602 777.111 340.221 777.547 340.982 777.553ZM349.655 450.087C350.299 450.724 344.996 455.155 343.6 455.145C342.99 455.141 343.995 453.895 345.834 452.376C347.673 450.857 349.392 449.827 349.655 450.087ZM346.316 778.071C347.373 777.876 348.235 778.123 348.232 778.62C348.223 779.836 351.234 779.765 353.033 778.508C354.152 777.725 353.895 777.619 351.895 778.038C350.473 778.336 349.045 778.145 348.721 777.613C347.976 776.388 344.408 776.313 344.399 777.523C344.396 778.02 345.258 778.267 346.316 778.071ZM354.031 442.426C354.722 442.431 355.071 441.858 354.806 441.152C354.54 440.446 354.2 439.868 354.049 439.867C353.898 439.866 353.55 440.439 353.274 441.141C352.999 441.843 353.339 442.421 354.031 442.426ZM355.371 439.717C356.032 440.776 356.268 440.763 356.705 439.647C357.01 438.873 356.659 438.286 355.89 438.281C355.147 438.275 354.547 438.308 354.555 438.352C354.563 438.395 354.93 439.01 355.371 439.717ZM357.661 434.848C358.281 434.725 360.374 432.26 362.311 429.371C366.455 423.192 367.825 421.976 372.665 420.182C374.769 419.401 375.278 418.997 373.881 419.217C372.559 419.425 370.611 419.924 369.552 420.326C368.038 420.9 367.866 420.801 368.746 419.86C369.363 419.203 371.313 418.334 373.081 417.93C375.757 417.317 375.894 417.175 373.896 417.082C370.335 416.916 365.824 420.037 362.265 425.129C360.528 427.612 359.664 429.306 360.346 428.892C361.177 428.387 361.421 428.577 361.09 429.469C360.818 430.2 360.17 430.707 359.65 430.596C359.131 430.485 358.216 431.446 357.62 432.732C356.801 434.493 356.811 435.015 357.661 434.848ZM356.379 780.514C357.435 780.521 358.95 780.114 359.746 779.608C360.943 778.846 360.862 778.687 359.272 778.675C358.216 778.667 356.701 779.075 355.905 779.58C354.707 780.342 354.789 780.502 356.379 780.514ZM365.966 421.511C368.624 419.321 367.733 421.456 364.48 425.069C361.165 428.752 361.111 428.773 362.892 425.703C363.907 423.954 365.289 422.068 365.966 421.511ZM360.268 906.144C361.324 906.152 363.055 905.794 364.114 905.348L366.04 904.538L364.12 904.524C363.064 904.516 361.333 904.874 360.274 905.32L358.348 906.131L360.268 906.144ZM365.016 781.034C367.652 780.661 368.436 780.782 367.511 781.417C365.386 782.874 378.971 784.073 398.596 784.158C413.524 784.223 416.794 783.956 422.612 782.201C429.851 780.019 431.966 778.642 440.283 770.699C446.523 764.74 452.874 761.62 461.655 760.2C465.714 759.543 492.789 759.285 538.947 759.464C578.022 759.615 598.973 759.917 585.506 760.136C567.801 760.424 576.174 760.654 615.743 760.966C675.437 761.435 681.954 761.952 691.719 766.987C694.362 768.349 698.973 771.889 701.966 774.853C712.869 785.648 721.81 788.472 745.634 788.645C761.522 788.76 784.425 786.972 783.659 785.676C783.465 785.348 785.433 785.016 788.035 784.939C793.502 784.776 825.669 778.608 829.245 777.037C830.569 776.455 831.968 776.054 832.354 776.145C834.095 776.559 842.804 774.194 842.084 773.502C841.053 772.511 826.022 775.599 827.007 776.6C827.413 777.011 827.044 777.072 826.189 776.737C825.333 776.401 821.888 776.75 818.532 777.509C815.176 778.27 808.429 779.629 803.538 780.531C798.646 781.432 794.642 782.548 794.639 783.01C794.635 783.473 793.839 783.594 792.868 783.278C791.898 782.963 786.17 783.385 780.14 784.216C773.371 785.149 762.75 785.698 752.376 785.65C738.179 785.583 734.401 785.247 728.004 783.479C723.839 782.328 720.177 781.001 719.864 780.529C719.552 780.058 717.899 778.846 716.189 777.836C714.48 776.826 713.086 775.518 713.09 774.929C713.095 774.341 712.022 773.274 710.707 772.558C709.392 771.842 708.321 770.682 708.326 769.979C708.331 769.277 707.985 768.7 707.556 768.697C707.127 768.693 705.904 767.867 704.838 766.859C700.06 762.344 689.834 759.369 675.767 758.402C670.753 758.056 634.247 757.902 594.642 758.058C549.991 758.234 522.402 757.998 522.025 757.438C521.668 756.909 507.175 756.385 486.991 756.174C452.903 755.815 452.496 755.834 445.349 758.111C437.152 760.724 437.702 760.373 429.219 768.406C422.342 774.916 417.605 777.703 410.17 779.612C402.751 781.516 388.235 782.017 375.682 780.802C368.122 780.071 363.749 780.015 362.722 780.638C361.613 781.31 362.267 781.422 365.016 781.034ZM369.139 247.435C369.539 247.686 370.896 247.352 372.154 246.691C373.594 245.934 374.046 245.241 373.375 244.82C372.789 244.452 371.433 244.612 370.363 245.175C368.253 246.284 368.013 246.728 369.139 247.435ZM368.901 907.219C369.957 907.198 371.688 906.816 372.747 906.37C374.512 905.628 374.472 905.554 372.274 905.49C370.954 905.45 369.223 905.833 368.427 906.339C367.233 907.098 367.315 907.252 368.901 907.219ZM377.137 243.835C377.697 244.187 378.364 244.271 378.617 244.021C378.871 243.772 378.413 243.307 377.6 242.988C375.914 242.327 375.612 242.878 377.137 243.835ZM377.73 781.956C378.652 782.204 377.895 782.396 376.047 782.383C374.199 782.369 373.445 782.166 374.37 781.932C375.295 781.697 376.808 781.708 377.73 781.956ZM374.279 908.24C375.129 908.279 382.252 908.994 390.109 909.827C426.165 913.651 468.436 914.771 507.591 912.939C535.456 911.636 579.048 912.173 617.991 914.3C637.262 915.353 663.795 916.068 684.224 916.086L718.307 916.116L689.03 915.348C660.035 914.589 660.156 914.584 701.515 914.843C749.919 915.145 760.129 914.363 819.655 905.793C852.128 901.117 857.171 900.445 865.054 899.745C868.608 899.43 871.332 898.87 871.107 898.501C870.882 898.131 874.243 897.971 878.574 898.145L886.449 898.459L877.833 897.447C872.572 896.827 869.1 896.778 868.914 897.32C868.747 897.808 866.621 897.968 864.19 897.677C861.142 897.31 859.967 897.472 860.407 898.195C860.845 898.914 859.936 899.055 857.518 898.645C854.82 898.187 854.166 898.333 854.732 899.264C855.295 900.188 854.772 900.322 852.559 899.819C849.737 899.178 804.382 905.378 803.344 906.547C803.077 906.846 800.699 907.117 798.059 907.147C795.418 907.178 783.745 908.266 772.119 909.565C760.493 910.863 745.268 912.179 738.285 912.489C731.304 912.798 725.751 913.313 725.946 913.632C726.141 913.951 710.683 913.831 691.594 913.364C666.614 912.754 648.955 911.766 628.584 909.839C588.277 906.026 566.968 905.366 537.397 907.016C484.54 909.964 476.341 910.238 446.647 910.05C425.498 909.916 409.947 909.299 396.737 908.069C383.381 906.826 376.817 906.57 375.141 907.225C373.705 907.788 373.357 908.197 374.279 908.24ZM379.519 242.734C380.373 243.07 382.011 243.307 383.156 243.262C384.472 243.209 384.007 242.879 381.891 242.366C378.328 241.502 376.928 241.719 379.519 242.734ZM379.651 417.83C380.971 417.84 381.513 417.626 380.855 417.355C380.197 417.084 379.117 417.076 378.455 417.338C377.793 417.599 378.331 417.821 379.651 417.83ZM380.196 419.891C381.209 419.889 382.688 419.456 383.484 418.925C384.54 418.222 384.153 418.13 382.046 418.585C378.51 419.349 377.74 419.892 380.196 419.891ZM383.332 241.254C384.916 241.247 385.45 241.036 384.517 240.785C383.585 240.535 382.289 240.542 381.637 240.8C380.985 241.058 381.748 241.262 383.332 241.254ZM383.52 907.703C384.453 907.953 383.919 908.164 382.335 908.172C380.751 908.18 379.988 907.975 380.64 907.717C381.292 907.459 382.588 907.452 383.52 907.703ZM384.373 420.895C384.87 420.899 385.543 420.476 385.87 419.957C386.209 419.416 385.826 419.252 384.969 419.573C383.302 420.199 382.992 420.885 384.373 420.895ZM389.388 243.707C390.914 244.024 393.593 245.503 395.341 246.996C397.089 248.488 398.751 249.57 399.034 249.4C399.317 249.231 399.72 249.617 399.929 250.26C400.138 250.902 399.875 251.155 399.343 250.822C398.418 250.241 402.866 261.599 408.318 273.738C412.753 283.614 418.445 288.747 424.943 288.734C429.112 288.726 438.776 284.776 438.449 283.216C438.308 282.547 438.625 282.272 439.154 282.603C440.244 283.288 466.198 266.321 466.208 264.916C466.216 263.801 466.477 263.649 452.307 272.95C445.984 277.1 438.49 281.538 435.653 282.81C429.116 285.746 422.657 285.835 418.935 283.042C415.525 280.484 414.394 280.437 416.633 282.946C417.58 284.008 418.154 284.876 417.907 284.875C417.66 284.873 416.199 283.475 414.661 281.769C413.122 280.063 412.616 279.248 413.534 279.959C414.453 280.669 415.208 280.82 415.212 280.292C415.22 279.202 413.311 277.408 411.874 277.156C411.347 277.063 410.701 276.737 410.439 276.43C410.178 276.123 410.502 276.187 411.158 276.572C412.852 277.562 412.639 276.16 410.625 273.059C409.676 271.596 408.536 270.724 408.092 271.121C407.65 271.518 407.568 271.076 407.913 270.139C408.727 267.924 405.879 260.606 404.523 261.431C403.879 261.822 403.73 261.46 404.122 260.462C404.938 258.379 403.952 255.82 402.638 256.619C401.987 257.014 401.848 256.64 402.258 255.595C403.878 251.465 394.796 240.527 389.784 240.571C387.436 240.591 387.539 240.726 390.831 241.927C394.66 243.323 398.179 246.016 398.168 247.541C398.164 248.034 396.84 247.31 395.225 245.931C392.351 243.479 388.022 241.742 387.084 242.666C386.824 242.922 387.861 243.391 389.388 243.707ZM397.884 783.018C400.39 783.234 398.338 783.381 393.321 783.345C388.305 783.308 386.255 783.131 388.764 782.952C391.273 782.772 395.378 782.802 397.884 783.018ZM393.246 425.378C394.973 426.282 399.395 429.064 403.074 431.557C411.916 437.554 412.15 437.683 412.158 436.536C412.167 435.337 397.957 425.472 396.203 425.459C395.518 425.454 394.96 425.105 394.963 424.685C394.972 423.392 391.322 421.799 390.683 422.817C390.366 423.321 391.52 424.473 393.246 425.378ZM401.015 252.125C401.521 252.921 401.932 254.003 401.928 254.531C401.924 255.059 401.507 254.84 401.001 254.045C400.495 253.249 400.084 252.167 400.088 251.639C400.092 251.111 400.509 251.33 401.015 252.125ZM405.587 909.782C406.52 910.032 405.986 910.243 404.402 910.251C402.818 910.259 402.055 910.055 402.707 909.796C403.359 909.538 404.655 909.531 405.587 909.782ZM413.501 780.843C419.589 779.653 424.303 777.481 428.432 773.962C430.026 772.604 431.654 771.495 432.051 771.497C432.447 771.5 432.774 771.008 432.779 770.406C432.791 768.768 437.964 764.213 442.137 762.166C446.115 760.215 454.916 757.873 455.612 758.578C455.848 758.817 454.603 759.313 452.847 759.679C447.231 760.85 440.667 764.717 434.763 770.331C431.603 773.335 428.272 776.407 427.358 777.158C424.731 779.32 415.463 781.965 409.17 782.35C406 782.544 404.488 782.517 405.81 782.29C407.132 782.063 410.593 781.412 413.501 780.843ZM418.6 441.899C425.883 446.648 433.135 450.996 433.777 451.001C435.716 451.015 432.279 448.344 423.393 442.927C412.719 436.423 408.963 435.616 418.6 441.899ZM422.388 910.85C423.58 911.088 422.828 911.279 420.716 911.274C418.604 911.27 417.628 911.074 418.547 910.841C419.467 910.608 421.195 910.612 422.388 910.85ZM440.589 454.715C458.825 463.908 476.983 467.837 485.37 464.406C490.82 462.176 491.965 458.697 491.9 444.562C491.793 420.894 496.317 418.035 524.097 424.219C537.18 427.131 537.369 427.156 536.552 425.811C536.22 425.268 535.442 424.908 534.821 425.013C534.2 425.118 532.007 424.697 529.949 424.079C527.89 423.461 525.871 423.159 525.46 423.41C525.049 423.659 524.427 423.393 524.077 422.818C523.727 422.244 522.849 421.995 522.125 422.266C521.401 422.539 520.534 422.308 520.197 421.755C519.86 421.201 518.768 420.956 517.769 421.21C516.653 421.493 516.196 421.283 516.584 420.666C516.989 420.021 516.314 419.826 514.703 420.123C513.321 420.376 512.064 420.197 511.91 419.724C511.756 419.252 508.613 418.615 504.926 418.309C499.285 417.84 497.732 418.056 495.135 419.672C489.747 423.021 488.695 426.287 488.004 441.798C487.314 457.327 486.611 459.429 481.396 461.562C477.727 463.063 462.867 462.946 462.868 461.416C462.868 460.959 462.024 460.798 460.991 461.06C459.958 461.322 458.987 461.253 458.832 460.906C458.362 459.857 445.408 454.947 444.524 455.484C444.07 455.76 443.704 455.502 443.708 454.911C443.712 454.321 443.282 454.102 442.751 454.425C442.221 454.747 441.79 454.634 441.793 454.172C441.796 453.712 440.292 452.602 438.451 451.708C436.609 450.813 435.099 450.501 435.095 451.013C435.092 451.524 437.563 453.19 440.589 454.715ZM437.377 578.527C439.572 580.375 460.652 582.906 469.765 582.416C484.68 581.613 490.493 577.223 488.864 567.993C488.492 565.879 487.92 561.524 487.596 558.315C487.05 552.935 487.204 552.249 489.576 549.472C493.375 545.025 497.826 544.193 516.505 544.436C525.481 544.553 534.556 544.277 536.671 543.822C539.702 543.172 538.956 543.077 533.148 543.375C528.323 543.623 525.66 543.391 525.438 542.705C525.209 542.006 519.193 541.569 507.372 541.393C488.804 541.116 484.882 541.797 481.431 545.892C480.055 547.525 479.825 553.385 480.699 564.5C481.32 572.397 479.788 575.192 473.662 577.337C468.431 579.168 451.177 579.35 442.42 577.665C436.502 576.527 435.255 576.741 437.377 578.527ZM460.756 912.055C464.076 912.266 461.607 912.404 455.271 912.36C448.935 912.316 446.219 912.143 449.236 911.975C452.253 911.806 457.437 911.843 460.756 912.055ZM461.793 757.512C464.953 757.86 464.932 757.88 460.974 758.319C458.742 758.565 457.284 758.405 457.734 757.961C458.185 757.517 460.01 757.316 461.793 757.512ZM471.745 262.602C474.263 261.195 476.869 259.386 477.535 258.582C478.201 257.778 478.743 257.394 478.741 257.729C478.739 258.064 481.989 256.884 485.964 255.108C499.445 249.086 507.936 246.807 524.198 244.848C530.016 244.147 530.153 242.507 524.399 242.465C521.992 242.447 520.22 242.759 520.461 243.156C520.702 243.553 518.698 243.896 516.007 243.917C513.316 243.939 510.957 244.415 510.766 244.977C510.574 245.539 509.575 245.772 508.546 245.494C507.474 245.206 506.672 245.473 506.668 246.119C506.663 246.74 506.22 246.972 505.683 246.634C504.405 245.832 495.127 248.843 495.118 250.063C495.114 250.58 494.714 250.752 494.227 250.447C493.072 249.722 488.385 251.825 488.376 253.073C488.372 253.605 488.119 253.786 487.814 253.477C487.027 252.677 481.262 255.17 473.687 259.586C466.378 263.847 464.612 266.587 471.745 262.602ZM476.013 578.859C481.049 577.321 485.572 571.033 484.198 567.479C484.095 567.214 483.872 565.519 483.701 563.712C483.53 561.904 483.167 558.738 482.894 556.675C481.917 549.31 485.915 544.193 493.472 543.129C497.299 542.591 497.296 542.595 492.622 544.191C484.714 546.89 482.957 551.84 485.518 564.197C486.218 567.578 486.395 570.908 485.938 572.117C485.503 573.264 485.367 574.205 485.634 574.207C485.902 574.208 485.325 575.053 484.352 576.081C481.818 578.76 476.091 580.876 471.869 580.693C469.337 580.584 468.965 580.42 470.642 580.151C471.963 579.939 474.38 579.358 476.013 578.859ZM484.755 461.253C488.341 458.618 490.058 453.028 489.487 445.851C489.187 442.08 489.353 440.031 489.93 440.393C490.437 440.712 490.829 444.228 490.801 448.208C490.711 460.548 486.872 464.97 476.551 464.626L471.961 464.473L477.139 463.76C479.987 463.367 483.415 462.239 484.755 461.253ZM489.282 756.808C492.317 757.02 489.832 757.159 483.76 757.115C477.687 757.071 475.204 756.896 478.242 756.728C481.28 756.56 486.247 756.596 489.282 756.808ZM514.336 909.614C543.327 907.815 572.902 908.066 607.458 910.404C621.973 911.386 634.495 912.365 635.285 912.581C636.076 912.797 630.244 912.627 622.327 912.204C604.203 911.235 541.216 910.755 507.123 911.325C492.864 911.564 483.359 911.605 486.001 911.417C488.642 911.228 501.393 910.417 514.336 909.614ZM489.936 435.095C490.464 435.099 490.892 435.534 490.889 436.062C490.885 436.589 490.45 437.018 489.922 437.014C489.394 437.01 488.965 436.575 488.969 436.048C488.972 435.52 489.408 435.091 489.936 435.095ZM490.965 427.426C491.636 426.418 491.729 426.988 491.278 429.347C490.489 433.48 489.937 434.256 489.978 431.177C489.996 429.902 490.44 428.214 490.965 427.426ZM495.759 420.765C496.772 420.232 498.17 419.836 498.863 419.882C499.733 419.94 499.677 420.127 498.682 420.48C497.888 420.763 495.986 422.118 494.455 423.493C491.909 425.779 491.768 425.811 492.795 423.863C493.412 422.692 494.746 421.298 495.759 420.765ZM505.154 419.187C506.086 419.437 505.553 419.649 503.969 419.656C502.385 419.664 501.622 419.46 502.274 419.201C502.926 418.943 504.222 418.936 505.154 419.187ZM509.082 542.023C510.533 542.253 509.343 542.424 506.439 542.403C503.535 542.382 502.347 542.193 503.802 541.984C505.256 541.775 507.631 541.792 509.082 542.023ZM534.863 245.605C540.475 246.323 544.46 249.085 544.846 252.521C545.016 254.041 543.36 258.686 540.681 264.199C534.429 277.065 535.107 277.775 541.551 265.108C547.602 253.214 548.081 250.374 544.513 247.527C542.013 245.532 535.239 243.969 531.993 244.638C531.005 244.842 532.297 245.276 534.863 245.605ZM536.033 291.15C539.014 296.118 542.692 296.804 559.249 295.484C567.634 294.816 577.291 294.646 582.84 295.07C588.007 295.465 596.589 296.082 601.911 296.441L611.586 297.094L614.741 294.318C620.432 289.31 619.981 280.656 613.272 266.14C611.123 261.487 609.92 257.408 609.89 254.672C609.849 250.805 610.146 250.251 613.22 248.464C616.054 246.816 618.131 246.523 626.194 246.638C639.069 246.821 648.433 249.186 665.725 256.624C666.384 256.907 666.925 256.74 666.928 256.254C666.937 255.047 660.327 251.919 659.208 252.599C658.714 252.9 658.313 252.707 658.317 252.171C658.326 250.958 644.894 246.525 635.485 244.633C627.128 242.954 612.385 242.691 607.063 244.127C602.068 245.473 598.89 247.824 598.836 250.213C598.812 251.275 600.985 255.393 603.666 259.364C615.732 277.243 617.346 290.398 607.759 292.733C605.465 293.292 563.925 293.188 545.86 292.579C544.631 292.538 542.315 291.174 540.713 289.549C538.019 286.817 537.842 286.219 538.362 281.615C539.098 275.089 541.821 269.089 548.428 259.417C551.972 254.23 553.727 250.748 553.528 249.298C553.061 245.901 547.93 243.418 540.489 242.989L534.055 242.618L539.611 243.547C545.947 244.606 550.475 246.97 551.133 249.56C551.557 251.23 548.145 258.669 545.515 261.81C541.224 266.933 537.164 277.367 537.12 283.381C537.089 287.718 539.601 291.94 543.179 293.562C544.816 294.304 544.654 294.368 542.324 293.895C538.073 293.033 536.263 290.67 535.329 284.767L534.493 279.483L534.353 283.8C534.264 286.53 534.882 289.232 536.033 291.15ZM535.893 278.233C536.175 277.543 536.147 276.715 535.83 276.394C535.514 276.073 535.283 276.637 535.317 277.649C535.355 278.767 535.581 278.996 535.893 278.233ZM539.913 427.781C541.705 427.794 541.963 427.54 541.073 426.638C540.184 425.736 539.671 425.732 538.769 426.621C537.867 427.51 538.121 427.768 539.913 427.781ZM546.259 545.619C549.955 545.662 555.573 545.396 558.744 545.026L564.51 544.353L557.31 544.255C553.35 544.2 547.731 544.468 544.824 544.848L539.539 545.539L546.259 545.619ZM544.706 428.775C545.234 428.779 545.669 428.35 545.673 427.823C545.677 427.295 545.248 426.86 544.72 426.856C544.192 426.852 543.757 427.281 543.753 427.809C543.749 428.336 544.178 428.771 544.706 428.775ZM550.239 294.769C551.16 295.017 550.403 295.209 548.555 295.196C546.707 295.182 545.953 294.979 546.878 294.745C547.804 294.51 549.317 294.521 550.239 294.769ZM551.476 429.784C552.563 429.792 553.189 429.364 552.866 428.834C552.544 428.304 551.658 427.866 550.897 427.86C550.135 427.855 549.51 428.282 549.506 428.81C549.502 429.338 550.389 429.776 551.476 429.784ZM559.149 430.799C560.863 430.812 561.842 430.419 561.5 429.857C561.177 429.326 559.859 428.885 558.57 428.876C557.281 428.866 556.223 429.291 556.22 429.818C556.216 430.346 557.535 430.787 559.149 430.799ZM561.226 293.895C561.989 294.207 561.76 294.433 560.641 294.47C559.629 294.504 559.064 294.274 559.385 293.958C559.706 293.641 560.535 293.613 561.226 293.895ZM566.05 431.204C569.621 432.188 585.809 432.024 586.454 430.997C586.841 430.38 582.951 430.012 575.477 429.958C569.11 429.912 563.899 430.04 563.897 430.242C563.896 430.444 564.865 430.877 566.05 431.204ZM592.816 546.56C644.311 545.45 650.979 545.949 655.885 551.277C658.16 553.748 658.233 554.2 657.462 561.059C656.003 574.03 656.063 577.557 657.778 579.423C661.063 582.999 666.504 584.407 678.466 584.776L689.985 585.131L679.43 584.299C664.051 583.084 659.496 580.476 659.245 572.737C659.167 570.382 659.489 567.336 659.959 565.969C661.517 561.436 661.763 554.037 660.443 551.438C659.351 549.291 655.758 547.094 650.43 545.315C649.457 544.991 649.613 544.823 650.914 544.795C654.565 544.718 660.936 548.402 662.011 551.212C663.48 555.054 663.566 556.186 662.721 560.557C660.262 573.273 660.626 575.795 665.417 579.257C666.994 580.398 670.579 581.735 673.382 582.228C679.811 583.359 699.634 584.392 695.758 583.394C694.177 582.987 689.388 582.577 685.116 582.484C675.475 582.273 668.796 580.295 665.776 576.754C663.317 573.873 663.317 573.866 665.534 559.048C666.594 551.964 664.85 547.936 659.551 545.24C656.219 543.545 653.805 543.28 640.845 543.186C619.747 543.033 582.332 544.53 588.985 545.261C592.107 545.604 588.231 545.857 579.495 545.881C571.374 545.903 564.459 546.207 564.129 546.556C563.799 546.905 576.708 546.906 592.816 546.56ZM590.294 430.988C595.547 431.064 603.263 429.905 603.269 429.04C603.277 428.038 590.984 428.987 588.86 430.152C587.826 430.72 588.233 430.957 590.294 430.988ZM590.987 294.111C591.75 294.423 591.521 294.648 590.402 294.686C589.39 294.72 588.825 294.49 589.146 294.173C589.467 293.857 590.296 293.829 590.987 294.111ZM605.429 295.152C606.622 295.39 605.87 295.582 603.757 295.577C601.645 295.572 600.669 295.377 601.589 295.144C602.508 294.91 604.236 294.914 605.429 295.152ZM605.925 247.352C607.196 246.534 609.903 245.661 611.94 245.411L615.646 244.959L611.807 246.38C607.656 247.915 605.527 250.093 605.508 252.825C605.501 253.775 607.674 258.911 610.338 264.238C613.002 269.566 614.971 274.131 614.715 274.385C614.458 274.638 613.687 273.465 613.002 271.779C612.317 270.091 609.917 265.428 607.668 261.416C602.972 253.039 602.538 249.537 605.925 247.352ZM605.519 429.216C606.228 429.221 613.258 427.95 621.14 426.391C643.719 421.926 650.86 422.458 654.692 428.894C656.274 431.551 656.526 433.876 656.485 445.419C656.458 452.808 656.763 459.981 657.159 461.36C658.351 465.5 664.014 468.051 671.764 467.936L678.354 467.839L671.159 467.159C662.992 466.387 660.114 464.937 658.74 460.906C657.639 457.673 657.559 439.524 658.643 438.868C659.041 438.628 659.333 443.031 659.292 448.653C659.185 463.464 661.023 465.446 675.825 466.471C679.948 466.757 682.345 466.614 681.588 466.126C680.876 465.668 677.701 465.261 674.533 465.223C667.98 465.142 665.022 463.905 662.216 460.071C660.458 457.668 660.264 455.994 660.322 443.744C660.382 431.164 660.21 429.781 658.134 426.098C655.466 421.364 652.863 419.964 646.654 419.919C640.925 419.877 631.053 421.727 631.662 422.727C631.911 423.137 631.331 423.262 630.374 423.004C629.417 422.746 625.198 423.373 621.001 424.396C616.805 425.42 611.316 426.539 608.805 426.881C606.295 427.225 604.238 427.889 604.234 428.357C604.231 428.824 604.809 429.211 605.519 429.216ZM615.747 289.789C615.98 290.017 615.154 291.157 613.91 292.321L611.65 294.436L613.487 291.905C614.497 290.512 615.514 289.56 615.747 289.789ZM615.631 544.741C616.553 544.988 615.796 545.18 613.948 545.167C612.1 545.153 611.346 544.95 612.271 544.716C613.196 544.481 614.709 544.492 615.631 544.741ZM615.888 277.674C616.301 278.997 616.601 282.021 616.553 284.396L616.467 288.714L615.843 283.911C614.937 276.934 614.954 274.682 615.888 277.674ZM625.01 244.42C626.725 244.644 625.319 244.809 621.887 244.784C618.455 244.759 617.052 244.574 618.77 244.375C620.488 244.174 623.295 244.194 625.01 244.42ZM642.014 543.93C644.271 544.149 642.661 544.306 638.437 544.278C634.212 544.252 632.367 544.072 634.334 543.88C636.302 543.688 639.758 543.71 642.014 543.93ZM646.759 421.16C647.951 421.398 647.199 421.589 645.087 421.585C642.975 421.58 641.999 421.385 642.918 421.151C643.838 420.918 645.566 420.922 646.759 421.16ZM651.36 913.45C653.339 913.671 651.718 913.829 647.757 913.8C643.797 913.771 642.179 913.59 644.16 913.398C646.142 913.205 649.382 913.229 651.36 913.45ZM660.604 759.009C663.923 759.22 661.455 759.357 655.118 759.313C648.782 759.269 646.066 759.096 649.083 758.928C652.1 758.76 657.284 758.796 660.604 759.009ZM653.549 423.307C656.33 425.156 658.99 430.346 658.818 433.586C658.745 434.969 658.365 434.298 657.833 431.848C657.002 428.019 653.098 422.844 651.028 422.829C650.483 422.825 650.291 422.573 650.6 422.27C650.908 421.966 652.235 422.433 653.549 423.307ZM669.314 258.257C670.104 258.566 670.752 258.447 670.756 257.993C670.759 257.539 670.116 256.913 669.326 256.603C668.536 256.294 667.887 256.413 667.884 256.867C667.88 257.322 668.524 257.947 669.314 258.257ZM676.485 262.28C678.063 263.11 679.357 263.393 679.361 262.908C679.367 262.101 676.515 260.525 675.643 260.855C675.437 260.932 674.908 260.417 674.466 259.708C673.888 258.782 673.656 258.75 673.639 259.596C673.626 260.242 674.907 261.45 676.485 262.28ZM679.354 760.252C691.055 761.532 700.93 765.078 704.593 769.315C705.435 770.289 706.975 771.784 708.017 772.638C709.059 773.493 710.513 775.034 711.249 776.064C714.063 780 727.277 785.925 734.015 786.273C735.775 786.363 736.001 786.535 734.769 786.843C731.805 787.586 721.177 785.222 715.432 782.543C711.926 780.908 707.735 777.69 703.649 773.496C700.161 769.915 696.015 766.318 694.437 765.501C691.176 763.814 679.008 760.813 675.32 760.786C673.973 760.776 672.871 760.493 672.874 760.156C672.876 759.819 675.793 759.862 679.354 760.252ZM685.088 267.529C687.716 269.172 689.87 270.079 689.874 269.545C689.878 269.011 688.697 268.043 687.249 267.395C685.801 266.747 684.403 265.991 684.141 265.714C682.407 263.883 680.322 262.703 680.316 263.548C680.312 264.095 682.46 265.887 685.088 267.529ZM684.168 465.653C686.575 466.596 687.2 466.328 685.262 465.183C684.302 464.616 683.314 464.352 683.065 464.598C682.816 464.843 683.312 465.319 684.168 465.653ZM687.179 464.674C687.527 465.029 688.26 465.322 688.806 465.326C689.407 465.33 689.354 464.883 688.67 464.19C688.05 463.56 687.317 463.267 687.043 463.538C686.767 463.808 686.829 464.32 687.179 464.674ZM691.776 271.987C692.302 272.317 692.735 272.155 692.739 271.628C692.743 271.1 692.316 270.398 691.79 270.068C691.264 269.738 690.831 269.9 690.827 270.428C690.823 270.955 691.25 271.657 691.776 271.987ZM691.341 464.385C691.869 464.388 692.304 463.96 692.308 463.432C692.311 462.904 691.883 462.469 691.355 462.465C690.827 462.462 690.391 462.89 690.388 463.418C690.384 463.946 690.813 464.381 691.341 464.385ZM695.119 274.41C695.906 275.073 696.553 275.264 696.556 274.834C696.559 274.405 697.19 274.897 697.957 275.927C698.726 276.956 699.371 277.38 699.391 276.866C699.412 276.354 700.099 276.906 700.918 278.093C701.738 279.281 702.767 280.035 703.206 279.768C703.644 279.501 704.269 279.993 704.595 280.86C704.92 281.726 705.421 282.205 705.706 281.923C705.992 281.642 707.22 282.42 708.435 283.653C711.246 286.503 720.976 291.525 725.336 292.376C729.872 293.26 736.023 290.733 739.144 286.705C740.504 284.949 741.618 283.305 741.62 283.053C741.628 281.927 738.76 283.174 735.909 285.537C729.991 290.442 723.018 290.186 713.385 284.71C709.934 282.748 706.816 281.196 706.457 281.26C706.096 281.324 705.417 280.678 704.947 279.826C704.478 278.972 703.708 278.508 703.237 278.794C702.766 279.081 701.911 278.424 701.338 277.334C700.765 276.245 699.929 275.577 699.482 275.849C699.033 276.121 698.4 275.636 698.074 274.769C697.749 273.903 697.21 273.462 696.875 273.791C696.542 274.119 695.705 273.635 695.017 272.715C694.327 271.795 693.747 271.528 693.726 272.124C693.704 272.719 694.332 273.747 695.119 274.41ZM693.913 462.804C694.261 463.158 694.994 463.451 695.54 463.455C696.141 463.46 696.088 463.012 695.404 462.319C694.784 461.69 694.052 461.397 693.777 461.667C693.501 461.938 693.563 462.45 693.913 462.804ZM699.906 582.858C702.183 583.299 704.286 583.422 704.578 583.134C705.378 582.347 700.615 581.311 698.028 581.71C696.359 581.968 696.851 582.268 699.906 582.858ZM698.959 461.027C700.104 461.747 702.889 460.675 702.897 459.511C702.901 459.008 703.334 458.867 703.859 459.197C704.385 459.528 704.818 459.34 704.822 458.781C704.833 457.378 703.305 457.498 701.761 459.019C701.053 459.716 699.939 460.105 699.285 459.881C697.909 459.412 697.678 460.224 698.959 461.027ZM705.578 581.93C708.296 582.844 719.727 580.747 718.547 579.55C718.028 579.023 714.835 579.181 710.567 579.943C705.177 580.908 703.969 581.388 705.578 581.93ZM706.295 458.735C707.983 458.748 716.366 453.775 716.311 452.794C716.259 451.879 716.131 451.883 715.749 452.812C715.477 453.473 714.861 453.767 714.38 453.465C713.899 453.163 713.502 453.399 713.498 453.99C713.494 454.58 713.094 454.814 712.612 454.511C712.128 454.207 711.097 454.585 710.32 455.351C709.542 456.117 708.641 456.474 708.316 456.146C707.992 455.816 707.722 456.076 707.718 456.723C707.713 457.37 707.279 457.629 706.753 457.299C706.228 456.969 705.794 457.157 705.79 457.715C705.786 458.274 706.013 458.733 706.295 458.735ZM721.199 451.167C723.319 450.105 725.057 448.813 725.06 448.297C725.064 447.779 725.414 447.466 725.838 447.602C727.067 447.993 738.556 440.731 738.565 439.559C738.569 438.975 738.816 438.746 739.116 439.048C739.414 439.351 744.239 436.868 749.838 433.53C759.654 427.677 767.268 424.632 772.001 424.666C775.719 424.693 780.338 427.142 783.218 430.615C784.71 432.412 786.263 433.886 786.67 433.889C787.077 433.892 787.767 434.29 788.204 434.773C788.665 435.284 788.497 435.36 787.802 434.954C786.23 434.034 786.289 434.814 788.06 438.296C788.862 439.876 789.905 440.935 790.376 440.648C790.847 440.362 791.541 440.636 791.919 441.256C792.348 441.961 792.192 442.125 791.503 441.692C790.062 440.788 790.106 441.439 791.758 445.472C793.072 448.68 794.977 450.386 793.827 447.325C793.504 446.466 793.669 446.084 794.214 446.427C794.736 446.755 794.909 448.003 794.599 449.2C793.964 451.653 798.426 458.28 803.046 461.747C807.063 464.76 815.926 464.491 823.429 461.125C830.699 457.864 850.296 445.067 852.273 442.291C853.096 441.133 853.768 440.479 853.766 440.837C853.763 441.195 856.959 439.264 860.867 436.544C864.775 433.825 868.765 431.142 869.735 430.584C871.139 429.774 871.236 429.403 870.21 428.759C869.289 428.181 869.144 428.314 869.701 429.228C870.268 430.161 870.038 430.333 868.847 429.866C867.84 429.471 867.007 429.767 866.663 430.641C866.359 431.419 865.721 431.812 865.247 431.514C864.773 431.216 864.121 431.643 863.8 432.463C863.478 433.283 862.859 433.73 862.425 433.458C861.99 433.184 861.02 433.825 860.269 434.88C859.517 435.936 858.65 436.542 858.34 436.228C858.03 435.914 857.204 436.559 856.505 437.661C855.804 438.762 854.704 439.66 854.057 439.655C853.41 439.651 852.407 440.52 851.826 441.585C851.245 442.651 850.358 443.266 849.855 442.95C849.352 442.634 848.676 443.049 848.354 443.872C848.031 444.694 847.19 445.363 846.484 445.358C845.779 445.353 844.591 446.205 843.847 447.252C843.102 448.299 842.219 448.879 841.885 448.54C841.552 448.201 841.001 448.63 840.664 449.491C840.325 450.353 839.661 450.815 839.187 450.517C838.712 450.219 838.061 450.646 837.74 451.466C837.418 452.286 836.767 452.713 836.293 452.415C835.818 452.117 835.167 452.544 834.845 453.364C834.524 454.184 833.892 454.623 833.441 454.339C832.989 454.056 831.842 454.59 830.892 455.526C829.942 456.462 828.732 457.248 828.204 457.274C825.421 457.409 822.042 458.944 822.58 459.829C822.918 460.384 822.783 460.58 822.279 460.265C821.775 459.948 819.547 460.084 817.328 460.565C806.909 462.826 801.612 458.481 792.062 439.841C787.396 430.733 785.171 427.451 781.99 424.99C774.214 418.972 766.079 420.866 746.723 433.2C741.71 436.394 737.605 439.467 737.601 440.028C737.597 440.591 737.338 440.789 737.025 440.472C736.279 439.716 727.002 445.336 726.993 446.55C726.989 447.063 726.572 447.223 726.065 446.906C725.559 446.587 724.259 447.2 723.175 448.268C722.092 449.335 721.208 449.976 721.21 449.694C721.212 449.411 720.346 449.636 719.286 450.193C715.566 452.149 717.387 453.075 721.199 451.167ZM720.214 579.23C721.087 579.78 721.725 579.704 721.958 579.023C722.159 578.433 722.895 578.174 723.594 578.448C724.918 578.967 740.48 574.687 743.838 572.88C744.899 572.31 746.091 571.776 746.487 571.694C746.883 571.612 747.316 571.459 747.45 571.354C747.583 571.249 748.517 571.014 749.527 570.832C753.488 570.118 768.382 564.459 768.387 563.665C768.391 563.202 767.961 562.82 767.433 562.816C766.905 562.812 766.471 563.132 766.467 563.529C766.464 563.925 765.47 564.298 764.259 564.358C763.047 564.419 760.124 565.323 757.764 566.367C753.448 568.277 732.599 574.86 723.646 577.139C720.143 578.031 719.21 578.599 720.214 579.23ZM733.443 914.067C734.629 914.305 733.656 914.485 731.28 914.467C728.904 914.45 727.934 914.256 729.123 914.035C730.312 913.816 732.257 913.83 733.443 914.067ZM737.27 286.217C740.058 283.937 740.093 283.932 738.242 286.088C737.186 287.316 735.451 288.76 734.385 289.296C732.338 290.325 732.638 290.004 737.27 286.217ZM741.388 281.983C742.47 281.817 742.994 280.997 742.857 279.683C742.739 278.561 743.087 277.751 743.63 277.885C744.172 278.018 746.6 273.615 749.027 268.099C755.71 252.904 760.428 248.003 768.276 248.098C776.539 248.2 786.761 254.032 805.346 269.247C812.34 274.973 818 278.942 818.628 278.561C819.257 278.178 819.455 278.32 819.094 278.895C818.327 280.114 822.9 283.328 824.242 282.512C824.771 282.191 825.081 282.467 824.931 283.124C824.568 284.716 832.41 287.798 836.635 287.724L839.995 287.663L836.16 286.949C832.774 286.318 832.662 286.219 835.206 286.105C836.791 286.035 839.169 285.737 840.491 285.445C842.376 285.027 842.583 285.132 841.448 285.929C840.652 286.489 840.346 286.956 840.768 286.968C844.538 287.067 856.282 275.713 855.251 272.967C854.88 271.977 855.05 271.654 855.72 272.075C856.298 272.438 857.028 272.328 857.341 271.83C857.654 271.332 857.52 270.681 857.045 270.383C856.569 270.084 854.962 271.412 853.473 273.334C851.985 275.255 851.335 276.482 852.031 276.059C852.843 275.565 853.154 275.706 852.899 276.453C852.68 277.092 852.297 277.479 852.047 277.312C851.798 277.146 849.481 278.598 846.9 280.539C844.319 282.479 840.633 284.311 838.71 284.609C831.704 285.697 829.473 285.906 830.694 285.364C831.424 285.04 829.639 283.683 826.398 282.096C823.349 280.603 816.988 276.204 812.264 272.32C795.765 258.755 787.387 252.727 779.841 248.988C763.432 240.859 755.518 244.922 747.42 265.632C745.766 269.866 743.353 275.21 742.061 277.511C739.256 282.501 739.285 282.305 741.388 281.983ZM749.722 787.492C751.965 787.71 750.128 787.863 745.639 787.83C741.151 787.797 739.316 787.618 741.562 787.433C743.808 787.247 747.479 787.273 749.722 787.492ZM744.911 913.212C745.673 913.524 745.444 913.75 744.326 913.788C743.313 913.822 742.749 913.591 743.07 913.275C743.391 912.959 744.219 912.93 744.911 913.212ZM752.306 256.794C756.373 249.127 761.063 246.006 768.112 246.277C771.744 246.418 771.594 246.496 766.554 247.104C760.106 247.881 757.48 249.849 753.236 257.079C750.084 262.451 749.415 262.247 752.306 256.794ZM765.99 786.698C766.753 787.009 766.524 787.235 765.405 787.273C764.393 787.307 763.828 787.076 764.149 786.76C764.47 786.444 765.299 786.415 765.99 786.698ZM774.448 423.047C775.634 423.285 774.661 423.465 772.285 423.448C769.908 423.43 768.938 423.236 770.128 423.016C771.317 422.796 773.262 422.81 774.448 423.047ZM775.364 561.491C799.802 552.219 805.138 550.419 812.058 549.112C825.674 546.542 831.626 549.827 838.467 563.688C842.261 571.374 848.89 579.732 851.188 579.726C851.788 579.725 850.88 578.605 849.17 577.239C847.461 575.871 845.583 573.812 844.998 572.661C844.142 570.974 844.515 571.12 846.919 573.408C848.561 574.97 849.906 575.803 849.91 575.258C849.914 574.713 848.991 573.438 847.86 572.425C846.729 571.411 843.993 566.682 841.782 561.916C835.925 549.296 830.885 545.044 821.702 544.977C816.363 544.938 804.83 547.664 805.522 548.801C805.803 549.262 805.425 549.402 804.684 549.112C803.215 548.536 778.031 557.798 778.023 558.918C778.02 559.296 777.262 559.659 776.337 559.724C773.537 559.923 769.361 561.761 769.354 562.798C769.35 563.335 772.055 562.746 775.364 561.491ZM779.253 424.6C780.187 425.555 780.076 425.663 778.712 425.133C777.768 424.766 777.239 424.225 777.537 423.932C777.833 423.639 778.606 423.939 779.253 424.6ZM781.222 425.693C781.394 425.694 782.573 426.89 783.843 428.351L786.151 431.006L783.528 428.661C781.076 426.469 780.468 425.687 781.222 425.693ZM798.19 35.257C800.965 35.2771 810.673 28.4787 810.687 26.5059C810.69 26.0405 811.524 23.9709 812.541 21.9074L814.387 18.1563L811.357 19.6476C809.69 20.4685 805.822 23.7366 802.763 26.9099C797.503 32.3664 795.928 35.2406 798.19 35.257ZM806.826 25.2918C808.032 23.3718 809.246 22.0285 809.521 22.3078C810.083 22.879 805.3 29.4013 803.012 31.1829C802.193 31.8199 800.876 32.3487 800.084 32.3573C799.291 32.367 799.99 31.5669 801.637 30.5789C803.283 29.592 805.618 27.2128 806.826 25.2918ZM796.794 907.831C797.557 908.143 797.328 908.368 796.209 908.406C795.197 908.44 794.632 908.21 794.953 907.893C795.274 907.577 796.103 907.549 796.794 907.831ZM799.247 455.571C799.419 455.572 800.598 456.768 801.868 458.229L804.176 460.885L801.553 458.54C799.101 456.347 798.493 455.566 799.247 455.571ZM822.02 546.234C822.952 546.484 822.419 546.695 820.835 546.703C819.251 546.711 818.488 546.507 819.14 546.248C819.792 545.99 821.088 545.983 822.02 546.234ZM837.496 3.57666C847.442 3.63824 857.283 5.46479 869.592 9.53453C873.662 10.8797 877.435 11.7102 877.979 11.3802C878.522 11.0502 878.963 11.2837 878.959 11.8987C878.954 12.5138 879.6 12.7738 880.395 12.4753C881.189 12.1779 881.836 12.3524 881.832 12.8629C881.828 13.3744 882.257 13.7959 882.785 13.7997C883.313 13.8035 883.748 13.3874 883.752 12.875C883.762 11.5758 862.058 4.69625 860.65 5.55257C859.883 6.01822 859.759 5.84171 860.276 5.0192C860.861 4.0869 860.328 3.88827 858.08 4.20205C856.447 4.42916 855.309 4.29896 855.552 3.91302C856.193 2.8928 847.152 1.05007 837.908 0.318027C831.603 -0.181575 829.717 -0.0312478 829.036 1.0261C828.562 1.76443 828.165 2.62718 828.154 2.94278C828.144 3.25937 832.348 3.54414 837.496 3.57666ZM837.021 1.27402C838.213 1.51205 837.461 1.70337 835.349 1.69861C833.237 1.69385 832.261 1.49866 833.18 1.26539C834.1 1.03218 835.828 1.03605 837.021 1.27402ZM831.853 549.849C833.429 550.988 834.717 552.135 834.715 552.399C834.713 552.663 833.422 551.947 831.846 550.808C830.27 549.669 828.982 548.522 828.984 548.258C828.986 547.994 830.277 548.71 831.853 549.849ZM835.65 554.188C836.9 554.972 840.863 561.9 842.823 566.721C845.071 572.258 843.49 570.223 838.871 561.636C834.269 553.077 834.413 553.41 835.65 554.188ZM847.242 281.347L851.585 278.206L847.974 281.647C845.987 283.54 843.852 285.085 843.228 285.081C842.604 285.076 842.275 284.941 842.496 284.781C842.718 284.62 844.853 283.075 847.242 281.347ZM843.331 772.827C844.493 773.556 851.359 772.656 851.365 771.773C851.368 771.447 852.558 771.111 854.011 771.028C858.398 770.778 862.902 769.654 862.908 768.81C862.911 768.372 863.768 768.185 864.811 768.394C865.854 768.603 866.936 768.41 867.215 767.966C867.494 767.523 868.584 767.392 869.637 767.676C870.691 767.959 871.556 767.795 871.559 767.312C871.565 766.458 873.777 766.121 879.729 766.068C882.487 766.043 882.515 766.001 880.382 765.113C877.953 764.099 857.957 767.926 855.595 769.857C854.902 770.423 853.99 770.669 853.568 770.403C853.145 770.138 850.444 770.434 847.565 771.059C844.686 771.686 842.781 772.481 843.331 772.827ZM853.397 577.889C854.793 578.431 856.359 578.737 856.876 578.569C857.393 578.401 856.252 577.771 854.34 577.17C850.324 575.906 849.638 576.429 853.397 577.889ZM855.715 581.082C857.381 581.428 859.878 581.668 861.265 581.617C862.652 581.565 861.455 581.119 858.605 580.625C853.05 579.662 850.677 580.037 855.715 581.082ZM857.808 269.302C858.306 269.615 858.969 269.463 859.282 268.965C859.595 268.468 859.443 267.805 858.945 267.493C858.447 267.18 857.784 267.332 857.472 267.83C857.159 268.327 857.311 268.99 857.808 269.302ZM859.749 266.437C860.247 266.75 860.91 266.598 861.223 266.101C861.535 265.603 861.384 264.941 860.886 264.628C860.388 264.315 859.725 264.467 859.412 264.965C859.1 265.463 859.252 266.125 859.749 266.437ZM861.88 579.573C863.992 579.577 864.744 579.386 863.552 579.148C862.359 578.91 860.631 578.906 859.712 579.139C858.792 579.373 859.768 579.568 861.88 579.573ZM861.699 263.579C862.9 264.333 866.447 259.19 865.875 257.523C865.622 256.787 865.849 256.458 866.38 256.791C866.909 257.124 868.898 255.95 870.8 254.184C872.701 252.416 875.9 250.515 877.908 249.956L881.56 248.943L877.716 249.405C874.915 249.743 874.265 249.606 875.32 248.898C876.115 248.365 877.847 247.871 879.168 247.801C881.341 247.685 881.371 247.632 879.477 247.25C876.828 246.716 872.854 248.744 868.759 252.721C865.019 256.354 860.832 261.92 862.688 260.791C863.563 260.259 863.811 260.434 863.473 261.344C863.201 262.075 862.494 262.562 861.9 262.426C860.598 262.126 860.477 262.812 861.699 263.579ZM873.77 249.855C874.011 250.099 872.394 251.75 870.175 253.524L866.142 256.75L869.737 253.079C871.714 251.061 873.529 249.61 873.77 249.855ZM867.712 580.74C868.831 580.703 869.06 580.477 868.297 580.165C867.606 579.883 866.777 579.911 866.456 580.228C866.135 580.544 866.7 580.774 867.712 580.74ZM868.288 578.79C869.168 578.858 870.678 579.167 871.643 579.478C873.306 580.013 873.309 579.985 871.696 578.934C870.759 578.324 869.249 578.015 868.34 578.246C866.851 578.625 866.845 578.679 868.288 578.79ZM871.736 428.549C872.63 429.455 875.018 428.17 874.381 427.125C874.014 426.52 874.646 426.407 876.069 426.82C877.873 427.346 878.048 427.261 876.912 426.414C875.813 425.594 876.372 425.467 879.316 425.868C882.291 426.273 882.615 426.197 880.759 425.53C878.369 424.671 878.369 424.669 881.247 424.484C883.169 424.359 883.535 424.14 882.347 423.826C880.519 423.341 872.503 425.91 871.662 427.25C871.404 427.66 871.437 428.245 871.736 428.549ZM873.754 578.418C875.926 579.125 878.881 578.141 878.158 576.953C877.87 576.479 877.201 576.087 876.673 576.083C876.145 576.079 876.016 576.574 876.385 577.181C876.858 577.958 876.306 578.091 874.518 577.629C871.646 576.886 871.023 577.53 873.754 578.418ZM879.727 576.625C880.287 576.977 880.954 577.06 881.207 576.811C881.461 576.561 881.003 576.096 880.19 575.778C878.504 575.117 878.202 575.667 879.727 576.625ZM885.407 247.947C888.282 248.174 888.282 248.176 885.88 249C883.963 249.658 884.256 249.744 887.317 249.426C889.431 249.206 890.585 249.27 889.883 249.569C889.115 249.897 890.446 250.988 893.223 252.309C897.929 254.547 900.935 254.536 897.909 252.29C896.991 251.609 895.561 251.306 894.731 251.618C893.742 251.989 893.462 251.802 893.918 251.076C894.386 250.331 894.074 250.173 892.961 250.59C891.896 250.99 891.541 250.84 891.963 250.17C892.749 248.919 886.687 246.666 884.22 247.29C883.195 247.55 883.664 247.808 885.407 247.947ZM884.545 896.351C887.713 896.369 888.894 896.198 887.17 895.971C885.447 895.746 882.855 895.731 881.41 895.939C879.965 896.148 881.376 896.333 884.545 896.351ZM883.525 764.749C885.449 765.124 887.241 765.216 887.507 764.954C887.773 764.692 886.416 764.171 884.492 763.796C882.569 763.421 880.777 763.328 880.511 763.59C880.245 763.852 881.602 764.373 883.525 764.749ZM882.27 575.47C883.528 576.26 888.32 574.368 888.329 573.078C888.333 572.604 888.762 572.484 889.284 572.811C889.806 573.138 890.942 573.016 891.809 572.54C892.8 571.995 893.012 571.436 892.38 571.039C891.825 570.692 889.078 571.392 886.275 572.596C883.295 573.875 881.632 575.069 882.27 575.47ZM887.474 426.312C888.794 426.321 889.336 426.107 888.677 425.837C888.02 425.565 886.94 425.558 886.277 425.819C885.616 426.081 886.154 426.302 887.474 426.312ZM887.296 424.412C889.84 424.582 895.563 427.386 894.833 428.105C894.564 428.371 893.337 428.105 892.108 427.515C890.138 426.569 890.094 426.588 891.733 427.675C892.755 428.352 895.653 430.816 898.173 433.15C900.693 435.484 902.757 437.065 902.76 436.664C902.763 436.263 903.509 436.534 904.418 437.265C905.326 437.995 904.703 436.815 903.033 434.641C901.362 432.467 899.228 430.092 898.289 429.365C897.351 428.638 897.76 429.353 899.201 430.956C902.951 435.127 902.428 436.191 898.518 432.347C896.71 430.568 895.319 428.686 895.428 428.162C895.75 426.628 889.674 423.421 887.281 423.862L885.089 424.266L887.296 424.412ZM888.954 763.648C890.62 763.994 893.549 764.233 895.464 764.18C897.817 764.115 896.94 763.81 892.754 763.237C886.194 762.341 883.866 762.593 888.954 763.648ZM897.154 18.2221C897.685 17.8997 898.12 17.4462 898.122 17.213C898.124 16.9798 897.693 16.7866 897.165 16.7828C896.637 16.779 896.202 17.2335 896.197 17.792C896.193 18.3504 896.624 18.5446 897.154 18.2221ZM897.039 762.097C900.208 762.115 901.389 761.944 899.665 761.718C897.941 761.492 895.349 761.477 893.905 761.685C892.46 761.895 893.871 762.079 897.039 762.097ZM893.738 570.72C894.447 571.439 901.968 567.86 903.005 566.31C903.398 565.723 903.722 565.572 903.728 565.972C903.733 566.374 908.923 564.131 915.26 560.99C935.354 551.031 945.206 548.356 953.408 550.63C958.423 552.02 962.343 555.228 970.095 564.286C973.614 568.397 978.338 572.7 981.022 574.239C985.369 576.731 986.406 576.924 993.913 576.649C1000.35 576.412 1003.75 575.691 1010.02 573.234C1014.39 571.521 1017.97 569.723 1017.97 569.239C1017.97 568.755 1018.41 568.628 1018.93 568.958C1019.46 569.289 1019.89 569.076 1019.89 568.486C1019.9 567.896 1020.33 567.683 1020.86 568.013C1021.38 568.343 1021.82 568.13 1021.82 567.54C1021.83 566.95 1022.33 566.779 1022.93 567.159C1023.6 567.581 1023.78 567.43 1023.38 566.777C1022.95 566.071 1021.99 565.989 1020.59 566.535C1011.04 570.271 1007.44 571.963 1007.94 572.474C1008.27 572.802 1007.56 572.809 1006.37 572.49C1005.18 572.169 1004.44 572.301 1004.73 572.782C1005.03 573.271 1001.68 573.77 997.17 573.912C990.406 574.125 988.375 573.82 984.778 572.046C980.495 569.936 979.261 568.815 966.845 555.761C959.778 548.332 956.889 546.932 948.471 546.862C945.801 546.84 940.85 547.733 937.468 548.847C929.246 551.556 910.501 560.677 910.492 561.974C910.488 562.543 910.054 562.737 909.529 562.407C909.003 562.077 908.57 562.29 908.565 562.88C908.561 563.47 908.166 563.707 907.687 563.406C906.725 562.803 900.879 565.772 900.861 566.873C900.856 567.252 900.313 567.356 899.654 567.105C898.23 566.56 892.868 569.839 893.738 570.72ZM901.158 20.5696C903.434 21.3806 904.47 21.3757 905.238 20.5512C905.995 19.7362 905.823 19.5978 904.582 20.0235C903.654 20.343 902.901 20.139 902.905 19.5709C902.909 19.0028 902.291 18.7719 901.531 19.0571C900.771 19.3424 899.988 19.0805 899.791 18.4745C899.533 17.682 899.247 17.6683 898.77 18.4277C898.374 19.0573 899.337 19.9202 901.158 20.5696ZM897.427 898.661C903.655 898.706 914.667 901.146 920.298 903.73C930.085 908.22 932.636 909.285 937.244 910.805C943.586 912.897 953.82 914.381 962.503 914.467C970.257 914.545 990.094 912.456 1000.61 910.455C1004.31 909.751 1012.32 908.274 1018.4 907.174C1024.48 906.072 1029.89 904.91 1030.42 904.59C1030.95 904.271 1032.31 904.137 1033.45 904.292C1034.58 904.447 1035.79 904.137 1036.12 903.604C1036.46 903.07 1037.37 902.882 1038.14 903.185C1038.91 903.487 1040.3 903.415 1041.23 903.022C1042.16 902.631 1043.99 902.401 1045.31 902.512C1047.25 902.676 1047.44 902.516 1046.28 901.68C1045.22 900.915 1046.22 900.78 1050.12 901.165C1054.65 901.611 1054.93 901.553 1052.05 900.756C1048.59 899.798 1039.3 900.398 1039.99 901.534C1040.21 901.887 1038.84 901.985 1036.96 901.751C1035.03 901.512 1033.77 901.712 1034.08 902.21C1034.38 902.708 1033.12 902.908 1031.19 902.669C1029.24 902.427 1028 902.627 1028.32 903.138C1028.62 903.634 1026.93 904.034 1024.51 904.039C1022.04 904.043 1019.83 904.578 1019.39 905.275C1018.96 905.951 1018.16 906.212 1017.59 905.858C1016.4 905.112 1004 907 1003.99 907.929C1003.99 908.271 1001.28 908.632 997.969 908.733C994.661 908.833 989.799 909.319 987.162 909.813C979.189 911.304 950.758 910.245 943.504 908.187C940.079 907.215 936.786 906.018 936.188 905.526C935.59 905.034 929.993 902.875 923.75 900.729C915.144 897.769 910.428 896.711 904.235 896.349L896.069 895.873L902.945 896.727C910.037 897.607 922.144 901.34 930.551 905.237C937.889 908.64 935.243 908.001 921.82 903.133C912.358 899.7 907.704 898.554 901.153 898.041C896.502 897.677 892.696 897.66 892.693 898.003C892.691 898.346 894.821 898.642 897.427 898.661ZM901.397 256.87C902.595 257.546 903.9 258.008 904.297 257.899C904.693 257.79 905.015 258.085 905.012 258.555C905.001 260.149 923.288 274.381 924.197 273.486C925.008 272.687 912.658 262.233 911.23 262.509C910.905 262.572 909.82 261.627 908.819 260.409C907.818 259.191 906.982 258.566 906.961 259.02C906.94 259.474 906.081 258.82 905.051 257.567C904.022 256.313 903.163 255.695 903.141 256.191C903.12 256.688 902.526 256.294 901.822 255.317C900.978 254.145 900.316 253.898 899.88 254.59C899.516 255.169 900.199 256.195 901.397 256.87ZM909.271 446.773C917.07 456.661 921.241 459.335 928.951 459.391C934.886 459.434 944.328 456.168 943.273 454.436C942.925 453.863 943.128 453.726 943.749 454.117C945.066 454.944 948.98 453.046 948.291 451.915C948.02 451.47 948.551 451.173 949.469 451.251C950.386 451.33 951.039 450.87 950.917 450.228C950.796 449.587 951.295 449.296 952.025 449.582C953.653 450.22 954.955 448.447 953.521 447.546C952.954 447.19 951.749 447.558 950.844 448.365C947.949 450.946 936.213 455.842 931.812 456.305C924.956 457.027 919.963 454.465 912.681 446.488C909.2 442.675 906.078 439.546 905.745 439.536C905.412 439.525 904.603 439.17 903.945 438.747C902.048 437.523 902.431 438.101 909.271 446.773ZM907.575 23.0621C910.505 24.0151 912.409 22.5407 909.613 21.4841C908.295 20.9861 907.002 21.0016 906.472 21.5236C905.916 22.0713 906.338 22.6597 907.575 23.0621ZM904.908 764.209C911.41 764.515 919.12 768.064 926.882 774.322C936.871 782.374 942.974 785.063 952.57 785.638C963.113 786.271 989.308 782.289 988.063 780.243C987.776 779.771 988.179 779.635 988.958 779.94C989.736 780.245 993.327 779.657 996.938 778.634C1000.55 777.61 1008.26 775.422 1014.08 773.773C1019.91 772.123 1024.89 770.501 1025.15 770.169C1025.42 769.836 1027.14 769.501 1028.97 769.423C1030.81 769.347 1032.45 768.882 1032.61 768.39C1032.78 767.898 1033.98 767.709 1035.28 767.967C1036.58 768.225 1037.65 768.013 1037.65 767.497C1037.66 766.981 1038.74 766.773 1040.06 767.035C1041.37 767.297 1042.46 767.137 1042.46 766.68C1042.46 766.222 1044.73 766.017 1047.5 766.223C1054.15 766.72 1053.1 765.883 1046 765.031C1042.37 764.595 1040.63 764.698 1041.01 765.327C1041.38 765.94 1040.48 766.06 1038.52 765.655C1036.62 765.261 1035.67 765.376 1036.02 765.958C1036.37 766.523 1035.41 766.715 1033.63 766.441C1031.44 766.104 1030.86 766.297 1031.4 767.181C1031.93 768.062 1031.56 768.193 1029.97 767.677C1028.74 767.276 1028.04 767.352 1028.35 767.853C1028.64 768.336 1027.44 768.762 1025.68 768.799C1020.8 768.902 1001.08 774.792 1001.78 775.937C1002.15 776.539 1001.73 776.666 1000.71 776.265C998.44 775.376 994.24 776.484 995.018 777.765C995.417 778.419 995.028 778.549 993.942 778.123C993.008 777.757 988.721 778.258 984.416 779.237C970.76 782.34 959.513 783.316 952.284 782.023C944.129 780.566 938.912 778.041 930.711 771.579C921.477 764.304 915.024 761.506 907.798 761.644L902.802 761.739L908.558 762.445C915.931 763.35 920.371 765.473 928.65 772.054C937.128 778.796 937.354 779.002 936.232 778.985C935.731 778.977 932.123 776.387 928.215 773.23C920.215 766.764 911.056 763.048 904.633 763.659L900.866 764.019L904.908 764.209ZM908.28 442.911C909.695 444.759 912.562 448.234 914.653 450.634C916.744 453.033 917.427 454.125 916.173 453.061C913.786 451.038 905.578 440.861 905.662 440.03C905.688 439.766 906.866 441.062 908.28 442.911ZM919.29 26.9136C931.272 30.6278 935.257 31.4042 942.77 31.4846C951.485 31.5776 957.458 28.6087 963.659 21.1035C969.053 14.5732 974.151 10.1364 979.245 7.53928C982.358 5.95262 984.868 5.55346 991.334 5.61666C1000.85 5.70969 1008.45 7.54105 1024.2 13.5444C1030.41 15.9108 1035.91 17.5945 1036.42 17.2862C1036.92 16.979 1037.33 17.2305 1037.33 17.8455C1037.32 18.4606 1037.97 18.7205 1038.77 18.422C1039.56 18.1246 1040.21 18.3241 1040.2 18.8662C1040.2 19.4094 1040.63 19.5891 1041.16 19.2666C1041.69 18.9442 1042.12 19.0654 1042.12 19.5355C1042.11 21.0344 1048.96 22.7115 1050.66 21.627C1051.9 20.8367 1051.78 20.7371 1050.03 21.0947C1048.84 21.3366 1047.87 21.1567 1047.87 20.6952C1047.87 20.2337 1047.12 20.1208 1046.19 20.4461C1045.26 20.7704 1044.83 20.6828 1045.23 20.25C1046.09 19.3207 1036.86 15.6025 1033.75 15.6222C1032.57 15.6289 1031.81 15.2961 1032.07 14.8816C1032.76 13.7916 1029.97 12.9011 1028.08 13.6071C1026.91 14.0467 1026.7 13.8638 1027.28 12.9286C1027.87 11.9934 1027.66 11.8104 1026.49 12.25C1025.6 12.5805 1024.89 12.3873 1024.89 11.8193C1024.9 11.2368 1024.18 11.0579 1023.24 11.4081C1022.33 11.7498 1021.91 11.7121 1022.3 11.3244C1023.31 10.3318 1015.63 7.48761 1003.82 4.47705C995.981 2.47792 992.148 1.99429 986.446 2.28204C977.037 2.75697 973.198 4.97558 962.937 15.8694C951.948 27.5362 946.027 29.8011 932.235 27.6091C928.136 26.9576 922.175 25.5479 918.987 24.476C915.137 23.1823 912.866 22.8462 912.227 23.4758C911.587 24.1065 913.961 25.2609 919.29 26.9136ZM911.107 262.543C911.305 262.544 912.056 263.305 912.775 264.234C913.957 265.764 913.923 265.798 912.409 264.594C910.819 263.328 910.317 262.537 911.107 262.543ZM921.348 455.674C922.666 456.285 923.562 456.965 923.339 457.184C922.888 457.63 918.944 455.655 918.949 454.987C918.95 454.752 920.03 455.062 921.348 455.674ZM925.05 275.598C925.668 275.986 926.607 275.874 927.139 275.351C927.784 274.715 927.733 274.163 926.984 273.693C926.367 273.306 925.427 273.417 924.895 273.941C924.25 274.576 924.302 275.128 925.05 275.598ZM931.156 457.758C932.614 457.989 931.647 458.169 929.007 458.157C926.366 458.145 925.173 457.956 926.356 457.737C927.538 457.518 929.698 457.528 931.156 457.758ZM927.833 277.486C928.405 277.845 929.374 277.834 929.986 277.462C930.678 277.041 930.835 277.204 930.4 277.896C929.308 279.635 938.136 283.027 943.861 283.069C946.904 283.091 950.232 282.384 952.516 281.232C957.42 278.756 965.681 270.872 964.832 269.478C964.444 268.841 964.596 268.655 965.196 269.033C966.489 269.845 972.304 263.023 971.517 261.617C971.197 261.045 971.257 260.871 971.651 261.228C972.044 261.587 974.982 259.805 978.178 257.269C987.389 249.96 995.459 249.2 1005.96 254.653C1008.04 255.731 1010.23 256.318 1010.82 255.957C1011.46 255.568 1011.63 255.73 1011.24 256.355C1010.42 257.662 1014.09 259.79 1015.59 258.879C1016.2 258.505 1016.42 258.636 1016.07 259.178C1015.34 260.342 1025.75 267.812 1027.56 267.42C1028.26 267.268 1028.71 267.703 1028.57 268.387C1028.41 269.127 1029.02 269.512 1030.08 269.339C1031.08 269.176 1031.6 269.467 1031.26 270.001C1030.93 270.525 1031.06 271.205 1031.55 271.511C1032.04 271.817 1032.34 271.405 1032.23 270.593C1031.96 268.662 1025.84 264.496 1024.12 265.072C1023.35 265.332 1023.05 265.092 1023.42 264.501C1024.1 263.423 1015.98 257.226 1013.87 257.211C1013.19 257.206 1012.85 256.865 1013.11 256.454C1013.79 255.369 1009.86 253.451 1008.56 254.237C1007.84 254.675 1007.74 254.47 1008.27 253.637C1008.84 252.72 1008.62 252.536 1007.47 252.968C1006.54 253.315 1005.98 253.123 1006.12 252.506C1006.46 250.966 997.499 247.902 992.406 247.819C985.202 247.7 979.253 251.345 969.581 261.799C954.614 277.977 952.134 279.649 943.263 279.533C938.666 279.474 935.924 278.865 932.845 277.221C930.151 275.782 928.334 275.317 927.73 275.911C927.127 276.506 927.163 277.066 927.833 277.486ZM931.821 28.8536C932.584 29.1653 932.355 29.3911 931.236 29.429C930.224 29.4629 929.659 29.2323 929.98 28.916C930.301 28.5998 931.13 28.5713 931.821 28.8536ZM943.874 29.869C945.325 30.0993 944.135 30.27 941.231 30.249C938.327 30.2279 937.14 30.04 938.594 29.8307C940.048 29.6215 942.423 29.6388 943.874 29.869ZM942.53 281.327C943.189 281.598 942.647 281.812 941.327 281.802C940.007 281.793 939.469 281.571 940.13 281.31C940.793 281.048 941.873 281.056 942.53 281.327ZM938.68 779.009C939.208 779.013 939.637 779.474 939.633 780.033C939.629 780.591 939.195 780.779 938.67 780.449C938.144 780.119 937.716 779.659 937.717 779.426C937.719 779.192 938.152 779.006 938.68 779.009ZM941.489 549.029C942.252 549.341 942.023 549.566 940.904 549.604C939.892 549.638 939.327 549.408 939.648 549.092C939.969 548.775 940.798 548.747 941.489 549.029ZM946.311 281.335C947.074 281.646 946.845 281.872 945.726 281.91C944.714 281.944 944.149 281.713 944.47 281.397C944.791 281.081 945.62 281.052 946.311 281.335ZM950.663 548.102C952.12 548.334 951.153 548.513 948.513 548.501C945.873 548.489 944.68 548.3 945.862 548.081C947.045 547.862 949.205 547.872 950.663 548.102ZM948.027 910.838C948.959 911.088 948.426 911.299 946.841 911.307C945.257 911.315 944.495 911.11 945.146 910.852C945.798 910.594 947.094 910.587 948.027 910.838ZM961.31 21.1229C962.206 21.1803 954.379 27.7218 953.399 27.7319C952.954 27.7364 954.409 26.2423 956.635 24.4112C958.86 22.5801 960.964 21.1003 961.31 21.1229ZM954.437 447.526C954.984 447.87 959.889 444.902 965.336 440.933C986.683 425.375 997.053 423.905 1009.64 434.651C1011.14 435.931 1012.78 436.73 1013.28 436.427C1013.78 436.124 1014.06 436.447 1013.91 437.145C1013.76 437.843 1014.21 438.299 1014.91 438.159C1015.61 438.019 1015.95 438.283 1015.66 438.745C1015.37 439.208 1016.19 440.594 1017.48 441.828C1019.8 444.04 1019.84 444.043 1019.85 442.061C1019.87 439.641 1008.56 429.028 1006.69 429.715C1006 429.968 1005.71 429.743 1006.04 429.215C1006.94 427.787 998.956 424.437 994.537 424.388C992.425 424.364 989.182 424.757 987.33 425.261C982.49 426.58 971.383 433.253 971.685 434.662C971.825 435.318 971.508 435.585 970.98 435.254C969.692 434.444 964.109 438.584 964.849 439.801C965.17 440.328 964.957 440.461 964.375 440.096C963.574 439.593 957.236 443.488 953.748 446.626C953.58 446.778 953.89 447.182 954.437 447.526ZM955.238 911.879C955.897 912.15 955.355 912.364 954.035 912.354C952.714 912.345 952.177 912.123 952.838 911.862C953.5 911.6 954.58 911.608 955.238 911.879ZM958.084 784.273C958.742 784.543 958.2 784.757 956.88 784.747C955.56 784.738 955.022 784.516 955.684 784.255C956.346 783.993 957.426 784.001 958.084 784.273ZM958.835 550.651C959.769 551.606 959.657 551.714 958.293 551.184C957.349 550.817 956.82 550.276 957.118 549.983C957.415 549.69 958.188 549.99 958.835 550.651ZM962.284 271.427C963.815 270.246 963.848 270.279 962.644 271.793C961.912 272.711 961.151 273.461 960.952 273.46C960.162 273.454 960.675 272.67 962.284 271.427ZM963.357 553.682C963.885 553.685 964.313 554.146 964.309 554.705C964.305 555.263 963.872 555.451 963.346 555.121C962.821 554.791 962.392 554.331 962.394 554.098C962.395 553.865 962.829 553.678 963.357 553.682ZM971.384 9.53969L974.52 7.40722L972.174 9.95906C970.883 11.3632 969.471 12.5092 969.035 12.5061C967.583 12.4955 968.219 11.6912 971.384 9.53969ZM967.169 557.548C967.697 557.551 968.126 558.012 968.122 558.571C968.118 559.129 967.684 559.317 967.159 558.987C966.633 558.657 966.204 558.197 966.206 557.964C966.208 557.731 966.641 557.544 967.169 557.548ZM969.552 783.376C970.315 783.688 970.086 783.913 968.967 783.951C967.955 783.985 967.39 783.755 967.711 783.438C968.032 783.122 968.861 783.094 969.552 783.376ZM970.983 561.899C972.036 562.864 972.672 563.876 972.398 564.147C972.123 564.418 971.274 563.802 970.512 562.78C968.567 560.171 968.743 559.842 970.983 561.899ZM975.262 566.855C976.052 567.165 976.695 567.857 976.691 568.392C976.687 568.954 976.078 568.857 975.253 568.162C974.465 567.499 973.822 566.807 973.824 566.625C973.825 566.442 974.472 566.546 975.262 566.855ZM978.73 254.274C980.261 253.092 980.294 253.126 979.09 254.639C977.823 256.229 977.032 256.73 977.037 255.941C977.039 255.742 977.8 254.991 978.73 254.274ZM977.319 912.039C977.977 912.31 977.435 912.524 976.115 912.514C974.795 912.505 974.257 912.283 974.919 912.022C975.581 911.76 976.661 911.768 977.319 912.039ZM982.525 572.499C984.834 573.841 986.351 574.941 985.895 574.945C984.771 574.952 977.57 570.801 977.99 570.388C978.174 570.207 980.214 571.156 982.525 572.499ZM991.591 3.3557C992.776 3.59368 991.804 3.77382 989.427 3.75659C987.051 3.73936 986.081 3.54512 987.27 3.32437C988.46 3.10459 990.405 3.1187 991.591 3.3557ZM994.129 249.049C995.052 249.297 994.294 249.489 992.446 249.475C990.598 249.462 989.842 249.259 990.769 249.025C991.695 248.79 993.206 248.801 994.129 249.049ZM995.603 575.299C997.054 575.529 995.864 575.7 992.96 575.679C990.056 575.658 988.868 575.47 990.323 575.261C991.777 575.052 994.152 575.069 995.603 575.299ZM994.75 425.617C995.682 425.867 995.149 426.079 993.565 426.086C991.981 426.094 991.218 425.89 991.87 425.632C992.521 425.373 993.818 425.366 994.75 425.617ZM1009.73 432.148C1009.92 432.15 1010.67 432.91 1011.39 433.84C1012.58 435.37 1012.54 435.403 1011.03 434.2C1009.44 432.934 1008.94 432.142 1009.73 432.148ZM1009.94 907.458C1010.7 907.769 1010.47 907.995 1009.35 908.033C1008.34 908.067 1007.77 907.837 1008.09 907.52C1008.42 907.204 1009.24 907.175 1009.94 907.458ZM1017.95 439.885C1018.47 439.888 1018.9 440.349 1018.9 440.908C1018.9 441.466 1018.46 441.654 1017.94 441.324C1017.41 440.994 1016.98 440.534 1016.98 440.301C1016.99 440.068 1017.42 439.881 1017.95 439.885ZM1024.86 566.214C1025.59 566.675 1025.7 566.48 1025.19 565.631C1024.62 564.7 1024.85 564.526 1026.02 564.986C1027 565.37 1028.36 564.907 1029.47 563.816C1030.48 562.823 1031.55 562.265 1031.86 562.575C1032.16 562.885 1032.42 562.61 1032.42 561.963C1032.43 561.316 1032.86 561.056 1033.39 561.387C1033.91 561.717 1034.35 561.601 1034.35 561.131C1034.35 560.659 1034.9 560.268 1035.56 560.26C1036.22 560.253 1040.81 558.531 1045.77 556.435C1052.91 553.415 1054.37 552.487 1052.77 551.968C1050.38 551.189 1048.52 552.084 1049.43 553.576C1049.84 554.248 1049.51 554.419 1048.55 554.039C1047.19 553.508 1023.77 563.946 1023.76 565.085C1023.76 565.325 1024.25 565.833 1024.86 566.214ZM1049.68 764.186C1052.32 764.198 1053.28 764.019 1051.83 763.787C1050.37 763.557 1048.21 763.547 1047.03 763.766C1045.84 763.985 1047.04 764.174 1049.68 764.186ZM1051.69 23.6315C1052.48 23.6372 1053.78 23.2283 1054.58 22.7226C1055.86 21.9048 1055.86 21.802 1054.58 21.7928C1053.79 21.787 1052.49 22.1961 1051.7 22.7017C1050.41 23.5196 1050.41 23.6222 1051.69 23.6315ZM1058.01 23.6313C1059.13 23.5934 1059.36 23.3676 1058.59 23.056C1057.9 22.7737 1057.07 22.8021 1056.75 23.1183C1056.43 23.4346 1057 23.6652 1058.01 23.6313ZM1053.5 899.606C1055.08 899.598 1055.61 899.387 1054.68 899.136C1053.75 898.886 1052.45 898.893 1051.8 899.151C1051.15 899.409 1051.91 899.613 1053.5 899.606ZM1055.1 551.829C1057.5 552.772 1058.13 552.504 1056.19 551.359C1055.23 550.792 1054.24 550.528 1053.99 550.774C1053.74 551.019 1054.24 551.494 1055.1 551.829ZM1060.36 25.9485C1061.65 26.3033 1066.38 26.6169 1070.87 26.6446C1080.71 26.7064 1082.71 25.9119 1097.44 16.0821C1108.52 8.68905 1113.52 6.83686 1122.25 6.90015C1127.78 6.94031 1136.45 8.60675 1143.74 11.0327C1147.05 12.1353 1150.42 12.7901 1151.22 12.4889C1152.02 12.1876 1152.46 12.2888 1152.2 12.7129C1151.54 13.7579 1164.78 18.0599 1166.58 17.3859C1167.37 17.0912 1167.77 17.2246 1167.49 17.6812C1166.78 18.7969 1178.31 21.7162 1186.3 22.4469C1194.91 23.2348 1203.07 21.5639 1213.29 16.9244C1217.93 14.8143 1221.55 12.9069 1221.33 12.6866C1221.12 12.4652 1218.83 13.3286 1216.26 14.6054C1209.29 18.0661 1204.37 19.9601 1204.37 19.178C1204.38 18.1532 1223.59 10.1427 1224.3 10.8666C1224.64 11.2059 1224.34 11.4791 1223.63 11.4739C1222.93 11.4688 1222.63 11.744 1222.96 12.0861C1223.67 12.8052 1226.52 10.7071 1226.53 9.4587C1226.54 7.91479 1224.33 8.56656 1214.91 12.8855C1209.76 15.2425 1204.54 17.3791 1203.29 17.633C1186.57 21.0412 1182.89 20.597 1155.22 11.8308C1133.57 4.97388 1127.77 3.7659 1118.53 4.1834C1112.27 4.46623 1109.48 5.1129 1104.98 7.31611C1101.86 8.84328 1099.16 10.4157 1098.99 10.8097C1098.81 11.2038 1098.05 11.5227 1097.3 11.5172C1096.55 11.5118 1095.94 11.8346 1095.94 12.2348C1095.93 13.4179 1083.98 21.0359 1079.92 22.4506C1077.86 23.1678 1072.93 23.7808 1068.97 23.8115C1065.01 23.8433 1060.92 24.1917 1059.89 24.5863C1058.16 25.2512 1058.19 25.3513 1060.36 25.9485ZM1059.67 551.022C1061.67 551.427 1063.58 551.492 1063.91 551.167C1064.24 550.843 1063.25 550.511 1061.71 550.43C1059.01 550.289 1059.04 550.258 1062.27 549.601C1065.56 548.935 1065.57 548.917 1062.76 548.839C1061.18 548.795 1059.01 549.102 1057.96 549.523C1056.33 550.166 1056.6 550.401 1059.67 551.022ZM1083.89 21.8557C1086.56 20.5191 1091.11 17.6406 1094.02 15.4584C1100.36 10.6997 1109.92 5.82516 1112.7 5.93839C1113.8 5.98381 1112.5 6.75556 1109.8 7.65338C1105.87 8.95973 1090.29 18.5654 1088.19 20.9684C1087.92 21.2736 1085.97 22.34 1083.85 23.338C1080.98 24.6894 1077.55 25.1904 1070.4 25.3016L1060.8 25.4508L1069.92 24.8683C1076.94 24.4202 1080.16 23.7248 1083.89 21.8557ZM1060.22 766.215C1062.34 766.22 1063.09 766.028 1061.9 765.79C1060.7 765.552 1058.97 765.548 1058.06 765.782C1057.14 766.015 1058.11 766.21 1060.22 766.215ZM1061.2 764.27C1063.84 764.281 1064.81 764.102 1063.35 763.871C1061.89 763.641 1059.73 763.631 1058.55 763.85C1057.36 764.069 1058.56 764.258 1061.2 764.27ZM1062.13 900.517C1065.3 900.536 1066.48 900.365 1064.76 900.138C1063.03 899.913 1060.44 899.898 1059 900.106C1057.55 900.315 1058.96 900.5 1062.13 900.517ZM1065.02 898.619C1068.19 898.637 1069.37 898.467 1067.65 898.24C1065.93 898.015 1063.33 898 1061.89 898.208C1060.44 898.417 1061.86 898.602 1065.02 898.619ZM1067 767.877C1068.41 768.239 1069.77 768.322 1070.04 768.06C1070.3 767.798 1069.37 767.287 1067.97 766.924C1066.56 766.561 1065.2 766.478 1064.93 766.74C1064.66 767.002 1065.6 767.514 1067 767.877ZM1069.94 551.353C1071.79 551.367 1072.55 551.174 1071.63 550.927C1070.7 550.678 1069.19 550.667 1068.27 550.902C1067.34 551.137 1068.09 551.34 1069.94 551.353ZM1068.93 765.972C1070.34 766.334 1071.71 766.417 1071.97 766.155C1072.24 765.893 1071.31 765.382 1069.9 765.019C1068.5 764.656 1067.13 764.573 1066.86 764.835C1066.6 765.097 1067.53 765.609 1068.93 765.972ZM1070.44 549.526C1073.63 549.719 1083.95 554.287 1083.1 555.128C1082.8 555.421 1081.55 555.129 1080.32 554.478C1077.05 552.741 1078.18 553.733 1088.66 561.79C1108.23 576.823 1115.65 576.755 1150.04 561.228C1174.16 550.338 1182.37 550.19 1203.33 560.27C1209.91 563.433 1216.8 566.288 1218.65 566.613C1220.73 566.981 1219.63 566.317 1215.75 564.863C1209.76 562.616 1205.06 560.323 1206.34 560.271C1206.67 560.258 1209.9 561.395 1213.52 562.8C1218.22 564.623 1223.11 565.604 1230.65 566.234L1241.2 567.114L1258.53 561.577C1286.35 552.682 1292.25 552.369 1313.75 558.639C1331.45 563.803 1337.95 564.675 1348.95 563.367C1359.17 562.153 1375.19 558.763 1376.58 557.523C1378.83 555.519 1375.31 555.646 1363.17 558.01C1351.89 560.207 1348.55 560.48 1338.88 559.994C1329.39 559.518 1325.9 558.859 1316.17 555.706C1305.4 552.215 1303.89 551.971 1292.2 551.829L1279.72 551.677L1260.68 558.007C1250.21 561.488 1240.68 564.373 1239.51 564.417C1237.51 564.493 1237.52 564.542 1239.78 565.259C1244.23 566.674 1223.98 565.015 1218.75 563.536C1215.9 562.73 1209.01 559.728 1203.44 556.864C1191 550.468 1186.02 549.101 1177.65 549.774C1168.56 550.503 1151.91 556.24 1153.12 558.226C1153.46 558.791 1153.23 558.895 1152.56 558.474C1151.93 558.077 1150.02 558.391 1148.32 559.172C1128.32 568.391 1117.98 570.997 1109.16 569.039C1104.26 567.952 1095.34 563.389 1091.13 559.818C1089.92 558.791 1088.03 557.176 1086.93 556.229C1083 552.86 1073.17 548.557 1070.32 548.961L1067.56 549.351L1070.44 549.526ZM1082.48 774.517C1095.43 780.752 1103.63 782.695 1113.24 781.799C1122.74 780.914 1126.86 780.206 1126.45 779.532C1126.25 779.2 1127.66 778.913 1129.59 778.893C1135.47 778.834 1166.24 770.766 1166.27 769.277C1166.31 767.609 1165.29 767.788 1143.7 773.242C1129.76 776.764 1124.22 777.709 1115.26 778.088C1101.58 778.666 1097.07 777.684 1083.85 771.257C1078.4 768.607 1073.76 766.617 1073.54 766.834C1073.18 767.184 1090.55 776.173 1094.22 777.542C1095.15 777.888 1095.23 778.101 1094.43 778.144C1093.75 778.181 1091.6 777.483 1089.64 776.592C1087.68 775.703 1085.87 774.908 1085.6 774.827C1085.34 774.746 1082.19 773.235 1078.61 771.471C1075.02 769.708 1071.9 768.453 1071.66 768.683C1071.43 768.914 1076.3 771.539 1082.48 774.517ZM1075.25 552.935C1077.66 553.878 1078.28 553.61 1076.34 552.465C1075.38 551.897 1074.39 551.634 1074.15 551.88C1073.9 552.125 1074.39 552.6 1075.25 552.935ZM1079.65 901.246C1083.74 901.6 1090.32 902.799 1094.27 903.912C1112.87 909.149 1119.25 910.163 1134.07 910.239C1142.24 910.28 1152.83 909.68 1158.56 908.852C1189.67 904.351 1196.47 903.488 1205.65 902.878C1211.19 902.508 1214.44 902.078 1212.85 901.921L1209.97 901.635L1213.34 900.952C1215.97 900.419 1215.07 900.23 1209.27 900.09C1205.17 899.99 1201.82 900.254 1201.82 900.676C1201.82 901.098 1200.41 901.277 1198.7 901.073C1196.98 900.87 1186.71 902.005 1175.88 903.595C1149.05 907.532 1130.39 908.006 1115.86 905.12C1110.06 903.969 1102.08 902.145 1098.13 901.067C1094.18 899.991 1087.06 898.888 1082.31 898.615L1073.67 898.122L1081.34 899.052C1085.56 899.565 1090.31 900.44 1091.89 900.998L1094.76 902.013L1091.5 901.503C1085.68 900.594 1072.22 899.632 1072.21 900.124C1072.21 900.388 1075.56 900.893 1079.65 901.246ZM1090.44 560.369C1097.02 565.614 1098.94 567.872 1093.61 564.094C1088.09 560.181 1083.34 556.161 1083.75 555.754C1083.97 555.537 1086.98 557.613 1090.44 560.369ZM1100.92 903.089C1103.58 903.791 1105.57 904.548 1105.34 904.772C1105.11 904.997 1102.72 904.635 1100.03 903.969C1097.34 903.302 1095.35 902.545 1095.61 902.286C1095.87 902.027 1098.26 902.388 1100.92 903.089ZM1098.24 778.552C1099 778.863 1098.77 779.089 1097.65 779.127C1096.64 779.161 1096.08 778.93 1096.4 778.614C1096.72 778.298 1097.55 778.269 1098.24 778.552ZM1102.86 568.493C1105.71 569.632 1107.67 570.699 1107.21 570.864C1106.32 571.18 1097.67 567.522 1097.67 566.829C1097.67 566.604 1100.01 567.352 1102.86 568.493ZM1103.55 779.54C1104.48 779.791 1103.95 780.002 1102.37 780.01C1100.78 780.017 1100.02 779.813 1100.67 779.555C1101.32 779.297 1102.62 779.29 1103.55 779.54ZM1124.53 5.25661C1126.52 5.4793 1125.12 5.64191 1121.43 5.61986C1117.73 5.5969 1116.1 5.41516 1117.81 5.21543C1119.51 5.01576 1122.54 5.03489 1124.53 5.25661ZM1113.19 906.278C1114.13 906.528 1113.59 906.74 1112.01 906.747C1110.42 906.755 1109.66 906.551 1110.31 906.293C1110.97 906.034 1112.26 906.027 1113.19 906.278ZM1114.14 571.393C1114.9 571.704 1114.68 571.93 1113.56 571.968C1112.54 572.002 1111.98 571.771 1112.3 571.455C1112.62 571.139 1113.45 571.11 1114.14 571.393ZM1118.49 907.306C1119.14 907.576 1118.6 907.79 1117.28 907.781C1115.96 907.771 1115.42 907.549 1116.09 907.288C1116.75 907.026 1117.83 907.034 1118.49 907.306ZM1119.35 779.665C1120.11 779.976 1119.89 780.202 1118.77 780.24C1117.75 780.274 1117.19 780.043 1117.51 779.727C1117.83 779.411 1118.66 779.382 1119.35 779.665ZM1121.83 570.489C1122.59 570.8 1122.36 571.026 1121.24 571.064C1120.23 571.098 1119.67 570.868 1119.99 570.551C1120.31 570.235 1121.14 570.206 1121.83 570.489ZM1127.6 908.305C1128.52 908.553 1127.76 908.745 1125.92 908.732C1124.07 908.718 1123.31 908.515 1124.24 908.281C1125.17 908.046 1126.68 908.057 1127.6 908.305ZM1132.64 6.32013C1133.4 6.63177 1133.18 6.85759 1132.06 6.8955C1131.04 6.92942 1130.48 6.69887 1130.8 6.38259C1131.12 6.06637 1131.95 6.03783 1132.64 6.32013ZM1146.78 908.441C1147.71 908.691 1147.18 908.902 1145.6 908.91C1144.01 908.918 1143.25 908.714 1143.9 908.455C1144.55 908.197 1145.85 908.19 1146.78 908.441ZM1182.04 550.768C1182.96 551.016 1182.2 551.208 1180.35 551.194C1178.51 551.181 1177.75 550.978 1178.68 550.744C1179.6 550.509 1181.11 550.52 1182.04 550.768ZM1191.62 21.1324C1192.55 21.3829 1192.02 21.594 1190.44 21.6017C1188.85 21.6095 1188.09 21.4053 1188.74 21.147C1189.39 20.8888 1190.69 20.8819 1191.62 21.1324ZM1197.65 19.9219C1198.7 19.9296 1199.57 20.1019 1199.57 20.3034C1199.56 20.5059 1198.7 20.8911 1197.64 21.1598C1196.58 21.4275 1195.72 21.2562 1195.72 20.7774C1195.73 20.2995 1196.59 19.9143 1197.65 19.9219ZM1202.63 19.3027C1203.4 19.6143 1203.17 19.8401 1202.05 19.878C1201.04 19.912 1200.47 19.6814 1200.79 19.3651C1201.11 19.0489 1201.94 19.0204 1202.63 19.3027ZM1203.35 557.821C1205.02 558.703 1206.18 559.638 1205.91 559.9C1205.65 560.162 1204.06 559.655 1202.38 558.774C1200.7 557.892 1199.55 556.957 1199.82 556.695C1200.08 556.433 1201.67 556.94 1203.35 557.821ZM1205.9 901.223C1206.56 901.493 1206.01 901.707 1204.69 901.697C1203.37 901.688 1202.84 901.466 1203.5 901.205C1204.16 900.943 1205.24 900.951 1205.9 901.223ZM1229.2 567.762C1233.16 567.791 1234.78 567.633 1232.8 567.412C1230.82 567.19 1227.58 567.167 1225.6 567.36C1223.62 567.552 1225.24 567.733 1229.2 567.762ZM1229.65 902.655C1234.14 902.687 1235.97 902.535 1233.73 902.317C1231.49 902.098 1227.82 902.071 1225.57 902.258C1223.33 902.443 1225.16 902.622 1229.65 902.655ZM1231.58 900.762C1235.54 900.791 1237.16 900.633 1235.19 900.412C1233.21 900.19 1229.97 900.167 1227.99 900.36C1226 900.552 1227.62 900.733 1231.58 900.762ZM1250.03 904.91C1264.68 906.422 1287.34 906.61 1306.6 905.379C1314.7 904.861 1335.15 904.215 1352.05 903.946L1382.78 903.455L1359.26 902.914L1335.74 902.373L1358.78 902.007L1381.83 901.642L1355.92 901.241C1339.77 900.99 1321.51 901.36 1307.43 902.221C1286.39 903.509 1267.89 903.364 1245.5 901.737C1240.05 901.341 1240.6 901.51 1248.37 902.629L1257.96 904.01L1248.12 903.455C1242.71 903.149 1238.29 903.078 1238.28 903.297C1238.28 903.517 1243.57 904.242 1250.03 904.91ZM1247.47 563.554C1248.38 563.561 1248.2 563.864 1246.98 564.375C1245.92 564.821 1244.41 565.181 1243.62 565.175C1242.71 565.169 1242.89 564.866 1244.1 564.354C1245.16 563.908 1246.68 563.549 1247.47 563.554ZM1283.59 904.584C1288.5 904.795 1284.74 904.911 1275.24 904.843C1265.73 904.775 1261.72 904.603 1266.31 904.461C1270.91 904.319 1278.68 904.374 1283.59 904.584ZM1265.76 557.384C1267.43 556.95 1267.72 557.028 1266.71 557.639C1265.92 558.123 1264.19 558.799 1262.86 559.143C1261.19 559.577 1260.9 559.499 1261.9 558.888C1262.7 558.404 1264.43 557.728 1265.76 557.384ZM1273.63 555.277C1274.4 555.588 1274.17 555.814 1273.05 555.852C1272.04 555.886 1271.47 555.655 1271.79 555.339C1272.11 555.023 1272.94 554.994 1273.63 555.277ZM1281.33 553.413C1282.09 553.725 1281.86 553.951 1280.74 553.989C1279.73 554.023 1279.16 553.792 1279.49 553.476C1279.81 553.159 1280.64 553.131 1281.33 553.413ZM1294.33 552.503C1296.32 552.726 1294.93 552.888 1291.23 552.866C1287.54 552.843 1285.91 552.662 1287.61 552.462C1289.32 552.262 1292.34 552.281 1294.33 552.503ZM1302.45 553.566C1303.21 553.878 1302.98 554.104 1301.86 554.142C1300.85 554.176 1300.29 553.945 1300.61 553.629C1300.93 553.313 1301.76 553.284 1302.45 553.566ZM1303.31 903.819C1304.24 904.069 1303.71 904.28 1302.12 904.288C1300.54 904.296 1299.78 904.091 1300.43 903.833C1301.08 903.575 1302.38 903.568 1303.31 903.819ZM1319.16 902.961C1320.36 903.199 1319.6 903.39 1317.49 903.385C1315.38 903.38 1314.4 903.185 1315.32 902.952C1316.24 902.719 1317.97 902.723 1319.16 902.961ZM1328.32 560.471C1329.08 560.783 1328.85 561.009 1327.73 561.047C1326.72 561.081 1326.16 560.85 1326.48 560.534C1326.8 560.217 1327.63 560.189 1328.32 560.471ZM1334.13 561.493C1334.79 561.764 1334.25 561.978 1332.93 561.968C1331.61 561.959 1331.07 561.737 1331.73 561.476C1332.39 561.214 1333.47 561.222 1334.13 561.493ZM1349.43 561.584C1350.2 561.896 1349.97 562.121 1348.85 562.159C1347.84 562.193 1347.27 561.963 1347.59 561.647C1347.91 561.33 1348.74 561.302 1349.43 561.584ZM1427.42 903.13C1431.91 903.162 1433.75 903.01 1431.51 902.792C1429.26 902.573 1425.59 902.546 1423.35 902.733C1421.1 902.918 1422.93 903.097 1427.42 903.13Z" fill="#FF8E21" fill-opacity="0.2"/>
</svg>
