<svg width="137" height="34" viewBox="0 0 137 34" fill="none" xmlns="http://www.w3.org/2000/svg">
<path d="M54.0661 19.9143L61.6255 29.1429H55.6562L48.9286 20.6671V29.1429H44.0357V4.85714H48.9286V19.1371L55.1425 12.1429H61.3809L54.0661 19.9143ZM34.4946 11.6571C32.32 11.6894 30.2996 12.7785 29.088 14.5714V12.1429H24.4643V29.1429H29.3571V21.2014C29.2273 20.0363 29.5908 18.8699 30.3608 17.9811C31.1309 17.0923 32.2382 16.5611 33.4182 16.5143C36.2561 16.5143 36.6964 19.2829 36.6964 21.2014V29.1429H41.5893V20.1329C41.5893 14.79 39.8034 11.6571 34.5925 11.6571H34.4946ZM78.2857 21.0314C78.3044 21.3874 78.3044 21.7441 78.2857 22.1H65.442V22.27C65.8726 24.362 67.77 25.8338 69.9189 25.7429C71.5865 25.8148 73.2117 25.2098 74.4204 24.0671L77.6741 26.4957C75.5887 28.6083 72.7004 29.7464 69.7232 29.6286C67.2563 29.7834 64.8428 28.8693 63.1068 27.1226C61.3707 25.3759 60.4824 22.968 60.6714 20.5214C60.6208 18.1084 61.5828 15.7831 63.3274 14.102C65.0719 12.4209 67.4418 11.5353 69.87 11.6571C74.4693 11.6571 78.2857 14.8871 78.2857 21.0314ZM73.7354 18.9429C73.699 17.9707 73.2619 17.056 72.5264 16.4131C71.7909 15.7702 70.8216 15.4556 69.8455 15.5429C67.6943 15.312 65.7461 16.8162 65.442 18.9429H73.7354ZM4.89286 4.85714H0V29.1429H14.6786V24.2857H4.89286V4.85714ZM92.9643 4.85714H97.8571V29.1429H93.2334V27.4429C92.0428 28.899 90.228 29.7097 88.3405 29.6286C86.0422 29.57 83.8701 28.5724 82.3372 26.8714C80.8044 25.1704 80.0466 22.9168 80.2429 20.6429C80.0093 18.3647 80.7507 16.094 82.286 14.3851C83.8214 12.6761 86.0095 11.6863 88.3161 11.6571C90.0324 11.5825 91.707 12.195 92.9643 13.3571V4.85714ZM93.3312 20.6429C93.4869 19.5082 93.14 18.3622 92.3801 17.5007C91.6201 16.6392 90.5216 16.1465 89.368 16.15C87.0276 16.3187 85.2542 18.3167 85.3804 20.6429C85.2542 22.969 87.0276 24.967 89.368 25.1357C90.5216 25.1392 91.6201 24.6466 92.3801 23.785C93.14 22.9235 93.4869 21.7775 93.3312 20.6429ZM19.5714 4.37143C17.9391 4.3945 16.6032 5.66762 16.5134 7.28571C16.5134 8.96229 17.8825 10.3214 19.5714 10.3214C21.2603 10.3214 22.6295 8.96229 22.6295 7.28571C22.5396 5.66762 21.2037 4.3945 19.5714 4.37143ZM17.125 29.1429H22.0179V12.1429H17.125V29.1429ZM137 2.42857V31.5714C137 32.9127 135.905 34 134.554 34H105.196C103.845 34 102.75 32.9127 102.75 31.5714V2.42857C102.75 1.08731 103.845 0 105.196 0H134.554C135.905 0 137 1.08731 137 2.42857ZM112.536 12.1429H107.643V29.1429H112.536V12.1429ZM113.147 7.28571C113.147 5.60914 111.778 4.25 110.089 4.25C108.4 4.25 107.031 5.60914 107.031 7.28571C107.031 8.96229 108.4 10.3214 110.089 10.3214C111.778 10.3214 113.147 8.96229 113.147 7.28571ZM132.107 20.1329C132.107 14.79 130.321 11.6571 125.11 11.6571C122.901 11.6574 120.837 12.7502 119.606 14.5714V12.1429H114.982V29.1429H119.875V21.2014C119.745 20.0363 120.109 18.8699 120.879 17.9811C121.649 17.0923 122.756 16.5611 123.936 16.5143C126.774 16.5143 127.214 19.2829 127.214 21.2014V29.1429H132.107V20.1329Z" fill="#0A66C2"/>
</svg>
