<svg width="51" height="46" viewBox="0 0 51 46" fill="none" xmlns="http://www.w3.org/2000/svg">
<path d="M2 44C3.16667 41.8788 7.6 37.6364 16 37.6364C24.4 37.6364 28.8333 32.5455 30 30M16 13.6667V6.66667C16 4.08934 18.0893 2 20.6667 2H44C46.5773 2 48.6667 4.08934 48.6667 6.66667V25.3333C48.6667 27.9107 46.5773 30 44 30H36.3926M25.3333 11.3333H39.3333M32.3333 20.6667H39.3333M20.6667 25.3333C20.6667 27.9107 18.5773 30 16 30C13.4227 30 11.3333 27.9107 11.3333 25.3333C11.3333 22.756 13.4227 20.6667 16 20.6667C18.5773 20.6667 20.6667 22.756 20.6667 25.3333Z" stroke="#00BE9B" stroke-width="3" stroke-linecap="round"/>
</svg>
