<svg width="84" height="100" viewBox="0 0 84 100" fill="none" xmlns="http://www.w3.org/2000/svg">
<path fill-rule="evenodd" clip-rule="evenodd" d="M5.16154 92.9368H3.10178C2.48774 92.9368 1.99019 93.3918 1.99019 93.9571V98.9796C1.99019 99.5429 2.48774 100 3.10178 100H80.7106C81.3246 100 81.8222 99.5429 81.8222 98.9796V93.9571C81.8222 93.3918 81.3246 92.9368 80.7106 92.9368H78.6508V82.894C78.6508 77.9756 74.3012 73.9838 68.9436 73.9838H58.5237C53.1663 73.9838 48.8167 77.9756 48.8167 82.894V92.9368H34.9957V82.894C34.9957 77.9756 30.646 73.9838 25.2886 73.9838H14.8688C9.51118 73.9838 5.16154 77.9756 5.16154 82.894V92.9368ZM79.599 94.9776V97.9592H4.21337V94.9776C13.623 94.9776 79.599 94.9776 79.599 94.9776ZM76.4276 92.9368V82.894C76.4276 79.1021 73.0742 76.0246 68.9436 76.0246H58.5237C54.3933 76.0246 51.0399 79.1021 51.0399 82.894V92.9368H54.5378V84.4797C54.5378 83.9164 55.036 83.4593 55.6494 83.4593C56.263 83.4593 56.761 83.9164 56.761 84.4797V92.9368H70.7063V84.4797C70.7063 83.9164 71.2045 83.4593 71.8179 83.4593C72.4315 83.4593 72.9295 83.9164 72.9295 84.4797V92.9368H76.4276ZM32.7725 92.9368V82.894C32.7725 79.1021 29.4191 76.0246 25.2886 76.0246H14.8688C10.7382 76.0246 7.38472 79.1021 7.38472 82.894V92.9368H10.8829V84.4797C10.8829 83.9164 11.3809 83.4593 11.9945 83.4593C12.6079 83.4593 13.1061 83.9164 13.1061 84.4797V92.9368H27.0514V84.4797C27.0514 83.9164 27.5494 83.4593 28.163 83.4593C28.7763 83.4593 29.2745 83.9164 29.2745 84.4797V92.9368H32.7725ZM20.2031 54.1186C14.3726 54.1186 9.63902 58.4635 9.63902 63.8145C9.63902 69.1675 14.3726 73.5124 20.2031 73.5124C26.0334 73.5124 30.767 69.1675 30.767 63.8145C30.767 58.4635 26.0334 54.1186 20.2031 54.1186ZM63.858 54.1186C58.0278 54.1186 53.2942 58.4635 53.2942 63.8145C53.2942 69.1675 58.0278 73.5124 63.858 73.5124C69.6885 73.5124 74.4221 69.1675 74.4221 63.8145C74.4221 58.4635 69.6885 54.1186 63.858 54.1186ZM20.2031 56.1594C24.8064 56.1594 28.5438 59.59 28.5438 63.8145C28.5438 68.041 24.8064 71.4716 20.2031 71.4716C15.5996 71.4716 11.8622 68.041 11.8622 63.8145C11.8622 59.59 15.5996 56.1594 20.2031 56.1594ZM63.858 56.1594C68.4616 56.1594 72.1989 59.59 72.1989 63.8145C72.1989 68.041 68.4616 71.4716 63.858 71.4716C59.2547 71.4716 55.5173 68.041 55.5173 63.8145C55.5173 59.59 59.2547 56.1594 63.858 56.1594ZM41.9062 7.20047C39.2744 2.40662 33.0377 -0.0403138 26.5474 0.000502326C25.9367 0.00458394 25.4438 0.461724 25.4438 1.02091V5.15967C24.2991 5.09232 23.141 5.06172 21.969 5.06988C21.3583 5.07396 20.8654 5.52906 20.8654 6.09029V20.0943H9.00942C4.03707 20.0943 0 23.8004 0 28.3657V42.8636C0 47.4288 4.03707 51.1349 9.00942 51.1349H35.7111L40.9182 60.4002C41.109 60.741 41.4902 60.9532 41.9062 60.9532C42.3221 60.9532 42.7034 60.741 42.8942 60.4002L48.1013 51.1349H74.8029C79.7753 51.1349 83.813 47.4288 83.813 42.8636V28.3657C83.813 23.8004 79.7753 20.0943 74.8029 20.0943H62.947V6.09029C62.947 5.52906 62.4541 5.07396 61.8434 5.06988C60.6713 5.06172 59.5133 5.09232 58.3686 5.15967V1.02091C58.3686 0.461724 57.8757 0.00458394 57.265 0.000502326C50.7747 -0.0403138 44.538 2.40662 41.9062 7.20047ZM62.947 22.1351V39.1493C62.947 39.4207 62.8289 39.6819 62.6186 39.8737C62.4085 40.0656 62.1237 40.1717 61.8276 40.1697C54.8359 40.1248 48.3554 41.4839 42.426 44.3635C42.1007 44.5227 41.7117 44.5227 41.3864 44.3635C35.457 41.4839 28.9764 40.1248 21.9848 40.1697C21.6886 40.1717 21.4038 40.0656 21.1937 39.8737C20.9834 39.6819 20.8654 39.4207 20.8654 39.1493V22.1351H9.00942C5.26404 22.1351 2.22317 24.9269 2.22317 28.3657V42.8636C2.22317 46.3023 5.26404 49.0941 9.00942 49.0941H36.3883C36.8044 49.0941 37.1855 49.3064 37.3762 49.6472L41.9062 57.7063L46.4361 49.6472C46.6269 49.3064 47.0079 49.0941 47.4241 49.0941H74.8029C78.5483 49.0941 81.5892 46.3023 81.5892 42.8636V28.3657C81.5892 24.9269 78.5483 22.1351 74.8029 22.1351H62.947ZM60.7238 36.7125C54.1597 36.8105 48.0546 38.1738 42.4429 40.8941C42.4233 40.9044 42.4035 40.9146 42.3833 40.9227C42.317 40.9513 42.2468 40.9758 42.1741 40.9921C42.1229 41.0024 42.0714 41.0105 42.0198 41.0166H42.016C41.9878 41.0187 41.9595 41.0207 41.9315 41.0207H41.922L41.9153 41.0227H41.904H41.8935L41.8835 41.0207C41.8555 41.0207 41.8246 41.0187 41.7964 41.0166H41.7926C41.741 41.0105 41.6894 41.0024 41.6383 40.9921C41.5654 40.9758 41.4953 40.9513 41.4291 40.9227C41.4089 40.9146 41.3891 40.9044 41.3695 40.8941C35.7587 38.1738 29.6536 36.8105 23.0886 36.7125V38.133C29.8321 38.2289 36.1146 39.5942 41.9062 42.3125C47.6978 39.5942 53.9802 38.2289 60.7238 38.133V36.7125ZM44.1256 37.886C49.2929 35.8085 54.8324 34.7554 60.7238 34.6717V7.11477C59.9321 7.12702 59.1469 7.15558 58.3686 7.20456V30.6187C58.3686 30.8922 58.2505 31.1514 58.0402 31.3432C57.8301 31.535 57.5453 31.6412 57.2492 31.6391C52.9029 31.6126 47.0635 33.2636 44.1256 37.886ZM25.4438 7.20456C24.6655 7.15558 23.8802 7.12702 23.0886 7.11477V34.6717C28.98 34.7554 34.5195 35.8085 39.6868 37.886C36.7489 33.2636 30.9095 31.6126 26.5632 31.6391C26.267 31.6412 25.9822 31.535 25.7722 31.3432C25.5618 31.1514 25.4438 30.8922 25.4438 30.6187V7.20456ZM27.667 6.25147V6.27189V29.6248C32.1166 29.8514 37.5139 31.6024 40.7946 35.7167V10.4964C39.6657 5.06781 33.8614 2.3148 27.667 2.06174V6.25147ZM56.1454 6.25147V2.06174C49.951 2.3148 44.1467 5.06781 43.0178 10.4964V35.7167C46.2985 31.6024 51.6957 29.8514 56.1454 29.6248V6.27189V6.25147Z" fill="#668EFF"/>
</svg>
