<svg width="50" height="50" viewBox="0 0 50 50" fill="none" xmlns="http://www.w3.org/2000/svg">
<path d="M15.1998 10C15.1998 10 16.1998 4.6 19.3998 4.4C19.3998 4.4 16.3998 1.4 13.7998 4.2C11.1998 7 15.1998 10 15.1998 10ZM38.7998 46.8C38.7998 46.8 39.7998 41.4 42.9998 41.2C42.9998 41.2 39.9998 38.2 37.3998 41C34.7998 43.8 38.7998 46.8 38.7998 46.8ZM43.7998 24.2C43.7998 24.2 44.7998 18.8 47.9998 18.6C47.9998 18.6 44.9998 15.6 42.3998 18.4C39.7998 21.2 43.7998 24.2 43.7998 24.2ZM17.5998 43.2C17.5998 43.2 18.9998 36.2 22.9998 36C22.9998 36 19.1998 32.2 15.7998 35.8C12.3998 39.6 17.5998 43.2 17.5998 43.2Z" fill="#90B2BF"/>
<path d="M19.6001 44C22.3615 44 24.6001 41.7614 24.6001 39C24.6001 36.2386 22.3615 34 19.6001 34C16.8387 34 14.6001 36.2386 14.6001 39C14.6001 41.7614 16.8387 44 19.6001 44Z" stroke="#273E47" stroke-width="2" stroke-miterlimit="10"/>
<path d="M16.8 10.8002C18.8987 10.8002 20.6 9.09888 20.6 7.0002C20.6 4.90151 18.8987 3.2002 16.8 3.2002C14.7013 3.2002 13 4.90151 13 7.0002C13 9.09888 14.7013 10.8002 16.8 10.8002Z" stroke="#273E47" stroke-width="2" stroke-miterlimit="10"/>
<path d="M40.1999 47.3998C42.2986 47.3998 43.9999 45.6985 43.9999 43.5998C43.9999 41.5011 42.2986 39.7998 40.1999 39.7998C38.1012 39.7998 36.3999 41.5011 36.3999 43.5998C36.3999 45.6985 38.1012 47.3998 40.1999 47.3998Z" stroke="#273E47" stroke-width="2" stroke-miterlimit="10"/>
<path d="M45.1999 24.6C47.2986 24.6 48.9999 22.8987 48.9999 20.8C48.9999 18.7013 47.2986 17 45.1999 17C43.1012 17 41.3999 18.7013 41.3999 20.8C41.3999 22.8987 43.1012 24.6 45.1999 24.6Z" stroke="#273E47" stroke-width="2" stroke-miterlimit="10"/>
<path d="M6 29.6001C8.76142 29.6001 11 27.3615 11 24.6001C11 21.8387 8.76142 19.6001 6 19.6001C3.23858 19.6001 1 21.8387 1 24.6001C1 27.3615 3.23858 29.6001 6 29.6001Z" stroke="#273E47" stroke-width="2" stroke-miterlimit="10"/>
<path d="M8.2002 19.4L15.2002 10.8M24.6002 36.2L42.8002 23.4M40.2002 39.8L45.2002 24.6M20.4002 7L41.8002 19.4M10.6002 26.6L41.6002 20.8" stroke="#273E47" stroke-width="1.5" stroke-miterlimit="10"/>
</svg>
