<svg width="900" height="900" viewBox="0 0 50 50" fill="none" xmlns="http://www.w3.org/2000/svg">
<path d="M44.5948 18.3071L41.6148 13.9398C41.487 13.7527 41.277 13.6385 41.049 13.6385H29.3067L29.3064 5.39204C29.3064 5.01314 29.0005 4.70752 28.6218 4.70752H20.1655C19.7866 4.70752 19.481 5.01342 19.481 5.39204V7.36364H7.7431C7.51483 7.36364 7.30511 7.47777 7.17735 7.6649L4.19735 12.0275C4.03773 12.2602 4.03773 12.5661 4.19735 12.7987L7.17735 17.1659C7.30511 17.3531 7.51512 17.4672 7.7431 17.4672H19.4854V19.9225H7.7431C7.51483 19.9225 7.30511 20.0367 7.17735 20.2238L4.19735 24.5867C4.03773 24.8193 4.03773 25.1252 4.19735 25.3578L7.17735 29.7252C7.30511 29.9122 7.51512 30.0217 7.7431 30.0217H19.4854V44.023C19.4854 44.4019 19.7913 44.7075 20.1699 44.7075H25.3223C27.5218 44.7075 29.3109 42.9184 29.3109 40.7189V23.7468H41.0533C41.2816 23.7468 41.4913 23.6327 41.619 23.4502L44.599 19.0829C44.7587 18.8503 44.7587 18.5444 44.599 18.3118L44.5948 18.3071ZM8.10409 16.0982L5.59396 12.4155L8.10409 8.73283H19.486V16.0982H8.10409ZM8.10409 28.6578L5.59396 24.9751L8.10409 21.2923H19.486V28.6582L8.10409 28.6578ZM27.9379 40.7242C27.9379 42.1709 26.7607 43.3438 25.3183 43.3438H20.8505L20.8508 6.07745H27.9382L27.9379 40.7242ZM40.6888 22.3788H29.3069V15.013H40.6888L43.1989 18.6957L40.6888 22.3788Z" fill="#33535F"/>
</svg>
