<svg width="208" height="226" viewBox="0 0 208 226" fill="none" xmlns="http://www.w3.org/2000/svg">
<path d="M164.997 101.628L140.446 124.659C134.05 106.305 126.745 101.271 123.525 99.9043C120.283 102.267 104.303 105.626 96.057 106.642L77.6665 141.398C76.6996 143.236 76.1515 145.25 76.059 147.307C75.9664 149.365 76.3314 151.417 77.1297 153.327C82.9127 166.757 89.9669 179.651 98.2041 191.846C108.285 190.503 116.803 186.564 121.844 178.171C113.046 166.421 105.671 155.276 100.538 145.137L108.845 132.046L108.496 119.198C113.583 129.27 122.452 139.475 129.336 146.502C131.501 148.704 134.451 150.043 137.599 150.254C140.746 150.466 143.862 149.534 146.326 147.644C158.299 138.49 169.758 128.933 181.147 119.373C180.216 115.356 178.249 111.628 175.429 108.528C172.607 105.428 169.021 103.056 164.997 101.628Z" fill="#668EFF"/>
<path fill-rule="evenodd" clip-rule="evenodd" d="M63.7603 39.4109L54.473 35.8888C52.1077 37.3934 49.473 38.466 46.7014 39.0528C33.1419 41.9623 19.5886 33.1478 19.4658 20.5438C19.3564 9.89054 29.1241 1.16671 41.3066 1.04892C53.4657 0.938192 63.4225 9.4653 63.5503 20.1469C63.5826 23.8764 62.3995 27.5226 60.1662 30.5763L63.7603 39.4109ZM45.1822 16.2535C45.5045 16.3817 45.7974 16.5695 46.044 16.8062C46.2909 17.0428 46.4868 17.3236 46.6203 17.6328C46.7539 17.9419 46.8227 18.2732 46.8227 18.6079C46.8227 18.9425 46.7539 19.2739 46.6203 19.583C46.4868 19.8922 46.2909 20.173 46.044 20.4095L41.6097 24.6395L37.1755 20.4095C36.6773 19.9316 36.3973 19.2837 36.3973 18.6079C36.3973 17.9321 36.6773 17.284 37.1755 16.8062C37.6738 16.3284 38.3496 16.06 39.0542 16.06C39.7589 16.06 40.4347 16.3284 40.9329 16.8062L41.6097 17.4553L42.2865 16.8062C42.5332 16.5695 42.8261 16.3817 43.1484 16.2535C43.4707 16.1254 43.8163 16.0594 44.1652 16.0594C44.5142 16.0594 44.8597 16.1254 45.1822 16.2535Z" fill="#668EFF"/>
<path d="M12.2262 99.458L13.2531 101.45L15.5402 101.763L13.8832 103.308L14.28 105.5L12.2262 104.47L10.1958 105.5L10.5692 103.308L8.93555 101.763L11.2227 101.45L12.2262 99.458Z" fill="#668EFF"/>
<path d="M21.1421 99.458L22.169 101.45L24.4562 101.763L22.7991 103.308L23.1959 105.5L21.1421 104.47L19.1117 105.5L19.4851 103.308L17.8281 101.763L20.1153 101.45L21.1421 99.458Z" fill="#668EFF"/>
<path d="M30.0562 99.458L31.0831 101.45L33.3702 101.763L31.7132 103.308L32.11 105.5L30.0562 104.47L28.0024 105.5L28.3992 103.308L26.7422 101.763L29.0293 101.45L30.0562 99.458Z" fill="#668EFF"/>
<path d="M38.9722 99.458L39.9991 101.45L42.2862 101.763L40.6292 103.308L41.0026 105.5L38.9722 104.47L36.9185 105.5L37.3152 103.308L35.6582 101.763L37.9453 101.45L38.9722 99.458Z" fill="#668EFF"/>
<path d="M47.8863 99.458L48.8898 101.45L51.177 101.763L49.52 103.308L49.9167 105.5L47.8863 104.47L45.8325 105.5L46.2293 103.308L44.5723 101.763L46.8594 101.45L47.8863 99.458Z" fill="#668EFF"/>
<path d="M188.756 182.826L180.167 181.639L176.34 174.187L172.512 181.639L163.924 182.826L170.132 188.645L168.661 196.836L176.34 192.964L184.018 196.836L182.548 188.645L188.756 182.826Z" fill="#668EFF"/>
<path d="M99.0684 54.6514C99.1788 55.1669 99.2336 55.6919 99.2317 56.2181L100.514 53.8457C100.057 54.1534 99.5734 54.423 99.0684 54.6514Z" fill="#668EFF"/>
<path d="M95.7324 105.075C95.1023 108.074 93.3753 106.933 92.0684 103.755C93.26 104.267 94.4837 104.708 95.7324 105.075Z" fill="#668EFF"/>
<path d="M93.9113 93.036C93.3351 93.174 92.7355 93.1973 92.1495 93.1047C91.5636 93.0122 91.0035 92.8055 90.5039 92.4976C91.0407 89.6293 92.581 90.1936 93.9113 93.036Z" fill="#668EFF"/>
<path d="M78.9739 61.7694L72.416 72.0646C72.3608 72.1447 72.3412 72.2426 72.3611 72.3366C72.3811 72.4306 72.4391 72.5133 72.5224 72.5664C72.6058 72.6195 72.7076 72.6389 72.8057 72.6201C72.9039 72.6013 72.9904 72.546 73.0461 72.4663L80.4443 62.7094C80.5148 62.6171 80.5651 62.5119 80.5921 62.4003C80.6191 62.2888 80.6223 62.1732 80.6014 62.0605C80.5805 61.9477 80.5362 61.8402 80.4709 61.7443C80.4055 61.6485 80.3205 61.5664 80.2211 61.5029C80.1219 61.4393 80.0101 61.3958 79.8927 61.3747C79.7754 61.3537 79.6548 61.3557 79.5382 61.3807C79.4216 61.4056 79.3116 61.4529 79.2146 61.5197C79.1176 61.5865 79.0358 61.6714 78.9739 61.7694Z" fill="#323232"/>
<path d="M95.9414 52.3912C95.9514 52.6846 96.0798 52.9628 96.2997 53.1671C96.5197 53.3713 96.8139 53.4855 97.12 53.4855C97.4262 53.4855 97.7203 53.3713 97.9403 53.1671C98.1602 52.9628 98.2887 52.6846 98.2986 52.3912C98.2887 52.0978 98.1602 51.8195 97.9403 51.6153C97.7203 51.411 97.4262 51.2969 97.12 51.2969C96.8139 51.2969 96.5197 51.411 96.2997 51.6153C96.0798 51.8195 95.9514 52.0978 95.9414 52.3912Z" fill="#668EFF"/>
<path d="M112.557 126.158L108.823 132.021L108.473 119.175C109.708 121.568 111.071 123.9 112.557 126.158Z" fill="#668EFF"/>
<path d="M169.198 99.4123L166.584 102.278C171.489 104.344 175.572 107.866 178.23 112.326C180.012 111.099 182.002 110.176 184.111 109.596C191.139 106.949 197.82 103.524 204.018 99.3899C197.204 97.2202 176.223 98.8304 169.198 99.4123Z" fill="#668EFF"/>
<path d="M115.661 185.198C111.466 188.329 106.539 190.434 101.307 191.331L102.148 192.606C103.665 194.867 103.852 197.351 104.084 200.037C104.947 207.233 106.678 214.309 109.243 221.122C113.21 215.35 116.968 195.496 118.181 188.826L115.661 185.198Z" fill="#668EFF"/>
<path d="M116.38 34.2407C116.38 29.496 112.927 23.4531 107.956 23.4531C103.007 23.4531 98.7142 28.0636 98.1062 32.6964C97.9499 33.9033 98.138 35.1283 98.6503 36.2408C97.1749 36.3928 95.7896 36.9965 94.6998 37.9624C93.6099 38.9284 92.8735 40.2053 92.5996 41.604L93.2052 41.5816C93.0335 43.1648 92.9539 44.7559 92.9669 46.3475C93.968 37.8075 99.0741 41.0268 100.65 44.3568C101.019 42.6111 101.957 41.3802 103.055 41.3802H106.345C106.701 41.3928 107.043 41.51 107.327 41.7159C107.294 41.5686 107.258 41.4285 107.222 41.2895C112.131 41.2424 116.38 38.9371 116.38 34.2407Z" fill="#668EFF"/>
<path d="M116.38 34.2407C116.38 29.496 112.927 23.4531 107.956 23.4531C103.007 23.4531 98.7142 28.0636 98.1062 32.6964C97.9499 33.9033 98.138 35.1283 98.6503 36.2408C97.1749 36.3928 95.7896 36.9965 94.6998 37.9624C93.6099 38.9284 92.8735 40.2053 92.5996 41.604L93.2052 41.5816C93.0335 43.1648 92.9539 44.7559 92.9669 46.3475C93.968 37.8075 99.0741 41.0268 100.65 44.3568C101.019 42.6111 101.957 41.3802 103.055 41.3802H106.345C106.701 41.3928 107.043 41.51 107.327 41.7159C107.294 41.5686 107.258 41.4285 107.222 41.2895C112.131 41.2424 116.38 38.9371 116.38 34.2407Z" stroke="#323232" stroke-linejoin="round"/>
<path d="M93.4663 184.504C77.7742 182.359 63.2391 175.365 52.0645 164.585" stroke="#323232" stroke-linecap="round" stroke-linejoin="round"/>
<path d="M176.339 123.382C174.494 138.252 167.732 152.166 157.044 163.084C146.356 174.003 132.304 181.352 116.943 184.056" stroke="#323232" stroke-linecap="round" stroke-linejoin="round"/>
<path d="M168.801 83.165C170.999 87.2611 172.767 91.5575 174.075 95.9904" stroke="#323232" stroke-linecap="round" stroke-linejoin="round"/>
<path d="M32.7398 134.707V111.677H51.6904C52.57 111.677 53.4135 111.342 54.0355 110.746C54.6574 110.149 55.0068 109.34 55.0068 108.497V96.437C55.0068 96.0199 54.921 95.6071 54.7542 95.2219C54.5872 94.8368 54.3428 94.487 54.0346 94.1927C53.7266 93.8985 53.3608 93.6653 52.9585 93.5069C52.5562 93.3485 52.1253 93.2679 51.6904 93.2696H8.42146C7.98516 93.2699 7.55316 93.3527 7.15027 93.5135C6.74738 93.6742 6.38146 93.9095 6.07364 94.2061C5.7657 94.5026 5.52188 94.8545 5.35618 95.2415C5.19036 95.6287 5.10585 96.0434 5.10744 96.4618V108.499C5.10744 109.343 5.4569 110.152 6.0788 110.748C6.70083 111.344 7.54431 111.68 8.42392 111.68H27.372V136.629" stroke="#323232" stroke-linecap="round" stroke-linejoin="round"/>
<path d="M32.7402 148.762V143.346" stroke="#323232" stroke-linecap="round" stroke-linejoin="round"/>
<path d="M27.373 151.505V164.631H32.7408V149.859" stroke="#323232" stroke-linecap="round" stroke-linejoin="round"/>
<path d="M32.7408 122.729H51.318C53.4472 122.729 55.4893 123.541 56.9948 124.984C58.5004 126.428 59.3463 128.387 59.3463 130.428V156.905C59.3469 158.949 58.5017 160.908 56.9963 162.354C55.4908 163.799 53.4485 164.613 51.318 164.616H8.7959C7.74212 164.617 6.69841 164.419 5.7246 164.033C4.75066 163.647 3.86565 163.081 3.11994 162.367C2.37435 161.653 1.78279 160.805 1.37916 159.872C0.975532 158.938 0.767701 157.938 0.767578 156.927V130.424C0.767578 128.382 1.6134 126.423 3.11896 124.979C4.62451 123.536 6.6666 122.725 8.7959 122.725H27.3729" stroke="#323232" stroke-linecap="round" stroke-linejoin="round"/>
<path d="M30.1963 147.466C32.9723 147.257 33.0436 144.016 30.3597 144.042C28.3526 144.062 26.9523 144.133 25.3653 144.199C22.7048 144.317 22.7294 147.713 24.9219 147.802C26.6849 147.777 28.4454 147.664 30.1963 147.466Z" stroke="#323232" stroke-linecap="round" stroke-linejoin="round"/>
<path d="M28.1268 136.654C27.1662 136.632 26.4501 136.632 25.5473 136.632C23.0035 136.61 22.9101 140.011 25.0105 140.213C26.0678 140.28 27.1285 140.28 28.1858 140.213" stroke="#323232" stroke-linecap="round" stroke-linejoin="round"/>
<path d="M30.8274 151.118C33.5101 150.838 33.5113 147.716 30.9208 147.806C28.9837 147.873 27.6301 147.987 26.0898 148.097C23.5226 148.279 23.6159 151.559 25.7397 151.588C27.443 151.517 29.1413 151.361 30.8274 151.118Z" stroke="#323232" stroke-linecap="round" stroke-linejoin="round"/>
<path d="M28.1945 140.281C27.1848 140.305 26.309 140.393 25.319 140.414C22.6167 140.482 22.5663 143.933 24.8055 144.066C26.1567 144.145 27.5828 143.976 30.1733 143.842C30.56 143.853 30.9398 143.742 31.2554 143.528C31.5712 143.313 31.806 143.007 31.9243 142.654C32.0427 142.3 32.0384 141.92 31.912 141.569C31.7856 141.219 31.5441 140.916 31.2235 140.709" stroke="#323232" stroke-linecap="round" stroke-linejoin="round"/>
<path d="M59.3468 138.825C58.0165 138.982 45.0171 139.296 38.109 139.206C36.5453 139.184 36.6804 136.792 36.2665 136.184C35.161 134.56 34.8195 134.569 31.5055 134.771C27.608 135.006 27.9668 135.173 28.2616 141.574C28.3341 143.141 31.1789 143.32 31.7157 138.352C31.2723 142.179 33.0926 144.797 35.7765 145.625" stroke="#323232" stroke-linecap="round" stroke-linejoin="round"/>
<path d="M59.3457 152.209C55.985 152.119 41.5154 152.03 32.7402 151.873" stroke="#323232" stroke-linecap="round" stroke-linejoin="round"/>
<path d="M12.2262 99.458L13.2531 101.45L15.5402 101.763L13.8832 103.308L14.28 105.5L12.2262 104.47L10.1958 105.5L10.5692 103.308L8.93555 101.763L11.2227 101.45L12.2262 99.458Z" stroke="#323232" stroke-linecap="round" stroke-linejoin="round"/>
<path d="M21.1421 99.458L22.169 101.45L24.4562 101.763L22.7991 103.308L23.1959 105.5L21.1421 104.47L19.1117 105.5L19.4851 103.308L17.8281 101.763L20.1153 101.45L21.1421 99.458Z" stroke="#323232" stroke-linecap="round" stroke-linejoin="round"/>
<path d="M30.0582 99.458L31.085 101.45L33.3722 101.763L31.7152 103.308L32.1119 105.5L30.0582 104.47L28.0044 105.5L28.4011 103.308L26.7441 101.763L29.0313 101.45L30.0582 99.458Z" stroke="#323232" stroke-linecap="round" stroke-linejoin="round"/>
<path d="M38.9722 99.458L39.9991 101.45L42.2862 101.763L40.6292 103.308L41.0026 105.5L38.9722 104.47L36.9185 105.5L37.3152 103.308L35.6582 101.763L37.9453 101.45L38.9722 99.458Z" stroke="#323232" stroke-linecap="round" stroke-linejoin="round"/>
<path d="M47.8863 99.458L48.8898 101.45L51.177 101.763L49.52 103.308L49.9167 105.5L47.8863 104.47L45.8325 105.5L46.2293 103.308L44.5723 101.763L46.8594 101.45L47.8863 99.458Z" stroke="#323232" stroke-linecap="round" stroke-linejoin="round"/>
<path d="M175.266 72.1758C172.488 72.0828 172.255 68.8635 174.939 68.7739C176.946 68.7068 178.346 68.7292 179.956 68.7292C182.617 68.7292 182.756 72.1452 180.563 72.3101C179.233 72.4126 177.833 72.2618 175.266 72.1758Z" stroke="#323232" stroke-linecap="round" stroke-linejoin="round"/>
<path d="M175.499 75.6453C172.816 75.3638 172.815 72.2434 175.406 72.3329C177.343 72.4001 177.576 72.3801 179.091 72.4896C181.658 72.6734 181.564 75.9504 179.441 75.981C178.12 75.9606 176.802 75.8484 175.499 75.6453Z" stroke="#323232" stroke-linecap="round" stroke-linejoin="round"/>
<path d="M166.234 70.5205C170.108 70.9917 172.838 66.0891 171.205 62.6201C171.205 62.6201 171.018 59.6882 170.364 55.212C169.711 50.7358 167.144 50.4225 167.214 51.4968C167.284 52.5711 166.42 58.5008 165.487 60.2477C164.483 62.1265 161.426 62.1642 159.792 62.1724C155.078 62.1948 139.908 61.2996 139.908 61.2996" stroke="#323232" stroke-linecap="round" stroke-linejoin="round"/>
<path d="M140.049 76.9877C144.74 76.8534 175.686 76.3386 179.117 76.0029" stroke="#323232" stroke-linecap="round" stroke-linejoin="round"/>
<path d="M175.569 65.1488C172.885 65.3691 172.252 62.3112 174.822 61.926C176.737 61.6386 178.089 61.4984 179.629 61.3217C182.197 61.0272 182.752 64.2501 180.656 64.6788C178.97 64.919 177.272 65.0759 175.569 65.1488Z" stroke="#323232" stroke-linecap="round" stroke-linejoin="round"/>
<path d="M175.126 68.7291C172.424 68.7527 172.046 65.6417 174.659 65.4615C176.597 65.3272 179.45 65.2412 180.984 65.1929C183.551 65.1105 183.856 68.3828 181.731 68.6172C180.449 68.7586 177.6 68.7067 175.126 68.7291Z" stroke="#323232" stroke-linecap="round" stroke-linejoin="round"/>
<path d="M170.807 58.6133C171.11 62.0376 171.273 61.7937 179.628 61.3225" stroke="#323232" stroke-linecap="round" stroke-linejoin="round"/>
<path d="M190.46 47.1768C192.589 47.1768 194.631 47.9879 196.137 49.4318C197.642 50.8756 198.488 52.8338 198.488 54.8758V75.4438C198.489 77.4868 197.643 79.4465 196.138 80.8922C194.633 82.3379 192.59 83.1513 190.46 83.1534H147.938C146.884 83.1549 145.84 82.9572 144.865 82.5718C143.89 82.1863 143.005 81.6205 142.258 80.9067C141.511 80.1929 140.919 79.345 140.514 78.4115C140.108 77.4779 139.9 76.4772 139.898 75.4661V54.8805C139.897 53.87 140.104 52.8693 140.505 51.9353C140.908 51.0013 141.498 50.1526 142.242 49.4376C142.986 48.7224 143.871 48.1552 144.844 47.7681C145.818 47.381 146.861 47.1816 147.914 47.1815L190.46 47.1768Z" stroke="#323232" stroke-linecap="round" stroke-linejoin="round"/>
<path d="M99.0664 54.6514C99.5749 54.4294 100.059 54.1595 100.512 53.8457L99.2298 56.2181" stroke="#323232" stroke-linecap="round" stroke-linejoin="round"/>
<path d="M103.384 50.5566C103.491 52.4713 103.957 54.3516 104.761 56.1071C105.53 57.8347 106.823 59.3007 108.472 60.3147C110.406 61.4373 117.271 61.343 120.001 66.1337C122.476 70.4744 125.251 84.6203 126.511 92.9012C126.766 94.5835 126.409 96.2986 125.499 97.7576C124.589 99.2167 123.182 100.33 121.517 100.911C112.808 103.852 103.778 105.833 94.6016 106.817" stroke="#323232" stroke-linecap="round" stroke-linejoin="round"/>
<path d="M100.658 44.3563C99.0488 40.9545 94.0152 37.2604 93.191 46.5049C92.936 48.4691 93.0307 50.4608 93.471 52.3946C94.4967 56.0203 97.3451 55.4384 99.0722 54.6551C99.1826 55.1705 99.2373 55.6955 99.2355 56.2217C99.3164 57.2137 99.0475 58.203 98.4719 59.0309C97.8963 59.8588 97.0475 60.4774 96.0615 60.7874C94.5188 61.2975 87.8318 61.8794 84.5558 69.5831C83.4786 72.1109 82.8288 75.1559 81.6152 77.5507" stroke="#323232" stroke-linecap="round" stroke-linejoin="round"/>
<path d="M108.005 78.5098L109.919 87.7531L91.6465 90.6178" stroke="#323232" stroke-linecap="round" stroke-linejoin="round"/>
<path d="M93.9092 93.0364C92.8712 93.2451 91.7908 93.1269 90.8285 92.6995C89.1948 91.6923 88.0034 89.1386 86.721 85.7614C84.8785 80.946 84.6206 82.9862 84.4105 84.819C84.2201 85.7308 84.8232 91.0786 82.5201 89.8324C79.5633 87.235 76.351 84.9186 72.9282 82.9155C68.5553 80.7375 68.2851 81.9284 71.6212 84.8626C72.6464 85.7589 73.6203 86.7078 74.5385 87.705C75.6561 88.909 76.6928 90.1797 77.6425 91.5097C79.055 93.6866 81.6566 97.7976 84.8306 99.8802C88.1929 102.09 91.8615 103.838 95.7295 105.071" stroke="#323232" stroke-linecap="round" stroke-linejoin="round"/>
<path d="M81.2844 96.6385C79.8841 94.3557 75.6562 91.9856 73.6344 90.2187C72.255 89.0125 69.6386 87.2739 68.1266 86.0111C67.7519 85.699 67.8932 84.8473 70.7638 86.0559C71.4013 86.3268 73.595 87.2645 74.5814 87.7521" stroke="#323232" stroke-linecap="round" stroke-linejoin="round"/>
<path d="M73.4678 90.0745C72.9629 89.9426 72.5293 89.8389 72.2996 89.7894C69.2657 89.0509 69.2645 89.9249 69.6858 90.1699C71.3858 91.1594 74.2883 92.4893 75.847 93.4599C78.1354 94.7263 80.3061 96.1789 82.335 97.8018" stroke="#323232" stroke-linecap="round" stroke-linejoin="round"/>
<path d="M90.5059 92.4759C90.9407 90.1883 92.0228 90.1094 93.1197 91.6513C95.2816 94.6798 96.8047 102.886 95.4535 105.996C94.6846 107.771 93.2131 106.551 92.0658 103.758" stroke="#323232" stroke-linecap="round" stroke-linejoin="round"/>
<path d="M90.0132 102.815L91.4836 107.245L70.0592 101.629L58.25 68.8408L80.5613 74.3689L84.3654 85.8279" stroke="#323232" stroke-linecap="round" stroke-linejoin="round"/>
<path d="M68.0516 71.2811L66.8613 67.1406L70.2454 67.924L71.0155 72.0196" stroke="#323232" stroke-linecap="round" stroke-linejoin="round"/>
<path d="M101.659 49.8398C100.674 50.7431 99.5172 51.4572 98.252 51.9436" stroke="#323232" stroke-linecap="round" stroke-linejoin="round"/>
<path d="M88.8462 75.2646C88.8462 75.2646 88.3831 81.4736 90.9933 85.9839L93.5138 90.3258" stroke="#323232" stroke-linecap="round" stroke-linejoin="round"/>
<path d="M96.0187 106.668L77.6429 141.376C76.6748 143.214 76.1261 145.228 76.0336 147.285C75.941 149.342 76.3066 151.394 77.1062 153.305C82.8811 166.738 89.9358 179.633 98.1805 191.824C108.261 190.481 116.78 186.542 121.821 178.149C113.022 166.399 105.647 155.253 100.514 145.115L112.552 126.158C117.475 133.424 123.093 140.235 129.332 146.502C131.497 148.703 134.447 150.042 137.595 150.253C140.742 150.465 143.858 149.533 146.322 147.644C158.29 138.484 169.754 128.933 181.143 119.373C180.216 115.355 178.252 111.625 175.432 108.524C172.611 105.423 169.023 103.052 164.996 101.628L140.416 124.641C134.029 106.303 126.722 101.27 123.501 99.9043" stroke="#323232" stroke-linecap="round" stroke-linejoin="round"/>
<path d="M108.823 132.021L108.496 119.175C109.715 121.573 111.069 123.904 112.557 126.158" stroke="#323232" stroke-linecap="round" stroke-linejoin="round"/>
<path d="M169.199 99.413C176.201 98.8334 197.043 97.2326 203.961 99.3882" stroke="#323232" stroke-linecap="round" stroke-linejoin="round"/>
<path d="M166.561 102.279L172.045 96.3032C183.201 94.4903 201.241 94.1098 207.421 97.0417C200.65 101.788 191.944 106.927 184.106 109.596C181.997 110.177 180.008 111.1 178.225 112.327" stroke="#323232" stroke-linecap="round" stroke-linejoin="round"/>
<path d="M115.613 185.176L120.584 192.271C119.557 203.08 115.31 219.911 110.757 224.857C107.36 216.915 105.115 208.564 104.083 200.037C103.853 197.351 103.664 194.867 102.147 192.606L101.287 191.31" stroke="#323232" stroke-linecap="round" stroke-linejoin="round"/>
<path d="M70.7578 70.6091C70.7578 70.6091 74.4919 69.5796 77.5492 73.6305" stroke="#323232" stroke-linecap="round" stroke-linejoin="round"/>
<path d="M92.4158 61.8359C92.1514 61.9978 91.9481 62.2366 91.8357 62.5174C91.7233 62.7982 91.7077 63.1062 91.7912 63.3961C91.8748 63.6861 92.0531 63.9427 92.2999 64.1283C92.5468 64.314 92.8492 64.4188 93.1627 64.4274C93.4229 64.4262 93.6781 64.3567 93.9002 64.2266C94.1224 64.0964 94.303 63.9104 94.4229 63.6888C93.5799 63.272 92.8824 62.6279 92.4158 61.8359Z" stroke="#323232" stroke-linecap="round" stroke-linejoin="round"/>
<path d="M94.3522 64.2537C94.3511 64.5741 94.4679 64.8847 94.682 65.1306C94.8961 65.3767 95.1939 65.5424 95.5228 65.5987C95.8517 65.6551 96.1909 65.5983 96.4805 65.4384C96.77 65.2786 96.9916 65.0259 97.1061 64.7248C96.2066 64.4321 95.3259 64.0883 94.4689 63.6953C94.3859 63.8704 94.3459 64.0614 94.3522 64.2537Z" stroke="#323232" stroke-linecap="round" stroke-linejoin="round"/>
<path d="M97.0371 65.1285C97.0362 65.4659 97.1648 65.7917 97.3984 66.0439C97.632 66.2961 97.9543 66.4569 98.3037 66.4956C98.6531 66.5344 99.0053 66.4484 99.2927 66.254C99.5803 66.0596 99.7829 65.7705 99.8623 65.4419C98.9295 65.2687 98.0095 65.0369 97.1084 64.748C97.0601 64.8695 97.036 64.9986 97.0371 65.1285Z" stroke="#323232" stroke-linecap="round" stroke-linejoin="round"/>
<path d="M99.7685 65.6408C99.7552 65.9988 99.8902 66.3472 100.144 66.6101C100.398 66.8729 100.75 67.0288 101.123 67.0435C101.496 67.0583 101.86 66.9309 102.136 66.6889C102.411 66.4471 102.576 66.1106 102.594 65.7527C101.653 65.7084 100.717 65.5962 99.7943 65.417C99.798 65.4818 99.7685 65.5737 99.7685 65.6408Z" stroke="#323232" stroke-linecap="round" stroke-linejoin="round"/>
<path d="M102.615 65.7526C102.615 66.1049 102.759 66.4431 103.017 66.6944C103.275 66.9455 103.625 67.0896 103.992 67.0955C104.184 67.0973 104.373 67.0607 104.55 66.9879C104.725 66.9151 104.883 66.8077 105.013 66.6727C105.142 66.5377 105.241 66.3781 105.303 66.2042C105.364 66.0302 105.386 65.8459 105.369 65.6631C104.455 65.7599 103.534 65.7898 102.615 65.7526Z" stroke="#323232" stroke-linecap="round" stroke-linejoin="round"/>
<path d="M106.838 66.7779C107.059 66.7772 107.276 66.7275 107.474 66.6329C107.672 66.5382 107.844 66.401 107.978 66.2321C108.11 66.0632 108.201 65.8669 108.243 65.6588C108.284 65.4507 108.274 65.2362 108.215 65.0322C107.313 65.3255 106.382 65.528 105.438 65.6365C105.493 65.9544 105.665 66.2433 105.92 66.4521C106.177 66.661 106.501 66.7763 106.838 66.7779Z" stroke="#323232" stroke-linecap="round" stroke-linejoin="round"/>
<path d="M109.522 65.9097C109.771 65.9099 110.015 65.8476 110.23 65.7288C110.447 65.61 110.626 65.4389 110.751 65.2327C110.877 65.0266 110.943 64.7924 110.944 64.5538C110.945 64.3152 110.881 64.0805 110.759 63.873C109.948 64.3532 109.088 64.7507 108.191 65.0592C108.303 65.3095 108.489 65.5233 108.724 65.6744C108.96 65.8254 109.238 65.9071 109.522 65.9097Z" stroke="#323232" stroke-linecap="round" stroke-linejoin="round"/>
<path d="M112.485 61.6123C112.814 61.709 113.095 61.9148 113.28 62.1929C113.464 62.4709 113.539 62.8028 113.491 63.1291C113.444 63.4555 113.276 63.7549 113.019 63.9734C112.761 64.1919 112.432 64.3153 112.088 64.3216C111.846 64.3408 111.603 64.3108 111.373 64.2337C111.144 64.1567 110.935 64.034 110.758 63.8739C111.537 63.2837 112.134 62.5021 112.485 61.6123Z" stroke="#323232" stroke-linecap="round" stroke-linejoin="round"/>
<path d="M155.777 26.8555V38.6949" stroke="#323232" stroke-linecap="round" stroke-linejoin="round"/>
<path d="M161.963 32.7637H149.617" stroke="#323232" stroke-linecap="round" stroke-linejoin="round"/>
<path d="M104.739 49.5041C106.408 51.959 108.94 49.907 108.94 45.9703C108.94 42.0537 106.392 39.984 104.739 42.4365C104.132 43.5234 103.814 44.7374 103.814 45.9703C103.814 47.2033 104.132 48.4171 104.739 49.5041Z" stroke="#323232" stroke-linecap="round" stroke-linejoin="round"/>
<path d="M106.372 41.3584H103.083C101.654 41.3584 100.512 43.4292 100.516 45.9688C100.519 48.5085 101.659 50.5628 103.083 50.5628H106.165" stroke="#323232" stroke-linecap="round" stroke-linejoin="round"/>
<path d="M92.5811 41.6259C91.4609 41.6707 90.4107 43.7968 90.5495 46.3259C90.6908 48.743 91.8577 50.6842 93.1867 50.7797C92.8157 47.7304 92.8311 44.6493 93.2321 41.6035L92.5811 41.6259Z" stroke="#323232" stroke-linecap="round" stroke-linejoin="round"/>
<path d="M92.9766 41.4697C93.2075 40.2032 93.9146 39.0619 94.9641 38.2617C96.0135 37.4615 97.3323 37.0582 98.6711 37.1278C100.02 37.0878 101.344 37.4829 102.431 38.2497C103.518 39.0165 104.305 40.111 104.668 41.3578" stroke="#323232" stroke-linecap="round" stroke-linejoin="round"/>
<path d="M46.0432 16.7839C45.7966 16.5472 45.5036 16.3594 45.1813 16.2312C44.859 16.1031 44.5135 16.0371 44.1645 16.0371C43.8156 16.0371 43.47 16.1031 43.1476 16.2312C42.8253 16.3594 42.5323 16.5472 42.2858 16.7839L41.609 17.4553L40.9322 16.7839C40.4339 16.3061 39.758 16.0377 39.0535 16.0377C38.3488 16.0377 37.673 16.3061 37.1748 16.7839C36.6764 17.2617 36.3965 17.9098 36.3965 18.5856C36.3965 19.2614 36.6764 19.9095 37.1748 20.3872L41.609 24.6396L46.0432 20.3872C46.29 20.1507 46.4859 19.8699 46.6196 19.5607C46.7531 19.2516 46.8219 18.9202 46.8219 18.5856C46.8219 18.2509 46.7531 17.9196 46.6196 17.6105C46.4859 17.3013 46.29 17.0205 46.0432 16.7839Z" stroke="#323232" stroke-linecap="round" stroke-linejoin="round"/>
<path d="M54.473 35.8888L63.7603 39.4109L60.1662 30.5763C62.3995 27.5227 63.5826 23.8764 63.5503 20.1468C63.4225 9.46529 53.4657 0.938192 41.3066 1.04892C29.1241 1.16671 19.3564 9.89053 19.4658 20.5438C19.5886 33.1478 33.1419 41.9623 46.7014 39.0528C49.473 38.466 52.1077 37.3934 54.473 35.8888Z" stroke="#323232" stroke-linecap="round" stroke-linejoin="round"/>
<path d="M188.756 182.826L180.167 181.639L176.34 174.187L172.512 181.639L163.924 182.826L170.132 188.645L168.661 196.836L176.34 192.964L184.018 196.836L182.548 188.645L188.756 182.826Z" stroke="#323232" stroke-linecap="round" stroke-linejoin="round"/>
<path d="M108.938 45.2744C119.834 45.988 130.422 49.0562 139.907 54.2491" stroke="#323232" stroke-linecap="round" stroke-linejoin="round"/>
<path d="M34.3984 93.2809C38.5002 81.3371 45.875 70.6705 55.7508 62.3979C65.6265 54.1253 77.6397 48.5511 90.5328 46.2588" stroke="#323232" stroke-linecap="round" stroke-linejoin="round"/>
<path d="M172.885 106.127L159.582 118.056" stroke="#323232" stroke-linecap="round" stroke-linejoin="round"/>
<path d="M114.19 186.049L104.295 171.367" stroke="#323232" stroke-linecap="round" stroke-linejoin="round"/>
<path d="M115.332 106.642C117.129 107.895 119.173 108.783 121.34 109.252C123.507 109.722 125.751 109.763 127.935 109.372" stroke="#323232" stroke-linecap="round" stroke-linejoin="round"/>
<path d="M38.9727 175.373V177.979" stroke="#323232" stroke-linecap="round" stroke-linejoin="round"/>
<path d="M44.2581 180.442H41.541" stroke="#323232" stroke-linecap="round" stroke-linejoin="round"/>
<path d="M38.9727 185.512V182.906" stroke="#323232" stroke-linecap="round" stroke-linejoin="round"/>
<path d="M33.6855 180.442H36.4038" stroke="#323232" stroke-linecap="round" stroke-linejoin="round"/>
<path d="M41.5411 180.443C41.2037 180.443 40.8695 180.379 40.5576 180.255C40.2458 180.132 39.9624 179.95 39.7238 179.722C39.4853 179.492 39.2961 179.221 39.1673 178.922C39.0383 178.623 38.9722 178.302 38.9727 177.979C38.9733 178.302 38.9074 178.623 38.7785 178.922C38.6498 179.221 38.4606 179.493 38.222 179.722C37.9834 179.95 37.6999 180.133 37.3881 180.257C37.0762 180.38 36.7418 180.443 36.4043 180.443C36.7417 180.443 37.0759 180.505 37.3878 180.629C37.6996 180.753 37.9829 180.934 38.2216 181.164C38.4601 181.392 38.6493 181.663 38.7783 181.962C38.9071 182.262 38.9732 182.582 38.9727 182.906C38.9725 182.582 39.0387 182.262 39.1675 181.962C39.2965 181.664 39.4857 181.392 39.7243 181.164C39.9629 180.935 40.2461 180.754 40.5579 180.63C40.8696 180.506 41.2037 180.443 41.5411 180.443Z" stroke="#323232" stroke-linecap="round" stroke-linejoin="round"/>
<path d="M118.18 188.824C116.972 195.469 113.237 215.197 109.287 221.055" stroke="#323232" stroke-linecap="round" stroke-linejoin="round"/>
</svg>
