<svg width="38" height="46" viewBox="0 0 38 46" fill="none" xmlns="http://www.w3.org/2000/svg">
<path d="M35.6 8.3H37.1V7.2605L36.1267 6.89551L35.6 8.3ZM34.1 19.85C34.1 20.6784 34.7716 21.35 35.6 21.35C36.4284 21.35 37.1 20.6784 37.1 19.85H34.1ZM28.7 12.5V11H25.7V12.5H28.7ZM11.9 12.5V11H8.9V12.5H11.9ZM18.8 2L19.3267 0.595506C18.9871 0.468165 18.6129 0.468165 18.2733 0.595506L18.8 2ZM2 8.3L1.47331 6.89551C0.887859 7.11505 0.5 7.67473 0.5 8.3C0.5 8.92527 0.887859 9.48495 1.47331 9.70449L2 8.3ZM18.8 14.6L18.2733 16.0045C18.6129 16.1318 18.9871 16.1318 19.3267 16.0045L18.8 14.6ZM20.2932 33.5123L19.2266 32.4576V32.4576L20.2932 33.5123ZM23.6291 30.1391L24.6956 31.1939H24.6956L23.6291 30.1391ZM25.5998 29.6027L26.023 28.1636L26.023 28.1636L25.5998 29.6027ZM13.9709 30.1391L15.0375 29.0844L13.9709 30.1391ZM17.3068 33.5123L18.3734 32.4576L17.3068 33.5123ZM12.0002 29.6027L11.577 28.1636L12.0002 29.6027ZM34.1 44C34.1 44.8284 34.7716 45.5 35.6 45.5C36.4284 45.5 37.1 44.8284 37.1 44H34.1ZM0.5 44C0.5 44.8284 1.17157 45.5 2 45.5C2.82843 45.5 3.5 44.8284 3.5 44H0.5ZM34.1 8.3V19.85H37.1V8.3H34.1ZM25.7 12.5V16.7H28.7V12.5H25.7ZM11.9 16.7V12.5H8.9V16.7H11.9ZM18.8 23.6C14.9892 23.6 11.9 20.5108 11.9 16.7H8.9C8.9 22.1676 13.3324 26.6 18.8 26.6V23.6ZM25.7 16.7C25.7 20.5108 22.6108 23.6 18.8 23.6V26.6C24.2676 26.6 28.7 22.1676 28.7 16.7H25.7ZM18.2733 0.595506L1.47331 6.89551L2.52669 9.70449L19.3267 3.40449L18.2733 0.595506ZM19.3267 16.0045L36.1267 9.70449L35.0733 6.89551L18.2733 13.1955L19.3267 16.0045ZM18.2733 3.40449L35.0733 9.70449L36.1267 6.89551L19.3267 0.595506L18.2733 3.40449ZM19.3267 13.1955L2.52669 6.89551L1.47331 9.70449L18.2733 16.0045L19.3267 13.1955ZM21.3597 34.5671L24.6956 31.1939L22.5625 29.0844L19.2266 32.4576L21.3597 34.5671ZM25.1766 31.0417C30.803 32.6963 34.1 36.2363 34.1 39.8H37.1C37.1 34.2618 32.1781 29.9736 26.023 28.1636L25.1766 31.0417ZM12.9044 31.1939L16.2403 34.5671L18.3734 32.4576L15.0375 29.0844L12.9044 31.1939ZM3.5 39.8C3.5 36.2363 6.79695 32.6963 12.4234 31.0417L11.577 28.1636C5.42187 29.9736 0.5 34.2618 0.5 39.8H3.5ZM34.1 39.8V44H37.1V39.8H34.1ZM0.5 39.8V44H3.5V39.8H0.5ZM15.0375 29.0844C14.166 28.2032 12.8518 27.7887 11.577 28.1636L12.4234 31.0417C12.5548 31.0031 12.7452 31.0329 12.9044 31.1939L15.0375 29.0844ZM24.6956 31.1939C24.8548 31.0329 25.0452 31.0031 25.1766 31.0417L26.023 28.1636C24.7482 27.7887 23.4339 28.2032 22.5625 29.0844L24.6956 31.1939ZM19.2266 32.4576C18.9918 32.695 18.6082 32.695 18.3734 32.4576L16.2403 34.5671C17.6494 35.9919 19.9506 35.9919 21.3597 34.5671L19.2266 32.4576Z" fill="#00BE9B"/>
</svg>
