<svg width="42" height="46" viewBox="0 0 42 46" fill="none" xmlns="http://www.w3.org/2000/svg">
<path d="M29.3 6.2H31.4C36.0392 6.2 39.8 9.96081 39.8 14.6V35.6C39.8 40.2392 36.0392 44 31.4 44H10.4C5.76081 44 2 40.2392 2 35.6V14.6C2 9.96081 5.76081 6.2 10.4 6.2H12.5M29.3 6.2C29.3 8.5196 27.4196 10.4 25.1 10.4H16.7C14.3804 10.4 12.5 8.5196 12.5 6.2M29.3 6.2C29.3 3.8804 27.4196 2 25.1 2H16.7C14.3804 2 12.5 3.8804 12.5 6.2M12.5 18.8H29.3M12.5 27.2H29.3M12.5 35.6H20.9" stroke="#00BE9B" stroke-width="3" stroke-linecap="round" stroke-linejoin="round"/>
</svg>
