<svg width="294" height="210" viewBox="0 0 294 210" fill="none" xmlns="http://www.w3.org/2000/svg">
<path d="M207.077 105.607C204.218 99.6758 199.901 90.8633 197.829 87.2278C194.551 81.5001 191.926 81.3484 189.194 78.8909C186.934 78.6815 184.748 78.0141 182.778 76.9326C182.503 77.0822 182.211 77.1998 181.909 77.283C182.607 78.3137 181.014 79.6256 179.53 79.9938C180.298 80.5282 179.516 82.1435 177.995 82.3879C177.238 82.3879 176.361 82.4822 172.744 82.4998C171.753 84.8189 170.468 84.8351 169.493 83.3038C167.379 79.9864 167.642 69.27 170.673 68.5117L150.224 70.1314C148.196 70.2973 146.283 71.1047 144.785 72.4263C143.288 73.7481 142.29 75.5095 141.95 77.4338C141.609 79.358 141.945 81.3363 142.904 83.0579C143.863 84.7795 145.391 86.1468 147.248 86.9451L160.812 92.7627L159.149 100.567L184.559 112.093L191.88 96.9017V105.966L195.118 111.532L186.899 133.225C190.968 136.048 195.823 137.645 200.842 137.813L207.785 117.476C209.125 113.577 208.872 109.335 207.077 105.607ZM162.16 86.6963L149.209 86.0263L162.51 85.0192L162.16 86.6963Z" fill="#668EFF"/>
<path d="M91.858 108.992L75.988 99.9273C75.5739 99.6962 75.0831 99.6261 74.6168 99.7315L49.0046 102.971L76.1062 112.125C76.4738 112.247 76.7815 112.495 76.97 112.82C77.1584 113.147 77.2145 113.528 77.1272 113.892C77.0723 114.086 76.9762 114.269 76.8447 114.426C76.7133 114.584 76.5495 114.713 76.3635 114.809C76.1774 114.903 75.9732 114.959 75.7633 114.976C75.5534 114.99 75.3425 114.965 75.1435 114.899L48.2461 104.571L65.5118 123.314C65.7973 123.678 66.2131 123.927 66.6787 124.013L84.8581 127.063C85.2883 127.129 85.7293 127.052 86.1067 126.843C86.4841 126.634 86.7747 126.306 86.9293 125.916L92.6472 111.146C92.798 110.754 92.8017 110.326 92.6575 109.933C92.5135 109.539 92.2307 109.207 91.858 108.992Z" fill="#668EFF"/>
<path d="M252.912 144.8L257.872 136.211L262.656 138.757L257.696 147.344L252.912 144.8Z" fill="#668EFF"/>
<path d="M274.005 127.734L273.801 117.915L279.284 117.803L279.488 127.622L274.005 127.734Z" fill="#668EFF"/>
<path d="M267.003 127.875L266.77 118.055L272.254 117.943L272.458 127.763L267.003 127.875Z" fill="#668EFF"/>
<path d="M254.137 13.9888C245.008 8.39356 233.28 10.3239 227.941 18.2971C226.076 21.0942 225.17 24.3802 225.348 27.6957L218.285 32.7314L226.993 34.2686C228.663 37.8163 231.375 40.8207 234.795 42.9148C243.927 48.51 255.653 46.5797 260.991 38.6064C266.33 30.6332 263.273 19.5841 254.137 13.9888Z" fill="#668EFF"/>
<path d="M227.708 154.366L218.576 177.948L208.893 174.481L218.022 150.925L227.708 154.366Z" fill="#668EFF"/>
<path d="M204.046 67.2693C203.764 67.0194 203.463 66.7896 203.146 66.5817C206.292 68.0732 206.389 64.6866 203 62.4147C197.673 58.1181 193.496 57.9561 190.732 58.7719C194.101 58.4906 194.763 61.49 193.753 64.5394C193.426 65.2462 194.179 65.2756 194.981 65.1549C197.373 64.8471 196.994 68.3942 193.906 67.9525C193.753 68.1498 190.794 71.8986 190.668 72.065C191.138 71.5557 191.735 71.1695 192.405 70.9429C193.072 70.7161 193.791 70.6565 194.49 70.7693C197.069 71.3183 199.466 72.4752 201.462 74.1353C202.862 75.4222 204.533 75.9537 205.196 75.3132C205.859 74.6727 205.254 73.0751 203.854 71.7882C203.619 71.5747 203.349 71.3097 203.077 71.052C205.48 71.8736 206.533 69.5545 204.046 67.2693Z" fill="#668EFF"/>
<path d="M145.502 116.07L147.281 119.873L161.896 115.341L145.502 116.07Z" fill="#668EFF"/>
<path d="M191.914 96.9062V105.971L189.523 101.86L191.914 96.9062Z" fill="#668EFF"/>
<path d="M172.779 82.5C171.758 84.9339 170.212 85.0458 169.104 82.5559C170.095 82.5559 171.437 82.528 172.779 82.5Z" fill="#668EFF"/>
<path d="M172.808 70.4144C171.535 70.6207 170.248 70.7329 168.957 70.7501C169.949 68.0364 171.609 67.6168 172.808 70.4144Z" fill="#668EFF"/>
<path d="M162.51 85.0176L162.16 86.6947L149.209 86.0247L162.51 85.0176Z" fill="#668EFF"/>
<path d="M5.59806 142.087C5.37881 142.48 5.04301 142.801 4.63313 143.011C4.22324 143.22 3.7577 143.309 3.29534 143.265C2.83298 143.222 2.39459 143.047 2.03561 142.764C1.67662 142.481 1.41315 142.103 1.27851 141.676C1.14389 141.25 1.14415 140.795 1.27925 140.368C1.41437 139.941 1.67826 139.564 2.03756 139.282C2.39688 138.999 2.83545 138.825 3.29786 138.781C3.76027 138.738 4.22571 138.827 4.63536 139.037C5.18352 139.32 5.59249 139.8 5.7729 140.371C5.9533 140.943 5.89044 141.559 5.59806 142.087Z" fill="#668EFF"/>
<path d="M92.4985 69.0436C92.2792 69.4363 91.9434 69.758 91.5335 69.9678C91.1237 70.1777 90.6581 70.2662 90.1958 70.2223C89.7334 70.1784 89.295 70.0039 88.936 69.7211C88.577 69.4382 88.3136 69.0596 88.1789 68.6332C88.0443 68.2068 88.0446 67.7515 88.1797 67.3253C88.3148 66.899 88.5787 66.5207 88.938 66.2382C89.2973 65.9557 89.7358 65.7817 90.1983 65.7383C90.6608 65.6948 91.1261 65.7839 91.5358 65.9942C92.0839 66.2772 92.493 66.7569 92.6734 67.3284C92.8538 67.8998 92.7908 68.5165 92.4985 69.0436Z" fill="#668EFF"/>
<path d="M280.216 77.6031C285.642 74.9527 288.209 80.093 292.906 79.959C289.347 83.8757 283.366 85.3304 279.516 81.7495L280.216 77.6031Z" fill="#668EFF"/>
<path d="M242.731 34.4937C242.647 34.7162 242.472 34.8973 242.248 34.997C242.023 35.0967 241.767 35.1069 241.535 35.0253C241.303 34.9436 241.114 34.7769 241.01 34.5618C240.906 34.3466 240.896 34.1007 240.981 33.8783C241.065 33.6556 241.24 33.4745 241.464 33.3748C241.689 33.2752 241.945 33.265 242.177 33.3467C242.409 33.4283 242.598 33.595 242.702 33.8101C242.806 34.0252 242.816 34.2711 242.731 34.4937Z" fill="#668EFF"/>
<path d="M107.841 94.8643C104.166 95.5077 100.548 95.7595 97.8074 96.2351C92.002 97.2422 86.8967 98.3893 86.4883 99.4524C85.0588 103.201 99.7021 103.313 105.245 106.815C109.741 109.637 111.365 110.023 115.455 107.766C111.812 104.158 109.191 99.717 107.841 94.8643Z" fill="#668EFF"/>
<path d="M127.36 169.3C126.462 171.647 125.172 173.84 123.54 175.789C122.359 176.986 120.913 177.912 119.309 178.503C112.607 181.153 103.535 193.718 100.872 190.169C100.117 189.16 102.188 184.072 104.811 178.419C106.679 174.392 110.383 168.321 113.387 162.978C117.518 166.021 122.283 168.178 127.36 169.3Z" fill="#668EFF"/>
<path d="M167.499 131.623C167.488 131.887 167.371 132.137 167.173 132.321C166.975 132.504 166.71 132.607 166.435 132.607C166.158 132.607 165.893 132.504 165.695 132.321C165.497 132.137 165.38 131.887 165.369 131.623C165.38 131.36 165.497 131.109 165.695 130.925C165.893 130.743 166.158 130.64 166.435 130.64C166.71 130.64 166.975 130.743 167.173 130.925C167.371 131.109 167.488 131.36 167.499 131.623Z" fill="#668EFF"/>
<path d="M177.358 113.411C177.347 113.675 177.231 113.925 177.033 114.109C176.835 114.292 176.569 114.395 176.293 114.395C176.018 114.395 175.752 114.292 175.554 114.109C175.356 113.925 175.239 113.675 175.229 113.411C175.239 113.148 175.356 112.897 175.554 112.713C175.752 112.531 176.018 112.428 176.293 112.428C176.569 112.428 176.835 112.531 177.033 112.713C177.231 112.897 177.347 113.148 177.358 113.411Z" fill="#668EFF"/>
<path d="M151.341 110.255C151.33 110.519 151.213 110.769 151.015 110.953C150.817 111.136 150.551 111.239 150.275 111.239C150 111.239 149.735 111.136 149.536 110.953C149.338 110.769 149.222 110.519 149.211 110.255C149.222 109.992 149.338 109.741 149.536 109.557C149.735 109.375 150 109.271 150.275 109.271C150.551 109.271 150.817 109.375 151.015 109.557C151.213 109.741 151.33 109.992 151.341 110.255Z" fill="#668EFF"/>
<path d="M153.089 92.8806C153.078 93.1446 152.961 93.3946 152.763 93.578C152.565 93.7613 152.299 93.8636 152.023 93.8636C151.748 93.8636 151.483 93.7613 151.284 93.578C151.086 93.3946 150.97 93.1446 150.959 92.8806C150.97 92.6165 151.086 92.3664 151.284 92.1833C151.483 92 151.748 91.8975 152.023 91.8975C152.299 91.8975 152.565 92 152.763 92.1833C152.961 92.3664 153.078 92.6165 153.089 92.8806Z" fill="#668EFF"/>
<path d="M136.958 83.8425C136.947 84.1065 136.83 84.3566 136.632 84.5399C136.433 84.7232 136.169 84.8255 135.893 84.8255C135.617 84.8255 135.352 84.7232 135.154 84.5399C134.955 84.3566 134.839 84.1065 134.828 83.8425C134.839 83.5784 134.955 83.3283 135.154 83.145C135.352 82.9619 135.617 82.8594 135.893 82.8594C136.169 82.8594 136.433 82.9619 136.632 83.145C136.83 83.3283 136.947 83.5784 136.958 83.8425Z" fill="#668EFF"/>
<path d="M113.708 94.8357C113.697 95.0997 113.58 95.3497 113.382 95.533C113.183 95.7164 112.919 95.8187 112.643 95.8187C112.367 95.8187 112.102 95.7164 111.904 95.533C111.705 95.3497 111.589 95.0997 111.578 94.8357C111.589 94.5715 111.705 94.3217 111.904 94.1383C112.102 93.955 112.367 93.8525 112.643 93.8525C112.919 93.8525 113.183 93.955 113.382 94.1383C113.58 94.3217 113.697 94.5715 113.708 94.8357Z" fill="#668EFF"/>
<path d="M129.721 96.906C129.711 97.1702 129.594 97.42 129.396 97.6033C129.197 97.7867 128.932 97.889 128.657 97.889C128.381 97.889 128.116 97.7867 127.918 97.6033C127.719 97.42 127.602 97.1702 127.592 96.906C127.602 96.6418 127.719 96.392 127.918 96.2087C128.116 96.0253 128.381 95.9229 128.657 95.9229C128.932 95.9229 129.197 96.0253 129.396 96.2087C129.594 96.392 129.711 96.6418 129.721 96.906Z" fill="#668EFF"/>
<path d="M138.385 141.163C138.375 141.427 138.258 141.677 138.06 141.861C137.861 142.044 137.596 142.147 137.321 142.147C137.045 142.147 136.78 142.044 136.582 141.861C136.383 141.677 136.266 141.427 136.256 141.163C136.266 140.9 136.383 140.649 136.582 140.465C136.78 140.283 137.045 140.18 137.321 140.18C137.596 140.18 137.861 140.283 138.06 140.465C138.258 140.649 138.375 140.9 138.385 141.163Z" fill="#668EFF"/>
<path d="M150.024 122.95C150.013 123.214 149.897 123.464 149.699 123.648C149.501 123.831 149.235 123.934 148.959 123.934C148.684 123.934 148.418 123.831 148.22 123.648C148.022 123.464 147.905 123.214 147.895 122.95C147.905 122.687 148.022 122.437 148.22 122.252C148.418 122.07 148.684 121.967 148.959 121.967C149.235 121.967 149.501 122.07 149.699 122.252C149.897 122.437 150.013 122.687 150.024 122.95Z" fill="#668EFF"/>
<path d="M119.571 154.59C119.561 154.854 119.444 155.104 119.245 155.288C119.047 155.471 118.782 155.574 118.506 155.574C118.231 155.574 117.966 155.471 117.767 155.288C117.569 155.104 117.452 154.854 117.441 154.59C117.452 154.326 117.569 154.076 117.767 153.892C117.966 153.71 118.231 153.606 118.506 153.606C118.782 153.606 119.047 153.71 119.245 153.892C119.444 154.076 119.561 154.326 119.571 154.59Z" fill="#668EFF"/>
<path d="M280.216 77.6031C285.642 74.9527 288.209 80.093 292.906 79.959C289.347 83.8757 283.366 85.3304 279.516 81.7495L280.216 77.6031Z" stroke="#323232" stroke-linejoin="round"/>
<path d="M119.949 145.889L84.0391 133.106L95.2123 104.264L142.878 121.244" stroke="#323232" stroke-linecap="round" stroke-linejoin="round"/>
<path d="M198.246 140.967L219.015 148.379L207.844 177.193L137.307 152.072" stroke="#323232" stroke-linecap="round" stroke-linejoin="round"/>
<path d="M175.434 132.854L185.951 136.596" stroke="#323232" stroke-linecap="round" stroke-linejoin="round"/>
<path d="M227.708 154.366L218.576 177.948L208.893 174.481L218.022 150.925L227.708 154.366Z" stroke="#323232" stroke-linecap="round" stroke-linejoin="round"/>
<path d="M91.7414 108.963L76.0173 99.9547C75.6032 99.7235 75.1124 99.6534 74.6461 99.7588L49.0047 102.976L76.134 112.124C76.5015 112.247 76.8092 112.494 76.9978 112.821C77.1862 113.146 77.2422 113.528 77.155 113.891C77.1 114.086 77.0039 114.268 76.8725 114.426C76.7411 114.583 76.5774 114.714 76.3913 114.809C76.2052 114.903 76.001 114.959 75.7911 114.975C75.5812 114.99 75.3702 114.965 75.1712 114.898L48.2754 104.547L65.512 123.285C65.7974 123.649 66.2132 123.898 66.6789 123.985L84.7353 127.006C85.1659 127.074 85.6078 126.997 85.9861 126.79C86.3644 126.581 86.6558 126.254 86.8112 125.862L92.5352 111.117C92.6856 110.726 92.6886 110.296 92.5437 109.902C92.3988 109.509 92.1149 109.177 91.7414 108.963Z" stroke="#323232" stroke-linecap="round" stroke-linejoin="round"/>
<path d="M89.6816 118.455L126.659 131.623" stroke="#323232" stroke-linecap="round" stroke-linejoin="round"/>
<path d="M188.357 153.582L213.534 162.562" stroke="#323232" stroke-linecap="round" stroke-linejoin="round"/>
<path d="M185.293 152.491L186.577 152.967" stroke="#323232" stroke-linecap="round" stroke-linejoin="round"/>
<path d="M181.121 151.009L183.338 151.792" stroke="#323232" stroke-linecap="round" stroke-linejoin="round"/>
<path d="M148.975 139.568L180.684 150.841" stroke="#323232" stroke-linecap="round" stroke-linejoin="round"/>
<path d="M207.668 107.005C216.971 110.29 225.173 115.929 231.402 123.325C237.63 130.721 241.654 139.597 243.045 149.009C244.436 158.422 243.143 168.021 239.303 176.785C235.463 185.55 229.219 193.153 221.233 198.788C213.249 204.423 203.822 207.877 193.953 208.787C184.085 209.695 174.145 208.024 165.187 203.951C156.23 199.877 148.591 193.553 143.081 185.651C137.571 177.746 134.395 168.56 133.893 159.066" stroke="#323232" stroke-linecap="round" stroke-linejoin="round"/>
<path d="M159.184 100.57L160.847 92.7661L147.283 86.9485C145.418 86.1555 143.881 84.7889 142.917 83.0649C141.952 81.3406 141.614 79.3574 141.956 77.4284C142.298 75.4995 143.301 73.7349 144.806 72.4137C146.311 71.0926 148.232 70.2902 150.266 70.1333L170.87 68.5137" stroke="#323232" stroke-linecap="round" stroke-linejoin="round"/>
<path d="M182.785 76.9316C184.755 78.0131 186.942 78.6807 189.202 78.89C190.167 79.716 191.205 80.4614 192.303 81.1178C194.665 82.6634 196.569 84.7678 197.831 87.2269C199.907 90.8609 204.279 99.6469 207.078 105.606C208.91 109.321 209.171 113.572 207.808 117.466L200.865 137.805C195.835 137.642 190.97 136.044 186.892 133.217L195.147 111.537L189.524 101.861L184.594 112.099" stroke="#323232" stroke-linecap="round" stroke-linejoin="round"/>
<path d="M162.16 86.6937L149.209 86.0237L162.51 85.0166L162.16 86.6937Z" stroke="#323232" stroke-linecap="round" stroke-linejoin="round"/>
<path d="M182.465 67.1688C183.377 65.0127 184.739 63.0583 186.468 61.4263C191.779 56.2625 195.494 59.228 193.753 64.489C193.446 65.2252 194.214 65.2487 194.982 65.1324C197.366 64.7717 196.994 68.3718 193.907 67.93C192.09 70.0546 190.461 72.3201 189.035 74.7032C188.716 75.366 188.564 76.092 188.594 76.8218C188.625 77.5515 188.835 78.2637 189.21 78.8997" stroke="#323232" stroke-linecap="round" stroke-linejoin="round"/>
<path d="M182.64 71.3642C182.104 70.6579 181.881 69.7775 182.018 68.9141" stroke="#323232" stroke-linecap="round" stroke-linejoin="round"/>
<path d="M190.354 58.8927C195.184 57.2126 200.18 59.7231 203.904 63.0553C206.485 65.3626 205.858 67.8112 203.145 66.5243C206.489 68.8154 205.834 72.7085 202.27 70.441C203.423 70.9946 206.416 74.1015 205.216 75.3089C204.561 75.9656 202.853 75.4208 201.453 74.1309C201.424 74.1029 194.405 68.275 190.78 71.9355" stroke="#323232" stroke-linecap="round" stroke-linejoin="round"/>
<path d="M145.502 116.069L161.896 115.34L147.281 119.872" stroke="#323232" stroke-linecap="round" stroke-linejoin="round"/>
<path d="M191.914 96.9053V105.97L189.523 101.859L191.914 96.9053Z" stroke="#323232" stroke-linecap="round" stroke-linejoin="round"/>
<path d="M153.964 89.8274L159.184 100.576L184.594 112.102L184.565 112.158C184.36 115.208 182.143 133.369 169.074 135.685C159.419 137.396 149.325 139.462 142.791 140.889L128.758 169.591C121.631 168.308 117.519 165.885 112.365 162.177L126.076 132.747C127.148 130.446 128.712 128.385 130.667 126.697C132.621 125.011 134.923 123.736 137.423 122.956L147.283 119.878L136.958 97.7477L116.157 108.46C113.97 106.335 112.081 103.945 110.539 101.351C109.209 99.098 108.241 96.6656 107.668 94.1358H107.697L135.935 78.0509C137.794 76.9827 139.964 76.5212 142.12 76.736" stroke="#323232" stroke-linecap="round" stroke-linejoin="round"/>
<path d="M115.456 107.761C113.974 108.74 112.209 109.248 110.409 109.216C108.557 108.705 106.81 107.89 105.246 106.81C99.6996 103.319 85.0548 103.199 86.4889 99.4475C86.8958 98.3844 92.0026 97.2388 97.808 96.2302C100.549 95.7546 104.166 95.5028 107.842 94.8594C109.191 99.7122 111.812 104.153 115.456 107.761Z" stroke="#323232" stroke-linecap="round" stroke-linejoin="round"/>
<path d="M181.094 74.6942C181.765 74.5823 183.69 74.3305 184.74 74.0508" stroke="#323232" stroke-linecap="round" stroke-linejoin="round"/>
<path d="M176.893 71.5605C177.709 71.6165 178.497 71.6445 179.196 71.6445" stroke="#323232" stroke-linecap="round" stroke-linejoin="round"/>
<path d="M181.949 77.2598L179.049 77.6028" stroke="#323232" stroke-linecap="round" stroke-linejoin="round"/>
<path d="M190.222 69.7425C189.843 68.9871 186.285 70.5538 185.059 70.8615C183.149 71.3684 181.179 71.6318 179.196 71.6449C184.652 66.9449 183.543 65.9657 178.35 68.9312C175.362 70.0819 172.176 70.689 168.957 70.7217C167.744 74.5802 167.805 78.7039 169.132 82.5276C179.599 82.3347 177.458 82.3598 178.037 82.3598C179.639 82.1036 180.455 80.4294 179.476 79.9877C180.984 79.6505 182.665 78.3121 181.959 77.2607C182.719 77.0795 183.399 76.6704 183.901 76.0932C184.401 75.516 184.698 74.8007 184.747 74.0508C186.241 73.7622 190.847 70.9867 190.222 69.7425Z" stroke="#323232" stroke-linecap="round" stroke-linejoin="round"/>
<path d="M177.359 80.2612C177.359 80.2612 178.886 80.0433 179.469 79.9873" stroke="#323232" stroke-linecap="round" stroke-linejoin="round"/>
<path d="M172.78 70.4137C172.288 69.2049 171.573 68.4996 170.863 68.5099C168.635 68.6718 168.032 74.4541 168.066 76.7555C168.096 78.9642 168.8 84.3783 170.942 84.3783C171.616 84.3429 172.264 83.6421 172.75 82.5039" stroke="#323232" stroke-linecap="round" stroke-linejoin="round"/>
<path d="M186.664 139.372C185.362 142.879 183.502 146.172 181.15 149.134C179.827 150.919 180.858 151.764 182.784 150.086C184.513 148.52 186.066 146.786 187.421 144.911" stroke="#323232" stroke-linecap="round" stroke-linejoin="round"/>
<path d="M186.236 146.45C185.318 148.436 184.263 150.361 183.076 152.212C181.793 154.03 183.098 154.724 184.885 152.939C186.862 150.73 188.665 148.382 190.28 145.917" stroke="#323232" stroke-linecap="round" stroke-linejoin="round"/>
<path d="M188.539 148.421C187.994 149.92 187.368 151.39 186.665 152.827C185.673 154.785 187.045 155.346 188.559 153.359C190.038 151.249 191.326 149.021 192.41 146.7" stroke="#323232" stroke-linecap="round" stroke-linejoin="round"/>
<path d="M191.361 148.771C191.135 149.791 190.853 150.8 190.515 151.793C189.775 153.786 190.865 154.031 192.204 152.016C193.543 150.002 194.684 147.848 195.821 145.75C197.269 143.114 198.399 140.726 199.671 137.765" stroke="#323232" stroke-linecap="round" stroke-linejoin="round"/>
<path d="M186.041 140.992C178.868 144.291 177.931 142.906 183.141 139.26C185.112 137.811 186.702 135.94 187.782 133.796" stroke="#323232" stroke-linecap="round" stroke-linejoin="round"/>
<path d="M50.0524 106.502L49.8774 106.977L44.918 105.215L46.7559 100.459L51.7153 102.221L51.5448 102.657" stroke="#323232" stroke-linecap="round" stroke-linejoin="round"/>
<path d="M51.134 103.704L50.4922 105.411" stroke="#323232" stroke-linecap="round" stroke-linejoin="round"/>
<path d="M45.7287 105.501L3.64453 140.826" stroke="#323232" stroke-linecap="round" stroke-linejoin="round"/>
<path d="M90.4287 67.9795L50.2715 101.707" stroke="#323232" stroke-linecap="round" stroke-linejoin="round"/>
<path d="M5.59807 142.086C5.37881 142.479 5.04301 142.8 4.63313 143.01C4.22324 143.219 3.7577 143.308 3.29534 143.265C2.83298 143.221 2.39459 143.046 2.03561 142.763C1.67662 142.48 1.41315 142.102 1.27851 141.675C1.14389 141.249 1.14415 140.794 1.27925 140.367C1.41437 139.942 1.67826 139.563 2.03756 139.281C2.39688 138.998 2.83545 138.824 3.29786 138.78C3.76027 138.737 4.22571 138.826 4.63536 139.036C5.18352 139.319 5.59249 139.799 5.7729 140.37C5.9533 140.942 5.89044 141.558 5.59807 142.086Z" stroke="#323232" stroke-linecap="round" stroke-linejoin="round"/>
<path d="M92.4985 69.0425C92.2792 69.4353 91.9434 69.757 91.5335 69.9667C91.1237 70.1765 90.6581 70.2652 90.1958 70.2212C89.7334 70.1773 89.295 70.0029 88.936 69.7201C88.577 69.4372 88.3136 69.0587 88.1789 68.6321C88.0443 68.2057 88.0446 67.7506 88.1797 67.3243C88.3148 66.898 88.5787 66.5196 88.938 66.2372C89.2973 65.9546 89.7358 65.7807 90.1983 65.7373C90.6608 65.6939 91.1261 65.7828 91.5358 65.9931C92.0839 66.2762 92.493 66.7559 92.6734 67.3272C92.8538 67.8987 92.7908 68.5154 92.4985 69.0425Z" stroke="#323232" stroke-linecap="round" stroke-linejoin="round"/>
<path d="M280.215 77.6029L279.514 81.7434C276.193 81.6976 272.881 81.4359 269.597 80.96C259.881 79.4567 249.672 76.5427 249.935 74.9731C250.197 73.4035 260.873 73.8069 270.56 75.3088C273.833 75.8437 277.059 76.6104 280.215 77.6029Z" stroke="#323232" stroke-linecap="round" stroke-linejoin="round"/>
<path d="M271.786 75.5107L270.799 81.1325" stroke="#323232" stroke-linecap="round" stroke-linejoin="round"/>
<path d="M254.137 13.9888C245.008 8.39356 233.28 10.3239 227.941 18.2971C226.076 21.0942 225.17 24.3802 225.348 27.6957L218.285 32.7314L226.993 34.2686C228.663 37.8163 231.375 40.8207 234.795 42.9148C243.927 48.51 255.653 46.5797 260.991 38.6064C266.33 30.6332 263.273 19.5841 254.137 13.9888Z" stroke="#323232" stroke-linecap="round" stroke-linejoin="round"/>
<path d="M243.082 30.521C243.461 29.4314 244.157 28.7541 246.203 27.3612C250.533 24.3942 249.604 21.1166 247.02 20.1992C246.561 20.0364 246.07 19.9726 245.583 20.0125C245.095 20.0523 244.623 20.195 244.2 20.4301C243.776 20.6653 243.412 20.9871 243.133 21.3728C242.853 21.7584 242.667 22.1984 242.586 22.6611" stroke="#323232" stroke-linecap="round" stroke-linejoin="round"/>
<path d="M242.731 34.4936C242.647 34.7162 242.472 34.8974 242.248 34.997C242.023 35.0967 241.767 35.1069 241.535 35.0252C241.303 34.9436 241.114 34.7769 241.01 34.5618C240.906 34.3467 240.896 34.1008 240.981 33.8781C241.065 33.6557 241.24 33.4745 241.464 33.3749C241.689 33.2752 241.945 33.265 242.177 33.3466C242.409 33.4283 242.598 33.595 242.702 33.8101C242.806 34.0252 242.816 34.2711 242.731 34.4936Z" stroke="#323232" stroke-linecap="round" stroke-linejoin="round"/>
<path d="M179.022 20.7303C179.269 11.616 176.688 11.3656 177.097 7.6934C177.212 6.74868 177.525 5.83592 178.016 5.01003C178.508 4.18415 179.169 3.46206 179.959 2.88723C180.749 2.31239 181.652 1.89657 182.615 1.66481C183.576 1.4332 184.577 1.3902 185.557 1.53863C187.571 1.79792 189.405 2.79123 190.676 4.3124C191.946 5.83357 192.557 7.76584 192.382 9.70769C191.956 13.536 189.279 12.9809 187.568 21.8494L179.022 20.7303Z" stroke="#323232" stroke-linecap="round" stroke-linejoin="round"/>
<path d="M187.044 27.949L178.176 26.774L178.643 22.6895L187.51 23.8645L187.044 27.949Z" stroke="#323232" stroke-linecap="round" stroke-linejoin="round"/>
<path d="M184.068 7.35763L182.225 7.13382C181.995 7.10054 181.76 7.11203 181.534 7.16768C181.309 7.22334 181.097 7.32199 180.911 7.45775C180.727 7.59351 180.572 7.76357 180.457 7.95779C180.341 8.15215 180.268 8.36669 180.242 8.58858C180.194 9.04754 180.334 9.50635 180.635 9.8671C180.934 10.2277 181.369 10.4617 181.846 10.5189L187.126 11.1904C187.357 11.2236 187.592 11.2122 187.817 11.1565C188.043 11.1008 188.255 11.0022 188.439 10.8664C188.625 10.7307 188.778 10.5606 188.894 10.3662C189.009 10.172 189.082 9.9575 189.109 9.73561C189.156 9.27665 189.016 8.81784 188.715 8.45724C188.416 8.0965 187.982 7.86252 187.504 7.80525L186.66 7.72132C186.429 7.68804 186.194 7.69952 185.969 7.75518C185.743 7.81084 185.531 7.9095 185.345 8.04526C185.161 8.18101 185.006 8.35108 184.891 8.54529C184.776 8.73965 184.702 8.95419 184.676 9.17608L183.305 21.2898" stroke="#323232" stroke-linecap="round" stroke-linejoin="round"/>
<path d="M249.149 129.804L271.437 141.638L264.902 152.939L240.924 140.239" stroke="#323232" stroke-linecap="round" stroke-linejoin="round"/>
<path d="M259.066 148.071L264.026 139.483L268.81 142.029L263.851 150.616L259.066 148.071Z" stroke="#323232" stroke-linecap="round" stroke-linejoin="round"/>
<path d="M252.912 144.8L257.872 136.211L262.656 138.757L257.696 147.344L252.912 144.8Z" stroke="#323232" stroke-linecap="round" stroke-linejoin="round"/>
<path d="M246.758 141.555L251.716 132.966L256.5 135.512L251.57 144.072L246.758 141.555Z" stroke="#323232" stroke-linecap="round" stroke-linejoin="round"/>
<path d="M245.913 129.859L250.375 132.237L245.417 140.826L240.633 138.28L245.476 129.887" stroke="#323232" stroke-linecap="round" stroke-linejoin="round"/>
<path d="M236.779 131.007L237.334 130.056" stroke="#323232" stroke-linecap="round" stroke-linejoin="round"/>
<path d="M243.665 129.916L239.668 136.854" stroke="#323232" stroke-linecap="round" stroke-linejoin="round"/>
<path d="M139.084 30.8838L139.755 34.6326" stroke="#323232" stroke-linecap="round" stroke-linejoin="round"/>
<path d="M136.751 38.7461L132.871 39.3895" stroke="#323232" stroke-linecap="round" stroke-linejoin="round"/>
<path d="M147.954 36.8438L144.074 37.5152" stroke="#323232" stroke-linecap="round" stroke-linejoin="round"/>
<path d="M141.741 45.3478L141.041 41.627" stroke="#323232" stroke-linecap="round" stroke-linejoin="round"/>
<path d="M141.039 41.6269C140.869 40.7003 140.321 39.8764 139.518 39.3364C138.714 38.7961 137.72 38.5835 136.754 38.7453C137.721 38.5816 138.58 38.0564 139.144 37.2853C139.707 36.5143 139.928 35.5602 139.759 34.6328C139.929 35.5597 140.476 36.3838 141.28 36.9244C142.083 37.4649 143.077 37.6775 144.044 37.5158C143.078 37.6796 142.218 38.2045 141.655 38.9753C141.091 39.746 140.87 40.6997 141.039 41.6269Z" stroke="#323232" stroke-linecap="round" stroke-linejoin="round"/>
<path d="M127.36 169.299C126.462 171.646 125.172 173.839 123.54 175.788C122.359 176.985 120.913 177.911 119.309 178.502C112.607 181.152 103.535 193.717 100.872 190.168C100.117 189.159 102.188 184.071 104.811 178.418C106.679 174.391 110.383 168.32 113.387 162.977C117.518 166.02 122.283 168.177 127.36 169.299Z" stroke="#323232" stroke-linecap="round" stroke-linejoin="round"/>
<path d="M225.49 117.355L281.324 116.209L281.616 129.133L236.226 130.056" stroke="#323232" stroke-linecap="round" stroke-linejoin="round"/>
<path d="M274.005 127.733L273.801 117.914L279.284 117.802L279.488 127.621L274.005 127.733Z" stroke="#323232" stroke-linecap="round" stroke-linejoin="round"/>
<path d="M267.003 127.874L266.77 118.054L272.254 117.942L272.458 127.762L267.003 127.874Z" stroke="#323232" stroke-linecap="round" stroke-linejoin="round"/>
<path d="M259.972 128.014L259.738 118.194L265.223 118.082L265.456 127.902L259.972 128.014Z" stroke="#323232" stroke-linecap="round" stroke-linejoin="round"/>
<path d="M252.942 128.154L252.709 118.362L258.193 118.25L258.427 128.042L252.942 128.154Z" stroke="#323232" stroke-linecap="round" stroke-linejoin="round"/>
<path d="M245.913 128.321L245.709 118.502L251.163 118.39L251.396 128.181L245.913 128.321Z" stroke="#323232" stroke-linecap="round" stroke-linejoin="round"/>
<path d="M178.03 82.3594C173.803 89.4075 170.741 97.0422 168.957 104.991" stroke="#323232" stroke-linecap="round" stroke-linejoin="round"/>
<path d="M103.494 145.889L98.9434 155.485" stroke="#323232" stroke-linecap="round" stroke-linejoin="round"/>
<path d="M106.208 152.856L96.2031 148.491" stroke="#323232" stroke-linecap="round" stroke-linejoin="round"/>
<path d="M136.959 97.7477L139.029 96.6816" stroke="#323232" stroke-linecap="round" stroke-linejoin="round"/>
<path d="M170.94 84.373L162.509 85.0165L160.846 92.7645" stroke="#323232" stroke-linecap="round" stroke-linejoin="round"/>
</svg>
