<svg width="36" height="38" viewBox="0 0 36 38" fill="none" xmlns="http://www.w3.org/2000/svg">
<path d="M1.83203 16.3804C1.83203 8.44613 7.92095 2.01416 15.432 2.01416C22.9431 2.01416 29.032 8.44613 29.032 16.3804C29.032 24.3146 22.9431 30.7466 15.432 30.7466C7.92095 30.7466 1.83203 24.3146 1.83203 16.3804Z" fill="white"/>
<path d="M29.832 26.872L32.9067 30.1199C34.1405 31.4232 34.1405 33.5362 32.9067 34.8395C31.6729 36.1428 29.6726 36.1428 28.4388 34.8395L25.3641 31.5916M1.83203 16.3804C1.83203 8.44613 7.92095 2.01416 15.432 2.01416C22.9431 2.01416 29.032 8.44613 29.032 16.3804C29.032 24.3146 22.9431 30.7466 15.432 30.7466C7.92095 30.7466 1.83203 24.3146 1.83203 16.3804Z" stroke="#00BE9B" stroke-width="3" stroke-linecap="round"/>
</svg>
