<svg width="246" height="254" viewBox="0 0 246 254" fill="none" xmlns="http://www.w3.org/2000/svg">
<path d="M107.264 118.161C103.687 121.032 92.6022 123.05 82.1961 148.234L66.8793 135.025C59.8093 138.466 54.3312 144.311 51.5156 151.418L74.5494 171.267C77.2176 173.558 80.7244 174.74 84.3006 174.555C87.8767 174.371 91.2306 172.833 93.6262 170.28L103.171 160.091L99.3788 184.206L83.8515 200.801C87.7475 207.361 93.7524 212.536 100.969 215.554L117.408 198.018C119.842 195.422 121.562 192.285 122.413 188.891C125.99 174.491 124.774 149.086 127.09 127.199C117.811 125.539 114.373 123.521 107.264 118.161Z" fill="#668EFF"/>
<path d="M233.985 119.17L207.326 146.148L217.896 101.522L244.554 74.5439L233.985 119.17Z" fill="#668EFF"/>
<path d="M149.473 109.281C149.122 109.056 148.514 109.258 147.719 109.796L149.565 111.254C149.87 110.223 149.87 109.505 149.473 109.281Z" fill="#668EFF"/>
<path d="M132.964 123.072C132.472 124.283 132.537 125.301 132.917 125.539C133.297 125.777 134.394 125.539 135.133 124.62L132.964 123.072Z" fill="#668EFF"/>
<path d="M143.607 110.267C143.257 110.043 142.649 110.245 141.854 110.783L143.7 112.24C144.001 111.231 143.977 110.514 143.607 110.267Z" fill="#668EFF"/>
<path d="M88.9075 195.281L83.7383 200.798C87.6343 207.358 93.6392 212.533 100.856 215.551L106.258 209.788C99.1546 206.631 93.1364 201.599 88.9075 195.281Z" fill="#668EFF"/>
<path d="M118.652 113.944L127.305 126.839L129.596 122.847L118.652 113.944Z" fill="#668EFF"/>
<path d="M127.516 81.4287L128.708 83.8955L129.363 82.2136L127.516 81.4287Z" fill="#668EFF"/>
<path d="M121.318 140.721L103.148 160.096L101.301 171.982L121.318 140.721Z" fill="#668EFF"/>
<path d="M66.6657 171.597C65.1457 173.166 63.579 174.736 61.9654 176.351C60.6793 183.639 61.2873 200.368 63.7426 208.15C70.2657 197.745 72.6288 191.154 75.9272 180.432C72.3737 177.974 69.248 174.991 66.6657 171.597Z" fill="#668EFF"/>
<path d="M40.9208 85.5959C39.7984 84.5195 38.5122 83.1964 36.8051 81.4248C23.567 83.2188 8.9997 87.4572 2.82617 90.2604C12.2423 93.6751 22.3286 95.0534 32.3645 94.297L32.879 94.7455C35.0863 91.3402 37.7948 88.2585 40.9208 85.5959Z" fill="#668EFF"/>
<path d="M61.4274 95.6209L56.3812 91.2539C49.3165 94.701 43.8406 100.544 41.0176 107.647L46.1388 112.065C49.6818 105.417 54.9463 99.7556 61.4274 95.6209Z" fill="#668EFF"/>
<path d="M137.804 66.8293C137.904 66.286 137.798 65.7264 137.506 65.2508C137.216 64.7751 136.757 64.4143 136.214 64.2327C136.563 63.9228 136.811 63.5218 136.926 63.0787C137.042 62.6357 137.02 62.1701 136.862 61.739C136.706 61.3079 136.421 60.9301 136.044 60.652C135.666 60.374 135.212 60.2077 134.737 60.1737C134.93 59.7784 135.006 59.3393 134.955 58.9053C134.904 58.4713 134.728 58.0594 134.448 57.7155C134.167 57.3716 133.793 57.109 133.366 56.957C132.939 56.805 132.476 56.7696 132.029 56.8547C132.087 56.4195 132.016 55.9775 131.824 55.5792C131.632 55.1808 131.328 54.8421 130.945 54.6014C130.562 54.3608 130.117 54.228 129.66 54.218C129.202 54.2079 128.752 54.3212 128.358 54.5449C128.274 54.0979 128.059 53.6834 127.736 53.3512C127.413 53.0189 126.997 52.7831 126.538 52.6718C126.079 52.5605 125.596 52.5787 125.147 52.724C124.699 52.8693 124.303 53.1355 124.008 53.4909C123.785 53.0628 123.437 52.7063 123.006 52.4648C122.575 52.2233 122.08 52.1074 121.582 52.1311C121.083 52.155 120.603 52.3174 120.199 52.5987C119.795 52.88 119.486 53.268 119.308 53.7152C119.025 53.4295 118.672 53.2166 118.282 53.0961C117.891 52.9757 117.474 52.9514 117.071 53.0258C116.668 53.1001 116.291 53.2704 115.974 53.5214C115.658 53.7722 115.412 54.0953 115.26 54.4611C115.3 53.9004 115.173 53.3403 114.892 52.8468C114.612 52.3532 114.19 51.9469 113.677 51.6753C113.164 51.4038 112.58 51.2785 111.995 51.314C111.411 51.3497 110.848 51.5448 110.375 51.8763C110.116 51.3028 109.68 50.8188 109.127 50.489C108.573 50.1593 107.928 49.9996 107.277 50.0313C106.625 50.063 106 50.2846 105.484 50.6664C104.968 51.0482 104.586 51.572 104.389 52.1678C103.853 51.8574 103.232 51.7116 102.608 51.7502C101.983 51.7888 101.386 52.0099 100.897 52.3836C100.408 52.7574 100.05 53.266 99.8712 53.8409C99.6925 54.4157 99.7017 55.0293 99.8976 55.5989C99.2715 55.6669 98.6825 55.9183 98.2106 56.319C97.7389 56.7196 97.4074 57.2499 97.2613 57.8378C97.1151 58.4256 97.1615 59.0422 97.3941 59.6039C97.6267 60.1655 98.0343 60.6447 98.561 60.9763C98.0677 61.3594 97.7104 61.8798 97.5387 62.4658C97.3669 63.0518 97.3891 63.6745 97.6021 64.2479C97.8152 64.8214 98.2085 65.3172 98.7279 65.6672C99.2473 66.0171 99.8672 66.2037 100.502 66.2014C100.375 66.7861 100.436 67.3942 100.679 67.9442C100.922 68.4943 101.334 68.9601 101.86 69.2795C102.386 69.599 103.002 69.7567 103.624 69.7316C104.247 69.7064 104.846 69.4998 105.343 69.1391C105.539 69.6229 105.87 70.0458 106.299 70.3624C106.728 70.679 107.239 70.8772 107.777 70.9355C107.678 71.2703 107.658 71.6222 107.719 71.9653C107.779 72.3085 107.918 72.6345 108.126 72.9196C108.334 73.2049 108.605 73.4423 108.921 73.6146C109.236 73.7868 109.587 73.8897 109.949 73.9157C109.754 74.3123 109.678 74.7533 109.731 75.1891C109.784 75.6247 109.962 76.0376 110.247 76.3807C110.532 76.7239 110.911 76.9837 111.342 77.1306C111.773 77.2776 112.239 77.3059 112.685 77.2122C112.632 77.6482 112.706 78.09 112.901 78.4871C113.096 78.8844 113.404 79.2213 113.788 79.4595C114.173 79.6978 114.619 79.8277 115.077 79.8349C115.535 79.842 115.985 79.7258 116.378 79.4996C116.461 79.947 116.678 80.3617 117.002 80.6934C117.326 81.0252 117.743 81.2599 118.203 81.3689C118.663 81.4781 119.147 81.457 119.595 81.3084C120.042 81.1596 120.436 80.8897 120.727 80.5311C121.022 80.9367 121.404 81.2766 121.848 81.5281C122.292 81.7795 122.787 81.9367 123.299 81.9888C124.083 80.6317 124.613 79.1539 124.866 77.6218C125.126 76.0618 124.822 74.4633 124.005 73.0918C120.52 71.993 122.087 68.0686 124.449 69.5935C125.571 70.3335 125.997 70.2863 126.086 69.5711C126.092 69.3644 126.157 69.1634 126.273 68.9892C126.389 68.815 126.553 68.6743 126.746 68.582C126.953 69.0026 127.286 69.3548 127.702 69.5944C128.118 69.8341 128.599 69.9504 129.084 69.9289C129.569 69.9073 130.037 69.7488 130.427 69.4732C130.818 69.1977 131.116 68.8175 131.282 68.3802C131.509 68.6096 131.781 68.7931 132.082 68.9199C132.384 69.0468 132.709 69.1142 133.037 69.1184C133.367 69.1226 133.693 69.0634 133.998 68.9442C134.304 68.8251 134.581 68.6487 134.813 68.425C135.392 69.732 135.831 71.0921 136.123 72.484C136.474 72.2943 136.771 72.0249 136.988 71.6992C137.206 71.3736 137.336 71.0018 137.368 70.6166C137.4 70.2312 137.334 69.8442 137.174 69.4895C137.014 69.1347 136.765 68.8231 136.45 68.582C136.802 68.4107 137.107 68.1632 137.342 67.8589C137.578 67.5548 137.736 67.2022 137.804 66.8293Z" fill="#668EFF"/>
<path d="M188.872 60.4157C188.714 59.5065 188.28 58.6625 187.622 57.9903C186.964 57.3181 186.114 56.848 185.178 56.6395C184.242 56.4309 183.262 56.4931 182.363 56.8184C181.464 57.1437 180.686 57.7173 180.126 58.4669C179.567 59.2164 179.252 60.1081 179.221 61.0292C179.19 61.9503 179.445 62.8594 179.954 63.6417C180.462 64.424 181.2 65.0443 182.075 65.424C182.952 65.8038 183.925 65.926 184.873 65.7753C186.143 65.5716 187.278 64.8931 188.027 63.8883C188.777 62.8835 189.081 61.6347 188.872 60.4157Z" fill="#668EFF"/>
<path d="M33.2017 121.32L22.2344 124.705L26.7661 150.361L33.2017 121.32Z" fill="#668EFF"/>
<path d="M197.172 120.605L190.882 126.145C193.089 126.592 195.233 127.293 197.266 128.23C198.127 128.582 198.919 129.075 199.604 129.688C200.563 130.742 195.42 129.239 192.893 128.97H192.869C193.38 129.228 193.845 129.561 194.249 129.957C195.079 130.867 188.734 128.807 188.169 129.194C190.601 130.248 194.366 132.244 195.278 133.797C196.354 135.659 190.835 131.957 187.257 131.845C189.525 132.854 192.004 134.268 192.893 135.838C194.109 137.963 189.713 134.068 184.474 133.91H184.451C189.455 136.825 191.794 139.221 184.685 136.264C183.382 135.705 181.991 135.357 180.569 135.233L166.281 147.763L208.467 146.193L214.664 120L197.172 120.605Z" fill="#668EFF"/>
<path d="M233.992 120.17L207.334 147.148L217.904 102.522L244.562 75.5439L233.992 120.17Z" stroke="#323232" stroke-linejoin="round"/>
<path d="M197.176 121.605L190.886 127.145C193.092 127.592 195.236 128.293 197.27 129.23C198.131 129.582 198.923 130.075 199.608 130.688C200.567 131.742 195.424 130.239 192.897 129.97H192.873C193.384 130.228 193.849 130.561 194.253 130.957C195.083 131.867 188.738 129.807 188.173 130.194C190.605 131.248 194.37 133.244 195.282 134.797C196.358 136.659 190.839 132.957 187.261 132.845C189.529 133.854 192.008 135.268 192.897 136.838C194.113 138.963 189.716 135.068 184.478 134.91H184.455C189.459 137.825 191.798 140.221 184.689 137.264C183.385 136.705 181.995 136.357 180.573 136.233L166.285 148.763L208.471 147.193L214.668 121L197.176 121.605Z" stroke="#323232" stroke-linejoin="round"/>
<path d="M137.806 67.8293C137.906 67.286 137.8 66.7264 137.508 66.2508C137.218 65.7751 136.759 65.4143 136.216 65.2327C136.565 64.9228 136.813 64.5218 136.928 64.0787C137.044 63.6357 137.022 63.1701 136.864 62.739C136.708 62.3079 136.423 61.9301 136.046 61.652C135.668 61.374 135.214 61.2077 134.739 61.1737C134.932 60.7784 135.008 60.3393 134.957 59.9053C134.906 59.4713 134.73 59.0594 134.45 58.7155C134.169 58.3716 133.795 58.109 133.368 57.957C132.941 57.805 132.478 57.7696 132.031 57.8547C132.089 57.4195 132.018 56.9775 131.826 56.5792C131.634 56.1808 131.33 55.8421 130.947 55.6014C130.564 55.3608 130.119 55.228 129.662 55.218C129.204 55.2079 128.754 55.3212 128.36 55.5449C128.276 55.0979 128.06 54.6834 127.738 54.3512C127.415 54.0189 126.999 53.7831 126.54 53.6718C126.081 53.5605 125.598 53.5787 125.149 53.724C124.7 53.8693 124.305 54.1355 124.01 54.4909C123.787 54.0628 123.439 53.7063 123.008 53.4648C122.577 53.2233 122.082 53.1074 121.584 53.1311C121.085 53.155 120.605 53.3174 120.201 53.5987C119.797 53.88 119.488 54.268 119.31 54.7152C119.027 54.4295 118.674 54.2166 118.284 54.0961C117.893 53.9757 117.476 53.9514 117.073 54.0258C116.67 54.1001 116.293 54.2704 115.976 54.5214C115.66 54.7722 115.414 55.0953 115.262 55.4611C115.302 54.9004 115.174 54.3403 114.894 53.8468C114.614 53.3532 114.192 52.9469 113.679 52.6753C113.166 52.4038 112.582 52.2785 111.997 52.314C111.413 52.3497 110.85 52.5448 110.377 52.8763C110.118 52.3028 109.682 51.8188 109.129 51.489C108.575 51.1593 107.929 50.9996 107.279 51.0313C106.627 51.063 106.002 51.2846 105.486 51.6664C104.97 52.0482 104.588 52.572 104.391 53.1678C103.855 52.8574 103.234 52.7116 102.61 52.7502C101.985 52.7888 101.388 53.0099 100.899 53.3836C100.41 53.7574 100.052 54.266 99.8731 54.8409C99.6944 55.4157 99.7036 56.0293 99.8996 56.5989C99.2735 56.6669 98.6845 56.9183 98.2126 57.319C97.7408 57.7196 97.4094 58.2499 97.2633 58.8378C97.1171 59.4256 97.1635 60.0422 97.3961 60.6039C97.6287 61.1655 98.0362 61.6447 98.563 61.9763C98.0697 62.3594 97.7124 62.8798 97.5407 63.4658C97.3689 64.0518 97.391 64.6745 97.6041 65.2479C97.8171 65.8214 98.2105 66.3172 98.7299 66.6672C99.2492 67.0171 99.8692 67.2037 100.504 67.2014C100.377 67.7861 100.438 68.3942 100.681 68.9442C100.924 69.4943 101.336 69.9601 101.862 70.2795C102.388 70.599 103.004 70.7567 103.626 70.7316C104.248 70.7064 104.848 70.4998 105.344 70.1391C105.541 70.6229 105.872 71.0458 106.301 71.3624C106.73 71.679 107.241 71.8772 107.779 71.9355C107.68 72.2703 107.66 72.6222 107.721 72.9653C107.781 73.3085 107.92 73.6345 108.128 73.9196C108.336 74.2049 108.607 74.4423 108.923 74.6146C109.238 74.7868 109.589 74.8897 109.951 74.9157C109.756 75.3122 109.68 75.7533 109.733 76.1891C109.785 76.6247 109.964 77.0376 110.249 77.3807C110.534 77.7239 110.913 77.9837 111.344 78.1306C111.775 78.2776 112.24 78.3059 112.687 78.2122C112.634 78.6482 112.708 79.09 112.903 79.4871C113.098 79.8844 113.406 80.2213 113.79 80.4595C114.174 80.6978 114.621 80.8277 115.079 80.8349C115.537 80.842 115.987 80.7258 116.38 80.4996C116.463 80.947 116.68 81.3617 117.004 81.6934C117.328 82.0252 117.745 82.2599 118.205 82.3689C118.665 82.4781 119.149 82.457 119.596 82.3084C120.044 82.1596 120.438 81.8897 120.729 81.5311C121.024 81.9367 121.406 82.2766 121.85 82.5281C122.294 82.7795 122.789 82.9367 123.301 82.9888C124.085 81.6317 124.615 80.1539 124.868 78.6218C125.128 77.0618 124.824 75.4633 124.007 74.0918C120.522 72.993 122.089 69.0686 124.451 70.5935C125.573 71.3335 125.999 71.2863 126.088 70.5711C126.094 70.3644 126.159 70.1634 126.275 69.9892C126.391 69.815 126.555 69.6743 126.747 69.582C126.955 70.0026 127.288 70.3548 127.704 70.5944C128.12 70.8341 128.601 70.9504 129.086 70.9289C129.571 70.9073 130.039 70.7488 130.429 70.4732C130.82 70.1977 131.118 69.8175 131.284 69.3802C131.511 69.6096 131.783 69.7931 132.084 69.9199C132.386 70.0468 132.711 70.1142 133.039 70.1184C133.369 70.1226 133.695 70.0634 134 69.9442C134.306 69.8251 134.583 69.6487 134.815 69.425C135.394 70.7321 135.833 72.0921 136.125 73.484C136.475 73.2943 136.773 73.0249 136.99 72.6992C137.208 72.3736 137.338 72.0018 137.37 71.6166C137.402 71.2312 137.336 70.8442 137.176 70.4895C137.016 70.1347 136.767 69.8231 136.452 69.582C136.804 69.4107 137.109 69.1632 137.344 68.8589C137.579 68.5548 137.738 68.2022 137.806 67.8293Z" stroke="#323232" stroke-linejoin="round"/>
<path d="M136.846 81.7106L206.649 70.4531" stroke="#323232" stroke-linecap="round" stroke-linejoin="round"/>
<path d="M21.1406 100.144L122.863 83.7734" stroke="#323232" stroke-linecap="round" stroke-linejoin="round"/>
<path d="M128.57 92.251L149.499 110.281" stroke="#323232" stroke-linecap="round" stroke-linejoin="round"/>
<path d="M149.592 112.254C149.873 111.245 149.874 110.525 149.499 110.28C149.149 110.054 148.514 110.254 147.721 110.796C146.534 111.695 145.459 112.725 144.521 113.865" stroke="#323232" stroke-linecap="round" stroke-linejoin="round"/>
<path d="M51.6285 95.1848C43.7245 89.1524 43.0697 88.973 36.8027 82.4023C23.567 84.1964 8.9997 88.4348 2.82617 91.2379C12.2493 94.6524 22.3418 96.0306 32.3842 95.2745L43.1177 104.536" stroke="#323232" stroke-linecap="round" stroke-linejoin="round"/>
<path d="M121.578 92.2949L143.63 111.267" stroke="#323232" stroke-linecap="round" stroke-linejoin="round"/>
<path d="M132.919 126.539L118.654 114.945L127.293 127.836" stroke="#323232" stroke-linecap="round" stroke-linejoin="round"/>
<path d="M183.828 129.068C184.69 129.248 192.579 131.892 194.234 134.72C195.342 136.602 189.744 132.858 186.12 132.746" stroke="#323232" stroke-linecap="round" stroke-linejoin="round"/>
<path d="M183.055 131.54C185.253 132.303 190.463 134.413 191.824 136.788C193.055 138.943 188.624 134.994 183.312 134.837" stroke="#323232" stroke-linecap="round" stroke-linejoin="round"/>
<path d="M183.614 134.365C189.18 137.482 192.247 140.368 184.69 137.235C180.786 135.617 152.321 134.791 152.321 134.791C149.823 134.543 147.437 133.668 145.404 132.255L134.133 124.047" stroke="#323232" stroke-linecap="round" stroke-linejoin="round"/>
<path d="M143.018 111.783L154.476 121.538C154.476 121.538 183.192 126.696 185.39 127.298C187.589 127.9 192.852 129.179 194.393 130.864C195.213 131.759 190.701 130.213 187.963 130.079" stroke="#323232" stroke-linecap="round" stroke-linejoin="round"/>
<path d="M143.723 113.241C144.003 112.232 144.005 111.512 143.629 111.267C143.28 111.041 142.645 111.243 141.852 111.783C138.616 113.992 133.808 120.837 132.802 124.588C132.556 125.509 132.6 126.338 132.919 126.539C133.288 126.775 134.346 126.494 135.135 125.642" stroke="#323232" stroke-linecap="round" stroke-linejoin="round"/>
<path d="M97.1875 133.85C102.833 134.078 108.387 132.422 112.902 129.163" stroke="#323232" stroke-linecap="round" stroke-linejoin="round"/>
<path d="M127.098 128.176L129.6 123.848" stroke="#323232" stroke-linecap="round" stroke-linejoin="round"/>
<path d="M128.196 90.1183C126.653 92.2711 123.823 91.3292 119.918 87.7188" stroke="#323232" stroke-linecap="round" stroke-linejoin="round"/>
<path d="M103.146 161.121L121.32 141.721L101.303 172.982" stroke="#323232" stroke-linecap="round" stroke-linejoin="round"/>
<path d="M74.5513 172.241C75.8713 173.378 77.4119 174.255 79.0851 174.82C80.7583 175.385 82.5314 175.63 84.3029 175.538C86.0746 175.447 87.81 175.021 89.41 174.287C91.0101 173.551 92.4435 172.521 93.6282 171.254L103.142 161.121L99.3808 185.198L83.8535 201.793C87.7494 208.353 93.7544 213.529 100.971 216.546L117.41 198.987C119.844 196.392 121.564 193.255 122.415 189.86C125.994 175.461 124.776 150.033 127.091 128.168C117.784 126.509 114.347 124.491 107.261 119.131C102.683 122.34 92.4639 124.722 82.1944 149.21L66.8812 136.002C59.8166 139.449 54.3406 145.292 51.5176 152.395L74.5513 172.241Z" stroke="#323232" stroke-linecap="round" stroke-linejoin="round"/>
<path d="M129.333 83.1782C128.714 82.9567 128.109 82.699 127.523 82.4062L128.711 84.8848" stroke="#323232" stroke-linecap="round" stroke-linejoin="round"/>
<path d="M130.3 99.8083C128.577 95.0399 127.146 87.7493 129.326 83.1781C138.18 86.2929 137.431 75.2844 134.836 69.4668M107.26 119.116C108.255 116.118 108.929 113.03 109.271 109.9C109.867 105.084 111.324 100.404 113.579 96.0632C115.782 91.6242 120.84 87.531 123.425 82.8099C124.199 81.5129 124.691 80.0786 124.871 78.5939C125.132 77.0339 124.827 75.4354 124.009 74.064C120.525 72.9651 122.099 69.0313 124.454 70.5656C125.58 71.301 126.02 71.2608 126.09 70.5432C126.154 70.1659 126.233 69.8068 126.326 69.4668" stroke="#323232" stroke-linecap="round" stroke-linejoin="round"/>
<path d="M89.0273 196.281C93.2569 202.6 99.2764 207.633 106.381 210.79" stroke="#323232" stroke-linecap="round" stroke-linejoin="round"/>
<path d="M46.1113 113.08C50.0399 106.235 54.9507 100.612 61.4048 96.71" stroke="#323232" stroke-linecap="round" stroke-linejoin="round"/>
<path d="M86.6404 205.857C81.7001 211.641 77.2804 216.18 72.4693 220.995C71.1832 228.283 71.7912 245.012 74.2465 252.794C80.7696 242.388 83.1327 235.773 86.4311 225.057L96.4397 214.383" stroke="#323232" stroke-linecap="round" stroke-linejoin="round"/>
<path d="M32.9004 95.7238C35.1079 92.3247 37.8174 89.2503 40.9447 86.5967" stroke="#323232" stroke-linecap="round" stroke-linejoin="round"/>
<path d="M192.993 129.881C195.541 130.127 200.728 131.651 199.774 130.598C199.081 129.979 198.282 129.478 197.412 129.118C194.114 127.572 190.958 127.078 187.45 126.158L160.251 119.834L148.9 110.786" stroke="#323232" stroke-linecap="round" stroke-linejoin="round"/>
<path d="M104.834 132.975L83.8584 162.531L63.584 147.125" stroke="#323232" stroke-linecap="round" stroke-linejoin="round"/>
<path d="M163.34 65.6765C163.497 66.5857 163.369 67.5192 162.973 68.3589C162.578 69.1986 161.931 69.9069 161.115 70.3941C160.3 70.8813 159.351 71.1256 158.391 71.0961C157.43 71.0666 156.501 70.7647 155.719 70.2284C154.937 69.6922 154.339 68.9456 154 68.0833C153.661 67.2211 153.596 66.2818 153.814 65.384C154.03 64.4864 154.521 63.6707 155.222 63.0402C155.923 62.4097 156.803 61.9926 157.751 61.8418C159.022 61.6402 160.326 61.9309 161.373 62.6499C162.421 63.3689 163.128 64.4575 163.34 65.6765Z" stroke="#323232" stroke-linecap="round" stroke-linejoin="round"/>
<path d="M176.574 63.5691C176.732 64.4783 176.604 65.4117 176.208 66.2515C175.812 67.0912 175.165 67.7995 174.349 68.2867C173.534 68.7739 172.585 69.0182 171.625 68.9887C170.664 68.9592 169.735 68.6572 168.953 68.121C168.172 67.5848 167.574 66.8382 167.234 65.9759C166.896 65.1137 166.83 64.1743 167.048 63.2766C167.265 62.379 167.756 61.5633 168.456 60.9328C169.158 60.3023 170.038 59.8852 170.985 59.7344C172.257 59.5328 173.559 59.8234 174.608 60.5425C175.655 61.2615 176.363 62.3501 176.574 63.5691Z" stroke="#323232" stroke-linecap="round" stroke-linejoin="round"/>
<path d="M188.877 61.415C189.035 62.3241 188.907 63.2576 188.51 64.0974C188.115 64.9371 187.468 65.6453 186.652 66.1326C185.837 66.6198 184.888 66.864 183.928 66.8346C182.967 66.8051 182.038 66.503 181.256 65.9668C180.475 65.4305 179.876 64.6841 179.537 63.8218C179.198 62.9596 179.133 62.0202 179.351 61.1225C179.568 60.2248 180.059 59.4092 180.759 58.7787C181.46 58.1482 182.34 57.7311 183.288 57.5802C184.559 57.3783 185.863 57.6689 186.91 58.3879C187.959 59.1071 188.667 60.1959 188.877 61.415Z" stroke="#323232" stroke-linecap="round" stroke-linejoin="round"/>
<path d="M39.1907 1.35742L30.2578 13.4223" stroke="#323232" stroke-linecap="round" stroke-linejoin="round"/>
<path d="M41.0145 11.6729L28.457 3.10645" stroke="#323232" stroke-linecap="round" stroke-linejoin="round"/>
<path d="M3.71577 131.402L3.43516 131.492L12.064 138.825L0.675781 150.823L6.77914 156.048L18.1674 144.028L26.7717 151.362L33.2037 122.321L3.71577 131.402Z" stroke="#323232" stroke-linecap="round" stroke-linejoin="round"/>
<path d="M165.982 191.594L147.883 186.212L163.106 176.076" stroke="#323232" stroke-linecap="round" stroke-linejoin="round"/>
<path d="M179.689 189.307L194.795 178.588L176.812 173.767" stroke="#323232" stroke-linecap="round" stroke-linejoin="round"/>
<path d="M175.196 167.375L168.578 198.277" stroke="#323232" stroke-linecap="round" stroke-linejoin="round"/>
<path d="M17.123 94.7705L29.2541 166.498C29.6876 168.945 30.6195 171.285 31.9966 173.385C33.3738 175.486 35.1691 177.306 37.28 178.741C39.3909 180.175 41.776 181.197 44.299 181.749C46.822 182.299 49.4333 182.367 51.9839 181.949L61.7097 180.381" stroke="#323232" stroke-linecap="round" stroke-linejoin="round"/>
<path d="M217.99 137.631L225.215 180.338C225.651 182.783 225.579 185.288 225.006 187.707C224.431 190.127 223.365 192.414 221.87 194.438C220.373 196.463 218.475 198.185 216.284 199.505C214.094 200.826 211.654 201.72 209.103 202.135L91.332 221.128" stroke="#323232" stroke-linecap="round" stroke-linejoin="round"/>
<path d="M97.6337 63.2988L36.3873 73.1664C33.8364 73.5823 31.3959 74.476 29.2054 75.7966C27.0149 77.1172 25.1173 78.8389 23.6209 80.8633C22.1247 82.8876 21.0589 85.1749 20.4849 87.5943C19.9109 90.0138 19.8396 92.5181 20.2753 94.9639L26.2745 130.436" stroke="#323232" stroke-linecap="round" stroke-linejoin="round"/>
<path d="M133.221 57.7529L183.006 49.7315C185.557 49.3137 188.168 49.3821 190.691 49.9326C193.214 50.483 195.6 51.505 197.71 52.9399C199.821 54.3749 201.617 56.1946 202.994 58.2953C204.371 60.396 205.303 62.7364 205.736 65.1826L214.968 119.762" stroke="#323232" stroke-linecap="round" stroke-linejoin="round"/>
<path d="M66.668 172.598C69.2437 175.991 72.3701 178.966 75.9282 181.411" stroke="#323232" stroke-linecap="round" stroke-linejoin="round"/>
</svg>
