<svg width="58" height="58" viewBox="0 0 58 58" fill="none" xmlns="http://www.w3.org/2000/svg">
<path d="M31.5 13.4C31.5 12.0193 30.3807 10.9 29 10.9C27.6193 10.9 26.5 12.0193 26.5 13.4H31.5ZM52.5 29C52.5 41.9787 41.9787 52.5 29 52.5V57.5C44.7401 57.5 57.5 44.7401 57.5 29H52.5ZM29 52.5C16.0213 52.5 5.5 41.9787 5.5 29H0.5C0.5 44.7401 13.2599 57.5 29 57.5V52.5ZM5.5 29C5.5 16.0213 16.0213 5.5 29 5.5V0.5C13.2599 0.5 0.5 13.2599 0.5 29H5.5ZM29 5.5C41.9787 5.5 52.5 16.0213 52.5 29H57.5C57.5 13.2599 44.7401 0.5 29 0.5V5.5ZM30.4 29C30.4 29.7732 29.7732 30.4 29 30.4V35.4C32.5346 35.4 35.4 32.5346 35.4 29H30.4ZM29 30.4C28.2268 30.4 27.6 29.7732 27.6 29H22.6C22.6 32.5346 25.4654 35.4 29 35.4V30.4ZM27.6 29C27.6 28.2268 28.2268 27.6 29 27.6V22.6C25.4654 22.6 22.6 25.4654 22.6 29H27.6ZM29 27.6C29.7732 27.6 30.4 28.2268 30.4 29H35.4C35.4 25.4654 32.5346 22.6 29 22.6V27.6ZM31.5 25.1V13.4H26.5V25.1H31.5Z" fill="white"/>
</svg>
