<svg width="58" height="58" viewBox="0 0 58 58" fill="none" xmlns="http://www.w3.org/2000/svg">
<path d="M21.2 55H13.4C7.65624 55 3 50.3438 3 44.6V13.4C3 7.65624 7.65624 3 13.4 3H44.6C50.3438 3 55 7.65624 55 13.4V29L49.8 23.8M29 16V29L21.2 31.6M29 45.9V44.6C29 41.7281 31.3281 39.4 34.2 39.4C37.0719 39.4 39.4 41.7281 39.4 44.6C39.4 46.2367 38.6294 47.778 37.32 48.76L29 55H39.4M44.6 39.4V42C44.6 44.8719 46.9281 47.2 49.8 47.2H55M55 47.2V39.4M55 47.2V55" stroke="white" stroke-width="5" stroke-linecap="round" stroke-linejoin="round"/>
</svg>
