<svg width="28" height="28" viewBox="0 0 28 28" fill="none" xmlns="http://www.w3.org/2000/svg">
<path d="M10.4 15.2L12.5034 16.8827C13.0048 17.2839 13.7332 17.2192 14.1561 16.7359L17.6 12.8M19.7641 2C22.3124 3.11433 24.4758 4.94495 26 7.23729M2 7.23729C3.52415 4.94495 5.68763 3.11433 8.2359 2M24.8 26L22.1086 22.4M3.2 26L5.89126 22.4M24.8 15.2C24.8 21.1647 19.9647 26 14 26C8.03532 26 3.2 21.1647 3.2 15.2C3.2 9.23532 8.03532 4.4 14 4.4C19.9647 4.4 24.8 9.23532 24.8 15.2Z" stroke="#595959" stroke-width="3" stroke-linecap="round" stroke-linejoin="round"/>
</svg>
