<svg width="81" height="100" viewBox="0 0 81 100" fill="none" xmlns="http://www.w3.org/2000/svg">
<path d="M77.156 57.8783C75.6264 57.0983 74.0969 56.4743 72.5674 56.0062V45.3978C72.5674 44.3058 71.8876 43.3697 70.8679 42.7457C69.8482 42.1217 68.6586 42.1217 67.469 42.5897L64.07 44.1498C62.2006 41.8097 59.1416 40.2496 55.9126 40.2496H50.3043L48.265 37.4415C51.494 35.5694 54.2131 32.4493 56.0825 28.7051C60.841 27.9251 62.2006 20.1248 58.2918 17.4727C57.782 7.02028 50.6442 0 40.1075 0C29.5708 0 22.433 7.02028 21.9232 17.4727C18.0144 20.1248 19.374 27.9251 24.1325 28.7051C26.0019 32.6053 28.7211 35.5694 31.95 37.4415L29.7407 40.4056H24.1325C20.9035 40.4056 17.8444 41.8097 15.975 44.3058L12.5761 42.7457C11.5564 42.2777 10.1968 42.2777 9.17714 42.9017C8.15746 43.5257 7.47767 44.4618 7.47767 45.5538V56.1622C5.94815 56.6303 4.41862 57.4103 2.8891 58.0343C1.18963 58.8144 0 60.3744 0 62.2465V71.4509C0 73.1669 1.01968 74.727 2.8891 75.663C4.24868 76.287 5.7782 76.9111 7.30772 77.5351H7.47767V83.1513C7.47767 84.3994 8.15746 85.3354 9.34709 85.9594L39.2578 100C39.5977 99.844 39.9376 99.844 40.1075 99.844C40.2775 99.844 40.6173 99.844 40.7873 99.688L70.698 85.6474C71.8876 85.1794 72.5674 84.0874 72.5674 82.8393V77.2231C74.0969 76.7551 75.6264 75.975 77.156 75.351C78.8554 74.571 80.0451 73.0109 80.0451 71.1388V61.9345C80.0451 60.2184 79.0254 58.6583 77.156 57.8783ZM40.1075 3.12012C46.9054 3.12012 51.8338 6.55226 53.8732 12.1685L52.8535 10.9204C52.3437 10.2964 51.324 9.9844 50.6442 10.4524C43.6764 14.5086 36.7086 14.5086 29.7407 10.4524C29.0609 9.9844 28.0413 10.1404 27.5314 10.9204L26.5117 12.1685C28.3812 6.55226 33.3096 3.12012 40.1075 3.12012ZM27.0216 26.5211C26.6817 25.897 26.1718 25.429 25.4921 25.429C25.3221 25.429 25.3221 25.429 25.1522 25.429H24.9822C24.4724 25.429 23.4527 24.493 23.2827 22.7769C23.1128 21.0608 23.7926 19.9688 24.3024 19.8128C24.8123 19.6568 24.9822 19.5008 25.3221 19.0328L29.4008 13.7285C36.7086 17.4727 44.0163 17.4727 51.1541 13.7285L55.2328 19.0328C55.4027 19.3448 55.7426 19.6568 56.2525 19.8128C56.7623 19.9688 57.4421 21.0608 57.2722 22.7769C57.1022 24.493 56.0825 25.429 55.5727 25.429C54.7229 25.273 53.8732 25.741 53.5333 26.3651C50.9841 32.6053 45.8857 36.3495 40.4474 36.3495C35.0091 36.3495 29.5708 32.7613 27.0216 26.5211ZM40.1075 39.7816C41.807 39.7816 43.5064 39.4696 45.2059 39.0016L47.7551 42.4337C47.0753 44.4618 45.036 47.5819 40.1075 48.83C35.179 47.5819 32.9697 44.4618 32.4599 42.4337L35.0091 39.0016C36.7086 39.4696 38.408 39.7816 40.1075 39.7816ZM24.1325 43.5257H29.2309C30.2506 46.3339 33.1397 50.39 39.4277 51.9501H39.5977C39.7676 51.9501 39.9376 51.9501 39.9376 51.9501C40.1075 51.9501 40.2775 51.9501 40.2775 51.9501C46.7354 50.39 49.6245 46.4899 50.6442 43.5257H55.7426C57.782 43.5257 59.6514 44.3058 60.841 45.7098L40.1075 55.5382L19.0341 45.7098C20.2237 44.3058 22.0931 43.5257 24.1325 43.5257ZM4.58857 72.5429C4.07873 72.2309 3.56889 71.7629 3.56889 71.1388V61.9345C3.56889 61.3105 3.90878 60.8424 4.58857 60.5304C8.32741 58.8144 10.7067 58.0343 13.0859 57.8783H13.2559C14.4455 57.8783 15.2952 58.6583 15.2952 59.7504C15.2952 60.8424 14.2756 61.6225 13.2559 61.6225H13.0859H12.916L8.83725 62.4025C7.98751 62.5585 7.30772 63.3385 7.47767 64.2746C7.64762 65.0546 8.32741 65.5226 9.17714 65.5226C9.34709 65.5226 9.34709 65.5226 9.51704 65.5226L13.2559 64.7426C14.4455 64.7426 15.2952 65.5226 15.2952 66.4587C15.2952 67.3947 14.4455 68.1747 13.2559 68.3307L9.51704 67.7067C8.6673 67.5507 7.64762 68.0187 7.47767 68.9548C7.30772 69.7348 7.81757 70.6708 8.83725 70.8268L12.916 71.6069C13.0859 71.6069 13.0859 71.6069 13.2559 71.6069C13.9357 71.6069 14.4455 71.7629 14.7854 72.2309C15.1253 72.5429 15.2952 73.0109 15.2952 73.4789C15.2952 74.415 14.1056 75.195 12.916 75.195V76.7551L12.746 75.195C11.3865 75.195 10.0269 74.883 8.49735 74.259C7.47767 73.947 6.28804 73.4789 4.58857 72.5429ZM11.0466 78.1591C11.7263 78.3151 12.2362 78.3151 12.916 78.3151H13.0859C16.145 78.3151 18.6942 76.2871 18.8641 73.6349C19.0341 72.2309 18.5242 70.9828 17.5045 70.0468C18.3543 69.1108 19.0341 68.0187 19.0341 66.6147C19.0341 65.3666 18.5242 64.1186 17.5045 63.1825C18.3543 62.2465 19.0341 61.1544 19.0341 59.7504C19.0341 57.0983 16.6548 54.9142 13.7657 54.7582H13.5958C12.746 54.7582 12.0662 54.7582 11.3865 54.9142V45.0858L38.408 58.1903V95.6318L11.0466 82.8393V78.1591ZM69.1684 82.8393L41.807 95.7878V58.3463L64.24 47.7379L69.1684 45.3978V55.2262C68.4887 55.0702 67.6389 55.0702 66.9591 55.0702C66.7892 55.0702 66.7892 55.0702 66.7892 55.0702C63.9001 55.2262 61.5208 57.4103 61.5208 60.0624C61.5208 61.3105 62.0307 62.5585 63.0504 63.4945C62.2006 64.4306 61.5208 65.5226 61.5208 66.9267C61.5208 68.1747 62.0307 69.4228 63.0504 70.3588C62.0307 71.2949 61.5208 72.6989 61.6908 73.947C61.8607 76.5991 64.4099 78.6272 67.469 78.6272H67.6389C71.0379 78.1591 67.9788 78.3151 69.1684 82.8393ZM76.6461 71.2949C76.6461 71.9189 76.3062 72.3869 75.6264 72.6989C73.0772 73.947 70.1881 75.195 67.299 75.351C67.1291 75.351 66.9591 75.351 67.1291 75.351C65.9395 75.351 64.9198 74.571 64.7498 73.6349C64.7498 73.1669 64.9198 72.6989 65.2597 72.3869C65.5996 71.9189 66.2794 71.7629 66.7892 71.7629C67.1291 71.7629 67.1291 71.7629 71.2078 70.9828C72.0576 70.8268 72.7373 70.0468 72.5674 69.1108C72.0575 66.7707 68.6586 68.4867 66.7892 68.6427C65.5996 68.6427 64.7498 67.8627 64.7498 66.7707C64.7498 65.8346 65.5996 65.0546 66.7892 65.0546C68.4887 65.2106 72.0575 66.9267 72.5674 64.5866C72.7373 63.8066 72.2275 62.8705 71.2078 62.7145L67.299 61.7785H67.1291H66.9591C65.7695 61.7785 64.9198 60.9984 64.9198 59.9064C64.9198 58.8144 65.9395 58.0343 66.9591 58.0343H67.1291C70.0182 58.0343 73.0772 59.4384 75.6264 60.6864C76.1363 60.9984 76.6461 61.4665 76.6461 62.0905V71.2949Z" fill="#668EFF"/>
</svg>
