<svg width="644" height="680" viewBox="0 0 644 680" fill="none" xmlns="http://www.w3.org/2000/svg">
<path d="M382.661 389.885C382.778 389.991 382.89 390.103 382.997 390.221L383.954 391.212L387.65 395.126L401.593 410.06L450.998 463.329H450.427L506.468 399.141L506.855 398.704L507.174 399.191L511.256 405.34L553.656 469.175L553.068 469.075L593.823 436.518L594.058 436.334L594.259 436.552L625.371 471.83L633.77 481.455L635.954 483.975C636.441 484.546 636.676 484.849 636.676 484.849C636.676 484.849 636.391 484.58 635.887 484.042L633.669 481.455L625.102 471.947L593.789 436.922H594.226L553.572 469.696L553.236 469.965L552.984 469.595L510.534 405.861L506.435 399.695H507.124C486.73 423.046 467.545 444.968 451.015 463.884L450.73 464.203L450.444 463.884C430.151 441.81 413.167 423.365 401.257 410.396L387.482 395.277L383.87 391.279C383.484 390.826 383.181 390.49 382.946 390.238C382.711 389.986 382.644 389.902 382.661 389.885Z" fill="#E6E6E6"/>
<path d="M445.203 463.765C445.193 464.932 445.531 466.076 446.173 467.05C446.815 468.025 447.733 468.786 448.81 469.238C449.886 469.689 451.072 469.809 452.217 469.584C453.363 469.359 454.415 468.798 455.24 467.973C456.066 467.147 456.627 466.095 456.852 464.95C457.077 463.805 456.956 462.618 456.505 461.542C456.054 460.466 455.292 459.548 454.318 458.906C453.343 458.263 452.2 457.926 451.033 457.936C449.489 457.945 448.012 458.562 446.92 459.653C445.829 460.744 445.212 462.222 445.203 463.765Z" fill="#E0E0E0"/>
<path d="M548.131 470.773C548.138 471.936 548.489 473.072 549.142 474.035C549.794 474.999 550.718 475.747 551.796 476.185C552.873 476.624 554.057 476.732 555.197 476.498C556.336 476.263 557.381 475.695 558.198 474.867C559.014 474.038 559.567 472.986 559.786 471.843C560.004 470.7 559.878 469.518 559.425 468.446C558.971 467.375 558.21 466.462 557.237 465.824C556.264 465.185 555.124 464.85 553.96 464.86C552.404 464.873 550.916 465.503 549.823 466.611C548.731 467.72 548.122 469.216 548.131 470.773Z" fill="#E0E0E0"/>
<path d="M588.161 438.398C588.171 439.557 588.525 440.688 589.177 441.646C589.83 442.605 590.752 443.348 591.827 443.783C592.902 444.217 594.082 444.323 595.217 444.087C596.352 443.851 597.392 443.284 598.205 442.457C599.018 441.63 599.567 440.581 599.784 439.442C600 438.302 599.874 437.125 599.421 436.057C598.968 434.99 598.209 434.081 597.239 433.445C596.27 432.809 595.133 432.475 593.974 432.485C592.42 432.502 590.937 433.134 589.848 434.242C588.759 435.35 588.152 436.844 588.161 438.398Z" fill="#E0E0E0"/>
<path d="M500.927 399.933C500.934 401.096 501.285 402.232 501.938 403.195C502.59 404.159 503.514 404.907 504.591 405.346C505.669 405.784 506.853 405.893 507.993 405.658C509.132 405.423 510.177 404.855 510.994 404.027C511.81 403.198 512.363 402.146 512.581 401.003C512.8 399.86 512.674 398.678 512.221 397.606C511.767 396.535 511.005 395.622 510.033 394.984C509.06 394.345 507.92 394.01 506.756 394.02C505.2 394.033 503.712 394.663 502.619 395.771C501.527 396.88 500.918 398.376 500.927 399.933Z" fill="#E0E0E0"/>
<path d="M632.041 485.015C632.048 486.179 632.4 487.314 633.052 488.277C633.704 489.241 634.628 489.989 635.706 490.428C636.784 490.866 637.967 490.975 639.107 490.74C640.247 490.505 641.291 489.937 642.108 489.109C642.925 488.28 643.477 487.228 643.696 486.085C643.914 484.942 643.789 483.76 643.335 482.689C642.881 481.617 642.12 480.704 641.147 480.066C640.174 479.427 639.034 479.092 637.87 479.102C636.314 479.115 634.826 479.745 633.733 480.853C632.641 481.962 632.032 483.458 632.041 485.015Z" fill="#E0E0E0"/>
<path d="M117.088 40.1484H79.3408V190.28H117.088V40.1484Z" fill="#E6E6E6"/>
<path d="M172.607 72.8906H134.86V190.264H172.607V72.8906Z" fill="#E6E6E6"/>
<path d="M228.985 99.7051H191.238V190.268H228.985V99.7051Z" fill="#E6E6E6"/>
<path d="M281.18 136.494H243.433V190.284H281.18V136.494Z" fill="#E6E6E6"/>
<path d="M250.958 2.68945C250.958 2.68945 250.606 3.14302 249.917 3.94937L246.775 7.56113L234.831 21.1682L191.759 69.885L191.524 70.1369L191.255 69.9353L163.151 48.3992H163.722L124.412 98.2247L123.942 98.8294L123.657 99.199L123.304 98.8798L70.3705 52.1285H70.9585C50.1782 79.4099 32.573 102.71 19.9739 119.19L5.30844 138.357L1.39431 143.397L0.369577 144.69C0.255203 144.843 0.131789 144.989 0 145.127C0.0954254 144.963 0.202077 144.806 0.319183 144.657L1.29351 143.313L5.10686 138.156L19.5707 118.854L70.3033 51.5574L70.5721 51.2046L70.8913 51.4902L123.892 98.1239H123.253L123.724 97.5191L163.083 47.7272L163.335 47.4081L163.655 47.66L191.709 69.1794H191.205L234.496 20.849C239.72 15.0534 243.819 10.5009 246.624 7.40994L249.833 3.88217C250.572 3.04223 250.958 2.68945 250.958 2.68945Z" fill="#E6E6E6"/>
<path d="M244.726 37.5119C244.713 37.257 244.741 37.0016 244.81 36.7559L245.23 34.6057C245.667 32.6066 246.255 29.9524 246.91 26.7102C248.405 19.9907 250.522 10.8185 252.958 0.537563L253.495 1.04153L251.597 1.62949C241.064 4.87167 231.522 7.74428 224.601 9.79374L216.386 12.1624L214.135 12.7671C213.877 12.8634 213.605 12.9145 213.329 12.9183C213.57 12.7874 213.823 12.6805 214.085 12.5992L216.286 11.8432L224.416 9.20578C231.287 7.00513 240.812 4.03173 251.295 0.806345L253.193 0.235183L253.932 0L253.747 0.755944C251.412 11.0873 249.279 20.2258 247.599 26.8614C246.776 30.07 246.104 32.7074 245.617 34.6897C245.381 35.5128 245.18 36.2184 245.029 36.7895C244.964 37.0439 244.862 37.2873 244.726 37.5119Z" fill="#E6E6E6"/>
<path d="M542.503 256.534C550.004 256.412 557.372 258.517 563.677 262.583C569.982 266.649 574.939 272.492 577.922 279.375C580.906 286.258 581.782 293.871 580.439 301.252C579.096 308.633 575.594 315.449 570.377 320.84C565.16 326.231 558.462 329.954 551.129 331.538C543.797 333.122 536.159 332.496 529.182 329.74C522.205 326.983 516.202 322.22 511.932 316.052C507.662 309.884 505.317 302.588 505.193 295.088C505.04 285.031 508.882 275.324 515.877 268.097C522.871 260.869 532.447 256.711 542.503 256.534ZM543.41 312.609C546.996 312.542 550.482 311.414 553.427 309.367C556.372 307.32 558.644 304.445 559.957 301.108C561.269 297.77 561.562 294.118 560.8 290.613C560.038 287.108 558.254 283.908 555.673 281.417C553.093 278.926 549.832 277.255 546.303 276.617C542.774 275.978 539.134 276.399 535.844 277.828C532.555 279.257 529.762 281.629 527.82 284.644C525.877 287.659 524.872 291.182 524.932 294.769C524.973 297.153 525.484 299.507 526.435 301.694C527.386 303.881 528.759 305.86 530.475 307.517C532.191 309.173 534.217 310.476 536.436 311.35C538.656 312.223 541.025 312.651 543.41 312.609Z" fill="#E0E0E0"/>
<path d="M542.436 251.815C553.748 251.653 564.662 255.983 572.786 263.856C580.911 271.728 585.582 282.501 585.777 293.812L559.907 294.484C559.739 283.246 552.129 278.676 543.108 278.105C540.891 277.973 538.671 278.3 536.587 279.068C534.503 279.835 532.6 281.025 530.998 282.564C529.397 284.102 528.131 285.955 527.281 288.007C526.43 290.058 526.013 292.264 526.057 294.484L500.455 295.173C500.28 283.858 504.603 272.937 512.474 264.808C520.345 256.678 531.122 252.005 542.436 251.815Z" fill="#F0F0F0"/>
<path d="M235.351 423.684C248.41 409.981 266.327 401.951 285.246 401.323C304.165 400.695 322.574 407.518 336.514 420.325C343.362 426.636 348.888 434.243 352.774 442.706C356.66 451.169 358.827 460.319 359.151 469.625C359.474 478.932 357.947 488.21 354.658 496.922C351.37 505.635 346.384 513.607 339.991 520.379C326.932 534.082 309.016 542.112 290.097 542.74C271.178 543.368 252.768 536.545 238.829 523.738C231.981 517.427 226.454 509.82 222.568 501.357C218.683 492.894 216.515 483.744 216.192 474.438C215.868 465.131 217.395 455.853 220.684 447.141C223.973 438.428 228.958 430.456 235.351 423.684ZM312.626 495.147C315.691 491.911 318.081 488.097 319.658 483.929C321.234 479.76 321.966 475.319 321.81 470.865C321.653 466.411 320.612 462.032 318.747 457.984C316.882 453.936 314.23 450.3 310.946 447.287C304.274 441.17 295.466 437.919 286.421 438.234C277.375 438.548 268.814 442.402 262.582 448.967C259.517 452.203 257.127 456.016 255.55 460.185C253.974 464.353 253.242 468.794 253.399 473.248C253.555 477.703 254.596 482.081 256.461 486.129C258.326 490.177 260.978 493.814 264.262 496.827C270.934 502.957 279.75 506.217 288.805 505.903C297.86 505.589 306.429 501.725 312.66 495.147H312.626Z" fill="#F5F5F5"/>
<path d="M235.351 423.684C248.41 409.981 266.327 401.951 285.246 401.323C304.165 400.695 322.575 407.518 336.514 420.325L311.013 447.337C304.341 441.221 295.534 437.97 286.488 438.284C277.442 438.598 268.881 442.453 262.649 449.017C259.585 452.253 257.194 456.066 255.618 460.235C254.041 464.404 253.31 468.845 253.466 473.299C253.622 477.753 254.663 482.132 256.528 486.18C258.393 490.228 261.045 493.864 264.329 496.877L238.795 523.789C231.942 517.475 226.412 509.862 222.524 501.394C218.637 492.925 216.47 483.769 216.15 474.456C215.83 465.144 217.362 455.86 220.658 447.144C223.954 438.429 228.949 430.454 235.351 423.684Z" fill="#E0E0E0"/>
<path d="M333.591 408.715C368.869 441.355 373.152 494.389 340.143 529.398L304.311 498.505C320.085 481.79 323.512 459.464 306.629 443.858L333.591 408.715Z" fill="#EBEBEB"/>
<path d="M300.581 500.724L321.865 542.822C330.666 539.596 338.597 534.369 345.031 527.552L306.797 496.676L300.581 500.724Z" fill="#E0E0E0"/>
<path d="M380.88 112.135C380.57 93.2647 385.864 74.7267 396.091 58.8659C406.319 43.0051 421.021 30.5341 438.338 23.0306C455.654 15.5271 474.808 13.3282 493.374 16.7122C511.941 20.0962 529.087 28.911 542.642 42.0414C556.198 55.1718 565.555 72.0278 569.53 90.4771C573.504 108.926 571.917 128.14 564.969 145.687C558.022 163.234 546.026 178.326 530.499 189.055C514.972 199.783 496.613 205.665 477.742 205.956C452.469 206.316 428.083 196.643 409.927 179.058C391.772 161.472 381.326 137.407 380.88 112.135ZM521.873 109.867C521.726 100.848 518.907 92.0752 513.775 84.6579C508.642 77.2407 501.425 71.512 493.036 68.1962C484.648 64.8804 475.464 64.1264 466.647 66.0296C457.83 67.9327 449.775 72.4075 443.501 78.8882C437.227 85.3689 433.016 93.5644 431.4 102.438C429.783 111.313 430.834 120.467 434.42 128.743C438.006 137.02 443.966 144.048 451.545 148.937C459.125 153.827 467.984 156.36 477.003 156.215C489.096 156.007 500.612 151.01 509.024 142.321C517.436 133.631 522.057 121.96 521.873 109.867Z" fill="#FAFAFA"/>
<path d="M380.881 112.133C380.499 86.8428 390.167 62.434 407.764 44.2645C425.36 26.095 449.446 15.6495 474.736 15.2207L475.543 64.9958C463.446 65.1896 451.923 70.1807 443.506 78.871C435.09 87.5614 430.471 99.2392 430.664 111.335C430.858 123.432 435.849 134.956 444.54 143.372C453.23 151.788 464.908 156.407 477.004 156.214L477.743 205.955C452.467 206.324 428.076 196.654 409.919 179.066C391.761 161.479 381.319 137.409 380.881 112.133Z" fill="#E0E0E0"/>
<path d="M466.169 7.55819C527.703 6.56705 576.806 54.1079 577.781 115.642L519.539 116.583C519.069 87.1512 496.575 68.6221 467.16 69.1093L466.169 7.55819Z" fill="#F0F0F0"/>
<path d="M578.538 679.563C578.538 679.798 452.932 680 297.996 680C143.06 680 17.4551 679.798 17.4551 679.563C17.4551 679.328 143.027 679.109 297.996 679.109C452.966 679.109 578.538 679.311 578.538 679.563Z" fill="#263238"/>
<path d="M189.594 446.631L500.877 444.396V448.764L189.594 451.553V446.631Z" fill="#263238"/>
<path d="M182.807 130.156L189.896 449.234L500.877 446.814V124.797L182.807 130.156Z" fill="white"/>
<path d="M182.807 130.154L500.877 124.426H501.264V124.812C501.264 216.988 501.264 325.76 501.264 441.807V447.267H500.827L189.846 449.635H189.476V449.266C185.461 258.027 182.841 133.447 182.757 130.171C182.757 133.396 185.747 258.027 190.216 449.232L189.846 448.862L500.827 446.393L500.39 446.83V441.79C500.39 325.744 500.39 216.971 500.39 124.795L500.776 125.182L182.807 130.154Z" fill="#263238"/>
<path d="M181.564 132.289L502.238 130.458L502.641 117.002L181.564 119.001V132.289Z" fill="#263238"/>
<path d="M335.073 457.935C334.535 457.935 333.964 455.432 333.813 452.308C333.662 449.183 333.997 446.63 334.535 446.596C335.073 446.562 335.644 449.082 335.795 452.207C335.946 455.331 335.627 457.935 335.073 457.935Z" fill="#263238"/>
<path d="M334.956 455.636C334.956 455.519 335.493 455.485 336.333 455.821C336.84 456.034 337.315 456.317 337.744 456.661C338.322 457.125 338.807 457.696 339.172 458.341C339.671 459.233 339.921 460.243 339.897 461.265C339.874 462.287 339.577 463.284 339.038 464.153C338.715 464.677 338.306 465.142 337.828 465.531C337.33 465.931 336.76 466.233 336.149 466.421C334.85 466.78 333.467 466.679 332.234 466.135C331.611 465.858 331.042 465.471 330.555 464.993C330.07 464.515 329.687 463.943 329.429 463.313C328.964 462.168 328.864 460.906 329.143 459.701C329.35 458.697 329.834 457.771 330.541 457.029C331.248 456.287 332.149 455.757 333.142 455.502C334.412 455.154 335.765 455.274 336.955 455.838C337.761 456.241 338.064 456.661 337.996 456.762C337.929 456.862 337.476 456.762 336.703 456.56C335.651 456.364 334.565 456.457 333.562 456.829C332.915 457.08 332.339 457.484 331.882 458.005C331.357 458.619 331.015 459.368 330.893 460.166C330.771 460.965 330.875 461.781 331.193 462.524C331.559 463.322 332.213 463.952 333.024 464.288C333.831 464.649 334.737 464.726 335.594 464.506C336.382 464.302 337.065 463.811 337.509 463.128C337.947 462.485 338.208 461.738 338.265 460.961C338.316 460.61 338.316 460.254 338.265 459.903C338.21 459.573 338.114 459.252 337.98 458.946C337.549 457.957 336.872 457.095 336.014 456.442C335.393 456.006 334.956 455.771 334.956 455.636Z" fill="#263238"/>
<path d="M381.219 304.764C381.219 304.764 381.219 304.764 381.018 304.764H380.447L378.229 304.865L369.679 305.235L338.231 306.411C311.672 307.385 274.967 308.678 234.448 310.073L220.505 310.543H220.185V310.224C217.363 273.149 214.81 239.921 213.046 216.033C212.172 204.105 211.484 194.513 210.996 187.911C210.778 184.552 210.593 182.049 210.476 180.318C210.476 179.445 210.375 178.79 210.358 178.336C210.341 177.882 210.358 177.95 210.358 177.832C210.358 177.714 210.358 177.664 210.358 177.664C210.366 177.72 210.366 177.776 210.358 177.832C210.358 177.95 210.358 178.118 210.358 178.336C210.358 178.554 210.459 179.445 210.543 180.301C210.677 181.981 210.896 184.585 211.181 187.895C211.702 194.497 212.475 204.089 213.432 215.982C215.314 239.803 217.901 272.947 220.757 310.174L220.421 309.871L234.364 309.384C274.883 308.007 311.638 306.78 338.147 305.94L369.611 304.966L378.162 304.731H380.379H381.152L381.219 304.764Z" fill="#455A64"/>
<path d="M268.617 167.332V171.616L312.933 169.499V165.904L268.617 167.332Z" fill="#263238"/>
<path d="M235.069 301.101H250.473L248.054 259.289H232.952L235.069 301.101Z" fill="#00BE9B"/>
<path d="M262.989 301.119H278.377L275.974 242.676H260.872L262.989 301.119Z" fill="#00BE9B"/>
<path d="M289.127 299.255H304.532L302.113 222.736H287.027L289.127 299.255Z" fill="#00BE9B"/>
<path d="M349.099 296.282H364.487L362.085 191.994H346.982L349.099 296.282Z" fill="#00BE9B"/>
<path d="M319.92 296.632H335.308L332.889 206.893H317.804L319.92 296.632Z" fill="#00BE9B"/>
<path d="M225.393 248.455C224.99 247.833 252.506 229.489 286.827 207.482C321.147 185.476 349.335 168.139 349.738 168.845C350.141 169.551 322.625 187.811 288.288 209.817C253.951 231.824 225.763 249.076 225.393 248.455Z" fill="#00BE9B"/>
<path d="M334.501 168.775C334.367 168.035 344.329 165.549 356.793 163.197L359.952 162.609L358.154 165.28L358.053 165.432C350.931 176.015 344.614 184.263 344.026 183.91C343.438 183.558 348.696 174.587 355.785 163.987L355.886 163.836L357.264 165.919C344.816 168.187 334.636 169.497 334.501 168.775Z" fill="#00BE9B"/>
<path d="M232.952 315.227H249.045L249.549 318.082H232.952V315.227Z" fill="#263238"/>
<path d="M261.443 314.055H277.537L278.041 316.91H261.443V314.055Z" fill="#263238"/>
<path d="M290.773 313.211H306.867L307.371 316.067H290.773V313.211Z" fill="#263238"/>
<path d="M318.257 312.523H334.35L334.854 315.396H318.257V312.523Z" fill="#263238"/>
<path d="M352.309 311.518H368.402L368.906 314.39H352.309V311.518Z" fill="#263238"/>
<path d="M424.493 425.381C452.864 425.381 475.864 402.381 475.864 374.01C475.864 345.638 452.864 322.639 424.493 322.639C396.122 322.639 373.122 345.638 373.122 374.01C373.122 402.381 396.122 425.381 424.493 425.381Z" fill="#00BE9B"/>
<path opacity="0.3" d="M424.493 425.381C452.864 425.381 475.864 402.381 475.864 374.01C475.864 345.638 452.864 322.639 424.493 322.639C396.122 322.639 373.122 345.638 373.122 374.01C373.122 402.381 396.122 425.381 424.493 425.381Z" fill="black"/>
<path d="M424.493 373.941L374.382 385.213C366.318 348.256 396.119 322.57 424.493 322.57" fill="#00BE9B"/>
<path d="M424.56 373.941L424.224 322.57C462.055 322.57 480.802 357.159 474.755 384.877L424.56 373.941Z" fill="#00BE9B"/>
<path d="M424.56 373.941L424.224 322.57C462.055 322.57 480.802 357.159 474.755 384.877L424.56 373.941Z" fill="#00BE9B"/>
<path opacity="0.1" d="M424.56 373.941L424.224 322.57C462.055 322.57 480.802 357.159 474.755 384.877L424.56 373.941Z" fill="black"/>
<path d="M477.19 252.366C476.192 251.699 475.128 251.136 474.015 250.686C470.912 249.737 467.584 249.831 464.54 250.955C460.61 252.181 456.712 255.306 452.932 259.22C449.153 263.134 445.104 267.871 439.191 270.643C436.338 272.061 433.126 272.593 429.968 272.172C427.119 271.581 424.366 270.597 421.787 269.249C419.517 268.067 417.091 267.213 414.581 266.712C412.397 266.369 410.162 266.649 408.13 267.518C405.14 268.787 402.694 271.072 401.226 273.969C400.753 275.058 400.366 276.181 400.066 277.329C400.119 276.114 400.41 274.921 400.923 273.818C402.33 270.759 404.802 268.317 407.878 266.947C409.985 266.009 412.312 265.678 414.597 265.99C417.191 266.471 419.702 267.319 422.056 268.51C424.568 269.813 427.247 270.762 430.019 271.332C433.007 271.704 436.039 271.19 438.737 269.853C444.415 267.199 448.397 262.495 452.277 258.649C456.158 254.802 460.173 251.559 464.255 250.367C467.426 249.261 470.878 249.261 474.049 250.367C474.895 250.693 475.692 251.134 476.417 251.677C476.702 251.874 476.962 252.105 477.19 252.366Z" fill="#263238"/>
<path d="M481.541 285.562C481.541 285.814 463.297 285.999 440.804 285.999C418.31 285.999 400.066 285.814 400.066 285.562C400.066 285.31 418.31 285.125 440.804 285.125C463.297 285.125 481.541 285.327 481.541 285.562Z" fill="#263238"/>
<path d="M477.006 285.559C476.771 285.559 476.569 275.178 476.569 262.36C476.569 249.543 476.771 239.178 477.006 239.178C477.241 239.178 477.443 249.559 477.443 262.36C477.443 275.161 477.258 285.559 477.006 285.559Z" fill="#263238"/>
<path d="M408.281 266.025C408.281 266.025 408.163 265.857 408.281 265.554C408.358 265.342 408.481 265.149 408.64 264.99C408.8 264.83 408.993 264.707 409.205 264.63C409.524 264.489 409.876 264.438 410.223 264.482C410.569 264.527 410.897 264.665 411.17 264.882C411.466 265.214 411.641 265.637 411.666 266.081C411.69 266.526 411.564 266.965 411.306 267.328C411.049 267.691 410.676 267.955 410.248 268.079C409.821 268.202 409.364 268.177 408.953 268.007C408.664 267.834 408.426 267.587 408.263 267.292C408.101 266.997 408.02 266.664 408.029 266.327C408.025 266.103 408.067 265.881 408.15 265.673C408.234 265.465 408.358 265.276 408.516 265.117C408.768 264.916 408.953 264.916 408.97 264.949C408.987 264.983 408.516 265.437 408.634 266.293C408.657 266.514 408.732 266.726 408.851 266.912C408.971 267.099 409.132 267.255 409.322 267.369C409.558 267.428 409.806 267.415 410.034 267.331C410.263 267.248 410.46 267.097 410.602 266.9C410.743 266.702 410.822 266.466 410.827 266.223C410.833 265.98 410.765 265.741 410.633 265.537C410.464 265.399 410.264 265.304 410.051 265.26C409.837 265.216 409.616 265.225 409.407 265.285C408.55 265.42 408.399 266.058 408.281 266.025Z" fill="#263238"/>
<path d="M463.214 249.177C463.214 249.177 463.214 248.976 463.517 248.808C463.907 248.611 464.359 248.575 464.777 248.707C465.108 248.797 465.409 248.976 465.645 249.225C465.882 249.474 466.047 249.782 466.12 250.118C466.146 250.551 466.025 250.98 465.777 251.337C465.529 251.693 465.169 251.955 464.754 252.081C464.338 252.207 463.893 252.19 463.488 252.032C463.084 251.874 462.745 251.584 462.526 251.21C462.404 250.886 462.373 250.535 462.435 250.195C462.498 249.855 462.651 249.538 462.878 249.278C463.162 248.942 463.566 248.731 464.004 248.69C464.306 248.69 464.457 248.791 464.441 248.841C464.424 248.892 463.802 248.925 463.382 249.648C463.266 249.828 463.193 250.032 463.17 250.245C463.147 250.458 463.173 250.673 463.248 250.874C463.396 251.055 463.594 251.188 463.818 251.256C464.042 251.324 464.281 251.324 464.504 251.256C464.728 251.187 464.926 251.053 465.073 250.872C465.22 250.69 465.31 250.469 465.331 250.236C465.286 250.026 465.193 249.831 465.059 249.664C464.925 249.498 464.753 249.366 464.558 249.278C463.819 248.908 463.298 249.295 463.214 249.177Z" fill="#263238"/>
<path d="M475.561 194.193C475.561 194.428 457.888 194.629 436.1 194.629C414.312 194.629 396.64 194.428 396.64 194.193C396.64 193.957 414.295 193.756 436.1 193.756C457.905 193.756 475.561 193.991 475.561 194.193Z" fill="#263238"/>
<path d="M475.561 205.197C475.561 205.449 457.888 205.633 436.1 205.633C414.312 205.633 396.64 205.449 396.64 205.197C396.64 204.945 414.295 204.76 436.1 204.76C457.905 204.76 475.561 204.961 475.561 205.197Z" fill="#263238"/>
<path d="M475.561 216.165C475.561 216.4 457.888 216.602 436.1 216.602C414.312 216.602 396.64 216.4 396.64 216.165C396.64 215.93 414.295 215.729 436.1 215.729C457.905 215.729 475.561 215.913 475.561 216.165Z" fill="#263238"/>
<path d="M475.561 227.118C475.561 227.37 457.888 227.555 436.1 227.555C414.312 227.555 396.64 227.37 396.64 227.118C396.64 226.866 414.295 226.682 436.1 226.682C457.905 226.682 475.561 226.883 475.561 227.118Z" fill="#263238"/>
<path d="M438.637 174.186H396.64V177.73H438.637V174.186Z" fill="#263238"/>
<path d="M265.273 350.172H223.275V353.716H265.273V350.172Z" fill="#263238"/>
<path d="M338.197 370.716C338.197 370.968 312.713 371.153 281.282 371.153C249.851 371.153 224.351 370.968 224.351 370.716C224.351 370.464 249.834 370.279 281.282 370.279C312.729 370.279 338.197 370.481 338.197 370.716Z" fill="#263238"/>
<path d="M338.869 380.661C338.869 380.897 312.932 381.098 280.947 381.098C248.962 381.098 223.024 380.897 223.024 380.661C223.024 380.426 248.945 380.225 280.947 380.225C312.949 380.225 338.869 380.46 338.869 380.661Z" fill="#263238"/>
<path d="M340.196 390.034C340.196 390.27 314.107 390.471 281.937 390.471C249.767 390.471 223.679 390.27 223.679 390.034C223.679 389.799 249.767 389.598 281.937 389.598C314.107 389.598 340.196 389.782 340.196 390.034Z" fill="#263238"/>
<path d="M284.272 400.011C284.272 400.246 270.833 400.448 254.303 400.448C237.773 400.448 224.351 400.246 224.351 400.011C224.351 399.776 237.79 399.574 254.303 399.574C270.816 399.574 284.272 399.776 284.272 400.011Z" fill="#263238"/>
<path d="M101.331 671.955V656.836L72.8905 656.584L72.6553 678.809L74.3352 678.926C82.1802 679.414 114.249 680.842 119.507 679.296C125.454 677.549 101.331 671.955 101.331 671.955Z" fill="#00BE9B"/>
<path d="M120.262 677.901C120.262 678.17 109.629 678.388 96.5087 678.388C83.3888 678.388 72.7383 678.17 72.7383 677.901C72.7383 677.632 83.3888 677.414 96.5087 677.414C109.629 677.414 120.262 677.632 120.262 677.901Z" fill="#263238"/>
<path d="M101.835 675.064C101.599 674.93 101.835 674.107 102.406 673.384C102.977 672.662 103.766 672.191 103.934 672.376C104.102 672.561 103.733 673.25 103.178 674.056C102.624 674.862 102.07 675.198 101.835 675.064Z" fill="#263238"/>
<path d="M103.649 676.054C103.397 675.953 103.532 675.046 104.086 674.106C104.641 673.165 105.38 672.594 105.581 672.762C105.783 672.93 105.447 673.719 104.926 674.593C104.405 675.466 103.901 676.155 103.649 676.054Z" fill="#263238"/>
<path d="M81.2902 677.801C81.1726 677.885 80.7358 677.482 80.1142 676.81C79.3577 675.932 78.5196 675.128 77.6112 674.408C76.7053 673.742 75.6496 673.31 74.537 673.148C73.6803 673.031 73.1259 673.148 73.0755 673.014C73.0251 672.879 73.5627 672.527 74.5538 672.459C75.86 672.422 77.1399 672.831 78.1824 673.619C79.1761 674.38 80.0192 675.32 80.6686 676.39C81.1894 677.18 81.4246 677.717 81.2902 677.801Z" fill="#263238"/>
<path d="M101.918 672.207C102.053 672.426 101.549 672.963 100.742 673.249C99.9361 673.534 99.2138 673.434 99.1802 673.165C99.1466 672.896 99.7009 672.594 100.423 672.342C101.146 672.09 101.767 671.972 101.918 672.207Z" fill="#263238"/>
<path d="M101.45 670.73C101.45 670.999 100.71 671.234 99.7697 671.251C98.829 671.268 98.0898 671.049 98.0898 670.78C98.0898 670.512 98.8626 670.293 99.7697 670.276C100.677 670.26 101.45 670.461 101.45 670.73Z" fill="#00BE9B"/>
<path d="M120.262 677.901C120.262 678.17 109.629 678.388 96.5087 678.388C83.3888 678.388 72.7383 678.17 72.7383 677.901C72.7383 677.632 83.3888 677.414 96.5087 677.414C109.629 677.414 120.262 677.632 120.262 677.901Z" fill="#263238"/>
<path d="M101.835 675.064C101.599 674.93 101.835 674.107 102.406 673.384C102.977 672.662 103.766 672.191 103.934 672.376C104.102 672.561 103.733 673.25 103.178 674.056C102.624 674.862 102.07 675.198 101.835 675.064Z" fill="#263238"/>
<path d="M103.649 676.054C103.397 675.953 103.532 675.046 104.086 674.106C104.641 673.165 105.38 672.594 105.581 672.762C105.783 672.93 105.447 673.719 104.926 674.593C104.405 675.466 103.901 676.155 103.649 676.054Z" fill="#263238"/>
<path d="M81.2902 677.801C81.1726 677.885 80.7358 677.482 80.1142 676.81C79.3577 675.932 78.5196 675.128 77.6112 674.408C76.7053 673.742 75.6496 673.31 74.537 673.148C73.6803 673.031 73.1259 673.148 73.0755 673.014C73.0251 672.879 73.5627 672.527 74.5538 672.459C75.86 672.422 77.1399 672.831 78.1824 673.619C79.1761 674.38 80.0192 675.32 80.6686 676.39C81.1894 677.18 81.4246 677.717 81.2902 677.801Z" fill="#263238"/>
<path d="M101.918 672.207C102.053 672.426 101.549 672.963 100.742 673.249C99.9361 673.534 99.2138 673.434 99.1802 673.165C99.1466 672.896 99.7009 672.594 100.423 672.342C101.146 672.09 101.767 671.972 101.918 672.207Z" fill="#263238"/>
<path d="M101.45 670.73C101.45 670.999 100.71 671.234 99.7697 671.251C98.829 671.268 98.0898 671.049 98.0898 670.78C98.0898 670.512 98.8626 670.293 99.7697 670.276C100.677 670.26 101.45 670.461 101.45 670.73Z" fill="#263238"/>
<path d="M131.333 666.579L135.818 652.081L108.705 643.48L101.985 664.63L103.665 665.269C111.006 668.057 141.228 678.909 146.704 678.993C152.718 679.06 131.333 666.579 131.333 666.579Z" fill="#00BE9B"/>
<path d="M147.663 677.851C147.663 678.12 137.348 675.18 124.816 671.283C112.284 667.385 102.188 664.042 102.272 663.79C102.356 663.538 112.57 666.478 125.118 670.359C137.667 674.239 147.747 677.599 147.663 677.851Z" fill="#263238"/>
<path d="M130.897 669.685C130.712 669.484 131.149 668.778 131.955 668.19C132.761 667.602 133.635 667.451 133.719 667.686C133.803 667.921 133.265 668.459 132.526 668.996C131.787 669.534 131.081 669.87 130.897 669.685Z" fill="#263238"/>
<path d="M132.325 671.183C132.124 671.015 132.51 670.175 133.333 669.503C134.156 668.831 135.013 668.444 135.164 668.663C135.315 668.881 134.744 669.536 133.988 670.225C133.232 670.914 132.543 671.283 132.325 671.183Z" fill="#263238"/>
<path d="M110.485 666.244C110.351 666.244 110.065 665.791 109.679 664.951C109.218 663.891 108.655 662.879 107.999 661.927C107.332 661.025 106.456 660.298 105.446 659.81C104.656 659.458 104.085 659.39 104.085 659.256C104.085 659.122 104.69 658.92 105.664 659.155C106.917 659.511 108.013 660.281 108.772 661.339C109.491 662.355 110.02 663.494 110.334 664.699C110.553 665.606 110.603 666.244 110.485 666.244Z" fill="#455A64"/>
<path d="M131.822 666.982C131.822 667.234 131.251 667.604 130.394 667.638C129.537 667.671 128.865 667.352 128.916 667.083C128.966 666.814 129.605 666.697 130.36 666.663C131.116 666.63 131.688 666.714 131.822 666.982Z" fill="#263238"/>
<path d="M131.821 665.453C131.821 665.705 130.981 665.705 130.057 665.453C129.133 665.201 128.478 664.747 128.562 664.495C128.646 664.243 129.452 664.26 130.326 664.495C131.199 664.73 131.888 665.184 131.821 665.453Z" fill="#263238"/>
<path d="M150.635 371.642L113.308 368.77L56.7627 364.184L63.0791 667.924L112.182 667.286C112.182 667.286 112.182 663.926 112.065 657.979L140.858 665.858C140.858 665.858 168.912 571.079 178.471 532.189C186.45 499.784 150.635 371.642 150.635 371.642ZM111.527 610.808C110.788 540.689 109.931 421.451 110.956 406.87C110.956 406.87 138.304 511.846 138.556 520.128C138.724 525.134 123.488 573.582 111.527 610.808Z" fill="#455A64"/>
<path d="M112.452 655.778C112.452 656.047 101.466 656.265 87.926 656.265C74.3861 656.265 63.3828 656.047 63.3828 655.778C63.3828 655.509 74.3693 655.291 87.926 655.291C101.483 655.291 112.452 655.509 112.452 655.778Z" fill="#455A64"/>
<path d="M112.014 644.857C113.55 645.221 115.055 645.705 116.516 646.302L127.754 650.216L138.993 654.147C140.582 654.602 142.124 655.209 143.596 655.962C141.955 655.733 140.34 655.345 138.774 654.802C135.851 653.946 131.836 652.669 127.435 651.14C123.034 649.612 119.036 648.1 116.281 646.941C114.769 646.447 113.333 645.746 112.014 644.857Z" fill="#455A64"/>
<path d="M157.002 519.184C153.965 519.892 150.864 520.286 147.746 520.36C144.654 520.755 141.53 520.828 138.423 520.579C141.458 519.858 144.56 519.459 147.679 519.386C150.771 518.992 153.896 518.924 157.002 519.184Z" fill="#455A64"/>
<path d="M153.794 524.697C151.379 524.493 149.002 523.973 146.722 523.151C144.349 522.633 142.056 521.803 139.901 520.682C142.323 520.865 144.708 521.38 146.99 522.21C150.821 523.319 153.878 524.428 153.794 524.697Z" fill="#455A64"/>
<path d="M115.476 369.156C115.702 371.074 115.786 373.005 115.728 374.935C115.728 378.513 115.728 383.452 115.728 388.912C115.728 391.616 115.728 394.203 115.627 396.589C115.689 398.738 115.288 400.875 114.451 402.855C113.856 404.204 112.903 405.366 111.696 406.215C111.285 406.556 110.794 406.787 110.269 406.887C110.269 406.887 110.739 406.584 111.495 405.946C112.556 405.037 113.38 403.884 113.897 402.586C114.598 400.662 114.912 398.618 114.821 396.572C114.821 394.17 114.821 391.532 114.821 388.878C114.821 383.419 114.955 378.48 115.056 374.918C115.051 372.99 115.191 371.064 115.476 369.156Z" fill="#455A64"/>
<path d="M87.3715 367.443C87.3895 367.689 87.3895 367.936 87.3715 368.183C87.3715 368.72 87.3715 369.442 87.3715 370.366C87.3715 372.315 87.2203 375.137 87.1027 378.766C86.8675 386.073 86.5315 396.573 86.1115 409.525C85.322 435.496 84.5156 471.395 84.3141 511.023C84.1125 550.652 84.566 586.618 85.0868 612.573C85.3724 625.524 85.5908 636.091 85.7588 643.331C85.7588 646.943 85.8931 649.748 85.9435 651.731C85.9435 652.655 85.9435 653.411 85.9435 653.915C85.9616 654.161 85.9616 654.408 85.9435 654.654C85.9254 654.408 85.9254 654.161 85.9435 653.915C85.9435 653.394 85.9435 652.671 85.8259 651.748C85.8259 649.782 85.6412 646.977 85.49 643.348C85.2044 636.091 84.8684 625.575 84.5324 612.589C83.8437 586.601 83.3061 550.702 83.5077 511.023C83.7093 471.344 84.6164 435.428 85.5572 409.508C86.0275 396.522 86.4643 385.989 86.8339 378.749C87.0187 375.154 87.1699 372.349 87.2706 370.35C87.2706 369.426 87.3714 368.67 87.405 368.166C87.3766 367.926 87.3653 367.685 87.3715 367.443Z" fill="#455A64"/>
<path d="M138.405 375.084C138.507 375.307 138.591 375.537 138.657 375.773C138.808 376.277 139.026 376.949 139.295 377.822C139.833 379.62 140.689 382.274 141.63 385.734C143.562 392.639 146.166 402.668 149.072 415.149C151.978 427.631 155.204 442.515 158.563 459.112C161.923 475.709 165.468 493.986 168.643 513.272C169.046 515.691 169.416 518.093 169.735 520.495C169.735 521.133 169.852 521.789 169.852 522.41L169.55 524.191C169.332 525.384 169.164 526.576 168.895 527.735C167.937 532.405 166.862 536.975 165.703 541.443C163.418 550.38 160.999 558.931 158.614 567.062C153.877 583.323 149.307 597.871 145.427 610.083C141.546 622.296 138.304 632.124 136.019 638.91L133.365 646.722L132.643 648.754C132.58 648.988 132.49 649.214 132.374 649.426C132.418 649.187 132.48 648.951 132.559 648.721C132.727 648.217 132.928 647.545 133.197 646.671L135.7 638.81L144.839 609.899C148.635 597.669 153.137 583.104 157.841 566.843C160.193 558.712 162.595 550.145 164.88 541.225C166.022 536.773 167.097 532.221 168.055 527.567C168.324 526.408 168.475 525.232 168.676 524.056L168.979 522.293C168.979 521.721 168.895 521.167 168.861 520.613C168.542 518.244 168.189 515.842 167.786 513.44C164.594 494.171 161.067 475.894 157.707 459.297C154.347 442.699 151.306 427.698 148.484 415.284C145.662 402.869 143.125 392.74 141.294 385.818C140.421 382.358 139.614 379.687 139.127 377.873L138.573 375.806C138.49 375.572 138.434 375.33 138.405 375.084Z" fill="#455A64"/>
<path d="M111.377 604.641C111.512 605.422 111.562 606.217 111.528 607.009C111.528 608.689 111.528 610.89 111.612 613.494C111.612 619.121 111.813 626.597 111.931 634.845C112.048 643.093 112.368 650.569 112.519 656.196C112.519 658.8 112.653 660.984 112.704 662.681C112.78 663.468 112.78 664.262 112.704 665.049C112.518 664.279 112.417 663.49 112.401 662.698C112.267 661.169 112.116 658.968 111.948 656.23C111.612 650.77 111.293 643.211 111.108 634.862C110.923 626.513 110.957 618.953 111.108 613.494C111.108 610.755 111.225 608.454 111.293 607.009C111.259 606.219 111.287 605.427 111.377 604.641Z" fill="#455A64"/>
<path d="M150.635 371.642L113.308 368.77L56.7627 364.184L63.0791 667.924L112.182 667.286C112.182 667.286 112.182 663.926 112.065 657.979L140.858 665.858C140.858 665.858 168.912 571.079 178.471 532.189C186.45 499.784 150.635 371.642 150.635 371.642ZM111.527 610.808C110.788 540.689 109.931 421.451 110.956 406.87C110.956 406.87 138.304 511.846 138.556 520.128C138.724 525.134 123.488 573.582 111.527 610.808Z" fill="#263238"/>
<path d="M112.452 655.778C112.452 656.047 101.466 656.265 87.926 656.265C74.3861 656.265 63.3828 656.047 63.3828 655.778C63.3828 655.509 74.3693 655.291 87.926 655.291C101.483 655.291 112.452 655.509 112.452 655.778Z" fill="#455A64"/>
<path d="M112.014 644.857C113.55 645.221 115.055 645.705 116.516 646.302L127.754 650.216L138.993 654.147C140.582 654.602 142.124 655.209 143.596 655.962C141.955 655.733 140.34 655.345 138.774 654.802C135.851 653.946 131.836 652.669 127.435 651.14C123.034 649.612 119.036 648.1 116.281 646.941C114.769 646.447 113.333 645.746 112.014 644.857Z" fill="#455A64"/>
<path d="M157.002 519.184C153.965 519.892 150.864 520.286 147.746 520.36C144.654 520.755 141.53 520.828 138.423 520.579C141.458 519.858 144.56 519.459 147.679 519.386C150.771 518.992 153.896 518.924 157.002 519.184Z" fill="#455A64"/>
<path d="M153.794 524.697C151.379 524.493 149.002 523.973 146.722 523.151C144.349 522.633 142.056 521.803 139.901 520.682C142.323 520.865 144.708 521.38 146.99 522.21C150.821 523.319 153.878 524.428 153.794 524.697Z" fill="#455A64"/>
<path d="M115.476 369.156C115.702 371.074 115.786 373.005 115.728 374.935C115.728 378.513 115.728 383.452 115.728 388.912C115.728 391.616 115.728 394.203 115.627 396.589C115.689 398.738 115.288 400.875 114.451 402.855C113.856 404.204 112.903 405.366 111.696 406.215C111.285 406.556 110.794 406.787 110.269 406.887C110.269 406.887 110.739 406.584 111.495 405.946C112.556 405.037 113.38 403.884 113.897 402.586C114.598 400.662 114.912 398.618 114.821 396.572C114.821 394.17 114.821 391.532 114.821 388.878C114.821 383.419 114.955 378.48 115.056 374.918C115.051 372.99 115.191 371.064 115.476 369.156Z" fill="#455A64"/>
<path d="M87.3715 367.443C87.3895 367.689 87.3895 367.936 87.3715 368.183C87.3715 368.72 87.3715 369.442 87.3715 370.366C87.3715 372.315 87.2203 375.137 87.1027 378.766C86.8675 386.073 86.5315 396.573 86.1115 409.525C85.322 435.496 84.5156 471.395 84.3141 511.023C84.1125 550.652 84.566 586.618 85.0868 612.573C85.3724 625.524 85.5908 636.091 85.7588 643.331C85.7588 646.943 85.8931 649.748 85.9435 651.731C85.9435 652.655 85.9435 653.411 85.9435 653.915C85.9616 654.161 85.9616 654.408 85.9435 654.654C85.9254 654.408 85.9254 654.161 85.9435 653.915C85.9435 653.394 85.9435 652.671 85.8259 651.748C85.8259 649.782 85.6412 646.977 85.49 643.348C85.2044 636.091 84.8684 625.575 84.5324 612.589C83.8437 586.601 83.3061 550.702 83.5077 511.023C83.7093 471.344 84.6164 435.428 85.5572 409.508C86.0275 396.522 86.4643 385.989 86.8339 378.749C87.0187 375.154 87.1699 372.349 87.2706 370.35C87.2706 369.426 87.3714 368.67 87.405 368.166C87.3766 367.926 87.3653 367.685 87.3715 367.443Z" fill="#455A64"/>
<path d="M138.405 375.084C138.507 375.307 138.591 375.537 138.657 375.773C138.808 376.277 139.026 376.949 139.295 377.822C139.833 379.62 140.689 382.274 141.63 385.734C143.562 392.639 146.166 402.668 149.072 415.149C151.978 427.631 155.204 442.515 158.563 459.112C161.923 475.709 165.468 493.986 168.643 513.272C169.046 515.691 169.416 518.093 169.735 520.495C169.735 521.133 169.852 521.789 169.852 522.41L169.55 524.191C169.332 525.384 169.164 526.576 168.895 527.735C167.937 532.405 166.862 536.975 165.703 541.443C163.418 550.38 160.999 558.931 158.614 567.062C153.877 583.323 149.307 597.871 145.427 610.083C141.546 622.296 138.304 632.124 136.019 638.91L133.365 646.722L132.643 648.754C132.58 648.988 132.49 649.214 132.374 649.426C132.418 649.187 132.48 648.951 132.559 648.721C132.727 648.217 132.928 647.545 133.197 646.671L135.7 638.81L144.839 609.899C148.635 597.669 153.137 583.104 157.841 566.843C160.193 558.712 162.595 550.145 164.88 541.225C166.022 536.773 167.097 532.221 168.055 527.567C168.324 526.408 168.475 525.232 168.676 524.056L168.979 522.293C168.979 521.721 168.895 521.167 168.861 520.613C168.542 518.244 168.189 515.842 167.786 513.44C164.594 494.171 161.067 475.894 157.707 459.297C154.347 442.699 151.306 427.698 148.484 415.284C145.662 402.869 143.125 392.74 141.294 385.818C140.421 382.358 139.614 379.687 139.127 377.873L138.573 375.806C138.49 375.572 138.434 375.33 138.405 375.084Z" fill="#455A64"/>
<path d="M111.377 604.641C111.512 605.422 111.562 606.217 111.528 607.009C111.528 608.689 111.528 610.89 111.612 613.494C111.612 619.121 111.813 626.597 111.931 634.845C112.048 643.093 112.368 650.569 112.519 656.196C112.519 658.8 112.653 660.984 112.704 662.681C112.78 663.468 112.78 664.262 112.704 665.049C112.518 664.279 112.417 663.49 112.401 662.698C112.267 661.169 112.116 658.968 111.948 656.23C111.612 650.77 111.293 643.211 111.108 634.862C110.923 626.513 110.957 618.953 111.108 613.494C111.108 610.755 111.225 608.454 111.293 607.009C111.259 606.219 111.287 605.427 111.377 604.641Z" fill="#455A64"/>
<path d="M86.3299 225.862L114.888 227.978C115.274 224.619 115.829 211.835 115.829 211.835C115.829 211.835 127.739 210.743 128.613 198.95C129.486 187.157 129.117 159.926 129.117 159.926C122.588 156.626 115.295 155.131 107.994 155.594C100.693 156.058 93.649 158.464 87.5899 162.564L85.7588 163.807L86.3299 225.862Z" fill="#FFE3CA"/>
<path d="M125.051 180.034C124.825 179.796 124.673 179.497 124.615 179.173C124.557 178.85 124.595 178.516 124.725 178.214C124.855 177.913 125.07 177.655 125.344 177.474C125.619 177.294 125.94 177.197 126.269 177.197C126.597 177.197 126.919 177.294 127.193 177.474C127.467 177.655 127.683 177.913 127.812 178.214C127.942 178.516 127.98 178.85 127.922 179.173C127.864 179.497 127.713 179.796 127.487 180.034C127.33 180.199 127.141 180.331 126.931 180.421C126.722 180.511 126.497 180.557 126.269 180.557C126.041 180.557 125.815 180.511 125.606 180.421C125.397 180.331 125.208 180.199 125.051 180.034Z" fill="#263238"/>
<path d="M128.075 177.514C127.873 177.716 126.781 176.758 125.152 176.64C123.522 176.523 122.296 177.296 122.128 177.077C121.96 176.859 122.246 176.624 122.8 176.271C123.515 175.801 124.367 175.588 125.219 175.666C126.077 175.717 126.893 176.054 127.537 176.624C128.024 177.044 128.176 177.396 128.075 177.514Z" fill="#263238"/>
<path d="M109.261 177.782C109.527 177.977 109.73 178.245 109.844 178.554C109.959 178.862 109.981 179.198 109.906 179.519C109.831 179.84 109.664 180.132 109.425 180.358C109.186 180.585 108.885 180.736 108.561 180.793C108.237 180.85 107.902 180.811 107.6 180.68C107.298 180.548 107.041 180.331 106.862 180.055C106.682 179.779 106.587 179.456 106.59 179.127C106.592 178.797 106.691 178.476 106.875 178.202C107.001 178.015 107.164 177.854 107.354 177.731C107.543 177.607 107.756 177.524 107.978 177.484C108.201 177.445 108.43 177.451 108.65 177.503C108.87 177.554 109.078 177.649 109.261 177.782Z" fill="#263238"/>
<path d="M110.336 177.869C110.134 178.053 109.042 177.096 107.413 176.978C105.783 176.861 104.557 177.65 104.389 177.432C104.221 177.213 104.506 176.961 105.044 176.609C105.772 176.156 106.625 175.945 107.48 176.004C108.335 176.066 109.148 176.402 109.798 176.961C110.285 177.398 110.436 177.785 110.336 177.869Z" fill="#263238"/>
<path d="M116.029 191.674C116.889 191.409 117.784 191.278 118.684 191.288C119.12 191.288 119.473 191.204 119.523 190.969C119.566 190.535 119.484 190.098 119.288 189.709L118.213 186.349C117.179 183.477 116.419 180.512 115.945 177.496C117.247 180.254 118.287 183.128 119.053 186.08L120.061 189.44C120.304 189.996 120.351 190.618 120.195 191.204C120.125 191.361 120.018 191.5 119.884 191.608C119.749 191.716 119.591 191.79 119.423 191.826C119.183 191.857 118.94 191.857 118.7 191.826C117.808 191.918 116.906 191.867 116.029 191.674Z" fill="#263238"/>
<path d="M110.637 193.139C108.957 192.03 115.139 195.91 118.465 195.961C117.861 196.779 116.996 197.368 116.013 197.631C115.03 197.893 113.987 197.814 113.056 197.406C109.595 195.877 110.637 193.139 110.637 193.139Z" fill="white"/>
<path d="M115.761 211.666C110.306 211.435 105.043 209.588 100.642 206.357C100.642 206.357 103.749 215.076 115.593 214.757L115.761 211.666Z" fill="#D78776"/>
<path d="M88.0097 174.272C87.741 174.171 79.2407 173.062 80.0471 183.108C80.8534 193.154 90.7312 189.004 90.7144 188.719C90.6976 188.433 88.0097 174.272 88.0097 174.272Z" fill="#FFE3CA"/>
<path d="M87.2702 185.443C87.2702 185.443 87.119 185.578 86.8335 185.746C86.4289 185.953 85.9613 186.001 85.5231 185.88C84.843 185.517 84.2705 184.981 83.8635 184.327C83.4565 183.672 83.2293 182.921 83.2049 182.151C83.1123 181.293 83.2157 180.426 83.5073 179.614C83.5745 179.293 83.7179 178.992 83.9255 178.738C84.133 178.484 84.3987 178.283 84.7 178.153C84.8984 178.089 85.1126 178.094 85.3078 178.167C85.503 178.24 85.6677 178.377 85.7751 178.556C85.9263 178.825 85.8927 179.026 85.9431 179.043C85.9935 179.06 86.1447 178.858 85.9431 178.455C85.873 178.208 85.7184 177.994 85.5063 177.85C85.2083 177.673 84.855 177.613 84.5152 177.682C84.1151 177.796 83.7506 178.01 83.4566 178.304C83.1625 178.598 82.9486 178.962 82.8353 179.362C82.473 180.262 82.3402 181.238 82.4489 182.201C82.4676 183.099 82.7521 183.97 83.2664 184.706C83.7808 185.442 84.5019 186.008 85.3384 186.334C85.6137 186.392 85.8985 186.387 86.1718 186.32C86.4451 186.253 86.6999 186.126 86.9174 185.947C87.2702 185.695 87.3206 185.46 87.2702 185.443Z" fill="#D78776"/>
<path d="M129.872 155.675C130.552 155.657 131.218 155.483 131.82 155.166C132.422 154.849 132.943 154.398 133.342 153.847C133.742 153.297 134.009 152.662 134.124 151.991C134.239 151.321 134.198 150.633 134.005 149.981C133.812 149.329 133.471 148.73 133.009 148.231C132.547 147.731 131.977 147.345 131.342 147.101C130.707 146.858 130.024 146.763 129.347 146.826C128.67 146.888 128.016 147.105 127.436 147.461C128.841 146.294 129.985 144.847 130.796 143.21C131.188 142.385 131.317 141.46 131.167 140.559C131.017 139.658 130.594 138.824 129.956 138.171C129.216 137.682 128.361 137.396 127.477 137.343C126.592 137.29 125.708 137.471 124.916 137.868C122.413 138.944 120.431 141.06 117.861 141.951C115.29 142.841 112.418 142.404 109.663 142.522C106.571 142.577 103.577 143.612 101.112 145.478C99.0115 147.129 97.652 149.546 97.3323 152.198C97.0021 151.745 96.637 151.318 96.2404 150.921C94.9338 149.362 93.1713 148.251 91.2007 147.746C91.0831 147.965 93.3846 149.241 95.5852 151.526C96.1843 152.099 96.7455 152.711 97.2651 153.357C93.435 152.887 89.2184 152.853 86.1946 155.238C84.9697 156.33 84.0015 157.68 83.3596 159.19C82.7178 160.7 82.4181 162.334 82.4821 163.974C82.4821 167.233 83.826 170.341 84.7836 173.465C85.0151 174.35 85.4143 175.183 85.9595 175.918L87.4042 184.317L92.6622 184.217L92.3262 166.595C92.3262 166.595 91.7887 159.169 98.1723 159.875C104.556 160.581 113.291 167.72 125.689 165.906C127.723 165.792 129.705 165.218 131.484 164.226C132.346 163.68 133.046 162.915 133.512 162.008C133.979 161.101 134.195 160.087 134.139 159.069C134.016 158.056 133.5 157.132 132.701 156.496C131.903 155.861 130.886 155.566 129.872 155.675Z" fill="#263238"/>
<path d="M236.713 242.642L237.485 237.3C238.275 234.378 238.77 231.384 238.964 228.363C239.09 226.861 238.954 225.349 238.561 223.894C238.164 222.063 237.508 220.298 236.612 218.653C235.638 217.225 236.914 215.293 238.292 215.881C239.669 216.469 242.542 220.266 243.466 225.742C244.39 231.219 248.707 223.626 250.32 220.887C251.932 218.149 257.359 209.901 258.602 209.733C260.416 209.481 261.021 211.413 259.324 214.084C257.627 216.755 253.159 225.238 254.654 226.011C255.773 225.832 256.918 225.89 258.014 226.179C258.19 226.231 258.347 226.336 258.461 226.481C258.575 226.625 258.642 226.802 258.652 226.985C258.646 227.833 258.736 228.678 258.921 229.505C258.921 229.505 261.121 229.001 261.575 229.959C261.882 230.942 262.024 231.97 261.995 232.999C261.995 232.999 263.675 232.428 264.481 232.999C266.161 234.36 264.011 236.695 264.011 236.695C259.064 242.596 253.751 248.178 248.102 253.41L236.528 242.256" fill="#FFE3CA"/>
<path d="M258.249 229.876C257.755 230.914 257.091 231.862 256.284 232.681C255.612 233.487 254.772 234.361 253.781 235.419C253.264 235.969 252.702 236.475 252.101 236.931C251.731 237.226 251.284 237.407 250.813 237.455C250.343 237.503 249.868 237.414 249.447 237.2C249.217 237.065 249.022 236.878 248.879 236.653C248.736 236.428 248.648 236.172 248.623 235.907C248.59 235.433 248.695 234.96 248.926 234.546C249.34 233.922 249.788 233.322 250.27 232.748C251.126 231.673 251.832 230.665 252.42 229.792C252.984 228.804 253.63 227.866 254.352 226.986C254.072 228.104 253.594 229.162 252.941 230.111C252.33 231.191 251.657 232.234 250.925 233.236C250.479 233.771 250.064 234.332 249.682 234.915C249.379 235.47 249.396 236.159 249.883 236.41C250.158 236.526 250.458 236.567 250.753 236.529C251.048 236.49 251.328 236.374 251.563 236.192C252.121 235.77 252.648 235.31 253.142 234.815C254.15 233.874 255.024 232.984 255.746 232.228C256.499 231.361 257.337 230.573 258.249 229.876Z" fill="#D78776"/>
<path d="M261.189 233.321C260.694 234.218 260.059 235.029 259.307 235.724C258.548 236.537 257.722 237.284 256.838 237.958C256.307 238.36 255.745 238.719 255.158 239.033C254.809 239.208 254.435 239.327 254.049 239.386C253.815 239.424 253.576 239.412 253.348 239.351C253.119 239.29 252.906 239.182 252.722 239.033C252.412 238.712 252.216 238.298 252.164 237.855C252.112 237.412 252.208 236.964 252.436 236.58C252.776 235.982 253.176 235.419 253.629 234.9C254.368 234.044 255.057 233.221 255.746 232.397C256.972 230.986 257.778 230.163 257.879 230.23C257.436 231.153 256.871 232.012 256.199 232.784L254.318 235.455C253.921 235.93 253.561 236.436 253.243 236.967C253.113 237.181 253.053 237.43 253.071 237.68C253.089 237.93 253.184 238.168 253.343 238.361C253.646 238.647 254.284 238.529 254.839 238.26C255.39 237.975 255.923 237.655 256.434 237.303C257.307 236.68 258.143 236.007 258.937 235.287C259.605 234.543 260.361 233.883 261.189 233.321Z" fill="#D78776"/>
<path d="M261.878 238.126C261.962 238.126 261.878 238.882 261.088 239.806C260.849 240.092 260.554 240.327 260.223 240.497C259.891 240.667 259.528 240.769 259.156 240.797C258.675 240.801 258.207 240.641 257.829 240.344C257.621 240.169 257.454 239.95 257.341 239.703C257.227 239.456 257.17 239.187 257.174 238.916C257.307 238.059 257.654 237.251 258.182 236.564C258.536 236.009 258.923 235.476 259.341 234.968C260.063 234.094 260.584 233.641 260.685 233.725C260.786 233.809 260.416 234.38 259.845 235.405C259.509 235.993 259.173 236.53 258.871 237.085C258.466 237.677 258.186 238.346 258.048 239.05C258.061 239.335 258.183 239.604 258.39 239.802C258.596 239.999 258.871 240.109 259.156 240.108C259.714 240.091 260.246 239.87 260.651 239.487C261.407 238.68 261.76 238.059 261.878 238.126Z" fill="#D78776"/>
<path d="M235.452 235.706C235.452 235.706 191.388 279.064 185.206 279.383C178.151 279.719 156.447 248.943 156.447 248.943C142.554 227.508 124.226 224.048 117.54 223.51V220.856L84.6986 218.168C84.6986 218.168 84.6986 220.99 84.6986 223.46H70.2012C70.2012 223.46 44.163 222.267 40.2656 257.242L58.9796 272.042L66.6567 300.6C69.3277 310.545 59.7859 326.386 55.2334 352.038C54.5313 356.314 55.2451 360.703 57.2661 364.537L152.096 375.439L147.056 302.935L145.527 286.136C153.339 296.803 167.366 311.889 184.551 311.553C213.865 310.999 254.586 249.397 254.586 249.397L235.452 235.706Z" fill="#E0E0E0"/>
<path d="M106.489 220.383C106.652 221.873 106.652 223.377 106.489 224.868C106.244 228.6 105.739 232.311 104.977 235.972L104.859 236.527L104.356 236.258C103.213 235.653 102.02 235.015 100.811 234.309C96.1073 231.537 92.0923 228.681 89.0517 226.699C87.4103 225.7 85.8285 224.606 84.3145 223.423C84.8172 223.57 85.2976 223.785 85.7424 224.062C86.6159 224.549 87.8758 225.254 89.3877 226.178C92.4451 228.026 96.5104 230.815 101.147 233.553C102.323 234.242 103.499 234.897 104.641 235.502L104.02 235.787C104.994 231.453 105.464 227.573 105.817 224.818C105.951 223.327 106.175 221.846 106.489 220.383Z" fill="#FAFAFA"/>
<path d="M117.643 223.692C117.432 225.135 117.118 226.561 116.702 227.959C116.383 229.286 116.047 230.865 115.476 232.579C115.179 233.485 114.825 234.371 114.418 235.233C114.3 235.542 114.089 235.807 113.813 235.989C113.622 236.106 113.396 236.155 113.173 236.128C112.951 236.1 112.744 235.998 112.587 235.838C112.272 235.374 112.018 234.871 111.831 234.343C110.151 230.529 108.824 227.069 107.849 224.532C107.237 223.203 106.769 221.812 106.455 220.383C107.24 221.618 107.898 222.93 108.421 224.297C109.546 226.766 111.041 230.193 112.637 234.007C112.792 234.431 112.983 234.841 113.208 235.233C113.292 235.233 113.208 235.233 113.359 235.233C113.486 235.131 113.584 234.998 113.645 234.847C114.047 234.02 114.406 233.174 114.72 232.31C115.308 230.63 115.711 229.085 116.098 227.791C116.432 226.363 116.951 224.985 117.643 223.692Z" fill="#FAFAFA"/>
<path d="M111.527 341.016C111.447 340.623 111.402 340.224 111.393 339.823C111.393 338.95 111.326 337.83 111.191 336.463C111.057 333.372 110.855 329.089 110.62 323.831C110.217 313.079 109.646 298.38 109.041 282.153C108.436 265.925 108.05 251.226 107.714 240.475C107.596 235.2 107.495 230.916 107.411 227.825C107.411 226.414 107.411 225.272 107.411 224.465C107.368 224.063 107.368 223.658 107.411 223.256C107.489 223.649 107.528 224.048 107.529 224.449C107.529 225.322 107.663 226.464 107.747 227.808C107.882 230.883 108.083 235.166 108.319 240.424C108.722 251.176 109.276 265.875 109.898 282.102C110.519 298.33 110.872 313.029 111.225 323.797C111.342 329.055 111.443 333.339 111.527 336.43C111.527 337.858 111.527 339 111.527 339.874C111.567 340.253 111.567 340.636 111.527 341.016Z" fill="#F5F5F5"/>
<path d="M105.548 231.004L108.303 238.597L110.672 230.449L106.993 222.285L105.548 231.004Z" fill="#00BE9B"/>
<path d="M108.807 236.326L106.993 321.799L119.895 348.778L124.985 318.422L108.807 236.326Z" fill="#00BE9B"/>
<path d="M185.677 289.95C185.677 289.95 185.677 290.202 185.677 290.622L185.576 291.26L185.291 290.622C184.641 288.923 184.266 287.131 184.182 285.314C183.904 283.287 184.147 281.223 184.888 279.316C185.14 279.316 184.888 282.004 185.056 285.263C185.19 287.581 185.559 289.564 185.677 290.521H185.291C185.442 290.068 185.61 289.95 185.677 289.95Z" fill="#FAFAFA"/>
<path d="M189.457 289.663C188.204 288.348 187.273 286.761 186.736 285.026C185.928 283.425 185.486 281.663 185.442 279.869C186.298 281.431 186.995 283.074 187.525 284.774C188.327 286.337 188.974 287.975 189.457 289.663Z" fill="#FAFAFA"/>
<path d="M251.832 253.479C248.199 251.557 244.707 249.379 241.383 246.961C237.901 244.787 234.577 242.367 231.438 239.721C235.07 241.658 238.562 243.847 241.887 246.272C245.369 248.435 248.693 250.844 251.832 253.479Z" fill="#FAFAFA"/>
<path d="M68.6744 267.203C68.6744 267.203 61.6861 315.92 64.9955 318.641C83.2726 334.012 108.673 342.075 117.744 344.612C119.071 344.293 120.617 343.873 122.397 343.302C123.941 342.812 125.389 342.062 126.681 341.084C128.33 339.928 129.811 338.548 131.082 336.985C131.274 336.65 131.566 336.383 131.916 336.22C132.267 336.058 132.659 336.008 133.039 336.078C133.419 336.148 133.768 336.335 134.037 336.611C134.306 336.888 134.483 337.242 134.543 337.624C134.627 339.304 131.939 343.621 126.883 346.779C126.883 346.779 138.524 365.51 142.237 367.207C145.949 368.903 156.566 373.674 154.769 374.581C152.971 375.488 140.053 371.742 140.053 371.742L113.847 364.737C113.847 364.737 27.1644 351.147 32.9264 311.384C36.471 287.009 40.3347 265.053 41.729 259.492L68.6744 267.203Z" fill="#FFE3CA"/>
<path d="M40.2671 257.227L32.5732 310.328C30.7757 326.673 41.7286 339.659 56.4612 346.966C78.8877 358.07 112.183 365.999 111.897 365.949C111.612 365.898 114.149 342.246 114.149 342.246C114.149 342.246 67.4645 322.087 66.003 313.352C64.5415 304.616 71.933 268.331 71.933 268.331L40.2671 257.227Z" fill="#E0E0E0"/>
<path d="M111.831 365.949C111.813 365.809 111.813 365.668 111.831 365.529C111.831 365.193 111.831 364.79 111.915 364.302C111.999 363.143 112.116 361.581 112.284 359.582C112.637 355.416 113.158 349.503 113.779 342.229L113.964 342.531L90.4458 331.158L83.7263 327.798C81.4584 326.589 79.1738 325.262 76.9059 323.8C74.605 322.315 72.3948 320.694 70.2872 318.945C69.2288 318.055 68.1705 317.114 67.1626 316.123C66.5942 315.624 66.1365 315.012 65.8187 314.326C65.6406 313.993 65.5105 313.637 65.4323 313.267C65.322 312.917 65.2433 312.557 65.1971 312.192C64.4412 306.38 65.9866 300.903 66.877 295.679C67.7673 290.455 68.6577 285.364 69.4976 280.56C71.1775 270.917 72.7062 262.249 73.9829 254.925C74.6723 251.68 75.0659 248.38 75.1588 245.064C75.1913 242.569 74.6751 240.097 73.6469 237.824C72.9874 236.389 72.0512 235.099 70.8919 234.027C70.0856 233.305 69.5984 233.019 69.6152 232.969C70.115 233.22 70.583 233.531 71.0095 233.893C72.2429 234.933 73.2444 236.221 73.9493 237.672C75.0519 239.981 75.6258 242.506 75.6292 245.064C75.5917 248.41 75.2374 251.746 74.5709 255.026C73.3446 262.367 71.8831 271.052 70.2704 280.711C69.4472 285.532 68.5905 290.606 67.7001 295.83C67.4818 297.14 67.2466 298.468 67.0114 299.811C66.7762 301.155 66.5242 302.466 66.3394 303.81C65.8977 306.526 65.8243 309.289 66.121 312.024C66.1742 312.359 66.2471 312.69 66.3394 313.015C66.4055 313.338 66.5187 313.649 66.6754 313.939C66.9521 314.533 67.3531 315.06 67.8513 315.485C68.8425 316.459 69.8672 317.383 70.9087 318.257C72.9882 319.988 75.1705 321.593 77.4435 323.061C79.6777 324.523 81.9288 325.833 84.163 327.042L90.8826 330.402L114.216 342.027L114.401 342.128V342.329C113.645 349.603 113.04 355.5 112.62 359.666C112.385 361.648 112.217 363.227 112.083 364.37C112.016 364.862 111.965 365.265 111.932 365.579C111.91 365.705 111.876 365.829 111.831 365.949Z" fill="#FAFAFA"/>
<path d="M107.497 339.002C107.547 340.219 107.451 341.437 107.211 342.631C106.926 344.848 106.455 347.905 105.834 351.265C105.212 354.625 104.507 357.649 103.935 359.816C103.705 361.01 103.315 362.169 102.776 363.26C102.835 362.045 103.021 360.84 103.331 359.665C103.824 357.134 104.383 354.278 105.011 351.097C105.598 347.02 106.429 342.981 107.497 339.002Z" fill="#FAFAFA"/>
<path d="M111.83 365.946C111.55 365.944 111.273 365.899 111.007 365.811L108.706 365.257L100.306 363.04C93.2003 361.124 83.3225 358.605 72.7392 354.724C67.7589 352.903 62.9094 350.742 58.225 348.257C54.398 346.221 50.7458 343.872 47.3057 341.235C44.9846 339.458 42.795 337.515 40.7542 335.422C40.0318 334.683 39.5111 334.095 39.0743 333.742C38.8743 333.544 38.7045 333.318 38.5703 333.07C38.5703 333.07 39.4103 333.86 40.9222 335.254C43.052 337.237 45.2957 339.093 47.6417 340.815C51.1156 343.313 54.7648 345.559 58.561 347.534C63.2337 349.962 68.0596 352.083 73.008 353.884C83.5241 357.748 93.385 360.352 100.441 362.435L108.84 364.904L111.108 365.627C111.361 365.701 111.604 365.809 111.83 365.946Z" fill="#FAFAFA"/>
<path d="M112.402 344.68C112.412 344.981 112.332 345.277 112.173 345.532C112.014 345.787 111.782 345.988 111.508 346.111C111.234 346.233 110.929 346.272 110.633 346.22C110.337 346.169 110.063 346.031 109.846 345.823C109.629 345.616 109.479 345.348 109.414 345.055C109.35 344.761 109.374 344.455 109.484 344.176C109.595 343.897 109.785 343.656 110.033 343.486C110.28 343.315 110.573 343.222 110.873 343.219C111.268 343.214 111.65 343.365 111.936 343.638C112.221 343.911 112.389 344.285 112.402 344.68Z" fill="#FAFAFA"/>
</svg>
