<svg width="115" height="100" viewBox="0 0 115 100" fill="none" xmlns="http://www.w3.org/2000/svg">
<path d="M112.764 96.491H4.41319L17.705 51.7518H21.217C18.5393 56.0757 20.1944 60.7567 23.7599 63.5568L21.734 70.494C21.366 71.7669 22.6198 72.9828 24.0514 72.6486L36.9753 69.6282C37.3666 69.571 37.7286 69.4025 38.0102 69.1466L41.0128 66.4131C43.7564 69.3598 48.3348 71.0029 53.1378 69.5545C55.5049 73.2951 59.1879 75.0373 63.1958 75.0373C66.81 75.0373 70.3363 73.431 72.475 70.6028C77.7434 71.1529 84.235 68.0922 86.0459 66.0973C91.233 68.1983 95.4923 70.63 112.74 70.8169H112.762C115.276 70.8169 115.297 67.3342 112.784 67.3079C87.4258 67.036 86.0774 60.1514 73.8473 57.8899L73.8348 57.889C69.2832 57.0635 53.5344 58.3425 46.6854 57.6837C42.9862 56.8661 40.4987 53.6054 40.9784 50.2395V50.2237C41.4706 47.4665 43.3751 45.5936 44.4378 45.3497C44.4378 45.3497 62.2039 44.2471 88.6031 41.625C91.1155 41.375 90.7027 37.8967 88.1922 38.1362L70.0926 39.9337C79.1682 31.6701 83.7466 27.4918 84.7137 26.611C93.926 28.7778 112.76 34.8123 112.76 34.8123C114.902 34.8123 115.419 32.035 113.378 31.3964C106.178 29.1419 97.8049 26.2075 87.8654 23.7407L101.088 11.7006C101.967 10.8944 101.757 9.77505 101.064 9.1873L91.1499 0.481582C90.4035 -0.178102 89.1975 -0.150908 88.4799 0.507022L70.041 17.3912C65.7464 15.8026 59.7298 15.0867 57.9341 15.0867C49.4424 15.0867 38.1087 35.5878 31.4556 42.8715C29.8606 44.6164 26.989 46.1357 24.426 48.2429H16.2458C15.3838 48.2429 14.6289 48.7727 14.4014 49.5359L0.0669894 97.7841C-0.0101027 98.0444 -0.0208165 98.3175 0.0356797 98.5822C0.0921759 98.8468 0.214362 99.096 0.392754 99.3104C0.571145 99.5247 0.800943 99.6984 1.06431 99.818C1.32767 99.9376 1.61752 99.9999 1.91135 100H112.764C115.289 100 115.293 96.491 112.764 96.491ZM53.0891 65.7973L53.0862 65.7991L53.0815 65.8008C51.5626 66.5204 49.8219 66.7432 48.1466 66.4323C46.4713 66.1215 44.9615 65.2957 43.8663 64.0911L47.0237 61.2164C48.2613 61.2716 50.9179 61.3287 56.9403 61.3874C56.6771 62.3317 56.1974 63.2135 55.5332 63.974C54.8691 64.7344 54.0358 65.3561 53.0891 65.7973ZM35.7053 66.3044L26.2703 68.5089L28.7425 60.0409L29.8864 58.9987L36.8224 65.2859L35.7053 66.3044ZM37.2075 52.3896C37.6414 55.3073 39.8269 58.6461 42.3306 60.2716L39.5364 62.8156L32.6004 56.5284C37.9634 51.6448 36.5634 52.8905 37.2075 52.3896ZM56.5332 67.9334C58.8238 66.3498 60.3656 64.0201 60.8412 61.4243L69.1676 61.5006C70.1098 63.5033 70.9393 65.8649 69.8566 67.8088C66.8855 72.7898 59.5539 72.7143 56.5332 67.9334ZM74.1091 67.1562C74.4063 65.3885 73.9447 63.1463 73.2997 61.462C74.5458 61.4418 80.939 64.0323 82.1947 64.535C79.9967 65.9894 76.6492 67.0518 74.1091 67.1562ZM89.8579 4.20108L97.0079 10.4777C76.9789 28.7155 84.0715 22.2678 64.0358 40.51C61.7289 40.6153 54.6219 40.9548 49.2704 41.3504C54.7098 36.3966 46.0433 44.3225 89.8579 4.20108ZM34.3836 45.126C40.0381 38.9371 52.3514 18.5957 57.9341 18.5957C59.3704 18.5957 63.6077 19.1291 67.0499 20.1309C44.3604 40.9083 56.9661 29.4007 25.6855 57.8829C25.2048 58.3197 25.1083 58.9364 24.9353 59.5294C24.0141 58.318 23.1626 56.4573 24.1106 54.2879C25.7629 50.5062 31.3935 48.4017 34.3836 45.126Z" fill="#668EFF"/>
</svg>
