<svg width="37" height="27" viewBox="0 0 37 27" fill="none" xmlns="http://www.w3.org/2000/svg">
<path d="M33.7411 10.1883C35.701 12.2504 35.701 15.3833 33.7411 17.4454C30.4355 20.9233 24.7584 25.6478 18.3096 25.6478C11.8609 25.6478 6.18368 20.9233 2.87813 17.4454C0.918229 15.3833 0.918228 12.2504 2.87813 10.1883C6.18368 6.71035 11.8609 1.98584 18.3096 1.98584C24.7584 1.98584 30.4355 6.71034 33.7411 10.1883Z" stroke="#00BE9B" stroke-width="2"/>
<path d="M23.38 13.8168C23.38 16.6171 21.1099 18.8872 18.3096 18.8872C15.5093 18.8872 13.2392 16.6171 13.2392 13.8168C13.2392 11.0165 15.5093 8.7464 18.3096 8.7464C21.1099 8.7464 23.38 11.0165 23.38 13.8168Z" stroke="#00BE9B" stroke-width="2"/>
</svg>
